/* XPM */
static char *barbie_right1712085557[] = {
/* columns rows colors chars-per-pixel */
"64 64 254 2 ",
"   c #21191B",
".  c #4C190E",
"X  c #6E1E02",
"o  c #79280D",
"O  c #712E12",
"+  c #792C15",
"@  c #502F2E",
"#  c #733C2E",
"$  c #7C4832",
"%  c #594B53",
"&  c #842B0E",
"*  c #862C12",
"=  c #863515",
"-  c #8B3214",
";  c #9C3B14",
":  c #963919",
">  c #903D28",
",  c #8E411A",
"<  c #A7441A",
"1  c #B34F1E",
"2  c #88492A",
"3  c #9C4725",
"4  c #864C38",
"5  c #975033",
"6  c #A74926",
"7  c #AA4B23",
"8  c #AF4B2C",
"9  c #AB5429",
"0  c #B85626",
"q  c #BC5C2C",
"w  c #A95B35",
"e  c #B65834",
"r  c #BC612D",
"t  c #AA643A",
"y  c #B96637",
"u  c #C25B2B",
"i  c #C95735",
"p  c #C5652C",
"a  c #C36433",
"s  c #C96736",
"d  c #CC6A32",
"f  c #D36936",
"g  c #C9723A",
"h  c #D5733C",
"j  c #D6793A",
"k  c #AD3A5F",
"l  c #AD3962",
"z  c #E63F4E",
"x  c #98584A",
"c  c #A65748",
"v  c #B86B43",
"b  c #AD704B",
"n  c #A76D52",
"m  c #B87A55",
"M  c #B7496D",
"N  c #92696C",
"B  c #BB7E68",
"V  c #D74647",
"C  c #D1525C",
"Z  c #E54B57",
"A  c #C86B47",
"S  c #CA764A",
"D  c #D87745",
"F  c #D37C42",
"G  c #DC7C43",
"H  c #D76E51",
"J  c #CB7857",
"K  c #E07849",
"L  c #E17857",
"P  c #C44B76",
"I  c #C8537D",
"U  c #EE5C75",
"Y  c #D76E65",
"T  c #E67569",
"R  c #D8813C",
"E  c #BC835A",
"W  c #B88968",
"Q  c #B08F7B",
"!  c #CD844C",
"~  c #DA8647",
"^  c #DB854B",
"/  c #C88559",
"(  c #D48957",
")  c #DC8C52",
"_  c #DD9255",
"`  c #DC935C",
"'  c #E18445",
"]  c #E2854A",
"[  c #E48A4C",
"{  c #E88F4E",
"}  c #E38B53",
"|  c #E4895B",
" . c #E39354",
".. c #EA9453",
"X. c #E79759",
"o. c #E4945B",
"O. c #E4995C",
"+. c #E6A05E",
"@. c #CA8E6A",
"#. c #D88C63",
"$. c #CB966B",
"%. c #DD9465",
"&. c #D8966A",
"*. c #DC9C6D",
"=. c #DC8670",
"-. c #CB9C7B",
";. c #D89B74",
":. c #E78D66",
">. c #E29A63",
",. c #E49D6B",
"<. c #EB9A69",
"1. c #ED9476",
"2. c #EA9973",
"3. c #C9A26A",
"4. c #D8A16B",
"5. c #DAA67B",
"6. c #E6A568",
"7. c #E6A36D",
"8. c #EBA26A",
"9. c #F2A36E",
"0. c #E3A374",
"q. c #ECA373",
"w. c #E3A877",
"e. c #ECAB74",
"r. c #ECA47B",
"t. c #E3AB7C",
"y. c #ECAC7B",
"u. c #F2A777",
"i. c #F1AD7D",
"p. c #E8B378",
"a. c #ECB27D",
"s. c #F2B17B",
"d. c #BF5C81",
"f. c #CD6887",
"g. c #D0728F",
"h. c #D06D91",
"j. c #CE948C",
"k. c #E88988",
"l. c #D8A987",
"z. c #DCB48D",
"x. c #CCAB93",
"c. c #D2AC93",
"v. c #DCB595",
"b. c #EAA581",
"n. c #E4AD84",
"m. c #EBAE83",
"M. c #EEAD8A",
"N. c #F0AE81",
"B. c #F1A884",
"V. c #E5B383",
"C. c #EBB585",
"Z. c #E8BA87",
"A. c #E4B48D",
"S. c #ECB38B",
"D. c #EABB8C",
"F. c #F1B384",
"G. c #F0B68C",
"H. c #EEAC91",
"J. c #E6B497",
"K. c #EDB491",
"L. c #E4BB94",
"P. c #EBBC93",
"I. c #E3BB9B",
"U. c #EABD9B",
"Y. c #F2B897",
"T. c #D894A9",
"R. c #D7B2B0",
"E. c #E8BDA4",
"W. c #EBBDAB",
"Q. c #F2BCA4",
"!. c #E8B4B7",
"~. c #DEC29D",
"^. c #EDC18C",
"/. c #EDC394",
"(. c #EBC696",
"). c #ECC39B",
"_. c #EECC9C",
"`. c #F0C898",
"'. c #EED19D",
"]. c #F0D29D",
"[. c #DACAB2",
"{. c #DBC9B9",
"}. c #E3C2A4",
"|. c #EAC4A4",
" X c #ECCCA4",
".X c #E4C5AA",
"XX c #EBC6AA",
"oX c #E4C9A8",
"OX c #EACDAD",
"+X c #F1C6A7",
"@X c #EED3A3",
"#X c #EED3AC",
"$X c #EBD8AB",
"%X c #F0D2A3",
"&X c #F1D8AC",
"*X c #EACCB2",
"=X c #E8C9B8",
"-X c #F2CCB9",
";X c #E6D3B7",
":X c #EDD2B4",
">X c #EEDAB5",
",X c #ECD5B9",
"<X c #EDDBBB",
"1X c #F1D7B4",
"2X c #F1DCBB",
"3X c #EFE0BB",
"4X c #DFB9C8",
"5X c #E4B4C5",
"6X c #CFC6C3",
"7X c #DDC8C4",
"8X c #DBD5C8",
"9X c #E5C9CA",
"0X c #F3CACF",
"qX c #E8D7C7",
"wX c #ECDCC3",
"eX c #E4DCCC",
"rX c #F6D6C7",
"tX c #E8C5D4",
"yX c #EBDCD3",
"uX c #E9D7D9",
"iX c #F4DBD7",
"pX c #EBE1C6",
"aX c #EDE2CD",
"sX c #F0E1C4",
"dX c #F2E4CB",
"fX c #F3E8CE",
"gX c #ECE4D4",
"hX c #E9E6D9",
"jX c #EBE4DA",
"kX c #F3E5D7",
"lX c #F3E4DB",
"zX c #F2EADC",
"xX c #F8CFE1",
"cX c #EADAE0",
"vX c #F7D3E4",
"bX c #F9D4E5",
"nX c #F6DAE6",
"mX c #F9D8E7",
"MX c #FAD7E8",
"NX c #FADAE9",
"BX c #ECE4E4",
"VX c #E9E8E7",
"CX c #F8E4E3",
"ZX c #F2EDE2",
"AX c #F4E6EC",
"SX c #FCE3ED",
"DX c #F5E8EE",
"FX c #FCE9EE",
"GX c #EEF1EE",
"HX c #F9E9F1",
"JX c #FEECF3",
"KX c #FFEFF8",
"LX c #F8F1F4",
"PX c #FFF1FB",
/* pixels */
"vXbXbXxXxXbXxXxXxXxXbXbXbXbXxXxXbXbXxXbXbXxXxXbXbXbXbXbXbXvXbXbXbXbXvXvXbXbXMXbXbXbXNXvXbXMXbXMXNXMXbXbXbXbXbXbXbXbXbXbXbXxXbXbX",
"vXbXxXxXxXMXMXxXxXMXMXxXbXbXxXbXbXbXbXbXxXbXbXvXbXxXvXbXNXSXSXSXSXSXNXMXvXbXbXbXbXbXMXvXvXvXbXbXbXbXbXbXbXbXbXbXbXbXbXbXbXxXbXMX",
"bXbXxXxXxXxXMXxXMXxXMXMXbXbXbXbXbXbXxXxXbXNXSXSXMXbXNXJXJXJXJXSXJXJXJXJXSXvXvXMXMXMXMXbXMXMXvXbXbXbXbXbXbXbXbXbXbXbXbXbXbXMXMXbX",
"bXbXxXbXMXxXbXbXxXbXbXbXbXbXbXbXbXvXmXJXJXJXJXJXJXJXJXJXLXAXBXSXVXAXAXJXFXSXmXbXbXbXbXMXvXbXvXbXbXbXbXbXbXbXbXbXbXbXbXbXxXbXxXMX",
"xXxXbXbXxXxXxXbXbXbXbXxXxXxXbXxXNXFXJXJXJXDXzXDXJXHXAXuX5Xg.h.5XuXuXVXDXJXJXJXFXbXMXbXbXbXMXbXMXbXbXbXbXvXxXbXbXbXbXxXbXbXbXbXbX",
"bXbXbXxXxXbXbXbXbXxXbXxXbXbXbXMXJXJXJXVXtXT.R.VXGXcX!.h.d.P P h.f.R.VXVXyXlXHXJXJXSXMXbXbXbXbXbXbXbXbXbXbXbXbXbXbXbXbXMXbXbXbXbX",
"xXbXbXxXxXxXMXbXxXxXbXbXxXxXMXJXJXDXcX4XT.h.8X;X8X5Xh.d.d.P d.I f.8XVXhX;X.XqXnXSXJXJXSXbXbXbXbXbXbXbXvXbXbXbXxXbXbXbXbXxXbXMXbX",
"bXxXxXbXbXxXbXbXxXbXbXbXMXMXJXJXAXuXnXtXg.tX[.3.7Xd.M M P l P f.9XVXhX8XuXv.oX,XyXAXJXJXJXbXvXMXbXbXxXvXbXbXbXbXbXbXbXbXbXbXbXbX",
"bXxXbXbXbXxXxXbXbXbXbXxXMXJXJXDXuX5XtXtXtXqXz.~.8Xl l M l M g.7XGXeXeX{.[.;X~.;XeXyXhXHXJXJXNXvXbXbXbXbXbXbXbXbXbXbXbXbXbXbXbXbX",
"xXbXxXxXbXbXbXxXxXMXMXbXSXJXSXcX!.T.T.AXaXOX Xl.8X5XT.T.T.R.VXGX{.E l.gX8XhX[.;XaXzXuXVXHXJXSXxXbXbXbXxXxXbXMXbXbXbXbXbXbXbXbXbX",
"bXxXxXbXxXbXbXbXbXbXbXMXJXFXBXuXR.9XBX<XoX#Xz.5.W R.8X8X8X8XR.Q 2 O 2 ~.hXhXpX[.;XzXzXhXVXJXJXNXxXMXbXbXMXxXMXMXbXbXbXbXbXbXbXbX",
"xXbXbXxXbXMXbXbXbXxXxXNXKXlXBXuXgXzX;Xz.oXz.4.-.W t b t b E $ . O $ , b eXhXhX2X;XwXzXZXhXVXJXHXbXbXbXbXbXbXxXMXMXbXbXvXbXbXbXbX",
"bXbXxXbXbXxXbXbXxXbXbXNXJXFXXXI.aX*X~. X(.5.5.5.$.E E $.J 5.A.W n E E 9 -.ZXhX[.#XwXgXZXzXuXGXJXNXbXbXbXbXbXxXxXxXbXbXxXbXbXbXbX",
"xXbXMXxXbXxXxXbXvXvXbXNXJXJX.X<X<X~. X(.L.V.l.z.z.W m -.l.-.v.XXl.W E t t [.hX[.c.>XpXkXZXzXuXDXJXMXbXbXbXbXbXbXbXMXxXMXbXbXbXbX",
"MXxXxXxXxXbXbXxXvXbXbXFXJXiXqXwX XZ.Z.4.%.p.L.L.I.z.$./ A.z.l.E.$Xz.E E t E pXhXv.L.<XgXZXZXhXVXJXSXbXbXbXbXbXbXbXbXxXbXMXbXbXxX",
"xXMXxXMXbXbXxXbXbXbXSXJXCX<X<X*XZ.~ +.6.*.` n.I.XX.Xn./ &.E.v.v.~.;Xv.$.E t W pX[.-.+XaXzXZXzXVXHXFXMXbXbXbXbXMXMXbXbXbXMXbXMXbX",
"MXxXMXxXxXbXxXMXbXbXJXJXrX;X;X/.X. .u.y.Z.y.&.l.|.*X*XA.( l.|.I.I..X:XL.5.$.t Q 7Xl.n.,XkXZXzXhXDXJXSXbXbXbXbXNXMXMXbXvXvXbXbXbX",
"xXMXMXxXMXxXbXbXxXmXJXCXwX:X1Xw. .e.i.Y.U.).t.w.V.J.,X-Xn.4.I.v.I.}.oX#XoXl.3.t x.x.l.).dXzXZXzXVXJXJXMXbXmXbXbXvXvXvXxXbXbXbXbX",
"MXbXbXMXbXbXxXMXvXSXJXlX*X*X).>.X.i.F.G.P.#XXXw.t.w.A.OXOXt.5.).v.*XoXOX#X}.l.$.b x.-.z.:XkXzXzXjXHXJXSXbXbXbXbXxXxXbXMXbXbXbXbX",
"xXMXMXxXbXbXMXbXMXJXJXyXXXXXm. .8.C.F.N.C.+X:XK.%.w.2.V.|.XX*.;.A.l.|.OX,X:X}.l.E W j.J.D.wXgXzXkXZXJXFXbXbXbXbXbXbXbXbXbXbXbXbX",
"xXbXbXbXbXbXMXxXMXJXHXqXXXI.6.{ e.i.N.s.s.C.).).0.) ,.*.n.I.U.0.D.t.&.).*X<X<X|.5.E W x.U.|.wXkXgXzXFXJXNXMXbXbXbXbXbXbXbXbXbXbX",
"xXbXbXbXbXbXbXbXNXJXFX*XXXS._  .s.i.F.a.s.s.P.D.a.6._ ` ,.t.P.P.V.P.t.5.D. X:X:X$Xz.x.E.wXXX2XkXgXfXCXJXSXbXbXbXMXbXxXbXbXbXbXbX",
"bXbXbXbXbXbXbXbXNXJXCX XJ.r.j X.F.i.i.i.s.F.Y.Y.y.6.%.` >.2.C.D.5.0.V.A.t.C.C.(.#X:XOXoX*XOX XsXaXsXkXJXFXmXMXbXbXbXbXbXxXbXbXbX",
"bXbXbXbXbXbXMXbXNXJXlX).n.>.j +.i.F.s.i.y.F.Y.t.m 3 t v v S _ 5.D.0.&.n.C.4.p.p._.<XoXl.v.:X X$XsXsXwXAXJXNXvXvXbXbXbXbXbXbXbXxX",
"MXbXbXbXvXvXvXbXbXJXCX).t.) j s.N.i.i.u.q.J 5 > 4 @.;.( y y y ~ 2.C.C.&.5.C.p.Z.^.>XsX}.E.oX#X_.1XwX<XlXJXSXbXxXxXbXxXbXbXMXMXbX",
"bXbXbXMXMXMXvXbXbXJXFX+X7.g + E r.i.u.u.A > 5 #.N.2.2.<.| ^ ) ~ j ) <.C.a.p.Z./.(.%XsX<X}.:X<X#X%X,X,XyXJXSXxXbXxXxXxXMXbXxXMXxX",
"bXbXbXbXbXmXMXMXbXSXJXiX0.r 5 2 w #.r.u.#.J =.A w c x 5 S :.,.X.^ D s A ! ! 7.p.a.^. X2X}.I.<X>X2XwX2XqXHXJXmXbXMXxXxXxXMXxXxXbX",
"bXbXbXMXbXmXbXMXbXmXFXPX0X^ ( v 3 A 2.S.2.L J > % %   . v w.y.>.) } D f 0 ; : q _ 6.Z.].>X/.(.#X1X:X>XqXBXJXSXMXMXMXMXxXxXxXxXbX",
"bXbXbXbXbXbXbXvXbXbXNXJXPX;.O @ % @ n Q.:.%.J 8 j.N $ v 0.K.r.O.} [ K K d < ; u y 7.^. X1X<X X(. X X#X<XeXDXJXSXMXxXxXMXMXxXbXMX",
"bXMXvXMXbXbXbXbXbXbXbXSXPXiX4 x N # B m.>.t.J.( A Y >.u.Y.H.q.X.} ' G h i 1 1 g 6 ( C./._.<XpX@X). XoX:XwXjXJXSXxXxXMXMXbXbXMXxX",
"bXbXMXvXbXMXbXbXbXbXbXNXJXPXW.S A :.M.q.<.7.K.Y.N.r.y.Y.Y.M.8.X.) ^ D D f 0 u a v >.a.P./. X1XdX3X>X#X:X,XyXSXJXNXMXbXxXMXxXxXbX",
"bXbXMXMXbXNXMXbXbXbXNXbXNXPXrXq.2.2.m.e.6.8.K.W.K.r.m.+XW.B.<.<.} ' j h f a p D ,.,.V.P.).`.'.>XdXsX<X<X,XeXVXJXSXxXbXxXbXbXbXbX",
"bXvXMXMXMXNXMXMXMXMXMXMXNXKXrX1.u.i.i.e.e.e.m.Q.M.i.M.Q.Y.u.<...[ G j j h f q | <.` Z.U.`.`.`.].2XfXdX>X3XeXhXLXHXvXbXbXvXvXbXvX",
"MXmXmXNXMXmXMXvXMXvXvXMXNXKXrXu.b.M.G.i.p.e.r.r.i.1.B.Y.i.9.X.[ ] G R j h f 0 9 t t A.U.(.`./.`.%X>XfXdX3XpXeXVXJXNXbXbXvXbXvXxX",
"MXmXNXNXmXvXvXvXMXMXMXvXSXKX0Xu.B.H.+XG.s.s.u.| H.r.:.<.9.<.[ K ' ' ' ' h f u o O 5 z.P.D.(././.`.%X2XfXfXpXeXcXHXSXvXxXbXbXbXxX",
"vXmXmXmXNXvXmXbXbXMXNXMXNXKXrX1.:.<.r.L 8 e :.B.Q.H.1.| | | ] ' ] [ ' ' h d 0 o , w l.D.A.(.(.`.`.%X%X>XhXhXhXBXHXSXvXxXxXbXbXbX",
"mXvXMXmXmXvXMXMXMXmXmXmXMXJXJXJ.f K :.i i <.Q.-XQ.M.i.<.L ] } [ { [ ' K h d 1 n x.R.).V.L.P.(./.`.`.%X$XsXkXjXVXSXFXbXxXbXbXxXbX",
"mXvXmXmXbXmXmXmXvXvXNXmXvXSXJXJX=.f :.f H 1.k.T L C i e e | | { { [ ' G d u 0 c.yXuX}.p.L.A./.Z.^.`.@X1X3XaXgXhXDXJXbXbXbXbXbXbX",
"MXvXmXmXMXMXmXmXvXNXmXNXMXMXSXKXFXr.K Z Z z V Y :.@.B x m 1.......[ G h d u y eX9XiX*Xt.U.L.A.D./.`._.&X3XsXdXjXAXJXMXvXMXxXbXbX",
"MXmXvXMXmXmXMXNXmXNXNXNXnXmXmXSXJXFXr.:.9XtXcX9Xx.j.c M i.<.X.....' h d q 0 , 4 {.8X-.0.L.J.L.Z./.(._.%X>XsXdXaXAXKXMXbXbXbXbXxX",
"MXvXvXMXMXMXNXMXMXMXMXmXMXmXvXMXSXKXlX:.T.=XT.j.M C Z 1.>.8.<.....K f p 0 6 - X 4 4 W 4.5.OXZ.z.D.)._.].$X3XsXfXBXJXSXMXvXvXbXxX",
"mXmXmXmXmXvXnXMXnXMXMXnXvXmXmXnXvXFXPXW.V Z C U U Z :.8.7.e.X...[ h u q 9 : o + o X / &.&.`.(.t.Z.(._.'.$X>X3XsXjXJXSXMXbXbXbXbX",
"mXmXvXmXMXvXnXMXMXvXMXMXMXNXNXNXNXNXPXCXT z z Z T 2.m.y.C.e.{ { j i q 1 : - = : = O m &.( (. Xw.t.)._._.].$X3X3XgXHXJXmXbXbXbXbX",
"MXMXMXNXMXnXMXMXmXvXnXMXNXNXMXNXNXNXSXPXY.G T k.Y.Y.M.G.F.8.' h i 1 ; ; : : 6 9 : = y :.! w.1XZ.7.D.].].].].>X3XwXAXJXNXbXbXbXvX",
"NXNXMXMXNXNXNXNXmXmXmXNXmXmXmXmXmXMXSXKX-X<.N.Y.+XQ.Y.M.O.j i u 1 : ; ; : 6 q q 9 7 9 ` ( _  X Xt.p._.@X].].$X3X<XjXJXSXbXbXbXbX",
"nXMXMXnXNXNXNXNXvXmXmXvXvXmXNXNXmXMXNXKXiXb.N.Y.E.Y.F.X.d u < ; - - ; < 9 a h g r u 9 S ` ( V.OX/.w.^._.%X].].&X2XCXJXJXbXbXbXbX",
"vXMXMXnXvXMXNXNXMXMXmXMXMXMXmXNXNXmXMXJXJXb.<.u.9.<.D u < < - & * : < 9 a F ~ j d d 9 t ` ! %.). XZ.Z.(.'.].%X%XdXJXJXNXbXbXMXbX",
"vXMXMXMXMXnXMXMXMXNXNXNXMXnXMXmXmXMXMXSXKXW.) ^ D d ; ; ; - * * - < 0 a F ~ ~ ~ d j r 3 ( ( ` n.)._.a.^.%X X&XwXJXJXNXbXbXbXbXbX",
"vXmXvXMXMXMXvXmXmXmXNXbXMXMXvXmXNXNXMXNXPXJX:X^ 0 s : o - * * * 3 0 p ~ ~ [  .R j j a 3 y _ ( *.K.).D.p.].].1XJXJXSXbXbXbXbXbXbX",
"MXMXnXvXbXvXmXmXmXvXbXMXMXmXmXMXmXNXNXmXSXJXJXA.q q e = & & * : 7 r ~ O._ _  .~ R R r 6 3 J / #.n.U.^.Z.a.rXFXJXSXbXMXbXbXbXbXbX",
"vXMXvXMXmXMXMXMXMXMXMXvXMXMXMXvXmXNXmXmXmXSXPXrXg q y 3 - * - 6 r j _ _ _  .X.) R j p 0 : w %./ *.J.D.a.1XJXJXSXMXvXMXbXbXbXbXbX",
"MXvXbXMXvXMXvXvXvXvXMXMXvXnXMXmXNXmXmXmXMXmXJXJX,.d D 9 3 3 3 0 g _ O.+._  .+. .R R ! S m x / ( #.w.`.2XJXJXNXvXbXbXMXbXbXxXbXbX",
"bXbXvXMXvXMXMXbXMXMXMXvXmXmXMXmXmXmXvXmXmXbXSXPX,XF ^ y 8 9 8 y ^ O.>.` %.>.X. .O.~  XqXjXeXl.( ( W.JXJXJXNXvXMXbXxXbXbXbXbXbXbX",
"bXvXMXvXvXMXMXmXmXbXMXMXvXMXbXMXmXmXmXmXmXbXNXJXSX0.o.S r e q ^ X.>.O.O.!.xXW.=X;X4.{.uX9X{.j.;.=XPXJXSXNXMXbXbXbXbXbXbXbXxXbXbX",
"MXmXvXMXvXmXMXbXbXbXMXMXMXvXMXvXmXmXmXbXmXMXMXSXJXW.*.( g ~ g ) O.%.` *.0XMXtXuXVXE.! J.uXR.=XJXKXJXmXvXmXvXbXbXbXbXbXbXxXbXbXbX",
"bXMXmXvXmXmXvXbXvXbXvXbXbXMXnXmXmXmXvXMXMXbXMXNXPXyXc.@.( _ ) o.,.,.*XzX0Xj.C V k.iXW.-XJXKXKXJXSXmXvXMXMXbXbXbXMXxXbXbXbXbXbXxX",
"bXvXmXbXbXbXmXbXvXbXvXvXbXMXmXMXbXbXbXbXmXMXNXJXPX6Xx.j.l.E.qXyXl.l.GX9X=X@.v Y !.JXKXPXJXSXNXNXbXMXbXbXbXbXbXxXbXbXxXMXbXbXxXMX",
"bXMXvXMXiXbXmXbXvXbXbXMXbXbXNXbXbXvXMXbXMXNXJXPX7XW {.8X=X=Xl.;.J v.E.E.,XiXSXKXPXJXFXNXMXbXbXMXMXNXbXxXbXbXMXbXbXxXxXbXxXbXbXxX",
"mXbXMXbXMXbXbXbXbXMXMXvXnXvXMXMXMXvXNXbXvXSXJXiXn x.GX6Xl.%.) O.E.0XrXCXPXJXJXJXNXMXbXbXbXbXbXbXbXbXbXbXbXbXbXbXbXbXbXxXbXbXbXbX",
"bXbXMXMXbXbXbXbXvXiXMXMXMXMXvXbXMXbXbXmXbXNXJXJXCXlXSX9XE.-XkXSXJXPXPXJXSXNXMXbXbXxXbXbXbXbXbXMXMXbXbXbXbXbXbXbXbXbXxXbXbXbXbXbX",
"vXbXbXmXbXbXbXiXiXbXbXbXMXbXvXmXbXbXbXbXbXbXSXSXJXPXJXPXPXPXPXJXSXNXmXMXbXbXbXbXbXbXbXbXbXbXbXbXbXvXbXxXxXbXbXbXbXbXbXbXbXbXbXxX",
"bXmXbXbXbXmXmXmXbXmXbXbXvXbXbXvXbXbXbXbXbXbXbXvXmXNXNXNXmXmXNXmXmXbXbXvXbXbXbXbXbXbXbXbXbXbXbXbXbXbXbXbXbXbXbXbXbXbXbXbXbXbXbXbX",
"MXbXbXbXbXbXbXbXbXbXbXbXbXvXvXvXbXbXbXmXbXbXvXMXbXbXbXbXbXbXbXbXMXbXbXvXbXMXxXvXbXbXbXbXbXMXbXxXbXbXbXbXbXbXbXxXbXbXbXbXbXbXbXbX",
"bXbXMXmXmXbXbXiXbXbXvXbXbXbXvXvXbXbXiXbXbXbXbXbXMXiXbXbXbXMXxXiXbXbXMXbXbXMXMXvXbXbXbXxXbXbXbXxXbXbXbXbXvXbXbXxXbXbXbXbXbXbXbXbX"
};
