/* XPM */
static char *_1711733662[] = {
/* columns rows colors chars-per-pixel */
"64 64 256 2 ",
"   c #3B2E2E",
".  c #4E231D",
"X  c #6D2B14",
"o  c #782E13",
"O  c #4D322E",
"+  c #743724",
"@  c #7B412F",
"#  c #775357",
"$  c #8A2F0F",
"%  c #842C12",
"&  c #882E12",
"*  c #893415",
"=  c #973A18",
"-  c #A53B16",
";  c #AB3A13",
":  c #873B24",
">  c #9B421C",
",  c #A8451C",
"<  c #B5491C",
"1  c #B7501E",
"2  c #9B4824",
"3  c #8E4930",
"4  c #9C5736",
"5  c #A64A26",
"6  c #AB552A",
"7  c #B4512B",
"8  c #B75728",
"9  c #BC5C2B",
"0  c #A65A37",
"q  c #9B6139",
"w  c #BB612D",
"e  c #AA6739",
"r  c #B96537",
"t  c #C45B2A",
"y  c #C95A36",
"u  c #CA553A",
"i  c #C7652C",
"p  c #D06D2F",
"a  c #C36432",
"s  c #CB6C34",
"d  c #CA6938",
"f  c #D26C38",
"g  c #CA733A",
"h  c #D5723B",
"j  c #D7793A",
"k  c #AF3E66",
"l  c #DF3F52",
"z  c #91584A",
"x  c #B4564B",
"c  c #9C6548",
"v  c #B7764B",
"b  c #B06E50",
"n  c #B97B58",
"m  c #B84A70",
"M  c #B97866",
"N  c #B4746F",
"B  c #D4514B",
"V  c #E65156",
"C  c #CF684D",
"Z  c #C87848",
"A  c #D67946",
"S  c #DC7C43",
"D  c #CB7B56",
"F  c #D67C54",
"G  c #E27B52",
"H  c #CE536F",
"J  c #C7537B",
"K  c #EB5367",
"L  c #D5716C",
"P  c #E97272",
"I  c #D9823E",
"U  c #BB8259",
"Y  c #BB886A",
"T  c #B78F74",
"R  c #C9864D",
"E  c #DC8344",
"W  c #D98647",
"Q  c #DD854C",
"!  c #DD8A4B",
"~  c #C8855A",
"^  c #D78655",
"/  c #DC8C54",
"(  c #D48B5C",
")  c #DB8D5B",
"_  c #DA9156",
"`  c #DC935D",
"'  c #E28446",
"]  c #E08B44",
"[  c #E3864A",
"{  c #E38B4C",
"}  c #E2914D",
"|  c #E38D54",
" . c #E48958",
".. c #E39353",
"X. c #E3955B",
"o. c #E99758",
"O. c #E39B5C",
"+. c #F0A15E",
"@. c #C68A66",
"#. c #D98965",
"$. c #C9946C",
"%. c #DC9365",
"&. c #DA9868",
"*. c #D38876",
"=. c #CA9776",
"-. c #D89A75",
";. c #E88C65",
":. c #E49B62",
">. c #EB9B63",
",. c #E69769",
"<. c #E39A6A",
"1. c #EA8777",
"2. c #E89A75",
"3. c #F29972",
"4. c #D9A36F",
"5. c #DAA679",
"6. c #E7A666",
"7. c #E5A36C",
"8. c #ECA46C",
"9. c #ECAB6D",
"0. c #F0A86A",
"q. c #E4A574",
"w. c #EBA473",
"e. c #E5AB75",
"r. c #ECAC74",
"t. c #E2A47C",
"y. c #ECA47B",
"u. c #E4AB7C",
"i. c #ECAB7C",
"p. c #F1AA73",
"a. c #F1A47C",
"s. c #F1AD7C",
"d. c #E9B477",
"f. c #EBB37D",
"g. c #F2B377",
"h. c #F1B27C",
"j. c #CB5881",
"k. c #D07190",
"l. c #95808B",
"z. c #B89581",
"x. c #D19290",
"c. c #E99A8C",
"v. c #CBA687",
"b. c #D8AA87",
"n. c #DEB389",
"m. c #CBAD99",
"M. c #D3A896",
"N. c #DAB797",
"B. c #EBA787",
"V. c #E4AC83",
"C. c #ECAC83",
"Z. c #F2AC85",
"A. c #E5B385",
"S. c #ECB383",
"D. c #ECBB84",
"F. c #E4B58B",
"G. c #EDB58C",
"H. c #E3BA8B",
"J. c #EBBA8B",
"K. c #F1B283",
"L. c #F3B98B",
"P. c #EAA999",
"I. c #E3B593",
"U. c #EAB497",
"Y. c #E4BC93",
"T. c #EBBC93",
"R. c #E3BB9B",
"E. c #ECBC9B",
"W. c #F1B593",
"Q. c #F2B998",
"!. c #D592A7",
"~. c #DB99AC",
"^. c #EA9BA4",
"/. c #D8BBA6",
"(. c #D5AEB0",
"). c #E7BDA4",
"_. c #F2BCA6",
"`. c #EBB1B4",
"'. c #EABAB7",
"]. c #DEC59E",
"[. c #EEC28D",
"{. c #E6C296",
"}. c #EDC394",
"|. c #EFC996",
" X c #E5C29C",
".X c #ECC39B",
"XX c #EFCC9B",
"oX c #F1C798",
"OX c #F0CE9A",
"+X c #F1CC9C",
"@X c #EFD39E",
"#X c #D8C5B0",
"$X c #DAC6B8",
"%X c #E4C4A4",
"&X c #EBC4A4",
"*X c #ECCCA4",
"=X c #E6C7AA",
"-X c #EBCBAB",
";X c #F1CDA4",
":X c #F2C5A8",
">X c #EED2A5",
",X c #EDD3AC",
"<X c #EFDBAA",
"1X c #F1D2A3",
"2X c #F1D4AB",
"3X c #F1D9A8",
"4X c #EBCDB3",
"5X c #E7C9B9",
"6X c #F3CAB7",
"7X c #EDD3B3",
"8X c #EBD8B4",
"9X c #ECD5BB",
"0X c #EDDABB",
"qX c #F1D7B6",
"wX c #F1DCBB",
"eX c #EFE1BD",
"rX c #F0E0BC",
"tX c #E7B9C7",
"yX c #D9CFC8",
"uX c #E7CAC8",
"iX c #F4C9C8",
"pX c #ECDCC3",
"aX c #E8D8C9",
"sX c #F4D8C7",
"dX c #E9CBD3",
"fX c #F2C8D9",
"gX c #EADCD4",
"hX c #E9DBD9",
"jX c #F3DBD7",
"kX c #ECE1C9",
"lX c #F0E1C3",
"zX c #F2E3CB",
"xX c #F2E8CD",
"cX c #E9E5D7",
"vX c #ECE4D4",
"bX c #E5E3DD",
"nX c #EBE4DB",
"mX c #F3E5D7",
"MX c #F1EADC",
"NX c #EADDE3",
"BX c #F7D3E4",
"VX c #F9D4E5",
"CX c #F6DBE6",
"ZX c #F9D8E7",
"AX c #FADBE9",
"SX c #EBE3E3",
"DX c #E9E7E5",
"FX c #F5E3E6",
"GX c #FAE4E5",
"HX c #F4EEE2",
"JX c #F4E7EB",
"KX c #FCE4ED",
"LX c #FBE8EE",
"PX c #F7F1E5",
"IX c #FDE7F0",
"UX c #FDEAF1",
/* pixels */
"BXVXVXVXfXVXVXfXVXVXVXVXVXVXVXVXBXVXBXBXBXBXVXVXVXVXVXVXVXVXVXVXVXVXBXBXVXVXVXVXVXVXVXVXZXZXVXAXVXVXVXVXVXVXVXVXVXVXVXVXVXBXVXVX",
"VXVXVXBXVXVXVXVXVXVXVXVXVXVXVXVXVXVXBXBXVXVXVXVXVXVXVXVXVXVXZXVXAXAXKXKXKXKXKXAXZXVXZXVXZXVXVXZXZXVXVXAXVXVXVXVXVXVXVXVXVXBXVXVX",
"VXVXfXVXVXVXVXVXVXfXVXVXVXVXVXVXVXVXVXBXVXVXVXVXVXAXVXVXVXVXAXIXUXUXUXUXIXIXIXIXKXZXZXBXVXVXVXVXVXVXVXVXVXVXVXVXVXZXVXVXVXVXVXVX",
"VXVXVXVXVXVXVXfXVXVXVXVXVXVXVXVXVXVXBXVXVXVXAXKXUXUXIXKXKXUXUXUXIXNXNXSXbXSXJXIXUXKXZXZXVXVXVXZXVXVXVXVXVXVXVXVXVXVXVXVXVXVXVXVX",
"fXVXVXVXfXVXVXVXVXVXfXVXVXVXVXVXVXVXVXVXAXIXUXIXKXCXJXUXUXUXJXdX~.!.k.~.NXDXDXDXUXUXUXIXAXVXVXVXVXVXVXVXVXVXVXVXVXVXVXVXVXVXVXVX",
"VXVXVXVXVXVXVXVXVXVXVXVXVXVXVXVXVXVXVXIXUXIXJXdXtX~.DXDXDXhX~.k.j.J J k.k.k.hXDXDXnXFXUXUXLXAXVXVXVXVXVXVXVXVXVXVXVXVXAXVXVXVXVX",
"VXVXfXVXfXVXVXVXfXVXVXVXVXVXVXfXVXVXIXIXUXNXtX!.k.(.SXaXNX!.k.j.j.J J J J ~.bXDXnX=X5XaXKXLXUXKXAXVXVXVXVXVXVXVXVXVXVXVXVXVXVXVX",
"VXVXVXVXVXVXVXVXVXVXVXVXVXVXVXVXVXIXIXJXNXdXtX!.~.hXv.].(.J m m k k J J !.bXbXbXaXaXN.,XpXgXLXUXIXAXVXVXVXVXVXVXVXVXVXVXVXVXVXVX",
"VXVXVXVXfXVXVXVXVXVXVXVXVXVXVXVXLXUXFXhXtXJXdX~.cXN.5.aXk.m m k m J J !.bXbXcXyX$XcX].#X8XkXgXSXUXUXAXBXVXVXVXVXVXVXVXVXVXVXVXVX",
"VXfXVXVXVXVXVXVXVXVXVXVXVXVXIXAXLXKXhXtXtX`.dXnX#X].].kX(.m m m m j.(.hXbXpX5.cX#X$XkX=X5XkXvXvXNXUXUXZXVXVXVXVXVXVXVXVXVXVXVXVX",
"VXVXVXfXVXVXVXVXVXVXVXVXAXIXIXtXiXNXuX!.~.dXSX0X8X].n.T yXhXyXuXyXbXbXbXN.e e n.gXcXbX#X#XlXvXMXSXDXUXUXAXBXVXZXZXZXVXVXVXVXVXVX",
"fXVXVXVXVXVXVXVXVXVXfXVXIXKX6Xc.aXhXuXuXNXmX=X&X].n.5.T N v./.m.#Xm.z.z @ + o q 9XcXcXxX4X7XkXnXHXSXDXUXIXVXBXVXVXVXVXVXVXVXVXVX",
"VXVXVXVXVXVXfXVXfXVXVXVXUXiXQ.Q.nXnXvXvXkX].{.XXH.5.$.4.U b U v n Y c + X @ q 4 b bXcXcX8X8XpXzXHXHXbXDXUXAXVXVXVXVXVXVXVXVXVXVX",
"VXVXfXVXVXVXVXVXVXVXVXAXUX_.0.a.P.b.9XlX%X X*XN.n.5.5.5.U b Y @.Y 5.n.v.b n b e e ].cXcX$X%XpXkXnXHXDXhXJXIXZXVXVXVXVXVXVXVXVXVX",
"VXVXVXVXVXVXVXVXVXVXVXZXUX6X+.L.U.9XkX-X{.>X{.[.d.n.n.N.5.Y U 5.5.5.N.).N.$.U U q q eXcXkXm.,XpXmXMXHXMXhXIXIXVXVXVXVXVXZXVXVXVX",
"VXVXVXVXVXVXVXVXVXVXVXVXUXsX+.L.aX0X9X XJ.D.6.4.H.n.N.N.U.$.~ @.I.b.b.).#X].$.U U e Y cXcX/.n.wXaXMXHXMXDXJXUXAXVXVXVXVXVXVXVXVX",
"VXVXVXVXfXVXVXVXVXBXVXVXKXZXQ.qX0X0X&Xe./ 9.6.6.&.A.Y.=X=XU.-.~ 5.E.I.N.%X4X X=.U U e v.kX$Xv.T.zXvXMXMXMXDXUXLXCXZXVXVXVXVXVXVX",
"VXVXVXVXVXVXVXVXVXVXVXVXIXmXoX9X8X,XJ.| O.i.e.d.q.%.V.R.4X4XR.-.#.I.).R.R.=X,X X5.4.~ q m.uXv.b.*XzXMXPXMXMXJXUXCXBXBXVXVXVXVXVX",
"VXVXVXVXVXVXVXVXVXVXVXZXIXGX7X7X9X X7.o.w.i.G.T.T.q.q.U. X4X6X&X&.4. XE.R.).=X-X].{.$.$.q $XN.5.Y.sXzXHXMXMXDXUXKXVXVXVXVXVXVXVX",
"VXVXVXVXVXVXVXVXVXVXVXZXUXKXsX4X7XF.X.8.s.K.Q.E.-XY.u.u.u.R.4X5X{.4.b.R.).%X=X-X<X].N.4.@.c #XT U..XvXmXPXMXHXLXIXZXVXVXVXVXVXVX",
"VXVXVXVXVXVXVXVXVXVXVXAXUXjX4X4XXXq.{ p.K.K.Z.E.4XqXF.q.u.q.F.&X*XF.-.Y.N.E.=X-X,X9X=Xn.=.~ T v.M.F.9XvXMXMXMXHXUXAXVXVXBXVXVXVX",
"VXVXVXVXVXVXVXVXVXVXVXKXUXaX:X=XJ.:.o.g.K.K.K.h.oX:X:X<.&.w.q.A.&X:XV.( F.5.n.&X=X8X8X=XN.$.U =.x.E.T.zXmXMXmXMXUXIXVXVXBXVXVXVX",
"VXVXVXVXVXVXVXVXBXVXVXIXUXpX=X).q.| >.h.s.K.h.g.D.oX.XT.) O.:.<.B.I..XA.V.Y.-.5..X4X0X0X=Xn.@.Y Y ).R.7XwXMXxXMXLXUXVXVXBXBXVXVX",
"VXVXVXVXVXVXVXVXVXBXZXIXFX9X&XU.O.{ 0.s.K.K.f.g.h.W.T.S.i.X.` ` <.V.T.U.J.F.D.u.u.T.&X7XqX<X{.N.%X7XpX&XwXmXvXxXMXUXAXVXVXVXVXVX",
"VXVXVXVXVXVXVXVXVXVXAXUXsX6XE.V.Q ! r.K.s.K.s.h.h.W.L.C.2.8.O.X.%.<.S.T.V.5.u.F.V.A.J.J.XX2X,X-X=X4X4X,X7XlXvXzXzXLXIXVXVXVXVXVX",
"VXVXVXVXAXVXVXVXVXZXIXUX;X&XJ.7.g } p.s.s.s.s.i.S.G.W.t.v 0 v Z R ` ` d.J.u.<.t.J.4.e.d.d.|.0X-XR.b.=X,X+X<XlXlXzXmXUXAXVXVXVXVX",
"VXVXVXVXVXVXAXVXVXAXUXBX[. Xu.%.g o.s.S.s.s.s.Z.2.@.c : 3 n D Z 0 5 v ` q.S.C.&.-.D.u.d.f.J.8XlX=Xb./.*X*X>XqXpXpXsXUXKXVXVXVXVX",
"VXVXVXVXVXAXVXAXVXKXUX6Xh.T.e./ 6 ) y.s.s.s.y.F 4 : 3 ~ B.G.B.,.| W j g A ` i.S.u.e.S.D.[.[.XXrXpX4X4X,X8X*X,XwXqXpXLXIXVXVXBXBX",
"VXAXVXVXVXVXVXVXVXUXKXL.p.r.q.g X X b &.s.a.y.D x F 1.#.F D F F  ./ _ o.! A g ) w.q.e.d.D.|.+X2XpX5XN.7XwXqX7XqX9X0XFXUXVXVXVXVX",
"VXVXVXVXAXVXVXVXAXUXsXK.8.O.e.j Z U x 0 ,.w.y.,.F  .x : : O . + Z &.q.:./ [ G d t 9 8 v _ 6.7.D.;XwX*X}.7XwXwXpXpX0XgXUXAXVXVXVX",
"VXVXVXVXVXVXVXVXKXUXW.s.O.o.r._ Z 4 3 z x q.W.2.F F : z l.O   + D u.C.:.| Q [ S f t = = 6 Z 7.f.|.>XqX{.{.>X,X,X7XwXgXGXUXVXVXVX",
"VXAXVXAXVXAXVXVXIXKXp.9...0.q.%.3 . #   . @.U.,.,.*.C M z.z z *.u.W.y.:.| | S G j t , , a w ` D.}.3X8XeX>X.X*X*X*X7XpXgXLXAXVXVX",
"VXBXZXZXVXAXAXAXLXjXh.r.O.q.u.<.v + N @ z =.V.:.q.U.-.D F #.2.K.W.W.w.>.| Q S S f y < 1 Z 5 Z q.J.T.*XpXlX2X}.>X>X7X0XaXFXUXCXZX",
"VXZXZXKXKXAXKXLXUX:X0.r.8.q.y...j @.C F ,.y.2.7.8.G.Q.C.y.8.f.W.Q.B.8.>.| [ S S h d 8 t f 0 ` q.J.}.oX2XrXzXlX8X,X7X9XpXgXLXKXBX",
"ZXZXIXUXUXUXUXUXUXL.9.s.6.w.q._ p q.2.:.2.G.9.9.8.B._.U.C.y.W._._.B.8.>. .[ S S h f t i h ,.:.e.T.oX.X;X1XwXzXlX0XwX0X0XgXCXIXZX",
"ZXZXUXCXB.sXiX=XKX0.g.f.>.O.+.] i y.y.a.a.W.9.9.r.C._.Q.C.B.Q.:XQ.s.8. .| [ j j h f d t ^ 2.%.u.T.oX+XoXOX1XwXzXzX0X0XlXcXnXLXAX",
"VXVXIXUX_.P.W.:X-X0.9.h.:...] p 8 a.a.a.Z.K.r.g.e.w.C.G.B.a.Z.Q.Z.p.>. .{ S S j j h f t Z ` r 4.E.E.|.|.|.OX2XrXzXxX0XeXkXcXDXFX",
"ZXVXKXUXjXB.L.:Xf.6.6.9.>...I i 1 a.a.Z.Q.:Xh.h.h.s.,.B.y.3.a.B.p.+. .[ [ ' E ' S h d 8 * o 3 -.U.T.}.|.[.|.1X2XrXxXxXeXaXbXSXAX",
"AXUXUXIX'.B.G.4.R 0.9.9.+.} ' t ; a.a.a.Z.Q.2.#.D /  .Z._.3.;.;.3.;.{ [ ' ' ] ' ' h s t * o 4 $.A.Y.T..X|.|.|.+X2XeXxXmXcXbXNXCX",
"IXUXCX).@.^ iXG i 6.9.6.o.} ' t ; ;.3.A 3.;.u - C 1.Q._.Q.Z.3.;.G  .[ ' { { ' ' j j i 1 o 3 4 =.u.}.F..XoXoX|.+X1X<XlXzXcXDXSXCX",
"UXdX6X=.NXN.P.1.O.9.6.o.} } f ; u 6X;.y  . .y f 3.E._._.G.B.c.;.G  .| { { { { ' S f t t Y $X9X4XA.T.F.T.T.[.|.|.1X3XwXzXvXcXDXCX",
"UX4X`.=.JX#X/.c.W 9.O.} { ] 1 ; (.UXiXA G  .C G 1.P P P C u 7 : 5 ;.o.{ o.{ [ ' S p t t m.uXuXaXF.T.I.T.}.J.|.|.XX2XqXlXzXvXDXCX",
"GXI.P.D gX=X#.d w } { ' I h ; L LXUXUXjX .G l l V B B 1.#.*.=.3 L 3.o.| o.{ ' S f i t w aXyXuXkXG.V.).J.Y.J.|.oXXX3XqXlXkXzXcXCX",
"=XA c.c.Z y.P i 1 p ' j j < b jXLXAXIXUXsX8.L `.'.tXgX'.z.N x L p.>.o.o.o.{ S h s 9 1 > z /.DXm.V.4.=XF.F.J.T..X+X1X<X0XlXzXvXCX",
"7.Q ^ C 6 Z 5 - p p p p ; M KXUXAXAXVXLXUX:XL '.dXtXM.N x K V 2.,.6.+.o.o.[ S d 9 7 , * o 3 N c t.&. XR.{.A.Y.oX+X>X3XrXlXzXzXCX",
"S.S.Z ! ^ r r t p p p < L LXUXAXAXZXAXAXIXLXB.B L H K k.P B ;.2.<.p.o.o.| G f t 9 5 2 % o o X q 5.~ n.XX{.u.D.}.XXOX1X<XeXeXzXhX",
"S.C.U I ] 6 h , 1 t 6 x.UXUXAXAXZXZXAXVXAXUXsXV V V K K K 1.y.u.f.g.o...' h d t 1 5 * % * * X 4 -.~ 4.*X Xu.A.}.XXXX@X3X<XrXzXjX",
"W.u.W I g w 8 < = 5 M.UXKXJXZXAXVXZXVXAXVXLXUX1.V V V 1.B.B.S.S.K.r.{ { h t 1 5 = = & = 2 = * 2 %.( _ +X*Xd.q.J.XXXX@X@X<XrXrXgX",
"i.O.{ ' r r > , = x.UXLXZXVXZXAXZXAXVXAXAXAXUX6X;.2.Z.Q._.Q.W.Z.p.| S f t < , - - * 5 6 6 5 > > ^ ) R f.4X}.r.D.}.>XOX@X3X<XeXzX",
":.} S #.C = > 8 S u.UXLXZXVXZXZXVXAXAXAXZXAXIXsXw.a.W._.:XQ.W.r...p t t , = $ = > 2 7 w i 8 6 6 v ) / %.*X*XA.u.[.+X1X@X@X3XqXjX",
"..I Z P #.uX).c. .u.UXKXVXZXZXVXZXAXZXZXAXZXUXCXy.a.Z.Q.E.W.2.S i 1 , = = $ = > , 9 d A h i w w 6 ( _ _ D.*X.Xu.D.XX1X@X@X@X<XjX",
"] p D C *.hX(.B.%.uXLXUXZXZXZXZXAXAXZXVXVXVXIXUXy.w.w.w.>. .A 8 , - $ & $ & , 5 8 g A W j s i i 2 D _ ( &.Q.*XT.A.[.+X@X3X>X3XsX",
"j w y F x.gX5.6X5.'.uXUXZXZXZXZXZXZXZXZXVXVXAXUX6X%./ E A 8 - , = = $ % & = 6 9 g j W ! I p g s 5 e _ ^ %.S.E.+XD.D.|.1X1X2X,XsX",
"p g 7 ^.x.N.#.Q.uXhXKXIXZXVXVXZXZXZXZXZXAXVXZXUXGXT.&.s a r & & * & & % = 5 9 d W W } } I g j g 8 2 D #.^ -.T..X}.d.[.1X+X>X<XsX",
"t - b c.G #.U.iX5X=XUXKXVXVXZXVXZXZXZXZXAXVXVXIXLX.Xe.g 6 d 2 % % % & = 5 6 g ! ..} _ o.! j I g 9 2 e ~ R &.V.T.}.D.f.OX1X*X7XsX",
"; M '.b.D 2.F 3.5XKXIXAXVXZXZXZXZXZXVXZXAXVXVXKXUX6XS.) 8 a 6 * % & & = < r W X..._ ....{ I I i w 5 2 D ) ~ q.U.T.[.f.[.;X*X*XsX",
"D NX@.c._.CX_.C.N.UXAXVXZXZXZXZXVXVXZXZXVXVXVXVXUXKX}.<.s C r 5 : = = 6 9 Z | X.X._ O.O...I I p a 9 2 0 #.^ &.V.L.J.[.f.OX3X*X9X",
"CXIXjXP.LXAX'.).=.UXKXVXVXZXZXVXAXVXVXVXVXZXAXAXIXUXmXG.g A A 6 5 5 5 7 Z Q O.:.X._ O.O.o.} ] _ n.=.(.T $.( ( &.A.[.d.f.[.+X<X6X",
"UXUXuXUXUXUXIXhXJXUXAXZXZXVXVXZXVXVXAXKXLXUXUXUXLXGXGX7X4.W / w 7 6 7 a Q X.:.O.O.B.V.&.6.u...5.gXgXhXyXb.#.( #.u.D.D.d.f.[.2XsX",
"IXUXFXUXIXUXhX5.CXIXAXZXVXZXZXAXKXUXLXLXUXGXsX9X6X;XXXXXe.&.&.g r d r A ..:.:.O.q.fXfXiX9XnXb.4XaXuXaXaX=.v @.%.%.J.J.9.d.D.|.sX",
"VXIXIXIXZXLXUXUXLXAXVXAXKXIXIXUXUXJXvXwX,X@X{.n.J.XX=X%Xm.$.-.D g W A | ` :.:.<.V.fXfXfXfXjXuX^ ( /.Y : 0 + 4 %.-.u.D.d.9.d.d.2X",
"VXVXVXVXVXVXKXKXAXKXLXUXUXIXKXjX,X|.{.{. X%X%X#Xm.z.v.m.$X/.M.~ _ ` / / ,.<.V.MXhXuXx.V B L iX6X2.S i 5 = X + @.&.7.S.D.6.d.d.;X",
"AXIXAXAXLXKXLXLXUXUXLXMXpX%X{.Y.{.n.n. XN.v.Y N m.yXyXyX$X/.v.=.A.I.5XuXaX#.pXbX5XuXM 7 u L tX^.`.c.I p 8 = X n &.&.S.A.J.O.g.oX",
"UXUXUXUXUXLXLXGXjXwX=X{.Y.[.A.H.n.u.n.R.N.5.#XyX$Xm.#XyXT v.$X$X).aXN.N.n $.uX5XR.H.7.:.;.#.P.^.'.'.U.( a 5 % 4 ~ ` r.A.J.%.6.E."
};
