/* XPM */
static char *barbie_down1712085556[] = {
/* columns rows colors chars-per-pixel */
"64 64 254 2 ",
"   c #291E1F",
".  c #541F11",
"X  c #76260C",
"o  c #682A16",
"O  c #7A2B13",
"+  c #7B3617",
"@  c #56302C",
"#  c #6E3624",
"$  c #6C413C",
"%  c #6A5D6B",
"&  c #77656D",
"*  c #832C0E",
"=  c #862D12",
"-  c #893617",
";  c #963817",
":  c #A43F19",
">  c #8D3A27",
",  c #C32E1E",
"<  c #97451D",
"1  c #A7451B",
"2  c #B24C1C",
"3  c #9B4624",
"4  c #8F4B30",
"5  c #9A5638",
"6  c #A74B25",
"7  c #A9542A",
"8  c #B4522D",
"9  c #B75829",
"0  c #A85737",
"q  c #9D673E",
"w  c #B06234",
"e  c #B86536",
"r  c #CA532F",
"t  c #C35D2B",
"y  c #C5652C",
"u  c #CA6433",
"i  c #C96934",
"p  c #C66B3A",
"a  c #D36D39",
"s  c #CE733C",
"d  c #D57738",
"f  c #D5723C",
"g  c #D57B3C",
"h  c #B23852",
"j  c #AD3C65",
"k  c #E43C46",
"l  c #945745",
"z  c #AE5B4F",
"x  c #9A6F5C",
"c  c #A96C45",
"v  c #BA6A47",
"b  c #B87246",
"n  c #AC7151",
"m  c #B67955",
"M  c #B8486E",
"N  c #B37B6A",
"B  c #D3554D",
"V  c #E74857",
"C  c #E65C58",
"Z  c #C56B4A",
"A  c #D5664D",
"S  c #C77849",
"D  c #D57A46",
"F  c #DC7D43",
"G  c #C77D55",
"H  c #D47C55",
"J  c #E17B45",
"K  c #E36C59",
"L  c #C44C77",
"P  c #C7547C",
"I  c #E8596C",
"U  c #CF6D77",
"Y  c #E26C6D",
"T  c #DB823D",
"R  c #BC8259",
"E  c #BA8969",
"W  c #B79077",
"Q  c #CD8347",
"!  c #D88449",
"~  c #DD8A4B",
"^  c #CB8757",
"/  c #D88A58",
"(  c #DE9354",
")  c #DC935C",
"_  c #E28446",
"`  c #E2854B",
"'  c #E58B4A",
"]  c #E48A4C",
"[  c #E2934B",
"{  c #E38D53",
"}  c #E38857",
"|  c #E39254",
" . c #E4935B",
".. c #EB975A",
"X. c #E49A5C",
"o. c #C58A63",
"O. c #D88A64",
"+. c #CB9569",
"@. c #DA9567",
"#. c #CB9A77",
"$. c #DC9C72",
"%. c #D59B78",
"&. c #E88A61",
"*. c #E39B62",
"=. c #EA9B62",
"-. c #E89768",
";. c #E39C6B",
":. c #E78A72",
">. c #EA9C74",
",. c #F19D7B",
"<. c #DFA169",
"1. c #D9A478",
"2. c #E7A66B",
"3. c #EBA36A",
"4. c #F1A66F",
"5. c #E4A474",
"6. c #EBA475",
"7. c #E4A877",
"8. c #EBAB73",
"9. c #ECA47B",
"0. c #E4AC7C",
"q. c #ECAC7D",
"w. c #F2A479",
"e. c #F1AC7C",
"r. c #EAB47A",
"t. c #F3B27B",
"y. c #CF5D84",
"u. c #C96487",
"i. c #D17091",
"p. c #B59181",
"a. c #BEA18A",
"s. c #CA8E84",
"d. c #D68A9E",
"f. c #E68B89",
"g. c #CCA689",
"h. c #D8A986",
"j. c #D8B58A",
"k. c #D0AA94",
"l. c #DCB698",
"z. c #E4AD83",
"x. c #E8AA87",
"c. c #EDAB84",
"v. c #F2AE82",
"b. c #F1AB87",
"n. c #E4B283",
"m. c #EBB483",
"M. c #E8BA87",
"N. c #E4B48B",
"B. c #ECB48B",
"V. c #EABB8C",
"C. c #F2B384",
"Z. c #F2B68C",
"A. c #E9AF92",
"S. c #EEB593",
"D. c #E4BA93",
"F. c #EABC93",
"G. c #E6B598",
"H. c #E4BC9B",
"J. c #EBBC9B",
"K. c #F4BA95",
"L. c #F2B799",
"P. c #D990A8",
"I. c #DBA3AB",
"U. c #D5B8A6",
"Y. c #D4B4B2",
"T. c #E8BFA4",
"R. c #F2BAA4",
"E. c #E6ACB3",
"W. c #E5BCB5",
"Q. c #EEC28E",
"!. c #EDC393",
"~. c #E9C495",
"^. c #E4C39B",
"/. c #ECC39C",
"(. c #EECC9A",
"). c #F0C696",
"_. c #F1CC9D",
"`. c #EED19D",
"'. c #F0D29E",
"]. c #DBC8B0",
"[. c #DCC7BB",
"{. c #E5C4A3",
"}. c #EAC4A3",
"|. c #ECCCA4",
" X c #E4C6AC",
".X c #E8C6A9",
"XX c #E6CAAD",
"oX c #ECCCAD",
"OX c #F2C9A8",
"+X c #EED3A3",
"@X c #EED2AB",
"#X c #EFD9A9",
"$X c #F0D2A2",
"%X c #F1D3AC",
"&X c #F1DBAA",
"*X c #EBCDB3",
"=X c #E6CBB8",
"-X c #F2CBB7",
";X c #EDD4B4",
":X c #EEDAB3",
">X c #E6D4B8",
",X c #ECD5BA",
"<X c #EDDABC",
"1X c #F1DBB4",
"2X c #F4D4B9",
"3X c #F1DDBB",
"4X c #EFE1BE",
"5X c #DDB5C8",
"6X c #E5BDC7",
"7X c #DCD3CA",
"8X c #DCD0D5",
"9X c #E5C9C8",
"0X c #F4C8CC",
"qX c #ECDCC4",
"wX c #E7D7C8",
"eX c #EBDECC",
"rX c #F0DEC4",
"tX c #F5D4C9",
"yX c #EBCBD4",
"uX c #E8D9D7",
"iX c #F6DBD7",
"pX c #EDE1C8",
"aX c #F1E1C3",
"sX c #F2E4CB",
"dX c #F4E9CE",
"fX c #ECE4D3",
"gX c #E7E6D9",
"hX c #EBE4DB",
"jX c #F2E5D4",
"kX c #F2E7D7",
"lX c #FAE2DD",
"zX c #F2EADC",
"xX c #F6CEE1",
"cX c #ECDDE1",
"vX c #F7D3E4",
"bX c #F9D4E5",
"nX c #F4DBE6",
"mX c #F9D8E7",
"MX c #FAD7E8",
"NX c #FADAE9",
"BX c #ECE5E4",
"VX c #EBEAE3",
"CX c #EAE7E8",
"ZX c #F7E6E7",
"AX c #F4ECE2",
"SX c #F3E5EB",
"DX c #FCE3ED",
"FX c #FDE9ED",
"GX c #F3F2E7",
"HX c #EBEBF1",
"JX c #F4EAF1",
"KX c #FEECF3",
"LX c #FDEBF5",
"PX c #FFF2FB",
/* pixels */
"vXbXbXxXxXbXbXbXxXxXbXbXbXbXxXbXbXbXbXbXbXbXbXbXbXbXbXbXbXbXbXNXbXbXbXxXbXbXbXbXbXbXbXbXvXNXbXNXMXMXbXbXbXbXbXbXbXbXbXbXbXxXbXbX",
"vXbXbXxXxXbXbXxXxXbXbXbXbXbXxXbXbXxXxXbXbXbXbXxXxXbXbXbXbXbXbXvXbXbXbXvXbXbXbXMXbXbXNXbXMXvXbXMXbXbXbXbXbXbXbXbXvXbXbXbXbXbXbXMX",
"bXbXxXxXxXbXbXbXbXxXbXbXbXbXbXbXxXbXxXbXxXbXbXbXbXxXxXbXbXbXbXbXvXbXbXvXbXbXbXbXNXMXbXbXMXbXbXbXbXbXbXbXbXbXbXbXvXbXbXbXbXbXbXMX",
"bXbXxXbXbXbXbXxXbXbXbXbXbXbXbXbXbXbXbXbXbXbXbXbXbXbXxXxXbXvXvXNXbXbXvXbXbXbXbXbXbXbXbXbXvXvXbXbXbXbXbXbXbXbXbXbXbXbXbXbXbXbXbXMX",
"xXxXbXbXxXxXbXbXbXbXbXxXbXbXxXbXbXbXbXbXNXmXvXvXbXxXbXbXbXxXbXbXvXvXNXNXNXFXNXNXbXMXbXbXbXMXbXvXbXbXbXbXbXvXbXbXbXbXxXbXbXbXbXbX",
"bXbXbXxXxXbXbXbXbXxXbXbXxXbXbXbXbXbXbXxXvXbXbXbXbXbXbXbXbXbXbXbXDXKXKXKXLXLXPXLXLXDXLXDXNXDXDXNXbXbXbXbXbXbXbXbXbXbXbXbXbXbXbXbX",
"bXbXxXbXxXbXbXbXxXxXbXxXbXbXbXxXbXxXbXbXbXbXbXNXbXbXbXbXbXNXDXKXKXKXJXHXSXSXZXSXLXLXLXLXLXLXLXLXKXNXbXbXbXbXbXvXbXbXbXbXbXbXbXbX",
"bXxXxXbXbXxXbXbXxXbXbXxXbXxXbXbXxXbXbXbXbXbXbXbXbXxXbXbXDXLXLXLXCXVXBXhXfXfXeXwX,XqXwXhXJXSXSXHXKXKXNXbXbXbXbXbXbXbXbXbXbXbXbXbX",
"bXbXbXbXxXbXxXbXbXbXbXbXbXbXbXbXbXbXbXvXbXbXbXbXbXNXFXLXLXHXuXBXuXjXVXzXkXgXpX>X{.l.XXfXBXgXgXCXCXLXKXDXMXbXbXbXbXbXbXbXbXbXbXbX",
"xXxXxXbXbXbXbXxXbXMXbXxXxXxXbXbXbXbXbXbXbXbXbXbXDXLXLXJXCXVXgXzXGXAXzXfXpX>X>X{.].>XwXgXVXuXP.9XuXCXKXKXNXbXMXbXbXbXbXbXbXbXbXbX",
"bXxXbXxXbXbXbXbXbXbXbXbXbXbXbXbXbXbXbXxXbXbXNXKXKXLXZXVXgXzXAXAXzXfXpXdX4X].>XpXgX[.Y.gXVXuXP u.u.d.nXLXKXMXbXMXbXbXbXbXbXbXbXbX",
"xXbXxXbXbXbXbXbXxXbXxXbXbXxXbXbXbXbXbXbXbXNXLXLXJXAXzXzXAXGXzXkXfXaX<X{.^.>XgXgXgX8XpX>XgXgXu.u.P L I.JXKXFXbXbXbXbXbXbXbXMXbXbX",
"bXbXbXxXbXbXbXbXxXxXbXxXxXbXbXxXbXbXbXNXLXLXFXAXzXdXzXAXAXfXjX3X%XF.1.k.[.gXgXVXwX].+.R pXgXi.M M y.y.5XJXKXDXMXbXvXbXbXbXbXbXbX",
"xXbXxXbXxXxXxXbXbXbXbXbXbXbXbXbXxXbXNXKXLXDXkXsXfXdXzXfXjXqX}.J.h.%.].gXVXgX4Xg.c < + + ].VXP.M j y.y.d.CXJXKXKXFXbXbXbXbXbXbXbX",
"bXbXbXbXbXbXbXxXbXbXbXbXbXbXbXbXbXDXKXLXBXaXaXsXjXjXaX1XJ.D.l.#.g.>X7X{.j.R q 7 w c 5 + x VX7XM j j L i.cXHXJXLXKXLXMXbXMXbXbXbX",
"bXbXbXxXxXbXbXbXbXbXbXbXbXbXMXMXKXKXLXhX2X3XqXrX4X3XoX}.}.l.s.g.g.x n c b w b R R E c # . W VXY.M j M u.uXeXuX9XDXKXFXMXbXbXbXbX",
"xXbXbXbXbXxXbXbXbXvXbXbXbXDXLXLXKXSXuX<X;X;X:X@X`.|.XXqX XW +.E m R ^ %.1.1.#.E #.#.g.g.E n g.VXyXu.j d.].j.7Xd.uXJXLXNXbXNXbXbX",
"bXbXbXbXbXxXbXbXbXvXvXNXFXKXJXBXfXeX<X<XqX<X@X@XoXoX.X{.*XH.+.+.1.j.l.H.^.^.(.oXoXoXT.T.D.%.n n 7XuX5X7Xj.j.9Xi.E.SXLXFXbXbXbXbX",
"xXbXbXbXbXbXbXbXvXvXNXLXKXSXuXwX<X;X;X+X;X3X3X<X;XoXG.j.{.oXoXoX>X;X,X*X>X@X*X.X X{.l.h.#.#.o.G c E k.j.l.^.yXP.I.xXJXLXMXbXbXbX",
"bXbXbXMXbXbXbXbXvXNXKXJXSXgXpX<X>X*X|.|.+X|.@X|.{.{.*X,X<X2X&X%X;X<X,X>X@XXX X{.H.H.H.H.H.z.+.m R R E g.l.>XyXY.nXuXHXLXDXbXbXbX",
"xXbXbXbXbXbXbXbXNXKXJXCXgXpX4X<X<X3X1X|.^./.~.~.|.>XqXrX:X`.r.r.V.^./.J.H.j.G.l.l.}.J.x.+.G ^ E R 1.1.1.~.>XfXyXyXyXSXKXDXMXbXbX",
"bXbXbXbXMXbXMXMXKXJXBXgXeXaX4X3XaXaXaXaXaXrXaX:X1X$X$X$X).~.r.r.8.0.0.1.$.1.N.D.N.h.@.@.@.1.h.A.^.j.h.1.~.^.pXyXI.6XcXKXFXMXbXbX",
"bXbXbXbXMXbXMXLXJXCXgXfXgXdXdXdXsXsXaX3X1X1X@XoX`.!.r.r.Q.Q.M.r.m.n.B.M.V.F.z.@.$.n.~.^.*X*X-X Xl.D.j.n.j.^.^.kXE.I.cXLXDXbXbXvX",
"bXbXbXbXbXNXLXLXAXgXfXfXfXaX3X1X1X#X$X'._./.!.!.V.M.2.Q ~ 5.r.5.0.%.$.$.5.n.D.F.H..XoXXX*X*X.X{.^.D.1.n.~.|.^.gXyX5XcXLXLXbXbXbX",
"bXMXbXbXDXLXKXBXfXdXdXqX3X&X+XOX_.).(.).)._./.V.r.) w e 1 1 e 2.r.m.0.z.z.N.S.D.B.x.x.0.x.0.N.x.<.@.<.<.0.+X^.qXjXuXBXDXKXNXbXbX",
"bXbXMXDXLXLXBXpXpXpX4X3X1X#X$X(.).).Q.).(././.M.8.G 6 a : ; 1 t D / ;.2.8.2.6.;.O.*.@.2.6.5.5.7.1.n.8.2.2.M.D.sX XqXzXFXKXbXbXbX",
"bXbXDXLXFXjXpX4XaX4X:X&X+X(.).).)./.).).~.F./.0.;.@.p u 1 r a a D D a D s s S ^ *.) ) ) ) 5.F.OX|.}.m.q.2.) {.aX.XW.FXKXDXbXbXvX",
"bXDXLXJXfX4X4X4X:X1X&X$X(.).).~.V.!.(.N.V.F.N.b -.-.a 9 t t A J J } ~ { ( D w 7 b ) 3.2.m./.OX*X|.K.L.m.=.~ ^.<XqXZXKXFXNXxXxXvX",
"bXDXLXjX3X3X:X&X+X'.`.(.(.!.~.V.F.F.N.D.N.n.n < c D t u u A J F ` ~ { 3.<./ } ) H 5 v 6.m.J.).Q.m.B.v.e.3...~.,X3XZXLXNXbXxXbXbX",
"bXDXLXjX:X&X&X'.`.`.`.(./.V.M.N.N.D./.m.B.h.< + X 2 u a a d g ! ~ } =.q.0./ H -.L.o.4 9.K.Z.t.8.t.e.C.C.3.*./.<X,XZXLXNXbXbXbXbX",
"bXDXLXlX+X+X'.$X`.'.(./.V.0.n.D.H.|.z.z.=XwXE O : u u f d d T ` {  .-.B.t.z o 4 G S.l 5 K.B.t.t.t.c.C.t.{ 2.%X,X2XFXLXMXbXbXbXbX",
"bXMXLXDX;X+X'.'.'._.!.m.2.0.^.^.}.1.5..XuX9XwX5 2 a f F T g J '  .=.4.S.B.H     4 H -.- m C.q.e.m.C.t.4.| 7.*X*XrXFXFXbXbXbXbXbX",
"bXmXLXZX+X_.'.`.).m.0.7.M.|.@XQ.@.+.1.g.SXuXl.9 t a F _ _ J _ } ..>.b.L.S.-.l % & > O.v > -.e.e.e.v.C...| B.*XoXjXLXFXbXbXvXbXvX",
"bXmXLXFX2X_.).M.r.n.N.(.*X+X0.^ ^ 0.c $ a.p.#.9 y a J _ ' _ _ ] ..4.Z.R.S.e./ N i.O H } v O.e.e.t.C.8.' ) S..X*XZXLXNXbXbXbXbXxX",
"mXbXFXLX2Xr.r.M./.(.|.|.V.*.Q / ;.b X X X X : 9 y d ` ` ' _ _ ` ..4.K.-XF.9.w.H Z Z H ~ >.w.w.v.q.t...g ;.J.}.eXLXKXNXxXvXvXbXxX",
"mXbXDXPXrXr.K.)./.H.B.<./ / ) *.v - + - O O 1 9 u a _ ' ' ' ` } =.w.K.L.b.9.c.B.A.G.>.O.S.w.>.9.e.t.~ D q.G.*XZXKXDXbXxXvXbXbXbX",
"NXvXDXLXiXQ.V.F.m.0.O./ ^ ) Q 0 6 ; ; 6 - = 6 9 t f _ ' ..' ` } &.-.,.,.,.b.R.T.V.6.X.9.S.^ H z 5 5 w ( 7.^.2XFXKXNXxXxXbXbXbXbX",
"bXvXNXKXLXoXn.0.@.^ ^ / ) b 3 9 e 9 9 8 ; - 6 8 u d _ ....] ..J } } &.-.9.b.L.S.8.2.3.v.N . @ 0 S # 6 X.N.|.ZXLXNXxXbXbXbXbXbXxX",
"NXbXvXDXKXiX@.) / O./ v 7 < 9 i y u p e 6 = : 9 t f ' ......-.0 A w.c.S.L.>.>.7.8.8.2.c.:.$ % $ 0 D s 6./.lXPXDXMXbXbXbXbXbXbXbX",
"MXbXvXNXKXDX#./ ^ Z 4 3 7 9 d s i d F p 6 ; : 2 t J ......4.,.l > A b.R.L.} e.t.8.8.c.b.-.Z z # 4 $.<XiXDXLXKXvXbXbXbXbXbXbXbXxX",
"NXvXmXmXDXPXU.O.l.p.0 6 e y T s g ' ~ p 7 1 ; 1 r f ] | 4.=.,.z E B A G.OX,.e >.q.8.C.q.6.-.^ #.tXFXPXLXKXNXMXbXbXbXMXbXbXbXxXbX",
"bXvXmXvXNXLXDXh.uXGX].H y d T T ~ [ ~ s 9 1 ; ; 2 a ] ..r.-.,.B z l.A C R.K.B 8 e.OXS.v.w.9.-XPXLXLXDXNXMXbXbXbXxXbXbXbXbXbXbXbX",
"NXvXMXMXNXDXPX9XU.yXiXXXT T T [ | | ~ g e 1 ; * 1 u T 3.Z.q.6.C h k.9XB V ,.D r K K.S.w.,.L.KXKXNXNXbXbXbXbXbXxXbXbXbXbXbXbXbXbX",
"NXMXmXNXNXmXDXPXiXU.[.D.~ [ [ X.X.[ ~ ~ y 2 ; * ; 2 a ..Z.r.q.K I U Y.uXI k B D =.&.&.b.b.lXLXDXbXbXbXbXbXbXbXbXbXbXbXbXMXbXbXbX",
"NXnXNXMXNXNXNXLXLXx.) g. Xm.| X.X.(  .| i 7 ; * = : t | B.Z.b.:.I I U cXcXU B K ` r J >.0XKXDXbXbXbXbXbXvXbXbXbXbXbXbXMXbXbXbXbX",
"MXMXMXnXNXNXNXDXLXFX=XeXJXwXc.;.( ) *.| i 7 ; * = ; 2 f v.R.L.A.I V V U I.%.} ..:.b.-XtXLXDXNXbXbXMXNXbXMXMXMXbXMXbXbXbXbXbXbXbX",
"bXMXmXMXvXMXmXNXKXKXDXY f.yXxX0X;.X.X.| p 6 ; = = ; 1 u >.J.OXOX,.V V k K L.tXFXKXPXPXPXKXNXbXbXbXNXbXbXMXbXbXbXbXMXbXbXbXbXMXbX",
"vXMXmXmXmXvXMXMXNXLXLXU , f.xX6X;.X.*.{ u 6 ; * = ; ; 1 J Z.L.L.c.&.K x.NXPXLXLXKXFXNXNXbXbXbXbXbXbXbXbXbXMXbXbXbXbXbXbXMXMXbXbX",
"MXvXvXMXNXMXvXMXMXDXLXKXm v 9XW.@.X.=.} p 6 - = * = = 3 s  .w.b.6.6.-XPXLXLXDXNXNXNXbXbXbXMXMXbXbXbXbXbXbXbXbXNXNXbXbXbXMXbXbXMX",
"MXMXvXvXbXvXmXNXmXvXDXPXZX XwXCX.X*.*.{ p 6 6 3 ; ; w p e f  .=.6.tXPXFXDXvXvXMXbXbXMXbXbXbXbXbXNXbXbXMXbXbXbXbXNXbXbXbXbXvXbXbX",
"MXMXMXMXMXvXmXmXMXMXmXDXPXtXR.SX,X . .} i 9 0 7 7 p p 9 y ) 7.x.iXKXKXDXvXbXvXNXNXmXMXMXMXbXbXbXMXbXbXbXbXNXbXMXvXvXMXbXbXbXbXbX",
"vXvXvXMXmXmXvXvXvXvXvXNXFXKXW.=Xk.N.5.` D p 9 e D D y D J.lXZXLXLXFXNXbXNXvXMXmXNXmXbXMXMXbXbXMXMXbXbXbXbXbXNXbXbXbXMXbXvXxXbXbX",
"bXbXbXmXvXNXbXbXMXMXMXbXDXLXKXG.^ g.uX1.( ! p ) ) s $.tXLXKXLXKXFXMXMXMXNXvXmXmXNXNXmXMXMXbXbXbXbXbXmXbXbXbXbXvXbXbXbXbXvXvXbXbX",
"vXMXbXvXvXmXbXmXNXNXbXMXbXDXLXLXA.D k.wXn.^ O.5.$.OXFXPXKXDXNXNXMXMXMXMXNXvXMXMXmXmXvXNXMXbXMXMXMXbXbXbXbXMXbXbXbXbXbXbXbXbXbXbX",
"bXmXbXmXmXbXbXmXvXvXbXMXMXvXDXLXZX8.Q 9XT.#.k.k.iXPXLXDXNXMXvXbXMXMXvXNXNXMXvXvXvXNXNXvXbXMXMXbXbXbXbXmXmXbXbXbXbXbXbXbXbXxXbXxX",
"MXvXmXvXmXmXbXbXbXbXbXbXbXMXMXFXLXZX0.%.7X[.k.iXLXDXDXbXbXmXvXMXMXMXvXMXMXvXmXMXvXvXMXNXbXMXMXbXbXbXbXbXbXbXbXbXbXbXbXbXbXbXbXbX",
"bXvXNXvXmXbXMXbXvXbXbXbXbXmXmXNXFXLXFXl.8XCXW uXKXNXbXbXMXbXbXMXbXvXNXbXbXbXbXbXbXbXbXbXMXbXbXbXbXMXbXbXbXbXbXbXxXbXbXbXbXbXbXbX",
"NXbXvXNXmXbXbXMXvXvXmXbXbXmXNXbXNXDXLXLXSXuXq [.PXDXbXbXbXbXbXbXbXMXbXMXbXbXbXbXbXbXbXbXbXMXMXbXNXbXbXbXbXbXbXbXxXbXbXxXxXbXbXxX",
"bXbXMXvXbXiXbXbXvXbXmXvXmXvXvXmXbXbXNXFXLXFXU.9XPXKXbXbXbXbXbXbXbXbXbXbXbXvXvXbXbXvXbXbXbXbXbXMXbXbXbXbXbXbXbXbXbXbXbXbXbXbXbXbX",
"vXbXvXMXbXbXbXiXbXmXbXmXNXmXvXvXbXbXbXNXFXLXPXKXKXDXbXbXbXMXbXbXbXbXbXbXbXbXMXbXbXbXbXbXbXbXbXMXbXbXbXbXbXbXbXbXbXbXxXbXbXbXbXbX",
"bXbXbXNXbXbXbXbXbXbXbXbXvXvXNXvXbXMXbXbXbXmXNXFXNXNXbXbXbXbXMXbXbXbXbXbXbXbXbXbXbXbXbXbXbXbXbXbXbXvXbXbXbXbXbXbXbXbXbXbXbXbXbXbX",
"bXmXbXbXmXbXmXmXmXmXbXbXvXbXvXMXbXMXbXMXbXbXbXbXbXbXbXbXbXbXbXbXbXbXbXbXvXbXbXbXbXbXbXbXbXbXbXbXbXbXbXbXbXbXxXbXbXbXbXbXbXbXbXbX",
"bXmXbXbXMXbXiXbXiXbXbXvXbXbXvXbXbXbXbXMXbXbXiXMXbXbXbXbXbXbXbXbXmXvXbXmXbXbXvXvXbXbXbXbXbXbXbXxXbXbXbXbXbXbXbXxXbXbXbXbXbXbXxXbX",
"bXbXbXMXbXbXbXbXbXbXvXbXbXbXbXvXiXbXbXbXbXbXbXmXbXvXbXbXbXbXiXbXbXbXbXbXbXMXvXbXbXbXbXbXbXbXbXxXbXbXbXbXvXbXbXbXbXbXbXbXbXbXbXbX"
};
