/* XPM */
static char *barbie_left1712085557[] = {
/* columns rows colors chars-per-pixel */
"64 64 256 2 ",
"   c #21191B",
".  c #4C190E",
"X  c #6E1E02",
"o  c #79280D",
"O  c #712E12",
"+  c #792C15",
"@  c #502F2E",
"#  c #733C2E",
"$  c #7C4832",
"%  c #594B53",
"&  c #842B0E",
"*  c #862C12",
"=  c #863515",
"-  c #8B3214",
";  c #9C3B14",
":  c #963919",
">  c #903D28",
",  c #8E411A",
"<  c #A7441A",
"1  c #B34F1E",
"2  c #88492A",
"3  c #9C4725",
"4  c #864C38",
"5  c #975033",
"6  c #A74926",
"7  c #AA4B23",
"8  c #AF4B2C",
"9  c #AB5429",
"0  c #B85626",
"q  c #BC5C2C",
"w  c #A95B35",
"e  c #B65834",
"r  c #BC612D",
"t  c #AA643A",
"y  c #B96637",
"u  c #C25B2B",
"i  c #C95735",
"p  c #C5652C",
"a  c #C36433",
"s  c #C96736",
"d  c #CC6A32",
"f  c #D36936",
"g  c #C9723A",
"h  c #D5733C",
"j  c #D6793A",
"k  c #AD3A5F",
"l  c #AD3962",
"z  c #DD3E51",
"x  c #E63F4E",
"c  c #98584A",
"v  c #A65748",
"b  c #B86B43",
"n  c #AD704B",
"m  c #A76D52",
"M  c #B87A55",
"N  c #835A62",
"B  c #B7496D",
"V  c #92696C",
"C  c #BB7E68",
"Z  c #D74647",
"A  c #D1525C",
"S  c #E54B57",
"D  c #C86B47",
"F  c #CA764A",
"G  c #D87745",
"H  c #D37C42",
"J  c #DC7C43",
"K  c #D76E51",
"L  c #CB7857",
"P  c #E07849",
"I  c #E17857",
"U  c #C44B76",
"Y  c #C8537D",
"T  c #EE5C75",
"R  c #D76E65",
"E  c #E67569",
"W  c #D8813C",
"Q  c #BC835A",
"!  c #B88968",
"~  c #B08F7B",
"^  c #CD844C",
"/  c #DA8647",
"(  c #DB854B",
")  c #C88559",
"_  c #D48957",
"`  c #DC8C52",
"'  c #DD9255",
"]  c #DC935C",
"[  c #E18445",
"{  c #E2854A",
"}  c #E48A4C",
"|  c #E88F4E",
" . c #E38B53",
".. c #E4895B",
"X. c #E39354",
"o. c #EA9453",
"O. c #E79759",
"+. c #E4945B",
"@. c #E4995C",
"#. c #E6A05E",
"$. c #CA8E6A",
"%. c #D88C63",
"&. c #CB966B",
"*. c #DD9465",
"=. c #D8966A",
"-. c #DC9C6D",
";. c #DC8670",
":. c #CB9C7B",
">. c #D89B74",
",. c #E78D66",
"<. c #E29A63",
"1. c #E49D6B",
"2. c #EB9A69",
"3. c #ED9476",
"4. c #EA9973",
"5. c #C9A26A",
"6. c #D8A16B",
"7. c #DAA67B",
"8. c #E6A568",
"9. c #E6A36D",
"0. c #EBA26A",
"q. c #F2A36E",
"w. c #E3A374",
"e. c #ECA373",
"r. c #E3A877",
"t. c #ECAB74",
"y. c #ECA47B",
"u. c #E3AB7C",
"i. c #ECAC7B",
"p. c #F2A777",
"a. c #F1AD7D",
"s. c #E8B378",
"d. c #ECB27D",
"f. c #F2B17B",
"g. c #BF5C81",
"h. c #CD6887",
"j. c #D0728F",
"k. c #D06D91",
"l. c #CE948C",
"z. c #E88988",
"x. c #D8A987",
"c. c #DCB48D",
"v. c #CCAB93",
"b. c #D2AC93",
"n. c #DCB595",
"m. c #EAA581",
"M. c #E4AD84",
"N. c #EBAE83",
"B. c #EEAD8A",
"V. c #F0AE81",
"C. c #F1A884",
"Z. c #E5B383",
"A. c #EBB585",
"S. c #E8BA87",
"D. c #E4B48D",
"F. c #ECB38B",
"G. c #EABB8C",
"H. c #F1B384",
"J. c #F0B68C",
"K. c #EEAC91",
"L. c #E6B497",
"P. c #EDB491",
"I. c #E4BB94",
"U. c #EBBC93",
"Y. c #E3BB9B",
"T. c #EABD9B",
"R. c #F2B897",
"E. c #D894A9",
"W. c #D7B2B0",
"Q. c #E8BDA4",
"!. c #EBBDAB",
"~. c #F2BCA4",
"^. c #E8B4B7",
"/. c #DEC29D",
"(. c #EDC18C",
"). c #EDC394",
"_. c #EBC696",
"`. c #ECC39B",
"'. c #EECC9C",
"]. c #F0C898",
"[. c #EED19D",
"{. c #F0D29D",
"}. c #DACAB2",
"|. c #DBC9B9",
" X c #E3C2A4",
".X c #EAC4A4",
"XX c #ECCCA4",
"oX c #E4C5AA",
"OX c #EBC6AA",
"+X c #E4C9A8",
"@X c #EACDAD",
"#X c #F1C6A7",
"$X c #EED3A3",
"%X c #EED3AC",
"&X c #EBD8AB",
"*X c #F0D2A3",
"=X c #F1D8AC",
"-X c #EACCB2",
";X c #E8C9B8",
":X c #F2CCB9",
">X c #E6D3B7",
",X c #EDD2B4",
"<X c #EEDAB5",
"1X c #ECD5B9",
"2X c #EDDBBB",
"3X c #F1D7B4",
"4X c #F1DCBB",
"5X c #EFE0BB",
"6X c #DFB9C8",
"7X c #E4B4C5",
"8X c #CFC6C3",
"9X c #DDC8C4",
"0X c #DBD5C8",
"qX c #E5C9CA",
"wX c #F3CACF",
"eX c #E8D7C7",
"rX c #ECDCC3",
"tX c #E4DCCC",
"yX c #F6D6C7",
"uX c #E8C5D4",
"iX c #EBDCD3",
"pX c #E9D7D9",
"aX c #F4DBD7",
"sX c #EBE1C6",
"dX c #EDE2CD",
"fX c #F0E1C4",
"gX c #F2E4CB",
"hX c #F3E8CE",
"jX c #ECE4D4",
"kX c #E9E6D9",
"lX c #EBE4DB",
"zX c #F3E5D7",
"xX c #F3E4DB",
"cX c #F2EADC",
"vX c #F8CFE1",
"bX c #EADAE0",
"nX c #F7D3E4",
"mX c #F9D4E5",
"MX c #F6DAE6",
"NX c #F9D9E7",
"BX c #FAD7E8",
"VX c #FADBE9",
"CX c #ECE4E4",
"ZX c #E9E8E7",
"AX c #F8E4E3",
"SX c #F2EDE2",
"DX c #F4E6EC",
"FX c #FCE3ED",
"GX c #F5E8EE",
"HX c #FCE9EE",
"JX c #EEF1EE",
"KX c #F9E9F0",
"LX c #FEECF3",
"PX c #FFEFF8",
"IX c #F8F1F4",
"UX c #FFF1FB",
/* pixels */
"nXmXmXvXvXvXmXvXvXmXmXmXmXmXmXmXmXmXmXmXvXmXmXmXvXmXmXmXmXmXmXBXmXmXmXvXmXmXmXBXmXmXNXmXmXMXmXBXBXBXmXmXmXmXmXmXmXmXmXmXmXvXmXmX",
"nXmXmXvXmXmXmXvXmXvXmXmXmXmXvXmXmXmXvXmXmXmXmXmXmXmXvXmXVXVXFXFXFXFXFXVXmXmXmXmXmXnXmXmXmXmXmXBXmXmXmXmXmXmXmXmXmXmXmXmXmXmXmXBX",
"mXmXvXvXvXmXmXmXmXvXmXmXmXmXmXmXvXmXvXmXvXmXvXmXmXvXvXFXLXLXLXPXLXLXLXKXLXVXMXVXFXFXVXVXMXBXmXmXmXBXmXmXmXmXmXmXmXmXmXmXmXmXmXmX",
"mXmXvXvXmXmXmXvXvXmXmXmXmXmXmXmXmXvXmXmXmXBXmXvXmXBXVXLXLXHXCXZXJXCXDXLXLXLXLXLXLXLXPXLXFXFXmXmXmXnXmXmXmXmXmXmXmXmXmXmXmXmXmXBX",
"vXvXmXvXmXvXmXmXmXmXmXvXmXvXmXmXmXmXmXmXVXBXmXVXFXPXLXLXGXZXpXpX7Xk.j.7XpXLXLXFXGXDXDXIXLXLXFXVXmXmXmXmXmXvXmXmXmXmXmXmXmXmXmXmX",
"vXBXmXvXvXvXmXmXmXvXmXmXvXmXmXvXmXmXmXvXmXVXFXLXLXKXCXiXZXZXW.h.k.Y g.g.k.W.CXJXZXW.E.uXCXPXLXFXVXmXnXmXmXmXmXmXmXmXmXmXmXmXmXmX",
"mXmXvXmXmXvXmXmXvXvXmXmXvXmXmXvXvXmXnXmXFXLXLXKXMXeX X>XkXZX0Xh.Y Y U g.g.h.7X0X>XuXk.E.7XbXIXLXLXVXmXnXmXBXmXnXmXmXmXmXmXmXmXmX",
"mXvXvXmXvXmXmXmXvXmXmXmXmXvXmXmXmXnXnXFXLXLXDXiX2XoXn.pX0XkXZXqXh.U l B B B g.9X5.;XuXj.uXbXpXKXLXFXVXnXmXmXmXmXmXmXmXmXmXmXmXmX",
"vXmXmXmXmXvXmXvXmXmXmXmXmXmXvXBXmXmXFXLXKXCXjXrX>X/.0X}.|.tXsXJX7Xj.U k l l B 0XY.c.>XuXuXuX7XpXDXLXLXBXmXmXBXmXmXmXmXBXmXmXmXmX",
"mXvXmXvXmXmXmXmXmXmXmXvXvXvXmXmXmXFXLXKXCXlXlXdX>X+XkX|.jX7.Q }.HXSXW.E.E.E.8X0Xv. X>XjXCXE.E.^.pXHXLXFXmXmXmXmXnXmXmXmXmXnXmXmX",
"vXmXmXvXvXmXmXmXmXmXmXmXmXmXmXvXVXLXIXZXlXcXjX1X}.sXkXkX}.2 O 2 ~ W.0X0X0XsXW.! 7.I.%X+X2XSX6X^.pXCXFXLXVXvXmXmXBXmXmXmXmXmXmXmX",
"mXvXmXmXmXmXmXmXvXmXvXmXmXmXvXmXLXKXZXkXSXlXrX>X>XkXkXsXn , $ O . $ M n t n t ! 5.5.c.XXc.>XkXjXkXkXxXUXVXmXmXmXmXmXmXmXmXBXmXmX",
"vXmXmXvXvXmXmXmXvXvXvXvXmXmXmXBXPXDXkXcXSXjXsX>X}.kXSXv.w M M m ! c.>.) $.! M $.7.7.7._.[.n.>XdXY.!.KXLXVXmXmXmXmXmXmXmXmXmXmXmX",
"mXvXvXmXmXvXvXmXmXmXmXmXmXvXmXLXIXpXlXSXkXrX<Xn.>XkX}.w t Q Q c.+Xn.:.x.>.M $.c.c.c.c.G._.$XI.rXrXOXLXLXVXmXmXmXmXmXvXmXmXmXmXmX",
"mXmXmXmXvXmXvXmXmXmXmXmXmXmXVXPXZXkXcXcXjXrXn.n.kXsXn t Q Q c.-XY.x.n.D.L $.x.Q.I.I.u.6.8.d.Z.+X2XrXaXLXLXmXmXmXmXmXmXmXmXmXnXmX",
"mXmXmXvXmXmXmXmXmXmXmXmXmXBXFXPXZXcXSXcXdX#X5.}.sX! y Q &.n.-X+Xn.n.`.=.) c.OX@XY.u.] 8.6.8.( S.-X2X2XAXPXVXvXBXBXmXmXmXBXBXmXmX",
"mXmXmXmXvXvXmXmXmXnXmXmXmXVXLXJXkXSXSXhX4Xm.x.0X~ t 5.7./.%XoXY.I.OXx.] D.;X-X.Xx.*.s.A.i.f.X.@.`.>X>X4XLXLXVXmXVXnXmXmXnXmXmXmX",
"mXmXmXmXmXmXmXmXmXmXmXmXBXLXKXSXcXSXxXrXT.x.v.v.t &.c.`.%X+X XY.Y.U.-.x.;X1XY.M.u.r..X`.P.a.p.O.r.1X-XyXAXPXVXnXnXnXvXmXmXmXmXmX",
"mXmXmXmXBXmXmXmXmXvXmXmXVXLXHXcXcXSXjX,Xc.:.v.n $.7.+X@X-XoX@XY.I.7.7.%X-XK.r.u.r.OX@XR.J.V.f.O.<.`.1X-XxXLXFXmXvXnXmXmXmXmXmXmX",
"mXvXmXBXmXmXmXmXmXmXmXmXLXLXSXjXcXzXrXU.n.l.! Q x. X1X1X@X Xx.D.>.-.OX`.M.w.t.*.F.,X#XA.a.F.f.0.X.d.OXOXiXLXLXmXmXmXmXmXmXmXmXmX",
"vXmXmXmXmXmXBXmXmXnXnXmXLXKXcXhXzXfX XT.b.! Q x.OX4X1X-X`.=.s.D.w.U.Y.M.1.8.` w.]..XJ.f.f.H.a.t. .8.Y.OXeXLXLXmXmXmXmXmXmXVXmXmX",
"mXvXmXmXmXmXmXmXmXmXmXFXLXAXhXjXzX<XOXyXQ.b.c.+X<X<X.XG.7.u.U.F.U.T.x.,.] ' 1.s.P.U.f.f.d.V.V.f.o.` B.OX;XHXLXVXmXvXmXmXmXmXmXmX",
"BXvXBXmXmXvXmXmXnXnXmXLXLXzXgXgXfX$X@X-XoX@X%X<X_.s.A.u.D.Z.1.7.U.Z.1.2.*.<.0.i.).J.d.t.f.V.V.f.O.j r.Y.OXxXLXVXmXmXmXmXmXmXmXmX",
"BXmXmXmXmXmXBXmXnXnXVXLXDXrXrXrX&XXX,Xn.x.+X2X'.t.s.7.Z.M.=.7.G.s.*.F y b t 3 M m.R.H.d.a.p.H.V.<.j <.Z.`.xXLXVXmXmXvXmXmXvXmXmX",
"mXmXmXmXBXBXvXmXmXBXFXPXxX1XrX3X'.@X X`. XfX<X).A.d.A.u.=.N.A.1.^ g y y ) =.$.5 # 5 ) 4.p.a.a.C.t./ ` u.`.VXPXmXmXmXmXvXmXmXmXmX",
"BXmXmXBXmXBXnXnXmXBXFXPXiX1X3X%X%X2X1X/.1XfX*X_.).S.s.s.A.0.( G H / ( ..2.y.y.C.R 5 > L p.p.C.m.F + g 1..XLXFXmXmXvXvXmXmXvXmXmX",
"mXmXmXmXmXBXBXmXBXVXLXGXeX4X2X2X<X2XY. X4X$X(.d.s.*._ ^ D s G ( O.1.] F 5 4 v v L ,.K %.p.p.=.w 2 5 r w.aXLXFXmXmXmXvXmXmXvXmXnX",
"mXmXmXBXmXBXBXBXBXFXPXbXrX<X>X<X%X_.).5X[.(.8.' r : ; 0 f G  .` @.N.y.b .   % N * F ( 4.B.4.D 3 n _ / yXPXLXBXBXmXmXmXmXvXmXvXmX",
"mXBXBXvXmXBXmXmXVXPXKXjX2X%XXXXX_. X4X<XXX(.w.y q < < i P { {  .+.u.F.4.b $ V l.8 L ;.*.R.m @ % @ O l.PXLXBXmXBXmXmXmXmXmXmXmXmX",
"mXBXmXBXBXmXBXBXKXKXpXrX>XXXXX_.%XdX4X].U.A._ 6 g < 1 s G J [  .+.e.P.R.a.2.L b %.L.M.<.B.C # V c 5 aXPXVXmXmXmXmXmXmXmXmXmXmXmX",
"mXBXmXmXmXmXmXBXLXKXtX1X-X,X<X5XgX<XXXT.G.u.<.y r u 0 s h P [  .2.2.B.R.G.i.y.C.R.P.8.0.4.C.,.F F OXUXHXBXvXmXmXmXmXvXmXvXmXvXmX",
"mXmXBXmXmXBXmXFXLXCXtX1X4X2XfXgX=X[.].].).A.9.1.H p s f h j J | O.0.C.~.#XB.y.K.!.F.0.8.t.B.0.4.e.yXPXVXmXvXmXmXmXvXmXmXmXmXmXmX",
"BXnXVXnXVXmXVXLXJXkXsX5X<XgXgX4X{.].].).`.F.*.9...q f h j j J } o.2.q.R.#XK.C.K.~.C.t.t.t.d.C.y.4.wXUXNXmXmXmXmXvXmXmXmXmXmXmXmX",
"BXnXVXBXBXVXVXLXZXtXsX2XgXhX4X*X'.).].).U.D.t t w 0 f f W J J [ { O.q.a.R.p.3.a.y.p.t.a.d.J.C.y.p.yXUXNXmXmXvXmXmXvXmXmXmXmXmXvX",
"BXmXVXVXmXmXFXHXZXpXdXhXhX<X*X'.).(.).G.U.x.5 O o u f h [ [ [ [ {  .2.p.2.,.p.K.,.q.p.p.H.#XR.C.3.yXPXNXmXmXmXmXmXmXvXvXvXvXmXvX",
"nXMXVXMXVXnXGXKXZXkXzXhX5X*X{.(.].].`.D.G.M.w , o 0 d j [ [ } [ [ { ..I ..4.K.~.C.I v 8 I a.2.,.q.yXUXNXvXmXmXmXmXvXmXvXmXmXmXmX",
"VXnXVXnXMXmXLXHXZXkXlXsX=X$X'.].(.).U.I.Z.T.W.v.m 1 p h P [ { | }  .I I 3.C.B.~.:X#Xp.i i ..P f K.LXLXmXmXmXmXmXmXmXmXvXmXmXvXmX",
"BXnXnXVXmXVXLXGXkXtXdX2X=X*X].).G.).D.U.N. XtXiXb.0 u d J { } o.| ..,.8 e i K R E z.3.I K ..f >.LXLXHXmXvXnXmXBXvXvXmXmXBXmXBXmX",
"BXBXVXBXNXVXLXDXkXgXfX2X<X'.].).G.I.I.T.r.-XpXqXtXy u d h J } o.o.X.q.M $ R L 3.R Z z z Z P 4.LXUXFXmXmXmXmXmXmXmXmXmXmXmXmXmXvX",
"VXnXnXVXmXVXLXDXdXgXfX<X*X'._.).G.D.Y.I.7.7.0X|.4 ; 0 u f j / o.o.O.,.C.C v ~ W.0XiXwXwX,.p.LXPXFXmXmXmXmXmXmXvXvXmXvXBXmXmXmXvX",
"BXnXBXBXnXFXPXCXhXfX5X<X{.[._.D.Z.D.+X7.6.Q $ 4 o & 1 0 q d J o.O.2.2.2.3.Z A U l.E.|.E.,.xXPXFXBXvXBXmXmXmXBXvXmXmXmXmXmXmXmXvX",
"MXnXBXnXBXKXLXCXfX5X<X$X[.[.`.S.u.I.XX=.-.$.X o + + : 9 q a h } o.O.t.0.e.,.S T T S S Z !.UXFXmXvXBXvXmXmXmXmXmXvXmXBXmXmXmXmXmX",
"VXnXnXBXNXLXDXjXfX5X&X{.'.'._.s.u.XX_.^ =.M O = : + * < 7 0 u h | | t.H.i.A.3.E S S x R FXLXVXvXBXvXBXmXmXmXvXmXmXmXmXmXmXmXmXmX",
"VXBXVXVXFXLXDXrX5X=X$X[.[.'.G.9.G.<Xs.^ *.y * 3 9 6 : : ; < 1 i j [ 8.H.F.B.L.R.3.E P B.UXFXmXmXmXBXvXmXBXBXmXmXmXmXmXmXBXBXmXmX",
"MXVXVXMXFXLXCX4X<X=X{.{.[.].Z.r.XX$X' _ ] 9 6 7 q r 8 : ; ; ; < u d j O.H.R.~.#X~.V.0.yXLXVXmXmXmXvXBXmXBXmXBXvXmXBXmXBXmXmXmXmX",
"BXBXVXmXFXLXxX2X<X{.{.{.'.).t.I.%Xu._ ] F 9 q r g h a 9 < ; - - ; < 0 f +.H.R.T.R.a.m.aXPXVXmXmXBXBXBXBXBXBXmXBXmXmXmXmXmXmXmXmX",
"mXBXVXmXVXLXLXgX$X*X{.[.].S.D.XX`.*._ ' w 9 d d j / H y 9 < - - & - ; < u G 2.e.p.2.m.LXLXBXmXBXBXBXvXBXBXmXBXmXmXBXmXmXmXmXBXmX",
"nXnXBXVXmXFXLXLXrX&X$X$X(.s.`.`.M.] _ _ 6 r j d / / ( j s 0 < - & * - ; ; < s G / ` !.LXFXmXmXmXmXvXmXmXBXmXmXmXmXmXmXmXBXmXmXmX",
"BXMXBXBXBXmXFXPXLX1X'.].d.G.].F.-._ _ t 3 s j j W X.} / / a 9 3 * * * : & : a 0 ( @XLXPXVXmXmXmXBXmXmXmXmXmXmXBXVXmXmXmXBXmXmXmX",
"BXnXmXmXBXnXnXFXLXLX4XA.S.).).N.%.^ L 6 9 p W W ( X.} ' X.( p 7 : * * o * w r r F.UXLXFXmXmXBXmXmXBXmXBXBXmXnXmXBXmXmXBXmXnXmXmX",
"mXBXmXnXVXnXmXVXFXLXPX3Xd.G.P.>._ %.w : 9 p j W / #.' ' ] O.G 0 6 - * - 3 y r j yXUXFXBXBXmXmXmXmXBXmXmXBXBXmXmXnXmXnXnXmXmXmXmX",
"nXmXBXVXnXMXmXmXmXVXLXLX4XT.7.] *.) c M F ^ W W #.#.X.' @.@.` g 8 3 3 3 9 G d -.LXLXVXmXmXBXmXBXBXmXvXBXnXBXBXBXmXmXVXBXvXvXmXmX",
"BXmXmXVXmXVXmXNXVXmXVXLXPXLXoX_ _ l.tXlXeXXXW X.X.#.*.<.O.@.+.` s 8 9 8 y ` H :XUXHXmXMXBXBXmXBXmXmXnXmXBXBXmXnXmXmXmXmXmXmXmXmX",
"BXnXmXmXmXmXmXNXVXNXmXFXFXLXUX^.&.b.|.qXuX0X6.eX+X`.nX^.] @.<.+.G q e r F ,.e.AXLXNXVXmXMXmXmXBXmXBXBXnXnXmXmXmXmXmXmXmXmXmXmXmX",
"mXmXMXmXMXmXmXmXmXmXmXmXnXFXLXUXLX;XW.iXL.^ W.SXaXuXNXwX6.<.<.] ` j ^ g _ =.oXUXFXMXBXmXmXBXBXmXmXmXmXmXnXnXnXmXmXmXmXmXmXmXmXvX",
"BXmXnXMXNXNXmXmXmXmXmXmXmXmXVXFXLXUXUXKX:X~.aXz.Z A l.wXcX-X<.4.] ` ' ` $.x.pXUXVXmXBXVXmXBXBXmXmXBXmXmXBXBXBXmXmXmXmXmXmXmXmXvX",
"mXnXNXnXNXmXVXmXnXmXmXmXmXMXmXVXVXVXFXLXUXUXLX^.R e $.;XuXJXx.x.tXeXQ.7.l.v.|.UXLXVXmXmXmXmXmXmXmXBXmXmXmXmXmXvXvXmXmXmXmXmXvXmX",
"BXNXnXNXnXmXmXmXmXmXmXNXmXNXVXmXmXmXmXBXVXFXLXUXUXKXxX:XOXQ.n.^ >.x.;X;X0X|.! 0XUXLXVXmXmXmXBXBXVXBXmXmXmXmXBXmXmXvXmXvXvXmXmXmX",
"NXnXnXNXNXnXmXmXmXnXNXnXMXmXmXVXmXmXVXmXmXmXVXVXLXLXLXUXAXwXwXQ.<.` *.x.8XJXv.m aXPXVXmXmXmXBXmXmXmXmXmXmXmXmXmXmXmXmXmXmXmXmXnX",
"mXnXNXBXnXmXaXmXMXnXnXNXMXmXmXmXmXmXmXBXVXmXaXmXmXVXVXFXLXUXPXLXFXaX:XOXuXDXaXaXLXPXVXmXmXmXmXBXmXmXmXmXmXmXmXmXBXmXvXmXmXmXmXmX",
"nXmXNXmXmXmXmXNXNXnXmXBXnXmXmXMXmXVXmXmXmXmXmXaXnXBXmXmXVXVXFXFXPXPXUXUXUXPXIXPXLXVXmXmXmXmXmXmXmXnXmXmXmXmXmXmXBXmXmXmXmXmXmXmX",
"mXBXmXmXVXmXmXNXNXnXmXmXBXmXnXmXmXmXmXmXmXmXmXnXmXmXmXmXmXmXmXmXNXVXVXVXVXVXVXnXnXmXmXmXBXmXmXmXmXmXmXmXmXmXmXmXmXmXmXmXmXnXmXmX",
"mXNXBXmXmXmXmXmXaXmXmXmXmXmXmXnXmXmXmXBXmXmXnXNXNXmXmXmXmXmXmXnXmXmXmXnXnXBXmXmXmXmXmXmXmXmXmXvXmXmXmXmXmXmXmXvXmXmXmXmXmXmXvXmX",
"mXmXmXBXBXmXaXmXnXnXnXmXmXmXmXmXmXaXmXBXmXmXmXmXmXnXnXnXmXmXaXnXmXnXmXmXBXBXMXnXmXmXmXmXmXmXmXvXnXmXmXmXnXmXmXmXnXmXmXmXmXmXmXmX"
};
