/* XPM */
static char *barbie_up1712085557[] = {
/* columns rows colors chars-per-pixel */
"64 64 254 2 ",
"   c #3B1E1B",
".  c #4E1C10",
"X  c #752B10",
"o  c #7E371D",
"O  c #6F3623",
"+  c #7B4631",
"@  c #493A42",
"#  c #4C4A53",
"$  c #764B43",
"%  c #8D300E",
"&  c #852C12",
"*  c #8A2E13",
"=  c #873717",
"-  c #8C3214",
";  c #983A17",
":  c #A73C18",
">  c #9E3B23",
",  c #CF3B38",
"<  c #88451A",
"1  c #9D421B",
"2  c #A9461D",
"3  c #B6501D",
"4  c #994926",
"5  c #8D4931",
"6  c #9B593C",
"7  c #A44926",
"8  c #AB4D23",
"9  c #AC5226",
"0  c #B65527",
"q  c #B3522F",
"w  c #BD5C2B",
"e  c #AA5634",
"r  c #B8612B",
"t  c #A86335",
"y  c #B56739",
"u  c #C25B2B",
"i  c #CC4834",
"p  c #C6652D",
"a  c #CF712F",
"s  c #C36332",
"d  c #CA6834",
"f  c #C66A3A",
"g  c #CD6C39",
"h  c #D46C3A",
"j  c #CA733A",
"k  c #D5743B",
"l  c #D6773A",
"z  c #DA7C3D",
"x  c #AC355F",
"c  c #AC3C65",
"v  c #E33C4E",
"b  c #AF5648",
"n  c #A96C45",
"m  c #B6674F",
"M  c #AF7248",
"N  c #B6754A",
"B  c #A6745B",
"V  c #B77A56",
"C  c #B54469",
"Z  c #BD4973",
"A  c #926268",
"S  c #D44D4E",
"D  c #DA5B55",
"F  c #E74D58",
"G  c #C56C48",
"H  c #C5764B",
"J  c #D57946",
"K  c #DB7D44",
"L  c #C67B56",
"P  c #D87952",
"I  c #E27349",
"U  c #E46C5B",
"Y  c #E37A5B",
"T  c #C74F79",
"R  c #EA546C",
"E  c #D06D6B",
"W  c #EC7873",
"Q  c #DA823D",
"!  c #BB845B",
"~  c #B78B70",
"^  c #CD8348",
"/  c #D98447",
"(  c #DD8B4C",
")  c #CB8759",
"_  c #DC8B53",
"`  c #D58758",
"'  c #DA8D5B",
"]  c #DA9255",
"[  c #DC935C",
"{  c #E18445",
"}  c #E28549",
"|  c #E48B4C",
" . c #E5944F",
".. c #E38B53",
"X. c #E58959",
"o. c #E39354",
"O. c #E3945B",
"+. c #EA9658",
"@. c #E49A5C",
"#. c #C88B66",
"$. c #DA8C67",
"%. c #CB976C",
"&. c #D99768",
"*. c #C79977",
"=. c #D39C77",
"-. c #DC9C72",
";. c #E58E63",
":. c #E39464",
">. c #E49B63",
",. c #E89A68",
"<. c #EC9170",
"1. c #E89B74",
"2. c #DDA16D",
"3. c #CAA471",
"4. c #DAA477",
"5. c #E5A46C",
"6. c #EAA56A",
"7. c #F1A56D",
"8. c #E4A374",
"9. c #EDA474",
"0. c #E4AA73",
"q. c #E7A977",
"w. c #ECA47A",
"e. c #E5AC7C",
"r. c #EAAB7B",
"t. c #F1A477",
"y. c #F1AC7C",
"u. c #E9B377",
"i. c #EAB37D",
"p. c #F2B27B",
"a. c #CC5882",
"s. c #D07393",
"d. c #BEA18F",
"f. c #CE9091",
"g. c #E78D8C",
"h. c #CCA586",
"j. c #D7A886",
"k. c #DBB288",
"l. c #CBAC95",
"z. c #CEB399",
"x. c #DBB598",
"c. c #E4AC83",
"v. c #EDAB83",
"b. c #EAA989",
"n. c #F2AC83",
"m. c #F3AD8C",
"M. c #E6B383",
"N. c #ECB284",
"B. c #E9BA87",
"V. c #E4B48C",
"C. c #ECB48A",
"Z. c #EBBB8B",
"A. c #F2B283",
"S. c #F3BA87",
"D. c #F1B38C",
"F. c #EEAE92",
"G. c #E6B497",
"H. c #E4BC94",
"J. c #EBBC94",
"K. c #E5BC9B",
"L. c #EDBD9A",
"P. c #F2B797",
"I. c #D589A3",
"U. c #DB99AC",
"Y. c #DB9DB1",
"T. c #E39DA7",
"R. c #D6B8A7",
"E. c #D5ADB1",
"W. c #E4ACAF",
"Q. c #E7BEA5",
"!. c #F3BDA2",
"~. c #EDC18D",
"^. c #EDC394",
"/. c #EFC995",
"(. c #E4C29C",
"). c #ECC49B",
"_. c #EDCC9D",
"`. c #F0C698",
"'. c #F1CB9B",
"]. c #EFD39E",
"[. c #F0D19E",
"{. c #DCC6B6",
"}. c #D9CBB7",
"|. c #E5C3A2",
" X c #EAC4A2",
".X c #EBCBA5",
"XX c #E7C7AB",
"oX c #EBCCAB",
"OX c #F2C4A6",
"+X c #EDD2A3",
"@X c #EFDAA6",
"#X c #EDD2AC",
"$X c #F1D2A3",
"%X c #F1D3AC",
"&X c #F0DAAA",
"*X c #EBCEB3",
"=X c #E8C9B8",
"-X c #F3CBB5",
";X c #ECD3B4",
":X c #EBD9B4",
">X c #ECD3BA",
",X c #EDDBBC",
"<X c #F2D7B6",
"1X c #F1DCBB",
"2X c #EFE1BB",
"3X c #F1E1BF",
"4X c #DCBEC1",
"5X c #E8B4C2",
"6X c #DCC9C2",
"7X c #DAD5CE",
"8X c #EBC7CF",
"9X c #F3CDC6",
"0X c #ECDCC3",
"qX c #E7D7C8",
"wX c #F6D7C7",
"eX c #F3DDC4",
"rX c #EBDDD4",
"tX c #E9D7D8",
"yX c #F7DBD8",
"uX c #EDE1C5",
"iX c #EEE2CC",
"pX c #F1E2C3",
"aX c #F1E3CB",
"sX c #F2E9CE",
"dX c #ECE4D4",
"fX c #EBE3DB",
"gX c #E8E5D9",
"hX c #F4E5D7",
"jX c #F2EADC",
"kX c #F2F0DF",
"lX c #F2D6E2",
"zX c #F7D3E4",
"xX c #F9D4E5",
"cX c #F5DAE6",
"vX c #F9D8E7",
"bX c #FAD7E8",
"nX c #FADAE9",
"mX c #ECE5E4",
"MX c #E9E8E5",
"NX c #F4E3E3",
"BX c #FAE4E3",
"VX c #F4ECE2",
"CX c #F3E5EB",
"ZX c #FCE3ED",
"AX c #F3EAED",
"SX c #FDE9EE",
"DX c #EEF3EB",
"FX c #F5F2E8",
"GX c #FDE7F0",
"HX c #F3EBF1",
"JX c #FEECF3",
"KX c #FFEFF8",
"LX c #FBF0F5",
"PX c #FFF1FB",
/* pixels */
"zXxXxXxXzXzXzXzXzXzXxXxXxXxXzXzXzXzXzXxXxXxXzXzXzXzXxXxXxXxXxXxXxXxXzXzXxXvXxXxXzXnXxXxXzXxXbXbXbXxXxXxXxXxXxXxXxXxXxXxXxXzXxXxX",
"zXxXzXzXzXzXzXzXzX8XxXxXxXxXzXzXzXzXzXzXxXxXzXzXzXzXzXxXxXxXxXxXxXxXxXxXxXnXnXbXnXxXbXzXxXxXxXbXxXxXxXxXxXxXxXxXzXxXxXxXxXzXxXxX",
"zXzXzXzXzXzXzXzXxXzXzXxXxXxXzXzXzXzXzXzXzXxXzXzXzXzXzXzXxXxXvXxXnXZXJXJXJXSXSXJXJXGXGXnXnXxXxXxXxXbXbXxXxXxXxXxXzXxXxXxXxXxXxXxX",
"zXzXzXzXzXzXzXzXzXzXzXzXxXxXzXzXzXzXzXxXxXxXzXzXzXzXzXzXzXzXzXnXKXJXSXJXJXLXSXLXLXJXKXKXGXnXxXxXxXzXxXxXxXxXxXxXxXxXxXxXxXxXxXxX",
"zXzXxXxXxXxXzXzXzXzXzXzXzXzXzXzXxXzXxXxXnXnXzXzXzXzXxXzXxXbXnXJXJXBXmXtXtXtXtXtXlXcXMXPXKXJXnXvXzXxXxXxXzXxXxXxXzXxXxXxXxXxXxXxX",
"zXzXxXxXzXzXzXzXzXzXzXzXzXzXzXzXzXzXzXzXxXxXxXxXzXzXbXnXJXJXKXKXSXqXgXtXY.T.5XcX8XY.E.5XNXJXJXvXxXbXxXxXxXxXxXxXxXxXzXxXxXxXxXxX",
"zXbXxXxXzXzXzXzXzXzXzXzXzXzXzXzXzXzXxXxXzXxXxXxXzXnXKXKXJXSXhXrXqXL.*XfX8X5XY.8X5Xs.s.I.tXZXJXZXxXxXxXzXxXxXxXzXxXxXxXxXxXxXxXbX",
"zX5XxXxXzXzXzXzXzXzXzXzXzXzXzXzXxXxXxXxXxXxXzXZXbXnXKXnX9X<X>X,X0XeX0XuXdXfXrXmXtX7XtXrXtXHXJXJXGXnXnXzXxXxXxXxXxXxXxXxXxXxXxXxX",
"zXzXzXzX5XzXzXzXzXzXxXxXxXzXzXzXxXxXzXxXxXxXnXJXJXGXrX>X;X>X>X:X;X:X.X|.(.H.+X:X>XXXk.3.qXMXMXLXKXJXJXZXxXbXbXxXzXxXxXbXxXxXxXxX",
"zXzXzXzXzXzXzXzXzXzXxX5XxXzXzXzXxXxXxXxXxXnXJXKXNX0XOXoX;X;X|.B.e.&.B.+X+X(.(..X|.x.x.}.E.U.Y.W.tXAXJXJXGXxXbXxXxXxXxXxXxXxXxXxX",
"zXzXzXzXzXzXzXzXzXzXzXzXzXzXzXzXzXxXxXzXvXJXKXwX*X XQ. XJ.e.6.o.o.| 5.0.B.(.e.4.k.*.7Xz.x Z s.T a.Y.fXAXJXJXnXxXxXxXxXxXxXxXxXxX",
"zXzXzXzXzXzXzXzXzXzXzXzXzXzXzXzXxXzXxXvXZXKXwX).K.G.V.6.O.o.@.7.6.y.u.@.q.k.k.4.4.! }.Y.x C Z a.T T I.mXCXJXGXxXxXxXxXxXbXxXxXxX",
"zXzXzXzXzXzXzXzXzXzXzXzXzXzXzXzXxXxXxXvXPXBX).V.q.8.( / o.7.p.n.A.C.r.5.2.k.k.c.3.M ~ DXs.c C C Z a.s.tXMXCXJXnXxXxXxXxXxXxXxXxX",
"5XzXzXzXzXzXzXzXzXzXzXzXzXzXzXzXxXxXzXnXPXwX0.>._ k / ,.p.p.A.A.D.L.).r.&.^.k.x.~ V M z.DXs.C Z T T T I.mXmXJXGXxXxXxXxXxXxXxXxX",
"zXzXzXzXzXzXzXzXzXzXzXzXzXzXzXzXxXxXxXvXPXwX^ r f o.7.p.A.n.N.p.v.L.oXc.-.H.Q.G.%.V #.t z.DXE.I.s.I.s.Y.tXMXJXGXxXxXxXxXxXxXxXxX",
"zXzXzXzXzXzXzXzXzXzXzXzXzXzXzXzXxXxXxXZXPX-Xk o 5 p.v.p.p.v.p.p.A..X%Xv.e.Q.*Xx.#.#.%.) B d.DXDXDXDXDXDXMXHXGXJXbXxXxXxXbXxXxXxX",
"zXzXzXzXzXzXzXzXxXzXxXxXxXzXxXxXxXxXbXJXSX#.G ` 5 $.n.y.y.y.y.p.S.OXoXe.e.K.>XK.#.$.j.%.e.+ $ z.{.qXrXfXgX7XAXJXZXzXxXxXzXxXxXxX",
"zXzXzXzXzXzXzXzXzXzXxXxXxXxXxXxXxXxXnXJXSX6 . 6 q L n.y.p.y.p.p.Z.).K.1.q.c.9X X) 4.G.j.(.B . X < %.dX}.rXXXqXPXSXzXzXzXzXxXxXxX",
"zXzXzXzXzXzXzXzXxXzXxXxXxXzXxXxXxXbXGXKX9X5 A @ 6 $.t.t.,.t.S.D.P.J.M.:.q.c.>XK.' V.K.V.|.~ 6 5 X 3.qXR.qX(.=XZXJXxXzXnXxXxXxXxX",
"zXzXzXzXzXzXzXzXxXzXxXzXxXxXxXxXxXnXKXvXC.) b @ O ,.n.1.m e #.P.P.i.6.:.5.c.*XH.&.K.(.x.;Xh.! n < z.gXtXqXx.,XCXJXZXzXxXxXxXxXxX",
"zXxXxXzXzXxXxXxXxXzXxXxXzXzXbXbXZXKXnXF.w.,.' m B F.F.:.G 6 o 5 #.>.5.O.:.e..XH.4. XK.K.*Xl.! N t }.kXgX}.oX,XrXKXZXxXxXxXbXxXxX",
"zXxXxXxXzXzXzXxXxXxXxXxXxXzXxXnXKXyXm.1.w.9.w.m.n.w.$.P ;.<.$.V 5 4 &.[ ' c.OXG.2.|.x.Q.*Xk.! y M ,XgXdX}.:XiXrXGXSXxXxXxXxXxXxX",
"xXzXxXxXxXxXxXxXxXxXzXxXxXxXbXJXJXP.t.n.v.n.D.w.6.>.c.$.q 5 m 1.C.L y &.:.4. Xc.-.XX|.Q.#XH.! t ! kXgXuXXX,XdXgXAXJXbXxXxXzXxXxX",
"xXzXxXxXxXxXxXxXzXxXzXxXxXxXbXJXBX1.X.n.L.D.u.7.6.1.F.%., A $ n 1.r.y y >.8.L.c.4.k.Q.XXoXZ.3.t ~ DXuX}.:XqXkXgXCXKXbXzXxXxXxXxX",
"xXxXxXxXxXxXxXxXxXxXxXbXxXzXxXJXnXP h t.OXS.7.u.7.r.L.1.m U.#   b ' _ 7 ` q.J.B.J.4.H.oX;X(.4.M h.MXR. XuXiXkXgXCXJXnXzXzXxXxXxX",
"xXxXxXxXxXbXxXxXxXbXxXxXbXxXbXJXyXP X.X.Y t.S.y.0.P.Q.C.:.m +   O P _ j H 0.Z.4.Z.2.K.#XXX(.3.M l.gXx.|.uXgXVXgXAXJXbXzXzXzXxXxX",
"xXxXxXxXbXbXbXxXbXbXzXxXbXbXbXKXyXX.X.h i > ` n.w.P.P.v.9.6.:.L N $.:.( z &.B.-.C.4.V.>X>X|.4.n z.}.j.%XiXfXVXMXHXJXxXzXzXzXxXxX",
"xXxXxXxXxXbXbXxXxXxXbXbXbXxXbXKXyX,.i D P P G X.<.n.b.b.v.D.D.F.A.v.q.@./ _ C.-.c.c.V.>X,X(.=.n }.z.4.:XdXVXmXgXLXGXbXzXzXzXzXzX",
"xXxXxXxXxXxXxXxXxXxXxXbXbXxXbXKXwX;.E v W !.!.F.F.v.t.n.!.!.P.P.A.q.,.../ J N.-.c.M.Z. X,X|.*.n z.*.V.0XhXkXjXmXKXnXxXxXxXzXzXxX",
"xXxXxXxXxXxXxXxXxXxXxXxXbXxXCXPX-XE fXg.v W OX!.!.w.<.m.OX!.F.t.6.>.X._ / h 1.e.4.u.i.).>X|.%.~ h.j. XaXjXFXjXtXJXxXzXxXxXxXxXxX",
"xXxXxXxXxXxXxXxXxXxXxXbXbXbXGXPXg.v W.NXW.D D b.F.1.;.y.m.y.7.6.>.X...| | d J e.e.M.u.Z.%X.X#.*.h.x..XhXjXjXmXHXJXbXzXzXxXxXzXzX",
"xXxXxXxXxXxXxXxXxXbXbXbXbXbXKXzXU F E f.4X=XP i <.t.X.<.7.,.,.+.O.| } K K h w &.u.M.u.u.%X%Xj.V x.J.>XhXAXfXMXGXJXxXzXxXxXxXxXzX",
"xXcXnXxXxXnXnXxXxXvXxXxXvXJXKXJ.U F R R T ~ l.E 7 P Y X.+.| | | | } K I K h 2 2 0.~.~.^.<XoX;XR. XJ.pXjXjXjXDXJXZXzXzXzXxXxXxXzX",
"xXxXnXnXnXnXnXxXcXxXvXnXZXKX9X9.<.U F R R S b m 5 9 I X.I } } { K z l k d u : % j ~.^.+XpXXXx.>X>X XaXjXjXmXAXJXnXzXzXzXzXzXzXzX",
"nXxXnXnXxXcXxXxXbXbXzXnXKXBXw.w.n.P.b.<.E U U $.g.9.+.X.| | { { z l l h s 3 2 3 r @.~.:XaX|.j.*X;X#XaXjXsXVXJXJXvXxXzXzXzXzXzXzX",
"cXbXxXnXnXxXxXxXxXnXvXZXPX=X,.t.P. XOXF.b.w.9.6.7.,.+.| +.| | { { z l h s w d s r 6.u.<XeXXX(.XX X,XhXhXhXAXJXZXxXxXzXzXzXzXzXzX",
"bXcXbXbXnXcXxXnXxXxXnXSXKX-X' ,.n.OX!.P.A.v.q.q.7.+...+. .| } | / z h d u g f 4 H S.~.+X;X|.;X+X_.3XhXiXjXSXJXnXzXzXzXzXzXxXzXzX",
"xXxXxXbXxXxXnXxXbXnXnXnXPX<X/ J O.t.D.C.A.S.p.7.+.+.+.+.| { } I l h h 3 h ;.:.$.>.Z._.&XoXH.,X#X+X,XiXaXVXJXZXxXzXzXzXzXxXxXxXzX",
"bXxXxXnXnXvXnXnXxXnXnXSXPXG.w s s d P ..+.+.+.|  .+.| } K K K k a d u ; m ,.>.0.M.Z._.,X(..X,X#X#X,XeXdXSXJXnXxXzXzXxXzXxXxXxXzX",
"bXbXcXnXnXxXxXxXnXvXvXPXBX_ 3 G 1 ; 3 3 u p z { K K I z h d d p u u - X = t -.Z.H.^.).3X#X^.1X,X;X1X,XhXJXSXxXzXzXzXxXxXxXzXzXzX",
"bXzXbXnXcXcXnXbXnXnXZXPX9Xp w y - - ; ; : 2 0 u u p p s u u u u 3 M B = 4 ! L.L.).)..XeX:X_.#X,X0X,XqXZXGXbXxXxXzXzXxXxXxXxXzXzX",
"cXxXbXxXxXxXcXbXnXnXKXZX2.j J 9 & & * - & % ; : 2 2 3 0 q 9 8 8 j.}.rX*.V C.J.^.'.'.'.1X,X^.oX#X1X>XcXKXGXxXxXxXzXzXxXxXxXxXxXzX",
"bXcXxXbXnXxXbXnXnXnXKXwX_ _ f 4 = X & & & & * * ; ; ; 2 : ; - X z.8X8XrXZ.Z.J.^././.'.3XpX+X.X#X>XrXGXGXbXxXxXxXzXzXzXzXxXxXxXxX",
"bXbXbXnXnXnXKXKXKXKXKXG.&.' q 7 > & * - * ; ; ; 1 1 ; - * & X X h.AXrXH.e.H.V.).~./.[.3XpX:X.X;X0XfXKXGXxXxXxXxXzXzXzXzXxXxXxXxX",
"cXnXnXnXnXJXJXcXmXtX6Xh.-.j w e 7 ; 7 7 7 9 9 8 8 8 4 8 1 ; o X + ~ H.q.J.V.J.)././.$XeXaX1X:X;X0XCXJXnXxXbXxXxXxXxXxXxXxXxXxXxX",
"vXnXnXxXnXJXJXR.! ~ l.h.) j f 0 9 0 0 w s g g g s s d r 0 7 = X o *.5.j. XV.).^.'./.$X3XsX1X>X:XrXAXJXnXbXbXxXxXxXxXxXxXxXxXxXxX",
"xXbXnXxXxXnXJXyX{.MX7Xh.&.o.J f G J J / ( o. ./ / / J J r 7 - = %.4.&. XH.H.J.^./.`.$X3XsX1X1XqXrXJXSXxXbXbXxXxXxXxXxXxXxXxXxXxX",
"xXcXnXxXcXxXSXPXHXtX7X=XeX4./ ..o.O.>.@.@.@.] ( ( ( / k u 9 1 N =.) k.).V.V.Z.^./.'.$X3XsX1XuXiXCXKXZXxXxXxXnXxXxXxXxXxXxXxXxXxX",
"xXbXcXxXxXnXnXJXKXtX#.c.R.rXK.:.O.,.>.@.@.]  .o.o.( k p p w e [ ) ] (.(.V.V.~.`./.$X@XpXsXuXrXgXHXSXxXxXxXxXxXnXvXxXxXxXbXxXxXxX",
"bXxXxXxXxXxXxXnXGXKXyX5./ =.=X-.&.,.[ @.o.[ @.@. .z a j j 8 H :.^ u.#X^.e.B.^.`._.&X:XaXsXgX7XMXKXZXxXxXbXxXxXxXnXxXxXxXzXxXxXxX",
"xXbXxXbXxXxXxXxXxXGXKXZXJ.$.V h.*X0X1.W.9X&.@.@.( Q Q l 0 4 ` ] ] ).oX0.e.^.'._.$X<X2XiXgXgXmXCXJXbXbXxXnXvXxXxXxXxXxXxXxXxXxXxX",
"bXxXxXbXnXxXcXcXzXnXSXKXJXyXj.XXCXtXtXxXzXF. . .Q / a r 4 y [ ` 0.%X).5.B.)._.].&X:XpXdXgXMXCXKXZXxXxXbXxXxXxXxXxXxXnXxXzXzXxXxX",
"xXxXxXxXcXbXxXxXnXxXnXnXGXKXZX-XP.=XR.T.8XwX|.@.Q a w 9 4 ^ _ ' M.oXB.e.^._._.[.:X3XaXsXgXCXHXZXbXxXxXxXbXxXxXxXxXxXzXxXzXzXxXxX",
"xXcXxXxXnXxXxXnXnXnXxXbXbXZXKXPXvXhX#.: D 8XAX4.@.&.u 7 e ` ` &.J..Xe.C._.[.'.@X&XpXaXdXmXHXJXxXxXbXxXxXxXbXxXxXxXxXxXxXxXzXxXxX",
"xXxXbXxXxXxXxXxXxXxXxXbXxXxXnXGXJXKXZXj., I.{.j.0XqX=.4 e ` ` 4.).).e.~.[.].].@X:X3XpXfXGXKXZXxXbXxXxXxXnXxXxXxXxXxXxXxXzXzXxXxX",
"xXbXcXxXnXnXxXxXzXzXzXxXnXxXxXnXbXZXKXPXxXyXXX^ {.tXmX~ V ' #.v.L._.i./.[.].].@X2XeXdXAXJXZXxXxXzXxXzXxXxXxXxXxXxXxXzXxXxXxXxXzX",
"xXcXvXxXxXxXbXxXzXxXxXxXxXxXnXxXxXvXnXSXKXKXSX!.9XqXfXR.&.` -.C.^.Z.p.[.[.[.@X&X3XuXmXKXSXxXxXxXxXxXxXxXxXxXxXxXzXxXzXzXzXzXzXxX",
"xXxXxXvXxXzXxXbXxXxXvXxXxXvXnXvXxXxXxXvXZXSXKXKXJXE.x.%.) ` -.L.`.B.S.$X+X[.&X&X,XiXGXJXnXxXnXxXxXxXxXxXxXxXxXxXzXzXzXzXzXxXzXzX",
"xXxXcXxXvXxXxXxXxXxXxXcXxXbXxXxXxXxXvXxXzXxXnXZXJXPXcXQ.=.-.c.Z.u.u.~.'.'.$X$X:X0XNXJXGXxXxXxXxXxXxXxXxXxXxXxXxXzXxXxXzXxXxXzXzX",
"vXxXxXvXxXxXyXxXzXcXxXvXnXxXcXxXcXxXxXvXxXxXyXxXcXZXKXPXKXPXSXwX<X-X1X1XeXeXpXhXcXGXJXbXxXxXxXnXxXxXxXxXxXxXxXxXxXxXzXzXxXxXzXzX",
"xXxXvXxXxXxXxXbXzXxXxXnXxXxXcXxXxXbXxXxXxXxXxXxXzXxXnXZXZXZXJXKXKXKXPXKXKXKXJXKXKXJXnXxXxXxXxXxXxXxXxXzXxXxXzXxXxXxXxXxXzXxXxXxX",
"xXxXxXvXbXxXyXbXcXxXxXxXxXxXxXxXxXbXxXxXxXxXxXxXxXxXxXxXbXxXxXZXZXZXZXZXZXZXSXZXbXxXbXxXxXxXxXxXxXxXxXxXxXxXxXxXxXxXxXxXxXzXxXxX",
"xXvXbXxXzXzXyXxXxXyXxXxXxXzXzXxXxXxXxXvXzXxXzXxXbXxXxXxXxXxXzXxXzXzXxXxXvXxXzXzXxXxXxXxXxXxXxXzXxXxXxXxXxXxXzXzXxXxXxXxXzXzXzXzX",
"xXxXxXxXbXbXbXxXxXxXzXxXxXxXxXzXxXxXyXxXxXxXxXxXxXyXxXxXxXxXxXyXxXxXxXxXxXxXxXxXxXxXxXxXxXxXxXzXxXxXxXxXzXxXxXxXxXxXxXxXzXxXxXxX"
};
