/* XPM */
static char *_1711898835[] = {
/* columns rows colors chars-per-pixel */
"64 64 255 2 ",
"   c #3C1D17",
".  c #312A2E",
"X  c #5A2013",
"o  c #702A12",
"O  c #7B2C11",
"+  c #783518",
"@  c #783727",
"#  c #7F4235",
"$  c #785151",
"%  c #842C0D",
"&  c #98310A",
"*  c #852C11",
"=  c #8B2F12",
"-  c #8B3417",
";  c #963917",
":  c #AB3608",
">  c #A8350B",
",  c #A43C18",
"<  c #843F28",
"1  c #9D431C",
"2  c #A8451A",
"3  c #B24D1D",
"4  c #B8511F",
"5  c #9B4725",
"6  c #935030",
"7  c #A74A25",
"8  c #B44D24",
"9  c #AB552A",
"0  c #B85728",
"q  c #A85836",
"w  c #B65136",
"e  c #9D603E",
"r  c #BB632B",
"t  c #A76135",
"y  c #B86537",
"u  c #C35A27",
"i  c #CD5334",
"p  c #C95B35",
"a  c #C7652C",
"s  c #D26E2D",
"d  c #C36432",
"f  c #CA6A36",
"g  c #D26D38",
"h  c #C97337",
"j  c #CB733B",
"k  c #D4733B",
"l  c #D6783A",
"z  c #DA7D3C",
"x  c #A83961",
"c  c #D83C4D",
"v  c #945A4D",
"b  c #AE594D",
"n  c #926651",
"m  c #A66845",
"M  c #B96C45",
"N  c #B9764A",
"B  c #AB7157",
"V  c #B97A55",
"C  c #B6466B",
"Z  c #BB4C74",
"A  c #BA7664",
"S  c #B37772",
"D  c #D74F49",
"F  c #E64F54",
"G  c #C87748",
"H  c #D77747",
"J  c #D47B43",
"K  c #DC7D43",
"L  c #CE6E50",
"P  c #C87854",
"I  c #E17453",
"U  c #C34A76",
"Y  c #CF5574",
"T  c #ED526A",
"R  c #D27466",
"E  c #E37C62",
"W  c #E77B78",
"Q  c #DA843D",
"!  c #B9825C",
"~  c #B88C6F",
"^  c #CF8648",
"/  c #DC8444",
"(  c #DD854B",
")  c #DB8948",
"_  c #CA8859",
"`  c #DC8B53",
"'  c #D88857",
"]  c #D48A5B",
"[  c #DA9259",
"{  c #DC925C",
"}  c #E18446",
"|  c #E38B47",
" . c #E3854B",
".. c #E48B4C",
"X. c #E2914E",
"o. c #E38C54",
"O. c #E58958",
"+. c #E39354",
"@. c #E99757",
"#. c #E2955A",
"$. c #E49B5C",
"%. c #E8A15D",
"&. c #C68964",
"*. c #D68C62",
"=. c #C8936C",
"-. c #DA9667",
";. c #D18B75",
":. c #C99A79",
">. c #D79B74",
",. c #E68B67",
"<. c #E49B63",
"1. c #E69866",
"2. c #EA9C69",
"3. c #ED9172",
"4. c #EA9C76",
"5. c #DAA36B",
"6. c #CEAB74",
"7. c #D9A678",
"8. c #DCA47A",
"9. c #E6A568",
"0. c #EBA36B",
"q. c #EDAA6B",
"w. c #EBAB6C",
"e. c #E4A575",
"r. c #ECA473",
"t. c #EBAC74",
"y. c #EDA47C",
"u. c #E3A878",
"i. c #E5AB7C",
"p. c #ECAC7C",
"a. c #F1A777",
"s. c #F1AD7C",
"d. c #E9B479",
"f. c #ECB37C",
"g. c #F1B279",
"h. c #CD5A82",
"j. c #CF6F8E",
"k. c #A7918F",
"l. c #C99A86",
"z. c #D4928E",
"x. c #EA9A8D",
"c. c #DCAC84",
"v. c #D5A889",
"b. c #DCB389",
"n. c #CDA991",
"m. c #DAB796",
"M. c #E5AC82",
"N. c #ECAC83",
"B. c #EAA888",
"V. c #F1AB83",
"C. c #E5B283",
"Z. c #EBB384",
"A. c #EBBB84",
"S. c #E4B58B",
"D. c #ECB58D",
"F. c #E4BA8A",
"G. c #EBBB8C",
"H. c #F1B283",
"J. c #F3B789",
"K. c #E8A998",
"L. c #E4B593",
"P. c #ECB593",
"I. c #E4BC92",
"U. c #EBBC93",
"Y. c #EBB49A",
"T. c #E4BC9C",
"R. c #ECBC9B",
"E. c #F2B998",
"W. c #D390A4",
"Q. c #D898A9",
"!. c #EA9CA8",
"~. c #CDB7A5",
"^. c #D8BAA5",
"/. c #D9A3B8",
"(. c #D4B1B3",
"). c #E8BBA2",
"_. c #F3BAA6",
"`. c #EBADB4",
"'. c #E6BBB7",
"]. c #DCC19C",
"[. c #ECC28D",
"{. c #EDC394",
"}. c #EFC995",
"|. c #E5C399",
" X c #ECC39C",
".X c #EECB9C",
"XX c #F1C89A",
"oX c #EED29E",
"OX c #F0D19E",
"+X c #DAC1A7",
"@X c #DBC7B7",
"#X c #D6CBBC",
"$X c #E5C5A3",
"%X c #EAC5A4",
"&X c #ECCCA4",
"*X c #E6C6AA",
"=X c #EBCCAC",
"-X c #F1C8A7",
";X c #EED3A4",
":X c #EDD3AC",
">X c #EEDBAB",
",X c #F1D4A9",
"<X c #E7CBB6",
"1X c #EBCEB3",
"2X c #F3C8B6",
"3X c #EDD3B3",
"4X c #EEDBB4",
"5X c #E5D5BA",
"6X c #ECD6BA",
"7X c #EDDBBB",
"8X c #F1D6B7",
"9X c #F1DDBC",
"0X c #EFE0BA",
"qX c #E6BAC7",
"wX c #F1B2C3",
"eX c #D9D1C9",
"rX c #E7C9C9",
"tX c #EDDCC3",
"yX c #E8D8C9",
"uX c #F2D4C3",
"iX c #F4D8C8",
"pX c #EFC7D2",
"aX c #E9DAD7",
"sX c #F5DBD8",
"dX c #DDE3D9",
"fX c #EFE1C3",
"gX c #E6E2CA",
"hX c #EDE2CC",
"jX c #F1E2C5",
"kX c #F2E4CC",
"lX c #ECE4D3",
"zX c #E8E5D9",
"xX c #EAE5DB",
"cX c #F1E6D6",
"vX c #F2EADC",
"bX c #F6CFE2",
"nX c #E8DEE2",
"mX c #F7D3E4",
"MX c #F9D4E5",
"NX c #F5DCE5",
"BX c #F9D8E7",
"VX c #FADBE9",
"CX c #EBE4E4",
"ZX c #E9E8E6",
"AX c #F4E3E5",
"SX c #F5E8E7",
"DX c #FCE4ED",
"FX c #FBE9EE",
"GX c #F1F1ED",
"HX c #FDE7F0",
"JX c #F6EAF1",
"KX c #FEEBF3",
"LX c #FEEEF9",
"PX c #FFF1FB",
"IX c #FCF8FA",
/* pixels */
"mXMXMXbXbXMXMXMXbXbXMXMXMXMXMXMXMXMXMXMXMXbXMXMXMXMXMXMXMXmXmXMXMXMXMXbXMXMXMXMXMXBXMXMXMXVXMXMXVXVXMXMXMXMXMXMXMXMXMXMXMXmXMXMX",
"mXMXMXbXMXMXMXbXMXbXMXMXMXMXbXMXMXMXbXMXMXMXMXbXbXMXMXMXMXMXMXVXVXVXVXDXDXDXVXVXMXMXBXMXmXmXMXVXMXMXMXMXMXMXMXMXMXMXMXMXMXMXMXMX",
"MXMXbXbXbXbXMXbXMXbXMXMXMXMXMXMXbXMXMXMXMXMXMXMXMXVXMXMXbXMXVXDXKXLXKXKXHXKXLXKXDXBXMXBXVXMXMXMXMXMXMXMXMXMXMXMXmXMXMXMXMXMXMXMX",
"MXMXbXbXMXMXMXMXMXMXMXMXMXMXMXMXMXMXMXMXMXMXVXHXLXKXKXHXDXFXLXLXJXCXxXZXZXCXAXFXKXDXBXMXmXMXMXMXMXMXMXMXMXMXMXMXMXVXMXMXMXMXMXVX",
"MXbXbXMXbXMXMXMXMXMXbXbXMXbXMXMXMXMXMXMXVXKXLXLXSXAXGXJXKXJXHXpX/.W.j.Q.aXnXaXZXJXLXKXDXVXMXMXMXMXMXMXMXMXbXMXMXMXMXMXMXMXMXMXMX",
"MXMXMXMXbXbXMXMXMXMXMXMXbXMXMXbXMXMXMXVXLXKXZXpX`.Q.CXGXZXaXQ.j.h.U U j.j.W.aXZXZXsXAXKXLXDXVXmXMXMXMXMXMXMXMXMXMXMXMXMXMXMXMXMX",
"bXMXbXbXMXbXMXMXbXbXMXMXMXbXMXbXMXMXHXLXJXnXqX/.j./.xX#XCXQ.j.h.h.U U h.Z Q.ZXxXzX@X<XyXAXKXKXDXVXMXMXmXMXMXMXMXMXMXMXMXMXMXMXMX",
"MXMXbXMXbXMXMXMXbXMXMXMXMXMXMXbXMXHXKXAXnXpXqXj./.aX6.+XqXZ Z Z C C U Y W.xXZXdXlXyXm.=X6XaXDXLXKXVXMXmXMXMXMXMXMXMXMXMXMXMXMXMX",
"bXMXMXMXMXbXMXMXMXMXMXbXMXMXMXVXHXKXJXaXqXJXqX/.lXm.6.5Xj.x x x x C U W.dXdXzXgX#XyX+X+X5X7XyXCXLXKXVXMXMXMXVXMXMXMXMXMXMXMXMXMX",
"MXbXMXbXMXMXMXbXMXMXMXMXbXMXKXLXDXFXaXqX`./.rXxX@X|.].gX(.Z Z Z Z h./.aXZX5X].gX+X#XgX$X5XhXcXlXnXJXLXMXMXMXMXMXMXMXMXMXMXmXMXMX",
"bXMXbXMXbXMXMXMXMXMXMXMXMXKXKX`.'.CXqXW./.rXSX5X3X$Xc.l.dXaXeXnXyXzXIXxX].e t [.gXaXzX<X+XfXcXcXaXZXKXKXMXMXMXMXVXVXmXMXMXMXMXMX",
"MXbXMXMXMXMXMXMXbXMXbXMXKXDXuXy.tXZXrXrXAXcX*X*X:Xb.b.~ B n.+X+X+X~.k.n + + + 6 yXzXzXlX5X<XgXcXvXzXCXLXHXMXMXMXMXMXMXMXMXVXMXMX",
"bXMXMXMXbXMXMXMXbXMXMXMXLXuXV.E.CXxXyXvXhXm.|.&Xb.6.>.:.B t V t B ! e X X 6 6 6 ! dXlXzX0X0XtXlXSXvXzXZXKXVXbXMXMXMXMXMXMXMXMXMX",
"MXbXMXbXMXbXbXMXMXMXMXVXLX_.2.a.B.S.6XtX$X]..XI.d.6.7.7._ B &.=.! 7.R.l.B ! B y t ].vXzX5X+XfXyXcXZXSXxXHXKXmXmXMXMXMXMXMXMXMXMX",
"MXbXMXbXbXMXbXMXMXMXMXMXLX-X@.J.).%XkX<X|.:X|.G.b.C.b.L.:.&.! 8.c.:.L.%Xm.=.! V t t gXzX5Xn.:XfXkXZXvXvXCXJXDXMXMXMXMXMXVXMXMXMX",
"MXMXMXMXMXMXMXMXMXMXMXMXLXuX%.J.lXfX5X|.G.d.9.5.C.b.b.T.T.8.&.&.R.c.v.T.+X].=.! N 6 ~ cXgX+Xb.6XgXvXvXvXdXZXKXVXMXMXMXMXMXMXMXMX",
"MXMXMXMXMXbXMXMXMXmXMXMXKXsXJ.8XtX3X=Xe.) 9.9.5.-.i.|.$X*XL.-.P >.).L.m.*X<X$X=.! N t l.zX@X7.{.hXhXSXvXvXZXGXDXBXMXMXMXMXMXMXMX",
"MXMXMXMXMXMXMXMXMXMXMXMXKXsXXX6X5X3XG.` +.p.t.d.e.*.c.%X1X1XT.>.] L.).m.L.*X3X|.6.6._ e n.yXn.7.:XkXcXGXvXvXGXKXBXmXmXMXmXMXMXMX",
"MXMXMXMXMXMXMXMXMXbXMXMXKXNX3X6X6X X-.@.w.s.D.G.U.e.>.S.T.<X6X%X-.5.%XT.m.).*X:X.Xm.:._ e +X~.:.P.tXhXvXvXvXCXFXFXmXMXMXMXMXMXMX",
"MXMXMXMXMXMXMXMXMXMXMXBXKXDX6X1X8XD.@.9.s.V.E.R.=XP.i.M.u.Y.<X<X|.5.M.|.^.=X*X=X:X.Xb.6._ n ^.:.S..XcXcXSXvXvXFXHXMXMXMXMXMXMXMX",
"MXMXMXMXMXMXMXMXMXMXmXVXLXsX1X1X Xe.X.a.H.H.D.E.-X8XS.e.i.4.S.*X=XP.-.I.m.T.*X*X3X1X=Xb.:.! ~ l.v.L.8XvXvXvXcXGXKXDXMXMXMXMXMXMX",
"MXMXMXMXMXMXMXMXMXMXMXDXLXyX%X=XD.@.@.g.H.Z.s.p.XX=X=X2.-.y.9.i. X=XM.*.R.7.c.%X1X6X7X*Xb.=.! :.v.Y.I.fXcXvXkXvXKXHXMXMXMXMXMXMX",
"MXMXMXVXMXMXMXMXmXMXMXHXFXtX*X).t.+.$.g.s.H.g.g.H. X XG.[ #.9.-.B.L.|.M.M.F.-.u.R.1X6X7X=Xb.~ ! ~ '.I.=XfXvXlXcXSXKXMXMXMXMXMXMX",
"MXMXMXMXMXMXMXMXmXmXMXKXFX<X%XL.<.( q.H.s.V.f.g.g.U.U.Z.d.{ [ { -.M.P.R.S.G.F.7.8.U.%X3X8X;X|.b.).<XuX=X9XkXcXhXvXKXDXMXMXMXMXMX",
"MXMXMXMXmXMXmXMXMXmXVXLXiX&X).B.` / w.H.s.V.s.g.f.J.U.N.4.e.<.{ 1.-.C.U.i.e.M.U.i.M.A.A.}.,X:X:X=X*X<X=X:XjXcXkXiXFXFXmXmXMXMXMX",
"MXMXMXMXVXMXMXmXMXVXHXKX-X.XS.0.J ) g.H.p.s.s.p.Z.J.E.M.M q N G G { <.7.G.8.-.i.G.7.u.d.t.{.6X=Xm.c.*X=X.X>XtXtXiXvXLXVXMXmXMXMX",
"MXMXVXMXVXMXVXMXMXVXLXsXJ.|.M.#.J @.s.s.s.s.s.s.M.&.m < 6 N P M q 9 G ` r.G.M.-.>.A.d.d.d.F.4XjX=Xv.^.=X&X&X4XtX7XiXKXDXMXbXMXmX",
"MXMXMXMXMXMXVXMXMXDXLX-Xg.R.i.` 9 ` H.s.s.a.y.' 5 * < P Z.J.V.3.` ^ h j J ` p.G.7.e.C.C.[.}..X9XfX<X:X:X3X&X=X9X6XtXFXFXMXmXbXmX",
"MXVXMXVXMXMXMXMXMXKXDXE.q.t.u.h o o m 3.N.r.y.P b L 3.3.R P R ' O.' +.@.) k H ' 9.t.i.A.[.{.XX3XfX<Xm.3X9X4X:X4X7X6XAXKXMXbXMXMX",
"MXMXMXMXMXMXMXMXBXLX8XH.0.$.t.j N V q w ,.y.r.4.I ,.b < @ @   @ G -.u.<.` ( J p p d y y [ 9.q.A.&X9X.XI.4X5XtXuX7X7XaXKXDXMXMXMX",
"MXMXMXMXMXMXVXMXDXLXJ.s.@.@.f.` G t 6 v G 4.P.3.^ L - v k.. . o P y.M.<.O.`  .H g 4 & & 3 j 9.f.}.;X4X|.I.:X:X:X3X7XyXAXKXMXMXMX",
"MXVXMXVXVXMXMXMXDXDXf.0.o.0.t.-.@   $ .   A E.*.3.>.w A k.v v *.p.D.p.<.O. . .K H d 2 1 r y { A.{.;X4X7X.X{.&X&X=X3XtXaXKXDXMXMX",
"MXMXVXMXMXMXMXMXLXiXg.w.$.e.u.2.y @ S $ # ;.p.$.u.E.>.P P O.0.H.Y.D.r.@.o.( / H g p 8 3 k 7 y i.[.{.&XtXkX,X|.;X;X=X6XyXAXKXVXMX",
"MXMXVXDXDXDXHXDXLX-Xq.t.0.r.u.#.^ P L H 4.V.r.0.2.B.E.H.p.r.p.Y.E.B.0.1.o. .K H k d 0 u f q [ e.G.U.XX-X0XkX9X4X:X3X3X5XlXJXDXbX",
"VXMXDXKXLXLXKXLXKXJ.q.t.<.r.t.` s r.r.1.4.S.t.w.0.M.%XY.N.y.J._._.V.0.1.o. .K l k f a p H <.-.i.G. X XXXOX4XkXjX7X9X6X7XyXAXKXMX",
"mXBXPXpX>.sXiX).NXs.g.H.<.$.%.Q a y.y.y.N.H.w.w.t.M._.Y.B.y.E.2XE.s.2.@.O.} l z k g f u I r.1.i.U.XX.XXXXX,X9XkXhX7X9XfXgXxXKXVX",
"VXVXKXAX_.V.J.*X$Xq.w.g.@.+.) s u y.y.y.V.g.g.d.t.r.B.J.x.a.V.E.H.a.@.O...} z z z g f 0 G *.N 5. XR.}.}.}.XX:X9XkXkX7X0XgXaXJXBX",
"MXmXDXPXsX>.D.8XA.%.9.w.2.@.Q a u y.V.N._.E.s.g.g.H.2.4.V.2.4.V.a.2.O. .} K z } K k f u % + 5 =.U.U.{.}.[.}.XX,X0XkXkXfXgXxXCXAX",
"VXDXKXDX_.x.P.5.Q 9.w.q.$.X.K i u y.y.4.E.E.4.E P ' O.B._.4.O.,.2.@. . .} } } } / k s u % o 5 &.U.F.I.XX}.{.}.OX>X9XkXkXzXdXnXVX",
"KXLXJX).;.*.2XL r q.w.0.@...} u > O.3.I 2.1.D , w ,.Y._.E.B.4.,.E O. .} | ..} } z k a 0 O 6 q :.D.G.S. X{.XX}.XX,X>XtXcXxXdXZXVX",
"KXyX'.:.ZXm.K.z.@.w.9.+.X.X.g : 8 '.,.i O.O.i g a.XX-X-XJ.V.3.,.I I o...@...}  .K g i 4 B eX@X6XC.U.S.{.U.[.}.}.oX,X4XkXcXxXCXmX",
"DXrX_.:.IXm.z.K.J w.%.X.| | u & K.IXsXH H O.D I W W W T D i w 5 w @.@...@... .K z s u 4 n.yXrXyXM.P.L.S.{.G.}.}.OX>X4XfXkXlXxXNX",
"sXY._.R aX*X,.k r X.| } / l : P LXHXPXiXO.I D c c D F R &.;.A @ R 2.@...@...} K g a u d gXrXrXcXM.C. XL.I.G.{.XX}.,X4X9XfXkXxXNX",
"|.h x.x.L x.E s 0 a | z l 2 b DXKXVXDXPXiX2.;.!.'.rXaXrXn.S b R V.2.@.@.@...K g a r 0 2 v ~.GXn.u.8.%XL.b.D.G.{.XX;X>X9XfXhXlXNX",
"9.^ -.D 9 G 1 2 s s s g > A JXLXVXVXMXFXLX-XE '.aXrXW.S b c F 4.1.2.2.@.@. .l f 0 0 8 - X 5 n m u.-.|.|.F.C.G. X.XoX>X4XfXfXhXNX",
"N.A.G l G y h 0 s s s : S KXKXNXVXMXVXVXHXKXx.D Y T Y W T F ,.2.<.t.@.o.@.K g p 0 7 ; O O O X 6 c._ F.*X|.C.G.{..XoX;X>X7XfXgXsX",
"N.U.N Q ^ r l 2 4 u 2 z.PXKXVXVXVXMXMXMXVXLXuXF F F T T Y ,.p.y.s.g.@.@. .k a 0 8 7 - O - - o 6 8.] 5.&X|.7.f.|..X}.oX>X>X0XjXsX",
"Z.p.G / Q r 4 3 ; , n.IXHXMXMXBXVXVXVXMXVXVXLX3.D F F ,.B.N.N.Z.A.t.....g p 8 3 1 ; = ; 5 - O 5 -.] ^ .X&Xd.e.G..X.XoXoX>X0X0XsX",
"p.<...} y 7 ; 2 & l.IXFXMXMXMXVXVXVXBXBXBXVXLX2XO.1.N._._.J.P.J.g.@.K k u 8 , , ; = 5 8 0 1 ; 5 ] *.^ t.3XU.e.A.}..X.XoX>X>X0XiX",
"9.| K ,.L - 2 7 H C.VXHXMXVXVXMXmXBXBXVXVXVXLXiXr.y.E.%X-X_.Y.t...s u 0 2 ; & ; 2 7 9 y d 0 9 7 M { ` -.-X&XC.i.[.;XOXOXoX>X4XcX",
"X.Q G W R <X).K.I M.KXDXMXBXMXNXVXVXVXVXVXVXLXmXV.a.V.E._.J.2.} a 4 2 & = = ; 2 2 0 f J k d r 0 9 ] [ ] A.:X Xr.A..X.XOXoX;X>XiX",
"/ k P p &.GX`.x.[ *XHXHXBXBXMXBXVXVXMXmXBXmXDXJXB.2.a.r.2.O.g 0 2 ; = * * = ; 9 9 f J ) l a s d 5 G [ ` -.R.&XU.f.{.OXOX;X;X;XiX",
"l r i D :.GX>._.K.^.rXLXVXBXBXBXMXMXVXVXBXMXVXLX'.o.#.K H 0 ; , ; & = O * ; 7 0 j Q / ) Q f s h 5 y -.' { i.|.&XA.A.OX&X;X4X;XuX",
"s a 0 x.l.v.-._.rXaXLXJXmXBXmXBXNXVXMXVXMXMXMXKXSXP.{ r r y % = ; % * * ; 7 0 j / ^ ) +.) s l h 9 5 G ] ' >.D. X{.d.A.,X.X:X:XuX",
"0 > A K.I I Y.iX^.*XLXVXMXmXMXBXMXVXMXVXVXMXMXHXFXE.i.j 0 d 5 O * * * ; 5 8 h ) X.X.[ +.) l Q h r 5 t *.P *.N.U.{.A.d.OX&X.X:XiX",
"> B qXz.P >.L 2.*XFXKXBXBXmXBXBXVXVXMXMXMXVXMXVXLX8Xd.{ 0 y w - * * * 1 8 r ) $.[ ` +.@.| Q Q a 9 9 5 P [ _ 8.D.U.[.d.J.;X&X;XuX",
"A JX;.E ).aXK.2.).LXVXMXMXmXVXMXMXMXMXVXMXMXmXmXFXAX X<.f f y 7 - - ; 7 w J ` $.#.[ $.$.X.Q Q h 0 0 - q -.] *.M.G.A.[.g.}.,X.X7X",
"VXIXpXK.DXFXrX).l.JXDXMXBXBXVXVXMXMXMXMXmXBXVXDXKXLXAXZ.j H H 9 5 w 7 9 j o.#.$.{ ` @.$.$.X.Q ` M.;.~.~ =.] ] >.S.G.d.f.[.;X,X8X",
"KXKXyXKXKXHXAXrXaXLXVXmXmXVXMXMXMXMXVXVXDXKXPXPXFXDXDX6X{ ^ ' y q q 8 d ( $.<.<.#.B.N.<.%.i.) C.ZXaXZXzXb._ *.] u.G.A.d.d.}.=XiX",
"DXKXAXFXDXKXsXv.sXKXMXBXVXmXmXVXDXKXLXLXJXSXiX2X=XXX.X&Xf.-.-.J r d 0 H #.#.9.+.1.pXbX'.5XxXv.$XyXpXyXrX>.N P *.-.Z.A.w.d.g.}.uX",
"mXDXKXDXBXFXFXKXLXBXmXVXVXDXLXLXJXSXcX6X,X&X[.b.XX].m.$Xn.:.8.G j ^ J o.` -.<.-.B.bXbXpXpXaX#X_ [ <X~ O q @ 6 >.-.e.A.t.q.d.d.>X",
"mXMXMXMXMXMXDXDXVXDXHXKXLXJXSXiX5X|.{.[..X$X+X+Xl.l.n.~.~.~.v._ ` ` ` O.1.1.i.lXaXrXz.Y D W iX2X1.z r 2 ; o @ &.>.e.A.A.9.w.w.-X",
"VXDXVXVXDXDXDXFXKXLXFXvXyX$X|.I.b.[.m.m.+Xl.B S k.#XeXdXeX+Xn.~ M.L.uXyXiX>.6XGXrX<XV w 8 Y wX!.`.4.Q s 0 ; o A -.5.C.S.C.$.w..X",
"KXKXLXKXKXKXFXSXsX8X&X|.I.[.d.F.[.7.C.).b.7.m.yXeX+X~.eX~ :.@X+X).aX^.m.V =.aX<XL.U.5.#.<.,.K.!.wXqXY.] u 3 o 6 _ [ t.C.G.-.%. X"
};
