/* XPM */
static char *_41711733665[] = {
/* columns rows colors chars-per-pixel */
"64 64 99 2 ",
"   c #ED3F95",
".  c #EE3F9A",
"X  c #F23F95",
"o  c #F23E9A",
"O  c #F13FA1",
"+  c #DF5897",
"@  c #DE549D",
"#  c #DE589D",
"$  c #E74596",
"%  c #EC4396",
"&  c #E44A96",
"*  c #EA4A95",
"=  c #E6459B",
"-  c #EC429A",
";  c #E54B9B",
":  c #EB4B9B",
">  c #F04196",
",  c #F1419A",
"<  c #F2489D",
"1  c #E4549C",
"2  c #E9549E",
"3  c #E2599E",
"4  c #E85F9E",
"5  c #E2609F",
"6  c #DF57A1",
"7  c #DE5AA0",
"8  c #E744A0",
"9  c #EC42A0",
"0  c #E652A1",
"q  c #E55BA2",
"w  c #E95CA4",
"e  c #DE66A4",
"r  c #DC70A5",
"t  c #DF72A8",
"y  c #E464A5",
"u  c #E962A5",
"i  c #E56AA6",
"p  c #EA6AA6",
"a  c #E566A9",
"s  c #EC64AC",
"d  c #E46EA8",
"f  c #E96CAC",
"g  c #E474AD",
"h  c #E974AD",
"j  c #E57BAD",
"k  c #E978AF",
"l  c #E774B1",
"z  c #EA74B1",
"x  c #E67BB1",
"c  c #EA7CB2",
"v  c #F075B2",
"b  c #DE84B0",
"n  c #E583B4",
"m  c #EA83B4",
"M  c #E78AB7",
"N  c #EB88B7",
"B  c #EC84BB",
"V  c #E98BBB",
"C  c #F080B4",
"Z  c #F18BBE",
"A  c #E693BD",
"S  c #EA93BD",
"D  c #EC93C1",
"F  c #E69BC1",
"G  c #EB9CC3",
"H  c #F196C3",
"J  c #E4A5C5",
"K  c #ECA4C5",
"L  c #E8A9C6",
"P  c #ECA5C9",
"I  c #EDADCC",
"U  c #F2A2C5",
"Y  c #F2A4CA",
"T  c #F1ACCD",
"R  c #EEB3CF",
"E  c #EBB8CF",
"W  c #F2B1CF",
"Q  c #F2AED0",
"!  c #EEB3D1",
"~  c #EEBCD4",
"^  c #F2B2D1",
"/  c #F9B7D6",
"(  c #F2BCD5",
")  c #F2BFD8",
"_  c #EEC3D8",
"`  c #F4C4DB",
"'  c #F4CADD",
"]  c #F6CEE1",
"[  c #F7D4E4",
"{  c #F9D4E5",
"}  c #F6D9E6",
"|  c #F9D8E7",
" . c #FBD7E8",
".. c #F7DBE8",
"X. c #FADAE9",
"o. c #FCE3EE",
"O. c #FBE8EF",
"+. c #FDE7F0",
"@. c #FDEAF1",
/* pixels */
"[ { { ] ] ] { { ] { { { { { { { { ] { ] { { { { { { { { { { { { { { ] { {  .{ { {  .{ { {  .{  . . .{ { { { { { { { { { { ] { { ",
"{ { { ] { { { ] { ] { { { { ] { { { { { { { { { ] { ] { { { {  .{ { { { { { {  .{ { { { {  .{  . .{ { { { { { ] { { { { ] { {  .",
"{ { ] ] { ] { ] { ] { { { { { { { ] { ] { { ] ] ] { { ] {  .{ { { { { ] { { { { {  . . .| { { { { {  .{ { { { { { {  .{ { { { { ",
"{ { ] { ] { { { { { { { {  .] { { { { { { { { { { { ] { ] { { { { ] { { { { { { { { { { [ { { { { { { { { { { { { { { { { { { { ",
"{ ] ] { ] { ] {  .] ] { ] { ] { { { {  . .| [ [ { { { { { ] { { { { { { { { { { { ] { { { { {  .{ { { { { ] { { { { { ] { { { { ",
"{ { { { ] ] { { ]  .{ ] { { { { { { ] ] {  .|  .{ ] ] { { { { { { { { {  .{ { { { { {  .{ { { { { { { { { { { { { { { { { { { { ",
"{ { ] ] { { { { ] { {  .] { ] { { { { |  .X.X.X.{ { ] {  .{ { { { { { { { { { { { { { { { { { { { { { { { { { { { { { { { { { { ",
"{ ] { { { ] { { ] { ] {  .{ ] { X.X.o.+.@.@.+.+.o.{ { { { { { { { {  .{ {  . .{ { { { { {  .{ { { { ] { { { { { { { { { { { { { ",
"] { { { { ] { ]  .{ { ]  .]  . .O.+.X.X.` M M ' O.O.O.o. .{ { [ { {  .{ { {  .{  .{ { { { {  .{ { { { { { { { { { { {  .{ { { { ",
"{ ] ] { { { { { ]  . .] ] {  . .@.! d i 2 > - i ( [ | O.O. .{ { { { { { { { { { { { { {  .{ { ] { { ] { { { { { { { { { { { { { ",
"{ ] { ] ] { { {  .{ ]  .{ {  .o.| i . = ; 8 8 9 3 4 i I O.o. .[ {  .{ { { { { { { { { { { { { { {  .{ { { { {  . . .{ { { { ] { ",
"] { { ] { { { ] ] { { ] { {  .+.' 9 o 8 8 8 9 O , X X 3 _ O. .[ { { { { ] { { { { { { { {  .{ { { { { { { { { { { { { ] { { { { ",
"{ { { { { ] { { [ {  .] ] {  .o.( : - - - - - o - > % - G @.X.| { { { { { { { ] { { {  .{ { {  .X.+.+.X.X.[ { { { { { { { { { { ",
"] { { ] ] { { { o.+.+.+. .{  .@.I = - - - - - , % % : - l ..@.X.{ { { { { { { { ] { { { { {  .X.+.X.X.+.+.+.X.{ { { ] { { { { { ",
"{ { { ] { { { X.+.` ] @.X. .o.@.A % - - - - - - - - - - ; I @.X.{  .{ { { { { { {  .{ { { {  .+...t i D ~ o.+. .{ { { {  .{ { ] ",
"{ ] { { { { { X.+.I l  .@.+.@.+.n   - - - - - - % - - - = I @.X.{  . .{ { { { { { { { { { {  .@.! &   - 1 D +.o. .{ { {  . .{ { ",
"{ { { { { { { { @.` 1 h ( ` ( N 2 o - - - - - - $ - - - : ` +.X. .{ { { { { | | ] { { [ { } o.O.m o , , . 3 ' @.X.[ { { { { { { ",
"{ { { { { ] { { +...a = ; 2 ; = . . , - - - - - - - - - : ( @.X. .{ { { { { {  .{ { { { { [ o.o.f - : - = ; J @.X.[ ] { { { { { ",
"] { { { { { { { X.@.G : - - - $ = $ - - - - - - - . - - 0 ' +.X.}  .| { { {  .|  .|  .X. .[ o.@.G - - % = & J @.X.[ ] { { { { { ",
"{ { { { { { { { X.+. .z o o - % % > , - - . - - - , - = h X.@.@.+.+.X.{ { | X.o.o.+.+.@.@.@.+.+.V p v : 2 N X.@.X.| {  .{ { ] { ",
"{ ] { { { { { { { X.@.[ h = - - - , - - - - - - - , - % q H Y Y / X.@.o. .X.@.@.[ ] ' R L ' +.~ r ` o.( ~ X.+.X.{ { { { { { { { ",
"] { { { { { { { { { X.@.[ A 1 - 9 = - $ - - - - - - o - = % % , , x [ @.o.@.[ V u q q ; : 7 V t I @.@.+.+.@.X.{ { { { { { { { { ",
"{ { { { { { { { [ { | X.@.o.! l 0 = % % - = - - - , , , , - = 9 - ; D o.@.X.m - - = = % - - = y ] @.+.X.| | { { { { { { { { { ] ",
"{ { { { { { { { { [ | [ X.+.@.X.( D d % o - = - - - , , , o . = 8 - 0 A G x : , 9 % % % % % - , l ) +.X.| { { [ { { { ] { { { { ",
" .{ { { { { { { ] {  .}  .} X.+.@.@.{ y . - - - - - - - - = - - - - - = - - - - , , - - - o % , = a ] +. .{  .] ] { { { ] { { { ",
" .{ { {  .{ { {  . .} { { { { { X.@.` 2 = - , - - - - - - - - - o - - , , , - - - , - - - - % - = - G +.X.{ ] { ] { { { { { { { ",
"{ {  .{  . . .{  .{ { {  .{  .{ X.@.K % - - - - - - - - - - - - - - - - - - - - - - - - - - - X o   m o.+.{ { ] { { ] ] { ] ] { ",
"{ {  .{ ]  . . .{ { }  .{ { {  .o.@.S % = - > % - o - - - - - . - - - - - - - - - - - - - - % - - - y  .@. .{ {  .{ { { ] { ] { ",
"{ { {  .{ { ]  .{ { { }  .{ {  .@.[ a - - - , - - - - - - - - - - - - - - - - - - - - - - - - > - - & F @.o. . .{ { { { { ] { { ",
"{  .{ {  .{ { { { { { {  .} { o.O.I : 9 8 - % . - - - - - - - - - - - - - - - - - % - - - - $ , - - . e { +.{ { ] { { { { { { { ",
"{ { { { { {  .{ {  . . . .{ { X.@.G - 9 - = . - - - - - - - - - - - - - - - - , , , , , - - - - % % o w { +.{ { { { { { { { { { ",
"{  .{ { {  .{ { {  . .{ }  .{ X.O.W ; - - - - - - - - - o - - - - - - - - % - , , , , , % , - % % = % M +.X.{ { { ] ] { { { { ] ",
" .[  . . . .X. .{  .|  .} }  . .+.{ u = = = - - = - - o - - - - - - - = - o - - = - - - . - o o - $ h  .@.X. .{ ] { { { { { { { ",
"| [  . .}  . .[  .[ {  .|  . .] o.X.i % - % - % - - - - - - 9 . . - - - - - - - . . = - 9 = - o % * U O.X.{ { { { ] { { { ] { ] ",
" .[  .X. .[ [  .{  .[ } {  . .{ +.[ y % - = - - - , , - - - - - - - - . X > $ 2 c z : - - - , - & u [ O. .{ { { { ] { ] { { { ] ",
"}  .X.X. .} [ { {  .X. .[  .}  .@.[ y - 9 , , - - , - - = - - - - 8 9 - - 2 n ` +.^ : - z m * - : T @.o.{ ] { { { { ] { ] { { { ",
" . .X.} [ }  . .|  ... . .[ X...o.+.G i 2 $ > , - , , - - - 9 o   - - w M ) o.@.@.T - ; ( o.c . , W @.X.| | { { { { { ] { { { { ",
"[ [ [  . . . . .[  .X.} [  .X.X.X.@.O.} ' G q , = - : = : ; ; w y n P ] o.@.+.o.@.T : 1 ' @.' u , G @.X.[ [ [ { { ] { { { { { { ",
"{ |  . . .X. .} } X.X. . . . ...X.X.o.O.@.@.G $ s Z ; ; D ( ) ` } +.@.@.o.X.| X.@.I = a X.@.@.T 0 m +.o.{ { { { { ] ] { { { { { ",
" .X.[ X. .}  . . . .X.[ X.} [  .X. .|  .o.O.S % K o.z : Y @.@.O.+.o.X.|  .{ { X.@.R = g O.+.O.o.c p X.o.{ { { ] { { { { { { { ] ",
" .[ }  . .}  . .X.X. .[ X. .}  .|  .[ | o.o.g 1 ' @.^ : m O.o. .[ { { {  . .{  .O.W $ m @.o.X.@.( u ] @.X. . .[ ] { { { { { ] ] ",
"}  . . .[  . .} [ |  . .[  . . . . .| | +.| i k o.@.o.g u  .@.X.} { { {  . . .o.O.W - H @.o.| O.o.c T @.@.@.O.| { { { { { { { { ",
" . .[ }  . .}  .X.|  .} X.X.X...X.X.o.o.@.` + Y @.@.@.P & W o.@.+.X. . . .X.@.@.X.n   D @.O. .o.O.Z w G ^ ' O.o.{ { { { { { { { ",
"..} X. .X.}  . .[ [  . .X.X. .X.X.X.@.o.o.P @ ] @.@.@.Q $ 2 N ( X.@.X.{ X.O.X.R b ; - a ( O.@.@.| d % & : 5 ] @. .{ { {  .{ {  .",
"X.X.X. .X.X.X.}  . . .X.X.X.X.X.X.o.o.S p q 6 ` @.o.J u . o % 2 A @.X.| X.@.T ; 8 . o = @ ! @.' k ; % - = % U @.X.{ {  .{ { { { ",
"} } X.} X.X.X. .} [  .}  .[  ...o.@.' 2 - = = t [ [ # - - - - . x +.o. .X.@.T : - - . - , I @.K % % - > - , C O.o.{ {  .{ { { { ",
"{ {  . .}  .X.X. . . . .[ X.X.X.X.@.P ; = 8 -   D o.k o - % = o l O.o.X.X.+.] q = % - . : _ @.[ p - , - 9 - G @.X. .{ {  .{ { { ",
"{  . .} { { { } } X.X.X.X.[ [ X.o.O.x - 8 - - . u X.I < - % - ; D +.o.[  .O.o.j % - , o p [ @.@.` w , = O s  .+. . .{ { { { { { ",
"{ { { {  .| [  .[ .. . .[ | [ X.o.O.K & , 9 %   g o...x : % - V X.@.X. .| o.@.' z % : Z { @.o.o.O.! q % - h X.o.X. .{ { { { {  .",
"}  .} { { |  . .}  . . .X.X.X.X.O.O.E 2 , - $ u ' @.@.X.B 9 : ` @.X.| | | O.@.o.M $ y ..@.X. .X.@.o.c $ ; ! @.o.| | { { { { { { ",
"{  .{  . .[  .} |  .{ { | X.X.@.' b 3 > , a S ' @.O.@.X.z - q [ @.X.{ | X.@._ z 9 X d ..O. . .O...F 0 & n o.+. .{ [ | { { ] ] { ",
"{ { {  .[  .[ { [ { {  .| X.X.@.E + * * x [ @.@.o.X.@.~ ; : m o.o. .|  .@.} y o % 1 Y @.X. .X.@._ 6 = x [ +.X.{ [ {  .{ { { { { ",
"{ { { { }  .{ { { | { { |  .X.+.o._ U _ o.O.o.{ | | +.' n A | @.X.| X.| +.o.A k S ( +.+.X.{  .@...A G ..@.X.} { { { { { { ] {  .",
"{ { { { {  .{ |  . .| |  .[ [ X.o.O.o.O.O.X.| { | | o.+.o.o.@.X.| |  .| X.+.+.O.+.@.+.X. .{  .X.+.o.+.@.X. .{ { { { { { { { { { ",
"}  .} { [ | { | { | { |  .{ X.| | o.| o.{ { { | { |  .X.o.o.| |  .| |  . .X.X.o.X.X.X.} | |  .{ ..X.X.....[ { { { { { { { { ] { ",
"{ { { }  .X.{ { { { { { { [ | | { | } { { | { [ { { { { [ [ [ |  .| { { |  .} [ .. . . .{  .{ { }  . .[  . .{ { { { { { { { ] { ",
"[ [ | [ [ [ | [ { { [ { { [  . .{ { [ | { { | { { { { { { { { {  .{ { { { { { { { { {  .{ { { {  . .{ { { { { { ] { { { { ] { { ",
"[ [ | | | [ | | [ { [  . . . . .| { | { [ { | [ | | { | { { { { { { |  .{ { {  .{ { { { { {  . . . .{ ] { { { { { { ] { { { { { ",
"| [ | [ [ | [ | | [ | [ [ | [  .| { { | | [ | [ { { | { | { { { { { { { { { [ { { { { { { { { { { { { { { { { { ] { { ] { { { ] ",
"| [ [ | [ [ [ [ [ [ {  .| [ | [ { { { { { { [ [ { { { { { | { { { { { { { [ { { { { ] { { { {  .{ { { { { { { { { { { { { { { { ",
"[ | | { { | [ [ { { {  .| | [ | { | { | { { [ [ { { { { { { | { { { { { ] { { { { { { { { { { { { { { ] ] { { {  .{ { { { { { ] ",
"[ | { [ | | [ | { { { { [ { { [ [ [ { { { { { [ { { { { { | [ { { { ] { {  . .] { { { { { { { { { { { { { { { {  .{ { { { { { { ",
"{ | | { { { | { [ [ { { ] { { [ [ | { | { { [ [ { { { { [ [ { { { { { {  .[ { { { { { { {  .{ ] { { { { { { { ] { { { { { { { { ",
"[ { { | { { | [ [ [ { { { { { { [ [ [ | { { [ { { { { { [ [ { { { { { { {  .{  .{ { { { { { { ] { { { { { { { { ] { { { { { { { "
};
