/* XPM */
static char *_41711898838[] = {
/* columns rows colors chars-per-pixel */
"64 64 83 1 ",
"  c #EB2F8E",
". c #E3338A",
"X c #ED2D90",
"o c #E73190",
"O c #EB3594",
"+ c #E63C94",
"@ c #EB3B95",
"# c #ED3C99",
"$ c #F03E98",
"% c #DF4999",
"& c #E54096",
"* c #EB4296",
"= c #E94895",
"- c #E6449A",
"; c #EC429A",
": c #E44C9B",
"> c #E94B9B",
", c #F0409A",
"< c #F0489A",
"1 c #E5519C",
"2 c #EA46A1",
"3 c #E74DA1",
"4 c #E457A0",
"5 c #EA56A2",
"6 c #E55DA4",
"7 c #E95BA4",
"8 c #E464A1",
"9 c #E963A6",
"0 c #EA69A7",
"q c #EA65AA",
"w c #E66CAA",
"e c #EA6BAE",
"r c #E774AE",
"t c #EA72AD",
"y c #E874B1",
"u c #E67BB2",
"i c #EC7CB3",
"p c #EB7FB8",
"a c #EC81B6",
"s c #EA82B9",
"d c #ED8DBB",
"f c #F18BBE",
"g c #E691BE",
"h c #EC92BE",
"j c #E599BE",
"k c #EE94C2",
"l c #ED9BC3",
"z c #F494C3",
"x c #F19AC3",
"c c #EBA3C6",
"v c #EEA3CA",
"b c #EFACCD",
"n c #F0A6CA",
"m c #EDB1CE",
"M c #F2B3CE",
"N c #F1AFD0",
"B c #EFB8D2",
"V c #F3B5D3",
"C c #F2BBD6",
"Z c #F4BFD8",
"A c #EEC0D8",
"S c #F3C2D7",
"D c #F4C2DA",
"F c #F5CDDF",
"G c #F8C8DE",
"H c #F3D0DE",
"J c #F7CEE0",
"K c #F8CEE1",
"L c #F7D3E4",
"P c #F9D4E5",
"I c #F7D8E6",
"U c #F9D8E7",
"Y c #FAD7E8",
"T c #F7DDE8",
"R c #FAD9E9",
"E c #F7E2EA",
"W c #FCE3ED",
"Q c #F8EAEF",
"! c #FEE7F0",
"~ c #FEECF3",
"^ c #FEF2F6",
"/ c #FFF6F8",
"( c #FFFBFB",
/* pixels */
"LPPKKPKKKPPPPPKKPPKKPPPPPPYPPPLPPPKPPPLYPPPPPYPYYYPPPPPPPPPPPJPP",
"LPPKPPPPPKPPPPPPPPPPPPPKKPKPPPYPPPPPPYLYYPYPPPPPPPPPPPPPKPPPPPYP",
"PPKKKPPKPKPYPPPPKPPKKPPPPLKLYPPPLPKKPPLYYYYYYPPPPPPPPPPPPPPPPPPP",
"KPKPPPPPKPPPPPPKPPKPLPKPPKKPKPLYPPPYPLYLPPPPPPPPPPPPPPPPPPPPPPPP",
"PKKPKPKPYYKKPKPPPPPPYYPKKPPKYPPPPPPPPPPPPKPPPPPYPPPPKLPPKPPPPPPP",
"PPPPKKPPKKYYPPPKKPPPPPIPPPKPPPPPPPPPPPPPPPPPPPPPPPPPPPPPPPPPPPPP",
"KPPKPKYPKKPKKPPKPPKPPPPPPPPPPPPPPPPPYPPPPPPPYPPPPPPPPPPJPPPPKPPP",
"PKKPKPPPKYKYYKPPKPPPPPPIPKKYPPKPPPYPPPYPPPPPPPYPPKPKPPPPPPPPPPPP",
"LYYKKKKYPPKYKKPYPPPPPPPPKPPPPPPKPPPPPPYYYPPPYPYPPPPPPPPPPPPPPPPP",
"KKKLYYYKKYPYKYPPPPPKPPPPPPPKKPPPPYYPJPPPPPPPPPYKPYKPKPYYLPPPPPPP",
"KYKYKYYKYKYKKPKYPPPKPPPPPPPPYYPLPPPPPPPKPPPPPPPPPPPPPPPYPPPPPPPP",
"KKKYKYYKKPKPPPKPPKPPKPPKKPPPPPPKPYPPPPPPPPPYPYYPLPLPKPKPPPPPPPPP",
"YKYLKYKPKKPKPKKYKPPPPKKPPPKPLLPPPPPPPPPPPPYPPPPKPLPPPPPPPPPPLPPP",
"KYKKKPPPYPPKPYYKPPPPPPPKPPPPPLPPPPPPPKPPKPPPPPPPPKPPPPPKPPKPPLPL",
"YKYKKYKKKYPPKPYKPPPYPPYPPPPPPYPPPYPPPPPPPPPPPPKPPPPPPKPPPPKPYYPK",
"KYKYKYYYKYPPPPPYYPPPPKPPPPPPPYPPPYYPPPPPPPPPPPPPPPPPPPPYYPPYLYPP",
"YKLKYKKYPKPPPPPPPPPPKPPPPPYYPPPYYPPPPLYPPPPFPPPPPYPPYPPYYPPPLLYP",
"YYYKYLKLPPPPPPPPPIPPPPYR!~/^TYPPYPPPPPPYPPPPPPPLPPPPPPPPPKLKKYPP",
"KYYYYKLYPKPPPKPPPPPPPYR~TJlG/^WUPULPPPYPPPPPPPPLKPPPPYPPKLPPYPPK",
"YKKYYLYYPPPKPPPPPPPKPP!R6-#3ab~WPYYPPPPPPPPPPPLPYPYPPPYKPPPYPPPP",
"KKLLLYYLPPPPKPPPPKP!WP~Z##2#O+D^PPPLYPPPPW^~TYPPPYYPPPPPPPPPPPPP",
"LPPLYKYKPPPKPPPKPP!!~!^C;,;;=@s^WLPLPPPPWQCU/WPPPPPPPPPPYKPPPPPP",
"YPPYYKLYPPPPPPPPKP^Dl^^k@;;*;@q!TKLPYPPP/V+>c^YLPPPPPPPPPPPPPKPP",
"PPYLLLYLKPPPPPPPKP~T:yy-;;;*;@e~TPPYPPYY^zO@:EWLYPYPPPPPKPPPPPPK",
"YYPPPPLPPPYIPPPPPPR^kX#-*;;;;@s(/~YT~^/^(v5=uQWLPYPPPYYKPPKYLYYK",
"LPPPYLPLPPLPPYPPPPY!~d+#;*;;,#9fzY^^PNllDjYFQ!YPPLPPKKKKPKKPPKPY",
"PPPPYYYPYYLIPPYPPPPY!^B6=;-;#,$@OeWC-#+@&n/~QYPPYLLYYKYPPKKYKKKL",
"PPPYPYPPPPIYPPPPPPPPP!^~S:#;;;;;;#5>#<;-,-v^YPPPPPPPYYYKYPYKYYKL",
"PPYPPPPPPPPIYPPIPYYPPKY~L=;;;;;#;;##*;;;;@9/RPYKKKYKYKYYYKPPKKPY",
"PYPYYPPYPPPIPIIPPPPKPPY/n#;;;#;;;;;;-;;;;;>H~YYPKPKYYKPPKPPPYYYK",
"PYLPPPPPPPPYYIPPPPPPPKW~eO-;;;;;;;;;;;;;;*Op^YPLLPYYYYKYPPPPPYKP",
"PPYLPYPPPPYYYYPLPIIIPPR~t#-,;;;;;;;;;,$;#&#v^RPYKPKPKYKPYKPKPKYP",
"PPRYPRUPPUPYIYPPPIUPPPU/l#*;;;#;;;;#@;;#;@e^WLKYPPPPPKPKKPPPPPPP",
"PPRRYTYPUULYLIPLPYPPPPP/go;;;;--;#@&hN;6>&Z^YPPPYPPPPPPPPPPPPKKP",
"YUTRUPLPPYLIYYUPPYUPPPY~Ld9##;@##6kJ(K+Fx@P~PPPPPPPPPPPLPKPKKPPK",
"LUYTYLUPPYYUUUUUPPUPYYYE~(I>i:kVDE/~^D%P~9M~KLPPPPPPKPPPKPPKPPPP",
"YYIYILYUYUYYUPYYLYIPPPPPU~P8~il(~!YY^G4T(Mh(!TPYYPPPPPPLKPPKPPPK",
"PLYIYYYUYIYTUUTYYYPIYRUYW(md(Cw~^WT!(b7!~QaZU~RPPYYPLLPPPPPPPPPP",
"YPUUYYIYYTYIYYYYUYYIYPPT~DwV(b*9C~~!g:*v^V>+9WWPPPPPLPPPPPPKPPPP",
"YYLYYIYYYYYIUIIYYUUUPYYQL>+yH1$Oq~~T4##6W0@;<P!KPPYPLPPKKPPPPPPK",
"YIIYUIYTYTYLYYPYUYPPYPP^V&2 VfO*s~!^l@#d/S>#e!WPPPPYPPYKPPPPPPKP",
"ILYPLYIYYIIYIYUYUYYPYPR/A*O6PTq>E~W^T;s^Q(v.n^UPPPPPPPYPKPYPPPYK",
"YUPYYIPYYLYYYRYRYTYYPY^J1:lT^W1r~R!P5+C^~L4r~!PPKPLPPPPKKPPPPPPP",
"YIYTYIYYLPIYTTYTTYTRPL!WML/!!TlI~I~LdZ~W~Iv!~YKPPPPPPKPPPPPPPYPP",
"RTTYTTRRYUUTYYYYTYTYYUI!^~WYT!/!!PR~^^WYI~^!YYPPPPPPPPPPPPPYPPPP",
"YYYIYRRRIPPYYIITYUYYIYYLPYLIYIUIPIPYYYPYPLIYYYPPLYYPYYPYPPPPPPPP",
"YYYILYRRYYYYYYIYIYILIYULYTTYYYYIIYPYPPPYYYPYIPPYPPPPYPPPPYPPPPYP",
"PLYYIYYYYTYTUIUYYYIYYYYLYYYUUYYUPPYPYYPYTYPPLPPPPPPYPYPPPPPPYYYK",
"PLYLUPUUUURYPYLYRRYUYUYYIYYLPIYYYLYYPYYYYYPPPYYPPYPPPPPYYPPPYPPP",
"YILYPLUYYIRYUYYIPRRRTYUYIPPYYYPIPYIIIPIIPYYPPPPPPPPPYPPPIIPPPPPP",
"UYLYPPIULYYPIYULYRYURYUUPPPPPUPUYYPLPYYYRIPYPPPPYPPPIYPPPPPPPPPP",
"PPPYUUPPLPPPUUIYTTYUUPPPYPPPULLLPPPYYLYYYIYYYYPYYPPPPPPPPPYPKPKP",
"PPPPUUPPYIPPYYUYTPPYYPPYPIYLPPUUPIYIIYIIRRIRYYLYYPPPYPPPPPPPPPPP",
"PPUPUPPUYYYYLPPUTPUUYPPHPYPPYYYYPYYPYIPYYYIYYLPYYPPLYPPPPPPKPPPP",
"PIYPPPPYULPYYLPUUYYUYUPPPIYPYUPPYYPYYIPPPYYIYYYPPPPLIPPPPPPPPPKP",
"YLLIPTPPPPPPPPIUUYPPUPUPLPLPULLUYLYIPPIIPIYYPYPPPYPPPPPPPPPPPPPK",
"PPUPUHYHPLPPPPUUPPPPUPPPPPPPPPYPYPPPPPPPPLPYPLPPPIPPPPPPKPKPPKPP",
"PPUUUUUULLPUUUUPUPYPPPUUUYPYPPPPPPUYPPPPPPLPPPYYYYPPPPPPPKPPPPPK",
"UPUPUHRRPPPPULPUPPYPPPPRPPPPPPPPPPPPPLPPPPPPPPPPPPYPPPPPPLPKPYPK",
"YHPUUPHULPPTUUPPPPPPUPHHPPPPPYPPPPPPPPPPPPKPPPPYPPPPKPPPPPLPPPPP",
"PPPUHUHHUHPYPIPLPUPPUUUHPYPPPYPPPPPPPPPPPLPPPPPPPJPLKPPLIPPPPPPP",
"PUPPUUUUUPPYPPPPUPPPPYHUPPPPPUPPPPPPLPPLPPPPPPPPPPPPPPPPPPPPPKPP",
"YPPPUUHRHUPLLLLPPPHUHPHUUPPPPHPYLPPUUPLLPPPPPPKPPPPPPYPKPPPPPPKP",
"PPPURHRHUHLPPPPLUHUPPYPPPPHPUUHHPPPPPPPPPPKPPPPLPPPPJPPPKPPPPPPP"
};
