/* XPM */
static char *dog1712085557[] = {
/* columns rows colors chars-per-pixel */
"64 64 86 1 ",
"  c #EB2F8E",
". c #E3338A",
"X c #ED2D90",
"o c #E73190",
"O c #EB3594",
"+ c #E63C94",
"@ c #EB3B95",
"# c #ED3C99",
"$ c #F03A97",
"% c #F03E98",
"& c #DF4999",
"* c #E54096",
"= c #EB4296",
"- c #E94895",
"; c #E6449A",
": c #EC429A",
"> c #E44C9B",
", c #E94B9B",
"< c #F14097",
"1 c #F0409A",
"2 c #F0489A",
"3 c #E5519C",
"4 c #EA46A1",
"5 c #E74DA1",
"6 c #E457A0",
"7 c #EA56A2",
"8 c #E55DA4",
"9 c #E464A1",
"0 c #E963A6",
"q c #EA69A7",
"w c #EA65AA",
"e c #E66CAA",
"r c #EA6BAE",
"t c #E774AE",
"y c #EA72AD",
"u c #E874B1",
"i c #E67BB2",
"p c #EC7CB3",
"a c #EB7FB8",
"s c #EC81B6",
"d c #EA82B9",
"f c #ED8DBB",
"g c #F18BBE",
"h c #E691BE",
"j c #EC92BE",
"k c #E599BE",
"l c #ED8FC0",
"z c #EE94C2",
"x c #ED9BC3",
"c c #F494C3",
"v c #F19AC3",
"b c #EBA3C6",
"n c #EEA3CA",
"m c #EFACCD",
"M c #F0A6CA",
"N c #F2ADCF",
"B c #EDB1CE",
"V c #F2B3CE",
"C c #F1AFD0",
"Z c #EFB8D2",
"A c #F3B5D3",
"S c #F2BBD6",
"D c #F4BFD8",
"F c #EEC0D8",
"G c #F3C2D7",
"H c #F4C2DA",
"J c #F5CDDF",
"K c #F8C8DE",
"L c #F3D0DE",
"P c #F7CEE0",
"I c #F8CEE1",
"U c #F7D4E4",
"Y c #F9D4E5",
"T c #F7D8E7",
"R c #F9D8E7",
"E c #FAD7E8",
"W c #F7DDE8",
"Q c #FADAE9",
"! c #F7E2EA",
"~ c #FCE3ED",
"^ c #F8EAEF",
"/ c #FEE7F0",
"( c #FEECF3",
") c #FEF2F6",
"_ c #FFF6F8",
"` c #FFFBFB",
/* pixels */
"UYYIIIEIIYYYYYIYYYIIYYYYIEYYYYYYYYYIEUUEYYYYYYYQQEYYYYYIYYYYYIYY",
"UYIIEIYIYIYYYYYIYYYYYYYYYYIYYYUEYYIYYEYYYYQYYTYYYYYYYYYYYYYYYIEE",
"EYIYIEEYEIYYEYYIIYYIIYYIIYIYYYEYUYIYYYYUEEYYEYYYYYYYYYYYYYYYYYYY",
"YYIIIEIIYYYYYYYYYIYYYYIYYYIIIYYYYYYYYYUEYYYYYYYYYYYYYYYYYYYYYEIE",
"IYIYIYIEYYYIIIYYYJYYEEYJYYYIEIYYYYYYYYEYYYYYYYYYUIYYUIYYYYIYIYYY",
"IYYYIIYYYYIYIEEIYYYYYYRYYIIYYEYYYYYYYYUYYYYYYEYYYEUYYYYYYYYEEYYY",
"YYIIYIEYIIIYIEIYYYYYJEYYYYYYYYYYYYYYYYYYYYYYYYYYYYYUYYYIYYYYIYYY",
"YIIEIYYYIYYYEIEIYYJYYYYREIIEEYIYYYYEYEEYYYYYYYYYYUIYYYYYUYYYYYYY",
"IYYYYIIYYYEIYYYEYYYYYYYYYYYYYYYYYEYYYYYYEYYYYYEYYYYYYYYYIYYYYYYY",
"YIYIYYEYYEEIIIIYYYYUYJYYYYYYYUYYYYEYUYYYYYYYYRYYYYIUYYYYUYYYYUYY",
"IYIYIEEIYYIYYEEEERYYYERRYYEEYYYYEQEYEETYEQYEREEYYEEEYIEEEYYYYYYY",
"EIYIYYEIIYYEEEEEQEQEEQEREEQQQQQEQQQQQQQEQQQQQQQYQQQQQYIYEYYYYYYY",
"IYIYEIYYIIYEYYIYYYIYYIYJYYJYYUYYYYYYYYYUYEYYYYYYYUYYEEYYIYIYYIYY",
"IEYIIIIEYYYEYEIYYYYYYYYYYYYYYYYYYYYYYYYYYYYYYEYYYYYYQYYIYYYYYYYY",
"YIYIYYIYYYYEYYEYYYYYYYYYYYYYYYYYYYTYYYYYYYYYYYUYYYYYQEYUYYYYYEYI",
"YYEYIYYYYYYEYYYYYYYYYYYYYYYYYEYYYEYYYYYYYYYYYYYYYYYYEYUEEYYYEYEY",
"YYYIYYYIYYYEYYYYYYYIYYYYUUYEYYYYYTYYYYEEUIYYYYYYYYYEQYYTYYYYYYYY",
"YYYYYIYYYIYEYYYYYYYYYYYQ((_)WEYEEYYYYYYYYYYYYYYUYYYYQEYYYYIYYYYY",
"IYYYYYYYYUYEYYYYYYYUYYQ(WJvK_)~TYTYYYYEYYYYYUYYUYYYEQQYIUIYYYYYY",
"YYYYYYEYYYYEYYTYYYUUYY(E8;#5sm(~YQYYYYYYYYYYYYYYYYEYQYYYYYYYYYYY",
"IYYYYYYYYUYYIYYYYIY~~E(H#:4#@+H)YYYYYYYYY~)(QTYYYYEYQYYYYYYYYEYY",
"YYYYYYYYYYYEYYYIYY(/(~(S#:::-@d(~YYUYYYY~^ST_~YYYYYYQYYYEYIYIYYY",
"YIYYYYYYYYYEYEYYIY)Hx__j@::::@w(QIUYYEYY)A+,b)YUYYYYQQYYYIYYIYYU",
"YYYYYYYYUUUEEYYYIY(W3yy;#:=::@r(~YYYYYEE)cO#>!~UYEEYQYYYYEYYYYYI",
"EYYYUUUUUYEEYYUYYYE)lX#-::#:2@a`)(EW()_)`n7-i^~YEYEYEYYIIYIYYYYY",
"EYYYEEUUYEEEYEYYUYE((f*#:::::#8gcE))UCnzHkEJ~(QYEUYYEYIIIYYYYIYY",
"YYYEEEEYETTEEEYYYYYY/)Z8-=::11#@Ow~D-#++*n_(^TYYUUYYEYEYYYIIYIYI",
"YYYYUEEYYTQQYYYEYYYYY~)(G3#:::=:4#7,#:::<;n)EYYYYYEYEEYYYEEIYYIY",
"YEYYYYYYUYEQEEYYYEYYYYY)P;:::::#::##;:::-$0_QYEIYIYYEEYEYYYEYIYY",
"YYYEEYYYYYEQETTYYYYYYYT_M#::#::::::::::::%,J(EYYIYIYEEEYIIYYYYYE",
"YEYYYYYYYYEQETYYYUYYYIQ(r#:1::::::::::::::Oi)QYYYIYEEEIYEIYIYYIY",
"YYYYYEYEYYEQETYYYYETYYQ)t@;::::::::-11#:<-*n)EYYYYYYEIEYYEYIYYYY",
"YUEEYQTTYEEQTEYUYTTYYYE`x+>:::#::::##::#:@y_~UYYYYYYEYYYYIYYYYYY",
"YYEQYQQUYTEQTEYUYEYYYYY_jX#:::;::#@*jN:8,*A)YYYYYYYYEYYYYYYYUIUU",
"ETQQYTYYEEEWTEEYYEEYYEQ(Uf0##:#+#8zP`K+Jz#Y(YYIYYTYYEYYYYYIIIIIU",
"TEQWEYYYYEEWTETEYYTYEYY!(`T,p>zSD!_()H&T)0N(YYYYYYYYYYYYIYYIYYYY",
"TYEETTTEEEEQETEWUETYYYYUE(Y9/px`(/EE)K3!`Vj`(QYEQYYYQYYYYEYIYYYI",
"YYETEEETTT!QTTEEEEYTEEEE~`Bf`Se/)~E(`m8((^sDT(QYYYQYYYYYIIYYYYEY",
"TYTTEEEEEQWQEETEYQTEEEYQ(DeZ`N=qS((~h>:b)A-+0~~IYYTEQYYYYYYIYEYY",
"QEYEETEEEEQQWETEQTTTYYE(U>+uL3%oe/(W7#$8~q#:2Y(IYYYYEYYYIYYYYYII",
"EYEETEWEETWQEETEEQYYQYY)A:4 Bg@#d(/)v=$f`D,#r(~YYYYYQYYUIYEIYYIY",
"TYEYUTTEETEQTEEETEYYEY~)F;O8YWw,!(/)W;d)^_n.M)YYYYYYQYYYYYEEYYYI",
"TYYEETUEEUEEWQEWQEEEYE(P3,xW_!,t)Q/U7+S)(T6t(/YYUYYYEYYYIIEYYEYY",
"QEEWETEEYEWWQQEQQQWQYU/~VL_((WxT(U(UfD(~(Tb/(EIYYYYEQYYYYEYYYYYE",
"EWWEWQQWEYE~ETETWEEEETT/)(~EQ()(QEQ(_(~EE()(EYYYYYYYWEYYYYYYYIYY",
"EEEEEQQETYEWEEEWEEWETEEUYQUUYTTTETYEQYYEUUEEETEYYYEEEEYYYYYYEYYY",
"UEETUEQQWEEQTWEETEYYTETUEWWEEEETTEEEYEYYEEUTYYYYYYYTQEYYYEYYYYEY",
"YTETETEEEEQ~EYTEETTTEEEYEEEETEETEYYYYEYQEEYEUYYYYYYYEEYYYEYYEEYY",
"YUEYYYTYETQQETYEEQEQQTTEEQYYYTEETYQQTYEQQQYYYEYYETYEQEYEEYYYYYYY",
"ETUYYTTQETQQEQQTTQEQTTTETYYYTETYYYYTYYYYYQYYYEYYYYYYQEYRTYYYYYYY",
"YETEYYRRYTQQYQYYTQTRQETTEYYYYEEEQEYEETEQQEYQYEYEYYEYQEYYYYYYYIYY",
"TYYETYYRYYYQYTTEQEEYEYYEYYYQYUTEYYYTEYQQWUEQYYYEQYYYEEYYYYTYYUYY",
"YYYYTEYYYEEWQQQ~~QQ~~QQQQQWQQQQQQQ~Q!QQQQ~Q~Q~QQQQQQQEYYYYYYYYYY",
"YYTYYTYEQQTEWQEEQTQQEEEYQWEYQQQWEWQQWEWQQQEEEYEQYQETTEYYYYYYYIYY",
"YTYYRYYYYYYEYUYYRYEYRYYYYYYYQEUYEYYQEEUUYTEEYYEYYYYYTYYYYYYYIYYY",
"YEUTRRYYYYYYYTEERERRYRYREYYYQYUYQYYYTUEYUTEEYEYYYYYYYYYYYIUYYYYI",
"YRQLLRRQUYYYYUTTYYRYEYJREYYYYYRYYYQYYYYYYEYYYYYYYEYYYYYIIYYYYIYY",
"YRERQJRQUYYYYREERYYYYYRRYYTEYYYYYYYEYYYYYYYYYEEYQYYYYYYYYYYIIYYY",
"RYJQQLQLYYRRYRYEYYRYRYRRYYYYYYYYYYYYYYYYYIYYYYYYYYYIYYYYYUYYYYYJ",
"EJRRRRLQUYYRTYTYYYYYYYLJYYYYYYYYYYYYYYYYYYIYYYEEYYYYYYYYYYIYYYYY",
"YYRRRJLLJRYEYRURRRYYRRRJYEYYYYYYYYYYUYYYYYYYYYYYYUYUYYYYRYYYYYYY",
"RYYYRQQQQLRYYYYUREYYJQLRYYYYRYYYYYYYYYYIYYYYYYUYYYYYYYYYYYYYYYYY",
"RYYYRJLQRLYYYYUURLRQRRLERRYYERLYYUYYTYYUYYYYYYIYYYYYYYYJYYYYYYKY",
"JYRY~LQLQLUYYYYJQLJJYYYYYJYYLYYYRYYYYYYUEIYEIYYUIYYYYYYYJYYYYYYY"
};
