/* XPM */
static char *_41712000629[] = {
/* columns rows colors chars-per-pixel */
"64 64 93 2 ",
"   c #EB2F8E",
".  c #E3338A",
"X  c #ED2D90",
"o  c #E73190",
"O  c #EB3594",
"+  c #E63C94",
"@  c #EB3B95",
"#  c #ED3C99",
"$  c #F03E98",
"%  c #DF4999",
"&  c #E54096",
"*  c #EB4296",
"=  c #E94895",
"-  c #E6449A",
";  c #EC429A",
":  c #E44C9B",
">  c #E94B9B",
",  c #F14097",
"<  c #F0409A",
"1  c #F0489A",
"2  c #E5519C",
"3  c #EA46A1",
"4  c #E74DA1",
"5  c #E457A0",
"6  c #EA56A2",
"7  c #E55DA4",
"8  c #E95BA4",
"9  c #E464A1",
"0  c #E963A6",
"q  c #EA69A7",
"w  c #EA65AA",
"e  c #E66CAA",
"r  c #EA6BAE",
"t  c #E774AE",
"y  c #EA72AD",
"u  c #E874B1",
"i  c #E67BB2",
"p  c #EC7CB3",
"a  c #EB7FB8",
"s  c #EC81B6",
"d  c #EA82B9",
"f  c #ED8DBB",
"g  c #F18BBE",
"h  c #EC92BE",
"j  c #E599BE",
"k  c #F3AEBE",
"l  c #F4B0BF",
"z  c #ED8FC0",
"x  c #EE94C2",
"c  c #ED9BC3",
"v  c #F494C3",
"b  c #F19AC3",
"n  c #EBA3C6",
"m  c #EEA3CA",
"M  c #EFACCD",
"N  c #F4AFC0",
"B  c #F0A6CA",
"V  c #F2ADCF",
"C  c #EDB1CE",
"Z  c #F4B3C1",
"A  c #F3B5CB",
"S  c #F5BAC9",
"D  c #EFB8D2",
"F  c #F3B5D3",
"G  c #F2BBD6",
"H  c #F4BFD8",
"J  c #EEC0D8",
"K  c #F6C5D6",
"L  c #F8C6D6",
"P  c #F7C8D7",
"I  c #F5C4D9",
"U  c #F8C6D8",
"Y  c #F7CADA",
"T  c #F8CBDC",
"R  c #F3D0DE",
"E  c #F7CFE0",
"W  c #F9CFE0",
"Q  c #F7D3E4",
"!  c #F9D4E5",
"~  c #F7D8E6",
"^  c #F9D8E7",
"/  c #FAD7E8",
"(  c #F7DAE9",
")  c #FAD9E9",
"_  c #FBDEF0",
"`  c #F7E2EA",
"'  c #FCE3ED",
"]  c #F8EAEF",
"[  c #FDE5F0",
"{  c #FEECF3",
"}  c #FEF2F6",
"|  c #FFF6F8",
" . c #FFFBFB",
/* pixels */
"Q ! ! W W ! W W W ! ! ! ! ! W ! ! ! W / W / / ! ! ! ! ! ! ! ! ! ! ! ! ! ! ! ! ! ! ! ! ! Q / ! / ^ / ! ! ! ! ! Q ! ! ! ! ! W ! ! ",
"Q ! W W ! ! / W W ! ! ! ! ! W ! ! ! / W ! ! ! W W ! ! ! ! ! / ! ! ! W ! ! ! ! ! / ! / / / Q ! / ! ! ! ! ! ! ! ! ! ! ! ! ! W ! / ",
"! ! W ! ! W ! ! / W ! ! ! ! ! ! W ! W ! W W ! ! ! W W Q ! ! / ! ! ! ! ! ! ! ! / / / ! / / / Q ! ! ! ! ! ! ! Q ! W ! / ! ! ! ! ! ",
"! ! W W W ! ! ! W / ! / ! / W ! ! W ! ! / / W ! ! Q W W W ! ! ! ! ! ! ! ! ! ! ! ! / ! ! T / ! / ! ! ! ! / ! ! ! / ! ! ! ! ! ! ! ",
"W ! ! W ! W W ! W / ! W W W W / ! ! ! / / / Q E W ! ! ! ! W ! ! ! ! ! ! ! ! / ! ! W ! ! ! / ! / ! ! ! ! Q ! ! ! ! ! W ! ! ! ! ! ",
"W ! ! W W ! ! ! ! W ! ! ! ! / W ! ! W W Q / / Q ! ! W ! ! ! ! ! ! ! ! ! ! ! ! ! ! ! ! ! ! ! ! ! ! ! ! / / W ! ! ! ! ! ! ! ! ! ! ",
"! ! W ! W W / ! W W ! W W ! W / W ! ! ! ! ! ! / ! W ! ! ! ! ! ! ! ! ! ! ! ! ! ! ! ! ! ! ! ! ! ! ! ! ! Q ! ! ! W ! ! ! ! ! ! ! ! ",
"! ! W ! ! W ! ! W / ! ! / W / W ! ! W W ! ! Q / ! ! ! ! ! ! ! ! ! ! ! / ! / / ! ! ! ! / ! ! / ! ! ! T Q ! ! ! ! ! ! ! ! ! ! ! ! ",
"W ! ! ! W ! W ! ! / / W ! W ! ! ! ! ! Q ! ! Q ! Q ! ! ! ! ! ! Q / ! ! ! Q Q ! / / ! ! / / ! / ! ! ! Q ! ! ! / ! ! W ! / ! ! ! ! ",
"! ! W ! ! ! ! ! ! ! ! / / ! / / / / / / / / / / / / / / ! / / / _ / / / / / ^ ) / / / / ) / ) / / / ! / ! ! ! ! ! / Q ! ! Q ! ! ",
"W ! W W ! ! ! ! ! ! / W H U H H K K K K K K K K K L K K K U K K K I W H U K K U L L K L K L L K U U U K T ! ! / / / Q ! ! ! ! W ",
"W ! ! W ! ! ! ! W ! H B k N N B k k k k k k k k k k k k k k k k k N N N k l k k k l k l l l k k k k Z N Z W ! ! / ! ! Q / ! ! / ",
"! ! ! W ! ! W ! W / U A ) ! ! ! ! ! ! ! ! ! W ! ! / ! / ! Q / / ! ! / ! Q / / ! / ! / / ! ! / ! ! ! ! _ S U ! W ! W W ! ! ! ! W ",
"W ! W ! ! W W ! ! / U S W T W W T W W W W W T T T T Q T W T W W ! W ! T Q T T T T T ! T ! T T ! T W T ! S T / ! ! ! ! ! ! ! ! ! ",
"/ W / W W ! W ! ! / U S ! ! ! ! ! / ! / ! ! ! ! ! / / ! / ! ! Q ! / Q ! / ! ! / / / ! ! / ! ! W ! / W ! S U / ! ! ! ! ! ! ! ! ! ",
"W ! ! ! W / / W ! / U S ! W ! ! / ! ! ! ! ! ! ! / ! ! ! ! ! / ! / / / Q ! ! ! ! / ! ! ! ! ! ! ! ! / W ! S U / / / ! ! ! / / ! ! ",
"/ W ! W ! ! ! ! ! ! U S ! Q / ! ! ! ! ! W ! ! ! ! ! / / ! Q ! / / Q ! ! ! ! ! / T ! ! ! ! ! ! ! ! / Q / S T ^ / / Q ! ! Q ! / Q ",
"! / ! ! ! W ! ! Q ! U S ! Q ! ! ! ! ! ! ! / / ) [ { | } ) / / ! / / ! ! ! ! / / / ! ! ! ! ! ! Q ! ! W ! S U ^ / Q Q W Q ! ! ! ! ",
"W ! ! ! ! ! W ! Q ! L S / Q ! ! ! ! ! ! Q / ) { ( W b E  .} { ~ ! / ! ! ! ! / ! / ! ! ! ! Q ! ! ! ! Q / S T ) T W W ! ! ! ! Q ! ",
"/ ! / ! ! ! / / / / L A ! T / / ! ! ! T Q / { ~ 8 : O 4 p M { ' Q ^ ! ! ! ! ! ! ! ! ! ! ! ! Q ! ! ! ! / S T / ! ! ! ! / ! ! ! ! ",
"W ! ! W ! ! ! ! ! ! U A ! ! ! ! ! W ~ ' ' ) { I # # 3 # O + I } / ~ ! ! / ! ! ! / ' } { ' Q Q ! ! / ! / S U / ! ! ! ! ! ! ! ! ! ",
"! ! ! ! ! ! ! ! ! / U S ! T ! ! ! ! [ [ ' ' } F * ; ; ; = + d { ) ! ! Q ! ! ! ! ' ' I ~ } ' ! ! ! ! T ! S T ! ! ! ! W ! ! ! ! ! ",
"! ! ! / ! ! ! ! Q / L S ! ! ! ! W ! } I c | } h @ ; ; ; ; @ w { ) W ! ! ! ! ! ! } F + > n } / ! ! / ! ! S T / ! ! ! ! ! ! ! ! ! ",
"! ! ! ! ! ! / ! Q ! U S ! ! ! ! W ! { ( 2 y y > # ; * ; ; # r { ' ! ! / / / ^ ^ } h O # : ` ' Q / / ! ! S U / ! ! ! ! ! W W ! ! ",
"! / ! ! Q Q Q ! ! / E A ) ! Q ! / Q ) } f X # = ; ; # ; 1 @ a | } { / ( { } } }  .m 6 : i ' ' Q / ! W ! S U ! ! ! ! ! ! W ! / ! ",
"! ! ! ! / / Q ! ! / Y A / T ! ! Q ! / [ { f & # ; ; ; ; ; # 0 g v ~ } } Q F c c I j / Y ] { / Q / ! Q / S U ! W ! W W ! ! W ! ! ",
"! ! ! / / / / ! / ) Y S ! ! / ! ! Q ! / { } D 0 = * ; ; # , # @ O w ' H > + + @ & B } } ' ~ / / Q / ! / S I / ! ! ! W ! ! W W ! ",
"! W / / ! / / / / ) Y S ^ ! ! / ! / ! ! / ' } ' I 2 # ; ; ; ; ; < ; 6 > # ; ; ; , - m } ^ / Q ! ! ! W W S T / ! ! ! ! ! W ! W ! ",
"! / ! / ! ! ! ! ! / T S / ! Q ^ / / ! ! ! W ^ } T - ; ; # ; ; ; ; ; # ; ; # ; ; ; # 0 } ) ! ! ! W ! W ! S T / / / ! ! / ! ! ! ! ",
"W / ! ! / ! ! ! Q / T S / Q Q / ! Q / Q / ! ^ } m # ; * ; ; ; ; ; ; ; ; > ; ; ; ; , 2 T } ! ! ! Q W W / S U / ! W W ! / ! ! ! ! ",
"/ ! ! ! ! ! ! ! ! / T S ~ Q Q Q ! Q ! Q ! W ) ] r # > ; ; ; ; ; ; ; ; ; ; ; ; ; * ; O i } ) ! ! W ! W ! A U / / ! W W W ! ! ! W ",
"/ ! / / ! / ! ! ! / T S / / / Q ! / / / ! ! ' { t # ; # ; ; # ; # ; ; ; , , # ; ; * + B } / ! ! ! ! W ! F H / W ! / ! ! ! ! ! ! ",
"! ! ^ ^ ^ ^ ^ ^ ~ ) T S ~ T / ! ! Q ~ ! Q ! ~  .c * - ; ; ; # ; ; ; ; ; # # ; # ; # q } ' Q ! ! ! ! W / S L / W W ! ! ! ! / ! ! ",
"/ / ) ^ ^ ^ ^ Q Q ) Y S ^ Q / Q ! / / ! / ! ^ } h o # ; ; ; ; ; 3 # O & h V ; 7 > & H } / ! ! ! ! ! ! ! S T ! ! ! ! ! ! W ! ! E ",
"^ ! ) ) / / ! ! ^ ) T S ) / ^ / ! ^ ^ ! ! / ^ { T x 0 # # ; # + + 7 x W  .W + Y c # / { ! ! Q ! / / W ! S L ! ! ! W ! W W W W Q ",
"/ ^ ^ ^ ^ Q Q ! / ) T S ^ Q ^ ^ ! / / ! ! / / ) {  .( > p : z G I ` | { { I % ( { 0 V { ! W ! ! / / W / S L / ! W ! W ! / ! ! ! ",
"~ ! ^ ~ ! / ^ / / ) T K ! Q ^ ^ Q ^ / ! / Q Q / / { ! 9 { p c  .{ [ / / } W 6 (  .A h  .{ ) ! / ! / ! / S L / ! Q / W W W ! W / ",
"/ Q ^ ^ / / ^ / Q ~ T S ^ ! ) ^ ^ ^ ! ^ ^ / ~ ^ '  .C f  .G e ] } ' / {  .M 8 { { ' s H ~ { ^ / Q / T ! A U / ! W W / ! / / / W ",
"! / / / ^ ) ^ ^ ~ ) T K ^ ! ^ ) ^ ^ ^ ^ / / / ( { I e D  .V * 0 G { { ' z : - n { G > + 0 ' ) ! Q ! ! ! S P ^ ! / W W / / / ! W ",
"^ ^ ! ^ / / ^ ^ ^ ` T Z / ! ^ ^ ^ / ^ / Q / / { Q - + u R 2 $ O e { { ` 5 # O 8 ] q @ , 1 Q { W Q / ! / A L ^ Q W / Q ! W / W ! ",
"^ / ~ ^ Q ^ ) ^ ^ ) T S ~ ! ^ ^ / ^ ! / / / ! } F ; 3   M g O * d } ' } c # @ f  .I > # r { ' Q ! ! T ! S U ) ! ! ! ! ! ! ! ! W ",
"/ ! / / / Q ^ ^ ~ ~ T K ! Q ^ ^ ^ ^ / / ! ! ' } J ; O 7 / ` w > ( { ( | ( = s } '  .m . B | / Q ! ! Q / S U ) ! W ! / ! ! ! ! ! ",
"Q ^ / / ^ / ~ ^ / ~ T S ^ ! ^ ^ ^ ^ ^ ^ Q / { T 2 2 b ` } ` 2 y } ( { ! 2 * G } { Q 5 t { ' ! ! W ! W / S U / W Q ! ! ! ! ! ! ! ",
"^ ^ ^ ) ^ / ^ ^ Q ~ T S ) ^ ^ ) ) ) ) ) Q / ] ' A R } ' { ( c ~ { / { Q f H { ' { ~ n { { / W ! ! ! W / S U ! ! ! ! ! ! / ! ! ! ",
") ) ) ^ ) ) ) ) / ~ T K ) ! ) ^ ) ^ ^ ^ ^ / ~ ' } { ) / ^ { } { ) / ^ { } } ' / ( { } ' ) ~ ! ! / ! W / S T / ! ! ! ! / ! ! ! ! ",
"^ ^ ^ / ) ) ) ^ / ~ T S / Q ) ~ ^ ^ ^ ^ / ^ / / / ^ ~ ~ / ~ ~ / ~ ~ ! / / / ! / / Q / / ^ / ! ! / / ! / S T ) ! ! ! ! ! ! ! ! ! ",
"/ / ^ / / ^ ) ) ) ) T S / Q ^ ) ^ ) / Q / ^ ~ Q / ) ) ^ ~ ^ ^ / ^ / / / ! / ! / / / Q ~ / ! / ! Q ~ E / S U / ! ! / ! ! ! ! / ! ",
"Q Q ^ ^ Q / ^ ^ ) ' T S ^ Q ^ ) ^ / / ^ ^ ^ ^ Q ^ ) ^ / / / ^ ~ / / ! ! ! / ! ^ / / / Q Q ! ! ! Q / W ! A W ) ! ! ! ! ! / / ! ! ",
"/ Q ^ ! / / Q ^ ^ ) T S ^ ! / ! ^ ^ ^ ^ ) ^ ~ ) ) / / Q / Q ^ ^ ^ Q ^ ^ Q ! ^ ^ ^ / ! ! ! ! ! ! / Q T ) S T ^ ^ ^ / ! ! / ! ! ! ",
"^ / Q / ! ! ^ ^ ^ ) T S ^ ^ ^ / ~ ) ^ ) ) ^ ) ) ~ / ! / ^ ^ / / / / / ! ^ / / ^ ^ / / / / / / / / / Q / S T / ! / / ! ! ! ! ! ! ",
"! / Q ^ ^ / Q ^ / ) T S / Q Q Q Q ! ! ~ ! ! ! T ! W T T Q Q Q Q ! T ! ! T ! Q Q ! ! W ! ! T T Q ! T T ! S T / ! Q Q ! ! ! W ! ! ",
"! ! / ^ ^ ^ Q ! Q ^ L S ' / ^ ^ ' ) ) ( ^ ) ^ ^ ) / ) ) ^ Q / ( ^ / ^ ) ^ ) ( ) ) ^ / ) ) / / ) / ! / _ S L / ! ! ! ^ / ! ! W ! ",
"! ! ! ! ^ ^ ! / / ) ! Z Z l l Z l l Z l l l l l N Z l l l l l l l l Z Z Z Z Z l Z Z Z Z Z Z Z l N l l k Z Q Q ! ! ! ! ! ! ! ! ! ",
"! / ^ ! ^ ! ^ ^ ) ^ ^ T U U K L T U Y Y L L L L L L U U U L P L L L L L P L P P P P P T U I U U L L L U Q ^ ! ! ! ! ! ! ! W ! ! ",
"! ~ ! ! T ^ ^ ^ / Q ! / ) ~ / ( ) ) ) / ) ) ^ ^ / / ) ) ( ) ~ / ( / ) ' ) ) / ~ / ) ' ~ / ) _ ) ) / / / / Q ! ! ! ! ! ! ! ! ! ! ",
"! ^ ! ~ ) ) T ^ ! ! ! / / / ~ ~ / ^ ~ / / ) ! ! / Q Q ~ ^ / / / ) Q / / / Q / / ~ ! / ^ ! / ! ! ! / ! Q / ! ! ! ! ! W ! ! ! ! W ",
"! ! ) T ^ ^ ^ ^ Q ! ! ! ! Q ^ ^ ^ ! ! / ! ! ^ ! ! ! ! Q ! ! ! ! / / / ! ! ! ! ! ! / ! ! ! ! ! ! / / / ! ! / ! W W ! ! ! ! W ! ! ",
"^ ^ ~ ^ ^ T ! ^ Q Q ^ ! ! ^ ^ ^ ^ ! / ! Q ! ^ ^ / / ^ ! ! ! ! ! ! ! ! / ! ! ! ! ! ! ! ! ! ! ) ! / / ! W ! ! / ! ! W ! W W ! ! ! ",
"^ ! ! ~ ^ T R ` Q T ) ~ ~ ! / / ! ! ^ ! ~ ! T ^ ! ! / ! ^ / ^ ! ! ! ! / ! Q Q ! ! Q ! ! ! ! ! ! ! / ! ! W / ! ! ! ! ! Q W ! ! Q ",
"! ! ^ ^ ^ ^ ^ T ! ! ^ ) / ^ Q ! Q ! ! ^ / ! ^ T ! ! ! ! ! ! ! ! ! ! ! ! ! ! / ! ! ! W ! ! ! ! ) ! ! ! ! ! ! ! ! ! / W ! ! ! ! ! ",
"Q ! ^ ^ ^ ! T ^ ^ T ! ^ ! Q ^ ~ ! ^ ! ! ) T ^ T ! / ! ! ! ! ! ! ! ! ! ! ! ! ! ! ! / W ! ! ! ! ! ! Q ! W ! ! ! ! / Q ! ! ! ! / ! ",
"! ! ! ! ^ ) ^ ^ ^ ^ ! ! ! ! ! ! ^ ^ ! ! ^ ^ ^ ^ ! / ! ! ^ ! ! ! ! ! Q ! Q ! / T Q ! / ! / ! ! / ! Q ! ! W ! ! ! / ! ! ! ! ! ! ! ",
"/ ^ / ! ^ T ^ R R ^ ! ! ! ! Q ! ) ^ ^ ) ! ! R ^ ^ ! ! ! ) ^ T ^ ! Q ! ^ ! / Q Q ! ! ! ! ! ! ! W / ! ! ! ! ! ! W ! ! ! ! ! ! W ! ",
"T ! ! ! ^ ` R ^ ^ T Q ! ! ! / T T ^ T T ^ ! ! ! ! ! ^ T T ^ ^ ^ T ^ ! ! ! / Q / ! ! ! / W ! W E ! ! ! ! Q ! ! Q W ! ! ! ! ! ! ! "
};
