/* XPM */
static char *exit1712085558[] = {
/* columns rows colors chars-per-pixel */
"64 64 254 2 ",
"   c #0C0000",
".  c #170205",
"X  c #250208",
"o  c #2B020E",
"O  c #360109",
"+  c #260810",
"@  c #2C0B15",
"#  c #340C19",
"$  c #3A0E1C",
"%  c #37101C",
"&  c #3E0F20",
"*  c #3E1521",
"=  c #48020A",
"-  c #580108",
";  c #5C000B",
":  c #5B0614",
">  c #62000D",
",  c #630213",
"<  c #690717",
"1  c #650B1A",
"2  c #6B0C1A",
"3  c #750B1B",
"4  c #69111D",
"5  c #74131E",
"6  c #451827",
"7  c #541A2C",
"8  c #750D21",
"9  c #6C1524",
"0  c #6D192E",
"q  c #741223",
"w  c #7A1524",
"e  c #741A26",
"r  c #7A1A26",
"t  c #75192B",
"y  c #7C1C2B",
"u  c #592D3C",
"i  c #7B232D",
"p  c #6C223D",
"a  c #7C2332",
"s  c #7E253A",
"d  c #745C62",
"f  c #7C6068",
"g  c #851A2A",
"h  c #91122D",
"j  c #841D32",
"k  c #AB173A",
"l  c #832434",
"z  c #8A2837",
"x  c #8A2B36",
"c  c #862C3A",
"v  c #922B3A",
"b  c #8A313D",
"n  c #A42036",
"m  c #DB1F34",
"M  c #991E43",
"N  c #B31F4C",
"B  c #982A46",
"V  c #8A3643",
"C  c #973744",
"Z  c #8C3958",
"A  c #913153",
"S  c #AA2D4E",
"D  c #A62955",
"F  c #BA2A56",
"G  c #A83A59",
"H  c #943764",
"J  c #A63F61",
"K  c #B93C66",
"L  c #C82D5B",
"P  c #E63051",
"I  c #C83969",
"U  c #D73669",
"Y  c #D53D73",
"T  c #E53A66",
"R  c #E33F79",
"E  c #944650",
"W  c #9A4451",
"Q  c #A84B56",
"!  c #A64658",
"~  c #B5475A",
"^  c #AA515B",
"/  c #975170",
"(  c #AB4561",
")  c #A54B65",
"_  c #B54A68",
"`  c #AB5866",
"'  c #B75967",
"]  c #B64674",
"[  c #A95674",
"{  c #B85576",
"}  c #8C6A74",
"|  c #BA6476",
" . c #B36A79",
".. c #C4456B",
"X. c #C5516F",
"o. c #C94974",
"O. c #D54778",
"+. c #DA447B",
"@. c #C65677",
"#. c #D75A7C",
"$. c #E34C75",
"%. c #CC687C",
"&. c #C5727B",
"*. c #EE6679",
"=. c #A55486",
"-. c #B75987",
";. c #97678A",
":. c #9B7C87",
">. c #AD6F8F",
",. c #BB6583",
"<. c #AB7398",
"1. c #BF73A0",
"2. c #D44F82",
"3. c #DD4B82",
"4. c #CC5389",
"5. c #D75587",
"6. c #D95A91",
"7. c #E64A84",
"8. c #F04986",
"9. c #E5558B",
"0. c #E7548B",
"q. c #E75B96",
"w. c #EB5B94",
"e. c #F55E99",
"r. c #F65C9A",
"t. c #C86787",
"y. c #D7658D",
"u. c #CF738F",
"i. c #D96895",
"p. c #C77795",
"a. c #DB7799",
"s. c #E77C8B",
"d. c #EC6A95",
"f. c #E86398",
"g. c #F3649D",
"h. c #F56B99",
"j. c #E87699",
"k. c #D277AA",
"l. c #EE6DA3",
"z. c #E367A8",
"x. c #F767A3",
"c. c #F36BA5",
"v. c #E777A8",
"b. c #E37BAD",
"n. c #F473AC",
"m. c #F876AA",
"M. c #F06EB4",
"N. c #E578B3",
"B. c #F978B2",
"V. c #FB7CB4",
"C. c #D27ED7",
"Z. c #A68B94",
"A. c #AD8E98",
"S. c #BBA3AB",
"D. c #D6879D",
"F. c #E3958C",
"G. c #E78698",
"H. c #EDA59E",
"J. c #DB95B6",
"K. c #E585A8",
"L. c #E48EAC",
"P. c #F285AC",
"I. c #E893AB",
"U. c #E888B7",
"Y. c #FD83BC",
"T. c #F78ABB",
"R. c #EB9BB6",
"E. c #E796B8",
"W. c #ED9CBD",
"Q. c #F299BC",
"!. c #CDACB8",
"~. c #E5A7B6",
"^. c #EDA2BD",
"/. c #ECABBD",
"(. c #F3ABBD",
"). c #E9B8B8",
"_. c #D3C7BD",
"`. c #BA96FB",
"'. c #D787C5",
"]. c #DC93C6",
"[. c #CB8ED7",
"{. c #F988C1",
"}. c #FC8CC2",
"|. c #EC99C2",
" X c #F494C3",
".X c #FC93C5",
"XX c #F69BC6",
"oX c #FD96CA",
"OX c #FD9BCD",
"+X c #E795D1",
"@X c #FD9DD1",
"#X c #DBBAC8",
"$X c #CDA5DC",
"%X c #D6A6D8",
"&X c #ECA3C4",
"*X c #EDAEC3",
"=X c #E6A7C8",
"-X c #F2A4C3",
";X c #FBA3CE",
":X c #F5A8C9",
">X c #ECB2C4",
",X c #E4B4C8",
"<X c #ECB3CB",
"1X c #F2B4CD",
"2X c #F4B9CC",
"3X c #EDA3D4",
"4X c #FCA4D3",
"5X c #F5ABD3",
"6X c #FCAAD6",
"7X c #FCADD9",
"8X c #EDB3D2",
"9X c #ECBED5",
"0X c #F4B3D3",
"qX c #FAB3D5",
"wX c #F4BBD2",
"eX c #F8BCD7",
"rX c #FDB4DD",
"tX c #FCBADD",
"yX c #C898E6",
"uX c #C993EF",
"iX c #CBA8F8",
"pX c #FDB7E1",
"aX c #FCBBE1",
"sX c #DBC5CE",
"dX c #EFC4C7",
"fX c #EAC9D7",
"gX c #F5C5D8",
"hX c #FDC4DD",
"jX c #F5CCDB",
"kX c #ECD4DC",
"lX c #F4D3DE",
"zX c #FAD2DC",
"xX c #D6CDFD",
"cX c #FCC2E4",
"vX c #FACBE3",
"bX c #FCC8E8",
"nX c #EBD7E4",
"mX c #F7D4E4",
"MX c #F9D5E5",
"NX c #F5DBE5",
"BX c #F9D8E7",
"VX c #FAD7E8",
"CX c #F5DDEB",
"ZX c #FADBE9",
"AX c #E3D1F8",
"SX c #EAE7EC",
"DX c #FCE2ED",
"FX c #FAE6ED",
"GX c #FCE6F0",
"HX c #FEECF3",
"JX c #F7F0F7",
"KX c #FFF1F6",
"LX c #FFF4F9",
"PX c #FFFAFE",
/* pixels */
"mXMXMXvXMXMXMXvXmXMXVXMXMXMXmXmXMXmXmXMXMXvXMXMXMXMXMXMXMXMXMXMXMXMXMXvXMXMXMXMXMXMXMXMXMXNXMXVXZXZXMXMXMXMXMXMXMXMXMXMXMXmXMXMX",
"mXMXMXMXMXMXMXMXmXMXVXMXMXMXvXMXMXmXMXmXMXMXMXmXMXmXMXMXMXMXZXMXMXMXMXMXmXNXMXBXMXNXZXMXMXMXMXVXMXMXMXMXBXMXBXMXMXZXMXBXMXmXMXMX",
"MXMXzXMXMXMXMXMXMXMXMXZXVXVXMXMXvXMXMXMXMXMXBXZXMXMXmXMXMXVXZXVXMXMXmXmXMXMXBXZXZXZXBXBXZXZXMXMXMXBXZXZXZXZXVXZXZXZXZXMXVXVXVXMX",
"MXMXMXMXZXZXZXZXZXZXZXZXVXMXMXMXMXMXMXVXZXZXZXZXZXMXMXMXVXNXZXZXMXMXMXVXMXVXNXZXZXZXZXBXMXMXMXVXZXMXZXZXZXZXZXCXCXZXZXZXVXVXMXVX",
"MXMXZXDXHXHXHXHXGXHXHXHXFXMXMXMXMXMXMXZXGXHXHXGXZXZXZXZXDXHXGXZXBXBXMXVXMXZXZXHXHXHXHXZXBXVXVXVXMXZXGXHXHXHXHXKXHXHXHXHXHXZXBXMX",
"MXMXZXDXHXLXHXDXZXDXZXKXDXVXVXMXMXMXBXNXCXHXLXKXFXZXZXZXGXHXZXZXZXMXMXMXBXBXZXFXLXKXZXBXVXVXVXBXVXZXHXHXDXDXGXLXHXFXZXHXHXZXBXBX",
"MXMXMXZXHXLXHXDXZXZXZXHXFXVXVXMXMXMXMXZXBXDXKXLXHXDXZXZXHXGXZXZXMXMXMXMXVXZXZXDXLXHXZXZXVXBXVXBXBXZXHXGXCXGXGXLXHXDXZXFXHXZXBXVX",
"MXMXVXZXHXLXFXZXZXZXZXDXZXMXMXMXMXMXMXBXZXZXGXLXHXGXDXHXHXZXZXMXMXZXVXMXZXZXZXDXKXKXDXZXBXBXVXVXBXNXGXZXZXZXGXLXHXZXZXZXHXVXBXMX",
"MXMXZXZXHXLXHXZXZXZXZXZXVXMXMXZXVXMXMXVXZXZXDXHXLXHXGXHXDXZXZXMXZXMXZXMXVXZXZXDXLXKXDXZXMXVXVXVXBXBXZXZXZXDXFXLXHXZXZXZXZXVXZXMX",
"MXMXZXZXHXLXHXCXZXZXDXDXMXVXVXMXNXBXMXMXZXZXZXHXKXKXLXGXZXZXZXMXZXVXZXVXMXMXZXGXKXHXDXZXZXMXVXMXMXZXMXMXBXDXFXLXHXDXZXZXVXmXMXMX",
"mXMXVXCXHXLXHXGXGXFXHXDXZXMXMXMXMXMXMXMXMXZXZXDXHXLXHXFXCXZXZXMXMXZXMXBXVXZXZXDXLXLXCXZXMXZXNXMXVXZXNXBXBXZXGXLXHXDXZXZXMXVXMXmX",
"MXMXZXDXHXLXHXHXGXFXHXDXZXVXMXMXMXMXVXBXMXZXZXCXHXLXKXGXDXZXMXMXMXVXMXZXmXZXCXDXKXHXDXZXZXZXVXMXMXMXMXBXZXZXGXLXHXCXZXMXZXVXMXMX",
"MXMXZXZXHXLXGXDXNXZXDXDXZXVXMXMXMXMXMXMXMXVXZXZXHXKXLXHXDXCXZXBXVXMXMXMXMXCXZXDXLXHXDXZXZXMXMXMXMXMXZXNXBXZXGXLXHXZXZXMXMXMXMXMX",
"MXMXZXZXHXLXGXZXZXZXZXZXZXMXMXMXMXMXNXVXVXZXZXHXHXGXKXLXGXZXZXMXVXZXZXMXMXZXZXGXLXHXDXZXVXVXMXVXMXMXMXVXZXZXGXLXHXZXVXBXMXMXMXMX",
"MXVXZXZXHXLXGXZXZXZXZXDXDXMXBXMXMXMXMXZXZXZXGXHXDXDXHXLXKXDXZXBXMXNXVXMXMXMXZXDXLXHXDXZXZXMXmXMXVXMXVXVXZXZXGXLXHXCXZXMXZXVXmXmX",
"MXMXZXDXHXLXGXZXZXZXZXFXGXZXMXZXZXBXMXVXZXCXHXFXCXDXDXKXLXHXZXZXZXZXVXMXZXVXZXFXKXKXZXZXNXMXMXVXVXVXMXMXZXZXGXLXGXDXZXMXVXMXMXMX",
"MXVXVXZXHXLXGXDXZXZXDXHXFXBXZXMXMXMXVXBXZXHXHXZXZXZXZXGXLXLXDXBXZXBXVXMXMXMXZXFXLXHXZXZXZXMXMXMXMXZXMXZXZXZXHXLXHXZXZXMXMXMXMXMX",
"MXMXZXGXHXKXHXGXHXHXHXHXFXBXZXMXMXBXMXZXFXHXGXZXZXZXZXGXHXKXHXDXZXBXMXMXMXMXDXHXHXHXHXZXMXMXMXMXMXMXMXMXDXHXHXHXHXGXDXMXMXMXMXMX",
"MXMXZXZXZXZXCXZXZXVXZXVXZXZXMXVXMXZXMXMXVXVXZXZXVXMXBXZXZXZXZXMXZXNXMXMXBXBXBXBXZXZXBXMXMXMXMXMXmXVXVXZXVXZXZXVXNXVXMXMXMXMXMXmX",
"MXMXMXZXMXZXZXZXVXMXVXMXBXMXMXMXMXMXMXMXZXDXZXGXDXFXHXGXGXHXHXHXGXHXHXFXHXHXHXGXHXHXFXDXDXZXBXBXMXMXMXMXBXZXVXMXZXMXMXZXMXMXmXMX",
"mXMXMXMXZXMXVXMXMXMXMXmXMXMXMXBXDXDXHXHXKXKXHXHXGXKXHXKXHXKXHXHXGXHXFXFXFXFXHXHXHXHXHXHXHXLXHXHXGXDXZXMXMXMXMXMXMXMXMXMXMXMXMXMX",
"mXMXMXMXMXMXMXMXMXMXMXMXzXBXFXHXKXGXGXDXzXwXwXwXwX8X8X=X|.E.E.|.<X=X%X=X&X=X=X<X<X&X1X<X*XwXMXDXDXHXHXGXZXMXMXMXMXMXMXMXmXMXMXMX",
"mXmXMXMXMXMXMXMXmXMXmXMXDXHXHXZXjX<XL.K.a.a.).fXfXuXC.z.3.q.b.J.,XJ.].J.I.F.j.v.N.q.v.K.f.i.b.U.-XhXZXHXHXMXMXMXMXMXMXMXmXmXMXmX",
"MXMXMXMXMXMXMXMXMXmXmXZXHXFX1XI.a.6.4.6.6.j.).kXAXiXuX[.6.i.I.K.L.a.j.I.J.~.).).L.q.~.&Xz.q.v.Q.W.W.jXMXHXDXmXMXvXMXMXvXMXvXMXMX",
"MXMXMXMXMXMXMXMXmXMXMXGXHX0Xz.s.i.4.4.6.6.a.H.dXfXiX`.`.C.m.P.].'.'.'.yX$XiXxXxXxX+XAXAXN.z.N. X:X8XCXwXZXHXMXmXMXMXmXvXMXMXMXMX",
"MXMXMXMXVXMXMXvXMXMXMXHXDXU.z.i.a.5.4.4.4.u.).).).[.[.[.'.j.K.[.uXiXyXyX].$X$X$X%X3X3XXX{.T.T.].|.8XGX,XgXKXMXvXMXvXMXvXmXmXMXMX",
"MXMXMXMXMXVXVXMXVXMXMXHXmXb.z.a.F.s.6.i.i.b.).gXjX8X<X8X0X0X0XfXfXnXfX0XeXwXwX2X:XqXqX&XE.U.&XXX|.,XJX,X9XKXGXMXMXMXzXMXMXvXvXMX",
"MXvXMXMXMXMXVXMXMXMXZXKXvXb.M.G.F.G.J.nXhXhXhXhXhXhXhXhXhXhXhXMXSXSXCXcXhXhXcXhX.XW.0XhXtXeX#X X XfXGX,X=XZXHXFXMXMXvXmXMXvXzXmX",
"MXMXMXMXMXMXMXMXMXMXGXHX0XU.;XXXI.8XnXMXtXrXtXhXhXhXhXhXhXhXhXNXSXSXMXhXhXhXhX;XqXW.E.5X6XE.J.nX7XnXZX3X~.eXZXHXDXvXMXMXMXvXMXMX",
"MXVXMXMXVXMXMXMXMXDXHXbX|.|.qX4XeXSXjX1X:X-X-X>X>X>X*X*X*X*X/.>X,X>X*X/./././.R./.(./.R.E.R.*XdXfXCXvX=XJ.qXtXFXHXMXMXMXMXMXMXMX",
"MXMXMXMXMXMXMXMXZXHXZXqX X-X1X*X>X<X1X1X2X<X>X-X-XW.W.W.W.W.W.^.^.W.Q.^.W.^.&X^.|.W.Q.I.L.L.L.R.<X9X*XL.D.:XqXgXKXDXMXvXvXMXvXMX",
"MXMXMXMXMXMXVXDXLXGX}.Y.XX0XeXtXrXtXaXcXaXaXtXaXtXtXtXrXrXrXrXrXrXrXrX7XrX7X6XrXrXrX7X7XrX7XrX6XrXvXgXXXQ.-X;XQ.DXKXDXMXMXMXMXMX",
"MXMXZXMXMXDXHXLXvXV.M.{.@X7XrXpXrX7X5X6X6XrX6XqX5XhXhX7X7X6X6X6X4X6X6X6X7X7X7X7XrX6XrX4X;X4X4X4XhXHXbXrX;X;X:XXX&XzXKXHXNXMXMXmX",
"MXBXVXMXDXHXDX;XM.M.M. X@X@X6X6X@X@X6X6X6XrXrXpXpXaXaXaXaXaXpXrXrXrXrXrXpXpXtXrXrXtXtX7XrXrXtXrXcXGXcX6XOX5XrX;XOXQ.wXKXHXMXvXmX",
"ZXMXBXDXKXMXXX{.oXoXOX4XoX@X6XpXpXaXaXrXaXrX6XrXrXrXrX7XpXpXrXrXrXrXrXrX7XrX7X7X6X7XrX7X6X7X7XrXpXaXtXtXeXaXaXpXaXrXqX2XHXHXMXmX",
"MXMXDXKXDXqX7XrXaXeX5X@X5X7XrXaXpXpXrXrXpXpXrXrXrXpXaXaXpXrXrXtXrXrXrXaXrXrXrXrXrXrXaXrX4X6X4X4X4X5X6XrXpXrXaXaXrXrXpX5X2XKXDXmX",
"BXZXHXFX5X7XtX7X4X6X7X5X6X4XrXpXpXrXpXpXpXaXtXrXpXpXpXcXaXtXaXaXaXaXaXpXpXpXpXpXrXrXaXrXrXrXrX7X6X6X4X6XrXpXaXpX7X6X;X7X-XzXKXVX",
"MXDXKXtX4XtX6X6X4X4X7X6X4X@X6XpXpXaXrXaXpXtXaXaXaXaXaXaXaXaXaXpXaXaXpXaXpXpXpXrXpXaXrXrXrXrXrXrXrXrX7X7XaXaXaXpXpXrX4X4X5XwXHXDX",
"MXHXDX4XrXpXrXrX4XOX@X4X6X4X7XrXrXaXaXaXaXaXcXaXcXaXaXpXpXaXpXpXpXpXaXpXpXpXaXrXrXtXrXtXtXrXrXrXrXrXrXrXpXaXaXpXaXaXtX6X6X~.DXFX",
"VXKXvX6XaX0X5X5X4XOX@X4X7X4X4XrXaXaXaXcXcXaXaXaXpXaXpXpXpXrXpXtXpXpXpXrXpXpXtXrXrXaXrXrXrXrXrXrXrXrXrX7XaXcXaXbX~.p.@.p.:XT.zXHX",
"ZXKXhXqXD.@...u.E.@XOX@X7X6X6X6XrXrXpXpXpXtXpXpXrXrXrXrXrXtXrXrXrXpXpXpXrXrXrXtXrXrXrXrXrXrXrXrX7XpX7X7XpXbXbX~.Z D D A >.U.zXHX",
"ZXKXhXu.( -.{ ] t.E.oX@X6X6X4X6X7XqXrXpXrXrXrXrXrXrXrX7X7X7XrX<XsXeX4X7X7X6X7X6X7X7X6X6X7X7X7X7X7X7X7X@XpXbXcX[ H >.;.=.Z u.zXHX",
"DXKXdXJ -.<.<.-.[ K.}.7X6X@XOXOX@X;X4X4X4X4X4X4X4X4X4XOX4XOX4XsX_.W.oXOXOXOXOXOXOXOXOX;XOXOXOX4X4X4X@XoXpXbXrXA / ;.;.;.Z t.mXKX",
"DXHX).! -.<.<.1.[ a.B..X4X4X4X;XOXOXoXXXoXoXXXoXoXoX.XXX.XXX X|.L.T.XX.X.XT..X}.}.}.}.}.}.}.}.}.Y.}.{.{.6XbX7X) H ;.;.=.Z u.fXHX",
"DXHXdX| [ p.1.-. .6.r.q.tXKXDX7X4XOX@XoXOX@X@X@X@X@X4XOX.X.X.X}..X}.}.}..XoXOXOXOXOX;XOXoXoXOX.X}.Y.Y.V.}.pX7Xa.Z H H ) [ a./.KX",
"ZXKXzX^.-.] ,.,.t.+.3.3..X4XaX7X.Xb.k.u.t.-.t.{ { { ] [ ] ( ! ~ G ( ! G G ! ! ~ ( _ _ _ { { { @.y.P.B.n.B.4X7X}.5.( ) ' _ i.#XHX",
"VXKXzXtXT.y.5.5.O.Y I 9.{.{.b.) s t 9 , 1 : - : - - ; - ; > - > 1 - < - > < - 2 ; ; 4 - ; < - ; 4 l 5.l.c.}.;X.XY.O.k n M i.9XHX",
"VXKXzXeXqXh.P U O.Y +.c.Y.V.l 1 : : 9 1 8 t , j 5 w v 2 v x g Q s g ! 5 C ! 3 ~ y g ^ 2 z C 1 z s 1 B 6.f.B.}.T.T.*.m N D j.fXHX",
"ZXKXzXeXaX*.P T f.q.f.n.Y.i., t 9 y c 2 C V 3 ^ g x ^ 3 ' W g &.x v &.g ^ &.g &.b v &.1 ^ ^ 4 ' V i c o.w.c.B.Y.T.$.m h D y.fXKX",
"ZXLX/.Q.rXh.P L 5.2.2.9.V.y.1 V s C ! 0 ^ W 5 ` b C ^ g ' W v &.C v &.x ' | z &.C W  .e ^ ` e Q E 0 y K o.t.a.K.y.~ n B ) / #XKX",
"NXKX/.D.u.%.~ ~ ~ ! G C _ i.t c j j V y l l a W t 8 x 5 j j 3 g x 3 x 5 g x 2 g b Q r 4 4 i 1 q 9 : t F ' | | | ' ! W C [ ,.kXHX",
"VXHXDXW.j.%.@._ ~ _ ~ I O.B.l w w < t 8 3 2 b C , < 2 < 8 3 3 g 5 3 g < 3 g < w b ` 5 - 1 e : e 0 9 B O.o.I I _ F S B n G t.nXHX",
"MXFXHXtXOXV.q.3.+.+.+.3.w.V.y.l 1 q x 1 r j z v < , r < q g < z 5 > x < 2 z > r W ^ b = 9 x - c V B I +.f.n.h.l.q.O.K D 5./ sXHX",
"MXZXHX<X7XXXB.g.9.3.7.7.g.Y.}.l.~ v z 2 a i b C : : l 4 w l < b g 2 b 5 r v 2 g ^ ' e 1 j B V G o.3.5.3.q.c.n.n.l.f.+.3.@.7 sXHX",
"MXDXLXA.p.oXM.x.q.w.0.r.x.V.Y.Y.Y.x.w.5.@.] X.v j D _ o.p.{ ] ..@.X...o.o.o.o...#.' B I O.9.w.w.w.9.5.9.w.g.c.x.g.f.q.@.7 % nXKX",
"MXVXLXA.6 ] q.w.r.r.w.8.x.m.Y.V.B.B.B.m.B.m.d.v F Y r.x.|.N.n.m.x.v.R.m.g.g.x.h.d.' F O.9.w.w.w.9.9.7.7.Y U Y o.] K A * . 6 NXHX",
"VXZXJXS.# # 6 0 p 0 k L O.9.c.x.g.r.r.r.r.r.*.B N +.7.h.U.z.z.N.z.N.z.N.U.q.7.$.#.' L $.R 8.$.8.7.7.d.a.D.t.h = o + + @ + u FXHX",
"MXVXKXS.# * & @ @ X g /.GXCXzXqXQ.T.V.m.m.x.#.h L g.h.v.b.b.b.K.U.b.b.z.J.E.P.B.#.~ y.j.m.v.P.R./.jXKXHXPXzXh O @ @ # @ X f KXFX",
"MXVXPX#X& * $ $ $ O g gXKXHXHXLXPXLXHXFXFXFXzXJ.jXDXZXMXnXgXBXNXnXgXCXlXzXFXLXPXNXjXHXKXKXKXPXLXKXHXGXZXFXZXC O + @ @ # X Z.PXCX",
"mXmXJX#X& & $ $ $ O j jXHXMXMXBXZXZXDXDXFXFXHXLXKXFXGXLXHXKXHXKXHXKXHXKXKXHXFXNXHXKXGXZXDXDXZXDXZXVXMXzXZXKXQ X + + @ # o A.PXNX",
"mXMXHXnXu $ 6 * * O r DXHXMXMXmXMXMXMXMXmXMXBXBXMXMXMXMXZXVXZXMXVXVXVXMXMXMXMXmXMXMXvXMXMXvXMXMXMXmXMXvXZXPX:.X . . + + * sXHXmX",
"MXMXZXKX} o # O @ X E LXZXMXMXmXMXMXMXMXMXMXzXMXMXMXMXmXMXMXMXMXMXMXMXmXmXMXMXmXmXMXMXMXMXMXmXmXMXmXMXMXMXHXlX*         } JXDXmX",
"MXMXZXLXkX:.d d d } NXKXMXMXmXmXMXMXMXMXmXMXmXMXMXMXMXMXVXMXMXMXMXMXMXMXMXMXmXmXMXMXvXMXMXMXvXmXMXMXmXMXmXZXKXnXS.A.A.!.FXHXMXMX",
"MXVXVXZXHXPXPXPXPXPXHXVXMXMXmXmXzXMXzXMXMXMXMXMXMXzXmXMXMXMXzXzXMXMXMXMXMXMXMXMXMXmXMXMXMXMXmXmXvXMXMXMXmXMXDXLXPXPXLXLXHXZXMXMX"
};
