/* XPM */
static char *_1711733663[] = {
/* columns rows colors chars-per-pixel */
"64 64 239 2 ",
"   c #320F19",
".  c #32131D",
"X  c #351A22",
"o  c #391B25",
"O  c #4A1824",
"+  c #5B1627",
"@  c #44222B",
"#  c #512D38",
"$  c #772A2E",
"%  c #74384C",
"&  c #6B4751",
"*  c #8A371A",
"=  c #973917",
"-  c #901E2F",
";  c #842C36",
":  c #922E39",
">  c #933239",
",  c #9A353C",
"<  c #A3393E",
"1  c #944926",
"2  c #8A5139",
"3  c #A54C24",
"4  c #B25429",
"5  c #AF5930",
"6  c #B6663C",
"7  c #C56632",
"8  c #D16D3A",
"9  c #D4763C",
"0  c #9D3B43",
"q  c #95324D",
"w  c #983948",
"e  c #A5234B",
"r  c #A33E44",
"t  c #AA3D59",
"y  c #9C414B",
"u  c #874657",
"i  c #984755",
"p  c #98525D",
"a  c #A4444C",
"s  c #AB454B",
"d  c #A64756",
"f  c #AB4A53",
"g  c #B04D59",
"h  c #B35257",
"j  c #B5545B",
"k  c #9F635C",
"l  c #BB6C55",
"z  c #B37B50",
"x  c #935063",
"c  c #A85666",
"v  c #B65767",
"b  c #B35371",
"n  c #906874",
"m  c #A86775",
"M  c #B86777",
"N  c #A8717D",
"B  c #C97A49",
"V  c #D87A4A",
"C  c #C67C56",
"Z  c #E07F58",
"A  c #CA4D71",
"S  c #DA4B79",
"D  c #C95776",
"F  c #E9547A",
"G  c #C66A7F",
"H  c #E1666D",
"J  c #BE814C",
"K  c #BA9178",
"L  c #D08451",
"P  c #D78A58",
"I  c #D9955B",
"U  c #E4894C",
"Y  c #E48F56",
"T  c #C6926D",
"R  c #DB9A6A",
"E  c #CC8870",
"W  c #C49676",
"Q  c #DD9B71",
"!  c #E69667",
"~  c #E89678",
"^  c #E6A267",
"/  c #E2A374",
"(  c #E9A97B",
")  c #F1AF7E",
"_  c #E8B47A",
"`  c #B86C84",
"'  c #AC7584",
"]  c #BA7787",
"[  c #BE7C93",
"{  c #CC5D8B",
"}  c #DA5684",
"|  c #E65B89",
" . c #CC6889",
".. c #D76B89",
"X. c #C27687",
"o. c #C5748E",
"O. c #D16F90",
"+. c #D76A96",
"@. c #C77893",
"#. c #DB7499",
"$. c #E6688C",
"%. c #E0738A",
"&. c #E76898",
"*. c #F6679A",
"=. c #F56C9D",
"-. c #E37799",
";. c #DA77A1",
":. c #DF79B4",
">. c #EB6EA1",
",. c #F36DA1",
"<. c #ED74A5",
"1. c #E77AA7",
"2. c #F372A3",
"3. c #F678A9",
"4. c #F47AAB",
"5. c #F57DB0",
"6. c #9D828B",
"7. c #B4858B",
"8. c #B28B97",
"9. c #BB9BA6",
"0. c #CC9389",
"q. c #C58496",
"w. c #CB8697",
"e. c #DD929D",
"r. c #E5859B",
"t. c #E69897",
"y. c #D7A98A",
"u. c #DAAF92",
"i. c #E5AD82",
"p. c #EDAA86",
"a. c #F0AF8C",
"s. c #E4B48D",
"d. c #E9B788",
"f. c #E5BB94",
"g. c #DA89A4",
"h. c #C698A6",
"j. c #D99AAA",
"k. c #D694B7",
"l. c #E588A6",
"z. c #EC83AC",
"x. c #F485AD",
"c. c #E594AC",
"v. c #F09CA0",
"b. c #E689B2",
"n. c #F583B5",
"m. c #FB82B2",
"M. c #F58BB8",
"N. c #FB8CBD",
"B. c #E49AB5",
"V. c #E79AB6",
"C. c #EB9DBB",
"Z. c #F395BA",
"A. c #FC91BE",
"S. c #D0AFAA",
"D. c #C8A8B3",
"F. c #D7A4B5",
"G. c #CBB4BA",
"H. c #CBBDBF",
"J. c #EEAFB5",
"K. c #E8A6BA",
"L. c #EDC296",
"P. c #EFCA95",
"I. c #EECB9B",
"U. c #DBC3B4",
"Y. c #E8C6A6",
"T. c #F0C3AD",
"R. c #EED3A9",
"E. c #E5CAB4",
"W. c #EED8B8",
"Q. c #F0D8B9",
"!. c #CF90CE",
"~. c #F78EC1",
"^. c #E89CC1",
"/. c #F595C3",
"(. c #FB93C2",
"). c #F49DC4",
"_. c #FA9BC7",
"`. c #FB9CCA",
"'. c #DCA6C8",
"]. c #CEB9C3",
"[. c #D4BCC3",
"{. c #D6BDC6",
"}. c #D3A4D1",
"|. c #E8A8C4",
" X c #F2A3C5",
".X c #F3ADC6",
"XX c #F7A6CA",
"oX c #FAA3CE",
"OX c #F4ACCC",
"+X c #E8B5C7",
"@X c #F5B6CC",
"#X c #EAA7D6",
"$X c #FBA6D1",
"%X c #FBACD4",
"&X c #FCAED8",
"*X c #EABCD6",
"=X c #F5B3D3",
"-X c #F9B3D4",
";X c #F6BDD5",
":X c #FBB3DA",
">X c #F8BCD8",
",X c #FBBADD",
"<X c #F7BFE1",
"1X c #FDBDE1",
"2X c #D3C3C5",
"3X c #D6C2C8",
"4X c #D3C4C9",
"5X c #E7CAC9",
"6X c #F4CCCA",
"7X c #EADAC8",
"8X c #EAC6D5",
"9X c #F5C2D4",
"0X c #F7C7D5",
"qX c #F6C2DA",
"wX c #FAC3DA",
"eX c #F5CCDD",
"rX c #FBCADB",
"tX c #EAD3DA",
"yX c #F6D9DA",
"uX c #EEE2C4",
"iX c #F0E1C5",
"pX c #EDE3D8",
"aX c #F3E3D7",
"sX c #FCC3E3",
"dX c #F8CBE4",
"fX c #F7D3E3",
"gX c #F9D4E5",
"hX c #F4DBE5",
"jX c #F9D9E7",
"kX c #FAD6EA",
"lX c #F3D9E8",
"zX c #F7DBE9",
"xX c #FADAE9",
"cX c #EEE6E2",
"vX c #F9E1E4",
"bX c #F5E6E8",
"nX c #FCE3ED",
"mX c #FDE7F0",
"MX c #FDE8F1",
/* pixels */
"fXgXgXdXrXgXgXgXrXfXgXgXgXgXgXgXgXfXgXgXfXfXgXgXgXgXgXgXgXgXgXjXgXgXgXgXgXgXgXgXgXxXgXgXjXjXgXkXxXgXgXgXgXgXgXgXgXgXgXgXgXfXgXgX",
"gXgXgXgXdXgXgXgXgXfXgXgXgXgXdXgXgXgXrXgXgXgXgXgXgXfXfXgXgXgXgXgXgXgXdXgXgXgXgXgXgXgXgXgXgXgXgXkXgXgXgXxXgXgXgXfXgXgXgXgXgXfXgXgX",
"gXgXrXfXgXgXgXgXgXdXgXgXgXgXgXgXdXgXgXfXgXgXgXgXdXfXrXgXgXgXgXgXgXgXgXgXgXgXjXgXgXxXxXgXjXgXgXjXgXgXgXgXgXgXgXgXgXgXgXgXgXgXgXgX",
"gXgXgXdXdXgXgXgXgXgXgXgXgXgXgXgXgXgXfXgXgXgXgXdXdXfXfXgXfXgXgXgXfXfXgXgXgXgXgXjXgXgXgXgXgXgXgXgXgXgXgXgXgXgXgXgXgXgXgXgXgXgXgXkX",
"dXgXgXgXgXgXrXgXgXrXgXgXgXgXgXgXgXgXgXxXkXxXfXgXgXgXgXgXgXgXgXgXgXgXgXgXgXgXgXgXgXgXgXgXgXkXgXxXgXgXgXgXgXgXgXgXgXgXgXgXgXgXgXgX",
"gXgXgXrXfXrXgXgXgXgXgXdXdXgXgXgXgXgXdXrXfXgXgXgXgXgXrXgXgXgXgXgXgXgXgXgXgXgXgXgXkXgXgXgXgXgXgXgXgXgXgXgXgXgXgXgXgXgXgXgXgXgXgXgX",
"rXgXgXgXgXgXgXgXgXdXgXgXgXgXdXgXgXgXgXgXfXgXgXjXgXgXdXgXgXgXgXgXgXgXgXgXgXgXgXgXgXgXgXgXgXgXgXgXgXgXgXfXgXgXgXgXgXgXgXgXgXgXgXgX",
"gXgXfXdXdXgXgXgXgXgXgXgXgXgXgXrXdXgXgXgXgXgXgXgXgXgXgXgXgXgXgXgXgXgXgXxXgXgXxXgXgXgXgXgXgXgXgXgXgXgXgXfXgXgXgXgXgXgXgXgXgXgXgXgX",
"gXgXgXfXrXgXgXgXgXgXgXgXgXgXrXgXgXgXrXgXgXgXgXgXgXgXgXgXgXgXgXgXgXgXkXgXgXgXgXgXxXgXgXkXgXxXgXgXgXgXgXgXgXgXgXgXgXgXgXgXgXgXgXgX",
"gXdXgXfXgXdXgXgXgXgXgXgXdXgXgXgXgXgXgXgXgXgXgXgXgXgXgXgXfXgXgXgXxXgXgXgXfXgXgXgXgXgXgXgXgXgXgXgXgXgXgXgXgXgXgXgXgXgXgXgXgXgXgXkX",
"rXgXgXrXgXgXgXgXgXgXfXdXdXgXgXgXgXgXgXgXgXgXgXfXgXgXgXgXgXgXgXgXgXxXgXgXfXgXgXgXgXgXgXgXgXgXgXgXgXgXgXgXgXgXgXxXjXgXgXgXgXgXgXfX",
"gXgXgXgXgXgXgXgXrXgXgXgXgXgXgXgXgXgXdXgXgXgXgXfXdXgXgXgXgXgXgXgXgXgXgXgXfXgXgXgXgXgXgXgXgXgXgXgXgXgXgXgXgXgXdXgXgXgXgXgXgXgXgXgX",
"dXgXgXgXgXgXrXgXrXgXgXgXgXgXdXgXgXgXgXgXgXdXgXgXgXgXfXgXgXgXgXgXgXgXgXgXgXgXgXgXgXgXgXxXgXgXgXgXgXrXgXgXgXgXgXgXgXgXgXgXgXgXgXgX",
"rXgXgXfXdXgXgXgXgXgXgXgXgXgXgXgXgXgXfXgXgXgXgXgXgXgXgXgXgXgXgXgXgXgXgXgXgXgXgXgXgXgXgXgXgXgXgXgXgXgXgXgXkXgXgXgXgXgXgXgXgXgXgXgX",
"gXgXgXgXgXgXfXgXfXgXrXgXgXgXgXgXgXgXgXgXgXgXgXgXgXgXgXgXgXgXgXgXgXgXgXgXgXgXgXgXgXgXgXgXgXgXgXgXgXgXgXgXgXgXgXgXgXgXgXgXkXgXgXgX",
"gXgXgXdXdXgXgXgXgXgXgXgXgXgXgXgXxXgXgXgXgXgXgXgXgXgXgXgXgXgXgXgXgXxXxXgXgXgXgXgXgXgXgXgXgXgXgXgXgXkXgXgXgXgXgXkXgXgXgXgXgXgXgXgX",
"gXgXgXgXrXgXgXgXgXgXgXgXgXrXgXgXgXgXgXgXdXgXgXgXgXgXgXgXgXxXgXkXgXjXjXgXjXjXxXxXfXgXgXgXgXgXgXgXgXxXgXgXxXgXgXxXgXgXgXdXgXgXgXgX",
"gXgXgXgXgXgXgXgXgXdXgXgXgXgXgXgXgXjXgXgXgXgXgXgXgXgXgXgXgXgXgXgXxXxXbXnXnXbXbXMXjXgXgXgXgXgXgXgXgXgXgXgXgXgXgXgXgXgXfXgXgXgXgXgX",
"dXgXgXgXgXgXfXgXgXgXgXgXgXgXgXgXgXgXgXgXgXxXxXgXgXgXgXgXgXgXgXgXnXhXG.yXg.{ F.pXyXnXjXjXgXgXgXgXgXgXgXgXxXkXgXgXfXgXfXgXgXgXgXgX",
"gXgXgXgXgXgXgXgXgXgXgXdXgXgXxXgXgXgXgXfXgXgXgXgXgXgXxXgXgXgXgXnXtX8XJ.S.M @.2XW.E.pXmXjXgXgXgXgXgXgXxXgXgXgXgXgXfXgXgXgXgXgXgXgX",
"fXgXgXgXgXgXgXgXgXgXgXfXgXgXgXgXgXgXgXgXgXgXgXgXgXxXgXgXgXxXxXmX7XE.f.T W K 2 W uX7XpXbXjXgXgXgXgXgXgXgXgXgXgXgXgXgXgXgXgXgXgXgX",
"fXgXgXgXgXgXgXgXgXgXgXgXgXgXgXgXdXgXgXgXgXgXgXgXgXgXxXgXgXrXxXaXE.d._ s.T u.y.z U.Y.pXcXxXgXgXgXgXgXgXgXgXgXgXgXgXgXgXgXgXgXgXgX",
"gXdXgXxXgXgXgXgXgXgXgXgXgXgXgXgXrXgXgXgXgXdXgXgXgXgXgXfXfXgXnX6X( ( i.f.f.y.Y.f.T u.7XcXmXjXgXgXgXgXgXgXgXgXgXgXgXgXgXgXgXdXgXfX",
"gXgXgXgXgXgXgXgXfXgXfXgXgXgXgXgXfXgXgXgXxXgXgXgXgXgXgXgXgXgXvXY.^ d.L./ _ s.y.Y.Y.K L.aXbXgXgXgXgXgXxXgXgXgXgXgXgXgXrXgXgXgXgXgX",
"xXgXgXgXgXgXgXgXgXkXgXgXgXgXgXgXgXgXgXgXgXgXgXgXrXgXgXfXgXgXaXp.^ p.) / P / i.i.L.I.Y.W.pXbXgXgXgXgXgXgXgXgXgXgXgXgXgXgXgXgXgXgX",
"gXgXgXgXjXgXgXgXgXjXjXgXkXgXgXgXgXgXxXgXgXgXfXdXgXgXgXfXdXgXyXI P ) C l L B R / _ Y.Y.E.Q.nXjXgXxXgXgXgXgXgXrXgXgXgXrXgXgXfXgXgX",
"gXgXxXgXkXgXjXjXjXfXjXfXgXgXkXgXgXgXgXgXgXgXgXgXgXgXgXgXgXgXxXu.2 E P k 2 / U 8 4 R R.R.R.pXnXgXgXgXgXgXfXgXgXgXgXgXgXgXgXrXfXgX",
"gXgXgXgXgXjXjXgXkXkXjXjXgXgXgXkXgXgXgXgXgXgXgXgXgXgXgXgXgXgXkXyXE Q ( ~ a.( U 8 7 P L.R.Q.7XbXgXgXgXgXgXgXgXgXgXgXgXgXdXgXgXdXfX",
"gXxXgXgXgXgXgXgXgXgXgXgXkXgXgXjXgXgXgXgXgXgXgXgXgXgXgXgXgXgXgXvXa.a.) p.p.! U 9 6 B L.I.Q.uXcXxXgXgXdXgXgXgXxXgXgXgXgXgXgXgXgXgX",
"gXgXgXgXxXgXgXgXdXgXgXkXjXgXfXgXgXgXgXgXkXgXgXgXgXgXgXgXgXkXgXnX~ Z V v.! Z U 9 5 K s.L.I.iXcXxXgXgXgXgXgXgXgXgXgXgXgXgXgXgXgXgX",
"gXxXgXgXgXgXgXgXgXgXjXjXjXjXgXgXgXgXgXgXgXgXgXgXgXgXgXgXgXkXgXxXjX~ t.E B ! U 8 6 U.s.d.I.Q.aXxXgXgXgXgXgXgXgXgXgXdXgXrXgXdXgXgX",
"gXgXgXxXgXjXjXgXgXxXjXjXjXjXkXfXgXxXxXgXgXgXgXgXgXgXgXgXgXgXgXxXxX6XH H ~ ^ 9 4 * 1 R L.P.R.iXnXgXgXgXgXgXdXgXgXgXgXgXgXgXgXgXgX",
"kXfXjXjXjXkXjXjXgXjXfXkXkXjXgXfXjXgXgXgXgXgXgXgXgXxXgXgXgXgXxXxXxXnXp.a.p.9 3 = 4 3 L P.d.I.Q.bXjXgXgXgXdXgXgXgXdXrXgXgXgXgXgXgX",
"gXjXkXjXjXkXjXfXgXkXgXjXjXjXjXfXgXjXgXxXgXgXgXgXgXgXgXgXgXgXgXgXgXxXT.P 4 = = 7 U 7 6 / P.I.R.iXxXjXgXgXgXgXgXgXgXgXgXfXfXdXfXfX",
"jXjXjXkXjXkXfXkXgXjXjXfXfXkXgXjXgXjXgXgXxXgXgXgXgXgXgXgXgXgXgXgXgXxXaXV 3 = 5 Y Y 9 4 P d.P.R.W.bXjXgXgXgXgXgXgXgXgXgXfXgXdXgXfX",
"jXkXxXxXjXgXfXgXjXjXjXjXkXjXkXjXgXkXxXgXgXxXkXgXgXgXxXxXxXxXxXkXxXxXnXf.B 6 P ^ i./ U.T R _ P.R.vXjXgXgXgXgXgXgXgXgXgXrXfXgXgXgX",
"gXkXzXjXfXjXkXjXkXjXzXgXjXfXkXxXgXjXkXgXxXjXkXxXnXmXnXzXeXeXeXtXeXyXjXvXgXhXyXyX@XJ.R 1 J _ _ I.yXhXgXgXgXgXgXgXgXgXdXfXgXgXgXgX",
"gXfXjXgXjXjXjXjXgXkXxXxXjXkXzXgXjXjXjXjXgXxXxXfXc.;.;.+X'.b.}.'.'.'.!.b.z.C.@XeXlXmX5XE 2 / R _ W.xXxXgXfXfXgXgXgXgXgXgXgXgXgXgX",
"kXkXgXjXkXxXjXjXjXkXxXkXjXgXzXkXjXjXkXjXkXxXnXb.;.{ O.+X'.^.}.K.c.V.!.:.-.r.C..X^.+XbX5XT L I ^ Y.xXgXkXgXgXgXgXgXdXgXgXgXgXgXgX",
"gXjXjXjXjXjXkXkXjXjXjXjXjXjXjXjXjXjXfXjXkXkXdX1.+.{  .+XB.#.t.k.e.j.!.b.n.V. X XV.^.8XcX/ 3 L I E.mXnXxXgXgXgXfXgXgXgXgXgXgXgXrX",
"jXfXjXjXjXkXxXzXzXjXjXkXjXkXkXjXjXkXfXkXgXnXOX1.;.+.+.+XF.r.j.|.K.C.OX X).9XqX;X;X>XeXxXS.* 6 J 6XfXfXhXnXMXnXnXnXxXxXgXgXgXgXrX",
"jXjXkXjXfXfXjXjXjXjXjXjXjXjXjXzXxXmXmXmXmXxXC.V.|.XX^.+XK.V.+X0X;X;X;X-XXX=X'.K.OX>X;XjXy.* 2 J nX>XwXlX8X@X9X-XwXrXnXnXxXgXgXgX",
"kXjXfXkXxXxXjXjXxXxXzXnXnXmXxXjX9X@X|.V.b.~.-X-X=X=X=X=X;X-X|..XOXJ..XK.K.K.K.@X X.X-XrXS.7.0.S.jX9X X X%X$X`./././. XdXnXxXgXgX",
"zXkXxXjXxXxXxXxXnXxXxXdX>X=XXXXX`.)./.`.`.`.`.oX$X$X%X&X-X%X,X:X:X,X:X:X:X-XOX XC.K.V.V.wXwXcXtX;XXXoX%XoX).M.n.4.z.x.c.yXxXgXgX",
"xXxXxXxXmXnXgXwX1X&X&X&X&X&X&X:X&X&X$X&X&X&X&X&X&X&X&X&X&X&X&X&X&X:X&X:X&X&X&X&X-X>X%X`.>XqXrX;XXX). X).).Z.A.Z.#.l.Z.x.K.nXnXgX",
"jXnXMXvXwX,X:X:X&X&X&X:X&X:X:X&X<X&X1X&X:X:X:X:X&X&X1X1X1X:X&X:X&X&X&X%X$X$X$X$X$X`.`.`.XX%X%X&X%X&X%X%X%X%X%X%X%X%XXX$X$X%XgXxX",
"xXnX+X=X&X&XsXlX<X&X:X&X1X1X:X1X1X1X1X1X1X1X1X1X1X1X<X1X:X:X:X:X&X-X$X$XoX_.(.(.N.N.N.5.,.(.N.(.A.N.N.A.N.(.(.(.(.(.A._.Z.A.XXnX",
"nXK.'.C.oX$X<X1X<X:X<X1X1X<X<X<X:X1X1X1X1X1X1X1X1X1X1X:X,X:X:X:X,X$X(.N.N.m.n.n.z.1.#.} S 5.m.m.m.5.m.m.5.5.5.5.3.3.4.&.D =.3.vX",
"nXF.*Xc.M.`.&X1XsXsX1X1X1X1XsX<X1X1X1X1XsX1XsX1X1X=X=X-X:XdXkX<X~.5.~.n.;.+.@.[ 8.h.D...$.q.7.o.O...-.<.3.3.3.3.2.2.2.=.2.-.2.nX",
"nX6XB.-.x._.,XsXdXkXkXkXdXdXtXsXsXsXsX1X1X1X1X1XOXV.V.+X=XoXM.5.5.4.;.& + q D.].].].F.+.$.+X3X3X].G.h.h.@.o.O.&.3.2.2.2.2.=.4.nX",
"jXnXJ.x._.%X|.g.h.k.F.+X*X8XeXlXkXnXkXkXdXsXsXsXj.K.'.k.1.5.<.<.<.+.& & 8.% x }.].{.F.H #.3X2XU.[.[.[.[.{.H.G.h.[  .+.=.2.<.z.nX",
"gXbXv.x.%X>Xd > : : , , r a d c M w.j.J.>XsXsXsX|.|.+Xg.+.>.>.>.:.u ' ] ` 9.$ D.{.{.F.G r.3X3X4X2XU.3X3X2X[.H.H.].G.9.{ 2.=.M.nX",
"gXvXr.%.r.c.f f a a s f f h s , s s < < f v B.>X,XV.l.%.=.&.&.<.{ # ' c d X.x ` 4X].D. .%.3X3X4X3X4X4X4X2X2XH.G.D.9.] ..2.=.Z.bX",
"gXnXyXc.r.-.v a y > y a f j j f j j h s r h d ).,X:X%.x.4.=.<.<.x % c b c b ' t {.].8.t A w.w.w.q.q.@.@.o.X.O.+.+.-.2.2.2.<.9XjX",
"gXxXnXwX_._.C.v h ; : , , < < < r w 0 r 0 g r z. XXXF x.2.&.+.&.# u w x i w ' e  .+.&.} F *.=.3.M.XX@X@X@XOXV.K.wXrXrXrXrXxXnXgX",
"gXjXxXnXrXl.l.C.g., q d f j f s h > : : , f t z.r.O.D D v o.` b o x i d w ; [ e | 4.| S F 2.@XjXbXnXxXxXjXxXnXnXxXxXxXxXxXgXgXfX",
"gXgXgXjXxXG.O & l.f e 2.|.^.V.g.O.r q a g v -._.`._.n.-.} S | b X i w w w ; 7.e S | | c.rXmXxXxXxXgXgXgXgXgXgXgXgXgXgXgXdXgXgXgX",
"gXgXjXjXxXmX& O O w - t ^.#X#X#X).d e <.N._.(.~.N.oX`.(.,.*.&.% X p w ' i u 7.g.c.9XnXnXxXxXxXgXgXkXgXgXgXgXgXgXfXgXgXgXgXgXgXrX",
"zXgXjXgXgXxXtXn # O $ ; 9.dXdX*XOXD : A m.m.m.3.=.=.2.2.*.} q . o k i x i ' 9.mXnXxXgXgXgXgXgXxXgXgXgXgXgXgXgXgXfXgXgXgXgXgXgXgX",
"gXfXgXgXjXgXxXbXtXD.8.G.mXnXmXmXnXxXtXyXxXgXyXrXwX@X9X8XeXN   . X N w m N 9.].lXgXgXgXgXgXgXgXgXgXgXgXgXgXgXgXgXgXgXdXfXgXgXgXgX",
"gXgXjXgXgXjXgXgXjXxXxXxXfXfXfXjXgXxXgXxXgXxXxXgXxXxXxXxXxX8X@ . . n M x D.6.bXlXgXgXgXgXgXgXgXgXgXgXgXgXfXgXgXgXxXgXgXgXgXgXgXgX",
"gXgXgXgXgXgXjXjXjXgXgXgXfXkXkXfXgXgXgXgXgXgXgXyXgXgXgXgXjXnX6.  . # 9.[.6.G.zXfXgXgXgXgXgXgXgXgXgXgXgXgXgXgXgXgXgXgXgXkXgXgXgXgX",
"gXjXjXgXgXjXyXgXyXgXgXgXgXgXdXgXgXgXgXjXgXgXgXjXgXgXgXgXgXjXbX8.# @ @ & 9.mXfXzXgXgXgXgXgXgXgXfXgXgXgXgXgXgXdXfXgXgXgXgXgXyXgXgX",
"gXgXgXjXjXgXgXgXgXgXfXgXgXgXfXjXgXgXyXgXgXgXgXgXgXgXgXyXfXjXhXmXcXtX4XlXnXjXkXfXgXdXgXgXgXgXfXfXgXgXgXgXgXgXgXgXgXgXgXgXgXgXfXgX"
};
