/* XPM */
static char *_1711733663[] = {
/* columns rows colors chars-per-pixel */
"64 64 248 2 ",
"   c #180106",
".  c #26040B",
"X  c #3C040B",
"o  c #280711",
"O  c #2D0B14",
"+  c #320E18",
"@  c #3A0D1B",
"#  c #3A111E",
"$  c #3D1321",
"%  c #41040C",
"&  c #56020C",
"*  c #4A0814",
"=  c #5C0515",
"-  c #640514",
";  c #690516",
":  c #6C0A16",
">  c #6D061A",
",  c #660918",
"<  c #6C0B1B",
"1  c #71071A",
"2  c #730C1D",
"3  c #6B111D",
"4  c #421926",
"5  c #4F1629",
"6  c #6C0D20",
"7  c #750F21",
"8  c #6B1525",
"9  c #741424",
"0  c #761828",
"q  c #7C1C2A",
"w  c #4F333B",
"e  c #7E212F",
"r  c #7E2433",
"t  c #76293B",
"y  c #6A3948",
"u  c #6B4C56",
"i  c #7D5565",
"p  c #831B28",
"a  c #821C2B",
"s  c #931330",
"d  c #B2193A",
"f  c #85212E",
"g  c #852533",
"h  c #8A2935",
"j  c #852838",
"k  c #8D2C3A",
"l  c #95293B",
"z  c #8B313E",
"x  c #96323D",
"c  c #D31E31",
"v  c #B21F45",
"b  c #8F2F44",
"n  c #992A46",
"m  c #8A3646",
"M  c #9C3B46",
"N  c #983649",
"B  c #8C3556",
"V  c #9B3958",
"C  c #A52847",
"Z  c #A3324E",
"A  c #A93F4C",
"S  c #AA2954",
"D  c #B72B52",
"F  c #A63754",
"G  c #B43B5A",
"H  c #963B68",
"J  c #A93D66",
"K  c #BB3864",
"L  c #C2305D",
"P  c #E32A47",
"I  c #CA3868",
"U  c #D23D6E",
"Y  c #DD3F74",
"T  c #E33660",
"R  c #9D414E",
"E  c #9B4457",
"W  c #A3424D",
"Q  c #A94858",
"!  c #B3475C",
"~  c #AB525B",
"^  c #9D4970",
"/  c #A44968",
"(  c #BB4568",
")  c #A85968",
"_  c #B75865",
"`  c #B94C73",
"'  c #AB5675",
"]  c #B8587A",
"[  c #8B6572",
"{  c #B4616F",
"}  c #BA6677",
"|  c #E74A5E",
" . c #CB4874",
".. c #D34376",
"X. c #DA457A",
"o. c #D54B7E",
"O. c #CB5571",
"+. c #D3557B",
"@. c #F04E70",
"#. c #C46777",
"$. c #C46F78",
"%. c #E7637C",
"&. c #995E84",
"*. c #AD5686",
"=. c #98698B",
"-. c #BE6785",
";. c #B6788B",
":. c #AA6E94",
">. c #B76C96",
",. c #B9769B",
"<. c #B57CA1",
"1. c #D74D84",
"2. c #DD4B82",
"3. c #CC5787",
"4. c #D95688",
"5. c #D45C91",
"6. c #DC5B93",
"7. c #E44D85",
"8. c #E4548B",
"9. c #EB538C",
"0. c #E3588C",
"q. c #E04E9D",
"w. c #E65C95",
"e. c #EB5B93",
"r. c #F45B96",
"t. c #CA6485",
"y. c #C86887",
"u. c #DB688C",
"i. c #CB7687",
"p. c #CD768F",
"a. c #D76994",
"s. c #D87698",
"d. c #E3718E",
"f. c #ED639A",
"g. c #E86598",
"h. c #F3659D",
"j. c #E37A99",
"k. c #E459A6",
"l. c #DE7BA5",
"z. c #D970B4",
"x. c #E568A5",
"c. c #F26BA4",
"v. c #F96AA5",
"b. c #E778A8",
"n. c #F372AB",
"m. c #FB73AB",
"M. c #F57BAF",
"N. c #E47EB4",
"B. c #E87AB6",
"V. c #F779B2",
"C. c #FB7DB5",
"Z. c #D37BD3",
"A. c #E079C1",
"S. c #A98B95",
"D. c #DB8C9D",
"F. c #E7868D",
"G. c #E98D92",
"H. c #DC8EAC",
"J. c #DA96A8",
"K. c #DA89B7",
"L. c #DB98B2",
"P. c #E686AB",
"I. c #E594AA",
"U. c #E583B5",
"Y. c #E989B6",
"T. c #ED8DBA",
"R. c #F685BA",
"E. c #FD83BB",
"W. c #FB8BBD",
"Q. c #E995B6",
"!. c #EB9CBC",
"~. c #F498BD",
"^. c #CFADB8",
"/. c #DDA9BC",
"(. c #ECAEAC",
"). c #EEA3BE",
"_. c #E8A9BE",
"`. c #E6C0BF",
"'. c #BC98FC",
"]. c #CF96D9",
"[. c #FD8CC3",
"{. c #F98DC8",
"}. c #E49BC3",
"|. c #EC98C5",
" X c #F697C5",
".X c #FC92C5",
"XX c #FD96C9",
"oX c #FD9BCC",
"OX c #F49DD4",
"+X c #D8B7C2",
"@X c #D4A0D5",
"#X c #EDA5C1",
"$X c #E9A5C7",
"%X c #EDACC2",
"&X c #ECACCA",
"*X c #F2A3C2",
"=X c #F5A7C8",
"-X c #FBA3CD",
";X c #F2ACCC",
":X c #EEB2C5",
">X c #ECB4CA",
",X c #E7B8C9",
"<X c #F1B3CB",
"1X c #F4B7C8",
"2X c #EBABD1",
"3X c #FDA4D3",
"4X c #F7A9D5",
"5X c #FCABD6",
"6X c #FDADD9",
"7X c #EAB3D1",
"8X c #F4B4D3",
"9X c #FAB2D6",
"0X c #F6B8D7",
"qX c #FDB4DC",
"wX c #FCBADD",
"eX c #CA9BE2",
"rX c #C78EF0",
"tX c #C296F7",
"yX c #D2B0EC",
"uX c #E7B8E5",
"iX c #FEB7E0",
"pX c #FDBBE1",
"aX c #DDC8CD",
"sX c #E8C5CB",
"dX c #E9C6D7",
"fX c #F6C4D6",
"gX c #FDC4DD",
"hX c #F4CADC",
"jX c #FACDDE",
"kX c #F3D0D5",
"lX c #F9D2DB",
"zX c #D8C6F4",
"xX c #E3CCE6",
"cX c #FCC2E3",
"vX c #FAC9E4",
"bX c #EDD7E2",
"nX c #F7D3E4",
"mX c #F9D4E5",
"MX c #F6D9E5",
"NX c #FAD9E6",
"BX c #FBDCEA",
"VX c #E3D8F7",
"CX c #EBE5EC",
"ZX c #FBE7EF",
"AX c #FCE4EE",
"SX c #FDE7F0",
"DX c #FBE9F2",
"FX c #FAEEF7",
/* pixels */
"nXmXmXvXjXvXmXjXnXmXmXmXmXmXmXmXnXvXmXmXnXnXmXmXmXmXmXmXmXmXmXmXmXmXvXmXmXNXmXmXmXmXBXmXmXmXmXmXBXmXmXmXmXmXmXnXBXnXmXmXmXnXnXmX",
"mXmXmXnXmXmXmXmXmXnXmXmXmXmXvXmXnXnXmXmXmXmXmXnXnXmXnXmXmXmXNXmXmXmXmXmXmXmXmXNXmXmXmXmXmXmXmXBXmXmXmXBXmXmXmXnXmXmXmXmXmXnXmXmX",
"mXmXvXlXmXmXmXmXmXjXmXmXmXmXmXmXmXmXvXnXmXmXmXmXmXjXnXnXmXmXmXmXmXmXnXmXmXmXmXmXmXBXmXBXBXmXmXmXmXmXmXmXmXmXmXmXmXmXmXmXmXmXmXmX",
"mXmXnXmXvXmXmXmXmXmXmXmXmXmXmXmXmXmXmXmXmXmXmXvXmXnXnXvXnXmXmXmXmXmXmXmXmXmXmXMXmXmXmXmXmXmXmXmXmXmXmXmXmXmXmXmXmXmXmXmXmXmXmXBX",
"vXmXmXmXvXnXmXmXmXmXvXmXmXvXmXmXmXmXmXmXBXmXmXvXmXmXmXmXmXmXnXmXmXmXmXmXmXmXmXNXmXmXmXmXmXBXmXmXmXmXmXmXmXmXmXmXmXmXmXmXmXmXmXmX",
"mXmXmXlXjXmXmXmXmXmXmXjXmXmXmXmXnXmXvXmXmXBXmXmXmXvXjXmXmXmXmXmXmXmXmXmXmXmXmXmXmXmXmXmXmXmXmXmXmXBXmXmXmXmXmXmXmXmXmXmXmXmXmXmX",
"mXmXnXmXmXlXmXmXjXmXmXmXmXmXmXmXnXnXnXmXmXmXmXNXmXmXmXmXmXmXmXmXmXmXmXmXNXmXmXmXBXmXmXmXmXmXmXmXmXmXmXmXmXmXmXmXmXmXmXmXmXmXmXmX",
"mXjXmXvXmXvXmXmXmXmXmXmXmXmXmXvXnXmXnXmXmXmXmXmXmXmXmXmXmXmXmXmXmXmXNXmXNXmXBXmXmXmXmXmXmXmXmXmXmXmXvXmXmXmXmXmXmXmXmXmXmXmXmXmX",
"nXmXmXnXnXjXmXmXvXmXmXmXmXnXmXmXmXmXmXmXmXmXmXmXmXmXmXmXmXmXmXmXmXmXmXmXmXmXmXmXmXmXmXBXmXmXmXmXmXmXmXmXmXmXmXmXmXmXmXmXmXmXmXmX",
"mXvXmXnXmXmXmXmXmXmXmXmXvXmXmXmXmXmXnXmXmXmXmXmXmXmXmXmXmXmXmXmXBXmXmXmXnXmXmXmXmXNXmXmXmXmXBXmXmXmXnXmXmXmXmXmXmXmXmXmXmXmXmXBX",
"jXmXmXlXmXmXmXmXmXmXmXnXmXjXmXmXmXvXmXmXnXmXmXnXmXmXmXmXmXmXmXmXmXmXmXmXmXmXmXmXmXmXmXmXmXBXmXmXmXmXmXmXmXmXmXBXBXmXmXmXmXmXmXmX",
"vXmXmXmXvXmXmXmXnXmXjXmXmXmXvXmXmXmXmXmXmXmXmXnXmXmXmXmXmXmXmXmXmXmXmXBXmXmXmXmXmXmXmXmXmXmXmXmXmXmXmXmXmXmXmXmXmXmXmXmXmXmXmXmX",
"jXmXnXmXvXmXjXmXlXmXmXjXmXmXmXmXmXmXmXmXnXnXmXvXmXmXvXmXmXmXmXmXmXmXmXmXmXmXmXmXmXmXmXmXmXmXmXmXmXnXmXmXmXmXmXvXmXmXmXmXmXmXmXmX",
"mXmXmXmXmXmXmXmXmXmXmXvXmXmXmXmXmXmXmXmXnXnXnXnXmXmXmXmXmXmXmXmXmXmXmXmXmXmXmXmXmXmXmXBXmXmXmXmXmXmXmXmXmXmXmXmXmXmXvXmXmXmXmXmX",
"mXmXmXjXmXmXnXnXmXmXmXmXmXmXmXmXNXmXmXmXmXmXBXmXmXBXmXmXmXmXmXmXmXmXBXmXmXmXmXmXmXmXmXmXmXmXmXmXmXmXmXmXmXmXmXmXBXmXmXmXBXmXmXmX",
"mXmXmXmXvXmXmXmXmXmXmXmXmXmXmXmXmXNXmXmXmXmXmXmXmXmXmXmXmXmXmXBXBXmXmXmXmXmXmXmXmXmXmXmXmXmXmXmXmXBXmXmXmXmXmXBXmXmXmXmXmXmXmXmX",
"vXmXmXmXmXmXvXmXmXnXmXmXmXmXmXmXmXmXmXmXmXmXmXmXmXmXmXmXmXmXmXmXBXmXmXmXvXmXNXNXnXmXmXmXmXmXmXmXmXmXmXmXmXmXmXBXnXmXmXmXmXmXmXmX",
"mXmXmXmXmXmXmXmXmXmXmXmXmXmXmXmXmXNXmXmXmXmXmXNXNXnXmXmXmXmXmXmXmXmXNXmXmXmXNXNXmXmXmXmXmXmXmXnXmXmXmXmXmXmXmXmXmXnXnXnXmXmXmXmX",
"mXmXmXmXmXmXmXlXmXmXmXmXmXnXmXmXmXNXmXmXmXmXmXNXmXmXmXNXmXmXmXmXmXmXmXmXNXNXNXmXNXmXmXmXmXmXmXnXmXmXmXBXmXBXmXmXnXvXnXmXmXmXvXmX",
"mXmXmXmXmXmXNXmXmXmXvXnXmXmXmXmXmXmXvXmXmXNXmXmXNXMXmXmXmXmXmXmXnXBXmXmXmXNXmXmXmXmXmXNXNXmXmXmXmXmXmXmXmXmXBXmXmXmXmXBXmXmXmXmX",
"nXmXmXnXmXmXNXmXmXnXmXnXnXmXmXmXmXmXmXmXmXmXmXmXmXMXmXmXmXmXmXnXmXmXmXmXmXmXmXmXmXnXnXmXmXmXmXmXmXmXNXmXmXmXmXmXmXmXmXmXmXmXmXmX",
"nXmXmXmXmXmXmXNXmXmXmXnXvXmXmXmXvXmXmXBXBXBXBXAXAXZXDXSXSXSXSXSXDXSXSXSXAXZXZXZXSXSXBXBXBXBXBXBXBXmXmXmXmXmXmXmXmXmXmXmXnXmXmXmX",
"mXnXmXNXmXmXmXmXmXmXmXmXmXmXNXNXBXZXBXNXNXlXgXjX0X7X#X|.T.T.}.$X8X7X}.}.|.}.!.}.}.}.;X8XfXjXmXAXDXBXmXmXmXmXmXmXmXmXmXmXnXnXmXmX",
"NXvXmXmXmXmXmXmXmXmXmXNXNXBXSXBXjX<XQ.P.s.I._.kXdXrXZ.z.2.w.l.}.$XK.eXL.I.D.P.b.N.x.U.Q.x.g.P.~.4XvXSXBXmXmXmXmXmXmXnXnXmXmXmXmX",
"NXmXmXmXmXmXmXmXmXmXBXnXBXBX;XI.s.5.3.6.u.H.,XkXdXtXtXZ.2.b.P.H.L.s.l.H.I./.`.(.P.e.!.!.x.6.b.T.!.!.hXBXBXmXmXmXmXmXnXvXmXmXmXmX",
"NXmXmXmXmXmXnXmXmXBXnXmXAX|.g.F.6.3.3.5.5.j.(.sXxX'.tXtXA.M.N.Y.z.K.K.eX@XyXzXzXzXB.VXuXz.g.T.|.=X8XZX8XZXnXnXmXnXmXnXmXmXmXmXmX",
"mXmXBXmXmXBXmXnXnXBXMXBXnXU.x.d.6.5.5.5.6.l._.(.,XrX].].A.F.U.eXtXyXeXeX@XyXyXyXyX|.uX-X XR.T.T.|.7XZX+XmXBXmXmXnXmXvXnXmXmXmXmX",
"mXmXmXmXmXmXBXBXmXmXmXAX0XB.x.G.G.u.5.5.a.I.`.kXdX2X2X2X=X;X8XdXxXbXxX0X8X8X&X_.;X-X|.|.Y.N.T. X|.2XFX7XfXBXmXmXmXmXNXmXmXvXnXnX",
"mXBXmXmXmXmXmXmXmXmXmXSX2XN.b.F.F.F.Y.dX0XgXgXgXgXgXgXgXgXgXgXMXCXCXmXgXgXgXgX9XXX8XgXgXgXgXdX X$XdXFX&X$XZXBXmXmXmXmXmXmXvXmXmX",
"mXmXmXmXBXmXmXmXmXmXmXSX|.|.-X!.Q.7XbXnXwX0XgXjXgXgXgXgXgXgXgXCXCXCXnXjXgXgXgX-X0XI.P.;X;XK.H.xX4XnXBX>X/.0XAXNXvXmXmXmXmXmXmXmX",
"mXmXmXmXmXBXBXmXmXmXDXqX|.2X5X3XhXCXhXqX8X=X=X1X<X<X:X<X1X:X>X,X,X,X1X).%X:X:X).).:X).).*X*X>XbXfXZXvX$XL.8XwXAXmXmXmXmXmXmXmXjX",
"mXBXmXmXmXmXmXmXmXAXvXiXT.8X<X<X,X>X%X%X).)._.).).%X).).#X*X*X#X).%X).*X).).).).~.).).Q.Q.I.I.I._.dX_.L.J.=X9XjXBXmXmXmXmXmXmXmX",
"mXBXBXmXNXNXBXmXBXAX{.XX).0X0XwXiX0XwXiXwXwXpXpXwXqX0XqXqXqXqXqXqXqXqX9XqX6XqX9XqXqX9X9X6X9X9X6X9XcX0X=X~.*X-X*XZXmXmXnXnXnXmXnX",
"mXmXBXmXNXNXBXZXvXB.V.{.oXqXqXiXqX6XqX6XqXqX5X9XqXcXcX6X6X6X4X5X5X5X5X6X5X5X5X5X6X6X6X3X-X3X5X6XgXDXcX9X-X-X=X*X=XBXAXjXmXmXmXnX",
"BXmXmXBXNXBXZX Xn.n.V.{.3X3X6X4X4X3X4X5X5XiXqXwXwXgXpXpXiXiXqXqXqXqXqXiXwXqXiXiXiXpXiXqXqXqXqXqXcXFXwXqXoX=X4X4X-X~.lXAXmXmXvXnX",
"BXmXBXmXAXnX.X[.{.{.oX3XXX3X6XqXqXiXwXpXiXqX6XiXiXqXiXqXpXpXqXqXqX6XqX6X6XqX6XqX6XqXqX6X6X6XqXqXpXcXwXgXwXgXpXiXwX9X9XjXAXmXmXmX",
"mXMXBXBXmXqX4X9XiX6X3X3X3X6XiXpXiXiXiXqXpXwXqXqXiXiXpXiXpXwXwXiXiXiXwXiXqXiXqXqXqXqXiX6X3X3X3X5X5X5X6XiXiXiXpXpXiXiXpX;XfXZXmXmX",
"mXnXBXBX3XiXqX6X6X6X5X5X5X6XiXiXiXqXqXiXpXiXqXiXiXqXiXpXiXpXiXpXiXpXpXpXiXiXiXiXwXiXwXqXqXqXqX6X5X5X5X5XiXqXcXiX6X5X4X6X*XlXNXmX",
"mXmXDX5X6XiX6X5X3X3X6X5X3X5X6XiXpXiXiXpXiXpXiXpXpXpXcXpXpXpXiXpXpXpXiXiXpXiXiXiXiXwXqXwXqXqXqXqXqX5X6X6XiXiXpXiXiXqX3X3X0X1XAXnX",
"NXSXcX6XiXiX6X6X3XoX5X3X5X5X6XiXiXpXcXpXpXpXcXcXpXcXpXpXpXpXpXpXpXpXiXpXpXiXiXiXiXiXiXiXqXwXiXqXiXqXqXqXiXpXcXpXiXiXqX3X6X~.AXmX",
"BXSX9XqXqX8X6X5X3XoX3X3X5X4X6XiXpXcXpXpXcXpXpXpXpXpXpXiXiXiXiXiXiXiXiXiXiXiXwXqXwXqXiXwXqXqXwXqXiX6XiX6XpXpXpXpX8XH.p.K.|.T.mXnX",
"mXSXqX9XD.t.y.I.oXoXoX4X5X3X5X6XqXiXpXpXpXpXpXpXiXiXiXiXqXiXqXqXiXwXqXqXiXqXqXiXiXqXqXqXqXqXqXqXiXiXiX6XpXvXvX7X' S S S ;.Q.lXNX",
"mXDX8X] ` ` ` ] H.XXoX4X6X5X3X5XqXqXqXiXiXiXiXiXqXqXqXqXqXqXqX7XdXqXqXqXqX6XqX6XqX6X6XqX6X6XqXqX6X6XiXOXpXvXcX-.B :.=.*.B D.fXNX",
"BXDXJ.V >.>.>.*.y.T.XX6X5X3X3X3X4X3X5X5X5X5X5X5X3X3X4X3X3X3X4XsXaX|.3XoXoX3XoX3XoX3XoX3X3X3X3X3X3X6X3XOXpXvXiXE ^ =.&.=.B y.lXAX",
"AXDXi.V ,.>.:.*.] b.W.-X3XOXoXoXoXoXoXoXoXoXoXoXoXoXoXXXXXoXXX$XL.W.XXXXXX.X.X.X.X.XXX.X.X.X.X.X{.[.[.[.qXvX6X/ H =.=.&.B ;.dXBX",
"NXDXD./ >.<.,.*.-.g.c.M.mXBXmX6X3XoXXX.X.XXXXXXXXXoXoX X X X}. X~.W.W.~.W..X.X.X.X.X.XW.[.W.W.W.[.[.[.C.oXqX6Xp.B ^ ^ ^ ) s.,XBX",
"lXSX1Xy.] -.t.-.3.8.2.c.6XvXcX5XoX.X[.R.Y.P.N.b.l.a.p.a.a.y.t.t.t.t.#.3.t.t.t.t.t.y.a.a.a.s.b.P.R.E.V.m.E.3X4XW.*.F Q ' ] a.$XMX",
"NXSXgX-Xa.3.t.3...Y U c.[..XT.y.E m t 0 0 8 6 < , 6 > , > - : : , > 1 - ; > - 1 > 1 3 ; 2 2 , 9 q J x.c.n..X3XXXn. .D C C u./.AX",
"NXZXjXqXoX@.T ..U I X.V.E.b.g 8 & = 6 = , 8 : 2 , 2 e : p 9 7 l 9 p x : f h 2 M 3 q z : e h & 0 0 9 N g.x.C.XX[.[.%.c v n a.&XBX",
"NXZXfXpX-X| P 8.0.8.f.V.E.` , 0 - q r < M g p W 2 M M 0 _ g x #.e M { 2 _ ~ f $.q M ) 3 ~ W 3 W t g j 1.w.c.E.[.R.| c d S a./.BX",
"NXZX%XwX-X@.P X.0.4.w.c.E./ 6 m 3 M k 9 ~ z f ) e W R p #.k x $.f W $.e $.) h i.h ~ { 8 _ ) 9 { y m r  .+.u.b.Y.b.+.d a V ' ^.BX",
"NXZXj.j.d.O.D G ! ! Q G u.` 0 B q z B e x m z N e z N g M j l Q h k Q 0 k R p M e M z 3 e r 3 e e , 0 D O.#.i.i.#.! A A ;.;.,XBX",
"mXAX1XI.p.#.] _ / ! F G o.u.< g 1 9 0 6 0 8 E e , > 9 6 p 7 2 p 2 2 f : p 0 1 p M ) 3 & , 8 = 9 8 8 j U K G G G F Z n b V s.aXMX",
"mXNXmX5XR.f.2.......X.2.f.R.n h , 0 g < q 0 N q - - 9 > 7 7 7 f : 2 f ; 2 p ; p R ~ h % 3 j = j j j G X.w.w.0.6.1.K S S I -.aXmX",
"mXMXSX9X3XW.c.8.7.X.7.7.n.E.M.F q j r - h q M a , - g - a a > x 3 : x : q k ; h ~ E h % g k 9 x F ..1.4.w.c.V.n.c.w.o.I 4.y aXmX",
"mXNXSX,.oXE.n.h.e.9.9.e.m.E.[.R.c.+.( F Z N ! a 9 j n N V n n F M Z Z Z Z Z C Z _ Q h A G  .+.8.w.0.4.7.e.c.c.c.f.w.4.4.B $ dXmX",
"mXmXFXy ' m.c.c.r.r.9.r.v.C.E.C.C.m.m.m.v.v.+.l L X.e.R.U.z.g.f.M.j.b.h.f.h.h.f.u.~ L U 7.f.f.e.0.0.7.8.9.9.9.g.w.4. .y O $ nXnX",
"mXmXFXy $ 5 B F J K I ..9.v.V.m.m.v.v.v.v.v.O.C L X.9.h.x.x.U.x.k.B.U.K.x.9.e.e.%.! I X.X.8.9.9.9.8.7...I D s , 5 @ + O O 4 AXnX",
"BXmXSXu $ $ # @ + * v _._.).~.m.v.h.r.r.r.r...l I 7.r.b.x.N.N.q.b.Y.k.x.Q.P.9.9.O.G Y 9.9.9.9.9.g.~.jXBXAXMXs % o O O O + w AXnX",
"mXmXBXi $ $ @ @ @ * G ZXBXNXAXAXBXmXmXjXgXfXG.Q 1X0X0X&X#X$X:X:X,X$X,X$X>XlXNXlX:XJ.jXlXmXmXNXAXAXAXmXnXnXAXs % O O O + + [ AXmX",
"mXmXSX[ 4 # # @ @ % ! AXmXNXmXmXmXNXNXBXNXNXAXZXNXBXmXAXSXSXZXAXAXZXAXZXBXBXmXNXBXAXmXNXmXmXmXmXlXmXmXmXnXAXN X O O O + + S.NXnX",
"mXmXAX<.# # # @ @ % } AXmXmXmXNXmXmXmXNXmXmXmXmXlXmXmXmXmXmXmXmXmXmXnXmXmXmXmXmXmXmXmXmXmXmXmXmXmXmXmXmXnXAX) .     o O + ^.mXnX",
"mXmXMXsX4 4 # # @ % ;.AXmXmXmXmXNXmXmXNXnXmXlXNXNXmXmXmXNXmXmXmXmXmXmXNXmXmXmXmXmXmXmXmXmXmXnXnXmXnXmXmXmXBXaX.         4 MXmXmX",
"mXmXmXDX[ 4 + o O t bXmXmXmXmXnXmXlXmXmXmXmXmXNXmXmXmXmXmXmXmXlXNXmXmXmXmXBXmXmXmXmXmXmXmXmXnXnXmXmXmXmXlXMXCXS.u w w u aXBXnXmX"
};
