/* XPM */
static char *_1711898836[] = {
/* columns rows colors chars-per-pixel */
"64 64 243 2 ",
"   c #2C0B15",
".  c #340C18",
"X  c #2E121B",
"o  c #3D262E",
"O  c #581B2A",
"+  c #6E1922",
"@  c #492832",
"#  c #4C2A33",
"$  c #542E3A",
"%  c #76332D",
"&  c #593841",
"*  c #743448",
"=  c #6A4651",
"-  c #7A5962",
";  c #84290E",
":  c #882E10",
">  c #973A17",
",  c #8B2A32",
"<  c #922D35",
"1  c #99353B",
"2  c #A1383D",
"3  c #92431C",
"4  c #AA491D",
"5  c #944F2D",
"6  c #AC552E",
"7  c #B7592C",
"8  c #BC6738",
"9  c #CD6A35",
"0  c #D47739",
"q  c #982C48",
"w  c #8C3645",
"e  c #953244",
"r  c #9A3B48",
"t  c #A23D43",
"y  c #A03D4A",
"u  c #A62D51",
"i  c #A33E62",
"p  c #D33E72",
"a  c #974949",
"s  c #884455",
"d  c #9A4756",
"f  c #A5444B",
"g  c #A9484D",
"h  c #AB4C53",
"j  c #A6485A",
"k  c #B24959",
"l  c #AD525A",
"z  c #B2545B",
"x  c #B3714F",
"c  c #915366",
"v  c #B34F6E",
"b  c #A75968",
"n  c #B85667",
"m  c #8A6D78",
"M  c #B86A6F",
"N  c #A46776",
"B  c #C67547",
"V  c #D4774A",
"C  c #C87E57",
"Z  c #DE7C57",
"A  c #DC4B7A",
"S  c #C85275",
"D  c #E6537D",
"F  c #D06A79",
"G  c #E27075",
"H  c #BF844E",
"J  c #B98C79",
"K  c #CE8654",
"L  c #DA8D52",
"P  c #D88956",
"I  c #E1874C",
"U  c #E49155",
"Y  c #C78969",
"T  c #D4926D",
"R  c #D9976A",
"E  c #C8977A",
"W  c #E3886E",
"Q  c #E89D68",
"!  c #E79B7A",
"~  c #DDA375",
"^  c #E7A468",
"/  c #EEAD75",
"(  c #E6A979",
")  c #EAB57B",
"_  c #967E88",
"`  c #BF6C86",
"'  c #AB7A86",
"]  c #B77B88",
"[  c #CA5B89",
"{  c #DB5C88",
"}  c #EF5A8C",
"|  c #C86A88",
" . c #D86689",
".. c #C4788B",
"X. c #DA738D",
"o. c #CD6993",
"O. c #D96896",
"+. c #C87994",
"@. c #D97398",
"#. c #E6648E",
"$. c #E86998",
"%. c #EC6B9E",
"&. c #F3689B",
"*. c #E57799",
"=. c #F0779A",
"-. c #DC78A6",
";. c #F36EA2",
":. c #E875A4",
">. c #EC7CAB",
",. c #F371A3",
"<. c #F675A7",
"1. c #F275AA",
"2. c #F47AAB",
"3. c #F97CAE",
"4. c #A78791",
"5. c #B58895",
"6. c #AF9292",
"7. c #BA949D",
"8. c #BA9EA6",
"9. c #BCA2AA",
"0. c #D19782",
"q. c #C88699",
"w. c #D8869B",
"e. c #E38498",
"r. c #D3AA89",
"t. c #D3AB97",
"y. c #E9AC86",
"u. c #E8B689",
"i. c #F3B286",
"p. c #F3B08E",
"a. c #E7BA95",
"s. c #C98DA1",
"d. c #DB87A6",
"f. c #C596A5",
"g. c #DB96A9",
"h. c #DE88B5",
"j. c #DA99B6",
"k. c #E887A9",
"l. c #F382AD",
"z. c #F48AAB",
"x. c #E394AE",
"c. c #E696AC",
"v. c #EA8BB5",
"b. c #F487B4",
"n. c #FB82B3",
"m. c #F48DBC",
"M. c #FB8CBD",
"N. c #E899B8",
"B. c #F394BD",
"V. c #F992BC",
"C. c #C3A7AC",
"Z. c #D3B6A7",
"A. c #C7A9B4",
"S. c #D7A7B8",
"D. c #C9B6BB",
"F. c #D5B8BA",
"G. c #E7A6BB",
"H. c #F1A7BC",
"J. c #E9B2B0",
"K. c #EFC996",
"L. c #EDC798",
"P. c #E8C7A8",
"I. c #EFD4A6",
"U. c #ECD2AA",
"Y. c #E4C9B5",
"T. c #EDD7B6",
"R. c #F2D4B3",
"E. c #D094D2",
"W. c #FC8EC1",
"Q. c #E799C4",
"!. c #FC93C2",
"~. c #F39DC3",
"^. c #F698C5",
"/. c #FB9DCB",
"(. c #DBA5C7",
"). c #CCB8C3",
"_. c #D4BDC5",
"`. c #D6BDC6",
"'. c #EEA5C3",
"]. c #E8ABC4",
"[. c #EDACC4",
"{. c #F3A3C4",
"}. c #F5A6CA",
"|. c #FAA3CE",
" X c #F4ABCB",
".X c #F8A9C9",
"XX c #E6B7C8",
"oX c #F5B3CD",
"OX c #F9B4CC",
"+X c #ECAEDB",
"@X c #FBAAD5",
"#X c #FBACD4",
"$X c #E8BBD1",
"%X c #F6B4D2",
"&X c #FAB2D5",
"*X c #F4BBD3",
"=X c #FBB3DA",
"-X c #F7BDD9",
";X c #FBBBDE",
":X c #FCBCE1",
">X c #CEC4C6",
",X c #CEC8C8",
"<X c #D2C1C4",
"1X c #D8C3CA",
"2X c #D6C7D3",
"3X c #F1CDCA",
"4X c #EAD6C7",
"5X c #E7CAD6",
"6X c #F5C6D6",
"7X c #F5C5DD",
"8X c #FBC5DB",
"9X c #F5C9DE",
"0X c #FBCCDE",
"qX c #EBD4DA",
"wX c #F6D7DA",
"eX c #EEE2C5",
"rX c #EDE6D7",
"tX c #F4E3D8",
"yX c #EFC0E0",
"uX c #F5C7E0",
"iX c #FCC2E2",
"pX c #F6CCE2",
"aX c #F8CEE2",
"sX c #FCCBE9",
"dX c #EFD8E0",
"fX c #F7D2E4",
"gX c #F9D4E5",
"hX c #F4DCE4",
"jX c #F9D8E7",
"kX c #FAD4E9",
"lX c #F7D8E9",
"zX c #FADBEA",
"xX c #FFD5F2",
"cX c #FDDBF2",
"vX c #EDE7E3",
"bX c #F6E3EB",
"nX c #F7E7E8",
"mX c #FBE3ED",
"MX c #FDE6F1",
"NX c #FDEBF3",
"BX c #FFECF8",
"VX c #FEF1F6",
"CX c #FFF4F8",
/* pixels */
"fXgXgXaXgXgXgX0XfXfXgXgXgXgXgXgXgXfXgXgXgXgXjXgXgXgXgXgXgXfXgXgXgXgXgXaXgXjXfXgXgXjXgXfXfXjXgXgXjXjXgXgXfXgXgXfXgXgXfXgXgXaXgXgX",
"fXgXgXaXgXgXgXgXfXfXjXjXgXgXgXgXgXfXgXaXgXgXgXgXgXfXgXgXjXgXjXgXgXgXgXgXjXgXgXgXjXlXjXjXgXjXjXjXjXgXgXgXjXfXgXfXgXgXgXgXgXgXgXgX",
"gXgXaXgXgXgXjXjXgXgXzXzXgXgXgXgXfXgXgXfXgXgXzXzXgXjXfXjXjXgXjXjXfXgXfXgXjXjXjXzXzXjXzXjXjXjXgXjXgXgXgXgXgXgXfXjXjXjXgXgXgXgXgXgX",
"gXgX0XgXgXmXmXzXgXzXmXmXzXzXmXjXjXfXgXjXgXmXmXmXmXzXjXgXgXfXjXjXjXfXgXgXgXjXjXzXNXmXjXzXgXjXjXzXzXjXjXgXjXjXjXjXzXmXzXzXgXgXgXjX",
"aXgXgXgXgXmXCXmXjXmXVXNXzXzXNXmXjXjXgXkXzXNXVXNXNXNXmXjXjXgXlXjXjXjXjXkXjXzXzXzXVXNXzXlXkXzXzXNXMXgXjXjXjXjXlXjXzXCXzXjXgXgXgXgX",
"aXgXgXfXgXmXCXmXjXzXVXNXzXzXmXzXkXgXgXfXjXMXVXmXmXCXmXzXzXzXmXzXzXjXzXmXzXmXzXzXNXNXmXmXzXzXzXMXmXzXjXzXmXmXzXzXmXCXmXzXgXgXgXgX",
"gXgX0XgXgXmXCXmXzXmXVXNXzXmXVXmXgXjXgXjXjXmXVXNXNXVXmXmXMXNXNXNXzXzXzXVXNXVXNXmXVXVXNXVXMXzXzXCXMXzXzXNXNXNXmXzXzXVXmXgXgXgXjXgX",
"gXgXfXgXjXmXCXNXMXNXCXNXzXzXCXmXjXjXfXjXzXMXCXNXNXVXMXzXNXNXMXCXmXzXmXCXNXNXNXzXVXVXmXNXVXzXzXCXNXzXNXVXmXMXVXzXzXVXmXzXgXgXgXgX",
"aXgXgXgXzXmXCXMXmXmXVXNXzXzXVXNXzXjXjXjXjXmXCXMXbXNXVXmXNXNXNXCXmXzXmXVXNXmXmXmXVXNXmXNXVXmXzXNXNXzXNXVXMXNXNXmXzXNXzXjXjXjXgXgX",
"gXaXgXgXjXmXCXzXjXmXVXNXjXzXVXMXzXgXgXjXzXmXCXMXzXNXVXmXNXNXNXCXmXzXmXVXmXzXjXzXNXNXzXNXCXzXzXCXNXzXNXVXmXzXmXzXzXmXzXjXgXfXgXgX",
"aXfXaXgXjXMXCXmXzXzXCXNXzXzXVXNXjXgXgXgXjXMXCXMXNXNXNXmXVXNXNXCXNXmXmXVXMXzXkXzXNXNXmXVXMXzXmXBXNXzXmXVXmXmXmXzXzXVXmXjXgXgXfXgX",
"aXgXgXfXjXmXMXzXjXzXmXmXjXjXmXmXjXjXgXgXjXzXMXmXmXmXzXzXmXNXmXmXMXzXmXzXmXjXlXjXmXmXmXMXzXzXlXbXmXlXlXzXmXmXjXjXzXmXzXfXgXgXgXgX",
"gXfXfXgXgXgXgXgXfXgXjXfXjXjXgXgXgXgXgXgXfXgXjXgXkXjXjXjXlXlXjXjXjXjXkXpXfXfXfXfXfXfXjXjXfXfXdXpX9XfXfXpXaXgXpXpXgX6X8XgXgXgXgXgX",
"aXgXgXaXaXgXgXgXfXgXgXaXjXgXgXaXgXjXfXjXgXaXgXgXjXjXjXfXjXkXfXfXjXfXfXfXfX9XpXpXfXaXpXkXlXuXuXfXfX9X9XpXuX9X9X9X9XfXfXfXaXgXgXaX",
"gXaXgXaXgXgXfXfXgXjXgXfXfXpXaXaXfXfXfXjXpXpXjXgXgXgXfXfXfXfXfXkXfXfXfXpXpXpXpXfXaXpXuXpXfXuXuXpXuX7XpXpX9X7X7X9XpX9XfXfXgXgXaXfX",
"gXgXgXgXaXgXgXfXgXgXfXjXfXpXkXkXpX0XaXfXpXpXaXgXgXaXfX9XuXaXaXaXpXpXpXaXfXpXpXaXuXuX9XuX-X7XpX7X7X7X7XuX9XuXuXpXpXpX9X0XgXgXsXgX",
"gXgXgXgXgXgXaXgXgXgXgXgXgXgXaXgXkXaXaXuXuXuXuXaX7X-XuXuX7XfXlXuXuXuXpXpXaXfXlXfXpXuXuX7X7XuXaXuXpXpXuXuXuX9XuXuXuXuX9X7XuXfXfXfX",
"sXgXgXgXgXaXgXgXaXgXgXgXgXgXgXaXaXaXaXpXaXsXfXpXkXaXpXkXfXuXfXsXuXjXmXmXMXhXvXnXlXuXuX9X9XaXaXaXsXfXuX9XuXpX9XuXuXpXuXuX9XfXpXgX",
"gXgXgXgXgXgXgXgXgXaXgXgXgXaXgXgXfXgXaXpXfXaXsX7X9X9XpXpXuXuXuXpXzXhX$XqXd.S F.vXwXbXpX7XuX9XuXuX9X9XuXaXuXaXaX9X9XuXuXaX0XpXpXfX",
"gXgXgXgXgXgXgXgXgXgXgXaXgXgXgXgXkXjXfXfXfXjXfXfX9XpXaXpXuXaXaXbXdX$XF.t.v +.Y.,XY.rXMXaXpXuX9XpX9XpX7X7X*XuXpXpXuX7XuXuX0XpXpXfX",
"aXgXgXjXgXgXgXgXgXgXgXgXaXgXgXgXgXgXgXgXkXjXpXgXgXgXjXaXaXgXgXmX4XY.a.E E r.5 J rX4XvXnXpXuXuXaXpXaXaX9X9X9XaXaXuXuX9X9X7XuXpXaX",
"fXgXgXgXgXgXgXgXgXgXgXaXgXgXgXgXaXgXaXgXjXgXfXfXgXgXgXgXfX8XgXmXT.u.) r.T r.r.x Z.P.rXvXzX6XpX9XuXpXaXaXpXpX9X9X9XuXuX9X9X9X9XaX",
"gXgXgXgXgXgXgXgXfXgXgXgXgXgXgXgXaXgXgXjXgXaXgXgXgXgXgXgXfXgXmXeX( ( u.a.a.r.Y.a.Y t.T.vXnXfXpX9XpXpXpX9X9XaXaXaX9X9XpXpX9XpXpXaX",
"gXgXgXgXgXgXgXgXgXfXgXgXgXgXgXgXaXgXgXkXjXgXgXgXgXgXgXgXaXgXmXP.^ i.L.~ ~ a.u.P.L.J L.rXnXzX9XpXpXaXsX0XaXaX9X9XuXpXpXpXaXpXpX0X",
"gXgXgXgXgXgXgXgXgXgXjXgXgXgXgXgXgXgXgXgXgXgXgXgXaXgXgXgXgXgXtX( ^ / ) ~ K ! y.y.L.P.a.T.tXmXgX0XfXaXaXpXpX6X0X9XpXaX9X9XpXfXaXfX",
"gXgXgXgXjXgXgXaXjXkXjXgXgXgXgXgXfXgXgXgXgXgXgXaXfXgXgXgXaXgXnXK K i.C x B B U R ) I.Y.U.T.nXjXfXgXfXaXaXpX9XpX0XaXpX0XaXpX9XaXfX",
"gXgXzXgXjXjXjXgXjXjXfXjXgXkXjXgXgXgXgXgXgXgXgXgXfXgXgXgXgXgXNX0.% Y P l a ^ L 9 7 R U.U.U.tXmXgXjXfXfXgXfXpXgXaXaXaXaXaXpXpXaXaX",
"gXgXgXgXgXgXjXgXgXgXjXkXjXgXgXgXgXgXgXgXgXgXgXgXaXgXgXgXgXfXgXzXY R i.! u.y.U 9 7 P L.U.T.4XnXgXfXfXgXfXgXgXfXaXfXaXfXaXfX0X0XfX",
"gXgXgXgXgXgXjXgXgXgXjXgXgXgXgXgXgXzXgXgXgXgXfXgXgXgXgXgXgXaXgXmXp./ ! y.i.Q I 0 7 K a.K.T.eXvXzXaXaXgXfXgXgXaXgXgXgXgXgXfX0XfXgX",
"gXzXgXgXjXgXgXgXaXgXgXjXjXjXjXgXgXgXgXaXgXgXgXgXgXgXgXgXgXgXgXMXp.Z Z p.W I I 0 8 E a.K.K.eXvXzXaXgXaXfXgXgXgXgX0XaXaXaXgXaXgXgX",
"gXgXgXjXkXgXgXgXgXjXjXjXkXjXjXfXgXgXjXjXkXgXgXgXgXgXgXgXgXzXgXzXjXW G E V U U 9 8 Z.a.u.K.T.tXmXaXgXgXgXgXaXaXgXgXaXfXaXaXaX0XaX",
"gXgXjXjXgXgXgXzXgXkXgXkXjXjXfXfXgXjXjXgXgXgXgXsXgXgXgXgXgXgXgXgXzXwXG D ! / 0 7 % 5 ~ u.K.I.eXmXgXgXgXgXgXaXgXaXgXaXaXaXaXaXgXfX",
"gXfXkXjXjXzXkXgXgXjXjXjXjXjXjXfXjXgXgXjXgXgXgXgXgXkXjXgXfXgXjXkXgXzXy.p.i.9 > > 6 4 K L.u.I.T.nXjXgXfXfXaXgXgXgX0XfXfXfXfXfXpXfX",
"jXjXjXjXjXzXjXgXgXjXfXfXfXjXjXpXsXjXjXgXgXgXgXgXsXgXgXgXgXgXgXjXgXmXR.I 7 : > 9 0 9 8 ( K.K.U.eXzXjXjXgXgXgXgXsXaXgXgXfX0XaXfXpX",
"jXjXjXzXgXfXgXgXkXjXjXjXkXjXjXgXgXjXjXgXgXzXgXgXfXgXgXgXgXgXjXgXgXzXwXK > ; 7 U I 9 6 C ) K.I.T.bXjXgXgXgXgXgXfXgXaX0X0XaXaXpX9X",
"fXjXzXjXkXjXjXgXjXkXkXjXjXjXjXjXgXgXgXgXzXgXgXgXgXjXzXzXmXzXzXmXzXzXNXL.B 8 I ! y.y.t.E R ) L.U.wXzXgXgXgXgXgXgXgXaXfX0XaXfXfXfX",
"jXjXkXjXgXjXjXgXjXjXkXjXjXfXkXjXjXjXgXjXkXgXgXzXmXjXjXhXqX6X9XqXqX9XaXgXhXwXtX3X9XJ.r.> H ) ) K.4XMXgXgXfXaXjXfXgXgXfX0XgXgX0XfX",
"gXgXjXjXjXjXjXjXgXjXzXzXjXgXzXzXjXzXfXjXjXkXmXgXc.k.d.XX(.h.(.(.G.].E.E.m.H.*XfXhXzXR.C 5 R ^ ) T.cXgXgXfXfXgXgXgXaXgXgXgXfXgXfX",
"gXjXjXjXjXkXjXjXjXkXjXjXjXkXjXjXjXgXjXjXjXjXcXv.O.[ o.XX(.Q.(.(.x.N.E.-.$.e.B.'.Q.XXbXtXH x ^ R P.cXgXjXgXgXgXjXgXaXgXgXgXgXgXgX",
"kXkXfXjXjXjXjXlXkXjXjXjXjXjXjXjXjXjXjXjXkXzXpX:.O.[ o.XXx.*.d.j.w.g.j.h.l.c.{.'.N.N.6XVXE 4 L K P.BXmXzXjXgXsX9X0XgXgXgXgXgXaXgX",
"zXfXjXjXfXjXlXzXjXlXjXfXjXjXjXjXjXgXjXjXgXMXOX:.-.o.o.XXG.w.g.].G.H.}.~.~.*X9X%X*X8X7XmXZ.5 8 H 3XgXaXbXNXmXmXmXmXmXjXgXgXgXgXaX",
"jXjXjXjXjXfXjXjXjXkXjXjXgXjXzXmXmXMXmXNXmXfX'.x.'.[.Q.XXG.x.J.6X*X6X7X%X X%X].].%X;X*XkX0.: 3 x mX-X-XqX5X*X8X6X8XfXmXNXjXfXgXgX",
"jXjXjXjXjXjXfXkXzXkXzXmXmXzXzXfX6X*X'.N.v.^. X%X%XoX%X%X%XoX X[.[.'.[.[.[.G.G.[.H.{. XaXZ.4.J Z.zX8X X}.}.|./.M.m.B.'.9XmXgXgXgX",
"kXjXjXkXzXzXzXmXmXzXzXaX7X*X X~.^.B.B.^.^././.|.@X&X#X=X=X#X=X=X=X;X;X&X%X X X~.G.H.N.G.uXaXbXwX*X}.~.|.|.^.m.l.>.>.z.z.wXmXgXfX",
"zXjXzXzXmXzXjX0X;X=X@X@X@X@X#X=X+X#X#X=X=X#X=X#X@X=X:X;X=X#X=X=X;X;X=X#X=X=X@X=X=X-X|.~.*X-X9X*X}.~.{./.~.B.B.m.d.:.m.z.H.mXmXgX",
"jXmXmXmX0X-X#X#X=X@X=X=X@X=X=X=X:X=X=X=X=X=X=X;X=X=X:XiX;X;X;X:X;X&X@X@X@X@X@X/././././.@X X#X#X#X#X#X#X#X#X#X#X#X#X.X#X|.#XgXmX",
"zXnX$X%X@X&XiXsX:X=X:X@X:X:X=X:X:X=X:X=X:X=X:X:X:X:X:XiXsXkXsXpX;X&X@X|././.!./.!.W.W.3.;.!.M.!.V.M.M.M.V.!.M.!.M.!.B.V.z.V..XzX",
"mXG.j.]./.@X:XuX:X+X:X:X:X:X:X:X:X:X:X:X:X:X:X:X:X:X:XuXkXNXNXkX7X|.!.M.M.3.3.>.-.@.:.{ { %.2.3.n.n.n.n.n.3.3.2.3.3.1.$. .&.z.0X",
"MXc.XXj.l./.#X;X:X:X:X:X:X:XuX7X:X:X:X8X:X:X:X:X:X&XoX-XlXVXBXfX#XW.W.3.O.-.+.+.7.f.f.| { s.q.q.X.X.@.*.%.1.2.1.2.,.,.;.,.%.>.0X",
"mXwXx.e.<.{.iXsXxXcXcXcXxXsXqX7XiXuX:XiX;X:X:XiX Xj.G.$XpX:X+X Xv.3.o.= O w f.).).`.S.X. .F.F.F.D.A.f.s.q.+.o.$.;.,.,.,.,.%.l.hX",
"gXNXH.e.!.#X[.q.s.g.j.S.XX$X7XpXcXcXxXkXsXiX;XiXc.j.$X].Q.b.>.>.^.@.* - 4.* j `._._.S. .X.F.<X<X`.<X1X1X`.F.A.8.] o.O.&.=.%.z.jX",
"fXMXJ.=.;X%Xv < < 1 < 1 r h b b F q.g.J.*X7XiXsXG.(.$Xg.O.:.:.:.>.c _ +...8.* s.2X`.j.F e.1X<X<X>X<X`.`.`.<X<X>X1XD.7.| ,.&.m.zX",
"gXmXe.X.z.w.g f g g g g g g t 1 2 2 2 g k M g.;XuX[.c.*.$.%.:.1.[ * ' j r q.c N 2X).A.| X.<X<X,X>X>X,X,X,X>XD.9.9.7.5.X.,.&.v.mX",
"gXmXwXk.e.X.n r f 1 r g h z z z h g g g h y g {.iX&X=.z.2.$.%.1.= - N | j j N i _.).] v S w.q.q.q...| | | | o. .O.#.$.&.;.,.*XmX",
"gXgXNX0X/. XB.n l < , , < 2 t 2 r f 1 t g k y b.}.{.D =.1.$.$.@.$ $ d d i d ] u | @.{ { D } &.=.z. XOXOXoX.XN.H.8X8X8X8X8X0XMXjX",
"gXjXzXmX6Xk.w.H.d.r r z g k y t t < , < 1 t y z.*.X.F S n | | v * s d d r w ' u A ,.} A D <..XgXmXmXmXmXnXbXnXnXmXmXmXMXmXzXgXfX",
"gXgXjXgXNXC.O c d.k u #.Q.N.h.d.o.r e k z n @.!.|.B.k.*.[ S } i $ d r d w w ' u p #.#.k.6XzXNXzXjXgXgXgXsXgXgXgXaXaXaXgXaX0XgXgX",
"jXgXjXfXzXwX- . O e < k Q.+X+X+X^.j q #.b.m.!.M.M./.|.V.;.} ;.* o b , N s a ' @.c.oXwXNXmXjXgXgXgXgXgXgXgXgXgXgXgXgXaXgXgXgXgXfX",
"gXgXjXjXgXmX5Xm $ O + + A.kX9X7X[.F q S n.M.n.<.&.&.&.,.&.A w . $ N a b d N 9.BXmXmXgXgX0XgXjXgXgXgXgXgXgXgXgXgXfXfXgXgXgXgXfXgX",
"jXfXjXkXgXwXzXmX2X8.4.9.wXmXMXbXzXqXXX3XfX0X8X8XOXOXoX*X-X'   X o c a c ' 5.>XNX0XaXgXgXgXgXgXjXjXgXgXgXfXgXgXgXjXgXaXgXgXgXgXgX",
"fXgXgXgXgXgXgXjXmXmXMXMXlXkXlXjXjXmXmXzXzXzXzXmXmXmXmXzXNX1X# X X m ` N 9.6.qXbXgXgXgXgXgXgXgXgXgXfXgXgXgXgXgXgXgXgXgXgXgXgXgXgX",
"gXjXgXgXgXjXgXjXfXaXgXfXfXfXfXfXgXgX0XjXgXgXwXgXgXgXpXgXgXMX4..   # 4.8.4.9.NXqXgXgXgXgXgXgXfXgXgXgXgXgXgXgXaXgXjXgXgXgXgXgXgXgX",
"jXgXgXgXgXgXgXgXgXgXgXgXaXgXgXfXgXgXgXgXgXgXwXgXgXgXgXgXgXjXbX6.& # & - 8.MXkXfXgXgXgXgXgXgXsXfXgXgXgXgXgXgXfX0XgXgXgXgXgXgX0XgX",
"gXjXgXjXjXgXwXgXgXwXgXgXgXgXgXfXgXgXgXgXgXgXgXjXgXgXgXgXfXfXjXmXhX1X).5XMXlXfXkXgXgXgXgXgXgXgXaXgXgXgXgXfXfXjXgXfXgXgXgXgXgXgXgX"
};
