/* XPM */
static char *_1712000302[] = {
/* columns rows colors chars-per-pixel */
"64 64 252 2 ",
"   c #0C0000",
".  c #150001",
"X  c #290008",
"o  c #39040B",
"O  c #2B0813",
"+  c #2C0B15",
"@  c #350A18",
"#  c #2F1018",
"$  c #3D101E",
"%  c #3C1321",
"&  c #4F070E",
"*  c #55020C",
"=  c #5B000C",
"-  c #5B0613",
";  c #62000D",
":  c #7E000D",
">  c #630414",
",  c #690716",
"<  c #650B19",
"1  c #6C0C1B",
"2  c #730A1C",
"3  c #6A101B",
"4  c #73131E",
"5  c #4D1B2D",
"6  c #6D1624",
"7  c #741424",
"8  c #7C1424",
"9  c #73152D",
"0  c #771A28",
"q  c #7D1D2B",
"w  c #4F2934",
"e  c #7B222E",
"r  c #7A2536",
"t  c #7B2B46",
"y  c #564547",
"u  c #6D464E",
"i  c #72525C",
"p  c #7D5964",
"a  c #86031B",
"s  c #811C2B",
"d  c #881A29",
"f  c #981637",
"g  c #B61A3D",
"h  c #84222D",
"j  c #8A2532",
"k  c #852836",
"l  c #8D2A35",
"z  c #8C2C3B",
"x  c #96293B",
"c  c #90343E",
"v  c #CB172D",
"b  c #941E41",
"n  c #B01B42",
"m  c #962944",
"M  c #8B3343",
"N  c #8B3745",
"B  c #963A48",
"V  c #8D3150",
"C  c #9A3A55",
"Z  c #A32849",
"A  c #A2374A",
"S  c #A92954",
"D  c #A23D56",
"F  c #A93959",
"G  c #B53259",
"H  c #953C6B",
"J  c #A83C63",
"K  c #BD3B64",
"L  c #E6324D",
"P  c #C83766",
"I  c #CF396D",
"U  c #D53C74",
"Y  c #9C414D",
"T  c #9A4556",
"R  c #A4444D",
"E  c #A94755",
"W  c #B6445A",
"Q  c #B0545D",
"!  c #9B4870",
"~  c #A84666",
"^  c #BA4666",
"/  c #A85664",
"(  c #B65668",
")  c #B74C75",
"_  c #B95675",
"`  c #896572",
"'  c #98697A",
"]  c #BA626B",
"[  c #A76277",
"{  c #BB6578",
"}  c #EE4F5D",
"|  c #C5456C",
" . c #D34166",
".. c #CC4975",
"X. c #D74478",
"o. c #C65678",
"O. c #D25579",
"+. c #E3427C",
"@. c #C66779",
"#. c #CF6B7C",
"$. c #AF5386",
"%. c #B45A86",
"&. c #956789",
"*. c #9D7D87",
"=. c #B86987",
"-. c #AB728B",
";. c #AF6A95",
":. c #AB779A",
">. c #B7759B",
",. c #DC4B83",
"<. c #CD5589",
"1. c #D85888",
"2. c #DE489D",
"3. c #D45B91",
"4. c #DD5C99",
"5. c #E24A83",
"6. c #EA4B85",
"7. c #E75789",
"8. c #E4558A",
"9. c #F25787",
"0. c #E75A94",
"q. c #EB5C94",
"w. c #EE5F9A",
"e. c #F45B99",
"r. c #F55C9A",
"t. c #C56586",
"y. c #D4668B",
"u. c #C77883",
"i. c #D86A97",
"p. c #D17A91",
"a. c #DA7798",
"s. c #E3768D",
"d. c #E66297",
"f. c #ED6F90",
"g. c #EB639C",
"h. c #F4659D",
"j. c #E4769C",
"k. c #DD5FA4",
"l. c #DD78A1",
"z. c #DF79BE",
"x. c #E369A6",
"c. c #ED6DA3",
"v. c #F76AA5",
"b. c #E273AC",
"n. c #E678A8",
"m. c #F474AB",
"M. c #F875AA",
"N. c #F36FB0",
"B. c #E57BB2",
"V. c #F779B4",
"C. c #FB7BB4",
"Z. c #D477CC",
"A. c #B19499",
"S. c #BC9EA8",
"D. c #D68C8E",
"F. c #D6889C",
"G. c #E5908B",
"H. c #E68597",
"J. c #CF8FAD",
"K. c #D688A3",
"L. c #DC99B6",
"P. c #EC84AD",
"I. c #E589AA",
"U. c #F980AF",
"Y. c #E894AB",
"T. c #E889B8",
"R. c #FD83BC",
"E. c #F888BC",
"W. c #E79AB6",
"Q. c #EC94BC",
"!. c #EC9BBA",
"~. c #F396BA",
"^. c #CEABB4",
"/. c #E7AAA8",
"(. c #E9A4B6",
"). c #E8A7BA",
"_. c #E9AABD",
"`. c #F0AAB5",
"'. c #EAB5B6",
"]. c #BA98FE",
"[. c #DA98CA",
"{. c #CB8AD0",
"}. c #C996DB",
"|. c #FC87C1",
" X c #FD8CC2",
".X c #E99AC5",
"XX c #E892CA",
"oX c #FC93C4",
"OX c #F59AC5",
"+X c #FD95C9",
"@X c #FD9CCD",
"#X c #FD9DD1",
"$X c #DEA8C4",
"%X c #CFA3DB",
"&X c #D8A6D7",
"*X c #EEA4C4",
"=X c #EDABC2",
"-X c #E8A8C7",
";X c #EDADCB",
":X c #F4A7C6",
">X c #FAA3CD",
",X c #F3ADCB",
"<X c #E9B6C9",
"1X c #F2B9C6",
"2X c #F2B3CE",
"3X c #EBADD4",
"4X c #FCA4D3",
"5X c #F5A9D3",
"6X c #FCABD5",
"7X c #FCADD9",
"8X c #EFB5D1",
"9X c #F4B4D2",
"0X c #F9B6D6",
"qX c #F9BCD6",
"wX c #FDB4DD",
"eX c #FCBADE",
"rX c #C997E8",
"tX c #C499FB",
"yX c #D1ADF4",
"uX c #E0B7E5",
"iX c #FDB7E1",
"pX c #FCBBE1",
"aX c #DEC4CD",
"sX c #EAC2C6",
"dX c #EAC9D8",
"fX c #F3C7D5",
"gX c #F4C5DB",
"hX c #FCC4DD",
"jX c #F3CCDB",
"kX c #FBCBDD",
"lX c #EBD7DD",
"zX c #F3D4DD",
"xX c #D6CFFB",
"cX c #FCC2E3",
"vX c #FCCAE7",
"bX c #EBD6E4",
"nX c #F7D3E4",
"mX c #F9D4E5",
"MX c #F9D9E7",
"NX c #F6D9E8",
"BX c #FADCEA",
"VX c #EAE5EA",
"CX c #F3E4E9",
"ZX c #FCE3EE",
"AX c #FDE9ED",
"SX c #E1E6FF",
"DX c #F6E7F1",
"FX c #FDE7F0",
"GX c #FEECF3",
"HX c #FEF1F6",
"JX c #FFF5F9",
"KX c #FEFCFD",
/* pixels */
"HXKXKXKXKXKXJXKXJXKXKXJXKXKXKXJXKXKXJXKXKXJXKXJXKXKXJXKXKXKXJXKXJXKXKXJXKXKXJXKXKXKXJXKXJXKXKXJXKXJXKXKXKXKXJXKXJXKXJXKXKXKXJXJX",
"KXKXJXJXJXJXJXKXJXJXKXJXJXJXJXKXJXKXJXJXKXJXKXKXJXJXKXJXJXKXJXKXJXJXKXKXJXJXKXJXJXJXKXJXKXJXJXKXJXKXJXJXJXKXJXKXJXJXKXKXJXJXKXKX",
"KXKXAXFXZXFXAXAXAXFXFXFXFXAXAXFXFXGXFXGXAXGXAXFXGXAXAXAXFXGXFXFXAXGXGXFXGXGXAXGXGXGXGXFXGXGXGXGXFXAXZXGXFXFXFXFXAXFXFXFXFXAXJXKX",
"KXJXFXZXBXBXBXmXBXBXBXBXBXBXBXZXDXGXGXGXHXGXGXGXDXGXHXGXFXZXZXDXGXFXZXGXGXHXGXAXGXHXGXGXDXGXGXGXAXZXBXNXBXBXBXBXBXBXBXBXZXAXJXKX",
"KXJXZXBXvXnXmXmXnXmXmXmXmXmXmXBXZXHXHXGXGXFXFXHXZXZXHXJXAXBXBXBXHXFXBXDXGXHXDXGXHXFXGXHXHXGXFXHXDXmXBXmXnXmXmXmXmXmXmXmXBXZXHXKX",
"KXJXFXBXkXmXmXmXnXmXvXmXmXmXMXMXBXHXHXZXBXBXFXFXZXBXFXJXGXZXDXGXGXBXZXZXHXHXZXGXFXDXFXHXHXFXBXFXFXBXmXnXmXmXmXmXmXmXmXmXBXZXJXKX",
"KXJXAXMXmXmXmXmXmXmXvXmXmXmXmXMXBXHXGXZXBXZXZXDXZXBXDXHXJXGXZXGXDXBXZXZXHXHXZXDXFXBXBXHXHXBXBXFXBXMXmXmXmXmXmXnXmXmXmXmXBXZXJXKX",
"KXKXAXBXmXnXmXmXnXkXmXmXmXmXmXMXZXHXHXDXZXBXBXZXBXBXBXFXJXGXGXGXZXBXBXZXHXHXZXBXBXBXFXHXHXFXBXBXBXmXnXmXmXmXmXmXmXmXmXmXMXAXJXKX",
"KXJXFXBXnXmXnXkXmXmXmXmXmXmXnXmXZXHXHXGXZXDXFXFXBXBXBXFXGXJXGXDXBXBXZXDXHXGXFXBXBXBXDXJXGXBXBXBXBXmXmXmXmXmXmXmXnXnXmXMXMXFXHXKX",
"KXJXFXMXmXnXmXvXnXmXmXmXmXmXmXBXZXGXHXGXGXGXGXDXBXBXBXBXFXJXHXFXZXBXBXZXHXHXDXBXBXBXFXGXHXFXBXNXmXmXmXmXmXmXMXmXmXmXmXmXMXFXJXKX",
"KXJXAXMXmXmXmXmXmXmXmXmXmXmXmXBXZXHXHXDXZXZXDXZXBXBXBXDXHXHXJXFXZXZXBXFXHXGXDXBXBXBXZXGXHXBXBXBXmXmXmXmXmXmXmXmXnXmXmXmXBXZXJXKX",
"KXKXAXMXmXmXmXmXmXmXkXnXmXmXmXBXBXHXHXZXBXBXBXZXBXBXBXFXHXFXHXHXFXBXBXFXHXGXZXBXNXBXZXJXGXZXBXnXmXmXmXmXmXmXnXvXMXmXmXmXMXFXJXKX",
"KXJXFXBXmXkXnXmXmXmXmXnXmXmXMXMXZXGXHXZXBXBXBXFXDXBXDXGXFXBXGXJXGXBXBXDXGXHXBXBXBXBXZXHXGXZXMXmXBXmXmXmXmXmXmXnXmXmXmXvXMXZXJXKX",
"KXJXFXBXmXmXmXmXmXmXnXvXmXMXmXMXZXGXHXZXBXBXBXGXFXBXGXFXZXBXFXHXJXDXZXZXJXGXZXBXBXBXZXHXGXZXBXBXmXmXmXmXmXmXmXmXnXmXmXmXMXFXJXKX",
"KXJXFXBXnXmXkXvXmXmXmXmXmXmXMXBXDXHXJXGXGXGXGXGXFXDXHXBXBXBXZXGXJXGXDXFXJXHXFXBXBXFXDXGXJXDXBXMXMXmXmXmXmXmXmXmXmXmXnXmXBXFXJXKX",
"KXJXAXBXnXmXnXmXmXmXmXmXmXmXMXMXBXZXZXFXZXDXDXFXBXFXFXBXBXBXNXZXZXZXZXZXZXZXBXBXmXBXZXZXZXBXBXmXmXmXmXmXmXmXmXmXmXmXmXmXBXAXJXKX",
"KXJXFXBXnXmXmXmXnXmXmXmXmXmXMXmXMXBXBXMXMXBXBXBXBXMXMXMXNXNXNXBXBXBXBXMXMXBXBXBXnXMXMXMXMXMXMXmXnXmXmXmXMXmXMXMXMXmXmXmXMXBXJXKX",
"KXKXFXBXmXnXmXmXnXnXmXmXmXmXmXmXmXMXmXmXmXBXMXmXBXmXMXmXMXMXBXNXBXBXmXMXMXmXmXMXMXmXMXMXMXmXmXmXMXmXMXmXmXmXmXmXmXnXnXmXMXFXJXKX",
"KXKXFXBXmXmXmXmXmXnXmXmXmXnXmXmXmXBXmXnXmXMXMXMXmXnXMXMXmXmXmXmXmXNXmXmXMXmXBXmXmXMXmXmXmXmXmXmXmXmXmXmXBXmXmXnXnXnXmXmXBXZXJXKX",
"KXJXFXBXvXmXnXmXmXkXvXmXmXmXmXmXmXmXmXmXmXmXmXmXmXMXmXmXmXmXmXMXmXNXMXMXmXmXmXmXmXmXmXnXmXmXmXmXmXMXMXmXmXmXmXvXnXvXmXmXBXAXJXKX",
"KXJXAXBXmXmXmXmXmXmXmXmXnXmXmXmXmXmXmXMXBXBXBXFXZXDXAXZXAXFXFXFXFXFXGXFXAXAXAXAXFXAXBXZXZXMXMXmXmXmXmXmXmXmXmXmXmXvXmXmXMXFXGXKX",
"KXKXFXBXmXmXmXmXmXmXmXmXmXnXmXmXBXFXFXGXHXHXJXGXGXGXFXZXZXZXAXAXDXAXZXBXZXZXZXBXAXFXGXJXHXHXGXAXFXBXMXmXmXmXmXmXmXnXnXmXMXFXJXKX",
"KXKXFXBXmXmXmXmXnXmXmXmXmXBXFXHXGXHXZXnXkXjXhXfXfX;X*XW.T.T.T.;X8X3X&X.X.X[.[..X$XQ.;X;X9XhXhXZXGXGXGXZXmXmXmXmXmXmXmXmXBXZXJXKX",
"KXJXAXBXmXmXMXmXnXnXnXmXZXGXGXZXjX=XY.n.i.I.'.fX<X].Z.k.+.d.x.[.$XJ.[.L.Y.H.j.j.k.0.n.P.i.d.P.!.,XkXFXGXFXmXmXmXmXmXmXmXMXAXJXKX",
"KXKXAXBXvXmXmXmXmXmXmXBXGXBX:XH.i.3.<.3.3.n.sXlXlX].tXZ.5.n.Y.I.l.a.H.Y.W.'.'.'.T.c._.Q.0.i.B.E.Q.*XjXZXGXBXmXnXmXmXkXnXmXZXHXKX",
"KXJXFXBXBXmXmXmXMXMXMXGXZX.Xx.s.4.<.<.3.3.j./.sXdX].].].Z.H.T.[.Z.[.{.rX%XyXxXxXuXXXSXuXx.x.Q.OX*XqXDX8XFXZXkXmXmXmXmXnXBXZXJXKX",
"KXJXFXBXmXNXMXmXMXmXmXGXNXT.k.s.i.3.<.<.<.i.sX/.<XrX{.}.B.f.T.rXrXyX}.}.3X%X%X%X&XXX3XXXN.V.T.T..XgXDX<XBXGXMXmXmXnXmXvXMXZXJXKX",
"KXKXFXBXmXNXmXMXMXmXBXHXcXN.x.G.G.s.<.i.j.Y.sXjXdX3X5X3X,X9X9XdXbXbXdXqX9X8X<X-X:X6X:X.X.XQ.:XXX.XgXDX$XjXJXBXmXmXmXmXmXMXAXJXKX",
"KXJXFXBXmXmXmXmXmXnXZXGX9XT.b.H.G.j.W.lXqXhXhXhXhXcXkXvXhXkXhXNXVXVXnXhXcXhXhXwXoX:XqXhXhX<X$XoX.XbXDX$X;XFXGXZXmXmXmXmXMXBXJXKX",
"KXKXFXBXMXmXmXmXvXNXFXAX;XXX>X!.W.fXbXmXeX7XeXhXhXhXhXhXhXhXhXbXVXVXzXhXhXhXhX>XqXI.Q.wX6XT.$XbX9XNXBX-X).cXZXGXmXmXmXnXBXFXJXKX",
"KXKXAXBXMXmXMXmXmXFXGXeXXX5X5X>XgXbXjX6X,X*X_._.=X_._._.)._.)._._._.(.(.(.(.(.W.(.(.W.W.W.!.8XlXzXDXcXL.L.iXhXAXZXmXmXvXBXZXJXKX",
"KXJXFXBXmXMXmXmXBXJXmX6XQ.=X9X8X1X=X_.*X=X:X,X2X2X2X9X2X2X2X2X2X2X2X,X,X,X2X,X:X=X,X,X:X*X_.!.W.).-X).K.F.,X6XmXGXBXmXmXBXAXJXKX",
"KXKXFXBXMXMXBXDXJXBXV.|.OX9XeXeXwXpXpXeXeXeXeXeXiXeXwXwX7X7X7X7X7XwX7X7XwX7X7XwXwXwX7X6XwX6X6X6XeXcX0X:X~.:XOX:XAXHXZXnXMXAXHXKX",
"KXKXFXBXMXZXGXHXeXz.V. X#XwXwXiXwX7X5X7XwXwX6X6XwXhXcX7X7X7X7X7X6X6X7X7X7X7X6X6X6XwX7X>X>X4X6X4XmXGXeX6X#X:X>X:X,XZXHXZXMXZXJXKX",
"KXJXFXZXFXGXBXOXN.N.B.@X#X>X6X4X4X4X4X7X4XwXwXeXeXeXeXwXpXpXwXwX7XwXwXwXwXwXeXeXwXiXwXwXwXwXwXwXvXFXeX5XOX6X5X>X~.~.kXHXFXAXHXKX",
"KXJXFXFXGXmX X X+X+X#X>X+X#XwXwXwXpXpXpXpXwX7XiXwXwXwXwXpXpXwXwXwX7XwX7XwXwX7X7X7XwXwX7X6X6XwXwXpXpXpXcXcXcXpXpXpXeX9XfXHXFXJXKX",
"KXKXAXGXmX6XwXwXwXwX4X4X4XwXpXpXpXiXwXwXpXwXwXwXwXwXiXpXwXpXpXeXpXiXeXeXwXwXwXwXwXwXiX6X4X6X6X4X4X6X7X7XiX7XpXpXwXwXpX*XjXHXHXKX",
"KXJXGXBX4XwX0X7X4X7X6X4X7X4XwX7XwXwXwXiXiXeXwXiXeXiXiXpXeXpXpXpXpXiXiXpXiXiXiXiXeXiXeXwXwXwX7X7X6X7X6X6XiXiXpXiX7X5X4X7X:XBXJXKX",
"KXGXGXwX7XwX7X6X#X4X6X6X4X#X7XiXpXpXpXpXiXiXpXiXpXpXpXpXpXpXpXpXpXpXpXiXiXiXiXeXiXwXeXwXwXwXwXwXwX7X7XwXiXpXpXiXiX7X#X4X,XfXJXKX",
"HXGXmX4XwXiXiX7X4X@X4X5X7X6X7XwXpXpXpXpXcXpXcXcXpXcXpXeXpXwXpXpXpXiXiXiXiXiXwXiXeXiXwXwXeXwXwXwXwXwXwXwXpXpXpXpXpXpXwX6X>X=XHXKX",
"HXGXpX7XpX;X=X6X6X@X#X4X7X4X6XwXwXpXpXpXpXcXpXpXpXiXiXiXpXiXpXiXiXeXwXiXwXwXiXwXwXwXiXwXwXwXwXwXwXiXiX7XpXpXpXpX!.=.) l.5X~.AXKX",
"HXAXhX,Xp.| | p..X@X+X4X7X4X6X7XwXiXiXeXiXiXeXiXeXwXwXiXwXwXeXeXwXwXwXwXwXwXwXeXeXwXwXwXwXwXwXwX7XiX7X7XpXvXvXJ.C S S C >.Y.AXKX",
"HXAXhX=.J %.$.) p.OX+X4X7X6X4X6X7XwXwXwXwXwXwXwXwX7X7X7XwX7X6X$XaX7X6X7X7X7X6X7X7X7X7X6X7X7X7XwX7XwX7X#XvXvXwXC H &.:.H T F.AXKX",
"GXHX/.m ;.>.:.) _ P.+X7X4X#X@X#X>X4X4X4X6X4X6X4X4X4X4X4X4X@X5XsX^.OX@X@X@X@X@X@X@X@X@X>X>X@X>X4X#X#X#X#XiXvX;XV $.&.&.&.H F.CXKX",
"GXHXD.V >.:.:.$.) j.U.oX4X6X6X@X@X+X+X+X+X+X+X+X+X+X+XOX@XOXXX*XY.oXOX~.oX XoX X X XoXE. X X XE. X X|. XpXvX.XC H &.&.! T K.bXKX",
"HXAX`./ %.p.>.;.=.d.g.c.BXKXFX7X4X#X#X@X+X#X@X@X#X@X@X@X@XOX[.XXoXOXoXE.E.oX+XoX+X+XoXoXoXoXoXoX X|.R.C.+XiX4Xt.V H ! ! [ a.dXKX",
"HXZXhXI._ _ t.=.1.X.X.d.#X7XpX7XQ.B.b.a.i.y.t._ _ ( ~ ~ ~ E E R C D C C E D D D D E ~ ~ _ _ o.y.a.V.V.m.R.5X4XE.o.E ~ ( | y.dXKX",
"HXAXmX6XP.y.<.,.X.I I g.|.|.a.~ r 0 6 - - - - > = = , = > = ; , ; ; , ; , , = 2 , ; 1 = ; ; * , 6 m d.c.m.oX#X Xm. .n f S y.bXKX",
"HXGXzXwX6X+.} } X.U ,.m.|.i.0 < * > < > 8 r , s 2 s M 2 x q d E 4 l B 4 R c 8 Q 4 l c < c e - z 9 3 C d.c.C.oX XE.L v G G t.CXKX",
"HXGXmXcXeX} L +.0.0.g.M. X_ * r < j e 1 D M h E 4 A Y 4 ] l l #.8 R ] 4 @.T j u.h Q / 3 @.c 4 ] e k m ,.g.c.R.|.R. .v f G <.CXKX",
"HXGX'.@X:X+.v P <.<.O.8. X) < C 6 B B 0 Q T h / e E / j { N c u.k E { h ] / l u.c Y / 6 Q N 0 ( r r m P ..@.a.n.s.^ d M { [ lXKX",
"HXAX(.s.y.#.W W W E D A O.o.1 M q z r 9 k k B M 0 8 M 8 z h 8 m q d c 8 j z 2 j c Y e 3 4 6 < 0 6 - q J ( @.u.{ ( R A E [ >.AXKX",
"HXGXmXW.a.O.o.^ ^ W ^ K 1.n.7 s 2 1 7 1 7 4 N k > > 9 2 8 2 2 a , 2 d , 4 8 , d Q Y < * 3 < - e 6 9 S X...K ^ K S Z m b ^ K.VXKX",
"KXHXFXpXoXm.4.U U U X.,.g.|.o.s - h k > h e l k > > 8 , 8 8 , l , 1 j ; 4 h ; h ] Y e & k e * N M F X.X.d.m.c.g.3.I G S 1.-.VXKX",
"KXGXGX9X4X+XV.0.8.5.5.6.v.|.|.y.A m e > h 6 c k * - e > s 0 2 l , 4 l < q h 1 q ( B < & z z m F | 1.,.1.0.c.M.m.c.0.,.1.~ y GXKX",
"KXHXHX' I. Xv.v.q.0.8.r.N.C.R.|.C.g.1.1.o.| | x b G ^ o._ K | ..o...| | ...... .#.R Z K ..8.q.r.0.8.8.8.q.v.v.v.h.w.0...@ u HXKX",
"KXGXJXp 5 %.w.c.r.r.q.r.r.C.C.C.M.C.M.N.N.N.O.x P +.r.m.XXB.x.V.Q.m.Q.P.r.h.h.h.s.E P U 6.r.q.q.7.5.6.X.I I X.| K J t @ . p HXKX",
"KXHXJX` @ $ 5 9 r r g P 5.q.v.v.v.h.r.r.r.r.O.x n +.6.m.b.b.k.2.b.b.x.b.b.q.9.+.#.F P +.6.6.6.6.6.8.j.a.a._ a o O O O + O ` KXKX",
"KXHXJX' @ 5 @ @ O o f fXjXfXkX>XU.M.M.M.M.v.O.f X.v.c.b.x.b.4.4.W.b.b.b.L.I.h.7.O.W 7.d.7.d.f.Y.fXjXGXKXKX<X: o O + # # . *.KXKX",
"KXHXJX&.@ $ $ @ @ o Z KXJXGXHXHXHXGXFXGXFXJXsXF.CXHXAXMXfXjXjXzXdXdXzXjXjXGXGXJXzXzXHXGXHXGXGXHXJXGXZXBXHX<Xa o O + + # + S.KXKX",
"KXHXJXS.$ % $ $ $ o A JXAXMXMXBXZXFXFXAXFXFXHXKXAXAXFXGXGXJXGXGXHXHXGXGXGXFXFXZXGXGXFXZXAXAXZXZXBXMXmXmXGXMXM X + + # # 5 aXJXKX",
"KXHXJXaX@ O o O o X Y HXAXZXZXFXZXZXZXZXBXZXZXAXAXZXZXFXFXAXFXFXAXFXFXAXFXZXZXZXZXAXZXZXBXBXZXZXZXZXZXZXDXKXu       .   w CXJXKX",
"KXKXJXCX` i i i i u S.JXHXJXJXJXJXJXJXJXJXJXJXJXJXJXJXHXJXJXJXJXJXGXJXJXJXJXJXHXJXJXJXJXJXJXJXJXJXJXHXJXHXKX^.y y y y y A.KXJXKX",
"KXKXKXKXKXKXKXKXKXKXKXKXKXKXKXKXKXKXKXKXKXKXKXKXKXKXKXKXKXKXKXKXKXKXKXKXKXKXKXKXKXKXKXKXKXKXKXKXKXKXKXKXKXKXKXKXKXKXKXKXKXKXKXKX"
};
