/* XPM */
static char *_1711898835[] = {
/* columns rows colors chars-per-pixel */
"64 64 251 2 ",
"   c #0C0000",
".  c #150001",
"X  c #280006",
"o  c #39040B",
"O  c #2C0813",
"+  c #2C0B15",
"@  c #350A18",
"#  c #3C101D",
"$  c #3C1321",
"%  c #4F070E",
"&  c #55020C",
"*  c #5B000C",
"=  c #5B0613",
"-  c #62000D",
";  c #7E000D",
":  c #630414",
">  c #690716",
",  c #650B19",
"<  c #6C0C1B",
"1  c #730A1C",
"2  c #6A101B",
"3  c #73131E",
"4  c #4D1A2D",
"5  c #6D1624",
"6  c #741424",
"7  c #7C1424",
"8  c #73152D",
"9  c #771A28",
"0  c #7D1D2B",
"q  c #533039",
"w  c #7B222E",
"e  c #7A2536",
"r  c #543A41",
"t  c #743144",
"y  c #684752",
"u  c #744954",
"i  c #7D5A65",
"p  c #86031B",
"a  c #811C2B",
"s  c #881A29",
"d  c #981637",
"f  c #B61A3D",
"g  c #84222D",
"h  c #8A2532",
"j  c #852836",
"k  c #8D2A35",
"l  c #8C2C3B",
"z  c #96293B",
"x  c #90343E",
"c  c #CB172D",
"v  c #941E41",
"b  c #B01B42",
"n  c #962944",
"m  c #8B3343",
"M  c #8B3745",
"N  c #963A48",
"B  c #8D3150",
"V  c #9A3A55",
"C  c #A32849",
"Z  c #A2374A",
"A  c #A92954",
"S  c #A23D56",
"D  c #A93959",
"F  c #B53259",
"G  c #953C6B",
"H  c #A83C63",
"J  c #BC3C65",
"K  c #E6324D",
"L  c #C83766",
"P  c #CF396D",
"I  c #D53C74",
"U  c #9F414C",
"Y  c #994555",
"T  c #A4444D",
"R  c #A94755",
"E  c #B6445A",
"W  c #B0545D",
"Q  c #974C6F",
"!  c #A84665",
"~  c #BA4766",
"^  c #A85664",
"/  c #B65668",
"(  c #B74C75",
")  c #B95675",
"_  c #916776",
"`  c #BA626B",
"'  c #A76477",
"]  c #BB6578",
"[  c #EE4F5D",
"{  c #C5456C",
"}  c #D34166",
"|  c #CC4975",
" . c #D74478",
".. c #C65678",
"X. c #D25579",
"o. c #E3427C",
"O. c #C66779",
"+. c #CF6B7C",
"@. c #AF5386",
"#. c #B45A86",
"$. c #956789",
"%. c #B86987",
"&. c #AB738B",
"*. c #AF6A95",
"=. c #AB779A",
"-. c #B7759B",
";. c #DC4B83",
":. c #CD5589",
">. c #D85788",
",. c #DE489D",
"<. c #D45B91",
"1. c #DD5C99",
"2. c #E24A83",
"3. c #EA4B85",
"4. c #E75789",
"5. c #E4558A",
"6. c #F25787",
"7. c #E75A94",
"8. c #EB5C94",
"9. c #EE5F9A",
"0. c #F45B99",
"q. c #F55C9A",
"w. c #C56587",
"e. c #D5678C",
"r. c #C77883",
"t. c #D86A97",
"y. c #D17A91",
"u. c #DA7798",
"i. c #E3768D",
"p. c #E66297",
"a. c #ED6F90",
"s. c #EB639C",
"d. c #F4659D",
"f. c #E4769C",
"g. c #DD5FA4",
"h. c #DD78A1",
"j. c #DF79BE",
"k. c #E369A6",
"l. c #ED6DA3",
"z. c #F76AA5",
"x. c #E273AC",
"c. c #E678A8",
"v. c #F474AB",
"b. c #F875AA",
"n. c #F36FB0",
"m. c #E57BB2",
"M. c #F779B4",
"N. c #FB7BB4",
"B. c #D477CC",
"V. c #AF8792",
"C. c #AD9099",
"Z. c #D68C8E",
"A. c #D7899C",
"S. c #E58B91",
"D. c #CF8EAD",
"F. c #D689A3",
"G. c #DC99B6",
"H. c #EC84AD",
"J. c #E489AA",
"K. c #F980AF",
"L. c #E894AC",
"P. c #E889B8",
"I. c #FD83BC",
"U. c #F888BC",
"Y. c #E79AB6",
"T. c #EC94BC",
"R. c #EC9BBA",
"E. c #F396BA",
"W. c #CEA7B2",
"Q. c #E7AAA8",
"!. c #E9A4B6",
"~. c #E8A7BA",
"^. c #E9AABD",
"/. c #F0AAB5",
"(. c #EAB5B6",
"). c #BA98FE",
"_. c #DA98CA",
"`. c #CB8AD0",
"'. c #C996DB",
"]. c #FC87C1",
"[. c #FD8CC2",
"{. c #E99AC5",
"}. c #E892CA",
"|. c #FC93C4",
" X c #F59AC5",
".X c #FD95C9",
"XX c #FD9CCD",
"oX c #FD9DD1",
"OX c #DEA8C4",
"+X c #CFA3DB",
"@X c #D8A6D7",
"#X c #EBA6C5",
"$X c #EDABC2",
"%X c #EDADCB",
"&X c #F4A8C5",
"*X c #F4A3CA",
"=X c #FAA3CD",
"-X c #F3ADCB",
";X c #E9B6CA",
":X c #F2B8C6",
">X c #F2B2CE",
",X c #EBADD4",
"<X c #FCA4D3",
"1X c #F6AAD3",
"2X c #FCABD5",
"3X c #FCADD9",
"4X c #EFB5D1",
"5X c #F4B4D2",
"6X c #F9B6D6",
"7X c #F9BCD6",
"8X c #FDB4DD",
"9X c #FCBADE",
"0X c #C997E8",
"qX c #C499FB",
"wX c #D1ADF4",
"eX c #E0B7E5",
"rX c #FDB7E1",
"tX c #FCBBE1",
"yX c #DCC4CC",
"uX c #EAC2C6",
"iX c #EAC9D8",
"pX c #F3C7D5",
"aX c #F4C5DB",
"sX c #FCC4DD",
"dX c #F3CCDB",
"fX c #FBCBDD",
"gX c #EBD7DD",
"hX c #F4D3DE",
"jX c #D6CFFB",
"kX c #E5C9E5",
"lX c #FCC2E3",
"zX c #F9CEE3",
"xX c #FBCAE6",
"cX c #EAD6E4",
"vX c #F7D3E3",
"bX c #F9D4E5",
"nX c #F3DBE5",
"mX c #F9D9E7",
"MX c #FBD6E8",
"NX c #F6D9E9",
"BX c #FADCEA",
"VX c #EAE6EB",
"CX c #FCE3ED",
"ZX c #FDE8EB",
"AX c #E1E6FF",
"SX c #FDE5F1",
"DX c #F8E9F3",
"FX c #FEECF3",
"GX c #FEF1F6",
"HX c #FFF4F9",
"JX c #FEFCFF",
/* pixels */
"vXbXbXzXfXbXbXvXfXvXbXbXbXbXbXbXvXvXMXvXbXbXmXmXvXBXMXbXmXmXmXvXmXbXbXvXMXBXmXmXmXmXmXmXmXmXmXmXBXmXbXbXbXbXbXzXbXbXbXbXbXvXbXbX",
"vXbXbXzXbXzXbXzXvXvXbXbXbXbXbXbXmXvXmXmXMXMXmXmXvXbXmXNXmXmXmXmXNXbXvXmXmXNXmXBXBXBXNXmXNXbXmXBXmXmXbXbXbXbXbXbXbXbXbXbXbXzXbXMX",
"MXbXfXvXzXbXbXbXbXzXbXMXbXbXbXbXmXmXmXmXNXBXBXBXNXmXmXmXmXmXNXmXBXBXMXBXNXBXNXBXCXNXCXNXBXCXNXNXmXmXmXbXmXbXbXbXvXbXbXbXbXbXMXbX",
"bXbXzXzXbXbXzXbXzXbXbXbXbXMXMXMXZXDXSXFXSXFXSXCXCXCXSXSXCXBXBXBXSXCXCXCXSXSXSXCXDXFXSXFXSXFXSXSXBXbXmXbXbXbXbXbXbXmXbXbXbXbXbXMX",
"zXbXzXbXzXvXvXbXbXbXvXfXbXbXbXmXCXGXGXSXFXSXZXGXCXCXGXHXDXCXBXCXFXZXCXDXHXGXDXZXGXSXFXGXGXSXFXFXSXmXmXbXbXzXbXbXvXbXvXbXzXbXbXbX",
"zXbXbXvXfXbXbXbXzXbXbXbXbXbXMXmXCXFXGXCXCXBXCXFXCXCXSXHXFXCXCXDXFXCXBXCXGXGXCXFXFXBXCXGXGXCXCXFXCXMXbXmXmXbXbXbXbXbXbXbXbXbXbXbX",
"bXvXbXbXbXbXMXbXbXfXbXbXbXbXbXmXBXGXGXCXBXCXNXDXBXCXCXGXGXDXZXFXSXCXNXCXGXGXCXSXSXCXCXGXGXSXBXSXCXmXmXvXbXmXbXvXbXbXbXbXbXbXmXbX",
"bXzXfXvXzXfXbXbXbXvXbXbXMXbXMXmXCXGXGXCXCXBXCXCXBXBXBXSXHXGXFXFXCXBXCXCXGXHXCXCXBXBXCXHXFXCXBXNXBXvXvXvXvXbXbXzXbXbXbXbXbXbXbXbX",
"zXvXbXbXbXfXbXbXzXbXbXbXbXvXMXmXCXGXGXCXDXCXDXCXBXBXBXCXGXHXFXCXBXCXBXCXGXGXCXCXBXCXCXGXGXSXBXbXMXMXbXbXbXbXbXbXzXbXbXmXbXbXmXbX",
"bXbXfXbXbXzXbXzXvXMXbXbXvXbXMXBXCXFXGXGXFXFXGXSXBXmXCXCXSXHXGXDXCXBXCXCXGXGXCXNXBXBXCXGXGXBXBXmXmXMXvXvXbXbXMXbXmXvXbXbXbXzXbXbX",
"vXzXzXvXvXMXbXbXbXbXbXbXbXvXMXmXCXFXGXCXCXCXSXCXBXBXBXCXGXGXGXFXCXBXBXCXGXFXCXNXBXBXCXGXFXSXBXBXmXmXmXbXbXzXbXMXMXbXbXbXbXbXbXzX",
"zXbXbXbXvXbXbXbXvXbXfXvXbXmXmXmXCXGXGXCXCXNXBXCXBXBXBXDXGXDXHXGXSXCXBXCXGXGXCXBXNXNXCXGXFXCXBXNXvXvXbXbXbXvXbXbXmXvXbXbXbXmXvXMX",
"bXvXvXbXbXbXbXbXzXzXbXhXbXbXMXMXCXFXGXCXBXBXNXCXCXBXCXFXCXCXFXHXFXCXCXCXGXGXCXBXBXBXCXGXGXCXNXbXmXvXbXmXbXbXbXbXvXbXbXbXbXbXbXvX",
"fXbXzXbXfXbXzXbXvXvXbXvXbXMXMXmXCXGXGXZXNXCXCXSXCXCXFXSXCXCXCXGXHXCXCXCXGXDXCXBXBXBXCXGXFXCXbXmXbXbXbXbXbXbXbXzXbXbXzXbXbXbXbXbX",
"bXbXbXbXbXzXzXbXvXMXbXbXbXmXMXmXDXGXHXGXFXFXSXGXDXDXGXCXBXBXBXFXHXGXCXCXHXGXDXNXBXCXSXGXGXSXCXmXbXmXbXbXbXbXbXmXbXbXzXbXmXMXbXzX",
"bXbXbXzXbXbXbXbXbXbXbXbXbXbXmXmXNXCXZXCXCXCXZXZXCXCXCXBXNXBXBXCXCXDXCXCXCXCXCXmXmXBXCXCXCXBXmXmXMXbXbXbXbXbXvXMXbXbXbXbXmXMXbXbX",
"zXbXbXbXzXzXbXbXbXvXbXbXMXvXmXMXmXmXmXmXmXmXBXBXBXmXbXmXbXNXMXBXBXNXBXMXmXmXBXBXbXmXmXmXmXmXMXbXvXbXbXbXbXbXbXmXmXbXbXbXvXbXMXvX",
"bXbXbXbXbXbXvXbXzXbXbXbXbXbXbXmXMXmXmXbXmXmXmXmXMXmXMXmXmXNXMXBXBXNXbXmXmXbXmXmXmXbXbXmXMXbXbXvXmXbXMXbXMXbXbXbXbXvXvXvXvXbXbXbX",
"zXbXbXbXMXbXvXbXbXzXbXbXbXvXMXbXbXMXbXbXmXMXmXMXmXvXMXMXmXmXbXvXBXMXbXbXbXMXMXmXmXmXbXmXbXbXMXvXbXbXbXmXbXMXbXvXvXzXvXbXbXbXbXbX",
"bXbXbXMXbXvXMXbXbXvXbXvXbXbXbXbXMXbXbXvXbXmXbXbXvXmXmXmXbXbXbXmXmXBXmXbXmXbXbXmXbXvXbXbXbXbXvXvXbXbXbXbXbXMXbXbXvXbXbXMXbXbXbXbX",
"hXbXbXbXbXbXbXbXvXvXbXfXbXbXbXbXbXbXbXBXBXBXCXCXCXZXZXZXZXCXFXSXCXSXFXSXZXFXZXCXCXCXCXCXBXBXmXmXbXbXMXvXbXbXbXbXbXbXbXbXbXMXbXbX",
"vXbXbXbXMXbXbXbXMXMXbXbXbXhXmXmXBXSXSXFXFXGXGXFXFXZXSXCXCXCXZXCXCXZXZXCXmXCXZXCXZXSXGXGXHXGXFXFXSXBXMXbXbXbXbXbXbXbXzXbXbXbXbXbX",
"bXbXMXbXbXvXbXbXvXbXvXbXbXMXZXGXFXGXBXbXhXfXpXfXiX%X{.Y.P.T.P.%X4X@XOX_.{._._.{.OXR.$X4X7XsXfXBXFXFXFXCXbXMXbXbXbXbXbXbXbXvXbXbX",
"bXbXbXbXbXvXMXbXvXbXvXmXCXFXZXBXdX$XL.f.t.J.(.pXeX0XB.g.o.p.k._.OXP._.G.L.S.f.k.k.7.c.c.t.p.c.E.-XfXSXGXCXmXvXbXbXbXbXbXbXzXbXbX",
"MXbXbXbXvXvXbXbXbXbXmXBXGXBX&XJ.t.<.:.<.<.c.uXgXgX).qXB.2.x.L.J.A.t.S.L.Y.(.(.(.P.9.$XY.1.t.m.E.T.#XdXBXFXBXzXvXbXbXzXvXvXbXbXbX",
"MXbXbXbXMXbXbXvXMXMXmXSXSX Xk.i.1.:.:.<.<.u.Q.uXiX).).).j.S.P._.`._.`.0X0XwXjXjXeX}.AXeXk.k.P. X*XaXSX;XSXCXvXvXbXzXbXbXbXzXMXvX",
"bXbXMXbXMXmXmXmXmXmXmXFXBXm.g.i.t.:.:.:.<.u.uXQ.;X0X`.'.j.a.P.0X0XwX'.'.@X+X+X@X@X X1X}.M.M.P.T.{.aXDX;XBXFXmXbXbXbXzXzXbXzXbXbX",
"bXbXMXbXbXbXmXMXbXbXBXGXlXx.k.S.S.i.<.t.p.L.uXdXiX,X1X,X1X5X5XiXcXcXaX6X6X4X;X$X*X2X%X{.}.T. X{.{.aXDXOXdXHXBXvXbXbXbXbXbXbXfXvX",
"bXbXmXmXvXbXbXvXvXvXCXFX>XP.x.S.S.S.Y.gX7XsXsXsXsXlXxXfXsXfXsXnXVXVXbXsXsXsXsX8X|.$X7XsXsX;XOX|.{.cXSXOX%XSXFXCXbXbXbXMXbXzXbXbX",
"bXmXbXbXMXbXvXMXbXMXFXZX%X}.<XR.Y.aXnXzX8X6X9XfXsXsXsXsXsXsXsXnXVXVXvXsXsXsXsX=X7XJ.{.3X2XP.OXkX5XNXSXG.~.lXCXGXbXbXbXMXbXbXbXbX",
"bXmXbXbXmXbXbXvXbXSXFX9X}.1X1X=XaXVXaX2X1X&XR.$X$X^.^.^.^.~.~.~.^.^.!.!.!.!.!.Y.!.!.Y.Y.Y.R.4XgXdXDXlXG.G.9XsXFXCXbXbXfXbXbXbXzX",
"bXbXbXmXvXMXbXmXBXGXbX2XT.$X5X>X$X$X/.#X$X$X%X>X>X>X5X>X>X>X5X>X-X>X-X>X&X>X-X&X&X>X&X&X#X^.~.R.~.$X~.F.A.-X2XfXGXmXzXbXbXbXbXbX",
"bXvXmXmXmXMXNXSXHXMX].]. X5X9X9X9X8XtXrX9X9X9XtXtXtX9X8X8X3X3X3X3X3X3X3X8X3X2X8X3X9X3X3X2X3X2X2X8XxX6X XE.&X X-XFXGXCXbXbXbXbXvX",
"mXbXMXmXmXCXGXGXtXm.n.[.oX8X8X8X3X3X2X2X3X8X2X2X3XsX9X3X3X3X3X3X2X2X3X3X3X3X2X2X3X3X3X=X=X2X2X<XzXGXlX2X=X=X=XE.&XZXHXCXbXvXvXvX",
"MXmXBXBXCXFXBX Xn.n.m..XoXoX3X2X<X<X2X3X3X8X3X9X9X9XtX8XtX9X8X8X8X6X8XrX9X9X9XtX9XtXrX8X8X8X9X8XxXSX9X-XXX1X1X*X|.E.fXGXCXMXvXzX",
"mXvXBXCXFXmX[.[..X.XoX<X|.<X3X8XrXtXtXtXtX3X3XrX8X9X8X3XtXtX8X8X8X8X3X3X3X3X8X3X3X3X8X3X2X<X3X9XtXtXtXlXxXtXtXtXsX9X-XpXGXCXbXvX",
"MXmXCXGXvX3X6X8X6X8X<X<X<X3XtXtXtX8X8XrXtX9X3X8X9X8XrXtX8XtXtX9XtXrX9X9X8X9X8X8X3X8XtX<X<X2X2X<X<X3X3X8XrX3XtXtX8XrXtX#XpXGXZXfX",
"vXBXFXMX<X6X8X3X<X3X3X1X2X2X3XrX8XrX8XrXrX9X9XrX9X8XtXtXrX9XtXtXtXrXrXtXrXrX8XrX8X9XrX9X9X8X3X3X2X3X<X2X8XrXtXrX3X<X<X3X&XZXSXvX",
"MXCXGX6X3X8X3X2XoX<X3X<X<X<X3XrXtXtXtXtXtXtXtXtXtXtXtXtXtXtXtX9XtXtXrXrXrXrXrXrXrX9X9X8X8X8X8X3X3X3X3X8XtXtXtXrXrX3X<X<X-XpXSXvX",
"MXGXxX<XrXrX8X2X<XoX<X<X3X2X3X8X8XtXtXtXlXtXtXlXtXtXtXtXtXrXtXtXrXrXrXrXrXrX9XrXrXrX8X8X9X8X8X8XrX8X8X8XtXtXtXtXtXtX8X<X=X&XCXvX",
"CXGX9X3XtX%X#X2X<XXXoX<X3X<X2X8X9XtXtXtXtXtXtXtXtXrXrXrXrXrXtXrXrXrXrXrX8X9X8X9X8XrX9X8X9X8X8X9XrXrXrX3XtXtXlX9XG.%.) F.*XT.mXvX",
"CXZXsX-Xy.{ { y.{.XXXX<X3X<X<X8X8XrXrXrXtXtXrXtX9XrXrX9X9X8X9X9X6X8X9X8X9X9X8X8X8X8X8X3X8X8X3X8X3XrX3X3XlXlXxXF.V A A A -.L.mXmX",
"SXZXfX%.H #.#.( y. X.X<X3X<X<X2X1X6X3X8X8X9X8X8X8X3X6X3X3X3X3XOXiX2X<X3X3X2X2X2X3X3X3X3X8X3X2X8X3X3X3XoXtXxX8XG G $.=.G Y A.hXMX",
"SXGXQ.n #.-.=.( ) H..X3X<XoXXX=X<X<X<X3X<X<X<X<X<X<XoX<XoXXX1XuXW. XXXXXXXXXXXXXXXXXXXXXXXXX=X<X<X<XoXoXtXxX#XB @.$.$.$.G A.mXbX",
"SXFXZ.B -.-.C.@.( f.N. X<X2X2XXXXX.X.XXXXX.X.X.X.X.X.X XXX X}.{.L.T.|.|.E.[.|.[.[.[.[.U.[.[.[.U.[.[.[.[.tXxX XV G $.$.G Y F.dXMX",
"SXSX/.^ #.-.-.*.%.p.d.s.BXJXCX6X<XXXXX.X.XXXXXoXXXXXoXXXXX X_. X.X|.E.U.U..X.X.X.X.X.X|..X|.|.|.[.I.N.N..XrX3Xw.B G ! Q ' u.;XMX",
"SXDXpXJ.] ) w.w.:. . .p.oX3XtX2XT.m.m.u.t.e.w.) ) / ! ! ! S R R V S V V S S S S R R ! ! / ) ..e.f.M.N.v.N.2X<XU.:.V ! / ( e.iXbX",
"CXZXvX3XH.>.:.;. .I P s.I.[.h.! e 8 5 = = = * : * * > * : * - > * : > - > > - 1 : - < * : - * , < B p.l.v.|.<XU.M.} f d A e.gXbX",
"CXFXhX9X2X6.K o. .} ;.v.].t.9 : & = < : 8 j > g < a m 1 z a a T 3 k U 2 T l 3 W 9 k x , x w * k 8 2 V p.k.N.|.[.[.K c F F e.bXbX",
"CXFXfXlX8X[ K o.7.8.l.v.[.) & e : j 0 < T j a R 3 Z U 3 ` k k +.7 T ` 3 O.Y g Z.w W ^ 2 O.x 3 O.e j n ;.s.l.I.I.K.} c d F w.vXMX",
"CXGX:XE.=XX.c L >...X.5.U.( , V 5 T M 9 / Y g ^ w R ^ h ] M x r.g W ] h ` ^ k +.x U ^ 5 W M 9 ^ e e n L ..+.u.c.u.J s m ] ' iXmX",
"CXFX!.i.e.+.E E E R S Z X.:.< m 8 l j 8 j j N M 6 7 m 7 k w s n 9 s l 7 h x 1 k x U 9 2 9 5 , 9 5 = e F / O.O.O./ T T T ' -.mXmX",
"mXGXvXY.u.....~ ~ ~ ~ J >.c.6 a 1 < 6 1 6 3 M j : : 6 1 7 1 1 p > 1 a > 3 s > 7 W U , & 2 < = w 5 5 A  .| J ~ J A C n d ~ F.gXmX",
"mXZXFXtX|.v.>. .I I I 2.s.[...a : a j : g w k j : : 0 : 8 7 > k > > h : 3 g : a ` U w % j w & M m D P ;.s.v.l.s.1.P F A >.&.cXmX",
"bXCXFX4X3X|.N.8.5.;.2.3.z.I.I.e.Z m w , g 5 l j & = w : s 9 1 l < 3 h > 9 g < w / N = % l l n D { 5.;.5.7.v.v.v.l.1. .5.! y BXvX",
"bXCXHX' m.[.z.z.0.7.5.9.z.I.I.].K.s.>.>.| { { z v F { ..) J { { ..| { { | | | } +.Z C { | 5.8.9.7.>.>.5.8.d.l.z.d.p.8.( @ y CXzX",
"vXCXHXi 4 :.l.g.0.8.4.0.z.N.N.N.b.N.b.n.n.n.+.z L o.0.v.}.m.l.c.T.c.T.m.0.d.d.d.a.Z L I 6.0.8.8.4.5.3. .I P  .{ ~ H t @ . i DXvX",
"bXBXHX_ O # 4 8 e e f L  .8.z.z.z.d.q.q.0.0.X.z b o.4.v.k.x.k.,.x.x.k.m.m.8.3.o.+.D L o.2.3.3.3.3.5.f.u.u./ p o O O + + O _ DXdX",
"bXNXHX_ @ $ $ + O o d aXdXpXlX=XK.b.b.b.b.b. .d  .d.d.x.x.x.1.1.T.x.k.h.Y.J.d.4.+.E 4.p.8.p.a.L.7XdXFXJXJX(.; @ O O + @ . $.GXvX",
"bXBXHX&.@ $ @ $ @ % n JXGXGXHXHXGXGXZXFXSXGXuXA.CXGXFXmXiXaXdXhXdXiXhXdXdXZXGXHXhXhXGXSXZXGXFXGXHXFXCXBXGX;Xp o O O O @ + W.HXzX",
"bXNXJXD.# $ $ % % o Z GXZXvXmXmXZXCXZXCXCXCXGXJXFXCXSXGXGXGXGXGXGXGXFXFXGXSXCXCXFXFXCXCXCXBXCXMXmXvXvXzXSXmXm X + + + @ 4 yXGXhX",
"bXbXJXyX@ + O O O X Y JXCXvXvXvXbXbXzXbXbXbXmXmXmXbXmXmXBXmXmXMXBXMXBXmXNXBXvXvXvXbXbXbXbXvXvXvXvXvXMXvXBXJXu       . . q ZXDXvX",
"mXvXSXcXQ y u u y t V.FXMXbXbXvXbXbXbXbXbXMXvXvXmXmXvXbXbXbXbXbXmXvXbXbXbXbXvXvXvXbXbXbXbXbXmXzXbXvXvXbXMXGXW.r r r r r V.FXBXvX",
"vXmXmXmXSXSXSXSXSXSXmXbXvXbXbXbXmXhXbXbXbXbXvXmXbXfXbXbXMXhXbXhXbXbXbXbXbXmXbXmXMXbXbXbXbXbXvXfXbXbXMXbXvXxXMXSXSXSXSXSXMXvXvXbX"
};
