/* XPM */
static char *_c80deb910664d62a93c6c4901813257[] = {
/* columns rows colors chars-per-pixel */
"64 64 28 1 ",
"  c #FABFDF",
". c #FCBFE1",
"X c #F7C4DF",
"o c #F8C4DF",
"O c #FAC7E2",
"+ c #FCC7E2",
"@ c #FAC8E2",
"# c #FCC8E2",
"$ c #F8CFE1",
"% c #FBC9E4",
"& c #F7D0E2",
"* c #F6D5E2",
"= c #F7D3E4",
"- c #F7D4E5",
"; c #FAD1E3",
": c #F8D4E3",
"> c #FAD3E5",
", c #FCD3E5",
"< c #FAD5E6",
"1 c #FCD6E7",
"2 c #F8D8E7",
"3 c #F9D8E7",
"4 c #FBD7E8",
"5 c #FCD7E8",
"6 c #F8D8E8",
"7 c #F9D8E8",
"8 c #FBDBEA",
"9 c #FCD8E8",
/* pixels */
" OOOOOOoXOOOOOOOOOOOOOOOOOOOOOOOOOOOO@OOOO@OOOOO@OOOOOOOOOO@OOO.",
"O<>;>>>>;;<<<<>><>>>><<;>>&<<<<<<<>><<-<--<<<<<<<<<<<-<<<<<<<;<#",
"O>$;;;>>>;><<<>>;;>;&>>>;;&;<<<<>>>><<<-<<<<<<<<<<<<<<>>><<=<<<O",
"O>$;>>>>>>><<<>>>;;<<<>>>;&;;>-<<>><><<<<<<<;<<<<><><<<<<<<<>><@",
"O;>>;;>>>>;;;;&><=<<9<&&>>>>>;<<><<<><<<>><>><<<>><<>><<=<=>><<O",
"O<>&;;<<=>>>;>>>=>>>><<<>>&><<<<<><<<<><<>><<<<<<<><<><<<<=<<<<O",
"O>;;;;<<;;>>>>>;>>><;<<<<>><<<<<<<<<<<<<<>><<<<<<<>&<<=&<<<>>><+",
"O;&>;;>>;;>>>>>;>>&>><<<<>>><>><<<<<<<<<<<<<<<<<<&&&><<>><<<<<<O",
"O;>>;;>>;<<>>;><<>>><>-<>>>><><><<<<<<<<<<<<<<<<<<>><<<<>><<<<<O",
"O;>;>>>>><>>;;><<<>><--<<<<>;<<><<<<&><<<><<<<<&<<>>>><<<-<<<&<O",
"O;;;><<><<>>>>>>>>>>><><<<=<<<>><<<<<<<><<><><<<><<<>><<<<<<<<<O",
"O>>;><<>;>&>>>>>>>><><&&;>=<<>>;><<<&<<>><<<<<<>><><>>;<<<>;<<<#",
"O<;;;>;>&&>&>>>>>>=>&;;;><&<>&>>><<<><>>><<<><>><&<<>>>>>>>>>=<O",
"O=;;;;;>>>>>>>>>>>><>>>>><>><<-<<-<><>><&<<<><<<<>><<<>><>><=><O",
"O<>;>>;>><><=><<<<<<<<<><<<><<<<---<<><<<<><<>>>--<<<><<<<><<<<O",
"O<>>><>><<><<><<<<<<<><<<<<<<<<<<<<><<<<><<><<>><<<<<>><<<><<<<+",
"O>>>>;>>>><<<=<<<<<>><<<<><<<-<<<--<>><<&<<><<>><<<<<<<<<-<>=<<O",
"O-<><;><=;<<<<<<<<<>><<<<><<<<<<<--><><<<<<<<<<><<<<<<--<&&;><<O",
"O<<<<<=<>&><<><<><<&>5<<<-<<<<<<<<-<<<<<<<<<==<=><<<<<<;&;><<<>+",
"O<<<<<<<<>>;><<<<<=&<<<<><<<>><<<7<><<<<<<<<<<=<<<<<<<<>><<<<<<O",
"O>>-<<<<>>>;;><<<>><<<><<7--><<<<<<><<<<<<><<<=<<<<<<<><<<<><<<O",
"O<<-<<><<<<>>><>>>><<<&><<<<>>>><<>><<<<<>&<<<<<<<<<<<<<<>><><<O",
"O><<<><<=<>>><<>;>&<<>><-<<>&>><<<><<<<>>><>><>><<<>><<<<<<<>;<O",
"O<><<--<=>=<<<<>;><<4<>>>><>;><<<><1<<<>>;>>&><><<<<<<>><<>>>><+",
"@<<<><>>><<<<>&<>><<><>;;;<>><<<<><<<<<<<&;<>;><<<<<<>>;>>;;><<O",
"@<<<<<<><<-<<<><><<<><&&><<>&<<<<<<<<<>>>>><<<<<<-<<;&&;;>>>>;<O",
"O<<<<<2<<<-<<<<<<>><<><<&<<<>>>>7<<-7<>;>>>><<<<<<<<>><<>>;>>&&O",
"O<<<<<<<<<<7<<<<<<<<<<<<>><>>>&<<<<<<<>>><<<<<<<><<<<<<-<<>&>>&O",
"O<<<><-><<<<<<<<-<<>>>>>;>><<><<-><>>;;>><<>=<<>;;>><<<<<><1>;<#",
"@<<<<<<<><<<---<>=<><<<<><<<<<<<<><<<<>>><;>&<<>>;>><>><;>><<><O",
"@<--<<<<><<<7-<><<<<<>><><<<<<<-<><<<<<;<<&;=<<<>>><<>><>>>;>,>O",
"O-<<<<<<<<7<2<<><<<<<<<>><><<<<7<><<2<&><<&;>=<<>>><>>>>>>>><<<O",
"O-7<<77<<<<<2<<<<--<<<<<><<<=<<2<<<<<-&<<>>>>&><<<>>>>>>;>><---O",
"@<77<77<<<<<<22&><-<<<<<><<<<<<<<><<<4<><>>>><>><<<<>>>>>>>>;>;O",
"@<77<<><<<<<<<2<>7<<<<<<>>><<<<<<<<<7<<<>>;;><=<<-<<<><>>>;&>;>O",
"@2777-<<<77<<<<<<<<<<<<<<<><<<<<<<<<<<<<>;>>><<<<-<<>><<;>>&;><O",
"@222--2<<277<-77-<<<<<-<<<<<<<<<<<<7<<<><<><<<<<<<<<>>><=>>;><>O",
"@-<2<<7<<<77<<7727<<77<7<<<<<<<<<>4<<<<<<<<<>><<<<<<&&><>;>><-<O",
"O<<<477<<777777727224<<<<&<<<<<<<<<<<<<<-<<<<>>><<<<<<<>>>>=<<<O",
"@2<7<<77772222227<<<<<<<<<<<<<<><<>><<><<-<<<<<<<<<<><<&>>>>>>;O",
"@-<7<277772<<<-2<7<<<<<<<4<<<<<>><><<<<<<=<<<<<<<>><<<<>;><<<>;O",
"@2<<<<22227<<<2227<<<<<<<<-<<<<<><><<<<<<><<><>>>><<<<<>;><<><<O",
"@2<<7<<7<<<<77777777<<<<<<<<<<<<<<<<<<<<<>><;>>>;><<<<=>;><<<<<+",
"@2777-27<<<777277777<<<<<77<<<<22-4<4<<<<>>;><>><>><<&<>><<<<<<@",
"@777777722277<72777<77-<272<<<<77<<<<><<<<<<<<<<<<<-<<<><<<<>><@",
"@7227777-<2<<2777277<22-<7--<22<<<<5<<<4<<<22<<><<7<<<<<<><<<<<O",
"O47<<<777<<7<727<4<-<72-2777277-<<<<<<><7<-7<<<<<--<<<<<<<<><<<O",
"O<7<<<<227777-<77<<<772<277<<<7<<<<<<<<974<<>>>><<<<<<<<<<<<<<<O",
"@<<<<<<<227<-<-27727727774-<<<77<<77<<<777<<<<<<<<<<><<77<><<<<O",
"@2-<<<27<<4<<77<-777772<-<<<<7<<<<-<<<<<2<<<<<<<<<<<<<><<<<<>><O",
"@2<<<<-<<<<<<7<-777274<<<>><<<<<<1<<<<<<7<<<<<<<<<<<<<<<<-<>>><+",
"@<<7<4---<<<<<<2777<<<<<<<<<<--<=<<<7<477-<<<<><<<<<<<<<><7<>&<O",
"O<<<<4<<<4<<77<77<<7<<<<<<<<<<<<<<7<222777274<<<<<<=<<<<<<><>;<O",
"O<<:<<<<7<<7<<><2222<<>><<<><7<7<<4<<<<<22<77-<<<<<-<<><>><>>><O",
"@2<<-<<<<<<<<<<<222<<<<<<<<<<<<<7<<774---<7<<<4><<<-<&<<<<<<>><O",
"O<<-22<<>>><<<<2<7<<<<<<<<-<<--<9<<<<<<<-<7<<<<<<<--<<<>>>><<<>O",
"O<<<<<<<=<<<<-2<<<<<<<<<<<--<><<<<2<<<<<=<<<<<<<<<<<<<<;&>;><;>O",
"O<<<<:<<--<<<<7<<<<<<<<<<<<<<><><<<<<<=<<<<<>1<<77<>><<<;>>>>><O",
"O-<<<<:<<:<-<<<<<<<<-<::><<<<<<<><-<<<><<><<><<<><<>><<<<>>;><<O",
"O<<<<<:<::<4<<---<<<4:::<<<<<<<<<<<<<><<>>;<<<<4<<<>;<<<<<&><<<O",
"O<<<-<:<::<7<<<<<<<<<<::><<<<<<<<<<>><<<<<><<<<<>&<>><>-<-<>><<O",
"@<<<<<:<<:<<<<><<<><<<::<<>><<><<<><<<<&><>><<>>-><>>>><<<<<<;<O",
"@2<<<<:<::<<><><<<<<<<*<<<<<<<<<<<<<<<<-<-<<<<>&<<<<<<>&<<<<<*:O",
" @%@OOOOOOOOOOOOO@@OOOOO+OO##OOO+O+O+@O@%OOO++OOOOOOOOOOO+OOOOO."
};
