/* XPM */
static char *_1711733662[] = {
/* columns rows colors chars-per-pixel */
"64 64 27 1 ",
"  c #F7D0E2",
". c #F7D1E2",
"X c #F7D4E2",
"o c #F7D3E4",
"O c #F7D4E4",
"+ c #F7D7E6",
"@ c #F8D0E3",
"# c #F8D1E3",
"$ c #FAD1E2",
"% c #F9D5E2",
"& c #FAD6E3",
"* c #F9D3E5",
"= c #FBD2E4",
"- c #FAD3E4",
"; c #FBD3E5",
": c #FAD4E5",
"> c #F8D7E4",
", c #F8D6E7",
"< c #FCD5E7",
"1 c #F8D8E7",
"2 c #FAD7E8",
"3 c #FCD7E8",
"4 c #FAD8E8",
"5 c #FBD9E8",
"6 c #F9DAE9",
"7 c #FADBEA",
"8 c #FCD8E8",
/* pixels */
"#**#$*@###1*;:***#*%*******:::,2O:.**2:::4:4:422:2:O*O:O4*.4O***",
"**=#$**###:;;:#**##=*:*#**#:O:O:::**.*:4OO,O1O:44::22.:.2*::*.*2",
"**#$=*#*=***::**#***.:O*###o::::O::*::OO44:2:4:O*22:*:O:*2:O2:**",
"**$$=:=#*=**:;****@*::O*#oo**OO2.:.2:O:4O:::O:::*.2.2O::**::*:*:",
"$##==#**=##**#******2:.O#***=#OO::::::::***:*2:2:O**:*.::..O*::O",
"***#$=:;**=****#*****44O#**::*:::O::2*O:2:::*::2*2*2:*2:*22:*:::",
"*###$#***#*=#**#.**2*:O4*;:=::::O2:::*2:::**::::*::.::OO:::*:O:2",
"#*#=$$**##==**:=**..::O:;##::::X**22:22:::::2::*:.OO::::::4O:::.",
"##;##*:#***=##*;:O.**O::****:.2.::2:222*2::3::82**::::::O:*::2:*",
"##*#*#:::*:*#:*:::2*:O**:*2**2**2::O.*****::4::.*2O.O:::OO*2OO*:",
"$=###::::*##*#;*.****:***:.2*:2*:,2*O,::O:*:.:*2:2*::*:44:O:O:**",
"#*:#*::##*#*=*#****4*:*o.:O::*.O::::.:O:O:::*22O.:**2.*:2::*2:::",
"#:*##;#;###o***#::.:@@*2*:.::.::O:*:O:.O:2*::::.:O*:*****:*****O",
"#$#=##=##:#*;:=*::O:**..**:O:O::2O2:.::O.*:2O::::O::2:*.:**:.2*2",
";#:##*#*::*:::*::O:2**::2:O:::::OO:O2.2::::42:O*2.::**::O2::2:**",
":*::*:*o::o:::::4O::::*2:O2:*:2*224:*2*:::O::O**.2::2:O4O*::,::*",
";*::.o***#*::*::2:**.**;:::::,*24O,.O::2*:2.::.::44:::442.:**::O",
":*:::O*****::::O2O*2*3::4O:::O2424O::O:2.***O*2::O:*::OO:OO.*:::",
"#:::O:.:****:.::***.*4:4:O:4:::.O,O:222:4::2:::..::2242OO2**::.2",
";::::O::***:X::4*2*.:4:::+4O::O2O4,::::2:::22OO:2*2:**2.:.**:***",
".*2O:O2*:O:O*.**2.:::2.::4OO**2OO***::4:::O:**:2*:2:::*:****.**:",
".*:O2:**:O:.**:**:.::OO:4:4:***:22:::8::::OO*2::2:*2::O*:***O2::",
"2*:OO*::::O:*3**@.*::*:**:****O:::.:*;****2*2.O:O::..::*::2*.*:O",
"**:::::2OO:***2**.::2****:;***4O:::4**3*..**.*:.:22*:4.2::.::*:*",
"*2::::O4O:2OOO:2****O2* @*:****4,O:2*2::*##::*:O:1::**::*:##::::",
"O::24:O::41O:2:O**4:.:*o.*:****;2OO:::::**:::*:::::2 ooOo**#*#*%",
":*2::O2,4OO2::4::::::*O::O::.*4:42O21:O***2*::X2:+::@*::*:oo:#**",
"::4:*2,22:242::::2:::2:**O::O:.O4,2O:*******::O4::::**4O****#:#.",
"O:::O:O:*:,O42:42*2***O:**:1::1+OO:::.2.*::**:**:o*o::1:::;3*#**",
"O4*222::*:::4O,:::O:2*::**::32::2:2:O2**O:***::%:O**::;;##:;**;*",
":OOOOO2O:O2,44O:.O4::*::***:*2:1:::4*3***:.*.:::*****#*:*#*#=;=*",
":444:42::44211:O4,2O:::.*2;:*::4:O4:4*@**:..:::;******;=:*#*::;:",
":O44444224:2114::2O2OO:O**2::O444::4O:.:****<@::::O::.2**.=**.:O",
"4O44244O:,O4O4,.*2O44:::*2*::O::::O:44::***=*3**2::2::***.*@***O",
"1,44,OO4:4O1441:*:4O:2::*o*:,O::2:2:24:2**.**:*:4O:2:::O*@@**.*.",
"117444O::4444O1+O4O:2444**:2:2242:22O:***2.:=::::,:..::****.****",
"4:41O,44O441414744O2:4O::::O::O:::444::::2*O2:O:,OO:::.2****@:::",
"OO4144411144::4444,,44O4::44::2:::4O::2OO:::**22:4,:.O*2*#****::",
"24,4444144144444O441422:OOO:O22*2:**:::O:1OO**O::4::2::.*#**2*:.",
"2O444144141111114441::3224:::4:2:22.22O:,1:2O::::O:2.::.******O:",
"4O24O4417141411444O4:::422:212:.*::::2:2O::::::::OO:::*2##;;:::o",
"O44,1O14,44414144411:4:::O::::2:O:.22:::::O2*:O:O::::*2.#:1::::#",
"11O,41444O4144711744::22424142:::4:12:::*****.****::O:O*#;:::2*:",
"71474114O:144447474441::4144::444O4:4:4:***********O:*::**:::::X",
"1774777441474141414144OO14114OO444:::::4::4:4,2*2*:OO*:.*2:2OO2:",
"144147741O4O41741444144O44,+114,1::2:2:4:::41:::2:22222::O:2:::O",
":144,41744444117144O441O4474444144:2:3*:44:14:::OOO,2O2:22::::2*",
"OO11+OO444744O1444,444414441:111O4:222*444O:O:::2:2:2O:::::O22:*",
"4,:,11:1114:14O4444414414,:OO2414144O44444O:*2::22O:::O22:*:2:::",
"4:O::O441144444:14474114124:24O4::O1:1:,444:*2:*:::24:O24O2:**O:",
"O4+44:++:444144O174141412:O::14144:44:O441:132:22:::424O4OO:**::",
"4::4+4O:O:O::4O1444114O:2::42OOOO:1:4O444144:::22::2:,:::O42*.O:",
":O:O14:14OO:141411444::1:O1O::O2O,44441414144:4::OOO22O:::O::2**",
":O:::1:144444O:111114::::42O44244441OO1441444OO24:24:2.*O:::*.:*",
"21:1O::14::44O4O14411:::O42:44O244:4221OO441+44::2OOOO:2::::*2.:",
":,1O14:::::::14444O:14+::OO:,OO24O,:2O44O:44O22:::OO2::::O:**.:.",
":O+:%:1:O::::+41O++:1O:::2OO:O:44O::2O::.222**:O41::2*2.**.*****",
"::14:%11OO1::O144:::O:4%2:22O:4O4:24::.224***34444O***2:*****=**",
"+:++11X11:+:+::4+:4O1:1::O::44::*::OO:2*:.:O*:::::::.*2:..:.::*=",
"1::X:%&&OO1141OO:::O4OX:::2::*%:*:2O:O:O:OO:*::42O***::OO2**::=*",
"O:1:X+:&O::1O1O12+::%%#::2O:1;:::O::*O:::4.:2*2*.*:*O:::4O:OO::O",
":::::+&1+:1::::O%:*1*1%:O::.::::::OO::2.::2.**.*2.**.:*::O:4:X::",
"4:1:1:&&X%:::::O%4*1%*X1+::::1::OOO::O.OO:****.*:O::2***:O:::O::",
":O+4:+&&X:.X:::o%;$::1X4:X::%*%:1:::444:::.2::2.O:O:.**:O::O::O:"
};
