/* XPM */
static char *floor1712085558[] = {
/* columns rows colors chars-per-pixel */
"64 64 24 1 ",
"  c #F8CFE1",
". c #F7D0E2",
"X c #F7D0E3",
"o c #F7D4E1",
"O c #F6D4E2",
"+ c #F7D5E4",
"@ c #F7D4E5",
"# c #F7D7E6",
"$ c #FAD0E2",
"% c #F8D5E3",
"& c #FAD5E3",
"* c #FAD6E3",
"= c #F8D3E4",
"- c #FAD3E6",
"; c #FBD3E6",
": c #FCD3E5",
"> c #F8D7E4",
", c #FAD5E7",
"< c #F8D8E7",
"1 c #F9D7E8",
"2 c #FBD6E8",
"3 c #F9DAE9",
"4 c #FBDBE9",
"5 c #FCD8E8",
/* pixels */
".=:: ;@=  ;1@======:==;@=;1===1;@==$,<*==2==@<11=1*=1===:==<====",
"==:  ;=  =@@;@ =====;;; ====;=;1====$,=11=5==<5=2====O:====2=$,5",
"::   ==:; ;12=:: : = ;=;:  ==11=$,$=O11=222=<,=*=2511$$==1=$,:,$",
"== $:=:=;;;;=:==:===1== == ====;1==,1=5===22$<,,===$21=*51==$1=2",
"===: ===;;  == ;===:55X ===::==1:=$=$,*=*$====22=$=2.==2 1*<=2=2",
" ==   ;;@=;: ::==:==$1=@: ====;===2*1,==,,=152==15 1==1=1$@===1$",
"== =  2=  == := == 21=1=;=:=:==22=*,,=1=, $*,,:==2 O=,,.==1$=$,,",
"== :::=:==;;;==:=== *1*11@ =1=:=*2,,,1;2,,,=*,=1==*X=5,$====1==*",
" =;= ==:==;@= =2,=====1===@@==1.=1,,11=,522=*,:5====,,,=1:1,*1==",
"; ;===:==;;  ==;1:==,= 2,=:$:2 112=*.$=5=$=2,,===1==$$,1@.==$$$1",
"=   =;;==;@====:=====:,2,=*@=22  22==11O*,==,,1=:=2=,$2111*2=11*",
" ;===;== :==;; ===::=:   =.11$1 ==*1.:=$$,,,2,=O=2===O 2=2==,1==",
";=====:; == == ;====XX$ =2 2 =; 2=5=O5O1*==2*=$@2$=11 ===.$$=$==",
" ;;  : ==;=::::@===2=X1*=== =*@1=2=$=$==$12==:11$=$12:; 1*,1 2=1",
":=;X;  ====;==;@=<,,==1$,12$2*=*=1=,@.=515$11$$$==1*==1O==$112=2",
"=;===;;=1======1==*11$5==21=$12,1=1=51==.=1O=2==12 ===*21===5=2 ",
";===========1=1==2=$=1=1===11==,5=2==*5=X*1==22==2==2$5#1=,$=12$",
";=:=;==:@$:1:===,=1=$5$1==5===11#=2====,=,$===O==122===@=@====1=",
"==;=1=====,==1=;$,*.*11*=#5=22 =1<<=1,,,5=$1==5.==$1115..==@==$=",
"=;;1=@1;==$$=:;1,,$$=11=@@1@$12$=<=$,,=2115=5===1*,,1=1$===5=1$2",
".1=O;1=;=$@. *1=11==11 215@@*,,21==5,,*2==$2,$@$==:==2 2==2=5=1=",
".$5$;====1*@=$,  $$1=:$$1==5$$,=2==.,,==,*==,1=1222=5==*:=:=$1$1",
"1 1,2 ;1=1 1=11*$@$12====11=====*,=2,:2 ==2 ==@O$2=*$1*,2=,=@=,*",
"1=1===1;====2=1$ *2=2,==:=:$ ,1==$,<,:2======$=$=5,,=1 12=.@*:= ",
",2=2* ===,=<==$== 2===: ==:==2,=2O=1*12=1$.:==$11=2==11 $1 ===2=",
"==<=<21$11==2=5*=12===========,*1=1==2*:=$1=:1155$2= X    === 2=",
"1$,,213=2<=3=2:1=*=1,*,,=11===,<5<@<=1= =12 1=1=1.1= 11 ==$== ==",
"@**,=13===<<2=211,$,,:=,====O$$==1=11=;:$$,1====<===;2;122@= : =",
"=111=,2$2**=1;*==11==$===:=;=:,=*$:=$=$5:=21 1:=$@$==;15:=;2:==2",
"=:=5<$== 1111111=*=X2=O1:==12:,,@,,1===@ ;.$ 2==* ==1@=:==:;=:=:",
",*=O,*=*1215#<@O=$@11$,==:1;12=<1==115===2===2:1=:=:;@ ;=== :::=",
",,@<,<11*=1=<<=$1151=,*$:===2==<==5=1=$=1=X @$=1====;=;:=::=====",
"*,<3<<521511<<=<1<<@==5=*,,2==1<,21=2@$=2==:===2====:=:: ===1=;=",
"=<<3<5#1O@*@1#5.$=5=11$==$,===*5=*=15<1===:=:;:=211:======::==@=",
"51#31====5#1=<5@O<55=21===@,1==22:==5=1===  =;==5@;=,==@: =  = =",
"@5535@O11551<<<51<==151=:=O5=25:21:51*,:=== =;=1@=;1=,=@=== ====",
"#@<<==511<<<<1#<=<1@1==521=,*$=2:=1<1=1$$1112=,,<12=*@=$=====1==",
"=5<<1#3<@<535=5<5<=<555#=2,,,*=,==15=1,,2=*= *,1=1==$ *2= ::;=:=",
"111#5523353<55<<<#5<<,=1=$*=,,,,22=12,*=#1=.=1 = =22=1= =:===;:=",
"5<=51153=<<<<<<<55#1=12211=2<<,1$1*$,=@==@52=**,11=2@=2= =====:=",
"5=<<1<35<3<1#,5#1#==12=,25=1#1=$=,2$,<,:*$,,=222== =*1=$=;1;== =",
"1@<1==<<#5<<#5<<<5112=,,1==52=5===*,,,*,==*,:== ==2*=211X;2;=1==",
"<1@<<=15==<<5333<533,,,*,5#=51=5@==5<=,,==$=:=:===22=2=$=;====:;",
"<<5531<<11<<35#5353<,=*<133<@==5#151:*<,=2$====:,= 1= =$==;11;12",
"333<3335<<155<<<<3<<<<*,3353=11=312*==,522=115*=,,*=O1==2=,< $1=",
"15<<3333111@1<3<3<5<<<<==4@#<<51<1:522,5<$1#5=,,,,3=11221$*,221=",
"=1311<435<1<<5<<<11@=5==153<<<<<=1:,===,<1=5==,,@1=11=1=$1,$1===",
"O2<#@5=5<355<1155<5<<5<13355=<<<21<=2,,555=5#O2$=*2=;1:=*<,=151$",
"11@=11=3=<2<=<1=<5<3<<<<<=2==55#<@3<1=<<<5,,:1=21==1==<<51==,=21",
"=5O5=@<5<<115<515<3<<3<5<111<<<1==15111#<=,1$22=;12=1=$,5==52** ",
"11@5<11=1=1:#5<1335=5<<=1  22=#*5=*==<15<<*@1==12=2=251=1@#===1 ",
"O5=5@5@*O121<@1#3551<111=*,11O=,2,,,<==55<<122*:2=:===2=$=3=== ;",
"1$5=#5O1=<*1<5=<<1#<=1==121=1=<<<=555#<<3<<5<1=2,<==1=1;=2:====2",
"=@=>##1555=#1O=<5<<<55$*=1==<<,<<<=#5=<<5#<<5@11,,5@12=====2,===",
"5#=@>*=15151=.12<<5@51,,==21<==,5#5533#=@#5<1<5 ***@1=1=2==:====",
"1@=5<5*= @=#51<5<<#1<=1==<*<,,5,5O11@5=O<5<5@5=1=2==*=*==:==:=:=",
"1*<@O*=*@=@===<<1211=1=51O=*=$2=1@511=2=$1222*=211=1=12$=  2=$==",
"=1=<5*15=O5=1<<5=*:.O1=*=51,=2=11==<$=$51====:=1=5=@:$1= 2 1$21$",
"5@=<=@>><<=*@1=5@<5<=1=O==1=1,;===22==O=1$$1=221=1* .==1$.=$2=O*",
"1O*<<==O==5<5@*1@=1=5$*O,,2=*, 1$1==1*2= 1O=1 =5=111$5=@15@O=,.@",
"$1,=@O=*=O11=1@#=,,===O*,,,$,*:1$11$$===1,$=111 :===$==15@2 $=2$",
"=1,,5=*5>$1=1O==1=,*,,*>=,5=,=*=@==5=11===,*==$1=O=1===5=.:22O=2",
",1*=1*****1*@*$#=**,**>#1==*,*$=5O@=11$O2==*,=.@.2:==2..5@=1<$$=",
"*1O5#**O*O 1$<=$$**=1====$*@**<O>@$*13=====,,$$$1 ;1$=1@$@=@**<="
};
