/* XPM */
static char *_71711898839[] = {
/* columns rows colors chars-per-pixel */
"64 64 226 2 ",
"   c #29161A",
".  c #381815",
"X  c #32211B",
"o  c #231D22",
"O  c #391E25",
"+  c #2F252B",
"@  c #362B29",
"#  c #3D2E30",
"$  c #383337",
"%  c #571507",
"&  c #5A1C0A",
"*  c #531C11",
"=  c #671A0A",
"-  c #58220E",
";  c #482518",
":  c #4D251C",
">  c #5B2311",
",  c #592619",
"<  c #5F2B1B",
"1  c #6B2D01",
"2  c #67260B",
"3  c #63220E",
"4  c #732E0E",
"5  c #7C2B0F",
"6  c #612314",
"7  c #6C2A14",
"8  c #66271A",
"9  c #6C2C1A",
"0  c #732414",
"q  c #7D2617",
"w  c #742A14",
"e  c #7B2C15",
"r  c #75251B",
"t  c #742C1A",
"y  c #7B2D1B",
"u  c #6D3019",
"i  c #733016",
"p  c #7D3114",
"a  c #713915",
"s  c #74341B",
"d  c #7A321C",
"f  c #741F26",
"g  c #482926",
"h  c #562B27",
"j  c #4A322C",
"k  c #56382B",
"l  c #4D3637",
"z  c #662523",
"x  c #7A2B26",
"c  c #673328",
"v  c #6E3B2D",
"b  c #763323",
"n  c #7D3322",
"m  c #7C3A24",
"M  c #7D3429",
"N  c #763A2B",
"B  c #653933",
"V  c #793A34",
"C  c #64403D",
"Z  c #7D4A38",
"A  c #373D4D",
"S  c #3C414D",
"D  c #574648",
"F  c #454A58",
"G  c #6B4944",
"H  c #784641",
"J  c #60504A",
"K  c #515966",
"L  c #872C0E",
"P  c #83340D",
"I  c #9D340D",
"U  c #832D14",
"Y  c #842E1D",
"T  c #882B18",
"R  c #912F14",
"E  c #843114",
"W  c #8A3214",
"Q  c #83331C",
"!  c #8C341B",
"~  c #83381F",
"^  c #8D3A1E",
"/  c #953415",
"(  c #9A3615",
")  c #92361B",
"_  c #933A1D",
"`  c #9C3B1C",
"'  c #A63915",
"]  c #8A1C34",
"[  c #901932",
"{  c #832D23",
"}  c #892629",
"|  c #852D2B",
" . c #8B2E2C",
".. c #843324",
"X. c #8B3522",
"o. c #853A26",
"O. c #8B3B25",
"+. c #86332A",
"@. c #843C2A",
"#. c #8D3D2A",
"$. c #953C24",
"%. c #923A29",
"&. c #862A33",
"*. c #8C2C33",
"=. c #8D2D3B",
"-. c #932D3B",
";. c #952D38",
":. c #8B3332",
">. c #8A3538",
",. c #933435",
"<. c #94303E",
"1. c #943A38",
"2. c #B84411",
"3. c #85452B",
"4. c #8C422C",
"5. c #9A4223",
"6. c #94442B",
"7. c #9B462B",
"8. c #914F2F",
"9. c #9D492C",
"0. c #884936",
"q. c #954535",
"w. c #934C32",
"e. c #9C4D33",
"r. c #9A4E39",
"t. c #8C5436",
"y. c #935132",
"u. c #995539",
"i. c #9B543B",
"p. c #A9482B",
"a. c #A15035",
"s. c #A65B3D",
"d. c #AC623E",
"f. c #B1623E",
"g. c #C85E3A",
"h. c #961942",
"j. c #B91A5F",
"k. c #962C41",
"l. c #9A2E45",
"z. c #9D2D4C",
"x. c #963040",
"c. c #993145",
"v. c #9E344B",
"b. c #9E2C52",
"n. c #A72B48",
"m. c #A12E4D",
"M. c #A4364D",
"N. c #A32E54",
"B. c #A72E59",
"V. c #AB2F5D",
"C. c #B82752",
"Z. c #A43155",
"A. c #A83655",
"S. c #AB305D",
"D. c #B53857",
"F. c #B12E65",
"G. c #B02F68",
"H. c #AD3162",
"J. c #AC3A64",
"K. c #B13165",
"L. c #B5316B",
"P. c #B73869",
"I. c #BD2F78",
"U. c #B73071",
"Y. c #BA3174",
"T. c #BE3179",
"R. c #C61B74",
"E. c #D61C7A",
"W. c #C43767",
"Q. c #CD3574",
"!. c #C1327E",
"~. c #E4227D",
"^. c #8B4F49",
"/. c #9B5845",
"(. c #954953",
"). c #A85E46",
"_. c #AE5455",
"`. c #9C6340",
"'. c #A56346",
"]. c #AA644C",
"[. c #B76846",
"{. c #B26F54",
"}. c #BB7C54",
"|. c #B0486D",
" X c #B37D69",
".X c #CA744E",
"XX c #C77D56",
"oX c #C1476B",
"OX c #CB4876",
"+X c #C68A5B",
"@X c #D38455",
"#X c #EA9256",
"$X c #EA9561",
"%X c #F39B62",
"&X c #C53385",
"*X c #C83386",
"=X c #C73389",
"-X c #CB338E",
";X c #DD3089",
":X c #CD3391",
">X c #D13497",
",X c #D4339B",
"<X c #E72987",
"1X c #E92D8B",
"2X c #E7318B",
"3X c #EC2C93",
"4X c #ED3397",
"5X c #EE3A9B",
"6X c #F53B9A",
"7X c #F338A3",
"8X c #D34B8C",
"9X c #EB4294",
"0X c #E14C92",
"qX c #F4439F",
"wX c #D46499",
"eX c #DD4BA6",
"rX c #F647A7",
"tX c #EA59AD",
"yX c #F752AB",
"uX c #FB4CB7",
"iX c #F757B7",
"pX c #E267A9",
"aX c #FD55C1",
"sX c #FD5DC5",
"dX c #FB65C8",
"fX c #F56AC9",
/* pixels */
"4 4 4 4 4 4 4 4 4 4 4 4 4 4 4 4 4 4 4 4 4 4 4 4 4 4 4 4 4 4 4 4 4 4 4 4 4 4 4 4 a 4 4 4 4 4 4 4 4 4 4 4 4 4 4 4 4 4 4 4 4 i 4 4 ",
"4 4 1 1 1 1 1 1 1 1 1 1 1 1 1 1 1 1 1 1 1 1 1 1 1 1 1 1 1 1 1 1 1 1 1 1 1 1 1 1 1 1 1 1 1 1 1 1 1 1 1 1 1 1 1 1 1 1 1 1 1 1 4 4 ",
"4 1 x c.<.<.x.<.c.<.k.c.c.<.<.c.x.x.x.k.x.x.x.x.x.x.x.x.x.x.<.k.x.x.x.x.x.x.x.x.c.x.x.x.<.x.x.x.x.x.x.x.c.<.x.<.<.x.x.<.c.{ 1 4 ",
"4 1 c.,X-X:X-X-X-X-X-X-X-X-X-X-X:X:X=X=X=X:X:X:X-X:X:X=X-X-X:X-X-X:X-X-X:X-X-X:X-X-X-X-X=X:X:X:X-X:X-X-X-X:X-X-X-X:X-X-X>Xc.1 4 ",
"4 1 <.-X&X!.&X&X&X&X!.&X&X!.&X&X&X&X&X&X&X&X&X&X&X&X&X&X&XT.&X&X&X&X&X&X&X&X!.&X&X&X&XT.&X&X&X&X&X&X&X&X!.&X&X&X!.&X&X!.*X<.1 4 ",
"4 1 <.-X&X&X&X&X&X&X&X&X&X&X&X&X&X&XT.T.&X!.V.Y.&X&X&X&X&X&X&X&X&X&X&X&X&X&X&X&X&X&X&X&X&X&X&X&X&X&X&X&X&X&X&X&X&X&X&X&X:Xk.1 w ",
"w 1 <.-X&X&X&X&X&X&X&X&X&X&X&X&X&X&X&.y T.F.> >.*X&X&X&X&X&X&X&X&X&X&X&X&X&X&X&X&X&X&X&X&X&X&X=X&X&X&X&X&X&X&X&X&X&X&X!.-Xc.1 4 ",
"4 1 c.-X!.&X&X&X&X&X&X&X&X&X&X&X=X!.M ,  .<.* w L.*X&X&X&X=X&X&X&X&X&X&X&X&X&X&X&X&X&X&X&X&X&X&X&X&X&X&X&X&X&X&X&X&X&X&X-X<.1 4 ",
"4 1 x.-X&X&X&X&X&X&X&X&X*X&X&X&X=X&X>.g ; 9 @ - N.=X&X&X&X*X&X&X&X&X&X&X&X&X&X&X&X&X&X&X*X&X&X&X&X&X&X&X=X&X&X&X&X&X&X!.-Xx.1 4 ",
"4 1 x.-X&X=X&X&X&X&X&X&X&X&X&X&X&X=Xk.. + $ o * l.=X&X&X&X&X&X&X&X&X&X&X&X=X&X&X=X&X&X&X&X&X&X&X&X*X&X&X&X&X&X&X&X&X&X&X-Xx.1 4 ",
"4 1 <.:X&X&X&X&X&X&X&X&X&X&X&X&X=XG.x h j j B b *.&X&X&X&X&X&X&X&X&X&X&X&X&X&X&X&X&X&X&X&X&X&X&X&X&X&X&X&X*X&X&X&X&X&X&X-Xx.1 4 ",
"4 1 k.-X!.&X&X&X&X&X&X&X&X&X&X&X=Xx B ^.H j h :.r N.*X&X&X&X&X&X&X&X&X&X&X&X&X&X&X&X=X&X&X&X=X&X&X&X&X&X*X*X&X=X&X&X=X&X:Xx.1 4 ",
"4 1 x.-X!.&X&X&X&X&X&X&X&X&X&X&X&X+.B Z Z k g %.b x Y.*X&X&X&X&X&X&X&X&X&X&X&X&X&X&X&X&X&X&X&X&X&X=X&X&X&X&X&X&X&X&X&X&X-X<.1 4 ",
"4 1 x.:X&X&X&X&X&X=X&X&X&X&X&X&X&X} , v V M ..#.X.q l.*X&X&X&X&X&X&X&X&X&X&X&X&X&X&X&X*X&X*X&X=X&X&X&X&X*X&X&X&X&X&X&X!.-Xc.1 4 ",
"4 1 x.-X&X&X=X&X&X&X&X&X&X&X&X=Xm.6 h V O.b #.%.Y Y Y U.*X*X*X!.=X&X&X&X&X&X&X&X*X=X&X*X&X&X&X&X&X&X&X&X&X&X&X&X&X&X&X&X-Xc.1 4 ",
"4 1 x.-X&X&X&X&X&X&X&X&X&X&X=XV.c g j c { b $.W X...U *.*XY.1.1.U.*X&X&X&X&X&X&X&X&X&X&X&X&X&X&X&X&X&X=X&X&X&X&X&X&X&X&X-X<.1 4 ",
"4 1 <.-X&X&X&X&X&X&X&X&X&X&X=Xv.J F o g x 0 T L @.#.Y Y z.k.3.i.v.:X&X&X&X&X&X&X&X&X&X&X&X&X=X&X=X&X&X&X&X&X&X&X&X=X&X&X=Xx.1 4 ",
"4 1 c.-X&X&X&X&X&X=X&X&X&X&X=XJ.k A + g z } T i./.r.Q ..A.M.^ a.+.S.!.*X&X=X&X&X&X&X&X&X&X&X&X&X&X&X&X&X&X&X&X&X&X&X&X&X:Xx.1 4 ",
"4 1 x.-X&X&X&X&X&X&X&X&X&X&X&XT.b @ O : r ;.r /.]./.O.Q n.~.0X_.e.7.1.v.c.B.&X&X&X&X&X&X&X&X&X&X&X&X&X&X&X=X&X&X&X&X&X&X:X<.1 4 ",
"4 1 x.:X&X&X&X&X&X&X&X&X&X&X&X&XH.x z | U.I.{ O.)./.7.E Q C.qXP.0..X.Xf.d.8.Z.=X&X&X&X&X=X&X&X&X&X&X&X=X&X&X&X&X&X&X&X&X=Xx.1 4 ",
"4 1 <.:X!.&X&X&X&X=X&X&X&X&X&X&X=XT.L.T.*X=X<.4 r.).7.W ! D.6X9XV Z [.g.p.).1.=X=X&X&X&X&X&X&X&X&X&X&X&X&X&X&X&X&X&X&X&X:Xx.1 4 ",
"4 1 c.-X&X&X&X&X&X&X&X=X&X&X&X&X&X=X=X&X&XY.,.+.m r.6.) X.W.6XrXP.; v e.e.^.b k.U.=X&X&X&X&X&X&X&X&X=X&X&X&X&X&X&X&X&X&X:Xx.1 4 ",
"4 1 x.-X&X&X&X&X&X&X&X&X&X&X&X&X&X&X&X&X=Xx.8X8Xw 3.6._ ;.<XqXrXD.a h t.XXu.s.#.q m.&X&X&X&X&X&X=X&X&X&X&X8X&X&X&X&X&X&X=Xx.1 4 ",
"4 1 <.-X&X&X&X&X&X&X&X&X&X&X*X&X&X&X&X&X=Xx.0X6X} d 4.6.P.6XyXqX%.P v w.[.#Xi.'.Y 0 k.=X&X&X&X&X&X&X&X&X&X&X&X&X&X&X&X&X:Xx.1 4 ",
"4 1 <.-X!.&X&X&X&X*X&X&X=X&X&X&X&X&X&X&X=Xx.eX3X;.y +.D.0XyXrX9X%.P 8 Z ; }.XXd.$.R e S.*X&X&X&X&X&X&X&X&X&X&X&X&X&X&X&X=Xx.1 4 ",
"4 1 x.:X&X&X&X&X&X&X&X&X&X&X&X&X&X&X&X=XK.A.sXE.} q b.iXyXqX2XOX^ E 2 i   u $Xd./ ( L ;.&X&X&X&X&X=X&X&X&X&X=X&X&X&X&X&X-Xx.1 4 ",
"4 1 k.-X&X&X&X&X&X&X&X&X&X&X&X&X&X&X&X&Xx |.aXR.b.OXtXiXqX9XA.,.X.T 7 ) 2 < %X@X/ I R  .&X&X&X&X&X&X&X&X&X&X&X&X&X&X&X&X:Xx.1 4 ",
"4 1 c.-X&X&X&X&X&X&X=X&X&X&X=X&X&X&X=XK.f eXuXuX7XiXiX6X2XoX'.o._ ) 7 ` I s #X@X^ I L | T.&X&X&X=X&X&X&X&X*X&X*X&X&X&X&X-Xx.1 4 ",
"4 1 <.-X&X&X&X&X&X&X&X&X=X&X&X&X&X&X=XB.J.sXuXeX5XtX7X;XoX/. Xi.` W 9 ^ 2.a @X4.U I e | &X&X&X=X&X&X&X&X&X&X&X*X&X&X&X!.-Xx.1 4 ",
"4 1 c.-X&X&X&X&X&X&X&X&X*X*X&X&X&X&X=Xb.|.sX7X2X5X3X;XF.{ r. X].! Q w Q 2.u }.3.) ( p *.&X&X&X&X&X&X=X&X&X&X&X*X&X&X&X&X:Xx.1 4 ",
"4 1 <.:X!.&X&X&X=X&X&X*X&X&X&X&X&X&X=X=.^.sX3X3X3Xj.h.N q 6.{.).^ Q p p 2.v +X8.! ` p >.*X&X&X&X&X&X&X&X&X=X&X&X&X&X&X&X:X<.1 4 ",
"4 1 x.-X&X&X&X&X&X&X&X&X&X&X*X&X&X&X=Xk.wXdX4X;X<X] 8 x b X.].].6./ E 4 I 0.}.t.t ^ e A.=X&X&X&X&X&X&X&X&X&X&X&X&X&X&X&X-Xx.1 4 ",
"7 1 x.-X&X&X&X!.&X&X&X=X=X&X&X&X&X&XY.x.fXaX<X1X~.[ = T d ! 7.].p.( E Q ( i./.`.@.Q y T.=X*X&X&X=X&X&X&X=X&X&X&X*X&X&X&X-Xx.1 4 ",
"4 1 x.-X&X&X&X8X&X&X&X&X&X&X&X&X&X&X=X:.(.uX7X4X~.[ = T Y ) ` 9.` ! _ X.' i.`.'.4.` Q T.&X&X&X&X&X&X&X&X&X&X&X&X&X&X&X&X-Xx.1 4 ",
"4 1 x.-X!.&X&X&X&X&X&X&X&X&X&X=X&X&X&X!.x 8XdX6X~.[ % = r X.) e.d O.g.X.W e 0.c q ` { T.&X&X&X&X&X&X&X&X&X&X&X&X&X&X&X&X-Xx.1 4 ",
"4 1 x.-X&X&X&X&X=X&X*X&X&X&X&X&X&X&X&X=XS. .pXiX~.[ % % r q Q w.a.^ ^ e L { z   q /  .&X&X&X&X&X&X&X&X=X&X&X&X&X&X&X&X&X-Xx.1 4 ",
"4 1 x.=X!.&X&X&X&X&X&X&X&X&X=X&X&X&X&X&X=Xv.wXdX<X[ & & :.{ ..#.$.W w R L  .z o U W k.=X&X&X&X&X&X&X&X&X&X&X&X*X&X&X&X*X-Xx.1 a ",
"4 1 x.:X&X&X&X&X&X&X&X&X&X&X&X&X&X&X&X&X&Xc.pXfX3XC.& & S.<.Q X.^ Q x / R X.h o 0 U N.*X&X&X&X&X=X&X=X&X&X&X&X&X&X&X&XT.-Xx.1 4 ",
"4 1 x.:X&X&X=X&X&X&X=X&X&X&X*X&X&X&X&X&X&Xc.wXsX<X-.> & S.b.d X.! Y *.7.^ *.z   8 U b.=X&X&X&X&X&X&X&X&X&X=X&X*X&X&X&X&X-Xx.1 4 ",
"4 1 x.:X&X&X&X&X&X&X&X&X&X&X&X&X&X&X&X&X&XM.fXuX1X;.6 & B.S.y ! W Y =.` W z.z.& t e z.&X&X&X&X&X&X&X&X&X&X&X=X*X&X&X&X&X:X<.1 4 ",
"4 1 x.-X&X&X&X&X&X&X&X&X&X&X&X&X&X&X&X&X&Xx.wXfXQ.e 8 & Z.L.i ~ L { ;.5.P B.-X-.4 p z.*X&X&X&X&X&X&X&X*X&X&X&X&X&X&X&X&X=Xx.1 w ",
"4 1 x.-X&X&X&X&X=X&X&X&X=X&X*X*X&X&X&X&X=XV.X.(.,.{ t & l.!.y ~ U  .,.e.d U.:XB.2 d N.-X&X&X&X&X&X&X&X&X&X&X=X&X&X&X&X&X:Xx.1 4 ",
"4 1 x.:X&X&X&X&X&X&X&X&X&X&X&X*X&X=X&X&X&X=XF.z.T.l.t > &.&X{ ! U *.1.w. .*X-XB.7 s N.*X&X&X&X&X&X&X&X&X&X*X&X&X&X&X&X&X-Xx.1 4 ",
"4 1 x.-X&X&X&X&X&X&X&X&X&X&X&X&X&X&X&X&X&X&X-X*X-Xk.m , r &X:.$.W | q.y.k.-X*XH.7 s N.-X&X&X&X&X=X&X&X&X*X*X&X&X&X&X&X&X-X<.1 4 ",
"4 1 x.-X&X&X&X&X&X&X&X=X&X&X&X&X&X&X&X&X&X&X&X&X=Xv.d 6 r Y.:.4.#.0 0.w.m.-X=XV.i o.z.*X*X&X&X&X&X&X&X&X&X&X&X&X&X&X&X*X:Xx.1 4 ",
"4 1 x.:X!.&X&X&X&X&X&X&X&X&X&X&X&X&X&X&X&X&X&X&X=XB.i 3 r !.| O.! 4 r.3.N.=X-XB.u m l.=X&X&X&X&X&X&X&X=X&X&X=X&X&X&X&XT.-Xx.1 4 ",
"4 1 <.-X&X&X&X&X=X&X&X&X=X&X&X&X&X&X&X&X&X&X&X&X=XK.d = r &X,.d Q 4 q.m B.-X=XV.u v l.=X&X&X&X&X&X=X&X&X*X&X&X&X&X&X&X&X-Xx.1 4 ",
"4 1 c.=X&X&X&X&X&X&X&X&X&X&X&X&X&X&X&X&X&X&X&X&X=XY...> r &XZ.s Y 4 4.b F.*X=Xm.< u z.=X&X&X&X&X&X&X&X&X&X&X&X&X&X&X&X&X:Xx.1 4 ",
"4 1 c.-X!.&X&X&X&X&X&X&X&X&X=X&X&X&X&X&X&X&X&X&X&XT.+.6 r T.K.s d 9 B t U.=X&X&.$ @ &.*X&X&X&X&X&X&X&X&X&X&X&X&X&X=X&X&X=Xx.1 i ",
"4 1 <.-X&X&X&X&X&X&X&X&X&X&X&X&X&X&X&X=X&X&X&X&X&XT.+.8 7 Y.Y.b y D S : V.*X!.f $ @ x &X&X&X&X&X&X&X&X=X&X&X&X&X&X&X&X&X:Xx.1 4 ",
"4 1 x.-X&X&X&X&X*X&X&X&X&X&X&X&X&X&X&X&X&X=X&X&X=XT.@.8 = H.Y.M b B j , L.=X&XV.=.=.H.&X&X&X&X&X&X&X&X&X&X=X&X&X&X&X&X&X:X<.1 4 ",
"4 1 c.-X&X&X&X&X&X&X&X=X&X*X*X*X&X=X&X&X&X&X&X&X=XT.O.z 3 H.I.@.b w m.L.&X&X&X&X&X&X=X&X&X&X&X&X&X&X&X&X&X&X&X&X&X&X&X&X=X<.1 4 ",
"4 1 <.-X&X&X&X&X&X&X&X&X&X*X&X&X=X&X&X&X&X&X&X&X=XV.0.k r &XU.@.N w Y.-X&X&X&X&X&X&X&X&X&X&X&X&X=X&X&X&X&X&X=X&X&X&X&X&X:Xx.1 4 ",
"4 1 c.-X&X&X&X&X=X&X&X=X&X&X&X&X&X&X&X&X&X&X&X&X&X:.G j 8 Y.Y.m N 9 H.=X&X&X&X&X&X&X&X&X&X&X&X&X&X&X&X&X&X&X&X&X&X&X&X&X:Xx.1 4 ",
"4 1 <.:X!.&X&X&X&X&X&X&X&X=X&X&X&X&X&X&X&X&X&X=XV.C F + * B.I.>.H t Y.=X&X&X&X&X&X&X&X&X&X&X&X&X&X&X&X&X=X&X8X&X&X&X&X&X=Xx.1 4 ",
"4 1 x.-X&X&X&X&X&X&X&X&X&X&X&X&X&X&X&X=X&X&X&X*XN.k $ . - U.F.0.G 7 L.=X&X&X&X&X&X&X&X&X&X&X&X&X&X&X&X=X&X&X!.&X&X&X&X*X:Xx.1 4 ",
"4 1 x.-X&X&X&X&X&X&X&X&X&X&X&X&X&X&X&X&X&X&X&X&XI.-.&.;.V.=X>.D l g z.*X&X&X&X&X&X&X&X&X&X&X&X&X&X&X&X&X&X&X&X&X&X&X&X&X=Xx.1 4 ",
"4 1 x.:X&X&X&X&X&X&X&X&X&X=X&X&X&X&X&X&X&X&X&X&X=X=X&X&X=X&Xb K S X k.*X&X&X&X&X&X&X&X&X&X*X&X&X&X=X&X&X&X&X&X&X&X&X&X&X-X<.1 4 ",
"4 1 x.-X&X&X&X&X=X&X&X*X&X&X&X&X&X&X&X&X&X&X&X&X&X&X&X&X&X&X>.k g < V.&X&X&X&X&X*X&X&X&X&X&X&X&X&X&X&X&X&X&X&X&X&X&X&X&X:Xx.1 4 ",
"4 1 x.*X!.&X!.&X&X&X&XT.&X&X&X&X&X&X!.&X&X&X&X!.&X&X&X&X!.&X!.Z.m.P.&X&X!.&X&X&XT.&X&X&X&X&X&X&X&X&XT.&X&X&X&X*X&X&X&XT.=Xx.1 4 ",
"4 1 v.>X=X-X:X-X-X-X:X-X=X-X-X-X-X-X:X-X-X-X:X-X-X-X-X-X:X-X:X>X,X:X:X=X-X-X-X-X:X-X-X-X-X-X:X-X=X:X:X=X-X:X-X-X-X:X:X=X>Xl.1 w ",
"4 1 { l.<.c.c.<.<.c.<.<.x.x.x.x.k.<.<.c.c.x.x.<.-.k.c.k.x.x.x.<.<.x.x.x.k.k.x.k.x.x.x.x.x.x.x.x.x.x.x.c.x.x.x.x.x.x.x.<.c...1 4 ",
"1 4 4 1 1 1 1 1 1 1 1 1 1 1 1 1 1 1 1 1 1 1 1 1 1 1 1 1 1 1 1 1 1 1 1 1 1 1 1 1 1 1 1 1 1 1 1 1 1 1 1 1 1 1 1 1 1 1 1 1 1 1 4 4 ",
"4 4 4 4 4 4 4 4 4 4 4 4 4 4 4 a 4 4 4 4 4 4 4 4 4 4 4 4 4 4 4 4 4 4 4 4 4 4 4 4 4 4 4 4 4 4 4 4 4 4 4 4 4 4 4 4 4 4 4 4 4 4 4 4 "
};
