/* XPM */
static char *house1712085558[] = {
/* columns rows colors chars-per-pixel */
"64 64 254 2 ",
"   c #311D28",
".  c #3C2F32",
"X  c #502B3A",
"o  c #463739",
"O  c #374629",
"+  c #3A4728",
"@  c #43482D",
"#  c #474933",
"$  c #564835",
"%  c #555533",
"&  c #674E34",
"*  c #67593A",
"=  c #6F643A",
"-  c #7A174F",
";  c #512B44",
":  c #573A4B",
">  c #713652",
",  c #7B2F61",
"<  c #564A48",
"1  c #6F514D",
"2  c #776A46",
"3  c #776359",
"4  c #6B5E65",
"5  c #5D6063",
"6  c #786775",
"7  c #C2343F",
"8  c #EA783D",
"9  c #F07C3E",
"0  c #881957",
"q  c #903055",
"w  c #B8364A",
"e  c #BB3759",
"r  c #991C64",
"t  c #A61B69",
"y  c #A81C69",
"u  c #A71E76",
"i  c #B91E7A",
"p  c #992569",
"a  c #953268",
"s  c #AE2F69",
"d  c #AC2574",
"f  c #A92A76",
"g  c #AC257A",
"h  c #AD297B",
"j  c #B4267C",
"k  c #B92678",
"l  c #BC247D",
"z  c #B32B7D",
"x  c #A93776",
"c  c #B4377B",
"v  c #C3394E",
"b  c #C71D7E",
"n  c #C4247D",
"m  c #CE3176",
"M  c #E2357B",
"N  c #8F5A57",
"B  c #B25853",
"V  c #9B6B5A",
"C  c #AE6453",
"Z  c #944C6D",
"A  c #995564",
"S  c #AB4B75",
"D  c #916C71",
"F  c #B07067",
"G  c #AB7777",
"H  c #B97979",
"J  c #C7454C",
"K  c #C94957",
"L  c #CD5554",
"P  c #E34346",
"I  c #E95C58",
"U  c #D7674E",
"Y  c #DE774E",
"T  c #CD785D",
"R  c #DA7956",
"E  c #E67644",
"W  c #E97643",
"Q  c #EB7A44",
"!  c #E5784A",
"~  c #EC7251",
"^  c #E77955",
"/  c #CA4C6C",
"(  c #E75E61",
")  c #EA5967",
"_  c #E64971",
"`  c #C67969",
"'  c #CB6F71",
"]  c #E86B6D",
"[  c #D68C7C",
"{  c #EE9777",
"}  c #74708D",
"|  c #7B79A7",
" . c #6C78B0",
".. c #787CB8",
"X. c #6A7EC8",
"o. c #767EC2",
"O. c #647FD2",
"+. c #BB2982",
"@. c #AE3289",
"#. c #B73782",
"$. c #A738A4",
"%. c #CC1D81",
"&. c #DA1B86",
"*. c #E21A8B",
"=. c #C72783",
"-. c #D72788",
";. c #C83888",
":. c #D9368A",
">. c #D53593",
",. c #E2258A",
"<. c #E5368D",
"1. c #EA2F93",
"2. c #E63992",
"3. c #C638A9",
"4. c #9A5381",
"5. c #B34D8C",
"6. c #B94A88",
"7. c #B3508D",
"8. c #B5538C",
"9. c #8D7692",
"0. c #987C97",
"q. c #A87A89",
"w. c #B3788F",
"e. c #BA6398",
"r. c #AE58B7",
"t. c #897CA5",
"y. c #8C7CAC",
"u. c #AE71AF",
"i. c #C64789",
"p. c #CE518A",
"a. c #C74A92",
"s. c #D84494",
"d. c #C65896",
"f. c #D85798",
"g. c #E84997",
"h. c #E65799",
"j. c #EB539A",
"k. c #EF5499",
"l. c #EC5A9A",
"z. c #CC718C",
"x. c #CA6696",
"c. c #D8699A",
"v. c #E4649A",
"b. c #EA639E",
"n. c #E16A9F",
"m. c #E87698",
"M. c #D75AA6",
"N. c #EB59A2",
"B. c #F653A2",
"V. c #D171A9",
"C. c #EC64A2",
"Z. c #E26AA1",
"A. c #EB69A7",
"S. c #F168A6",
"D. c #E677AB",
"F. c #EC73AA",
"G. c #F178AD",
"H. c #E977B3",
"J. c #ED7EB3",
"K. c #F17DB4",
"L. c #9A58CB",
"P. c #9B5FCC",
"I. c #A65CC4",
"U. c #AB55CC",
"Y. c #9B61CB",
"T. c #9960D1",
"R. c #A961C6",
"E. c #B060C5",
"W. c #D97BC0",
"Q. c #7A80BC",
"!. c #5E80D7",
"~. c #6B80C8",
"^. c #7481C4",
"/. c #6381D3",
"(. c #6282D8",
"). c #7A8DD3",
"_. c #7F97DD",
"`. c #B68992",
"'. c #9085B4",
"]. c #B496B5",
"[. c #D18F8C",
"{. c #ED8387",
"}. c #EE898E",
"|. c #EC9488",
" X c #EF8E93",
".X c #E8869C",
"XX c #F08F94",
"oX c #F19698",
"OX c #CD96AE",
"+X c #C989B6",
"@X c #E986A7",
"#X c #EA91AA",
"$X c #ED83B4",
"%X c #E988B6",
"&X c #ED86B9",
"*X c #ED8BBA",
"=X c #F284B6",
"-X c #F18CBC",
";X c #E996BB",
":X c #ED93BD",
">X c #F395BE",
",X c #D8A4B5",
"<X c #EAA8AE",
"1X c #F0AAA3",
"2X c #F1A5AC",
"3X c #F3A9AE",
"4X c #F4AAB0",
"5X c #BFC0BA",
"6X c #C4C2BE",
"7X c #8397DB",
"8X c #8198DC",
"9X c #959BD2",
"0X c #AA99C5",
"qX c #A8AFDF",
"wX c #D097C9",
"eX c #F38BC2",
"rX c #E996C5",
"tX c #EE9CC2",
"yX c #F394C2",
"uX c #F69AC6",
"iX c #CDA6C9",
"pX c #E9A9CA",
"aX c #F4A8CA",
"sX c #EEB3CC",
"dX c #E8B4D3",
"fX c #F5B7D6",
"gX c #E5BDE1",
"hX c #DDC5CF",
"jX c #DDC3D4",
"kX c #ECC2CB",
"lX c #F3D1CC",
"zX c #EAC4D9",
"xX c #F2C4DD",
"cX c #F9C5DA",
"vX c #F6C9DC",
"bX c #F6D8D7",
"nX c #F5E6D9",
"mX c #D3C4E2",
"MX c #DAC8E6",
"NX c #D7CFEE",
"BX c #CAD1F4",
"VX c #D8D7F4",
"CX c #F6CDE3",
"ZX c #F6C9E5",
"AX c #FACCE3",
"SX c #E6D9E8",
"DX c #F6D2E6",
"FX c #F8D4E7",
"GX c #F9D5EB",
"HX c #FBDAEB",
"JX c #F0D8F1",
"KX c #FBE5E6",
"LX c #FDE7F4",
"PX c #FAF6F2",
/* pixels */
"( P P P P P P P P P P P P P P P P P P P P P P P P P P P P P P P P P P P P P P P P P P P P P P P P P P P P P P P P P P P P P P m.",
"P {.4X3X<X<X2X2X2X3X2X;X2X2X2X2X2X2X2X2X2X2X2X;X2X2X2X2X2X2X2X2X2X2X3X1X2X2X2X2X3X1X2X2X2X3X2X2X2X2X<X2X2X3X2X2X2X2X2X2X2X4X] I ",
"P 4XPXVXBXBXBXBXBXgXdXZXvXfXfXfXdXdXfXZXfXdXBXBXBXBXBXBXBXBXBXBXBXBXBXBXBXBXBXBXBXBXBXBXBXBXBXBXBXBXBXBXBXBXBXBXBXBXBXBXVXPXoX( ",
"P 4XBXqX_._.)._.8XV.N.Z.Z.Z.N.s.d.a.f.f.g.d.9X7X7X7X7X7X_.7X_._._._._._._._._._._._.8X8X_._._._._._._._._._._._._._._.8XqXSX X( ",
"P 4XNX7X(.).mXgXmXdXpXpXpXpXpXpXpXpXpXpXpXpXmXjXMXjXMXjXmXmXmXmXmXMXmXmXmXjXmXmXmXmXmXqX/.(.(.(.(.(.!./.(.!.!./.(.(.(.(.8XVXoX) ",
"P 4XNX7X/.).ZXcXxXvXvXvXCXAXCXxXvXvXCXvXvXZXvXvXxXxXcXcXxXvXvXvXvXvXcXcXcXcXvXxXcXcXvXdX/././.O.O.O././././.O./.~././.(.qXVX X( ",
"P 4XBX7X~.~.].-X%X*X*X;X*X*X*X*X:X*X=X*X*X*X:X*X*X*X*X:X*X*X*X*X%X%X*X*X*X*X*X%X*X%X:Xu.O.X.~.~.X.~./.X.~.~.~.O./.~.~.~.9XSX X( ",
"P <XVX9X^.~.y.eXtX&X:XF.b.b.b.b.b.b.C.b.b.Z.b.b.b.C.b.b.b.b.b.C.C.b.C.b.b.b.J.:X&XuXwX..^.X.X.^.~.o.X.^.~.~.^.^.~.^.^.~.9XVX X( ",
"P 3XMX9Xo.o...0XaX&X:XJ.h.l.l.l.l.l.l.l.l.l.l.l.l.l.l.l.l.l.l.l.l.l.l.l.l.l.$X*X*XfX0X .Q.o.o.o.X.Q.Q.^. . .Q.Q.^.^.Q.Q.0XVX|.( ",
"P 2XMX9XQ.Q...0XaX&X*XyXZ.l.l.l.l.l.l.l.l.l.l.l.l.l.l.l.l.l.l.l.l.l.l.l.l.A.*X*X*XsXY...Q...Q.Q...Q.Q.Q.5 5 Q.Q.Q.Q.Q.Q.0XSX|.( ",
"P 3XMXwXy.y...0XtX%X*X*XJ.l.b.b.b.b.b.b.v.b.b.b.b.b.b.b.b.b.b.b.b.b.b.b.b.$X*X*X*XiX'.Q...Q.| | Q.| Q.| % 2 Q.| | Q.| Q.9XSX X( ",
"P 3XNXrXu.'.| 0X+X%X&X&X*X*X*X$X$X$X&X&X=X-X=X*X*X&X*X&X&X*X*X*X*X*X*X&X*X=X*X-X+XiX'.| t.'.| < } 9.9.} = = | 9.9.} < Q.0XSX X( ",
"P 3XBXpXV.'.9.].].d.2.;.#.;.;.:.:.g.;.:.:.>.E.R.I.E.E.E.R.E.R.R.E.E.R.R.R.V.V.0.0.iX].9.t.t.y.} . 5 D 6 = = 6 D 5 . 6 '.].SXoX( ",
"P 3XVXwXx.'.t.].].a.<.-.z j n 2.l.l.g.n l +.I.T.Y.P.T.T.Y.Y.Y.T.Y.P.Y.Y.T.U.e.t.t.iX'.t.0.t.0.y.6 . < 4 = = 4 5 . D '.9.].SX|.( ",
"P >XVXwXV.0.'.].].a.%.s.:.l j +.g.l.g.+.l =.r.Y.R.P.I.P.r.r.r.r.P.R.Y.Y.L.E.x.t.9.iX].9.0.0.0.9.0.4 + < * = < . 3 `.9.'.].SXoX( ",
"P 4XJXwXw.q.q.].OX;.%.+.j +.h h =.=.=.+.2.j.I.Y.Y.I.5.@.x / / +.h 7.R.Y.P.r.x.`.0.iX`.9.0.0.0.D * 2 * # % % + * 2 % 6 `.].SX X( ",
"P 3XNX+Xq.q.q.].OX6.:.:.j l l l =.l l +.=.-.U.Y.r.6.K z z K K h c K 6.I.R.r.x.q.0.,X`.q.q.0.`.`.D 3 = * @ @ * 2 3 D q.q.OXSX|.I ",
"P 3XNX+Xq.`.G OXOX/ j.g.;.=.i j l l =.i l >.r.R.$.c L c z K e @.m K c r.I.E.x.q.q.iX`.q.q.G q.D 3 < # . % % + o < 3 D `.OXSX X( ",
"P 3XNXOXH H G OXOXm -.:.g.:.+.g.j.:.:.g.eXM.V.P.g u m e d v m +.B m y x L.wXH.V.H ,X`.G H G 6 $ o < # @ * * # # X o o D OXSX X( ",
"P 3XNX+XH H H OX,Xd.=.g.2.n n g.g.j.j.j.W.M.V.r.z.5.' ' 6.' ' 5.p./ 6.d.I.W.N.f.H ,X[.H ` D 1 N F < % o % < # # 2 G N 1 `.nX X( ",
"P 3XVX+XH ' rX*X$X&XH.j.B.>.;.=.=.+.j =.1.g.r.mXKXnXKXnXKXKXfXfXfXfXfXdXwXr.f.F F ,X[.F H H ` H F 1 V o $ % o V % F [ ` [.nX X( ",
"P 3XNX+X[ ` ;X%XN.h.l.s.>.J.F.v.J.D.l +.>.s.u.nXbXbXnXnXbXbXfXsXdXsXsXpXzXV.f.' ` <X[ ` ` ` ` [ F ` V o 1 & . F ` T F F [.nX X( ",
"P 3XLXzX4XsXfXxXfXpXaXpXaXZXfXsXfXxXpXrXpXpXpXxXxXxXxXxXzXxXxXcXvXfXfXvXxXpXpXpXsXxXsX,XsX4XsX<X[ T V * A A * C T ` T [ [.bX X( ",
"P 4XLXKXJXGXDXFXDXGXGXGXGXZXFXFXDXGXGXGXGXHXGXAXCXDXDXDXDXDXFXFXDXGXDXDXDXFXFXHXFXGXJXKXFXFXHXsXT T T T C A T T T T T [ [.bX X( ",
"P 3XHXaXtXtXtXtXtXtXtXtXtXtXtXtXtXtXtXtXtXtXtXpXpX;XtXtXtXtXaX;XtXtXtXtXtXtXtXtXtXtX;X;XsXtX:X[ R R R R C C R R R R T R |.bX X( ",
"P 4XHXaX&X=X=X*X*X&X&X=X&X&X&X%X&X*X*X*X&X*X&XsXaXJ.=X&X$X*X$X$X&X&X&X&X&X&X&X&X*X&X&X%XfX@XR U R R R Y F C Y R Y R Y R |.nX}.( ",
"P 3XHXaX>X-X-XeX*XV.yXyXyXeXyXeXs.D.$XH.J.J.J.aXaXF.v.F.-X*X=X-XeX*X:X-X-X-X*X-XeX:XeX;XaXR Y Y ^ Y Y Y B C ! Y ^ Y Y Y { bX X( ",
"P 3XlX>X@X.XD.@Xc.8.D.D.V.D.D.Z.s.r r ;.;.=.0 w.fXb.l.b.F.D.F.F.F.F.F.F.F.F.F.F.F.&X@X] 1X! E ! ! ! Y ^ C B E ! ! ! ! ^ { bX X( ",
"P 3XlXoX{ 8 E E U S f @.g h h x h.s y >.j.n r u.fXb.p.x k.l.l.l.l.j.h.h.l.h.l.l.l.m.! E 1X! E E E E E Q L B 9 8 E Q E E { bX X( ",
"P 3XlXoX8 8 W 8 Q / g h h h g c f.x d :.h.=.p V.fXS.6.a l.s.;.;.;.a.Z.i.;.;.;.a.h.( 8 ! 1X! W Q E 8 8 Q C C 9 8 E E 8 Q { nX X( ",
"P 4XlXoXW 8 8 8 W / g h h h h h v.a p >.U.=.0 w.fXC./ c j.b m ,.&.g.K.1.&.M b n f.~ 8 ! 1X! E E 8 Q E Q B C 9 E E E 8 Q { bX XI ",
"P 4XlXoX~ 8 8 8 ! / g g g h g @.h.q p $.U.=.- 0.fXS.i.;.j.M ) M &.+.f.k &.M <.l i.] ~ ^ 4X^ Q Q ! 8 Q 9 B C 9 E E 8 8 9 { bX X( ",
"P 3XlXoX^ 8 ] }.@X$XH.Z.#.j h +.f.a r 3.U.+.0 q.fXS.i.#.h.-.-.,.n , a , %.2.>.+.f.m -.<.rX:.M _ _ _ _ ] L B ~ Q Q Q Q W { lXXXI ",
"P 3XlXoX( U m.$XK.$X$X=Xa.j z c f.a t 3.U.=., q.fXS.i.#.g.-.j.1.i , , , %.A.f.+.f.=.&.-.eX-.*.&.*.*.*.*.,.*.M _ ) ( ^ Q { bXoX( ",
"P 3XkX.XK w m.$XK.$X$X=Xa.j j z v.q r @.L.+.- q.aXS.i.#.j.-.=.,.l , p , =.N.M.u i.( I ) #XL P _ _ M M M *.*.*.*.,.-.M _ |.bXXXI ",
"P 3XkX.XK w c.&XG.$XJ.$Xa.g j h v.x z ;.r.=.s V.fXS.i.#.N.-.d =.k > , > l 3.3.>.f.^ 8 E 1X{ 9 Q 8 Q W ~ B B ) _ M &.&.*.S.vXXX( ",
"P 3XlX.XK v v.=X$X$XK.=Xa.h +.#.h.j.N.C.N.C.k.*XaXS.p.c B.>.l -.i p a p p @.=.6.5.5.' ! 1XQ W U U U ! Q C B 9 Q ! ] <Xf.j.ZX}.) ",
"P 3XkX.XK 7 v.$X=XK.=X=Xi.+.j z h.h.l.l.l.l.g.%XsXS.i.c g.>.g.1.i =.+.h a p i @.a $.d.! 1XU L J J J J U B B Q 8 8 { PXOXz.cXXX) ",
"P 4XkXXXK v z.D.m.Z.Z.$Xa.h h z l.g.j.l.l.h.g.*XsXS.i.m j.g.C.2.j l j h f p l z x $.x.E #XL K J v J K P q B Q 8 [ lXKXvXOXxXXX( ",
"P 4XkX.XK 7 K v 7 s u @.#.h h g h.k.N.B.l.l.j.%XaXC.i.#.j.g.g.<.d i +.g p p l g p $.7.J OXK J J 7 7 J L w q L J |.nXbXAXaXfXXX( ",
"P 4XDX<X[.z.[.z.z.z.e.8.d.5.5.5.Z.Z.c.Z.n.n.c.*XfXJ.x.8.A.f.Z.N.a.i.a.5.5.S 6.5.5.r.e.' ,X' ' / / v 7 v q q K v ' PXKXHXrXxX X( ",
"P 4XLXHXJXGXGXGXGXHXGXxXDXCXCXCXDXDXCXCXCXZXCXCXDXZXZXCXCXGXCXAXDXvXCXCXCXCXZXZXAXGXCXvXDXCXAXvXHX' v m v n ,.*.-.,XdX;Xc.vX X) ",
"P 3XLXfXdXdXdXdXsXdXpXdXCXxXxXxXxXZXxXZXxXZXxXxXzXxXxXxXZXZXxXxXxXZXxXxXxXZXxXZXxXxXxXxXzXxXxXxXvXh.&.,.M *.-.,.,.z f p D zX X( ",
"P 3XAX@XZ.n.n.n.f.f.f.n.Z.n.Z.Z.c.Z.c.Z.c.c.Z.Z.Z.Z.Z.Z.c.Z.c.Z.c.c.Z.Z.c.n.n.c.Z.Z.Z.Z.Z.Z.Z.Z.Z.C.H.K.H.F.K.J.%Xf.y d.pXKX X( ",
"P 4XHXuX&X%X%X*XD.H.$X$XJ.J.J.K.J.$XJ.J.J.K.K.$X$XJ.$XK.K.$XK.K.K.K.&XJ.J.=XJ.J.J.J.K.K.K.J.H.$XJ.J.*XrX:XyX:X:XrXH.x V.fXHX X( ",
"P 4XzXe.5.x 8.F.i.5.7.7.5.8.8.5.5.5.5.5.7.7.5.8.@X8.Z Z 4.4.4.4.4.4.4.Z Z 7.J.e.7.7.5.6.5.5.7.7.7.5.5.5.5.S 5.8.x.f.c d.>XHX X( ",
"P 4XdX' e w / A.m m i b n i k b %.=.=.b i l v / A.x 0 r p p p p p p p r 0 f D.-.b m m B e e e e e e w e q 0 m / v.l.#.f.-XHX X( ",
"P 4XbX#Xh.h.Z.eXg.:.=.j.j.:.n *.g.S.:.b =.-.h.v.yXi.y g z h h +.+.@.+.g t #.yXs.&.b M M n.D.@X@X@X@X@X@X.XV..XZ.S.C.c x.>XHX X( ",
"P 4XGXaXG.B.F.eXg.1.:.j.j.k.1.=.j.<.-.:.%.=.B.S.:X6.y d g h h z h f h f t c rXeXA.>.-.,.*.1.j.H.eXrXyXuXuXuXeXG.F.S.c x.uXHXXXI ",
"P 3XzX`.G V z.=X6.;.=.z l =.=.j =.=.,.B.2.=.Z S :X6.y d g h h z h h h g t c rXq.G G F A x %.&.&.:.g.c.w.G F H z.F.S.h c.uXHXXX( ",
"P 2XzX`.S q 3 yXa s %.+.j =.:.:.k z l =.=.k X : ;X6.t d g h h j +.g h f t S rX> . + @ @ # < Z s -.&.M n a 1 $ A Z.S.g f.>XFXXX( ",
"P 3XcX=XB.k 3 yXx x B.=.l =.j.j.=.l l b -.l ; : *X6.y y h h h j g h h g t #.rX1 . o # # # @ + # < q n 1.,.:.c i.H.S.z V.uXHXXX( ",
"P 3XhXw.S N 3 yXx s 2.-.j j %.b j g l &.2.:.; : %X6.t d g h h z h h h h t #.tX> . ; ; o % @ @ @ @ + A g.&.i -.2.S.C.#.c.>XHXXX( ",
"P 3X5XD 1 O N eXZ f %.,.-.=.=.=.j g z =.=.-.; : ;X6.t d h h z z h h h g t S rX1 ;   < C C < @ % # + A 2.n f , / G.C.@.x.>XKXXX( ",
"P 3X5X`.N O 4 eXS f ,.g.g.l g h =.+.n l -.%.X : %X6.t d f z i.+.;.#.h f y #.eXH / Z [ { |.H @ @ # # % 1 N $ $ A A.A.z c.uXHXXX( ",
"P 3X6X`.A + 3 eXS a %.:.s.-.=.+.-.=.-.:.B.-.X : ;X6.t d g #.;.+.;.;.j f y x eX2.m :.-.=.m , @ @ @ @ + & 1 + @ A F.S.s f.uXGXXX( ",
"P 4XxX@Xv.p.c.eXS q -.l l j m g.s p s s S s X : #X6.y d g h h j h h h g y 6.-X>.-.<.g.g.g.> . a s q @ & N + $ A D.S.@.c.uXHXXX( ",
"P 3XCXG.l.k.S.eXZ s 1.,.-.r S S.>       : >   : %X6.t d g h h j h h z f y x tXl.g.j.k.k.S.> q *.,.*.N & N o $ A A.C.#.x.yXHX X( ",
"P 3XAXK.l.h.v.@Xa x B.:.g.p w.-X; X ; S p.p.6.p.:X5.t j g h f @.h h h f t #.yXJ.Z.j.k.l.k.> p -.*.-.q & N + o A D.F.#.c.>XHX X( ",
"P 3XvXG.b.l.v.' S s ,.n =.x z.yXN B Z S.k.,.*.2.*X6.y g x z h +.@.h h h y S yXfXaXh.k.k.k.N : Z c Z : 1 B X : S Z.S.z c.uXHXXX( ",
"P 3XGX>X$X$X@X}.V.V.f.M.d.V.rXyX+X[.V.&XK.A.F.K.aXV.8.w.e.8.e.e.e.e.e.e.8.e.sXvXfX*X=X=X=XwX0XwXV.wX0XiX,XiXwXwX:X*Xd.%XaXHXXX( ",
"P 4XLXHXDXvXDXDXDXCXxXCXAXZXfXxXzXxXxXCXAXAXZXvXHXzXdXjXjXjXjXjXjXhXdXjXjXzXHXLXLXKXKXKXKXLXLXHXGXLXLXHXHXLXLXLXHXCXxXvXKXPXoX( ",
"P ] XX}.}.}.}. X X}.}.}. X}.}.}.}.}.}.XX}.}.}.}.}.}.[.}.}.}.}.}.}.}. X}.XX}.}.}.XX}.}.}.}.}.}.}.}.}.XX}.}.}.}.}.}.}.}.}.XXXX) ( ",
"] ( ( ( ( ( ( ( ( ( ( ( ( ( ( ( ( ( ) ( ( ( ( ( ( ( ( ( ( ( ( ( ( ( ( ( I ( ( ( ( ( ( ( ( I ( ( ) ( ( ( ( ( ( ( ( ( ( ( ) ( ( XX"
};
