/* XPM */
static char *_1712000302[] = {
/* columns rows colors chars-per-pixel */
"64 64 255 2 ",
"   c #311D28",
".  c #3B2A32",
"X  c #3E3533",
"o  c #502739",
"O  c #463739",
"+  c #374528",
"@  c #3A4728",
"#  c #43482D",
"$  c #474933",
"%  c #564736",
"&  c #555533",
"*  c #674E34",
"=  c #67593A",
"-  c #6F643A",
";  c #7A174F",
":  c #512B44",
">  c #573A4B",
",  c #713652",
"<  c #7B2F61",
"1  c #564A48",
"2  c #6F514D",
"3  c #776A46",
"4  c #776359",
"5  c #6B5E65",
"6  c #5D6063",
"7  c #786775",
"8  c #C2343F",
"9  c #EA783D",
"0  c #F07C3E",
"q  c #881957",
"w  c #903055",
"e  c #B8364A",
"r  c #BB3759",
"t  c #991C64",
"y  c #A61B69",
"u  c #A81C69",
"i  c #A71E76",
"p  c #B91E7A",
"a  c #992569",
"s  c #953268",
"d  c #AE2F69",
"f  c #AC2574",
"g  c #A92976",
"h  c #AC257A",
"j  c #AD297B",
"k  c #B4267C",
"l  c #B92678",
"z  c #BC247D",
"x  c #B32B7D",
"c  c #A93776",
"v  c #B4377B",
"b  c #C3394E",
"n  c #C71D7E",
"m  c #C4247D",
"M  c #CE3176",
"N  c #E02B7C",
"B  c #E2377B",
"V  c #8F5A57",
"C  c #B25853",
"Z  c #9B6B5A",
"A  c #AE6453",
"S  c #944C6D",
"D  c #995564",
"F  c #AB4B75",
"G  c #916C71",
"H  c #B07067",
"J  c #AB7777",
"K  c #B87A79",
"L  c #C7454C",
"P  c #CA4957",
"I  c #CB5453",
"U  c #E95C58",
"Y  c #D7664F",
"T  c #DE774E",
"R  c #CD785D",
"E  c #DA7856",
"W  c #E67644",
"Q  c #E97643",
"!  c #EB7A44",
"~  c #E57849",
"^  c #EC7251",
"/  c #E77A55",
"(  c #C84A67",
")  c #CC4F72",
"_  c #E64E6D",
"`  c #CD6B6E",
"'  c #C67969",
"]  c #C47A75",
"[  c #E66C6B",
"{  c #D68C7C",
"}  c #ED8672",
"|  c #ED9875",
" . c #74708D",
".. c #7B79A7",
"X. c #6C78B0",
"o. c #797CB9",
"O. c #6A7EC8",
"+. c #767EC3",
"@. c #647FD2",
"#. c #BB2982",
"$. c #AE3289",
"%. c #B73782",
"&. c #A738A4",
"*. c #CC1D81",
"=. c #DA1B86",
"-. c #E21A8B",
";. c #C42481",
":. c #C92884",
">. c #D72788",
",. c #C83888",
"<. c #D9368A",
"1. c #D53593",
"2. c #E2258A",
"3. c #E5368D",
"4. c #EA2F93",
"5. c #E63992",
"6. c #C638A9",
"7. c #9A5381",
"8. c #B34D8C",
"9. c #B94A88",
"0. c #B3508D",
"q. c #B5538C",
"w. c #8D7692",
"e. c #987C97",
"r. c #A87B89",
"t. c #B96298",
"y. c #B37890",
"u. c #AE58B7",
"i. c #897CA6",
"p. c #8C7DAC",
"a. c #AE71AF",
"s. c #C64789",
"d. c #CF4B8F",
"f. c #C55588",
"g. c #D94394",
"h. c #C95A96",
"j. c #D85898",
"k. c #E84997",
"l. c #E65799",
"z. c #EB539A",
"x. c #EF5499",
"c. c #EC5A9A",
"v. c #CD708B",
"b. c #C96897",
"n. c #D7699A",
"m. c #E4649A",
"M. c #EA639E",
"N. c #E16A9F",
"B. c #E87698",
"V. c #D75AA6",
"C. c #EC58A2",
"Z. c #F653A2",
"A. c #CE6FAE",
"S. c #DA6AA4",
"D. c #C876A6",
"F. c #D975A8",
"G. c #EC64A2",
"H. c #E26AA1",
"J. c #EB69A7",
"K. c #F168A6",
"L. c #E576AA",
"P. c #EC73AA",
"I. c #F276AC",
"U. c #EA76B3",
"Y. c #ED7EB3",
"T. c #F17DB4",
"R. c #9A58CB",
"E. c #9B5FCC",
"W. c #A65CC4",
"Q. c #AB55CC",
"!. c #9B61CB",
"~. c #9960D1",
"^. c #A961C6",
"/. c #B060C5",
"(. c #D97BC0",
"). c #7A80BC",
"_. c #6B81C8",
"`. c #7481C4",
"'. c #6482D6",
"]. c #7B8DD3",
"[. c #9F8283",
"{. c #B78C96",
"}. c #9086B4",
"|. c #AE92AE",
" X c #B69BBA",
".X c #CE918F",
"XX c #EB8F8D",
"oX c #C899A7",
"OX c #D28EB3",
"+X c #C99ABA",
"@X c #E886A8",
"#X c #E993AA",
"$X c #ED83B5",
"%X c #E988B5",
"&X c #ED86B9",
"*X c #ED8BBA",
"=X c #F284B6",
"-X c #F18CBC",
";X c #E997BA",
":X c #ED93BD",
">X c #F394BE",
",X c #D8A4B5",
"<X c #E9A6AA",
"1X c #F2A7A5",
"2X c #969ED5",
"3X c #A999C5",
"4X c #98A5DB",
"5X c #A8A6D6",
"6X c #8FA0E0",
"7X c #94A6E2",
"8X c #94A8E0",
"9X c #B4BCE8",
"0X c #CE97C8",
"qX c #F38BC2",
"wX c #EB96C4",
"eX c #EE9CC2",
"rX c #F394C2",
"tX c #F798C5",
"yX c #CCA6CA",
"uX c #DCBDCD",
"iX c #E9A9CB",
"pX c #F4A9CA",
"aX c #EBB9C6",
"sX c #EEADD2",
"dX c #E8B7D3",
"fX c #F5B7D5",
"gX c #D6C8CC",
"hX c #F8CFC9",
"jX c #F5D0CD",
"kX c #EBCAD7",
"lX c #F6C9D7",
"zX c #F2C4DC",
"xX c #F9C5D9",
"cX c #F4C9DD",
"vX c #E9D1DA",
"bX c #F5D6D9",
"nX c #F5E6D9",
"mX c #D3C4E3",
"MX c #D9C4E2",
"NX c #DAD0E8",
"BX c #F6CDE3",
"VX c #F6CBE6",
"CX c #F9CDE2",
"ZX c #E5D5EA",
"AX c #E2D9EF",
"SX c #F7D2E6",
"DX c #FAD3E4",
"FX c #F9D6E6",
"GX c #F9D5EB",
"HX c #FCDAEA",
"JX c #E9DAF1",
"KX c #FAE6E8",
"LX c #FCEFEC",
"PX c #FEF6F9",
"IX c #FEFBFC",
/* pixels */
"PXIXIXIXIXIXIXIXIXIXIXIXIXIXIXIXIXIXIXIXIXIXIXIXIXIXIXIXIXIXIXIXIXIXIXIXIXIXIXIXIXIXIXIXIXIXIXIXIXIXIXIXIXIXIXIXIXIXIXIXIXIXIXPX",
"IXIXPXIXIXIXIXIXPXIXPXPXIXIXPXIXIXIXIXPXIXIXIXPXIXPXIXIXPXIXIXIXPXIXPXIXIXIXPXIXIXIXIXIXIXPXPXIXIXPXPXIXIXPXIXPXPXIXIXPXPXIXIXIX",
"IXPXLXJXAXAXAXAXAXzXBXBXDXSXBXBXzXcXCXCXCXcXZXAXAXAXZXAXAXAXAXAXAXAXAXAXAXZXAXAXAXAXZXZXAXZXAXAXAXAXAXAXAXAXAXAXAXAXAXAXJXKXPXIX",
"IXIXJX9X7X6X7X6X7X0XJ.%X@XU.P.S.A.S.S.F.S.A.5X7X8X7X7X7X8X8X8X7X7X8X7X8X8X8X8X8X7X7X7X6X7X8X7X7X7X7X7X7X7X7X7X7X7X7X7X7X9XAXIXIX",
"IXIXZX8X'.].mXuXmXdXiXiXiXiXiXiXiXiXaXiXiXiXMXMXmXmXMXMXmXMXMXmXmXmXmXmXmXmXmXmXmXmXMX9X'.'.'.'.'.'.'.'.'.'.'.'.'.'.'.'.6XNXIXIX",
"IXPXZX4X'.].VXxXlXcXcXcXBXBXzXBXcXcXBXcXcXzXlXxXxXxXxXxXxXzXzXlXxXlXxXxXlXxXxXxXxXxXlXuX'.'.'.@.@.'.'.'.@.'.@.@.'.@.'.'.6XNXIXIX",
"IXPXZX4X_.O.OX&X%X*X*X*X*X*X*X*X-X*X*X*X*X:X*X:X*X*X*X:X*X:X*X*X*X*X*X>X*X&X*X%X%X*X:Xa.O.O._._.@._._._.O.O._.O._.'.O._.2XNXPXIX",
"IXIXZX4X_._.p.wXwX*X:XP.M.G.M.M.G.M.M.M.M.M.M.M.M.M.M.M.M.M.M.M.M.G.M.M.M.M.Y.:X*XtX0Xo._.O._._.O.+.O._._._._._._.+.`._.2XNXIXIX",
"IXPXZX5X+.O.+.3XpX%X:X$Xl.c.c.c.c.c.c.c.c.c.c.c.c.c.c.c.c.c.c.c.c.l.c.c.c.c.$X*X&XfX}.o.`.+.+.+.+.+.).`.X.X.`.o.o.+.).).2XNXPXIX",
"IXPXZX2X+.p.o.3XpX&X*XqXG.l.c.c.c.c.c.c.c.c.c.c.c.c.c.c.l.c.c.c.c.c.c.c.c.K.-X*X*XsX2Xo.).).o.).o.).).).6 6 `.o.).o.).).|.NXPXIX",
"IXIXJX0Xp.p...3XwX%X*X:XY.c.m.M.M.M.M.m.m.M.M.M.m.M.M.M.M.M.M.M.M.M.M.M.m.@X:X*XY.iXp.o.).p.....)...o...= 3 o.o...)...).3XNXPXIX",
"IXPXAXwXA.p...3X+XU.*X&X-X*X*X&X$X$X*X-X=X-X*X&X-X&X&X-X*X*X*X-X-X&X*X*X*X*X=X*XA.yX}.i.i.p...1  .w.w. .- -  .w.w. .1 ).3XNXPXIX",
"IXIXAXiXD.p.i. X Xh.5.,.v ,.,.<.<.k.,.>.<.1./.^.W./././.^.^.^.^.^.W.^.^.^.A.D.a.p.yX}.i.}.e.p. .X 6 G 7 - - G G 6 O 7 }. XvXIXIX",
"IXPXAXsXD.e.i. X Xf.4.:.x k m 5.x.c.k.m p #.W.~.E.E.~.~.!.~.!.~.~.W.!.!.R.Q.t.i.i.yX|.w.e.i.i.}.7 X 1 6 - - 5 6 O 7 }.e.|.NXIXIX",
"PXPXAXyXF.e.w. X X,.:.5.<.z k #.k.c.k.#.z :.W.!.!.W.W.E.u.u.u.u.^.!.!.!.E.u.D.e.w.yX|.w.e.e.e.w.[.5 O % = - $ X 4 w.w.}.|.vXPXIX",
"IXPXJX0Xy.e.r. X+X,.*.#.k #.j j m ,.:.#.5.z.W.^.!.W.8.$.v ( ( %.$.0.^.^.E.u.b.e.e.+X|.w.e.e.[.G = 3 2 $ & & $ = 3 = 7 [. XvXIXIX",
"IXPXZX0Xr.r.r.oX+XF 5.<.p z z z ;.z #.#.;.1.Q.R.R.9.P j v P b #.l P 9.W.^.u.b.r.r.,X|.r.[.r.e.r.G 4 - = # # = 3 4 G {.r.|.vXPXIX",
"IXPXJX+Xr.r.J oXoXs.Z.k.,.:.p l z m ;.p #.1.u.u.8.M P v k P r $.v I l u.!./.b.r.r.,X{.J r.K r.J 5 1 O @ & & @ > 1 4 G [.oXvXPXIX",
"IXPXZX+Xr.K J oXoXM >.<.5.<.#.k.z.<.<.k.qXV.A.^.j f b F f b M $.P b i v u.0XU.S.J ,X{.H y.K 7 O O 1 $ # & = @ $ O O % G oXvXPXIX",
"IXIXZX0X{ ] y.oX,Xf.:.k.k.m m k.k.z.z.z.(.V.A.^.v.9.f.` 9.` ` 8.f.f.9.t.R.(.V.j.K ,X.XK y.Z 2 V J 1 & O & = : $ 2 J V 2 {.jXPXIX",
"IXPXJX+XH v.;X%X$X&XU.l.k.1.1.#.#.#.k m <.k.u.MXLXnXLXnXnXKXzXfXfXfXfXdX0XV.V.` K <X.XH K K ' { Z = Z O % & O Z = H { { .XjXIXIX",
"IXPXZX+X' { *X%Xc.z.c.g.1.&XP.C.U.P.#.m 5.1.a.nXbXbXbXbXbXbXfXsXfXsXsXsXzXa.d.K ' ,X{ H ' ' ' ' ' ] Z . 2 2 X H { H A A .XjXPXIX",
"IXPXKXzXaXaXfXzXfXiXpXiXpXxXfXaXfXVXiXiXiXiXiXzXzXlXzXlXlXzXzXfXzXzXxXfXzXiXiXiXaXzXaX<XaXaXkX<XR } Z = D D * A R R A { .XjXPXIX",
"IXPXKXHXGXGXSXFXSXGXGXGXGXGXSXFXVXSXGXGXSXGXGXBXSXSXVXSXSXBXFXFXSXSXFXFXSXFXFXGXGXGXGXHXGXFXHX<XR R R R A Z ' R R R { } .XjXPXIX",
"IXIXHXfX;XpXeXeXeXeXeXeXeXeXeXeXeXeXeX>XeXeXwXiXpX;X>XiXpX;XeXeX;XeXeXeXeXeXeXeXeXeX;X;XiXpX#X.XE E E E A A E E T R E R XXjXIXIX",
"IXPXFXpX=X=X$X&X&X&X$X&X$X&X$X*X-X*X*X*X*X%X%XsXiX$X$X=X$X$X$X&X&X&X$X*X*X&X&X&X*X$X-X*XsXB.Y T E E E E C A E E T T T E | jXPXIX",
"IXPXHXpX-X-X*X>X$XOXtX>XrXqX>X-Xg.P.$X$X%XU.L.pXpXH.m.I.-X:X*X-X-X-X-X-X-X-X*X-X>X*X:X:XpXT W T / T T ~ H C ~ T T T T T | jXPXIX",
"IXPXbXpX@X@X@XL.n.q.L.L.F.L.L.F.<.w a :.<.:.q y.fXM.c.M.P.P.P.P.P.P.P.P.P.P.P.P.P.$X$X[ 1X} W T ~ ~ T ~ A A W ~ T T W ~ | hXPXIX",
"IXPXbX1X/ ! W ~ Y c g j j $.j j l.c u <.c.:.t a.fXK.d.c x.c.c.c.c.l.k.l.c.l.c.c.l.B.^ T 1X~ Q W W W W ! I C 0 9 W W W ! | hXPXIX",
"IXIXjX1X^ 0 W 9 ! ( h h h h g $.l.c f ,.z.m y y.fXK.9.s c.d.:.,.,.d.S.s.,.,.,.s.c.U 9 ~ 1X~ Q ! W 9 9 ! A A 0 0 W ! W W | jXIXIX",
"PXIXhX1X/ 0 Q 9 ! ( h $.g j j %.j.s a 1.Q.;.q {.fXM.s.v z.n N N =.g.T.4.=.N >.z j.^ 9 ~ 1X~ W W W ! W ! A C 9 W W 9 9 ! | hXPXIX",
"IXIXjX1X/ 0 9 9 ! ) h g h j h j l.s t &.Q.:.; a.fXK.) ,.z.N [ B >.:.j.l =.B 3.z f.[ ^ / <X/ ! ! ! 9 ! 0 C A 0 W ! W 9 9 | hXPXIX",
"IXIXhX1X/ ! [ XX@X$XU.S.%.k k %.n.s t 6.Q.#.q e.fXK.s.%.z.>.>.2.m < s < ;.5.1.#.d.M 3.<.qX<.N B _ _ _ [ I C ^ ! W ! ! Q | hXPXIX",
"IXPXjX1XY Y B.$XT.Y.Y.-Xs.k k x l.s t 6.~.:.q y.pXK.s.%.l.>.k.3.p < < < n K.j.#.j.:.=.>.qX>.=.=.-.-.-.-.2.2.3._ _ [ ~ ! | hXPXIX",
"IXPXkX#X( b m.=X=XT.Y.=Xs.#.l v j.w a $.R.;.; r.fXK.s.%.z.=.>.>.z < w < z C.V.i s.U U Y #XY U _ _ B N N 2.=.-.-.2.>.N _ } hXPXIX",
"IXIXhX#XP b n.=XT.$X&X&Xs.h k x n.v %.%.6.,.d D.fXK.s.%.z.1.f ;.l < < < z 6.6.1.j.^ 9 } 1X} 9 9 0 ! Q ^ C P U B N N =.-.J.xXPXIX",
"IXPXlX#XP 8 m.$XT.Y.Y.=Xs.#.#.x l.z.K.C.c.G.x.*XpXK.) %.C.1.z >.p a s a a $.:.s.9.8.) ~ 1X^ Q Y Y Y W 0 A A 0 ! 9 / ,Xd.z.fXIXIX",
"PXIXjX#XP b B.=X=X$X=X=Xs.h h $.l.k.c.c.c.c.k.$XfXK.s.%.k.4.k.4.p #.#.j s a p $.s &.b.~ 1XY L L L L L U C C ! 9 9 1XLX#Xh.fXPXIX",
"IXIXjX#XP b v.L.B.P.H.$Xd.$.j x l.z.c.z.c.c.l.%XpXK.s.%.z.k.G.5.z z #.h g a z j c &.t.W <XI L L b L P L w C 9 0 E nXKXcXoXdXPXIX",
"IXIXkX#XL b P e 8 d i j %.h h j l.z.Z.c.c.c.k.%XfXK.s.z z.k.k.<.f p #.h a a z j a &.9.C #XP L b 8 8 L I e w I L .XLXbXVXpXfXIXIX",
"IXPXSXaXv.v..X` v.v.b.0.t.8.8.8.L.n.H.n.H.m.j.wXfXL.b.f.J.V.H.C.f.s.s.8.8.F 9.0.8.u.t.` ,X` ` ` ( P 8 L w w ( b ` LXKXGXwXfXPXIX",
"IXPXLXHXHXHXGXHXGXGXGXfXSXSXBXBXBXBXcXBXBXBXBXSXDXVXCXBXSXSXBXSXVXCXVXVXBXVXVXVXVXVXVXbXBXBXCXcXFX) b M b m N =.<.,XdXwXS.dXPXIX",
"IXPXKXzXdXdXdXdXdXdXiXdXVXzXzXBXzXzXBXVXcXzXzXzXBXzXzXcXlXzXzXzXzXzXBXzXzXzXzXVXzXzXcXzXzXBXzXzXcXl.=.2.N -.2.2.2.l x a G kXPXIX",
"IXIXCX:XH.H.H.S.j.j.j.n.H.M.S.m.H.H.n.H.S.m.N.S.n.N.S.N.S.m.S.H.S.H.H.n.H.m.n.H.S.H.H.H.H.H.S.S.H.H.U.T.U.I.Y.Y.=Xh.y f.wXbXPXIX",
"IXPXDXiX&X%X%X*XP.U.$X$X@XT.Y.Y.Y.Y.Y.Y.Y.T.$XY.=X=X$X&X=X=XT.T.T.T.Y.Y.Y.Y.Y.Y.Y.Y.$XY.=XY.Y.Y.$XY.*XrX:XrX:X:X;X%Xg F.fXDXIXIX",
"IXIXkXOX8.$.q.P.s.8.0.8.8.0.q.8.0.8.8.8.0.0.9.q.L.q.s S 7.S 7.7.7.7.7.7.S 0.Y.t.0.0.0.8.8.8.8.0.0.8.8.8.9.F 8.q.h.h.x b.rXBXIXIX",
"IXPXjXv.b b ) J.M M p n ;.p l n *.:.:.n p n r ) P.c q t a a a a a a a a q c P.>.m M b b r r e r r e r r w q b ) M.C.#.j.>XcXPXIX",
"IXIXFX;Xl.d.N.qXk.<.:.z.z.<.m -.k.K.<.n :.M l.m.qX9.u h k $.j #.#.j #.h y v :Xg.=.-.2.g.m.L.@X#X%X@X@X@X@XD.Y.M.P.G.v b.>XDXPXIX",
"IXPXHXfXT.Z.I.&Xz.4.5.z.l.x.5.*.z.3.>.>.:.;.Z.K.:X8.y f h j j x j j h g y v wXqXJ.g.>.>.2.4.k.U.*XrXrXtXtXtXqXI.P.K.x b.tXDXPXIX",
"IXPXbXoXJ Z v.&X9.:.m x l :.;.k m :.4.Z.5.M S F *X9.y f j j j k h j j g y %.wXy.r.J H D g =.=.=.<.k.n.y.J J K v.P.K.x n.tXbXIXIX",
"IXIXkX{.F w 4 qXc a m k k :.5.g.k k z :.:.k o > *X9.y f j j j k j j j h y F wX>   @ # # $ 1 V f :.=.N m s 2 $ D J.C.x h.>XcXPXIX",
"IXIXxX>XZ.l 4 rXc c Z.>.l ,.k.k.:.m z n >.#.: > %X9.y f j j j k j j j g y %.wX2 . : $ $ $ # @ & 1 w M 4.2.:.M s.L.P.%.S.tXDXIXIX",
"IXPXvX.XF 2 4 rXF g 5.>.k k *.m k j z >.k.<.: > ;X9.y f f j j k j h j g y %.eX, . : . $ & # $ $ $ + D k.=.m >.5.K.G.$.n.>XDXIXIX",
"IXIXgX[.2 + V qXc a =.2.>.m ;.;.k j k ;.>.>.: > *X9.y f g j j %.#.j j h y %.wX2 : . 1 A A 1 # $ $ @ D 5.*.s , ) I.G.v b.>XDXIXIX",
"IXIXgX{.V + 4 -XS g 2.k.k.z h #.:.z z l =.:.o > %X9.y f g x s.#.,.%.j j y F qXH ( D .X} | J # # $ $ & 2 V % % D P.J.l n.tXDXPXIX",
"PXIXgXoXG O 4 -XF s *.<.g.>.;.#.>.:.>.2.Z.>.o > ;X9.y g h %.,.;.,.,.x g y %.rXg.>.>.<.N ,.w # # # # @ * 2 @ % D J.K.l b.>XcXIXIX",
"IXIXbX:Xm.f.n.qXF w =.#.m z ,.5.l w d a F d o > *X9.y f h j h x j j j h y F tX1.2.3.k.k.k., . s d S # * V @ % D L.K.x b.tXDXPXIX",
"IXPXDX=Xc.z.P.qXD d 4.>.>.q F K.:   o   > ,   > %X9.y f j j j k j g x g u v rXC.k.l.c.c.Z., a >.-.2.w * V # % D P.G.%.n.tXFXIXIX",
"IXPXCX=Xc.l.H.I.c d Z.<.k.a v.rX, o : F d.f.F d.;X9.u f j j h k j j j g y %.rXU.G.x.x.x.c., w =.N =.w * V + O D L.K.%.b.>XDXPXIX",
"IXPXbX-XM.c.m.[ F d <.z M s D.rXV C S K.x.2.2.5.;X9.u g x j $.#.$.j j j u F rXfXsXl.x.x.c.D > S v S > 2 C o , 7.H.K.x S.pXDXPXIX",
"IXIXDXpX=X$X@XXXOXA.j.V.h.A.wXrXOXv.OX&XT.J.P.Y.pXD.q.q.t.t.t.t.t.t.t.t.q.t.sXxXfX:X=X#X-X0X3X0XOX0XyX+X,XyXyX0X:X-Xh.%XpXDXPXIX",
"IXPXKXDXCXlXcXcXcXzXdXxXCXfXfXdXkXdXdXcXxXCXxXzXFXkXuXgXuXgXuXuXuXuXuXuXuXkXDXKXKXFXbXHXbXHXHXHXVXGXHXGXDXKXHXGXCXCXdXzXDXKXIXIX",
"IXIXPXPXPXPXPXPXPXPXPXPXIXPXIXIXPXPXPXPXPXPXPXPXIXPXPXPXPXPXPXPXPXPXPXPXPXIXPXPXIXPXPXIXIXIXIXPXPXPXPXPXPXPXPXIXPXPXIXPXPXPXIXIX",
"IXIXIXIXIXIXIXIXIXIXIXIXIXIXIXIXIXIXIXIXIXIXIXIXIXIXIXPXIXIXIXIXIXPXIXIXIXIXIXIXIXIXIXIXIXIXIXIXIXIXIXIXIXIXIXIXIXIXIXIXIXIXIXIX"
};
