/* XPM */
static char *_1711898836[] = {
/* columns rows colors chars-per-pixel */
"64 64 255 2 ",
"   c #283F1B",
".  c #311D2C",
"X  c #392A32",
"o  c #4D303A",
"O  c #463839",
"+  c #653432",
"@  c #2A441F",
"#  c #3A4828",
"$  c #42492D",
"%  c #484933",
"&  c #534D35",
"*  c #595538",
"=  c #6A553B",
"-  c #71632D",
";  c #5E2944",
":  c #702E53",
">  c #782A58",
",  c #7C2F61",
"<  c #574B49",
"1  c #6E534B",
"2  c #74654B",
"3  c #5A596B",
"4  c #6A5369",
"5  c #70686E",
"6  c #A13E3E",
"7  c #E9783C",
"8  c #A61D5F",
"9  c #85295B",
"0  c #873959",
"q  c #903656",
"w  c #B63655",
"e  c #9E1C62",
"r  c #A31C67",
"t  c #A21D69",
"y  c #AB1C72",
"u  c #B81D78",
"i  c #862C65",
"p  c #893665",
"a  c #95336B",
"s  c #A4266B",
"d  c #AF346A",
"f  c #AB2472",
"g  c #AA2877",
"h  c #AC297B",
"j  c #B5247B",
"k  c #B82778",
"l  c #BB247D",
"z  c #B32A7D",
"x  c #AA3573",
"c  c #AC347B",
"v  c #B73479",
"b  c #C23B48",
"n  c #C53457",
"m  c #C91D7B",
"M  c #C5257D",
"N  c #DA287A",
"B  c #C93677",
"V  c #E3337D",
"C  c #8D5455",
"Z  c #A85556",
"A  c #93655B",
"S  c #AB6E56",
"D  c #964D6A",
"F  c #AE4F73",
"G  c #906F6E",
"H  c #AC6E6D",
"J  c #A97576",
"K  c #B77B7A",
"L  c #CC504E",
"P  c #C94857",
"I  c #E6595D",
"U  c #DC784B",
"Y  c #D17153",
"T  c #D87756",
"R  c #E67644",
"E  c #E97642",
"W  c #E77748",
"Q  c #EA6953",
"!  c #E87959",
"~  c #C84967",
"^  c #CB5769",
"/  c #D9536C",
"(  c #D04B74",
")  c #D65976",
"_  c #E54C72",
"`  c #C77966",
"'  c #CD6E72",
"]  c #E7686E",
"[  c #E97B6C",
"{  c #B58078",
"}  c #E88459",
"|  c #CF8375",
" . c #EC876F",
".. c #747394",
"X. c #7D7BAB",
"o. c #797DB9",
"O. c #5F7ECF",
"+. c #567EDC",
"@. c #5A7EDD",
"#. c #6A7EC9",
"$. c #737FC2",
"%. c #787EC2",
"&. c #657ED2",
"*. c #667BE8",
"=. c #9A2E8D",
"-. c #B92B82",
";. c #AD3683",
":. c #B63582",
">. c #B13698",
",. c #BB3AA4",
"<. c #CB1E82",
"1. c #DA1B84",
"2. c #E31C89",
"3. c #C92783",
"4. c #D82887",
"5. c #C73788",
"6. c #CD348E",
"7. c #DA358B",
"8. c #D6388B",
"9. c #DF2D92",
"0. c #CE3692",
"q. c #CE3B92",
"w. c #CD3699",
"e. c #D33593",
"r. c #D13B92",
"t. c #D73A95",
"y. c #DB3A9A",
"u. c #E3288A",
"i. c #E43689",
"p. c #E42C92",
"a. c #E63A93",
"s. c #D43EA0",
"d. c #984F88",
"f. c #B14D90",
"g. c #B75694",
"h. c #8C728F",
"j. c #997B97",
"k. c #A76A88",
"l. c #A87A88",
"z. c #B17690",
"x. c #9F5AAF",
"c. c #965BB7",
"v. c #995AB6",
"b. c #B14CA6",
"n. c #A658A8",
"m. c #A456B5",
"M. c #877CA8",
"N. c #937CA3",
"B. c #867CB5",
"V. c #9572B6",
"C. c #AD71AF",
"Z. c #D6498C",
"A. c #C65589",
"S. c #D0508A",
"D. c #C54A94",
"F. c #D94996",
"G. c #CA5993",
"H. c #DD5593",
"J. c #D95799",
"K. c #EE4697",
"L. c #E64A97",
"P. c #E85698",
"I. c #EB5B9A",
"U. c #F1589C",
"Y. c #CB679A",
"T. c #D66899",
"R. c #CE7590",
"E. c #E7669B",
"W. c #EA7096",
"Q. c #CD55A9",
"!. c #DB5BA2",
"~. c #EB56A3",
"^. c #D967A6",
"/. c #CA76A4",
"(. c #D773A5",
"). c #CD6FB1",
"_. c #E46BA2",
"`. c #E869A8",
"'. c #F36AA9",
"]. c #E577A9",
"[. c #EB75AB",
"{. c #EA7BAE",
"}. c #F377AC",
"|. c #EE6AB1",
" X c #E47EB2",
".X c #ED7DB2",
"XX c #F577B3",
"oX c #F27EB1",
"OX c #995CCB",
"+X c #975BD0",
"@X c #AC4EC6",
"#X c #9A69C9",
"$X c #A363C6",
"%X c #AE72C5",
"&X c #C36EC3",
"*X c #C271C4",
"=X c #7B82B8",
"-X c #3C8FF2",
";X c #5C81DA",
":X c #5B85D8",
">X c #6982CA",
",X c #7281C3",
"<X c #6381D4",
"1X c #6588D8",
"2X c #4987E9",
"3X c #4B87E8",
"4X c #4988EA",
"5X c #5286E2",
"6X c #A28290",
"7X c #8882AE",
"8X c #B78FB3",
"9X c #D48F97",
"0X c #E39190",
"qX c #F2AC94",
"wX c #D192AC",
"eX c #DD85B4",
"rX c #EB85A9",
"tX c #E987B7",
"yX c #EC84B5",
"uX c #EE8FB2",
"iX c #EE8BBA",
"pX c #F285B5",
"aX c #F383BA",
"sX c #F28CBC",
"dX c #EC93BA",
"fX c #D8ABBD",
"gX c #EDA9AC",
"hX c #EBC3AA",
"jX c #8E8ED2",
"kX c #AC99C5",
"lX c #D490C9",
"zX c #EA93C5",
"xX c #F597C3",
"cX c #D4ABC8",
"vX c #E6A9CA",
"bX c #EEADCD",
"nX c #F5A6CA",
"mX c #F1ADCD",
"MX c #F6B6CB",
"NX c #EBAED1",
"BX c #E9B5D3",
"VX c #EBBAD5",
"CX c #F4B6D2",
"ZX c #F6BAD7",
"AX c #E5B5E4",
"SX c #F5C7D9",
"DX c #F3D2D6",
"FX c #F9F0DC",
"GX c #D3C6E2",
"HX c #DEC9E3",
"JX c #F7CDE4",
"KX c #F8D1E5",
"LX c #F5D6EE",
"PX c #F8D4E9",
"IX c #FBEEE8",
/* pixels */
"q.r.q.q.e.q.q.q.q.q.w.q.q.0.q.q.r.r.q.q.0.q.w.q.q.q.q.q.q.q.q.q.q.q.r.q.q.q.q.q.q.q.q.q.q.q.q.q.q.q.q.q.q.q.q.q.q.q.q.q.q.0.q.0.",
"r.q.8.7.7.7.7.7.7.7.7.6.7.7.7.8.7.4.7.7.7.7.7.7.8.7.7.8.7.7.7.7.7.7.7.7.7.7.7.7.7.7.7.7.7.7.7.7.7.7.7.7.7.7.7.7.7.7.7.7.7.8.q.r.",
"0.8.b.c.v.v.c.c.c.c.c.m.x.v.m.m.m.m.m.m.v.m.v.c.v.c.c.v.v.v.c.v.c.c.c.c.c.c.c.c.c.v.v.v.c.c.v.v.c.c.c.c.c.v.c.c.c.c.c.v.c.b.8.q.",
"q.7.c.-X2X4X4X4X2X4X;Xb.>.>.>.>.>.>.>.,.D.D.@X4X2X2X4X2X4X2X2X2X4X4X4X4X2X4X4X4X4X4X4X2X4X4X4X2X2X4X4X4X2X2X2X4X4X4X2X3X-Xc.7.q.",
"q.7.v.5X<X;X;X@.@.@.&.3.i.K.Z.N 1.m u N i.u.,.;X+.+.@.+.+.+.@.+.+.+.+.@.@.@.+.+.@.@.@.+.;X@.@.@.@.@.@.@.@.@.;X+.@.@.@.@.3Xm.8.q.",
"q.7.v.5X;X;X<X1X1X;X%.q.L.J.H.L.3.v 5.5.8.3.f.1X1X1X1X1X1X1X1X1X1X1X1X1X1X1X1X1X1X1X1X;X;X;X;X;X;X;X;X;X;X;X;X;X<X;X;X<X5Xv.7.q.",
"q.7.v.:X<X<XO.1XHXHXHXVXBXNXNXBXVXBXBXBXVXBXVXHXHXHXHXHXHXHXHXHXHXHXHXHXHXHXHXHXHXHXGX<X;X<X<X<X<X;X<X;X<X<X<X<X<X<X<X<X:Xv.7.q.",
"q.e.n.:X&.<X&.jXCXCXCXCXVXZXZXCXSXCXCXZXZXZXZXMXCXMXCXCXCXCXZXMXCXCXCXCXCXMXCXCXCXMXBX>X<X<X&.&.<X<X<X&.<X&.<X&.&.&.<X<X:Xn.7.q.",
"q.8.x.>X#.>X#.$.).tX.XyXyX X{.{.{.{.{.{.{.{.].{.{.}.{.{.{.{.{.{.{.{.{.yX{.{.yXyXtXuXC.<X>X>X#.>X>X>X>X<X#.>X,X#.>X#.>X#.<Xn.8.q.",
"q.8.n.>X$.$.$.,XV.NXxXzXiXI.I.I.I.I.I.I.I.I.I.I.E.I.I.I.I.I.E.I.I.I.I.I.I.E.iXiXxXlXo.,X,X$.$.%.$.o.,X,X$.,X$.$.#.,X$.$.>Xn.8.q.",
"q.7.n.,Xo.$.,X,X$.cXxX XdX`.P.I.I.I.I.I.I.I.I.I.I.I.I.I.I.I.U.I.I.I.I.I.I.[.zXpXxXkXo.$.o.,X=X=X$.%.X.3 =X$.%.%.%.%.%.o.,Xn.7.q.",
"Z.e.n.=XB.B.o.B.=XcXnXzXiXyXI.I.I.I.P.I.I.I.I.I.I.I.P.I.I.I.I.U.P.I.I.I.I.yXsXtXvXkXo.=Xo.=X=X=Xo.7X..* ..=XX.o.7Xo.o.o.=Xn.8.q.",
"0.e.g.#X#X&XC.B.=XkXdXtXdXxXtXyXyXyX.XtXyXaXyXoXoXXXoXpXoXpXoXoXoXrXoX.XpXuXyXyXwXkXX.B.B...3 =Xh.M.5 - 5 X...M.3 X.B.M.=Xn.8.r.",
"q.e.k.#X*.%X/.N.B.cX8XP.L.F.F.H.H.F.P.F.F.L.!.*X).%X&X&X&X&X&X&X&X&X&X&X*X^.wXC.kXkXM.7XM.M.3 < ..h.5 - 5 h...% 3 7XM.M.7Xg.8.q.",
"Z.8.n.#X*.lX/.M.N.cX8Xt.u.j g u 8.P.K.8.<.u >.+X+XOXOX+X+X+X+X+XOXOXOXOX+Xb.C.M.8XkXN.7XN.N.N.< O 5 2 - 2 4 % < 6X7XM.N.7Xg.8.q.",
"0.t.g.V.*.lXY.6X7XcX8X3.8.F.3.-.3.P.I.P.3.l w.$X$X$XOX$X$Xm.$Xm.$XOX$XOX$X).j.j.8X8Xh.6Xj.j.j.h.< $ 1 - < O < j.j.j.N.j.6Xg.e.q.",
"q.e.g.z.%X).R.6Xj.cX8XM M z l z h -.6.3.-.K.F.OXOX$Xb.;.c ~ ~ :.;.b.$X@XOXQ.z.j.8X8Xj.j.j.j.5 2 2 & $ * $ * 2 2 5 l.j.l.6Xg.7.r.",
"q.e.g.6XV.V.l.j.6XfX9XM L.M j l j <.u -.u 3.w.$X$Xb.^ B j ~ P z v P g.$X$XY.z.l.8XwXl.l.l.l.l.G 2 = * $ * = 2 G l.l.6Xl.6Xg.e.r.",
"q.e.g.{ V.V.K l.J fX9X7.U.7.8.3.-.l M M j 3.s.$Xm.;.P ~ -.B P ;.d P v m.$X).z.l.9XwXJ l.l.l.A < O O $ * % O O < G z.l.l.6Xg.e.q.",
"r.e.A.{ V.C.K J J fX/.u 6.i.7.3.a.U.P.K.~.zX`.&Xb.r f P t w w y n d s >.%XzX^.R.9XwXK z.K 1 % < < # * - % % & < O 1 J K K A.e.r.",
"q.w.) { V.C.K K 9XvXwXJ.8.~.4.m 6.7.8.Z.F.J.F.$X8X9X/.9XwX9XR./.rXY.(.wX%X).F.' 9X8X{ { S A G S * * o = X 1 & { J A H K { A.0.q.",
"q.w.^ { V.C.` ' sX[.'.}.~.a.L.F.0.D.5.u m u.w.wXIXIXIXIXIXIXJXSXZXSXAXZXlXD.) H 9X9X{ { { | | A H 2 X = X A A S K | ` ` | ^ e.q.",
"q.0.T.0X8X8X9XqXnXvXyX`. X`.zXnXpXnXnXQ.^.`.).cXKXDXDXSXSXSXZXCXCXCXZXSXvXeX9X9XfXgX} 9X9X9X9X` ' = & C < 1 | ` ` ` ` ` ` A.0.q.",
"r.6.tXLXPXLXPXLXPXPXLXPXJXLXPXKXKXKXPXPXLXJXLXJXJXJXKXKXKXJXKXKXPXKXKXKXPXPXPXLXDXLXDXFXKXLXgXY | S S Z S S T ` ` ` ` S } ) e.q.",
"q.6.^.ZXbXbXmXmXbXmXmXmXmXNXmXbXmXmXbXmXmXbXmXbXbXbXbXbXmXmXbXbXNXmXbXbXbXmXmXmXbXbXmXbXbXmX0XT T T Y A | T T T Y T T T T ) w.q.",
"r.6.J.mXsXyXtXiXiXiXiXyXiXaXaXtXuXiXiXiXyXiXiXiXZXuXtXiXyXyXiXiXaXtXiXiXiXtXaXtXiXuXiXmXiX] T U T U Y C U T T T T T T T U ^ w.q.",
"r.e.) gXxXaXsXsXiXdXtXtXzXiXzXiXsX_..XtXtXtXtXtXZXyX_.{.sXiXsXzXsXzXsXsXsXsXiXzXsXiXxXCX .U U T T } Y Z U U U U W T W T U ^ w.q.",
"r.w.( qX0XrXrXrXrXrXY.Y..X].].]. X8.s x 8.0.5.p vXpXP.E.[.].[.].[.[.[.[.[.[.[.[.pXuXW.gXT R W W W W Y Z T W W W W U W ! W ) w.q.",
"r.e./ qX} [ ! W W W P x ;.z -.;.c H.a r 7.K.u e cXpXP.F L.I.P.I.I.P.P.I.I.P.I.P.U.[ E qX! R W R W R U Z W W R W R E W R 7 ^ 0.Z.",
"r.w./ qX} [ ! 7 E E W v g h h g z P.x t q.L.M a vXuXZ.a H.F.5.5.5.F.^.5.5.5.5.J.] E W gX! 7 E E R E U Z R E R E E 7 E E 7 ) w.q.",
"q.w./ qX} [ ! E E 7 W x h h h h ;.J.p e ,.@Xk 9 fXpXH.x L.N N N 1.F.|.4.m N M 5.] 7 W qX} 7 7 7 7 7 U C R R E E E E E E 7 / w.q.",
"r.w./ qX} [ ! 7 R W [ v ;.g h h z P.p 8 ,.@Xu > fXaXH.c L.7.] V 4.h ( y u.K.3.:.) Q ] gX[ E Q R R 7 7 Z E E E E 7 E 7 E 7 / w.q.",
"0.w./ qX}  .Q 7 W.rXrX.X.X^.h z z H.p e ,.@Xk > fXsXH.g L.4.p.u.k > , i 4.!.3.Z.q.1.4.zXp.1.4.V V _ _ F Q Q W W 7 E 7 R 7 / e.r.",
"r.w./ qX .] L L ].aXyXoXyX^.-.j :.P.p e ,.@Xj > fXsXH.v J.4.8.u.j , , i a.[.5.5.S.N V zXi.N u.2.2.1.2.2.1.u.V _ ] W E 7 L ( e.q.",
"r.0./ qX^ ) P w W.sXoXyXyX_.-.j z P.p 8 >.>.f > fXpXH.c L.4.M 4.f > , 9 9.Q.6.:.] 7 R gX! Q Q Q Q I V B V 2.2.1.2.u._ I L B q.q.",
"q.t.~ 0X^ ) P b ].yXyX.XaX^.h u z J.Z.L.!.!.P.F.bXpXH.c P.t.f M y > i 9 3.,.y.!.S.Q E gX! 7 7 7 E 7 U Z R Q I _ J.9.N u.~ ( e.r.",
"q.t.B 9X/ ) P b W.aXyXyXaX_.;.-.v H.P.U.I.I.U.I.bXtXP.c L.4.t.u.l j h g , j j g =.b.W qXW L L L L L Y Z 7 7 7 } DX9Xm 1.N B r.r.",
"q.r.( 0X' ) P P ].rX{.{.tX`.z z ;.P.L.U.I.P.I.P.bXtXH.c F.L.'.a.j l -.-.i g z c =.n.U gX^ L b L L L L q Q E W hXFXSXF m 2.7.q.r.",
"e.w.v 9X^ / P w ~ P n c ;.D.z y z F.L.I.U.I.I.P.bXpXZ.g a.a.L.i.y u u y i r f f =.f.L uX^ b b b b P P q L L T FXDXLX(.1.u.B r.r.",
"q.w.( gXR.0X' ' ' ^ ' G.f.G.g.f.g.]._.`.[._.`._.BXdXW.g.`.!.`.J.A.D.D.f.F f.D.g.b.C.' gX' Y ^ ^ b b w + P P ' FXIXLX|.1.w v t.q.",
"r.6.tXLXPXLXLXLXLXLXIXLXJXJXKXKXJXJXJXJXJXJXSXJXPXKXKXKXKXJXJXKXJXJXJXJXKXKXJXJXPXPXJXKXKXJXJXSXn n n r N 4.4.wXSXwX8.q # D y.0.",
"r.6.).VXNXvXbXBXvXvXvXvXlXBXVXVXVXVXVXSXVXVXVXVXVXBXBXVXVXVXVXVXCXVXVXVXVXVXVXVXVXVXVXVXVXVXVXBXa.p.p.9.p.p.p.l f s 0 C % D t.0.",
"e.6.J._._.W._._._._.P.T._.E._.E._.E._._.^.E.^.E._._._._._._._._._.E._.E._._._._._._.E._._._._._.|.tXtXiXpXtXiX^.g D.eXrXeXJ.8.q.",
"q.6.J.eX XeXeXeXtXzX`.rXyX XeX XyX XtX(.rX XtXeX.XyX X X X X X X X X XeX(.yXyX X X X XtX X X XtXtXtXdXeXdXtXeX Xc /.xXxXxX^.6.r.",
"r.8.D.x x x x a S.E.v v :.c ;.;.;.:.c ;.;.;.c x G.G.> 0 D p p a p D p p > G.!.;.;.x x x x x x x x x x s x v G.P.v S.`.'.F a y.e.",
"r.0.Z.S.^ ^ ~ n T.`.Z.M 3.7.M u <.4.K.4.3.<.B ~ E.T.s r g g g h y =.g s t Y.!.1.V B ( ^ ^ ^ ^ ) ~ ^ F q ^ ) E.'.:.G.}.XXz.D y.q.",
"r.6.F.}.dXpX'.P..XyXU.4.K.'.P.y.4.K.U.4.M M 7.U.pX(.t f =.h h z -.;.h y r (.yXZ.4.1.u.K.~..XiXdXdXdXsXdXdX[._.'.:.G.}.tXxX!.0.q.",
"r.q.Z.[.uXwXrXH.{.{.P.4.5.3.7.4.-.8.u.p.K.4.5.H.{./.t y f h h z g g h y t Y.zXdX(.T.B m 2.p.a.`.yXuXuXuXuX[.[.XX:.T.oX.XdXJ.q.r.",
"r.q.L.F 2 A D 1 J .X9 l j g l 3.6.j l 3.t.4.h o k.(.e y g z h j h h g g t (.z.; * = * = 0 k 1.u.u.B F 1 * D T.'.z T.'.aX6XD p.q.",
"q.6.L.C D '.K.d G aX> 8.a.l 3.L.U.3.l j u N h . k./.t f g h h j h g ;.y t ^.k.X X $ $ $ $ % < 0 j 4.u.B d F W.oXz Y.}.aXz.q y.q.",
"q.0.L.D C G.A.0 G zX9 8.a.-.z 3.3.j h 3.2.K.v . k.(.t f g z z z j g g f t (.k.X O O $ $ $ $ $ $ % ( u.1.4.a.`.'.:.Y.}.sXz.i y.q.",
"r.w.K.G # 1 2 @ G xX9 u 1.4.3.3.3.j h j 3.7.v . k.(.t y h h h z g -.-.h t (.k.o o O S S < $ % $ % A.4.M 9 F `.'.:.J.[.aXl.0 y.q.",
"q.0.L.D @ G D   G oX> M p.U.4.g z 3.z M M 1.k . k./.t f g z 5.-.:.:.-.f e ^.R.^ a H  . .J $ $ $ % 1 6 1 O C T.XXv T.XXaXk.i y.q.",
"q.6.F.H < D H $ l.oXC k 4.r.i.3.l 4.4.3.i.K.v . k.(.t f g v D.-.5.5.h f r (.^.3.4.6.4.7.; $ & & # # = $ # C T.'.k T.'.aXl.q y.q.",
"r.6.J.}.E.T.I.S. X.XC f <.M u v K.v q 9 9 x 0 . G (.y f h h h j ;.g ;.y r /.[.4.7.a.L.L.; o d M q O = &   C T.XXv T.}.aX6X0 y.0.",
"q.q.F.L.P.P.P.P.[.aX0 5.u.p.y D }.> . X o : : o k.^.t f h h h j h g h y r (.oXL.P.U.P.U.: f p.2.p.1 C = $ C E.'.:.G.}.pX6Xq y.q.",
"r.6.L.I.I.I.I.I.W._.> Z.a.7.B D xX1 + ; J.P.F.8.[./.r y y ;.g -.h h h f t ^.zXiXI.P.P.U.+ : u m s o 1 + . C T.XX:.Y.}.sXl.9 a.r.",
"r.q.H.I.I.I.I.I.W.) d.v N j g z.xXk.Z F '.K.u.p.|.^.r y g g g -.h g h y t Y.nXJXW.K.K.P.D < d.d.4 4 D 4 4 k.T.'.z T.oXpXz.d.y.r.",
"r.q.F.I.I.I.I.H.W.T.(.5.3.6.6.F.F.D.( D.P.U.P.i.|./.> > , i , a i , i , > Y.nXZXuXrXrX}.lXzXlX).zXNXgXvXBXzX{.`.M H.`.}.kX+X7.r.",
"q.6.F.I.I.I.H.F z.R.F :.3.P.a.u a 0 s q S.Z.U.u.~./.: : , , , , , , , > > Y.nXZXMXMXgXMXZXZXzX|.NXZXuXnXZXNX}.P.u f.}.pXkXd.7.6.",
"r.6.!.sXpXiXJ 1 G G 2 C W.}.rX' 2 1 H 1 1 F P.8.`./.: : : : : , , : : : ; Y.nXdXCXZXCXCXCXZXCXCXZXdXgXAXSXZXMXrXy F oXsXwXf.e.w.",
"q.q.F._.^.!.A.D D F p F J.T.J.T.D a F D D G.S.H.!.G.s f c c ;.;.;.c c x f D.!.S.J.^.~.^.!.^.!.^.!.H.J.`.|.(.].J.-.D.J.!.^.F.e.e.",
"q.r.q.6.6.6.e.t.y.t.y.e.0.6.0.0.y.y.e.t.y.e.0.0.6.q.y.r.r.t.y.e.q.y.e.t.t.e.q.q.6.6.6.6.e.6.6.6.6.0.q.6.6.6.6.6.e.e.6.6.6.6.q.r.",
"r.q.r.0.r.q.q.8.q.q.q.q.q.r.r.r.q.q.r.q.6.e.q.r.r.q.q.q.q.q.q.q.q.q.q.q.q.q.r.r.r.r.r.r.r.e.r.r.q.r.r.q.q.r.r.r.q.r.r.q.r.r.q.r."
};
