/* XPM */
static char *_1711733663[] = {
/* columns rows colors chars-per-pixel */
"64 64 254 2 ",
"   c #3E2D37",
".  c #412B35",
"X  c #47293A",
"o  c #453C33",
"O  c #463839",
"+  c #53333B",
"@  c #6A2C3A",
"#  c #47462C",
"$  c #494635",
"%  c #454C32",
"&  c #4C4D34",
"*  c #53443D",
"=  c #564B38",
"-  c #515332",
";  c #595437",
":  c #6A483D",
">  c #655A39",
",  c #6A643B",
"<  c #776C37",
"1  c #7D7233",
"2  c #4A2B41",
"3  c #5C2B46",
"4  c #563845",
"5  c #693549",
"6  c #782C59",
"7  c #7B2F61",
"8  c #7C3062",
"9  c #594945",
"0  c #57524B",
"q  c #684648",
"w  c #714A48",
"e  c #6A5746",
"r  c #6A5753",
"t  c #735055",
"y  c #74674E",
"u  c #7D764A",
"i  c #785266",
"p  c #756767",
"a  c #965F3E",
"s  c #80712F",
"d  c #817232",
"f  c #87793C",
"g  c #8F1F5B",
"h  c #993B47",
"j  c #8D2E57",
"k  c #B03752",
"l  c #962869",
"z  c #93336B",
"x  c #A8256C",
"c  c #B93763",
"v  c #AB2775",
"b  c #AD297B",
"n  c #B9277C",
"m  c #B2297D",
"M  c #A73772",
"N  c #B93876",
"B  c #C33D4A",
"V  c #C4287D",
"C  c #CA3571",
"Z  c #E5337E",
"A  c #8B4F51",
"S  c #AE4C4D",
"D  c #B9474B",
"F  c #8C6F4F",
"G  c #897844",
"H  c #937A47",
"J  c #937B4A",
"K  c #847856",
"L  c #B66253",
"P  c #8E4F66",
"I  c #955A65",
"U  c #974D71",
"Y  c #AC4979",
"T  c #B24F74",
"R  c #907074",
"E  c #B26776",
"W  c #C6444D",
"Q  c #C84755",
"!  c #C94A51",
"~  c #CB555A",
"^  c #E57348",
"/  c #E66F54",
"(  c #C94863",
")  c #D4576B",
"_  c #DE6860",
"`  c #D26F72",
"'  c #8C8246",
"]  c #93864A",
"[  c #948D55",
"{  c #998A56",
"}  c #A18C5B",
"|  c #948D6F",
" . c #968A76",
".. c #A8996A",
"X. c #AD9470",
"o. c #AAA36B",
"O. c #ADA675",
"+. c #B5A87A",
"@. c #B8B37D",
"#. c #CE8A7C",
"$. c #EA8D71",
"%. c #EEA468",
"&. c #74648E",
"*. c #607DD8",
"=. c #BA2980",
"-. c #B83783",
";. c #B1398B",
":. c #B537A3",
">. c #D71F85",
",. c #E11F88",
"<. c #C32581",
"1. c #CA2582",
"2. c #C32A82",
"3. c #CC2C85",
"4. c #DB2385",
"5. c #D82887",
"6. c #C93588",
"7. c #D3358B",
"8. c #D9398B",
"9. c #C93C92",
"0. c #DB3C91",
"q. c #E12287",
"w. c #E1358C",
"e. c #E43B92",
"r. c #B84E86",
"t. c #BA4D8A",
"y. c #B5588C",
"u. c #966788",
"i. c #B57092",
"p. c #B248AB",
"a. c #AB5AB8",
"s. c #8972A3",
"d. c #C34886",
"f. c #D4478B",
"g. c #CA588B",
"h. c #D0528E",
"j. c #D94796",
"k. c #C65993",
"l. c #DC5798",
"z. c #E0408F",
"x. c #E54995",
"c. c #E65598",
"v. c #E55A9B",
"b. c #EC5C9B",
"n. c #C8658A",
"m. c #D86997",
"M. c #CC7192",
"N. c #D7789A",
"B. c #E6669C",
"V. c #EA609D",
"C. c #E87799",
"Z. c #CD4FA8",
"A. c #E45CA2",
"S. c #D56BA3",
"D. c #CC7DA9",
"F. c #D678A5",
"G. c #D57BAC",
"H. c #DB7CAD",
"J. c #C96CB0",
"K. c #EC66A2",
"L. c #E66AA7",
"P. c #EC6CA5",
"I. c #E474A7",
"U. c #E474A9",
"Y. c #EA76A9",
"T. c #ED74AB",
"R. c #E675B2",
"E. c #EC7BB2",
"W. c #E57FBC",
"Q. c #F078B3",
"!. c #9E5FCB",
"~. c #A65BC3",
"^. c #9E60CA",
"/. c #8F7EDC",
"(. c #A461C7",
"). c #B478C8",
"_. c #5882E8",
"`. c #97908D",
"'. c #AC9492",
"]. c #BAAC82",
"[. c #BCB384",
"{. c #BCBA84",
"}. c #BCB988",
"|. c #B198A0",
" X c #B5A5A5",
".X c #BAACB2",
"XX c #C98A96",
"oX c #DE8B98",
"OX c #E9928E",
"+X c #C6B496",
"@X c #F2AC9C",
"#X c #CD8FAA",
"$X c #D986A7",
"%X c #DA97A8",
"&X c #D885B5",
"*X c #E787A9",
"=X c #E787B5",
"-X c #ED84B5",
";X c #ED8BBA",
":X c #F081B5",
">X c #F087B8",
",X c #F18CBC",
"<X c #E79AB0",
"1X c #EC91BB",
"2X c #E896BA",
"3X c #C8A5AB",
"4X c #CAADB4",
"5X c #D7A7BA",
"6X c #C9B7B8",
"7X c #D7B3B2",
"8X c #ECACB8",
"9X c #C6C591",
"0X c #C9C693",
"qX c #CDC39C",
"wX c #DEC0B3",
"eX c #E1C7B9",
"rX c #968FDE",
"tX c #B095DC",
"yX c #D687C3",
"uX c #E695C1",
"iX c #EE9DC3",
"pX c #F19BC3",
"aX c #D5A9C6",
"sX c #EDA8CB",
"dX c #F3A7C6",
"fX c #F1AECE",
"gX c #EEB2CF",
"hX c #F5B7D5",
"jX c #DAC7CA",
"kX c #D6C8D0",
"lX c #EDCBC8",
"zX c #EBC8D9",
"xX c #F5C9D7",
"cX c #F2C4DD",
"vX c #E8D6DC",
"bX c #EED6DD",
"nX c #F7D7DC",
"mX c #F7E0D7",
"MX c #ECC8E1",
"NX c #F2C6E0",
"BX c #F5C9E2",
"VX c #F8CDE2",
"CX c #ECD9E4",
"ZX c #F6D3E5",
"AX c #F9D4E5",
"SX c #FADAE5",
"DX c #F4DAE8",
"FX c #FBDBE9",
"GX c #F5E3EB",
"HX c #FBE6E9",
"JX c #FBE3ED",
"KX c #FDF2E1",
"LX c #FDE7F0",
"PX c #FDEAF1",
/* pixels */
"AXAXAXVXVXAXAXAXAXVXAXAXAXAXAXAXZXVXAXAXAXZXAXAXAXAXAXAXAXAXSXAXZXAXAXAXAXSXAXAXAXFXAXAXFXAXAXFXAXAXAXAXAXAXAXAXAXAXZXAXAXVXAXAX",
"AXAXAXVXVXAXAXVXVXAXAXAXAXAXVXAXAXAXAXVXAXAXAXVXAXAXZXAXAXAXAXAXAXFXAXAXAXAXAXZXAXAXAXAXFXAXAXAXFXAXAXAXZXZXAXZXAXAXAXAXAXAXAXAX",
"AXAXAXVXAXAXAXAXAXAXAXAXAXAXAXAXVXAXAXVXAXAXAXVXAXVXVXAXAXAXFXAXVXAXAXVXAXAXAXAXAXFXFXAXAXAXAXFXAXAXFXAXAXAXAXAXAXAXFXAXFXAXAXAX",
"AXAXxXAXVXAXAXVXAXAXAXAXAXAXAXAXAXAXAXAXAXAXZXAXAXAXVXAXAXAXVXAXAXAXAXAXAXAXAXAXAXAXAXAXZXZXAXAXAXAXAXAXFXAXAXAXAXAXAXAXAXAXAXAX",
"AXAXVXAXVXAXAXAXAXVXAXVXAXAXAXAXAXAXAXAXFXAXZXZXAXAXAXAXVXAXSXAXAXAXAXAXAXFXAXAXAXAXAXAXAXAXAXAXAXAXAXAXAXAXAXAXAXZXAXZXAXAXAXAX",
"AXAXAXAXnXAXAXAXAXAXAXAXVXAXAXVXVXAXAXAXZXFXAXZXAXVXAXAXAXAXAXAXAXAXAXAXFXZXAXAXAXAXAXAXAXAXFXAXAXAXAXAXAXAXAXAXAXAXAXFXAXAXAXAX",
"VXAXVXVXVXAXAXAXAXVXAXAXAXAXAXAXAXAXAXAXAXAXAXAXAXAXAXAXAXAXVXAXAXAXAXAXAXAXAXAXFXAXAXAXAXAXAXAXAXAXAXAXAXAXAXAXAXAXAXAXAXAXAXAX",
"AXAXAXAXVXVXAXAXVXAXVXAXAXVXAXAXAXAXVXAXAXAXZXFXAXAXVXAXFXAXAXAXAXAXAXFXAXAXFXAXAXAXAXAXAXAXAXAXAXAXAXZXAXAXAXAXAXAXAXAXAXAXAXAX",
"VXAXAXAXAXVXAXAXAXAXVXAXAXAXAXAXAXAXZXAXAXZXAXAXAXAXAXAXAXAXAXZXFXAXFXAXAXAXFXAXAXAXAXFXAXAXFXAXAXAXAXAXAXAXAXAXAXAXAXAXAXAXAXAX",
"AXVXAXVXAXAXAXVXAXAXAXAXVXAXAXAXAXAXAXAXAXAXAXAXAXAXZXAXAXAXAXAXAXAXAXAXAXAXAXAXAXAXAXAXAXAXAXAXAXAXAXAXAXAXAXAXZXAXAXAXAXAXAXAX",
"AXVXnXVXAXAXAXAXAXAXAXAXAXVXAXVXZXZXAXAXAXAXAXAXFXFXAXFXAXFXAXAXAXFXAXAXZXAXAXAXAXAXAXAXVXFXAXAXAXAXAXAXAXAXAXFXFXFXAXAXAXAXAXAX",
"AXAXAXAXVXAXAXAXAXAXVXAXAXAXAXAXAXZXJXMXNXNXNXBXNXNXNXNXFXAXAXVXAXAXAXAXZXAXAXZXAXAXAXAXAXFXAXZXAXAXAXAXAXAXAXAXAXAXAXAXAXAXAXAX",
"VXAXAXAXAXAXVXAXVXAXAXVXAXAXVXAXVXZXJX9.8.7.<.>.<.1.e.e.ZXZXZXZXAXAXZXZXAXZXZXZXAXAXAXZXFXZXAXAXAXAXAXAXAXAXAXAXAXAXAXAXAXAXAXAX",
"AXAXAXAXAXVXAXAXAXAXAXAXAXAXAXAXLXLXLXj.x.x.w.V n 1.5.3.DXLXLXLXLXLXPXPXPXPXPXPXLXPXLXLXFXZXAXAXAXAXAXAXAXAXAXAXAXAXAXAXAXAXAXAX",
"kXHXAXAXAXAXVXAXAXAXAXAXAXAXAXFXGXDXAXcXzXcXcXcXcXcXcXcXAXDXDXZXZXZXZXZXZXZXZXZXAXZXZXDXJXAXAXAXAXAXAXAXAXAXAXAXAXAXAXAXAXAXAXAX",
" ..XJXJXJXJXAXAXAXAXAXAXAXAXAXAXGXiXiX2XiXiXiXiXiXiXdXiXiXiXiXpXpXiXiXiXpXpXpXiXpXpXpXMXFXZXAXAXAXAXAXAXAXAXAXAXFXAXAXAXAXFXAXAX",
"K `.kXCX`.GXCXDXAXAXAXAXAXAXAXAXLXsXpX;XE.K.K.K.K.V.K.V.P.K.K.K.V.K.P.K.K.K.B.Y.uXuXsXGXSXAXZXDXAXFXJXAXDXAXAXFXAXAXAXAXAXAXAXAX",
"u | .Xr .XGXZXZXAXAXAXAXVXFXFXAXFXGXsX;X;XA.b.b.b.b.V.V.b.b.b.b.V.b.b.b.b.b.b.R.>XpXZXFXAXSXZXDXFXCXaXFXAXAXAXAXAXZXAXVXAXZXAXAX",
", y 9 |.GXFXZXZXAXVXVXFXFXZXMXAXFXLXsX>X;XP.V.V.V.V.b.A.V.b.V.V.V.V.A.b.b.V.K.>XpXW.FXFXAXGXCXGXPX X .PXGXJXDXSXZXVXZXZXAXAXAXAX",
"- & > u  XLXFXZXAXAXAXAXJXtX/.yXPXLXMXW.E.E.E.E.T.E.Q.Q.-XW.W.W.W.-XW.W.W.=XW.>XpXhXJXFXAXGX`.vXkX`.u CXkX`.kXSXAXSXZXFXAXAXAXAX",
"& - 0 |.MXPXDXDXAXZXAXVXDXtXrX&XPXJXDXA.1.m n 8.x.e.1.=.a.^.^.^.!.~.!.!.!.!.!.yXPXLXDXFXZXFXaXr  X| F 6Xr |.JXAXAXAXAXAXAXAXAXAX",
"> & % 0 p aXJXDXAXAXAXAXFXtXrX&XPXGXZX0.8.7.n 2.c.x.2.3.~.^.^.(.a.a.a.^.!.!.^.yXLXJXFXFXSXJXCX.X0 e , 0 `.vXJXSXAXAXAXAXAXAXAXAX",
"; $ p '.kX.XGXAXAXAXZXFXFXBX).zXJXFXZX9.7.n =.m <.1.1.x.~.(.a.6.m ~ N b y.~.~.yXLXJXDXFXAXFX.X[ , & - > u  XGXSXAXAXAXAXAXAXAXAX",
"p 0 4XkXFXFXFXAXZXZXZXZXZXLXtXHXZXHXxXj.x.2.1.m =.=.=.1.a.a.Y ( m ! N N ( p.~.yXPXFXFXFXSXGXvXu.$ % & $ u.kXGXbXAXAXAXAXVXAXAXAX",
"'.4X.XFXAXAXAXAXAXAXFXAXAXJXtXPXFXJXxX9.0.e.<.z.x.0.A.R.J.p.b Q v Q M c N ;.~.&X1XJXDXFXFX Xp p & & ; - p p `.DXAXAXVXAXAXAXAXAX",
"3XMXJXFXAXAXAXAXFXAXDXAXAXJXtXPXFXsXdXU.x.x.1.1.7.6.7.j.p.aX7XgXgX8XuX2XuX2X).S.2XHXSXFXGXvXGX .`.O ; R p HXbXDXAXAXAXAXAXAXAXSX",
"3XZXFXAXAXFXSXAXZXSXFXLXJXPXtXPXxX;XP.v.A.x.L.L.R.3.3.j.D.GXnXmXbXxXhXgXhXgXfXZ.ZXHXSXJXJXJXPXbX Xr R p bXHXFXAXAXAXVXAXAXAXFXDX",
"3XbXFXAXAXAXAXSXZXSXJXAXnXAXZXVXVXBXBXcXcXNXBXcXNXNXNXNXMXVXVXxXnXxXVXVXVXVXBXNXVXxXAXAXVXVXHXFX6XjX4X XJXSXAXAXFXAXFXJXFXAXJXR ",
"3XzXAXAXAXAXJXvXFXAXJXxXfXgXfXfXfXfXfXfXfXfXgXfXfXfXsXfXfXgXsXfXfXdXfXdXfXfXfXfXfXfXfXfXhXfXJXAXJXbX4XJXFXAXAXFXSXHXSX+XPXGXSXCX",
"3XbXAXJXJXLXjXX.JXLXHXPXxXfX>X,X,X,X;X;X,X,X;X;X>XuXuX;X;XhX;X;XpX>XuXpXuX>X>XuX,X,X,X1XhXJXFXAXZXbX5XFXAXAXAXAXAXnX7X+XlXlXPXvX",
"3XbXSXJX|..X+XK jX'.CXSXPXxX,X,X;X>X*X&X>X>X;X-X0.k.l.l.t.gXI.V.Q.Q.uXQ.>X>XQ.>X>X>X,X<XFXFXFXVXAXbX4XSXAXAXAXAXSXnXX.H X.lXPXjX",
"3XDXSXFXHXR y u r 7XPXSXJXnXSXlXnXnXsXY -.-.-.-.d.x 8.7.l uXP.h.c.b.b.b.b.b.b.b.b.V.xXSXSXFXVXFXAXbX7XFXAXAXAXAXJXlX+X+Xo.eXPX3X",
"XXlXHXPX7X| ; - K +XHXFXJXnXHXnXFXFXFXt.=.b b -.d.v Z.9.l sXK.Y c.7.6.6.m.j.6.6.f.I.PXHXnXAXSXAXSXnX4XFXAXAXAXAXVXLXeXeXlXPX3XI ",
"S D ~ xX|.r $ - 9 R bXJXJXnXHXnXLXFXLXt.b b b -.t.l :.:.g 5XP.d.l.Z Z q.j.0.q.Z V Y.PXHXSXJXFXHXFXbX7XFXAXAXAXAXAXAXPXwXmXHXCXGX",
"h k ! D XX| 9 = p 6X7XPXJXnX@X$.OX8XdXH.S.=.m -.t.l :.:.g 5XP.d.j.5.8.V z z 3.x.n h.V.P.>XP.Y.-X1X8X5XFXJXJXAXSXFXJXOXL ~ ~ oXnX",
"h k B ! ! ` R K 6XPXSXAXJXxX/ ) ~ :X-XE.=X-.=.-.r.l :.:.6 5XI.6.c.5.e.V 7 8 3.T.V h.8.c.L.q.q.q.q.,.,.w.v.pXSXJXSX` ! S W ! ! ~ ",
"h k B W W W ~ 7XHXFXFXJXCX8XW ) Q :X:X:X>X-.=.-.d.x t.:.l 8XP.t.j.5.V n 6 8 =.Z.9.m.PX8XOX^ / / _ ) m.K.w.q.5.K.) ! W S D W W W ",
"j B k B W B ! E nXJXSXlXOXoX! ( Q Q.:X:XQ.d.=.-.c.b.b.b.c.sXY.6.c.3.<.V l l v 6.-.M yXeX$.^ / _ ^ ^ 4XJXLXlXI.q.q.Q D D h k B D ",
"@ h h B h W D S ~ #.] L ! oX~ ~ ! :X:X:XQ.-.=.-.c.b.b.b.c.sXP.d.l.e.e.=.<.=.l b v ;.D.lXOX! W ! W D 3XHXJXmXlXT 5.C @ D = k h h ",
"@ @ k A : B W S W D S D B $XQ ) Q ( Q N ;.;.=.2.b.b.b.b.b.dXP.-.c.x.x.=.<.=.l b v ;.).nXN.! B D W Q T oXoXKXAX=X,.C @ a # h @ D ",
"q '.#X X#X%X%X%X%X%X%X<X%X8X<X<X<X%X%X&X&X&XD.#X1X1X1X1X=XhXdX&XuXuXW.H.H.G.D.G.D.D.aXFX8XoXoX) B k k C h.KXSXl.x h + w $ A X h ",
"t cXcXNXxXzXNXzXNXNXxXNXNXBXNXNXNXcXcXcXhXNXNXNXBXNXNXNXVXVXBXBXNXBXBXBXBXBXNXNXNXBXBXBXNXBXcX=XZ 4.4.,.4.t.t.M : = 3 O = + + + ",
"O 4 t G.I.I.U.U.U.U.U.U.I.I.U.I.I.I.S.L.L.U.U.U.U.U.U.U.H.U.U.U.Y.U.T.U.I.I.U.U.L.U.R.U.U.U.I.K.L.E.R.Q.E.h.-.D.$XD.i.O 9 O X & ",
"O 9 9 i.D.D.D.=XG.H.G.G.G.G.G.G.G.-XU.H.H.H.H.H.H.H.H.G.G.E.H.F.G.G.G.G.G.G.D.R.=XH.H.H.H.H.H.H.H.H.H.G.H.S.k.-X;X$Xi.O * O * e ",
"O * * X o : k d.1.1.<.2.h.N c c c l.f.n n n n <.1.2.=.=.c h.N g l l l z l l g g.9.3.N c c k c c c k g C v.j.g.P.P.q 9 O + o * R ",
"$X$XD.m.$Xm.h.L.,.,.,.4.K.Y.*XB.l.-Xv.3.x.c.3.4.c.w.1.5.c.T.t.v b b b b ;.=.x S.l.5.4.0.L.E.=X=X*X=X$XY.P.j.k.P.pXF.N.$XF.$X#X2X",
"N.$XF.oXM.F.n.K.,.,.,.w.K.I.oXN.n.:Xl.5.6.7.7.2.5.w.e.3.h.I.t.x v b b =.v v l S.&XN.g.C 4.w.x.T.*XoX$X*XT.v.h.Q.>XR.U.=XOXOX$.$.",
"O $ % . o .   k.,.,.,.q.P.A I I A XXY <.=.=.7.7.m 1.7.1.3 R d.v b b m b =.v x J.i O % - * j 2.4.V M w t m.A.d.P.uXy J %.%.%.%.%.",
"O O % o   O   k.4.,.,.w.L.P m.x.z |.N 7.7.m 7.8.=.<.>.7.3 u.d.x b b m m b b x S.i X $ - % % $ q T q.3.7.K.A.k.T.uXP =X/ ^ ^ ^ ^ ",
"O O o % %   o n.,.4.,.q.K.P = t 9 XXr.n 4.1.1.=.m =.<.0.3 u.t.v b b m m b b x S.i 2 O a > % % % T 4.v N K.l.k.L.uXt + O 4 3 3 + ",
". o   % % O % n.4.1.1.,.L.A & I & XXY 2.e.z.n m <.<.V 4.5 u.d.x v -.6.-.=.b x S.n.Y E ` ` = # % = t = t m.L.d.Q.,Xt   o O 4 4 X ",
".   o o $ % q m.e.0.e.e.R.XXI n.t $XT =.1.3.5.7.3.V 8.f.3 U t.v v -.m m ;.b x S.x.>.5.5.M o q q # a # w m.K.d.T.,Xt o $ o 4 4 . ",
".   . o # # T l.v.b.c.b.c.c.c.v.b.E.Y C 5.<.M v.3 X X j . R t.x b b m b ;.v x S.A.x.c.b.Y 6 ,.4.5 A # w m.c.k.T.uXr o o $ ; 9   ",
". . . . o # ) b.b.b.b.b.b.b.b.A.b.C.Y f.0.x.U >X5 @ g.x.j.L.t.v v b m m =.b x S.,XK.b.c.Y j <.V @ F o q m.A.k.Y.uX0 o     = * . ",
"$ & & - & = T b.b.b.b.b.b.b.b.b.v.` k.=.1.n i.Q.E T b.e.e.L.t.l b l b b b l x S.hX,Xb.b.k.u.p.u.u.i.u.i.U.A.d.Y.uXs.&.&.&.R p t ",
"< 1 d d f { m.b.b.b.b.b.b.b.b.b.g.M.n.3.8.e.2.N M M l.c.z.A.Y 6 7 7 7 7 6 6 6 m.fXdX@X,X8XfX&X=XhX*XhXhXE.j.6.E.,X_._._.*.*.*.i.",
"d s ] XX8XhXdX>X1XpX,X:XE.E.:Xn.I E K P B.I.n.P I A P f.0.A.Y 6 7 7 8 8 7 6 6 i.dXsXhXhXhXhXsXgX8XdXhXhX2Xl.N T.,XE 0 ; 0 & $   ",
"X.7XhXhXhXhXhXdXhXdX1X,X1X1X<Xi.; , ; I oX*Xn.> e > y n.Y.*XE A U P U U U U z N.*X*X;X1X1X1X2X=XC.*X2XfX8Xm.Y <X=XiX<Xu.y - %   ",
"J J ' { [.qX+XqXqX+XqXqXqX0X0X..; , ; > d H f > , > , f H H ] } +.+.+.+.+.+.+.[ H J H H H H H F F G F G ] T z H H J ] J J f ; O ",
"d ] O.9X0X0X9X9X9X9X0X0X9X9X+X[ u u u ' ] ] ] K u u ' [ { { } ] }.{.{.}.{.{.{.+.f ] ] ] ] ' , : e : : , G S A f d d d d 1 1 1 > ",
"O.9X9X9X9X9X9X9X9X9X9X9X9X0X0X9X0X0X0X0X0X0X0X0X0X0X0X0X9X9X0X[ @.{.@.[.@.@.{.@.o.o.0X9X9X+X| 9 9 q 9 `.{.M.U {.@.@.@.+.y o.o.[ ",
"..9X}.9X9X9X9X9X0X9X9X9Xo.] ] ] ] ' ' ' ' ' f f f f f f f f f f @.@.{.{.@.{.{.{.{.[ ' ] ] H e 4 4 5 4 y } 7.V #.O.O.O.@.% O.}.{.",
"| | K 9X9X9X9X0X9X9X9X{ d d 1 d d d d s s s s s s s d d 1 1 d d @.{.[.{.{.{.{.{.{.{.] d 1 d < ; = = > < A M M A d < & <   < ; < ",
"u % `.| | qXqXqXqXqX]...O.O.O.+.+.+.+.].@.].@.+X@.@.+X{.[.+X[.[.[.[.[.[.[.[.[.[.].@.+.+.+.O.X.O.O.....} ..} { ] - ' $ ,   > $ < "
};
