/* XPM */
static char *_21712000628[] = {
/* columns rows colors chars-per-pixel */
"64 64 68 1 ",
"  c #DB077B",
". c #DC0C7E",
"X c #DE0F81",
"o c #DD1482",
"O c #DE1B85",
"+ c #E01C87",
"@ c #DC2086",
"# c #DE2289",
"$ c #DE2C8D",
"% c #DF3391",
"& c #DF3B95",
"* c #E0248A",
"= c #E02C8E",
"- c #E03291",
"; c #E13B96",
": c #E14097",
"> c #E1449A",
", c #E34E9E",
"< c #E44FA0",
"1 c #E454A3",
"2 c #E55CA5",
"3 c #E564AA",
"4 c #E66CAD",
"5 c #E86DAE",
"6 c #E675B2",
"7 c #E975B3",
"8 c #E97DB6",
"9 c #EA7FB8",
"0 c #EA83BA",
"q c #EB8BBE",
"w c #F3AEBE",
"e c #F4B0BF",
"r c #EE94C3",
"t c #EE9BC6",
"y c #EF9EC8",
"u c #EEA2CA",
"i c #F4AFC0",
"p c #F2A3CD",
"a c #F1AACE",
"s c #F4B3C1",
"d c #F5B7C8",
"f c #F5BAC9",
"g c #F2AED1",
"h c #F1B2D2",
"j c #F4BDD9",
"k c #F7C5D5",
"l c #F8C6D6",
"z c #F7C8D7",
"x c #F5C4DB",
"c c #F8C6D8",
"v c #F7CADA",
"b c #F8CBDC",
"n c #F7CEE1",
"m c #F9CFE1",
"M c #F7D3E4",
"N c #F9D4E5",
"B c #F7D9E7",
"V c #F9D8E7",
"C c #FAD7E8",
"Z c #F7D9E9",
"A c #FAD9E9",
"S c #FBDEF0",
"D c #FBE3ED",
"F c #FAEAEF",
"G c #FCE5F1",
"H c #FDEBF1",
"J c #FEF1F5",
"K c #FFFDFB",
/* pixels */
"MNNmmmCmmNCCmCmmNNNNNmNNNNNNNNNCNNmNNNNNNNNNNNNAANNNNNNNNNNNNNNN",
"MNmmmCNmmmNmNNCmNmmNNCNmNmNNNNNNNNNNNNNCCNCNNANCNNNNNNNNMNNNNmNC",
"NNmNmNCmCmNCCmmCmNmmmNNNmNmNNCNNNNnNNNNNNCNCCNNNNNNNNNNNMNNNNNNN",
"NNmmmCmNCmCNCCCmNNNNNNNmNNnmmNNNNNNNNNNNNNCCMNNNNNNNNNNNNNNNmNNC",
"mmNmNmmNmCmmmmNNNNNCCCMMNmNNNmNNNNNNNNNNNNNmNNNCNNNNMMNNNNmNNNNN",
"mCNmmmNNCmCCmNCmmNNmNNNMNNmNNNNNNNNNCNNNNNNNNNCNNNNNNNNNNNNCNNNN",
"NNmNNmCNmmmmCmmmNNmNMNBNNNmNNNNNNNNNCNNNNNNNCNNNNNNmNNNmNNNNmNCN",
"NmmNmNNNmmCCmmCNmNNNNNNNNNNNNNNNNNCNNCNCNCNNNNNNNNMMNNNNNNNNNNNN",
"NmNNNmmNCNCmmNmCNNMNNMMNMMNNNNMMNNNNNNNNCNNCNNCNNNNNNNNNNmNNNNNN",
"mNmNNNCmNCmNCNCCCCCCANCCCCCNNCCNSCACCNAAACCCACACCCCNNNNNNNNNNNNN",
"NmmmmCNNNNNbjcxckkkkkkkkllllllckckcckklkllllllllkllkmNNCCNNNNCNN",
"mCNmNNNNmNmiwwwwwwwwwiwwwwwewwwwwsiiwewwwswiwswwwwswsmNNNNNNNNNN",
"mNmCNNmCMNcdANNCNNNNNNmNNNNNNMNNNNNNNCMNNNNNNNNNNMNSfkCmNNNNNNNM",
"mCmmmmNmNCcfbbmmbMmmmmbmmbmmmmmMmMMmmMbMmbNMbmbNbmbNfbCNNNmNNNNN",
"CmCmmNNmmCvdNNNNNNNCNNNNNANNCNNNNVBNNNNNNNNCCNNNMCmNdcCNNNNNNNNN",
"CmCNNCmNNCcfNmNNNNNNNNNNCNNNNNNCNNNNNNNNNNNNNNNNNCmNfcCCNNNNCNNN",
"mmmCmmCmNCcdNmCNNNNNmNNNNNNNNNNNNCNNNNNAmNNNNNNMMCNCfcAVVNNMMNNN",
"CCNCCmNCmCvfNNNNNNNNNNNNNMNNNNNCANNNNNNNNNNNNNNNNNMNfcANNMMMMNNN",
"mNNmCNNNNNvdNmNNNCNMNANNNBNNNNNNNANNNNCNCNNNMMNMNNmNfbANmMNNNNNN",
"NNCNNNNNNNcdNMNNNNNMNNCNNNANNmNmMNNmNCNNNNNNNNMNNNNCfvCNNNNNNNNN",
"nNNNNNNNMNvdNNNNNNNNNNNNNABMCDGGHHGDNMNNNNNNNNNNNCNNfcNNmCNNNNNN",
"NNNNNNNNNAvdNbNNNmNNNNNNNMNHAjarqrgjDHNNNNNNNNNNNNmNfcNNCNmNNNNN",
"NmNNNNNNNNcdNNNNmNNNNNNNMDDr>+XX.ooO,tHAmNNNNNNNNNNNfbANNNNNNmNN",
"NNNNNNNCMNvdNNNNmmNNCNNmDb,..+->>&$o.+2AAmNmnNNNCCNCfcCNNNNNNNNm",
"CCNNNNMNNCbfNNNNNNCNmNmDM%oO3hmAAAny:Oo,DNMNNmNNNNbNdvNmmNmNNCNN",
"NNNNANNMNAvdNNNNNNCNNNCA;o-gHDAAVAAHH8Oo3HNNCNNNNNNCdcNNmNNmmNCm",
"NNNCNVANAAvfNNNNNNNNNNH7X-xHmmNMVNBMAJqOOaGmNNNCNNMCdcCNNNmCCmmN",
"NNNNNVANNZvfANNNNNNNCAx*OgHnMMMNNNNNNNH3.,DCNNNNNAmMfbCNCNNmmmmN",
"NNNNNNNNNCbfAMNVNCNNmH0 3HmNNNNANNNNNnAn=OjDmNNNMmmNfvCCCmCCNmNC",
"NCNNCNNNMAbfNMNNNNNNNH3XxGNNCNNCNNCNNBmH7 yGmNNNNmmCdbCNmNmCCNCm",
"NCNBNNNNMAvfANNMNNNCNH2>GNNNNCNNCNCNNCNAxOuDmNNNNNmNfcmCCmmmNmmN",
"NNVNNANVNAbfANNBNCNNND>tGMMNNNNANNNNVNNmH17HmNNNNNmNfcCNNNNmCNCN",
"NNAVVAVVVVzdMNVNNBNmFhOAJANNNNNANNNCNNMAKy%HNNNNNNNCfcCNNmNNNNNN",
"VNCVVCANVBzkVNVMNCNNDp<01NANNNNNNNNNANGh6u,ACNNNNNmNfcNNNNNNmNNn",
"VNAANNNNNAvfVNANNCAMHt+O 5JNNNNNNNNNNVD;oo-ZCNNNCNNNdcNNNNmmmNNn",
"VVVVABNNNAbfVNVVNNNNG,O*+1DNCNCCNCCANAx***OtDMNNNNmNfvCNmNNmNNNN",
"VBVVNBVVVAvkNMVVBNBND&O*+-BVNNNNNNNANHt+**o0HmNNANNNdlCNNNNmNNnN",
"NNNVVNANVAvfVNVVCCBNH,O**OxDNNNNNNCNMH0o**oqGmCNNCMNdlNNmmNNNNNN",
"CNNAAAVNBDbkVNAVACCMH9O*#OhDNNNNNNNNMH4+*+*hDmNNNNMCfvNMNNNNNNNN",
"ANBAVNVVVBvdVNVVCNCNDgo**oaDNCNNNCNMNF3.*+;DCNNNNNNNdvAMmNmNNNNm",
"CBVABNAAVAbdBNVVNABMAM=+*OhGMNNNNNNNNH5o*o3HmCCNNMmNdvCNmNNNNNNm",
"NNANNBBNVVbkBMAVBANBNHroO@bDNCCNNNNNmH9X+#xDmNNNNNMNfvCNmNCNNNNN",
"VNBNNBNAVBvfNNVVAAAANNH0%0FANCNNNCNCNDx;-gHmmNNNMNNNfvNmNNNNNNNN",
"ABCAABVABBbfVVVAAAAVNNVHHHANNNCCANANCNDHAGmNNNNNNNbNfcCNNNNNCNNN",
"AAAAAAAAVAvfANVVVAANAVNNABNNNNNAANNNNNNCANNNACNNNNNNfvCNNNNCNmCN",
"NAVBAAAAVAbkBMAZAVANVVNBNABBVBVNANNCANNNNNNVVNNNNNNAfbACNNNNCNNN",
"NVANNVAAVAvdNNVABNBBNANBVAAAVAVBNNCANCNNACNAVNNNNNmNfbCNNCCNNNCm",
"NBAVVVNVVAbkAMNAAAANANNBVAAVCNAVNANNNCNAACNNNNNNNNNNdbCNNCNNCCNN",
"NBBNNVNVVAbfNNBNCAVAVVVVACVVNNVVVNCCNVNVAANNNCCNNNMNfcACCNNNCNNN",
"NAMNNNBABAbfNVANVAAVVAVVVNNNVCVNNCVNVNVBCNNNNNCNNAMAfbCCCVNNNNNN",
"NCNNVNNVNAbfNMNMNMVNMVMMNmbmMMmMNmMMmNNNNNNNNNbNNmbNfbNNNNNNNNNN",
"NNNAVVMVBCbfGZVVDAVDAANNACCCVBBVVNVVVVAVAVNAANNANNNSfvANNNVNmMMN",
"NNNNNANNVAMssseseeeeeeeeeeeeeeeeeeseeesssssssswsseewsMNNNNNNNMNN",
"NNVMMVNVANVNkkkkzzbzzlzzzzklzbzbzzvzzbzzbzzzbckclllkMANNNNNNNNNN",
"CNVNVVNNNNNAAZAAVADVDVVVAVAVAAAAAAAAAAZVAADAAACCACCANMNNNNNNNNNN",
"NBBNVVNNMMNNNNVVNVVmVVNNNNNVNNMVANCCBNNNBNCCNNCNNNNNNNNNmNMNNNmm",
"NNVNbVbVMNNNNMVVNNVNVNNNVNVNNNVNCNCNNNNNNNNCNNNCCNNNNCNmmNNNNNmN",
"VNNVBVBVNNVNNVVCNNVNBNNNNNNVmNNNNCVCNNNNNNNNNCCNACNNNNNNNNNmmNNN",
"VNVVVVVVNMVNNBNVNNVNBNbNNNNNNNVNNNNNNNNNNMNNNNCNNNNNNNNNNNNNNNMN",
"VbVBBbbVNVNVVNVNBNNVVNNNNNNNNNNVNNNNNNNNNNmNNNNCNNNNMNNNNNmMNNNN",
"NNNVBNbVNMNVMVMVVNNNNNNmNANNVNVmNNNMNNNNNNNNNNNNNMNmNNMNNNNNmNNN",
"VVNNNVVVVNVNNNNNNNNNNNNVNNNNNNmVNNNNNNNmNNNNNNNNNNNNNNNNNNNNNNNN",
"NVNNNNNNMMNNMNMNVVNNNNbVVNNNVNMNNNNVVNNMNNNNNNNmNNNNNNNbNNNNNNmN",
"NNNVVNNNMMNNNNVbbNNNNVNVNNVNNVmMNMNNNVVMNNNNNNNmNNNNMNNNMNNNNNNN"
};
