/* XPM */
static char *hphones1712085559[] = {
/* columns rows colors chars-per-pixel */
"64 64 52 1 ",
"  c #DB077B",
". c #DC0C7E",
"X c #DE0F81",
"o c #DD1482",
"O c #DE1B85",
"+ c #E01C87",
"@ c #DC2086",
"# c #DE2289",
"$ c #DE2C8D",
"% c #DF3B95",
"& c #E0248A",
"* c #E02C8E",
"= c #E03291",
"- c #E13B96",
"; c #E1449A",
": c #E34E9E",
"> c #E2519F",
", c #E454A3",
"< c #E55CA5",
"1 c #E564AA",
"2 c #E66CAD",
"3 c #E86DAE",
"4 c #E675B2",
"5 c #E975B3",
"6 c #E97DB6",
"7 c #EA7FB8",
"8 c #EA83BA",
"9 c #EB8BBE",
"0 c #EE94C3",
"q c #EE9BC6",
"w c #EF9EC8",
"e c #EEA2CA",
"r c #F2A3CD",
"t c #F1AACE",
"y c #F2AED1",
"u c #F1B2D2",
"i c #F4BDD9",
"p c #F5C3DC",
"a c #F5CADF",
"s c #F7CDE1",
"d c #F9CFE2",
"f c #F7D3E4",
"g c #F9D4E5",
"h c #F7D9E7",
"j c #F9D8E7",
"k c #FAD7E8",
"l c #FADAE9",
"z c #FBE3ED",
"x c #FAEAEF",
"c c #FDEBF1",
"v c #FEF1F5",
"b c #FFFDFB",
/* pixels */
"fggdddggagggggdggddgggggdgggggggggdggjfgggkgkkgkkkgggggfgggggdgg",
"fgddgdgdagggggddggggdggdggdgggfjgggdgggjggggfkggkfgggggdgggggdgg",
"ggdddggagdggggggdggddggggfddggjgggggfgggglggkkfgggggggggdgjggggg",
"ggagggggggggggdggdggjfgdgddfdgfggddjgggjggggfffggfgggggggggggggg",
"gdgddggggggdgdgggdggljdddggdgggggggggggggggggggggggggdggagfggggg",
"dggdadgggdgddggdgggdgjjdgddggggggggggggggggggkgggggggggfgggggggg",
"ggdgggggdddgdggddgggggggggdgggggggggjggggggggggggggfgggdgggggggg",
"gddggagggdgggggdggddgggjggggggdggggggkggggggggggggaggggggggggggg",
"dgggdggggggdgfggggggggggdgdggggdggkggjggkgggggkgggggggggggggggjg",
"gddgggddggggdddgggdgfdggggggggggggggdggggggggjgggggdgggggfgggdgg",
"dgddggggggggggggjgggjjjjjjjjgkkjklkkjjjjklgkjkgjgjkkgdgggkggggfg",
"gdgdggggdgdkllllllllkljjjjllllkklllljlllllllllljjllkkggggggggggg",
"dggdggdgdggggggdggggddgdgggggggggggggggdgjgggggggggdkggggdgggggg",
"gdgdddgdgggkggggggdggggddggdggggjgjggggggggggjgggggjlkgggggggggg",
"gdgddgdgfgglggggffgggggggjgggggggjfdgfggggggggggggggkgggggggggfd",
"gggggggdggggggggjgggggggjgggggggjgjgggggggggggdgggggkgggggggkggg",
"gdgdggdggggkjggggjggdgjggggggfggkkgggfkkaggggggdgggkljjjgfggfggg",
"gggggdgggdgkgggggggggggggfgfkgggkggggggggggggggfggjgkkgfgfdgfggg",
"dggggggggdgjggggdjgdgjggkfkfggggfkfgggggggggggggggggllgdddfggggg",
"gggggggggggjggjggggdgggjffkjfgagffggggggggggggfgggkgkjgggggggggg",
"dgggggggddjjgggggdgggjdgkkhaklzzzczzggggggggggfgggjgkggggggggggg",
"fgggggggjjjjddggggggggggkfkvliy09qyizxggggggggggggjgkjggggdgdjgg",
"gdggggggjdjkgjggdgggggdgklz0;++..X+o>wxldggggggfggjgkjgjgggggdgg",
"ggggggggddgkjggdddggkggdza;o.+=;;-$o.+<klaggdfgggkggkkgdgggggggd",
"gkggggfgggklgggggdjgdgdzf*.&1uslzkae-Oo:lkfggdggggkgggdfgdaggggg",
"kgggkfgfggkkjgggggjgfggl-+=tczlkkklxx6Oo2xggggggkggggfggdggdgdgg",
"ggggjjkfjjjlkkgggggggdc5.=pcddffhkfflv9O+tzgggggkfggkgggggdggggg",
"ggggfkkkfjllgggggggggzp&Oucdfffkfkfkkgc1.:zggggggggglkggggggdgad",
"ggggggkffgklkjgjggggav8.1cdggggkggggfala*+izaggggagglggkgdgggdgg",
"ggffggggggllkjjggggfgx1.pzgggggkggggfkfv5 qzdgggfggglggkdggggggg",
"glkfgfkgdgklkjffgfgfgv<;xggggkgggggggggkaOezdgggdggglgdggggggggg",
"ggkkkkfggjlljjfffkkjgz;0xdggggglggkkkgfdx>5xggggggggggggdgaggggd",
"ffkjjlkjkfhlhhkffkkfzuOlvlggfgkkkggkgffzbq=ckfggggggkjggdgggffjf",
"jjkkjkkfjfjzhkjsfgkfxr>6,glggjggggggkgzy4e:kkfggggggkggggdgggddd",
"kjllfjfffkhlfkjffgkfcq+O 3cggggggggkklz-oO=hkgggkfggjggggdddddfg",
"fjllkfjffkllkkjhggkgz:+&+,zgjgggggkkfli&&&Owzfggkkggjjdjdggddggg",
"jfkkhfjjkkllkjllkkkfz-+&+%fkgggggggkfxe+&&.8cgggkfkgkgdggggdggfd",
"jfjlkkkhkjzlfjklkkfkx:O&&Opzggggggkgfc8.&&o9zdggfkkgkfggddgdjggg",
"kfjjkkhkhlllklhkkkkfx7.&&Oyzggggggggfc3+&+&uzgggfgggkjgggggggjjd",
"kkfjkhkkkllhhjhkkhkfxi.&$.yzgkgggkgggx1.&+-zggggfgkgjkgddggdggdg",
"kjjkfklhkhlkjjhjhkfklf=+&Ouzfkgggggggc3+&o1cdgggggggkgjddggggggd",
"jfjjjfhkhklzhjhkhkfhfcq.O#azfgkkgggggv7.+@pldgggggggljggdggggggg",
"jhfjjhhkkfjzklklklhlfgx8=8xkgkgfggggglp-=tcgdgggdgggkjdggggggggg",
"kkklkhkkffhlllhllllkgjkccxkfggkklglgkgzczzgdgggggggjlggggggggggg",
"lhlkllllkfkzkjhkjlkjkkfjkfkhkfjkllgggggkkgffkkgggggflkjggggkgggg",
"hlkhklllhhklkjlhlhkkkkjfhlhhjjjfkggkggggggkkkkgggjkjlkgggggggggg",
"fkkfkkllkkllhlhkhjhfhkjfhllkjkkhkkfggkggkkfkfgggfjjfllgggkgggggg",
"fkkjhfhhlllljhjkkjjjkkkfkllkfjkjkkggglgllkgkffggggggkkggggggkggg",
"jfjfgjfkjjllkkjjlljjljjjjjggfgkkjflkfjjkkkfggkjgkgggkjgkkjgggggg",
"khfkgfkljjkllljjjjjljljjjgggjkjjfjjkjfjjjjjjgggggjjgljggjggggggg",
"jkfkjjjjfkkljkfjlljjlljjjgggjjjjkkgkjffkljkkgkjggjggklgggfjggdgg",
"jffkjjdgffjlfkfjljjjgjjfjggjgffgfggfkjjjkjkkgggkggggkjggggkgfdgg",
"ggfjjjggjkjlzlzlzjjzjzjzjzzjjllzlzllzllzzzlzlzklllllljgfgggggggg",
"gfjdjggjkjjkkkjkjjjjjjggjjjjjzkllllllkhljkjkljkkkkljjjggdggggggd",
"gjfjgjggffkkjfffjjjgjgggjdjdggfgjjjkkkfjfkkjfgkgjggfgggggggggggg",
"gkjfjjggggfffkhkjjjjgjggdjgjjgfjkfjfjfkfffjjjkgggjgdgjggggdgggga",
"ffjfjffjfggggdjjggggjgfgjdgfggjgggkggggggggggggggjgggjgddgggggdg",
"jfjjffjfffjjgjjjggjgjgffjjjjgggggggkggggjjgggjkkjjggggggdgdgdggg",
"jfjfjffjjjjdfjjjjfjgfgffdjjgjgggggggfgfgjdggggggggggdjjggdgggjdg",
"jffjjfjfdjgjjjffjggjjgffggggggggggggggggddggggggggggdgjdgjdggjdg",
"dfjjjgfffdjjjfjfgggggggfdjgggggggggggggggggggggjgdgddjdgjgjddjgg",
"fjffggfjjgjgggggggggggggjggggggggggfgggdgggdgjdjgggggdjgjjdgjdgd",
"jfffjgggfgjgdgdfggggggfgjjggggdjfgggjjdffgggggdddggggjgddjjjjddj",
"ffjjgggggfdgggggfggggggggdgdgggdgjgggjfjjdggggjddgjgdgjgdddjdggg"
};
