/* XPM */
static char *_21711733665[] = {
/* columns rows colors chars-per-pixel */
"64 64 62 1 ",
"  c #DE1E86",
". c #DF1F88",
"X c #E01E87",
"o c #E01F89",
"O c #DC2287",
"+ c #DE2289",
"@ c #DE2B8C",
"# c #DD328F",
"$ c #DE3592",
"% c #DE3B94",
"& c #E02189",
"* c #E02D8F",
"= c #E12D90",
"- c #E03592",
"; c #E03E96",
": c #DE4396",
"> c #DF459A",
", c #DE4D9B",
"< c #DE529E",
"1 c #E24399",
"2 c #E14B9D",
"3 c #E1529E",
"4 c #DF57A1",
"5 c #E255A2",
"6 c #E25BA4",
"7 c #E361A7",
"8 c #E363A9",
"9 c #E46AAB",
"0 c #E671AF",
"q c #E575B1",
"w c #E67CB5",
"e c #E681B6",
"r c #E784B9",
"t c #E884B9",
"y c #E78CBB",
"u c #E98BBC",
"i c #E991BF",
"p c #EB8FC0",
"a c #EA94C1",
"s c #EB9BC5",
"d c #ED9FC8",
"f c #ECA5CA",
"g c #EDACCE",
"h c #EFB1CF",
"j c #F0AFD0",
"k c #EEB3D2",
"l c #F0B3D2",
"z c #F1BBD6",
"x c #F2BED9",
"c c #F3C4DB",
"v c #F4CADF",
"b c #F5CEE1",
"n c #F7D4E4",
"m c #F9D4E5",
"M c #F7DAE7",
"N c #F9D8E7",
"B c #FBD7E8",
"V c #FADAE9",
"C c #FCE3EE",
"Z c #FCE8EF",
"A c #FDE7F0",
"S c #FDEAF1",
/* pixels */
"nmmbbmmmbmmmmmbmmmbmbmmmmmmmmmmBmmmmmmmBmBmmmBmBBBmmmmmvBmmmmmmm",
"mmmbbmmbmbmmmmbmmbmmmmmbbmmmmmmmmmbmbmmmBnNnnNmBBmmmmmmmmmmmmvmm",
"mmbbbmmmmbmmmmmmmmmbmmmmmbbbmmmmmmbmmmmmBBmmBmmmmmBmmmbmmBmmmmmm",
"mmbmmbmbmmmmmmmmmbmmmmbmmmbmbmmmmmmmmmmBmmmmnmmmmnmmmmmmmmmmmmmm",
"bmmbmbbmmbbmbmmmmmmmBBmbbmmmmmmmmmmmmmmmmmmmmmmBmmmmmmmmmmmbmmmm",
"mmmbbmmmmmmbmmmbmmbmnBBnmmbmmmmmmmmmmmmmmmmmmmmmmmmmBbmmmmmmmmmm",
"mmbmbmmmbmmmmmmbbmmmnmnBmmmmmmmmmmmmmmmmmmmmmmmmmmmmmmmmmmmmmmmm",
"bmbmmbmmmbmbmbmmmmbbmmnNmbbmmmmbmmBmmBBmmmmmmmmmmmvmmmmmmmmmmmmm",
"mbmbbmbmbBBmbbBBmmmmmmmNmmmmmNmNBBmmNNNmBmmmmmBmmmmmmmmmmmmmmmmm",
"mbmmBbBmmmbBbBmbmBnbmmmBBVVCCAAAAAACVNNmmmmmBmmmmmmbmmmmnmmmmmmm",
"bmbmbBmbmmmbmbmmmbmmmBBCACNcjsppasjbMZSCVBmmmmmmmmmmmmmmBmmmmmbm",
"mbBbbBmmbmbmmmbmmmmBBCZvs7;@. .oo.oo%6abCAVmmBmnmmmmmmbmmmmmmmmm",
"bBbBbBbBmvmbmmvmmmmVSvq#Oo&&&&&&oo&&&&.@9xSCNmnnmbmmmmmmbmmmmmmm",
"mbmbmbmbmmmmmmmmnNCCu@+&&&&&&&&&o&&&&&&&&+wVCVmBmmmmmmmmmmmmmmmm",
"BbBbmmmmmmmmmmmmMSn5O&&OO&&&OO+O++oOO+&&&O&3bCBmmmmmmmmmmmmmmmbm",
"bmBbbBbbmmbmmmmBZn%&&&&&&*2wfkcccka9;++&&&&&1vSBmmmmmmmBmmmmBBmm",
"BbmmbbmmmmmmmmBAn%&&+o.%rbSSSACCCCSZCc8*O&&&&:mCmmmmmmBNmnmmmmmm",
"BBbmBmmmmbmmmmAV>+&&&@qBSAVBmmmBBNMBVZSc5&O&&O5CCmmmmmmNmbbmmmmm",
"bmbmmmbmmmmmmBA0..+o*kSABmmmmmnmNmmnBBVSSeO&&&OtSBmmBBBnnbmmmmmm",
"BmBBmmmBmmmmmAdo..+#bSVmmBBmBmmmNMBmnBmBCSa+&.O@xSBmmmmmmmmmmmmm",
"bbmmmbBmmnmbVB%o.o=bAVnmBBmmmmmmnmmmmmmmNVSt&&&&6AVNNmmmmmmmbmmm",
"mmmmBmbBBmmmSro+&.gSBmnmmmBmmmmmBmmnmBmmmmCZ7o&&+jANmmbmmmbmmmmm",
"mmmmmbBBnmnCB=+o.qSVmmbmmmmmbmmmmmmmmmBbmbBCb;&&o6SNmmmmmmmmmmmb",
"mmmBmmmmnnmAs+++%VAmBmmmmmmbmmmmmmmmmmBmmnmBSs&&&=cCmmmmmmmbmmmm",
"BmBmbBbmmmBA6+++uSBnmmmbmmmmmmmmmmmmmmmBmbmmVC2ooopSmmmmbmmmmmmm",
"mmmmBBBmmBVV%++$MABBmmbmbmmmmmmmNmmmmBmmmmmmmAs=&o0Smmbbmmbmmbmm",
"mmBmBBBBBBCn=++qSBmmmmmmbmmmmmmnBmmNBmbmmbmmmCV;&+5ABmmmmmbmmbbm",
"mmBmbBBBBVVn#+@xAmmmmmmmmmmmmmbBNmmNBmmbmmmmmBSw+.6ABmBmmmmbbmbm",
"mmmmmmbBnnVV>+5AVBmmmmmbmmmmmmmBnmmmmnbmmmmmnmVb-&qABBBBmmmmmbmm",
"mmmmBmmBnBAn$@lSBmmmmmmmmmmmBmmBBmmmmBmmmmmbnBVAw&4AVmmmbmmmmmmm",
"mmmmmmBbBVAwo1CVnnBNmmmmmmmmmmmBmmmBmBmbmmmmmmmAx==fAmbmmmmbmmmm",
"mBmBmBBmmVB$+4AVBNBnmmmmbmmmmmmBmmBBBBbmmmbbmmmAb%&4CBmmmbmbmmmm",
"mnBBmVVmBVb=@gSAASVBmmmmmmmmmnBBBmmBBmnmmmmmVZZZSu&2CNNmbmmmmmmm",
"mMBBBVMmBCc@1Nw64gSVmmmmmmmmmmNmmmnmmBmmmmmVZhwicv*1ZVmmbmmmmbbm",
"mMVVmmmmNCz+&%&&+@nCmNmmmmmmmnmmmmmBBBmmmmnZg*XX-7+>VVmmmmbbmbmb",
"NBVVVMmmNAf&&&&&&OsABNBmmmmmmBBBBmBBmmmmmmmZ8&&&&&&%NVmmmmmbmmmm",
"NMBNmmNBNSq&&&&&&&8SVBBNmmmmmmmmmmBMmmmmmmCV:&&&&&&*cAmmbmmbmmmb",
"mnNNBBVBVV;O&&&&&&%SVBBBmmmmmmmmmmBmBmmmmMCzO&&&&&&.tSmmmmmmmmmm",
"mnmBBVNNVB%&&&&&&oOnAmmBmmmmmmBmmmmmmmmmnmSiO&&&&&OoqSBmmmmbmmmm",
"BNNBNNVNVN$&&&&&&..kABBBmmmBBBmmmBmmmmmmMCS9&&&&&&&&qSmmmmmmmmmb",
"BNBNBNVNVV%&&&&&&&oySNmBBmmmVmmmmmmmBBmmmVZ2&&&&&&o+qSBmbmmmmmmb",
"nNNNnnNNMA2&&&&&&&&9SVmBmmmVmmBmmmmmmmmmmCC#&&&&&&oowSBbbmmmmmmm",
"NNnnNBNVVA8&+&&&&&&6SBmBmBVmBBBBmmmBBmmmmCn@&&&&&&oodSmmbmmmmmmm",
"VNVVNBNNBSpo&&&&&&&<SVmNBBVMmmmMBmBmBmmmnCv+&&&&&&o@xCmmmmmmmmmm",
"MVVMVVVVVAz++&&&&&&,SVNNBNMVmNnBBBBmmmmBmCc++&&&&&&;VCmmmmmBmmmm",
"BVVMVVVVNVN;&&&&&&&,SVNNBVmmNMBnNNmBmmmBnCc&&&&&&&.9SBmmmmmmmmmm",
"nBBBBNVVVVSqO&&&&&&5SVNnNVNBNBBNmBmBBBmmmCv+&&&&&&&fSBmmBBmmmmmm",
"nnVNnnnBNVAl*&+&&&&7SNBNBNNNmNNNNmmmmBmBBCm*&&&&&&%mVmBmmmmmBmmm",
"BnBnmBmNNNCC4+++&&&qSMMBMMBmmNNNBMBBmmBBNCC$&&&&&+rSBmnBBmmmBmmm",
"nBnBmnBVNNBAb<o+&& fZMNNBmmmNBmNmmnNBmMMNVS,&&&o&4mABBmNBnmmmmmm",
"nBnVBMnMnBmVAn1o&O1CCmBNmmnmNBNNBBmBMmnBBNSaO&oo4mABmBBnnnNmmmmm",
"nBBBnBmMnnmBBAb00hMZVNNNBmBBmnnnnmmmBMBBNBVCd7%8bABmmnBmNmBmbmbm",
"nnnBnVmBBMBmmVAAZZCVmmmMmmNmmmmNMnBNVVMBNNNASSmAANmmBmmmmmmmmmmm",
"nBBnBnnBBBmBBmBVCMMmMmmmBNBmNMNBBBBNVmMmNNBBNNVCBBmmmBnmmmmmmmmb",
"BBBnNnmBmmmBmmBMNNMMMmmmmmmmBNnBBBmBVmmmmmBmmBBmmmnmMnmmmmmmmmmm",
"nBnnBBnmmmmmmnMBNMmmmMmmmnmmNnnBBmmMmmMMmBNMmNBmmBnnmBBnmmmmmmmb",
"mmMmnnMnnmmmmnNBmmMmmmmmmmNmmmmmBnmmmmmmmmmmmmmmBBmmmmmmbmmmmmbm",
"mmmMMnMnMnNnmBBBMmmmMmMnBVmmmmmmmmmBmmmBmmmmmmBBBBmbmmmmbmmmbmmm",
"mmMmnnnMmnnBnBnNmmMmmmmnmmBmBmmmmBnBmmnmmmmmmmmmmmmmmmmmmmmbbmmm",
"MmnnMnnMnnNNNMnnmmmmMmnnmmmmmmmmmmmmmnmmmmbmmmmBmmmmmmmmmmmbmmmm",
"mmmMmmmmmmmNmnnBMmmMnnnnmmmmmmmmmmmmnnmmmmmmmmmmmmmbbmmmBmmmmmmm",
"mmmmMmmMnnBmNmNnmnmmnnnmNmmnmmmmmmnnmmmnmmmmmmmmmmmmmmmmBmmmmbmm",
"mmmmmmnmnmmmmmmnmmmmnmnmmmmmmmmmNnmmBnnnmmmmmmmbmmmmmmmbmmmmBbmm",
"mmmMmmmmmmbmmmmnnmmmmmMmmmmmmbmmmnmmmBBmmmmmmmmbmmmmmmmmbmmmmmmm"
};
