/* XPM */
static char *_21711898838[] = {
/* columns rows colors chars-per-pixel */
"64 64 52 1 ",
"  c #DB077B",
". c #DC0C7E",
"X c #DE0F81",
"o c #DD1482",
"O c #DE1B85",
"+ c #E01C87",
"@ c #DC2086",
"# c #DE2289",
"$ c #DE2C8D",
"% c #DF3B95",
"& c #E0248A",
"* c #E02C8E",
"= c #E03291",
"- c #E13B96",
"; c #E14097",
": c #E1449A",
"> c #E34E9E",
", c #E2519F",
"< c #E454A3",
"1 c #E55CA5",
"2 c #E564AA",
"3 c #E86DAE",
"4 c #E675B2",
"5 c #E975B3",
"6 c #EA7FB8",
"7 c #EA83BA",
"8 c #EB8BBE",
"9 c #EE94C3",
"0 c #EE9BC6",
"q c #EF9EC8",
"w c #EEA2CA",
"e c #F2A3CD",
"r c #F1AACE",
"t c #F2AED1",
"y c #F1B2D2",
"u c #F4BDD9",
"i c #F5C3DC",
"p c #F5CADF",
"a c #F7CDE1",
"s c #F9CFE2",
"d c #F7D3E4",
"f c #F9D4E5",
"g c #F7D9E7",
"h c #F9D8E7",
"j c #FAD7E8",
"k c #FAD9E8",
"l c #FBE3ED",
"z c #FAEAEF",
"x c #FDE7F0",
"c c #FDEBF1",
"v c #FEF1F5",
"b c #FFFDFB",
/* pixels */
"dffssffspfffffsfffsfffffffffffffffsfffffffjffffhjffffffffffffsff",
"dfssffsfsffffssffffssffssffffffffffsdffffffffhfhhffffffsdffffsff",
"ffssfpfsfsffffffsfsfffsfdssfffffffdffffffjfjhfffffjfffdddfffffjf",
"ffpfsfffffffffsffsfffffsffassdfffffffffhjffjfffffffsffffffffsffj",
"fsfsfssffffssssfffffkhddsffffsfffffffffffffffffffffffsffdfffffff",
"fffsssffsfsfffffffssfffffdsfffffffffffffffsffjffffffffffffffffff",
"sffffffffsfsfssfsfffdffhffffffffffffjffffffffffffffdfffdfffsffff",
"fspfpffffssffffsffssfffffssffffffffffkfffffjfffffsfaffffsfffffff",
"sfffsfffsfffssffffffffffffsffffffffjffffffffffjffffffjffffffffff",
"fsssfsfsfffsfsfffffsffffffffsffsjjffsfffffffffjfffsffffffffffdff",
"fssfffffffffsffffffsfffffffffffdfffffffdfffffffffffffsffffffffff",
"sffsfffffssfffssfsffsfssssfffffsfjffdffffffkffffffsffffffffdffff",
"ssfsffsfssfsfffsffffsfdsffsffdfffffffffdffffffffffffffssffffffff",
"ffsfssfsfffsfsffffsffsfffffffffffffdfddffffffffffsffffffffsfffff",
"fsffsfsfffffsffffffffffffffdfffffffffdffffffffffffffffffffffjfdf",
"fffsfffsfffffffffffffdffjfffffjffkjffffffffffffsffffffffffffjffs",
"fssfffsfsffffffffffddfffffffffffffffffjjsfffffsfffffffjfhfffdfff",
"fffffsfffdfffffffffffffffdffffffjffffffffffffffdffffffffffafffff",
"fffffffffsfffsfffffsfjfffffffffffhdfffffffffffffffffjjffafsfffff",
"sffjfffffsfdfffffffffjffffkfdddsffffffffffffffdffjfffffsfffhffff",
"sdfffffffddssfffffffffffkkfdjkxxzcllfdffffffffdfffjffffffffsffff",
"sffffffffffsfsfffsffffffffhckur980tulcfffffffffffffffffffsffdfff",
"ffffffffdfffffffsffffsffdkl9:OoX.XoO,0zksfffffddfffsfffffffffsfd",
"ffffffjffffffffsssffjffslp>oX+=::-$o.+1jkssfsdffjjjffffffffffffs",
"fffffffffffhjsffffffsfskf=oO2ysklfiw%Oo>lfdffsfffjfffffsffsfffff",
"ffffffffffgfffffffffdfhk;o=yclkkkklxx6Oo2zffffjffffffssffssffsff",
"fffjhkkfhgfffjjffffffsc5X=icssfffhddkv8O+rxfffffffffsfffffsffssf",
"ffffffhhhffgjffhfffffli&Otcsfsdffffhhfc2.<kfffffffffffffffsffssf",
"ffhfffffffffffdhfjffsc7 2csffffkfffffaka$Oilsffffsfffffjfffjfsff",
"fjffffffffjfhhjffffffc2oilffjffhkfffffsv5 qlsffffssfjfffssffffff",
"fjffffffffhhhhdsfffffc2:cffffjfffffffffkpoqlsffffsfffssjfffssfsf",
"fffhhhffffhhhhffffkffl;9lsfffffkffjfkfdsc<5csdffffffjsfffssfffff",
"ddkjhkkffffjfjhffjfslyOkvkfffffjfffjffdkbq=cffsffffffffsfssfffdd",
"jjjkhkhfjdgffjhsdhffce<7<fkfffffffffkfxy4w>kjffdjffffssffffffffa",
"jjkkffdfjfjgjjjffhhdz0o+.3cfffffffffkkl-oo=gkfffhffffffsfsfsfsds",
"ggkkkfhfjggfjghhfhffx>+&o<xfffjjfjjkfki+&&O0lfffffffffffsfsfsfff",
"djjghfkfjggghhhkfhffl%O&+-fkfffffffjfzq+&&o7csffhhfffffdfffsfffd",
"jdjffkkhfjkgfhhhhhjfx>O&&Oilffffffkfdc6o&&o8csfffffffsffssfffffd",
"fffgfjhhhkkgkhhkjjjdc6O&#Oylffjfffffdc3o&+#ylsffffhffffffffsfffs",
"jjjghhkhhgjjggfhjjjdzy.&#otlfffffjfddc2o&+-ljfffffjffffasfffffsf",
"gfjjgfgggggfgjhkjjddkf*O&Oylfhfffffffc3o&o2cffffffsffffssffjffss",
"gjfgfgjjjjjjfjggggjjfc0oO@ilfhfjfffffv6X+#ilsfffffffffjfsfffffff",
"fjgjgffgddjggkkkggkgfhc7%7xffffffffffki-=rlffsffsfffffffffffffff",
"gjjggjjggjjgkkgkkkkkffhccckfffhkkfjjkflxklfdffsfffffffffdfffjfff",
"kkgjkkkkjfjggjgjgjkjhhdffhkghffhkkfffffjkfffjjffffffffjffffjffff",
"jgggkkkkgjjfjjkggjkkhhhdkkfgghhdkffjjffjfffhkfjfffhhfjffffffffff",
"jjjjjhkkkjjjjjjgjjfffhhdhkkhhhkgfjjjffffkkfkfffffhffjffffjffffff",
"sgjjjggkgkggjgjkgjhhkhhfhkkhfhkgfhfffjfkkkfffffffffffjffffffjfff",
"fggdfkfgkfjhfhfhhhhlhhhhhffhfgfkhfhhfhhhkkffjjjfhffhfffhhfffjhff",
"jjddffgkhgjhhhhhhhhhhhhhhfffkkfhhffhffhhfkffffffffffjfffhfffsfff",
"hhfjhfggfjhhjjfjhhhhhhhsfffffffhfjfhhffhkhfkffffjffffhfffdhffsfs",
"hdfhfhffffdfjjfhhfhhhhhhkffffdgfsjffhhhkkhjkffffjffjffhfffhfsfsj",
"ffdffgfffhffgjjjhhhhhffhfffffhhhhfhhkfgkkkhkjffjffffffffffffffff",
"fffggffhkhhhgddfhhhhhffffkfffkfkhhfhhgfgkhhhkffkffffhfffffffffff",
"ffjffhffffhhddfjhhhhhhffffhfkhfhkhfkkgfffhkffkjfffffffffffffffsf",
"fjffhhfffffffgjghhfffhfffffhffffkfkfffgfffkhfkfffjffhfffsfsffffs",
"ddhdhdhfdfffffghfffhhfffffffffjfffkffffffffffffffjfffffffsdffdsf",
"hdhhddhffdhffkhhhhfffffffjfkfffffffjffffffffffjfjfffffffsfsfsfff",
"hddhhddffffffffhhshfdffdfffffffffffffsfffffffffffffffffffdfsffdf",
"hddhhdffdffggjfffffffhsffjfffjffffffffffffpffffkffffsffdfhdfffff",
"dfhffhhffffhffgfshhhfdddfjfffffffffdsffffffffffffffdfffdffffsfff",
"dfffhfshffffffffhhshfdfdffffffffhfdffffffffffffffffddfffffffffff",
"fffffhddfdfdddddffffdfshhhffffdfdfdjjjfdfffffffffffffffsfffffssf",
"dfhhfffddhdffffdshhfffhhssfhffsdffdddjffffsffffpdfffsffddfffffff"
};
