/* XPM */
static char *_1711898837[] = {
/* columns rows colors chars-per-pixel */
"64 64 61 1 ",
"  c #00000B",
". c #000214",
"X c #000720",
"o c #000D2B",
"O c #160A2F",
"+ c #180A2A",
"@ c #001839",
"# c #121039",
"$ c #220227",
"% c #26052F",
"& c #26123F",
"* c #1A282A",
"= c #24242D",
"- c #2C3A36",
"; c #460837",
": c #001E40",
"> c #6B1852",
", c #721D54",
"< c #741F58",
"1 c #85225E",
"2 c #932466",
"3 c #9A2469",
"4 c #AE216F",
"5 c #D01E7A",
"6 c #F6258B",
"7 c #F9268D",
"8 c #F72A8E",
"9 c #F92C8F",
"0 c #EA338E",
"q c #FA2C90",
"w c #F33291",
"e c #FC3595",
"r c #F53995",
"t c #FF379B",
"y c #FF389A",
"u c #BB6293",
"i c #CF649C",
"p c #F86BAF",
"a c #FA6CB0",
"s c #FA87BE",
"d c #F88DC0",
"f c #EC9AC2",
"g c #FA96C6",
"h c #FA99C7",
"j c #FC99C8",
"k c #FAB3D4",
"l c #FFB6D9",
"z c #FABDDA",
"x c #FBC4DD",
"c c #FBC8DF",
"v c #F7CEE2",
"b c #F8CFE2",
"n c #F7D3E4",
"m c #F9D4E5",
"M c #F9D8E7",
"N c #FAD7E8",
"B c #FAD9E8",
"V c #FCE4EE",
"C c #FCE7F0",
"Z c #FCEBF2",
"A c #FCF0F5",
/* pixels */
"nmmbbbmbbmmmmmbbmmmmmbmmbmNmmmmmmmmbmmmmmNmmmmmNBNmmmmmmmmmmmmmm",
"nmbbmmmbnbmmmmbmmbbmmmmbmbmmmmmmmmbmmmmmmmmNBmmBmmmmmmmmbmmmmbmm",
"mmbbbbmmmbmmNmmmbmmbbmmmbmvmmmmmmmbmmmmMmNmNmmmmmmmmmmnmnmmmmmmm",
"bmbmmbmbbmmmmmbmmbmmmmbmmvbbmmmmmmmmmmmmNmmmnmmmmmmmmmmmmmmmmmmm",
"mbbmbbmmmmbbbbbmmbmmNNnnmmmbmmmmmmmmmmmmmmmmmmmmnnmmnbmmvmmmmmmm",
"bmmmbmmmbmmmmmmmmmmbmmmmmbbmmmmmmmmmmmmmmmbmmNmmmmmmmmmmmmmmmmmm",
"mmbbbbmmbbmbbmmbbmmmnmmmmmbmmmmmmmmmNmmBNmmmmmmmmmmnmmmbmmmmbmmm",
"mbbmmbmmbmmmmmmbmmbmmmmmmmmmmmbmmmmmmNmmmmmmmNmmmnbnmmmmmmmmmmmm",
"bmmmmbbmmmmbmbmmmmmvmmmmbmmvmvmnmmmNmmmmmmmNmmNmmmmmmmmmmmmmmmmm",
"mbbmmmmbmmmbbmmmmmmmmmmmmmmmmmmmNNmmbmmmmmmmNmNmmmmvmmmmmmmmmnmm",
"bmbbbmmmmmmmmbbmmmmvmmmmmmmmmmmmmmmmmmmnmmmmmmmmmmmmmbmNmmmmmmmm",
"mbmbmNmmbmbmmmbmmvmmmmbbbmmmmmmbmNmmnmmmmmmmmmmmbmmmmmmmmmmmmmmm",
"bmbmmbmmvbmvbbNbmvmmmbmbmmbmmnmmmmmmnmmnmmmmmmmbmbmmmmvbmmmmmmmm",
"bmmbbmbmmmmbNmNbmmmmmbmmmmmmmmmmmmmnmnnmmmmmmmmmmmmmmmmmmbmmmmmm",
"mbmbmbbmbNmmbmmmmmmmmmmmmmmnmmmmmmMmmmmmmmmmmmmmmmmmmmmmmmmmNmmb",
"mmmmbmmmmmmmmmmmmmmmmmmmNmmmmmmmmNNmmmmmmmmmmmmmmmmmmmmNmmmmmmmm",
"bNmmbbmmmmmmmmmmmmmmmmmmmmmmmmmNmmNmmmNNvmmmmmmmmmmmmmmNNmmnnmmm",
"NbmmNbmmbmmmmmmmmmmmnmmmmmmmmmmmBmmmmmmmmmmmmmmmmmmmNmmmmnmbnmmm",
"bNmbmmvmmbmmmbmmmmmbmNmmmnmmbmbnmmmbmmNmNmmmmmmvmmmNmNNbvnmmmmmm",
"NbmNmmmNmbmbmmmmmmmmmNmmmmNVZZZZAZZZBmmmmmmmmmnmmmmmmmmmmmmmmmmm",
"vmmmmmmmmnmnbmmmmmmmmmmmNBCljjjjhgghvBmmmmmmNmmmmmNmmmmmmmmmmNmm",
"mbmmNmmmmmmbbnmnbmbmmmmmNCf>%$;57766rxVmNmbmmmmmmNmmmmmmmmbmbmmm",
"mbNNNbmmnmmmmmmmbmmmmmmmmBu#:. 1eeee7hCvmvmmmmmmmmmmmmmNmmmmmmmn",
"mmbmmmmmnmmmmmmmbmmmNmmbmBu+X=-1eeeeqjCbmbmmbbmbmNNmmmmbmmmmbbmm",
"NmNmnmnmmmmmmmnmmmmmmmbbmBiOo**1teee9hCmmbmmmbmmmNmmmmmbbmbmmmmm",
"NmmmNMmnmNMmNmmmmmmmmmmvmBi&@. 3yeeeqhVbbmmmmmNmmmmmvbbmbmbmmvmm",
"mmmNmMMmMMmmNmNmmmmmmmmmMBp4<,20eeeeqhVbmmmmNmmmmmmmmmNmmmbmbbbm",
"mmmmmMMMMmMMmmmMmmmmmmmmnBaqyyyyeyeeqhCbmmmmmmmmmmmmmmmmmmmbmmbm",
"mNmNmmmmnnnmNmmmmNmmmmmbnBa9eeeeeeee9hCvmmmmmmmmmbmmmmmmmbmNmbmm",
"mmmmNmmmmmNnMNmNmmmmmmmbMBaqeeeeeeeq9hVmmNbmbmmmbmbmmmmmbmmmmmmm",
"mmnmmmmmmmNNMmmnmmmmmmmnMBpqeyeeeeee9jVbmmvmmmNmbmmmmmmmmmmbbmbm",
"mNNmmMmmmmNNMMmnmNmNmmmnmBpqyeyeeeee9hVbmmvvbmmmbmmmmbmmmmbmmmmm",
"nMBMMNNNNNMMMMNnmmMmmmmmmBpqeeeyeeee9hVvmmmmbmmmmmmmmmmbmbmmmmmm",
"MNBBNNNnMnnNnMMnmMmmmmmmmVpqeeyeyeqe9jCvmmmbmmmmmmmmmbbmmmmmmbnn",
"NnMBMnnNNnMnMMNnnBBmmmmmmBaqeeeeeeeeqhCvbmnnmmmmNNmmmmmnmbbbbbvm",
"MNMMMnnNNNNMNnMNmmmmBBmmBBaqeyyeeeee9hCmmnbmbmmmmmmmmmmmbmmbmnmm",
"MNNMnnBNNMMMNMMMMmmmmmMmmBaqeyeeeeee9jVbmmmmmmmmNNmmmvmnmmbbmmvm",
"nnMMNNMMMMNMNNNMMBMMBBMBBBaqeeeeeeeqqhCvmmmNmmmmmmNmvmmmmbmmmmmm",
"NnMMBBMNMBMMMBMMMMMMBmmBmmaqeeeeeeee9jVvNmmmmmbmmmmNmmmmmbmmmmmm",
"NNnNBnBMBMMMMMMMNMMmmmBmMVaqeeeeeqee8hVmmmmmmmmmmmNmmmmvmmbmmmmb",
"NMMNnMBMMMMMNNMMMNMmMmmMNBaqeeqeeeee9hVmmnmmmmmmmmmmmmmmbmmNmmbb",
"nMMMMnMMMNMNMMMMMBmmmmmmNBp9eeeeeeeq7hVmmnmmmmmmmbmmmmmmbmmmmmmm",
"MMnMBMMBNnNNMMMBBBBBmmNmmVd866979666wzVmmbmmbmmmvmmmmmmvbmmmmmmm",
"NMMBBnMMnNNMMMMBBBBBmNmmmVBhsssddssskVmmmmmbmmmmmmmmmmmmmmmmmNmm",
"BBBBBBBBNNNMMMBMBMMMNBmmMMBZZCCZCCCCBNNNmmmmNNmmmmmmmmmmmmmNmmmm",
"BBMBBBBBNNnMMMBBBMMMBMMmMBMnmnMmmmmmmmmNNmmMNmmmNmNNmNNmmmmmmmmm",
"nBMnnMBBBMMMMMMMMMMmmMMmMBBMMMBmNNmNNNmmNNmBMmmmNmmmNNNmmNmmmmNm",
"nnMMMMMBMBBBMnMBBMMMMMMmMBBMmMBMmmNmmNmNNNmmmmmmmmmmmmmmmmmmNmmm",
"nnMnMNnNNNNMNMnMMVmMMMMMMBmMmmBMNmNNMnMMNNmmNNNmmmmmmmmBBmmmNmmm",
"BBnNmnNBMMMMNMMNMMMMMMMMmmBmMMMmmNnMmMMmMBmmmmmmmNmNBmmmmmmmnmmm",
"nBnNMnMMMNMmnNNnMMMMMMMMmmmmmMMmMNnNNnMMMMmBmmmmmmmmMMmmmmMmmmmm",
"NnNNNNnnnnnmNNNMVMMmMmmmmmmmmnnMnmnMNMBMBMBNNmmmNmmmmmmmmmMmvvmm",
"NnNnNNmmNNmNNNMNMmMMMmmMmMMmmmmMmmBMMMMMBBMMNmMNmmmmmmmmmmnmmmmm",
"nNNnnMmMMNMMMnnMMMMMmmnnMBmmMMMMNmMMMMmMMMMBBmmNmNMmMmmmmmmmmmmm",
"NnNNMnnMmnmMMnMnMMMmMmnmmmmmMMmmNMMNMMmMmMBmmNNmmmmmMmmmmmmmnmbm",
"nNnnMMmmmmnmnMNNMMMMmMMnmmmMmmmMNmnMmmMmmmBMmmNmmNmmmmmmmmbmmmmb",
"MbMnnMMnnmnmmmMMmmMmMmnnmmmMmmmmNnNmNmmmmmmmmmmmMmmmmmmbbmmmmmbm",
"MMMnnbMnnnNnmNNNMmmmmmMnmmMBmmmmmNmNmmmmmmmmmmNmBBmnmmmmnbbmbmmm",
"bMMMMnMMMnmMMmMNmmMmMnMnmmmmmmMmmmnmnmnmmmmmmmmmmmmmmmmmmmmbmmmb",
"MbnMMnnnnnMMMMnnnmmMmmnnmmmmmmbmmmmmmmmmnmbmmmmNmmmmmmmmmmnnmmmm",
"bMMnMMnMnmmNnMMnmMmmmmmnmBmmmmmmmmmmnmmmmmmmmmmmnbmnmmmmmmmmmmmm",
"MMnnmMmmMmmmnmnnmmmmmmmmmmmmmMmMmmmmmmmbmmmmmmnnmmmmmmnmmmmmmbmm",
"nMMnmmnmmnmmmvnmMnmmnmnmmmmmMbbmMnmmMmnnmmmmmmmnmmmmmmbbmmmmmbbm",
"nnnMmmmnMbmmmmmnnmmmmmMmmmmmMMbmmmmmmmmmmmmmmmmcnmmmbmMmmmmmmmmm"
};
