/* XPM */
static char *iphone1712085559[] = {
/* columns rows colors chars-per-pixel */
"64 64 71 1 ",
"  c #00000B",
". c #000214",
"X c #000720",
"o c #000D2B",
"O c #180A2A",
"+ c #1B1B28",
"@ c #001839",
"# c #121039",
"$ c #220227",
"% c #26052F",
"& c #1A282A",
"* c #24242D",
"= c #2C3A36",
"- c #460837",
"; c #001E40",
": c #6B1852",
"> c #721D54",
", c #741F58",
"< c #85225E",
"1 c #932466",
"2 c #9A2469",
"3 c #AE216F",
"4 c #D01E7A",
"5 c #F6258B",
"6 c #F9268D",
"7 c #F72A8E",
"8 c #F92C8F",
"9 c #EA338E",
"0 c #FA2D91",
"q c #F33291",
"w c #FC3595",
"e c #F53995",
"r c #FD3897",
"t c #FF389A",
"y c #BB6293",
"u c #FD469E",
"i c #CF649C",
"p c #FD4EA1",
"a c #FC52A3",
"s c #FC60A9",
"d c #F96BAF",
"f c #FA6CB0",
"g c #FB73B1",
"h c #FC7FB7",
"j c #FB81B7",
"k c #FA86BD",
"l c #FB8DBD",
"z c #F88DC0",
"x c #EC9AC2",
"c c #FA96C4",
"v c #FA9AC6",
"b c #FC99C8",
"n c #FBA4C7",
"m c #FBA5C8",
"M c #FAB3D4",
"N c #FFB6D9",
"B c #FABDDA",
"V c #FBC4DD",
"C c #FBC8DF",
"Z c #F7CEE2",
"A c #F8CFE2",
"S c #F7D4E4",
"D c #F9D4E5",
"F c #F7D8E7",
"G c #F9D8E7",
"H c #FAD7E8",
"J c #FADAE9",
"K c #FCE4EE",
"L c #FCE7F0",
"P c #FCEBF2",
"I c #FCF0F5",
/* pixels */
"SDDAAADAADDDDAADDDADDDDDDDDDDDDDDDCDDDDDDDDDDFDHHHDDDDDSDDDDDADD",
"SDAADDDASADDDDADDADSDDDCSSSDDDDDDDDDDDDDHDHDFDDDDDDDDDDADDDDDADD",
"DDAAAADDDADDDDDDADDACDDDDACDDHDDDDSDDDDFHDDDHDDDDDDDDDDDSDDDDDDD",
"DDCDDADAADDDDDADDDADDDSDDSASCDSDDDSDDDFDDDDDDDDDDDDDDDDDDDDDDDDH",
"DAADADADDDDADADDDADDJDSSASDDDADDDDDDDDDDDDDDDDDDDSDDDADDSDADDDDD",
"DDDAAADDDADAADDADDDDDDDDDDADDDDDDDDDDDDDDDDDDDHDDDDDDDDDDDSDDDDD",
"ADADADDDAAADDDDADADDDDDGDDDDDDDDDDDDDDDDHDDDDDDDDDDDDDDADDDDSDDD",
"DAADDADDDADDDDDADDAADDDDDAADDDDDDDHDDHHDDDDDDHDDDADADDDDDDDDDDDD",
"ADDDADADADDDADDDDDDADDDDDDSDDDDDDHDDDDDHDDDHDHHDDDDDDDDDADDDDDDD",
"DAAADDDADDDDAADDDHDDDDDDDDDDSDDDDDHDDDDDDDDDDDDDDDDADDDDDDDDDDDD",
"ADADADDDDDDDHDDDDDDDDDDGDDDHDJDDDDHDGDDDJDDHDDGDDDHHDDDDDDDDDDDD",
"ADDADHDDDAAHJHHHJHHHGJJGHHJJJJJFJHKJDGKGJJDKGJKJJJJHHDADDDDDDDDD",
"ADDADDADAADHADDDDDSDASDDDDDDDDDDDDDFDDDDDDDDDDDDDDDDHHDDADDDDDDS",
"DADAAAADDDDHDDDDDDSDDCDDDDADDDDDDDDDDDDDDDDDDDDDDDDDHHDDDDDDDDDD",
"DADAADADDDDHADDDDDDDDDDDDDDSDDDDDDGDDDDDDDDDDDDADDDDHDDDDDDDDDSD",
"DDDDDDDADDHHDDDDFDDDDDDDHDDDDDDDDJDDDDDDDDDDHDDDDDDDJDDDDDDDDDDD",
"DDDDAADDDSDHDDDHDDDDADDDDDDDDSDHDDDDDDHHADDDDDDADDDHJDDGDDDDSDDD",
"DDDDDDADADDHDDDDDDDDDDDDDDDDDHDDHDDDDDDDDDDDDDDDDDDDJHDDDDADSDDD",
"ADDDDDDDDDDHDDDDDDDADHHDDSDAAADZSSSDSDHDHDDDDADSDDDHJJDASADDDDDD",
"DDDDDDDDDDDHDDHDDDDSDDDDDHHKPPPPPIIPJDHDDDDDDDSDDDDDJHDDDDDDDDDD",
"ZDDDDDHDDDDDADDDDDDDDDDDHJLNbbbbcbccCKDDDDDDDDSDDHGDJDDDDDDDDDDD",
"ADDDDDDDDDDDDSDSADDDHDADDLx:%$-46665eVJDDDDDDDDDDDDDJDDDDADDDDDD",
"DDDDDDDDSDDJDDDDADDDDDDDDJy#;. <rwww8vLCADDDDDDDDDDDJDDDDDDDDDAD",
"DDDDDDDDSSDJDDDDCDDDDDDDHJyOX*=<twww8vLADADDASDDDHHDJGDDDDADDADD",
"DDDDDDSDDDJJDDSDDDDDDDDSSJiOo+&<twww8vLDDAADDDDDDDDDHDAASDCDDDDD",
"DDDDHDDSDDFJJDSDDDDDDDCSSJi#@..2twww8cKADADDDDDDDDHDDDADADDDSADD",
"DDHDDHFDFFDJJDHDDDDDDDDDDJf3,>19rrrw7bKADDDDDDDDDDDDJDDDDDAADASS",
"DDHDSHHHDDJJDDDDDDDDDDDDDJf0tttrrrww7bLADDDDDDDDDDHDJDHDDDDDDDCD",
"DDDDDDDSDDJJDDDFDHDDDDDDDJf8rrw80www0vLADDDDDDDDDADDJHDHDDDHDCDH",
"DDHDHDDDDDJJJJDDDDDSDDDCDJf8rwajhp0w0vLADDADADDDDDADJDDDDDDDDDDD",
"DDDSDDHDDDFJJDDDDDDDDDDDHJd0wrsncvtw0bKZDDAADDDDDDDDHDDDDCDCDDDD",
"DHHHDHDDDDJJDJDDDFFFDDDDDJd0wrwvdjj68vKADDSDADDDADDDDDDDDDADDDDA",
"DDJJDJJFDDFJFGDDHDFDDDDDDJf00pzmrpl68bKDDDDADDDDDDDDJDDDADDDDDDD",
"DDHFFFJDFDFKDGDSDHDDDDDDDHf0wplhgla88cKSDDADDDDDDDDDJDDDDADDADSA",
"FFJJDDDDDFGJFGHDDDHDDHDDDJf0rwuaarww8bKDADDAADDDHHDDJDDSDADAAAAS",
"DFJJJDDDDJJJGGHFDFFDDHDHDJf0wrw0wwww8bLADADDDDDDDDHDDDDDADADDSDD",
"FDFFDDJDDFJJFFJGDFDDDDDDJJf0wrwrwwww8vLADHDDDDDDHDDDJDSSDDDADDAD",
"DDJJDHFJJDKJDHJHGJGDHHFHHJd0rtww0www8cLADDDDDDDDDHHDDDDDAADDDDDD",
"HDDFHJFHDJJJJJFGGGGGHHHHHJf0rwr0wtww7bKDHDDDDDDDDDDDJHDDDAADDHDS",
"JDDJFDJJJJJJGHFHGGGDDDHDHJd0wwwwwwww7bKADDDDDDDDDDHDJDDZDDDDDDAA",
"JDFJDFJFFJGJJHFHFJDFDDDDJJf0wwwwwww00vKDDDDDDDDDDDDDJDDSADDHDDAA",
"DDHFDDFJFFJJFFFHFHDFHDHDDJd8wwwwwwww8cKDDSDDDDADDDDDJDDDADDDDDDD",
"FFHDHFDJDDHJJJJJJJGGHDDDDKl558660555qBJDDDDDADDDDDDDJDDDADDDDHDD",
"FFJJJDFJFDJJJJFJJJJJDDDHJJJnkkkzzkkkMKJDDDAADDDDDDDHJDDDDDDDDDDD",
"JFJFJJJFFDFKJFJGJGGGHFDFHJJLPLLPLLLLJDHHDDDDHHDDDDDDJDDDDDDHDDDD",
"JJJFJJJJFDJJHFJGGGGGHHFDFJDFDDFDDDDDDHDHHDDHJDDDDDJDJHDDDDDDDDDD",
"SHHDDHJJJDHJFHFHGJDDDHHDFJJGFGGFHHDHDDDDHHDHDDDDFDDFJHDDDHDDDDDD",
"SFJFDFHFHJJKHFFJGFHFHFFDHJJFDHGGDDHDHHDJJHDDDDDDDDDDHHHDDDDDHHDD",
"DDDFDHDFFFJKDFDFGJGGJGGGGGDDDDGGGDJHDHHHGJDDHHHDHDDDJHDHHDDDHDDD",
"HHDDDDFJHHJJFHHHGJGJGGGGGGDDFGFDDDDFDDDFDJGDDDDDDDDJJHDDGDDDDDDD",
"DHDFFDGGDDGJFGHDGJGGJGDGGDDDDDDDGJDJGFDFJGDJDHDDDDHDJJDDDDFDDDDD",
"DDDHFFFDDDDJFFDGGGGGGGGDDDDGDFFDDFDDJDHDGDHHDDDHHDDDHFDDDDFDAASD",
"DDDFDJDDJGHJKJJKKJJKJJJJKGKGGKGKJJKGKJKKKKKGKJJJJJJGKDDDDDADSDDD",
"DFDSDFDDJDHHDHDFJGGGJGGDGGGDGDDKGJJJGGDFGGJGJDJHHJHFHDDDDDDDDDDD",
"DDFFDDDHDDDDDDDDGGGDGGDDDDDDDGDDHFDHGFSFDFHFDDHDDDDDDDDDDDDDADDA",
"FDDDFHDDDDDDHFFHGGDGDGGSDDDGDDDDHDDFDDDDDDHHDHHDDDDDDDDDDDDDDDDA",
"SSGSGSSGDDDDDSGGDGDGDDDDDDDDDDGDDDHDHDDDDDDDDDDDDDDDDDDDADADDADD",
"GSGGSSGSSSGDDGGGGDGDSDDSDGDGSDDDHDDDDDDDDDDDDHDFGGDADDDAADADDDDA",
"SSGSGSSGDDGDFDDGDDGDGDDSDDDDDDDDDDDDDDDDDSDDDDDDDDDDDDDDDSDADDAD",
"GSSGGSSGSDDGDDFDSDGDDDSSDDGDDDSGDDDDDDDDADDDDDDHDDDDDDDDDDADDDDD",
"SSGSSDSSGSDDDFDFDDDDDDDDDGDDDDGSDDDDDDDDDDDDDDDDDDDDADDDGDDADDDA",
"SGSSGDGGSSGDDDDSDDDDDDDSDDDDDSSSDDDDDDDADDDADDDDDDDDDDDDGDDDDDDD",
"SGGSDDDGSSDDDDDSDDDGDDSDDDDDDSSDFDDDDDSSSDDDDDAADDDDDDDDDDDDGDDD",
"SSSGDDDDDSADDDDDSDDDDDDGDSDDDSSSDDGDDDSDDDDDDDDASDDDDDDADADDDDAD"
};
