/* XPM */
static char *_1712000302[] = {
/* columns rows colors chars-per-pixel */
"64 64 85 1 ",
"  c #00000B",
". c #000214",
"X c #000720",
"o c #000D2B",
"O c #160A2F",
"+ c #180A2A",
"@ c #1B1B28",
"# c #001839",
"$ c #121039",
"% c #220227",
"& c #26052F",
"* c #26123F",
"= c #1A282A",
"- c #24242D",
"; c #2C3A36",
": c #460837",
"> c #001E40",
", c #6B1852",
"< c #721D54",
"1 c #741F58",
"2 c #85225E",
"3 c #932466",
"4 c #9A2469",
"5 c #AE216F",
"6 c #D01E7A",
"7 c #F6258B",
"8 c #F9268D",
"9 c #F72A8E",
"0 c #F92C8F",
"q c #EA338E",
"w c #FA2D91",
"e c #F33291",
"r c #FC3595",
"t c #FD3897",
"y c #FF379B",
"u c #FF389A",
"i c #BB6293",
"p c #FD469E",
"a c #CF649C",
"s c #FD4EA1",
"d c #FC52A3",
"f c #FC60A9",
"g c #F96BAF",
"h c #FA6CB0",
"j c #FB73B1",
"k c #FC7FB7",
"l c #FB81B7",
"z c #FA86BD",
"x c #FB8DBD",
"c c #F3AEBE",
"v c #F4B0BF",
"b c #F88DC0",
"n c #EC9AC2",
"m c #FA96C4",
"M c #FA9AC6",
"N c #FC99C8",
"B c #FBA4C7",
"V c #F4AFC0",
"C c #FBA5C8",
"Z c #F4B3C1",
"A c #F5B7C8",
"S c #F5BAC9",
"D c #FAB3D4",
"F c #FFB6D9",
"G c #FABDDA",
"H c #F7C5D5",
"J c #F8C6D6",
"K c #F7C8D7",
"L c #F7C7D8",
"P c #FAC5DB",
"I c #F7CADA",
"U c #F8CBDC",
"Y c #F7CFE0",
"T c #F9CFE1",
"R c #F7D3E4",
"E c #F9D4E5",
"W c #F9D8E7",
"Q c #FAD7E8",
"! c #F7D9E9",
"~ c #FAD9E9",
"^ c #FBDEF0",
"/ c #FCE4EE",
"( c #FBE4F1",
") c #FCEBF2",
"_ c #FCF0F5",
/* pixels */
"REETTEEETTQEEETTEEEEEEEETEQQEEEEEETEQQREEEQEREEQWQEEEEEEEEEEEREE",
"RETTEEETTTQTEETQETTEEEEEETTEEERQEEETEEEQQEEQEEEQQEEEEEEREEEEEUEQ",
"EETTTTEEQTQEEEQTEETETEETTRTEQEEERETEEEEEQEQQWQEEEEEEQERETEQEEEEE",
"EETEEETTEEEEQQEEETEEQETEQTTETREQEEEQERQEQEEEREEEEEEEEEEEEQEEEEEE",
"TTEETTEEEETTTTTQEEEEQ~RRTEETEEEEEEEEEEQEEEEEEQQQEEEEREEEEEEEEEEE",
"EEETTEEETEEETQQTTEETEEEREEETQEEEEEEEEEREEETEEEEEEEEEEEQEEETEEEEE",
"EETETEEETETEQTTTEETEREEEEETQEQEEEEEEQEEEEEEEEEEEEEEREQEUEEEEEEEE",
"ETTEETEEETEEEEQTTEEEEEEEQTQTETEEEQEEEQEQEEEQEEEQEEUREEEEEEEEEEEE",
"TEETETETTQRTTTQQEEEREEREEEEEEERREEEEEEEQQEEQQEQEEEEEQEEEEEEEEEEE",
"ETEEEEEEEQQQQQQQQQQEQQ!QQQQQQQQQ^QQQEQ~~QQQQQQQQQQQEEEEEEEEEEEEE",
"TEETTEEEEEQTHHGGHHHHHHHHJHHHHHHHHHPPHHHHJJHHHJJHHHHHTEEEQEEEEQEE",
"EETEEEEETEGCcccccccZcVcccvccvcccccZVcvvccvVVvvvccVZcZTEEEEEEEEEE",
"TTTEEETEYEPA!TEEEEEEEETEEEEQERQEEQQEE~REQEQQEEEEEEE^SHEEEETEEEEE",
"EETEETETE!IAYYTTTTYUTTUUUUUTTUTTTREUURURRUEUUUEUUTIESIQEEEEEEEEE",
"EEQTTEETRQIAEEEEEQEQEEEEQEQEQEEEEEEEEEQEQEEQQEREEQTESPQEEEEEQERT",
"EEQTEEEREQPAETEEEEEEEEEQQEQEEEQEQEWEEEEEEEEEQQEEEETQSPEQEEEEQQEE",
"TQTETTEEEEPSEYQQEEEETEQEEEEEEREQQEQETEQQREEEEEEERQEQSJ~WWEEETQEE",
"QTEQQETEEEISEEEEEEEEEEEQEEEEE~EQEQEEEEQEEEEEEEETEEEEAUWEERRRREEE",
"TQQTQQQEEELSQREERQEREQEEEEEERRTREEETEEQEQEEEREEERQTESUWTRETEEEEE",
"QTEQETEQEQLAEYEEEERTEQQEEEW/))))_)))^EEEEEEEEEREEEEQAUQEREEQEEEE",
"TTQTEEQERELAEEEEEEEEEQEEQQ/FNNNNNNmmT^EEEEEEEEEEQQQQAJEEEEETEQEE",
"REEQTQTEE~LSEUEETETEEEUEQ(n,&%:68777eT~EEEEEEEEEEQUESUQEEEEEEEEE",
"QTQQTQEQEEJAETEEETEEQTEEE~i$>. 2yrrr0N^TEEEEEEEEEQEEAUWEEEEEETET",
"QQTQQTQEEELAQEEETEEQQEEEQ~i+X-;2yrrrwN(ETTETTEEEEQTQAUQEEEEEEEEE",
"EEEEEEEEEQISQERQEEEETEETE~aOo@=2yrrr0M)EETTEEEEEEETESPERTETEEEEE",
"QEEEQEREE~ISQUEEEEQEEETEE~a*#..4urrr0M/TEEEEEEEEEERQAHETTEETETEE",
"EEQEEQQEE!ISQEQEEEEEEEEER~g51<3qtrtrwM/TEEEEEEQQERRQSHQEEETEETEE",
"EEQEEQ!QE!USQEEWEEEEEEEER~gwuuuttrrrwM(TEEEEEEEEEETESI~EEEEETETE",
"EEEEEEREE~US~EEWQQEEEEEER~h0ttr0wrrr0M(TEEEEEEEEETTESI~QEEEEETEQ",
"EQEEQEEEE~USERWEEEEEEEETW~h0rrdlkswr0M(EEEEETEQTERTQSIQETEEEEEEE",
"EEEEEEQEEQIS!RRREEEEQEREWWhwrtfCmMtrwN/YEETTEEEEEETEAPEEEETETEET",
"EEE!QQEQE~US~EEEEEQQEEERQWhwrtrMgll8wM/TEEEETEEEEETEDGQEEEEEEEEE",
"EWWWW~~EW~ISRR~YEEEQEEEEQ~hwrsxCtdx8wM/EEEETEEEEEETQSLQETEEEEEER",
"EEWWWQWEW!KSWE~REQWEEEEEQQhwrpxkjxdw0M/TEETEEEEEQETQSLQEETEEETER",
"WW~~WEEEWWKS~WWEEWWEEQQEEWhwrrpddrrr0N(EEERUEETEQQTESLQEEETTTTTR",
"RW~~~RWEE~KHER~WEQWEEQEEW~hwrrrrrrrr0N(TETEEEEEEQQTQSPEEETETEEEE",
"~!WWEWWEW~USWY~WEWEEEQEQW~gwrtrtrrrr0M(TEEEEEEEQEQREAPQEEEEEEEET",
"EEWWWWWWWWKH~Y~~WWWWWWEWW~gwtyrrwrrr0m(ERQEQEEEEEQTESHEEETEEEEEE",
"EEEWEQWWR/UHWEWWWWWWQQQQW~j0rrrrrrrr0m/REEEEEEEEEEEESL~RTEETEEEE",
"~WE~WWWWW!KSWEWWWWWEEEQQWQh0rrrryrrr0N/RQEEQEEEEEEEQAL~REEEEEEET",
"~RE~R!~~W~USRWWWWWEWEEEQ~Qgwrrrrrrrr0M/EERQQEEEEEEUESPQRTEEEETET",
"!EWW~RWW!~UHRRWWWWEWWQEEE~g0rrrrrrrw9m/EEREEEEEEEERESUQETEQEEEQE",
"WREW~WR~W!ISWW~WQQ~~EEQEE/b780880777eG~EEEEEUEEERERQSHQTTEEEEEEE",
"~W~~~RW~R!US~WW~~~~~EQEER/~BzzzzzzzzD/WEEEEUEEEEEETESHQEEQEQQQEE",
"~~~~~~~~E~IS~RWWW~~WWWQE~~~/))))))///EQQEEEEQQEEQETESUQEEEEQTEQE",
"!~WW~~~~!WIHER~~~WW~WWWEE~R!EREEEEEEEQEQQEEQWEQEEQE~SUQEEEEEEEEE",
"EW~EEW~~W~IAWEWW!EEEEWEEW~~~W~WREQQQEQEEQWQQWEEEEERESUQEEQEEEEEE",
"ERWWR!WWE/UH~RW~~WWWWWWWW~~~EE~WEEQQQQEQQQEQEEEEEETEAP^EEEEEQQEE",
"WWREWEWWW~TSWEEWW~W~WWW~WWEWEEW~WEQWREWWWWEEEEQRWERQAUWWWQEEQEEE",
"WERWERWWW~USEW~EW~~~~~~~WEEEWWWEQWWEWWW~WWQQQQQQE~EESUWQQQEEEEEE",
"EWEWEEWWR~USWYEYEYWRYWYYETTTRRRREURRTEEYEEETTTTERTUESUQEEREEETEE",
"EEE~WWEER~IS(W!~/~W/~~~WWWWW~RE!WQWWWW~~~WWWWQEQQEQ^SJWEEEWQEETE",
"EEEE!EEWE~RZZvvZvvvvvvvvvvZvvvZvvvZZZvZZZvZZZZZZvvvcZEEREEEEEEEE",
"EWWEEWEW~EWRHKHKKHKKKJKKJJHHIIIIJLJJIIKKUKKKLHHPHHHJTQREEEEEETEE",
"ERWEWWYWEEE~~~~~~/W//WWW~~~~~~~~~~~/~~~~~~/Q~~~QQQQ~WREQEEEEEEEE",
"E~E!WWEEEEEEWRWWEWEEEEEEEERWERRE~EEERRWEEQWWEQQEQQRRQEEEEETEEEET",
"RWWRWRWEEEEEEEWWEEEWEEEEEEEEEEWEQEQEEEEEEEEQEEEEQQQEEQETTETEETEE",
"WRRWWREERRWEEWWWEEWEWWWEEQWWEEEEEEWEEEEEEEEEEQQQQQEEREQEETEEEEET",
"ERWWRREWREWR!EEWWRWEREEEEEEEEEEEEEE~REEEEEEEEEEEEQETEEEEEEETEEEE",
"WRRWWREWWEWWWWREWEEWWEUEEQEEEWEEEEEEEEEEEETEEEEQEEEEREEEEERREEEE",
"REEWREWWEYWWERW!EWEEEEEEEWEEEWEEEEEEEEEEEEEEEEEEERETEEEEQEEEEEEE",
"RWEEWEUWWWEEEEREEEEEEEEEEEEEEEEEEEEEEEEREEEEEEEEREEETEEEEREEEEEE",
"EWEEEWEEEREERETEWWEEEEYWEEEEWEYEREEWWEEREEEEEETEQEEEEEEUEEEEEETE",
"EEEWEWEERRTEREEEUEEEWEEWEEEEWWYEWEEEEWERQTEEEERTREEEREQREEEEEEEE"
};
