/* XPM */
static char *phone1711737565[] = {
/* columns rows colors chars-per-pixel */
"64 64 78 1 ",
"  c #000516",
". c #01071A",
"X c #01081E",
"o c #0D101D",
"O c #010B24",
"+ c #020F2C",
"@ c #150E2D",
"# c #190F2D",
"$ c #031234",
"% c #031539",
"& c #05183F",
"* c #251134",
"= c #2D1237",
"- c #303133",
"; c #333938",
": c #051A43",
"> c #061D49",
", c #09214E",
"< c #0B2453",
"1 c #173465",
"2 c #1D3A69",
"3 c #461744",
"4 c #4E1A4A",
"5 c #571B4F",
"6 c #581B50",
"7 c #671D55",
"8 c #6D1F5A",
"9 c #74205A",
"0 c #7C2262",
"q c #454541",
"w c #4C5248",
"e c #822164",
"r c #8B2569",
"t c #94246B",
"y c #9C256D",
"u c #99286E",
"i c #A62A75",
"p c #BD2A7B",
"a c #C42B7E",
"s c #C12F81",
"d c #CB2D82",
"f c #D43188",
"g c #EB2F8D",
"h c #F52C8E",
"j c #E5308C",
"k c #E8348F",
"l c #F72E90",
"z c #F82F91",
"x c #F63392",
"c c #FC3495",
"v c #F93997",
"b c #FD3798",
"n c #FC3998",
"m c #F6469B",
"M c #F64A9E",
"N c #F94C9F",
"B c #F4509F",
"V c #F94DA0",
"C c #F951A2",
"Z c #F95EA7",
"A c #F863AB",
"S c #F579B5",
"D c #B4B48B",
"F c #F782B9",
"G c #D7D6A1",
"H c #FB98C5",
"J c #FAA4CB",
"K c #FABCD8",
"L c #FBC6DD",
"P c #FCCBE0",
"I c #F7D4E4",
"U c #F9D4E5",
"Y c #F9D8E7",
"T c #FAD7E8",
"R c #FAD9E8",
"E c #FDE3ED",
"W c #FDE7F0",
"Q c #FDE9F1",
/* pixels */
"IUUPUPUPIIUUUUUUIPIIUUUUUTITUUUUUUUUUUUUUUUUUTUTYUUUUUUIUUUUUIUU",
"UUUPPUIUPIUUUPUUUIUIUUUIPIIIUUUUUUUPIUUUYUYUUYUTYUUUUUUIUUUUUPUU",
"UUIPUUUIUIUUUUPTUUUUPIUUUPIIUUUUUUIIUUUUYYUYYUUUUUTUUUIUUUUUUUUU",
"UUIIPUUPUUUUUUUUUPIUITIPPIIPIUUUUUUUUUURUUUUUUUUUUUUUUUUUUUUUUUU",
"PIIIPIUUUIUUPUPTUUUURUIIIUUUUPUUUUUUUUUUPIUUUUUUUUUUUUUUUUUUUUUU",
"UUUUPUUUUTPPUUUUUUIPUEEEEEEEEEEEEEEEEEEWEERYUUYUUUUUUUUUUUUUUUUU",
"PIPPIIIUIPUUIPUPUPUREHBbvvcvcvxxccxccxxcmFLEUUUUUUUUUUUPUUUUUUUU",
"UUIUUPUUIIUUUUUUUUUEZjt764459axxzxzxxzzxhhhKEYUUUUIIUUUUUUUUUUUU",
"IPUPIUUUPTUUUUUUUIRJg* O.    XpccxczzzczzllMEUYUUUUUUUUUIUUUUUUU",
"IUUIUPUUUIUIIPUUUUEAy.%>&     3cccccccczcllhYYUUUUUUUUUUUUUUUUUU",
"PIPIPIUIUTIPUUUUIUQN0X>2,O    *cccccccccclllPYUUUUUUUPUTUUUUUUUU",
"PUUUITUUIPUIUIPUUUWM0.:<,X    #bbccccccccczlLUUUUUUUUIUUUUUUUUUU",
"IUIPPUUIIPUIPUUPUUQN0 .+.  ;w #nbbccncnczzzzLYUUUIPTUUPUUUUUUUUU",
"IUUIUUUPIUUPUUUIUUQN0      DGo#nccnnncccczzzLYUUUUUUUUTUUTPUUUUU",
"UUUPPIIPIUUUUUUUUUQN0 X$O  -q #bnbccncncczzzPYUUUIUUUUUUUUUUUTUP",
"UUUIUUUUUUIUUUUTYIQNe.&:,X    #ncnnbcbcccczzPYUUUTUUUUUTTUUUTUTU",
"UUUPUIUPUUUUUUUUUUQVt.>1,O    =bcnnnnccccczlPUUUUUUTUUURIUUUUIUU",
"PUUUUIITUIUUUUUUUUWVd.%>&     5ccncccnncczxzPUUUUUUUTUUUUIIIUUUU",
"UUUUUUIIUPUUUIUUUUQNz8X.     @fcnncnncccczzzPUUUUUUUTUUUIUPUUUPU",
"UUTUUUUUUUUUUUUUUUQVzcsyrrruikbbncnncnccczczPUUUUUTUUUTUUUITUUIT",
"IPUIUUUUUUIPPIUUIPWVccccnccccccbccncbbcccczzPUUUUUUUUUPTUUUUUUUU",
"IUUUTUUUUUUUUUUUUIWVzcccccnnbbnnnnnncbccczzlPUTUUUUUUUUUUUUUUUUU",
"UUUTUUUUIUUUUUUUIIQVzcxcnnnnncncnccnbcccccclPUIUUUUUUUUUUUTUIUUI",
"UUUUUUUUUUUUUUUUIPQVczcccnccbnncnnnccccczzzlPUUUTUTUUUUUUUIPUUUP",
"TUUUIUIUUUTUTUUUUUQVzcccccbbncnncncnnnccczzzPUUUUTUUTPUIPUIIIUUU",
"IUUTTTIUUTTIUUUUUUQVzcccccbbncnccbncccccczzzPUTUUUUUIIIPIUPUUUUU",
"TPTUTTTITIITTURUUUWVzccccbbbnbcbnnbnncccczzzPTUUUIITIPUUUUPIUPPI",
"UUTUITTUIITTUUUUUUWVzcccccbbcnnnnccncnccczzzPTUUUUUITTTUUUUIUUIU",
"UTIUUUUUUUITTUURUUQVzczcbcbbbcncnnncnnccczzzPTUUUIUPUUTUTPUUUPUU",
"ITTITUUUUTUTIYUUUUQVzzccbcbbbbncccnncccccczzPUTPUUUUUUUUUUUUUUUU",
"UUUIUITIUUTIRIIIUUQVccccccnbcnnbncncncccxzzlPUUUUUUUUUUUUPUUUUUU",
"UUTTTTTIUTTTRRTIUUQVzccccbbbbccnnnncccccczclPUUUUUUUTPUUUIPUUUTP",
"TIRRTRRTITUTIRUIYUQNzccccnnnbnnccnncccccczzzLYUUUUUUUPUUUIUIIIUI",
"IIRRTRUTRTURIRTIUYQNzzccccccccnnncncccccczzzLYUUUUUUUUUUIPUIUUUI",
"RIRRIYIIUTIIRRYIUYQNccccncnbnnncnncnccccczzzPYUUTIUTYUUUUPIPIPPI",
"RRRRRITIURRRRIRIUUQNzzcccncnncncccccccccczczPYUUYTUUIPUUUUIIIIUU",
"TYRYIRRRURRRRYRRUYQBzcccccnncnbbncccccccczczLTUYUUUUUUUUUUIPUUUU",
"IIIYTTRIIRRRUURRYTQNzcccncncnncncncccccczczhLUUUUYTUIUUUUPUUUUUU",
"TIRRRRRIYRRRRRRRTRQNzcccbnncbcnccnccccccczczUUUUUUYUUUUIUUUIUUUU",
"TRIRRIRRYYRYYYIYRRQNccccccnnncnnccccnccccczzLYUUUUUUPIUUPUUUUUUP",
"RIIRRRRYRRYURYYRYRQNczcccnnncnccncccccccczclLRTYUIUUUUTPUUUTUUIP",
"TTTRIRIYYYYRYRRRYTQNcccccbcnncncccbccbbccczlLTUIUUUUUUTIIUUUUUUU",
"YIRIRYRRRUYYRRRRYRQBzccccnncnbcnbcccccccccxlLTUUPUUUUUUUPUUUUUUU",
"RYRRRIRRUUYRRRRRRRQCzcccccnncbcccccbccbcczzzLUUUUUIUUUUUUUUUUUUU",
"YRRYRRRRYYURRYRRYYQNzccccnccbccccbccccccczzzLTUUUUUUUUUUUUUTUUUU",
"YYYYRRERYUYYYYRYEYQNzcccncnncbccccbccbccczzhLTUUTURITUUTTUUTUUUU",
"YYYYYYYYRRYRYRYRUUQNzccccbbbbcccbcbccbccczzzPYYUIIITTUTUUTUUUURU",
"IYTYIYYYRRRRRYYYYYQNzcccbcbccccccccccccczcclPTUUTUTUTUUUUUUURUUU",
"IYIIYUYYYYRUURURYYQNcccccccccccbccbccccccczlPRUUTUUTUUURRUUUTUUU",
"TTITUIYRUYRRRRRUYYQNzcccccncccccbccccccczzzlPRTUUUUURUUURUTUUUUU",
"TTYTRUYYITTUIRRIUYQMzzccncccccccccbcccczczchLRUUTUUUURTIUIYUUUUU",
"IIITIYUUIRIURRIREYQMzcccccccccccccccccccczzzPRURTUUTTUUUUUYUUPIU",
"IITITTUYTRUURRYRIUWMzczccccccccccccccccczczlPYUUUUUURUUIUUUUUIUU",
"UIIIIIUYRRURUUIYEYWBzzzccccczcccccccczzzzzlhPUYUYUUYYUUUUUUUUIUI",
"TTTIYYUUUUUYRIYUYYQAlzzcccccccccccczccxzzzhhTYRUUUUIUUUUUUUUUIPU",
"UTTIYYUUUUUUUIYRYYEFhlzczzczczzcczczzczzzhhMQRUUUTUUYUUUUUPUUUUU",
"IIYIYIIIUUUUUUYYYUYEZaaczzzczzczzzzzzzzlhhxLYIUUTYUUUUUUUUUUUUIU",
"IIYYIIYYIUYUUYYRUUUYWHZBNMNNNNNNVVmVVmmVCSUEUUURRRUPUUUUUPUPPUUU",
"YIIYYIYYUIUUIYUYYUYUYEEEEWWWEWWWWWWQWWWWWRUUUUUUUUUUUUUUUIUIUUII",
"YIIYYIIUYIUYYYYUUUUYYUIIUUYUUUUUPTUUUIIIUIIUUUURUUUUUUUUUUUUUUIU",
"IIIYIYIUUUUTIYIYUYUUUUUUUUUUUUUUUUUUUUUUUUUUUUUUUUUIIUUUTUUUIUUI",
"IYIIYIIUUUYYIIIIUUUUUUUUUUUUUUUUUUIIUUUIUTUUUUIUUUUUPUUUTUUUUUUU",
"UYYIUYUUUUUIUUUIUUIUIUIYIUUUUUUUUIUUUUUIUUUUUUUIUUUUUUUIUUUUUIUU",
"IUUYYUUUIUPUUUUUIUUIYUIIUUUUUIUUYIUUTTUUUUPUUUUPIUUUIUUUIUUUUUPU"
};
