/* XPM */
static char *kar1712085559[] = {
/* columns rows colors chars-per-pixel */
"64 64 238 2 ",
"   c #030303",
".  c #0A0206",
"X  c #0E0409",
"o  c #0D0C0D",
"O  c #13040D",
"+  c #110C0F",
"@  c #0E0D12",
"#  c #160610",
"$  c #1B0612",
"%  c #130D11",
"&  c #0F1013",
"*  c #131315",
"=  c #14141A",
"-  c #191619",
";  c #1A1A1D",
":  c #240E01",
">  c #271001",
",  c #2C1103",
"<  c #331404",
"1  c #391705",
"2  c #3D1805",
"3  c #240717",
"4  c #230916",
"5  c #250919",
"6  c #2B0B1C",
"7  c #320D1D",
"8  c #23131F",
"9  c #1C1D23",
"0  c #2E0C20",
"q  c #340D23",
"w  c #390E26",
"e  c #3D0F29",
"r  c #251D23",
"t  c #3D1027",
"y  c #331E30",
"u  c #1E2025",
"i  c #1F2128",
"p  c #222225",
"a  c #23242A",
"s  c #28282B",
"d  c #2A2A2C",
"f  c #2B2D32",
"g  c #282B37",
"h  c #392E37",
"j  c #2E3138",
"k  c #333234",
"l  c #34353B",
"z  c #3A3539",
"x  c #3A3A3D",
"c  c #421A05",
"v  c #4B1E06",
"b  c #4D1E08",
"n  c #532205",
"m  c #5A2406",
"M  c #542108",
"N  c #53240B",
"B  c #5D2509",
"V  c #662807",
"C  c #6D2D05",
"Z  c #61260A",
"A  c #6E2D09",
"S  c #712A06",
"D  c #722E0C",
"F  c #713317",
"G  c #411127",
"H  c #44112D",
"J  c #4C142E",
"K  c #461130",
"L  c #4B1333",
"P  c #521534",
"I  c #551539",
"U  c #5A163D",
"Y  c #5B1838",
"T  c #631B3C",
"R  c #432E35",
"E  c #2D3445",
"W  c #2D364B",
"Q  c #353946",
"!  c #3B3C42",
"~  c #5F1741",
"^  c #641944",
"/  c #6C1B47",
"(  c #721D4B",
")  c #791F53",
"_  c #552B46",
"`  c #453847",
"'  c #563C50",
"]  c #72294F",
"[  c #7B2355",
"{  c #79375B",
"}  c #7A3F6B",
"|  c #3E414A",
" . c #3A4456",
".. c #434244",
"X. c #43454B",
"o. c #484648",
"O. c #4B4A4D",
"+. c #534E4E",
"@. c #464A55",
"#. c #4C4C53",
"$. c #544853",
"%. c #4E5258",
"&. c #555558",
"*. c #54565C",
"=. c #5A5A5C",
"-. c #764A56",
";. c #494F61",
":. c #514F6B",
">. c #4D5464",
",. c #4C576C",
"<. c #565866",
"1. c #5B5D63",
"2. c #5B4975",
"3. c #5B5878",
"4. c #6D4D6F",
"5. c #755B7A",
"6. c #5C6268",
"7. c #5D616C",
"8. c #57647A",
"9. c #636364",
"0. c #64646A",
"q. c #67666C",
"w. c #6A6B6C",
"e. c #716B6D",
"r. c #646A75",
"t. c #6C6D72",
"y. c #646A7A",
"u. c #696D7A",
"i. c #766877",
"p. c #6C7177",
"a. c #717274",
"s. c #74757A",
"d. c #7A7A7E",
"f. c #862457",
"g. c #8B2E54",
"h. c #8B235E",
"j. c #93285A",
"k. c #A8315B",
"l. c #972667",
"z. c #973167",
"x. c #A62C66",
"c. c #AA3269",
"v. c #B4326D",
"b. c #A82A73",
"n. c #B82D7B",
"m. c #A9357A",
"M. c #B53377",
"N. c #C4297F",
"B. c #99447D",
"V. c #945174",
"C. c #8E6460",
"Z. c #715A92",
"A. c #596B85",
"S. c #676985",
"D. c #756C89",
"F. c #6D7582",
"G. c #697688",
"H. c #767A84",
"J. c #727B8A",
"K. c #6C6897",
"L. c #766797",
"P. c #697A96",
"I. c #737D94",
"U. c #737A99",
"Y. c #BE2F82",
"T. c #B83682",
"R. c #C52D82",
"E. c #CB2E86",
"W. c #C53385",
"Q. c #C93286",
"!. c #C6378A",
"~. c #C9338A",
"^. c #9A5E8D",
"/. c #A84889",
"(. c #B9498C",
"). c #AD558E",
"_. c #BC5799",
"`. c #8F7091",
"'. c #AA6A98",
"]. c #9578A7",
"[. c #B273A7",
"{. c #C1498F",
"}. c #C567A3",
"|. c #CB7CB4",
" X c #788187",
".X c #7B818C",
"XX c #758194",
"oX c #7C8493",
"OX c #778499",
"+X c #7D8CA6",
"@X c #7990AE",
"#X c #7C86B8",
"$X c #7584C3",
"%X c #85878B",
"&X c #818694",
"*X c #838995",
"=X c #858B9A",
"-X c #8A8A99",
";X c #948E93",
":X c #89919A",
">X c #8D929C",
",X c #999797",
"<X c #868CA7",
"1X c #908AAF",
"2X c #8A94A7",
"3X c #9499A7",
"4X c #889AB7",
"5X c #979AB5",
"6X c #AD91B0",
"7X c #9EA2A9",
"8X c #99A4B6",
"9X c #A6A8AE",
"0X c #A8ADB3",
"qX c #ABB2BA",
"wX c #889DC3",
"eX c #949DC3",
"rX c #8BA2C7",
"tX c #98ABC7",
"yX c #9BB2CB",
"uX c #96AFD6",
"iX c #9AB4D8",
"pX c #AAB6C9",
"aX c #A4B9D9",
"sX c #B0B7D1",
"dX c #A1B9E0",
"fX c #D1AED2",
"gX c #BCC3CB",
"hX c #AAC3DB",
"jX c #B7C2D5",
"kX c #ADC5ED",
"lX c #BAD9F8",
"zX c #C9CADA",
"xX c #C6D7ED",
"cX c #E1D9ED",
"vX c #C7E8FE",
"bX c #D8EFF7",
"nX c #E9E6EC",
"mX c #FEFAFD",
/* pixels */
"D D D D D D D D D D D D D D D D D D D D D D D D D D D D D D D D D D D D D D D D D D D D D D D D D D D D D D D D D D D D D D D D ",
"D D D D D D D D D D D D D D D D D D D D D D D D D D D D D D D D D D D D D D D D D A D D D D D D D D D D D D D D D D D D D D D D ",
"D D D C C C C C A C C C C C A A C C C C C C C C C C A C C C C C C C C C C C A C C C C C A C C C C C A C C C C C A C C C C D D D ",
"D D D k.v.v.v.v.v.v.v.v.v.v.v.v.v.v.v.v.v.v.v.v.v.v.v.v.v.v.v.v.v.v.v.v.v.v.v.v.v.v.v.v.v.v.v.v.v.v.v.v.v.v.v.v.v.v.v.v.k.A D D ",
"D D C M.~.~.Q.~.Q.W.~.W.!.!.~.~.Q.Q.~.~.~.Q.~.Q.!.!.~.~.~.~.W.Q.~.Q.~.Q.!.!.Q.~.~.~.Q.~.~.~.Q.Q.!.!.W.Q.~.~.~.Q.~.~.~.~.M.A D D ",
"D D D v.Q.Q.W.W.W.W.W.W.W.W.W.W.W.W.W.W.W.W.W.W.W.W.W.W.W.W.W.W.W.W.W.W.W.W.W.W.W.W.W.W.W.W.W.Q.W.W.W.Q.W.W.W.W.W.W.W.~.v.A D D ",
"S D A v.Q.W.W.W.W.W.W.Q.W.W.W.W.~.W.W.W.W.W.W.W.W.W.W.W.W.W.W.W.W.W.W.W.W.W.W.W.W.W.W.W.W.W.!.W.W.W.W.W.W.W.W.W.W.W.W.Q.v.A D D ",
"D D C v.~.W.W.W.W.W.W.W.W.W.W.W.W.W.W.W.W.W.W.W.W.W.W.W.W.W.W.W.W.W.W.W.W.W.W.W.W.W.W.W.W.W.W.W.W.W.W.W.W.W.W.W.W.W.W.!.v.A D D ",
"D D A v.~.W.W.W.W.W.W.W.W.W.W.W.W.W.W.W.W.W.!.W.W.W.W.W.W.W.W.W.W.W.W.W.W.W.W.W.W.W.W.W.W.W.W.W.W.W.W.Q.W.W.!.W.W.W.W.W.v.A D D ",
"D D A v.~.W.W.W.W.W.W.W.W.W.W.W.W.W.W.W.W.W.W.W.W.W.W.W.W.W.W.W.W.W.W.~.W.W.W.W.W.W.W.W.W.W.W.W.W.W.W.W.W.W.W.W.W.W.Q.!.v.A D D ",
"D D C v.~.W.W.W.W.W.W.W.W.W.W.W.W.W.W.W.W.W.W.W.W.W.W.W.W.W.W.W.W.W.W.W.!.W.W.W.W.~.W.W.W.W.W.W.W.W.W.W.W.W.W.W.W.W.W.~.v.A D D ",
"D D C v.~.W.W.W.W.~.W.W.~.W.W.W.~.W.W.W.W.W.W.W.W.W.W.W.W.!.W.W.W.W.W.W.W.W.W.W.W.W.W.W.Q.W.W.W.W.W.W.W.W.W.W.W.W.Q.W.Q.v.A D D ",
"D D A v.~.W.W.W.W.W.W.W.W.W.W.W.W.W.W.W.W.W.W.W.W.W.W.~.W.W.W.W.W.W.W.!.W.W.W.W.W.W.W.W.W.W.W.W.W.W.W.W.Q.W.W.W.W.W.W.~.v.A D D ",
"D D S v.~.W.W.W.W.!.W.W.W.W.W.W.W.W.W.W.W.W.W.W.W.W.W.W.W.W.W.W.W.W.W.W.W.W.W.W.W.W.W.W.W.W.W.W.W.W.W.W.W.W.W.W.W.W.W.!.v.D D D ",
"D D A v.~.W.W.W.W.W.W.W.W.W.W.W.W.W.W.W.W.W.W.W.W.W.W.W.W.W.W.W.W.W.W.W.W.W.W.W.W.W.W.W.W.W.W.W.W.W.!.W.W.W.W.W.W.W.N.!.v.A D D ",
"D D A v.Q.W.W.W.W.W.W.W.W.W.W.W.W.W.W.W.W.!.W.W.W.W.W.W.~.W.W.W.W.W.W.W.W.W.W.W.W.W.W.W.W.!.W.W.W.W.W.W.Q.W.W.W.W.W.W.!.v.A D D ",
"D D A v.~.W.~.W.W.W.W.W.W.W.W.W.W.W.!.W.W.W.W.W.W.W.W.W.W.W.W.W.W.W.W.W.W.W.W.W.W.W.W.W.W.W.W.W.W.W.W.W.!.W.W.W.W.W.W.W.v.D D D ",
"D D S v.~.R.W.W.W.W.W.W.W.W.W.W.W.W.W.W.W.W.W.W.W.W.W.!.W.W.W.W.W.!.W.W.W.~.W.W.W.W.W.W.W.W.W.W.Q.W.W.W.W.W.W.W.W.Q.W.~.v.C D D ",
"D D S v.~.W.W.W.W.W.W.W.W.W.W.W.W.W.W.W.W.W.W.W.W.W.W.W.W.W.W.W.W.W.W.W.W.W.W.W.W.W.W.W.W.~.W.!.W.W.W.W.W.W.W.W.W.W.W.~.v.D D D ",
"D D A v.~.W.W.W.W.W.W.W.~.W.W.W.W.W.W.W.W.W.W.Q.W.W.W.W.W.W.W.W.W.W.W.W.W.W.W.W.W.W.W.W.W.W.W.W.W.W.W.W.W.W.W.W.W.W.W.~.v.C D D ",
"D D A v.~.W.W.W.W.W.W.W.W.W.W.W.W.W.W.W.W.W.W.W.W.W.W.W.W.W.W.W.W.W.W.W.W.W.W.W.W.W.W.W.W.W.W.W.W.W.W.W.W.Q.W.W.W.W.W.~.v.A D D ",
"D D A v.W.W.W.W.W.W.W.!.W.W.!.W.W.W.W.W.W.W.W.W.W.~.W.W.W.W.W.W.W.W.W.W.W.W.W.W.W.W.~.W.W.W.W.W.W.W.W.W.W.W.W.W.W.W.W.~.v.A D D ",
"D D A v.~.R.W.W.W.W.W.W.W.W.W.W.W.W.W.W.W.W.W.W.W.W.W.W.W.W.W.W.W.~.W.W.W.W.W.W.!.W.W.W.W.W.W.W.W.W.W.W.W.W.W.W.W.W.W.Q.v.A D D ",
"D D A v.!.W.W.W.W.W.W.W.W.W.W.W.W.W.W.W.W.W.W.!.W.W.W.W.W.W.W.W.W.W.W.W.W.W.W.W.W.W.W.W.W.W.W.W.W.W.!.W.W.W.W.W.W.W.W.!.v.A D D ",
"D D A v.!.R.W.W.W.W.W.W.W.W.Y.W.W.W.Q.W.T.W.W.W.W.W.W.W.Y.W.W.W.W.W.W.W.W.W.W.T.W.R.!.~.W.W.W.W.W.W.W.W.W.W.W.W.W.W.W.W.v.C D D ",
"D D A v.~.W.W.W.W.W.W.Y.!.Y.W.W.W.Q.W.R.W.W.Q.Q.W.Q.W.W.!.R.~.!.W.W.!.W.!.W.W.Q.W.W.W.Y.W.W.W.W.W.W.W.W.W.W.W.Q.W.W.W.~.v.D D D ",
"D D A v.~.W.W.W.W.W.W.W.Y.!.Y.T.Y.T.M./.B.T.T.T.m.M.M.M.T.n.m.M.n.n.R.R.N.N.N.Q.!.W.W.W.W.W.W.W.W.!.W.W.W.W.W.W.W.Q.W.!.v.A D D ",
"D D S v.~.W.W.!.W.W.!.R.T.Z.' ' ` h `  .W ! Q l h Q #.' $.$.4.4.`.^._.}.}.}._.(.T.R.W.R.W.W.W.W.W.W.W.W.W.W.W.W.W.W.W.Q.v.A D D ",
"D D A v.~.W.R.Y.W.W.E.(.D.7.r.-.[ { @.@.z _ f.h._  .7.7.,.r.p. XoX2X=X8X5X4X5XeXaX|.Y.R.W.W.W.W.W.W.W.Q.W.W.Q.W.W.W.W.~.v.A D D ",
"D D A v.~.W.W.R.Y.R.!.;X Xy.`.).'.^.r..X^.!./.).D.>.,..X,X6X9XqX3X=X<X5XtX5X[.6XfXnX}.R.W.W.W.W.W.W.W.W.W.W.W.W.W.W.W.!.v.D D D ",
"D D A v.E.R.R.E.~.R.'.2Xr.8.`.`.OX5.>.S.^.(.D.F.s.>.>. XH.`.oXoX%XJ.G.-X[.[.{.{.6XcXnXW.N.W.W.W.W.W.W.W.W.W.W.W.W.W.N.!.v.A D D ",
"D D S v.).^.} } { 5.oXXX>.A.U.P.P.A.,.A.8X9Xy.y.8.<.;. Xp.OXoXoX-Xy.G.].(._._.T.}.zXmXfX_.!.W.W.W.W.W.W.W.W.Q.W.W.W.W.!.v.A D D ",
"D D C `.@X@X@XOXP.J.I.J.,.A.@X@X$XA.A.P.5XtXtX2XpX2X .8.3XjXjXjXsXS.A.*X'.6X|.}._.|.mXnX-XM.Q.Q.W.W.W.W.W.W.W.W.W.W.W.~.v.A D D ",
"D A D C.#X#X$X#X#X4X2XXXXXG.+XtXiXA.A.OXXXH.J.F.>X4XW ,.oXzXzXsXI.A.A.I.-X6XsXgX5X5XnXmX6Xm.M.N.Q.R.Q.Q.Q.!.W.W.Y.W.W.~.v.C D D ",
"D D D -.J.J.XXOXU.<X2XU.I.XXG.G. XG.y.J.r...l l *.XXg  .,.oXOX>.%.,.,.G.XX=XqXqX2X+XyXxX8X+X5X1X^././.m.M.n.N.N.W.!.W.~.v.A D D ",
"D D A -.9.r.r.t.s.&X2XJ.8.I.OXOXXX.X&XJ.d.9.*.! <.%.g |  .Q ;.,.3.,.>.G.oX:X8XpXuX4XrXuXiXaXhXaXtXaXhXpX6X1X^./.M.R.W.~.v.C D D ",
"D D D { X.6.9.&.1.%X<XD.r.t.OX#XOXXXy.J.XXoXH.s l %.1.>.8.1.H.2X4XJ.u.G.+X2X@X+X4X@XaXlXlXlXlXlXvXvXvXbXbXvXlXhX5X^.M.E.v.C D D ",
"D D A k.!   - k Q w.-XL.D.D.].`.p.J.y.J.OXXXXX%.j 7.u.F.=X=X*X.X&X:X:X2X2X4XwXrXrXtXhXhXkXkXdXuXuXuXuXaXdXkXkXkXkXyX1XB.v.D D D ",
"D D D g.| * 9 i E %.i.w.D.L.i.<X].^.t.w.a.H.oXoXXX=XJ.p.oXoXoXoXoX&XoX&X&X=X=X2X3X3X7X0XpXpXyXtXwXwXwXwXrXtXuXiXaXkXvXpXz.S D D ",
"D D D c._ = f f f Q 9.9.S.S.q.`.S.q.w.u.p.w.w.a.d. Xp.p.=X=X&X&XoXoXoXoX*XoXoX.XoXoXoXoX=XoX=X8XtXyXtXtXyXtXtXiXsXjXzXzXC.S D D ",
"D D A v.T.y f Q f f #.=.>.<.r.9.t.7.K.K.Z.Z.Z.e.w.a.9.9.s.H.*X-X:X2X2X=X=XoXoXoX=X*X*X*X*X-X*X:X7XgXzXjX8X8X2X.XJ.s.a.q.g.D D D ",
"D D A v.E.] i k d u f %.#.O.1.D.L.7.3.K.7.7.q.0.w.t.=.6.=.X.%.w.s.C.%X:X:X,X>X=X=X*X*X>X;X,X>X,X7X7X:XH.6.%.*.&.#.#.6. XV.D D D ",
"D A C c.R.{ d x k p p p ` X.@.2.:.:.Z.2.K.9.9.w.w.w.1.&.l s j Q @.6.6.a.d.%X;X,X,Xe.&.;X,X,X,X;X,Xw.| O.<.X.#.| | %.7XcXC.C D S ",
"C A A x.Y.] f ..x 9 ; * = i f ! ` $.2.X.:.3.=.a.w.0.6.@.o     @ 9 i l Q | w.%X;X,Xw.R e.9.=.&.9.a.6.@.l | | >.G.3XxXgXu.gXC.S D ",
"V V B j.b.) Q #.f ; * - 9 = @ 9 a Q ! @.#.:.3.3.*.=.1.l       ; u u p a g Q a.%X;Xd.k l s u 9 i f @.7.H.3X2X2XOXu.@.| %.0XC.V C ",
"v b c / / ^ y ! d * * * 9 9 & & = = 9 9 l ..<.S.5.1.%.a   & i f j j l k j g %.H.%X;Xp.6.<.6.7.7.H.=X3X Xr.@.l j  .%.=.O.a N D C ",
"< < , G K w 0 9 * @ o X = 9 9 9 = * 9 9 & 9 r x @.<.%.*   a d d p a d k k j E 1.w.a.d.H.s.p.t.t.q.6.*.j f Q ,.@.l 9 a k o.F C A ",
", > : w e q q $ % .   .   X % 9 9 9 9 a = O = = 9 d j & * f s k d.6.k =.X.f E E l | | j l l j f | >.6. .| Q i ; @ =  X0X{ V A A ",
", , > G H w w q 0 5 $ $ # O X X X = 9 9 9 = = = = = = @ 9 d k ! 9.+.o.+.qXw.; f g j l ! z k d a d j p p & o * u &.7X8X`.c.C C A ",
"< > > H K e e w q q 0 0 5 3 # # O X O = 9 9 9 9 = 9 Q = u d x p % R ..d O.q.k p g a a f k x f p i 9 s ! X.O.%.=.qX,Xg ) v.C V A ",
"< , , H L K H e e w q q 0 6 3 3 $ # O X O + = 9 9 i a = p k w...8 o.O...p 9 O.d a r 9 = 9 p f f 9 =.8X0X9X7X6.%.w.{ ] m.x.V V V ",
"< < < H L L K K K e e w w q 0 6 5 3 $ # # O X X = 9 r * u k p.` p +.k O.O.d =.x l d * * = ; ; p r ,X1. Xq.o.+.{ c.m.M.m.x.Z F V ",
"< , < H I L L L K H H e e w q q 0 0 6 3 $ $ O O X X = = - z x p d ....o.k ..7Xx z k & - s d s % %.#.& f R _ ) l.l.x.b.b.j.V V V ",
"< < < J U P P L L L H H H e e w w q q 0 6 3 $ $ # O O X % k ..! k d O...z z w.k k s * + p p p ..a.d a r L U / ) h.l.l.b.j.A Z V ",
"1 < < P U I P L L L L K H H H e w w q q 0 0 6 3 $ $ # # O 9 x =.*XE f Q x l ..d d p o . + r $.&.d 6 q K U ^ ( ) f.h.l.l.h.B Z Z ",
"1 < < P U I I I I L L L L K K H K e e w w q 0 0 0 3 $ $ $ % s ! =.o.l H.%Xo.k d d - o . . % 4 # 3 e L I U ^ ( ) f.h.h.l.g.B Z Z ",
"1 < 1 P U Y U I I P P L L L L K H H H e e w w q q 0 6 5 4 4 * p l x ! O.| f s p ; + . X O # 3 q K L I I U / ( ) f.h.h.l.h.m B Z ",
"2 1 1 P ~ U U U I I I I I P L L L H H H H e w w q q 0 0 4 4 $ * ; s d s p p p - + . O # 3 q e L L I U ~ / / ) f.) h.l.l.f.M B B ",
"2 1 1 Y ^ U U U U U I I I I I L L L H H H H H e w w q q 7 6 5 $ + o * * * & + o O O $ 3 6 w H L I ~ ^ / ( ( f.) f.h.h.l.j.m B B ",
"2 2 1 U / ^ ^ T ^ ~ ~ U U U I I I I P L L K K K H H e e w q q 0 6 3 # O O O O O $ $ 5 7 e L I ^ / / ) ) ) f.f.h.h.l.l.l.j.m B Z ",
"2 2 2 Y Y Y Y Y Y P Y P P J J P J J J J J G H G e G t t w q q 7 7 7 7 6 6 4 4 4 5 6 7 7 J J Y T ^ T ( ( ( ( f.( f.f.f.j.f.m Z B ",
"c 2 2 1 2 1 2 1 1 1 < < < < < < < < , , , , , , , : , : > > : : : : : # : : : : : , < < 1 1 c c c v v n b b n m n m n m m m Z Z ",
"c c c c 2 2 2 2 2 2 1 1 1 1 1 < < < < < < < , < < , , , , , , , > > , , , , , < < < 2 c c v b b b M n n M M m m m m B Z Z Z Z Z ",
"c c 2 c c 2 c 2 2 1 2 1 1 1 1 1 1 1 < < < < < < < , < < < < , < , < < , < < 1 2 c c v b b n n M M M M m B m m B m B B Z B Z Z Z "
};
