/* XPM */
static char *ken1712085560[] = {
/* columns rows colors chars-per-pixel */
"64 64 241 2 ",
"   c #01050C",
".  c #0A0F18",
"X  c #191619",
"o  c #221717",
"O  c #3F1F12",
"+  c #010D28",
"@  c #07122B",
"#  c #1A1B2D",
"$  c #041637",
"%  c #00133C",
"&  c #131B33",
"*  c #291D25",
"=  c #142125",
"-  c #252837",
";  c #302932",
":  c #671D00",
">  c #681F00",
",  c #522818",
"<  c #6B2201",
"1  c #6B2D02",
"2  c #6F2D0A",
"3  c #74280C",
"4  c #732E0D",
"5  c #73310F",
"6  c #61291D",
"7  c #762C13",
"8  c #7B2818",
"9  c #743111",
"0  c #783717",
"q  c #7A3C1B",
"w  c #48322C",
"e  c #52312F",
"r  c #693124",
"t  c #7A3826",
"y  c #7D441F",
"u  c #7D4526",
"i  c #6D4135",
"p  c #764538",
"a  c #001A42",
"s  c #0F2345",
"d  c #2E2E47",
"f  c #343449",
"g  c #373858",
"h  c #37435C",
"j  c #534D4F",
"k  c #484858",
"l  c #70514F",
"z  c #6C585C",
"x  c #524B63",
"c  c #7B6A64",
"v  c #6E6973",
"b  c #882918",
"n  c #8C341C",
"m  c #832B24",
"M  c #842825",
"N  c #892A2D",
"B  c #893B26",
"V  c #953D27",
"C  c #8C2A31",
"Z  c #932C3A",
"A  c #8E3035",
"S  c #95303F",
"D  c #AE362A",
"F  c #874529",
"G  c #94422A",
"H  c #97462A",
"J  c #9A442D",
"K  c #884A38",
"L  c #9D4A33",
"P  c #964838",
"I  c #8C5539",
"U  c #975536",
"Y  c #A3442E",
"T  c #A34C35",
"R  c #A84B37",
"E  c #B34D3B",
"W  c #A75238",
"Q  c #AC553C",
"!  c #AC593E",
"~  c #B3553D",
"^  c #992D44",
"/  c #963040",
"(  c #9A3046",
")  c #A02E4F",
"_  c #A62F58",
"`  c #A53056",
"'  c #B02F66",
"]  c #AE3164",
"[  c #B3316B",
"{  c #B73171",
"}  c #B93374",
"|  c #BD337B",
" . c #C0347F",
".. c #875947",
"X. c #995848",
"o. c #895C57",
"O. c #975E50",
"+. c #AC4E4D",
"@. c #A75745",
"#. c #AD5A44",
"$. c #AB5C4A",
"%. c #B35B43",
"&. c #B65A46",
"*. c #BC5B45",
"=. c #956549",
"-. c #8D6251",
";. c #976657",
":. c #9A6D54",
">. c #9D735A",
",. c #AB634B",
"<. c #B4644C",
"1. c #B96649",
"2. c #BB644C",
"3. c #A86756",
"4. c #B36453",
"5. c #BA6956",
"6. c #A1745C",
"7. c #A2775D",
"8. c #BB765A",
"9. c #92716E",
"0. c #98766B",
"q. c #A56D63",
"w. c #A47C64",
"e. c #A87B69",
"r. c #B77366",
"t. c #B87866",
"y. c #C3654D",
"u. c #C36C53",
"i. c #C56B59",
"p. c #C47256",
"a. c #C87559",
"s. c #D27C5D",
"d. c #C57767",
"f. c #CC7B63",
"g. c #C9736E",
"h. c #99847A",
"j. c #A78067",
"k. c #AA836D",
"l. c #BE846E",
"z. c #AC8572",
"x. c #AC8A78",
"c. c #B78B79",
"v. c #B69279",
"b. c #C98568",
"n. c #C98778",
"m. c #D38773",
"M. c #D38E72",
"N. c #D38C7C",
"B. c #DFA47B",
"V. c #5C668A",
"C. c #73758B",
"Z. c #787DA4",
"A. c #C53384",
"S. c #C73388",
"D. c #CB338E",
"F. c #CD3391",
"G. c #D4339B",
"H. c #938685",
"J. c #A68D88",
"K. c #B48C86",
"L. c #AA9488",
"P. c #BA9688",
"I. c #A69892",
"U. c #B59D94",
"Y. c #B3A196",
"T. c #B7A498",
"R. c #888EAC",
"E. c #B8ADA4",
"W. c #B1ADAE",
"Q. c #BBB3A8",
"!. c #C79887",
"~. c #CA9288",
"^. c #D79886",
"/. c #E19A8A",
"(. c #CFA588",
"). c #C6A898",
"_. c #D4AA98",
"`. c #CBB19D",
"'. c #D9B49B",
"]. c #E6A697",
"[. c #E5B697",
"{. c #C9B7A8",
"}. c #D8BAA6",
"|. c #D5BDAA",
" X c #D0B9AE",
".X c #C4BDB3",
"XX c #E1B7A6",
"oX c #D9C1AC",
"OX c #C9C4BA",
"+X c #DCC5B2",
"@X c #D8C8B7",
"#X c #DDCCBB",
"$X c #DDD2BE",
"%X c #E6C8AB",
"&X c #E4CCB9",
"*X c #E4D3BD",
"=X c #E7D5BC",
"-X c #F4D9B7",
";X c #CDCBC5",
":X c #D7CCC4",
">X c #DCD4C3",
",X c #D5D3C9",
"<X c #DBD5CB",
"1X c #DCD9CC",
"2X c #DCDBD3",
"3X c #DDDBD8",
"4X c #E3D4C4",
"5X c #E4D8C6",
"6X c #E9DAC3",
"7X c #E4DBCC",
"8X c #EADDCC",
"9X c #F0DCC7",
"0X c #E4DCD2",
"qX c #E6DED6",
"wX c #DBE0DA",
"eX c #E9E0CE",
"rX c #F8E7CB",
"tX c #E5E2D4",
"yX c #EAE4D4",
"uX c #ECE8D7",
"iX c #E5E4DB",
"pX c #EAE6DA",
"aX c #ECE9DC",
"sX c #F3E6D6",
"dX c #F2EADD",
"fX c #FDF0DB",
"gX c #EDEBE2",
"hX c #EAE8E4",
"jX c #F1EEE3",
"kX c #F8EFE2",
"lX c #F1EEEA",
"zX c #EEF1ED",
"xX c #F3F1E6",
"cX c #F4F2EC",
"vX c #F9F5ED",
"bX c #FAF8E9",
"nX c #F6F5F1",
"mX c #F9F6F2",
"MX c #F6FAF6",
"NX c #FAFAF5",
"BX c #FDFDFD",
/* pixels */
"4 4 4 4 4 4 4 4 7 4 4 4 4 4 4 7 4 7 4 4 4 4 4 4 4 4 4 4 4 4 4 4 4 4 4 4 4 4 4 4 4 4 4 4 4 7 4 4 4 4 7 4 4 4 4 4 4 4 4 4 4 5 4 4 ",
"4 4 1 1 1 1 1 1 1 1 1 1 1 1 1 1 1 1 1 1 1 1 1 1 1 1 2 4 4 4 1 4 4 4 5 1 1 1 1 1 1 1 1 1 1 1 1 1 1 1 1 1 1 1 1 1 1 1 1 1 1 2 4 2 ",
"4 2 t ^ Z S S S S S S S S S S S / / / / / / / / ( A 7 < 3 0 q 5 1 < 3 A ( / / / / / ^ Z S / / / / / S S ( S S S ( S S S ( m 1 4 ",
"4 1 ^ G.D.F.F.D.F.D.F.F.F.F.D.F.D.D.D.D.D.D.F.D.] M t z.T.@X4X{.P.k.K b [ F.D.D.D.D.D.D.D.D.D.D.D.F.D.D.D.D.D.D.D.D.D.D.G.( 1 4 ",
"4 1 S D. .A.A.A.A.A. .A.A. .A. .A.A.A.| A.A.| Z 4 =.{.NXBXBXNXBXBXBXtX=.2 /  .A.A.A.| A. .A.A.A.A.A.A.A.A. .A.A.A. .A. .S.S 1 5 ",
"4 1 S F.A.A.A.A.A.A.A.S.A.A.A.A.A.A.A.A.A.| N y P.pXBXBXNXdXrX-X-XxXBXxXK.0 C  .S.A.A.S.A.A.A.A.A.A.A.A.A.A.S.A.A.A.A.A.D.S 1 4 ",
"4 1 S D. .A.A.A.A.A.A.A.A.A.A.A.A.A.A.S.A.N u  XNXmXvXsXrXeXoXl j.5X$XNXBX{.q M { S.A.A.A.A.A.A.A.A.A.A.A.A.A.A.A.A.A. .D.( 1 5 ",
"4 1 / D.A.A.A.A.A.A.A.S.A.A.A.A.A.A.A.| N 0 ).BXxX5X@XoXL.T.h.  j I.z {.xXBX:XI b } A.A.A.A.A.A.A.A.A.A.A.A.A.A.A.A.A.A.D.S 1 4 ",
"3 1 S F. .S.A.A.A.A.S.A.A.S.A.A.A.A.A.C 9 {.BXvXeXoX{.J.- h.z @ v v s C.<XaXBXqXK m  .A.A.A.A.A.S.A. .S.A.S.A.A.A.A.A.A.F.S 1 4 ",
"5 3 S F. .A.A.A.S.A.A.A.A.A.A.A.A.S.) 1 v.mXdX5X+XU.h.j j H.x g x h V.R.Z.W.mXBXoX0 / S.A.S.A.A. .A.S.S.A.A.A.A.A.A.A.A.D.S 1 7 ",
"4 1 S F.S.S.A.S.A.A.S.A.A.S.A.A.S.[ 7 =.pXxX|.).`.c * & f v Z.Z.V.V.Z.R.V.C.3XBX@Xq Z S.A.A.A.A.S.S.A.A.A.A.A.S.A.A.A.A.F.S 1 4 ",
"7 1 S F. . .A.A.A.A.A.A.A.A.S. .S.] < z.lX&XL.0.`.c # g d h x z l 0.o.o.c k C.hX:X0 _ D.A.A.A.A.S. . .S.S.S.A.A.A.A.A.A.F.S 1 4 ",
"5 1 S F. .S.A.A.S.A.A.S.A.A.A. .S.) 0 `.6X}.9.; z c k - ; e o.t.m./.].].XXK.z W.4X0 C A.A.A.A.A.S.S. .S.A.A.S.A.A.A.A.A.D.S 1 4 ",
"4 1 S F.A.A.A.S.S.A.A.A.A.A.A.A.S.8 :.kXoXL.k . @ k - o p 4.d.d.N././.].~.K.x.9.Q...4 S A.A.A.A. .S. .S.A.A.A.A.A.A.A.A.F.S 1 4 ",
"7 1 S F.A.A. .S.A.S.A.A.A.A.A.S. .8 v.fX'.z     d f X i l l e e p 5.m.f.K w k k h d w 7 | S.A.A.S.S.S.S.A.A.A.A.A.A.A. .F.S 1 4 ",
"5 1 S D. .A.A.S.A. .A.A.A.A.A.S.] 5 `.rX(.;   & k = f s $ @ $ @ # ; l e * $ % % a a X 4 { A.A.A. . .S. .S.A.A.A.S.A.A.A.D.S 1 7 ",
"4 1 S F. .A.A.A. .D. . .D. .D.D.' b |.rX0.- . h - X = $ @ + % % a a $ # + a a a s a O b | A.A.A.S.S.S. .D. . .D. . . . .G.^ < 3 ",
"7 1 S D.A.A.A.A. .D.D. . .D. . .' b |.rXz # - f . o r w + + @ % a @ * t.x % a # - & , / S.A.A.A.S. .S.S. .D.D. . .D.D. .F.D 1 3 ",
"5 1 S F. .S.A.A.D. . .D. . .D.D._ 8 %X-Xz d - . X 6 B t ; + + @ @   e g.~.d % X * w 7 _ D.A.A.A. .S. .S. . . . .D.D. . .F./ 1 3 ",
"4 1 S F.A.A.S.A. . .D. .D. . .F.' 3 }.9Xc f * w i G P P t * . . . o A i./.9.e w c ;.7 | A.A.A.A.S.S. .S.D. .D.D. . .D. .D.S 1 7 ",
"7 1 S D. .A.A.S. . .D. . .D. .S.| 3 v.bXJ.f w ;.,.#.#.R P A 6 , 6 t A F f.m.5.g.].e.8 D.A.A.A.A.S. . .S. .S.D. .A.A.A. .F.S 1 7 ",
"4 1 S F.A.A.A.A.D. . .D.S. .S.S.S.N F 4X}.K ..b.8.#.&.E E D E +.+.+.N r i.d.^./.].3.8 S.A.A.A.A. .S.S.S. .S. .S.A.A.A.A.D.S 1 4 ",
"4 1 S F. .A.A.A. .D.D. .S. .S. .S.{ 8 F y.D ~ 8.8.#.&.&.&.&.y.i.i.&.@.X.r.d.^./.].3.M F.S.A.A.A.S.S. .S.D. .D. .A.S.A. .F.S 1 4 ",
"7 1 S F.A.S.A.A. .D. .S. .D. .S.S.S.} b b D n V %.R E *.*.*.i.i.5.@.$.5.g.~.^.].].e.8 { [ A.A.A. .S.S. . .S. .D.A.A.A.A.F.S 1 4 ",
"4 1 S F.A.A.A.S.A.A.A.A.S.S. .S.A.A.S.^ 4 D b b Y W T &.*.y.i.y.$.$.+.+.+.g.n.N.].b.> 5 5 ( S.A.A.A.A.A.A.A.A.A.A.A.A.A.F.S 1 7 ",
"4 1 S F. .A.A.A.A.A.A.S. .S.S. .A.A.S.[ 7 n D E D J T Q *.y.y.2.<.@.+.4.i.g.^.~.].~.X.P.=.M [ | A.A.A.A.A.A.A.A.A.S.A. .F.S 1 4 ",
"7 1 S F.A.A.A.A.S.A.A.S. .S.S.S.A.A.S.S.` 7 F &.E Y @.Q &.*.<.2.%.<.i.2.4.i.g./.^.&XnXlX;.2 t m ( S.S.A.A.A.S.A.A.A.A.A.F.S 1 4 ",
"5 1 S D. .A.S.S.S.A. .S.S.S. . .A.A.A.A.A.` 7 ! ~ T #.#.%.Q %.$.@.#.5.<.4.i.^.^.^.sXBXnX`.).c.u 8 | A.A.A.S.A.A.A.A.A.A.F.S 1 4 ",
"4 1 S F. .A.A.A.S. .A.S. .S.S.S.A.A.S.A.A.A.N U <.R Y R @.#.Q W P @.3.5.5.g.~.n._.kXBXBXBXBX:X6.7 ^  .A.A.A.A.A.A.A.A.A.F.S 1 7 ",
"4 1 S F.A.A.A.A.A.A.A.S. .S. .S.A.A.A.S.S.[ N F 8.R V V J T T T P P X.$.5.g.d.d.%XbXmXBXBXNXNXlXx.0 8 C { S.A.A.A.A.A. .D.S 1 4 ",
"4 1 S F. .A.A.A.S.A.A. .S.S. . .A. .A.} N 8 0 ;.P.<.T J G G G B B B B P @.#.#.d.[.-XmXBXBXBXBXBXmX<Xk.3 8 ^ ' A.A. .A.A.F.S 1 4 ",
"4 1 S F.A.A.S.A.S. .S.S.S. .S.S.A.A.S.M u ).@X|.!.4.R T J J V B B B V B G J Q b.].B.sXNXNXBXBXBXBXBX0Xe.=.0 b } D.S.A. .F.S 1 4 ",
"4 1 / D.A.A.A.A.A.A.A.A.A.A.A.A.A.S.Z 2 {.BXdX&X_.r.R W W J H H B V V V V L p.M.B.a.[.fXbXNXNXBXBXBXBXBXlXe.0 3 ^ | S.S.F./ 1 7 ",
"4 1 / D.A.A.A.A.A.A.A.A.A.A.A.S.| Z < ).BXvXpX4X'.b.T T W Y H H J J L T ! p.M.M.M.%.b.%XxXbXmXmXNXBXBXBXBXBX:Xe.t 3 N _ S./ 1 4 ",
"4 1 / D.| A.A.A.A.A.A.A.A.A.A.} N q ).BXBXvXqX&X'.n.! Y W T L L T ~ 1.1.y.b.b.b.s.T U B.rXxXvXmXmXBXBXBXBXBXBXBX0XP.=.4 N m 1 4 ",
"4 1 / D.A.A.A.A.A.A.A.A.A._ C 8 u  XBXmXnXpX5X&XoXM.%.Y R T T Y T %.u.p.s.b.b.b.p.H U (.6XsXkXvXmXmXmXNXBXBXBXBXBXBXnX X=.3 4 4 ",
"7 1 S D.A.A.A.A.A.A.A.[ M 0 =.!.0XBXmXnXhX0X5X4XoXB.,.H Y T T Y T *.1.y.p.s.s.p.y.t ..oX9XsXkXkXvXmXmXNXBXBXBXBXBXBXBXBXgXI < 7 ",
"4 1 / D.A.A.A.A.A.S.{ 8 .. XlXBXBXBXmXjXyX7X5X5X=X'.8.U V T R W W *.1.*.p.s.a.y.~ r p B.%X8XjXlXvXvXvXmXNXNXBXBXBXBXBXNXBXz.: 9 ",
"4 1 / D.A.A.A.S.S.| 8 u <XBXNXBXBXNXgXgXyX0X8X6X=XoXB.3.G Y ~ ~ ~ *.p.s.b.a.u.y.Q r ..^.XX8XsXjXbXvXnXmXmXBXNXBXBXBXBXNXBXx.: 9 ",
"4 1 / D.A.A.A.A.( 3 t :XBXmXBXBXBXxXaXpXtX7X7X6X=X%X[.c.B Y ~ ~ *.1.u.a.u.p.u.1.U 6 ..t.}.8XsXjXxXnXnXnXmXmXmXNXNXNXBXBXBXz.: 9 ",
"7 1 / D.A.A.S.` 9 >.qXBXBXBXBXNXlXpXiXtXeX1X5X*X=X=X&XXX6.J W *.y.y.y.b.u.a.u.&.X.t i c.&X5XsXgXkXcXcXmXnXnXNXnXnXmXNXnXBXz.: 9 ",
"4 1 / D.A.A.{ 8 X.hXBXmXnXnXnXnXhXtXtXtXeXeX*X&X=X=X=X=X'.@.T %.y.b.p.y.u.i.5.<.X.p ;.}.&X8XyXgXjXcXcXnXmXmXnXvXnXnXmXcXBXz.: 9 ",
"4 1 S D.A.| N K <XBXNXnXnXnXvXgXaXyXeXeXeXeX6X=X=X6X8X6X*X!.W Q y.s.b.y.2.y.y.3.o.O.c.`.XX8XqXdXjXjXcXnXnXvXnXcXhXlXcXhXBXz.: 9 ",
"4 1 / D.A.] 0 P.nXMXnXlXhXlXaXpX0X1X1X1XtXtXeXeX8X6X9X9X8X&Xc.$.*.s.b.b.&.4.5.;.o.3.z.!.|.6XqXsXdXjXxXvXcXnXvXlXhXgXgXhXBXz.: 9 ",
"4 1 / F.A.( 7 ).MXcXhXiXiXuX7X5X,X$X1XtXyXtXyXeX8X8X8X8X8X8X|.l.p.b.m.d.$.*.r.9.O.X.;.!.+X4X8XpXdXjXxXxXcXcXcXzXzXhXlXgXBXk.: 9 ",
"4 1 / A.Z 7 e.hXnXzXwX1X1X$X1XeX1XtXtXiXuXyXyXeX8XeXsXsXsXqX5X{.m.b.^.d.5.i.q.;.@...e.{.+X4X7XdXjXjXxXxXcXnXcXnXnXcXcXzXBXk.: 9 ",
"4 2 7 8 q U.nXhXiXwX,X1X1X$X1X1X5XtXpXpXaXuXuXyXyXsXsXuXsXqX4X|.(.~.n.d.g.r.q.@.@.O.P.}.#X7X7XsXaXjXxXxXcXlXzXnXcXcXcXcXBXk.: 9 ",
"7 1 q ).qXBXzX3XwXwX2X1X1XtXtXeX5XtXpXpXaXiXaXuXyXyXsXdXdXqX&X`.K.n.N.m.g.3.O.4.4.q.U.#X7XyXqXqXyXaXxXxXcXcXcXnXcXnXnXzXBXk.: 9 ",
"7 : w.BXBXiX2X,X3XiXhXiXiXpXyXtXtXtXiXiXaXaXuXwXuXuXdXxXjX7X`.!.3.9.~.g.r.;.$.4.X.O.).5XtXpXsXqX7XqXaXxXcXcXcXcXnXnXnXzXBXz.: 9 ",
"5 : w.BXaX2XOXOXwXwXwXwXiXiXyXwXwXiXaXaXiXuXuXtXuXgXuXdXjXyX).r.r.3.r.n.q.X.$.<.4.q.).#X0XpXyXyX8X1XaXxXcXlXlXcXzXcXcXzXBXz.: 9 ",
"9 : e.BXiX1XW.OXwXiXhXhXiXiXiXiXiXaXiXaXaXaXgXaXuXdXgXgXjXaXeX_.~.g.3.K.q.~ 5.5.4.q.l.|.7XyXyXyXyX0XgXjXjXxXcXcXcXcXcXlXBXz.: 9 ",
"9 < k.MX2X;XE.OXwXhXwXhXiXiXiXiXiXiXaXaXaXaXaXaXuXgXuXxXgXaXyX+X!.^.e.9.q.<.2.<.4.X.X.{.7XtXpXaXuXuXaXjXgXxXzXnXcXcXnXlXBXk.: 9 ",
"9 : k.zX2XQ.I.;X3XwX2X1X,X,XtXtXuXwXtXuXuXuXuXuXuXgXgXjXdXaXuX@X^.~.U.J.J.r.&.<.$.P O.|.7XuXpXpXaXuXaXaXpXgXxXxXcXcXcXlXBXz.: 9 ",
"9 : j.zX,XOXE.OX;X,X2X1X,X1XwXaXuXiXuXuXtXtXtXuXuXuXaXaXgXuXuX*X^.K.W.T.I.K.#.4.$.X.e.@X7XpXtXpXuXuXpXpXpXgXgXxXlXxXcXlXBXk.: 9 ",
"9 < 0.hX;XOXE.E.OXOX,XtXtXaXuXaXaXaXuXiXuXuXuXtXuXuXuXdXuXaXaXeX_.P.W.0.o.K.,.5.,.O.P.:XqXpXtXtXpXpXyXtX0XaXaXxXxXjXxXgXBXk.: 9 ",
"9 : >.iXOXOXE.T.Y.L.{.2XiXuXaXaXaXaXiXaXaXiXuXtXyXuXuXuXaXgXuXtX|.~..XU.K.e.<.5.3.q.!.#X7XyXyXpXaXpXyX0X0XtXaXaXjXgXdXaXBXj.: 9 ",
"5 < >.,XOXOXT.Y.h.I..X;XtXaXaXaXaXgXgXiXuXaXuXeX1XeXuXaXgXaXuXtX5X_.c.~.l.Q <.<.3.3.T.#X8XeXyXpXyXtXyXtX2XpXpXpXaXyXyXyXBXk.> 5 ",
"5 1 >.;XOXOXE.Y.J.x.E.2XiXiXpXhXzXgXgXaXaXaXeX1X*X1XtXuXaXjXtXeX4X|.^.<.<.W ! ,.$.r.).&X7XeX0XpXtXpXaXaXaXaXgXiXtX7X5XtXNXj.> 9 ",
"5 < >.$X`.Q.E.Y.L.T.;XwXhXaXgXhXzXgXgXaXiXiXeX$X$X$XeXuXaXxXaX1X7XXX~.p.p.! ! ,.;.e.!.&X7X0XeXtXiXaXyXgXaXgXaXaX<X@X@X1XBXk.> 9 ",
"2 < >.OXQ.{.E.Y.Y.Q.2XwXiXiXhXhXhXaXiXtXtX7X$XoXoX@X$XeXtXuXuXeX4X|.~.5.1.Q ! ,.$.q.).+X5X8X7X5XtXyX0XpXaXjXgXaX:X X@X>XNXj.: 9 ",
"9 : >.;XOXOXT.Q.OX;XwXwXzXMXMXMXMXmXnXxXaXtXtX$X@X$XeXxXxXbXbXbXdX4X(.8.<.W <.#.$.e.|.5XdXdXgXbXbXgXcXMXBXBXBXmX:X,X0XpXBXc.: 5 ",
"5 1 p ;.=.-...=.:.>.-.;.j.j.j.0.w.w.j.>.>.>.>.:.=.:.j.j.w.e.j.j.e.6.=.H F n F F F I =.6.7.w.w.j.w.w.w.j.j.k.k.w.=.>.6.w.x.I < 4 ",
"4 5 1 < < < < < 1 < < < : : < < : < : < 1 < < < < 1 < : > > > > > > < 1 2 2 1 1 1 < < < < < : : : < < : : : : : < < < : : < 5 2 ",
"4 4 5 5 5 5 5 5 9 2 5 5 5 9 9 5 5 9 5 5 5 5 9 9 2 5 5 2 5 9 9 9 9 4 4 4 3 4 4 3 4 5 4 5 9 5 5 9 5 5 5 5 9 9 9 9 4 5 5 5 9 5 2 5 "
};
