/* XPM */
static char *_01711898839[] = {
/* columns rows colors chars-per-pixel */
"64 64 24 1 ",
"  c #6D2D05",
". c #6E2D06",
"X c #6F2D08",
"o c #702D08",
"O c #712D0B",
"+ c #722D0C",
"@ c #722E0C",
"# c #722E0D",
"$ c #A8305B",
"% c #A8315B",
"& c #B4326D",
"* c #B5316E",
"= c #B5326E",
"- c #B73271",
"; c #B93173",
": c #B93273",
"> c #C33282",
", c #C43283",
"< c #C53385",
"1 c #C73389",
"2 c #C83389",
"3 c #C8338A",
"4 c #C9338A",
"5 c #CC3390",
/* pixels */
"@@@@@@@@@@@@@@@@@@@@@@@@@@@@@@@@@@@@@@@@@@@@@@@@@@@@@@@@@@@@@@@@",
"@@@@@O@@@@@@@@@@@X@@@@@O@@@@@O@@@@@@@@@@@O@@@@@O@@@@@X@@@@@@@.@@",
"OO@.......    X ..  .... ..........   . . ......  ..........X@@X",
"@@X$-&&*&&&&&&&&******&&&&&&==**&&&&&&&&&&&***&&&&&&&=**=&&-%X@@",
"@@X;44443333333333343333113333333131111141444444113333333115:X@@",
"@@X*4,,,,,,,,,,,,,<<,,,,<>,>,,,,<,<,<<,,><,,,,,><<>>><,,<<>1=X@@",
"@@X*1,,,<<<<<,,1<<<<<<<<<<<<<<<<<<<<<<<<<<<<1<<<<<<<<<<<<<>1-X@@",
"@@X*4,,1<<<<<1,,<<<<<<<<<<<<<<<<<<<<<<<<<<<<<<<<<<<<<<<<<<<1&X@@",
"@@X&3,<<<<<<<<<<<<<<<<<<<<<<<<<<<<<<<<<<<<<<<<<<<<<<<<<<<<,1*.@@",
"@@X&3,<<<<<<<<<<<<<<<<<<<<<<<<<<<<<<<<<<<<<<<<<<<<<<<<<<<<,4*@@@",
"@@X-3,<<<<<<<<<<<<<<<<<<<<<<<<<<<<<<<<<<<<<<<<<<<<<<<<<<<<>1*.@@",
"@@X-3,<<<<<<<<<<<<<<<<<<<<<<<<<<<<<<<<<<<<<<<<<<<<<<<<<<<<,4*@@@",
"+@X*3,<<<<<<<<<<<<<<<<<<<<<<<<<<<<<<<<<<<<<<<<<<<<<<<<<<<<<3*X@@",
"+@X*3,<<<<<<<<<<<<<<<<<<<<<<<<<<<<<<<<<<<<<<<<<<<<<<<<<<<<>3=X@@",
"+@X*3,<<<<<<<<<<<<<<<<<<<<<<<<<<<<<<<<<<<<<<<<<<<<<<<<<<<<>1=X@@",
"+@X*3,<<<<<<<<<<<<<<<<<<<<<<<<<<<<<<<<<<<<<<<<<<<<<<<<<<<<<1=X@@",
"+@X*1,,,<<<<<<<<<<<<<<<<<<<<<<<<<<<<<<<<<<<<<<<<<<<<<<<<<<,3*X@@",
"+@X*3,,1<<<<<<<<<<<<<<<<<<<<<<<<<<<<<<<<<<<<<<<<<<<<<<<<<<,3*X@@",
"+@X*3,,1<<<<<<<<<<<<<<<<<<<<<<<<<<<<<<<<<<<<<<<<<<<<<<<<<<,3=X@@",
"+@X*3,<<<<<<<<<<<<<<<<<<<<<<<<<<<<<<<<<<<<<<<<<<<<<<<<<<<<,3=X@@",
"@@X*3,<<<<<<<<<<<<<<<<<<<<<<<<<<<<<<<<<<<<<<<<<<<<<<<<<<<<,3=X@@",
"+@X&3,<<<<<<<<<<<<<<<<<<<<<<<<<<<<<<<<<<<<<<<<<<<<<<<<<<<<,3=X@@",
"+@X&3,<<<<<<<<<<<<<<<<<<<<<<<<<<<<<<<<<<<<<<<<<<<<<<<<<<<<,3=X@@",
"+@X-3,<<<<<<<<<<<<<<<<<<<<<<<<<<<<<<<<<<<<<<<<<<<<<<<<<<<<,3=X@@",
"+@X*3,<<<<<<<<<<<<<<<<<<<<<<<<<<<<<<<<<<<<<<<<<<<<<<<<<<<<,3=X@@",
"+@X*3,<<<<<<<<<<<<<<<<<<<<<<<<<<<<<<<<<<<<<<<<<<<<<<<<<<<<,3=X@@",
"+@X*3,<<<<<<<<<<<<<<<<<<<<<<<<<<<<<<<<<<<<<<<<<<<<<<<<<<<<,3=X@@",
"+@X*3,<<<<<<<<<<<<<<<<<<<<<<<<<<<<<<<<<<<<<<<<<<<<<<<<<<<<,3=X@@",
"+@X*1,<<<<<<<<<<<<<<<<<<<<<<<<<<<<<<<<<<<<<<<<<<<<<<<<<<<<,3=X@@",
"+@X*3,1,<<<<<<<<<<<<<<<<<<<<<<<<<<<<<<<<<<<<<<<<<<<<<<<<<<,3=X@@",
"+@X*3,,,<<<<<<<<<<<<<<<<<<<<<<<<<<<<<<<<<<<<<<<<<<<<<<<<<<,3=X@@",
"+@X*3,,1<<<<<<<<<<<<<<<<<<<<<<<<<<<<<<<<<<<<<<<<<<<<<<<<<<,3=X@@",
"@@.=3,<<<<<<<<<<<<<<<<<<<<<<<<<<<<<<<<<<<<<<<<<<<<<<<<<<<<,3=X@@",
"O@.=3,<<<<<<<<<<<<<<<<<<<<<<<<<<<<<<<<<<<<<<<<<<<<<<<<<<<<,3=X@@",
"@@.=3,<<<<<<<<<<<<<<<<<<<<<<<<<<<<<<<<<<<<<<<<<<<<<<<<<<<<,3=X@@",
"@@@-3,<<<<<<<<<<<<<<<<<<<<<<<<<<<<<<<<<<<<<<<<<<<<<<<<<<<<,3=X@@",
"@@O*3,<<<<<<<<<<<<<<<<<<<<<<<<<<<<<<<<<<<<<<<<<<<<<<<<<<<<,3=X@@",
"@@o*3,<<<<<<<<<<<<<<<<<<<<<<<<<<<<<<<<<<<<<<<<<<<<<<<<<<<<,3=X@@",
"@@.*3,<<<<<<<<<<<<<<<<<<<<<<<<<<<<<<<<<<<<<<<<<<<<<<<<<<<<,3=X@@",
"@Oo*3,<<<<<<<<<<<<<<<<<<<<<<<<<<<<<<<<<<<<<<<<<<<<<<<<<<<<,3=X@@",
"@@X*4>,,<<<<<<<<<<<<<<<<<<<<<<<<<<<<<<<<<<<<<<<<<<<<<<<<<<,3=X@@",
"@@X*1<,1<<<<<<<<<<<<<<<<<<<<<<<<<<<<<<<<<<<<<<<<<<<<<<<<<<,3=X@@",
"+@o*4,,1<<<<<<<<<<<<<<<<<<<<<<<<<<<<<<<<<<<<<<<<<<<<<<<<<<,3=X@@",
"+@X*1,<<<<<<<<<<<<<<<<<<<<<<<<<<<<<<<<<<<<<<<<<<<<<<<<<<<<,3=X@@",
"@@X*4,<<<<<<<<<<<<<<<<<<<<<<<<<<<<<<<<<<<<<<<<<<<<<<<<<<<<,3=X@@",
"@@X*1<<<<<<<<<<<<<<<<<<<<<<<<<<<<<<<<<<<<<<<<<<<<<<<<<<<<<,3=X@@",
"+@X*1,<<<<<<<<<<<<<<<<<<<<<<<<<<<<<<<<<<<<<<<<<<<<<<<<<<<<,3=X@@",
"+@X*4,<<<<<<<<<<<<<<<<<<<<<<<<<<<<<<<<<<<<<<<<<<<<<<<<<<<<,3=X@@",
"+@X*4,<<<<<<<<<<<<<<<<<<<<<<<<<<<<<<<<<<<<<<<<<<<<<<<<<<<<,3=X@@",
"+@X*1,<<<<<<<<<<<<<<<<<<<<<<<<<<<<<<<<<<<<<<<<<<<<<<<<<<<<,3=X@@",
"+@X*3<<<<<<<<<<<<<<<<<<<<<<<<<<<<<<<<<<<<<<<<<<<<<<<<<<<<<,3=X@@",
"+@X*1,<<<<<<<<<<<<<<<<<<<<<<<<<<<<<<<<<<<<<<<<<<<<<<<<<<<<,3=X@@",
"+@X*1<<<<<<<<<<<<<<<<<<<<<<<<<<<<<<<<<<<<<<<<<<<<<<<<<<<<<,3=X@@",
"+@X*4>1,<<<<<<<<<<<<<<<<<<<<<<<<<<<<<<<<<<<<<<<<<<<<<<<<<<,3=X@@",
"+@X*1,,,<<<<<<<<<<<<<<<<<<<<<<<<<<<<<<<<<<<<<<<<<<<<<<<<<<,3=X@@",
"+@X*4,,1<<<<<<<<<<<<<<<<<<<<<<<<<<<<<<<<<<<<<<<<<<<<<<<<<<,3=X@@",
"@@.=3,<<<<<<<<<<<<<<<<<<<<<<<<<<<<<<<<<<<<<<<<<<<<<<<<<<<<,3-.O@",
"@@X=3><<<<<<<<<<<<<<<<<<<<<<<<<<<<<3<<<<<<<<<<<<<<<<<<<<<<,3=O@@",
"@@X*1,><,,,,,,,,,,,,,,,,,,,,,,,,,,,,,,,,<>><,,,,,,,,,,,,,,,3=.@@",
"@@X:51111333333333333333333333333333333331113333333333313333-O@@",
"@@X$=&&&&=******&&&&&&&===&&&&&&&&==*&&&&&&&&&&&====&&&&====%OO@",
"@X@X........o ....   ...o.   .  ....o   ...   ......     ...oOO@",
"+@@@@@@@@@@@@@OO@@@@@@@@@@O@@@@@O@@@@@@@@@@@@@@@@@O@@@@@@@@@@O@@",
"@@@@@@@@@@@@@@@O@@@@@@@@@@@@@@@@@@@@@@@@@@@@@@@@@@@@@@@@@@@@@@@@"
};
