/* XPM */
static char *kenemy1712085559[] = {
/* columns rows colors chars-per-pixel */
"64 64 247 2 ",
"   c #020305",
".  c #0A0605",
"X  c #04060A",
"o  c #050A0E",
"O  c #0B0B0C",
"+  c #190B07",
"@  c #140D0C",
"#  c #04140F",
"$  c #1C120E",
"%  c #050D12",
"&  c #0A0E13",
"*  c #110E11",
"=  c #051115",
"-  c #0A1215",
";  c #0C1917",
":  c #04141B",
">  c #0B151B",
",  c #041A1D",
"<  c #0B1A1E",
"1  c #141213",
"2  c #1A1515",
"3  c #131B1D",
"4  c #260D03",
"5  c #28130A",
"6  c #381708",
"7  c #261916",
"8  c #351C14",
"9  c #1E201E",
"0  c #2B231E",
"q  c #39231B",
"w  c #0C1723",
"e  c #041B23",
"r  c #0B1B22",
"t  c #151B24",
"y  c #121C24",
"u  c #271F22",
"i  c #09232B",
"p  c #142126",
"a  c #18242A",
"s  c #192C33",
"d  c #112F39",
"f  c #282727",
"g  c #362926",
"h  c #2E2F33",
"j  c #393737",
"k  c #451A06",
"l  c #4D1C0B",
"z  c #59250C",
"x  c #482519",
"c  c #552618",
"v  c #562B18",
"b  c #682706",
"n  c #782D0D",
"m  c #692D13",
"M  c #6A321B",
"N  c #773517",
"B  c #462B27",
"V  c #562D28",
"C  c #47322D",
"Z  c #593429",
"A  c #493635",
"S  c #583B36",
"D  c #632C27",
"F  c #673628",
"G  c #783D28",
"H  c #663B34",
"J  c #733B33",
"K  c #5C4036",
"L  c #7D432A",
"P  c #684436",
"I  c #784637",
"U  c #113346",
"Y  c #273C47",
"T  c #353545",
"R  c #493A43",
"E  c #264758",
"W  c #364854",
"Q  c #33516A",
"!  c #2D5F70",
"~  c #574646",
"^  c #524E58",
"/  c #6E4E4C",
"(  c #77544A",
")  c #465868",
"_  c #505A6C",
"`  c #695B66",
"'  c #496677",
"]  c #5B6777",
"[  c #716C76",
"{  c #883109",
"}  c #83391B",
"|  c #973416",
" . c #873B26",
".. c #9A3C25",
"X. c #883F33",
"o. c #A43C27",
"O. c #A0421B",
"+. c #86462A",
"@. c #8F4D32",
"#. c #884A36",
"$. c #974936",
"%. c #95553B",
"&. c #AA4528",
"*. c #B44529",
"=. c #BA4B2D",
"-. c #A84836",
";. c #B44B33",
":. c #B84C36",
">. c #B15333",
",. c #B55639",
"<. c #BC523B",
"1. c #C55839",
"2. c #CA673C",
"3. c #AC3A52",
"4. c #964B44",
"5. c #865345",
"6. c #8F5349",
"7. c #995945",
"8. c #AA5945",
"9. c #B65747",
"0. c #B35352",
"q. c #8C6352",
"w. c #9B6555",
"e. c #A5654B",
"r. c #A76858",
"t. c #B56D57",
"y. c #907071",
"u. c #AB706B",
"i. c #AA7669",
"p. c #B57666",
"a. c #B47D72",
"s. c #C65A44",
"d. c #D25849",
"f. c #CB684A",
"g. c #D36947",
"h. c #D8754D",
"j. c #C76956",
"k. c #D66A5A",
"l. c #C3735D",
"z. c #D77858",
"x. c #E0744F",
"c. c #E36B5D",
"v. c #E5775B",
"b. c #D46B61",
"n. c #C97A64",
"m. c #DA7765",
"M. c #CC7575",
"N. c #EC756E",
"B. c #E67868",
"V. c #968176",
"C. c #A78576",
"Z. c #B38673",
"A. c #B7847A",
"S. c #E3825D",
"D. c #C38778",
"F. c #D68871",
"G. c #E7846A",
"H. c #F08B73",
"J. c #F7957A",
"K. c #476A83",
"L. c #54768C",
"P. c #6C7185",
"I. c #987C85",
"U. c #ED7881",
"Y. c #77848D",
"T. c #628EAB",
"R. c #938C94",
"E. c #BB8B86",
"W. c #BD8A85",
"Q. c #B79585",
"!. c #AB9490",
"~. c #B8A396",
"^. c #9292A8",
"/. c #AB9DA6",
"(. c #9FA2B3",
"). c #B0A9AE",
"_. c #C28884",
"`. c #C18E8A",
"'. c #C5968A",
"]. c #C2918D",
"[. c #D79486",
"{. c #C59492",
"}. c #CE9192",
"|. c #C99996",
" X c #CB9C9B",
".X c #FA9987",
"XX c #F09689",
"oX c #D1AE9A",
"OX c #DAA99A",
"+X c #FDA589",
"@X c #EBAD97",
"#X c #FAA998",
"$X c #F9B697",
"%X c #CE9FA1",
"&X c #CEA0A1",
"*X c #C3AEA3",
"=X c #D1A3A5",
"-X c #D4A6AA",
";X c #D6A9AD",
":X c #D8AAAE",
">X c #C6B5AA",
",X c #D2BAAE",
"<X c #D7AEB2",
"1X c #DAAEB3",
"2X c #DAB2B5",
"3X c #DEB3BA",
"4X c #ECB5A5",
"5X c #FBB6A6",
"6X c #E1B6BC",
"7X c #FCBBB2",
"8X c #DBC5B2",
"9X c #FBC3AA",
"0X c #E5C4B5",
"qX c #EBCEB8",
"wX c #FCC9B7",
"eX c #F8D3BE",
"rX c #BABCD5",
"tX c #C8BDC3",
"yX c #E5BAC4",
"uX c #E5BCC6",
"iX c #E8BEC9",
"pX c #D5CDDB",
"aX c #E7CAC6",
"sX c #EAC1CD",
"dX c #ECD4C8",
"fX c #FADBC9",
"gX c #EDC6D2",
"hX c #EEC8D5",
"jX c #F0C8D6",
"kX c #F3CDDC",
"lX c #FAD6D8",
"zX c #F9E1CD",
"xX c #FBE7D7",
"cX c #F6CFE0",
"vX c #F8CFE1",
"bX c #F7D2E3",
"nX c #F9D4E5",
"mX c #F9D8E7",
"MX c #FCD6E9",
"NX c #FDDAEC",
"BX c #FFDEF1",
"VX c #F0E8E2",
"CX c #FDF2E7",
"ZX c #FFE1F4",
"AX c #FFE4FA",
"SX c #FFE9FE",
"DX c #FEFCF6",
/* pixels */
"bXnXnXnXvXvXMXvXvXnXMXbXnXMXvXvXbXnXbXnXMXvXbXNX`.N #.C.).*XC.>XL N #.;XNXbXmXnXnXnXnXnXmXmXnXnXNXmXnXnXnXnXnXnXnXnXnXnXnXbXbXMX",
"bXbXvXvXvXMXvXnXvXvXnXnXnXnXMXvXMXvXMXvXnXvXNXE.N ~.VXDXDXDXDXDXaX,XC.n &XZXkXmXmXnXmXnXbXmXnXMXnXnXnXnXnXnXnXnXnXnXnXnXnXbXbXMX",
"MXnXvXvXvXnXMXvXMXvXnXnXMXnXvXMXvXbXvXNX-XkX;XN tXCXzXzXzXzXxXCXCXCXDX~.N <XAXmXnXnXMX1XhXBXbXnXnXnXnXnXnXnXnXnXnXnXnXnXbXMXMXbX",
"vXnXvXnXvXMXvXnXMXvXnXMXnXMXnXvXMXbXvXNX:X;X$.V.VXzXCXdXzXqXqXqXxXDXCXDXQ.n A.nXMXMXgX{.mXnXbXnXnXnXnXnXMXnXnXnXnXnXMXnXbXnXbXMX",
"vXnXMXvXnXvXvXnXvXMXvXvXvXvXvXnXnXbXMXMXCXw.I dXdXzX~.~.8XV.~.VXxXdXxXCXDX>X+.@.iXBX:X1XNXnXnXNXnXnXnXnXnXbXMXbXnXnXbXbXbXMXbXnX",
"vXMXbXvXvXvXMXnXnXvXMXvXvXMXMXbXnXnXvXvXbX@.Z.qXqX!.( ).` ^ >X~.[ 0 P D.4XDXVXw.@.kX`.vXMXnXnXnXnXMXnXnXnXnXnXnXnXnXnXMXMXbXnXnX",
"vXnXvXvXnXvXMXnXvXvXvXMXMXvXvXvXnXbXbXNXyX+.oX8X8XC.V.!.9 [ /.` R.Y [ *XoXOXDXVX+.W.:XNXnXnXnXnXnXnXnXbXnXnXnXbXnXnXnXnXbXnXMXnX",
"MXvXvXMXvXnXnXnXvXnXNXMXvXvXMXnXbXbXbXAXE.%.>X~.8X[ ).[ j /.V.^.] R.).Q ' R.qXDXq.%.gXNXnXnXnXnXnXbXnXbXnXNXnXnXbXnXnXnXnXbXMXbX",
"nXnXnXvXnXvXnXvXnXNX1XjXMXvXnXnXnXnXvXBXu.#.[ P.tX` y.^.P.^ R /.R.(.[ Q U U R.CXC.6.NXmXnXnXNXnXnXbXnXvXnX1XvXnXnXnXmXnXnXnXnXnX",
"nXvXnXnXnXnXnXnXbXMXgX{.vXnXvXnXnXnXvXBX:X+.f P.tXP.P.rXrX^.^.pXpXY._ ^.P.Q Y uX8X+.iXNXnXbXnXbXnXMXbXNX:X1XMXbXnXnXnXnXnXnXnXnX",
"vXvXvXnXvXnXMXnXnXnXNXiX{.vXMXnXbXNX XyXZXe.g P.` ^ ` y.y.M._.}.I.` _ [ (.P.) ~.dXL 2XNXbX{.jXMXnXnXBX<X;XMXnXMXMXMXnXnXnXMXnXnX",
"nXnXvXnXnXMXnXvXvXnXvXNXyX}.MXnXvXMXyX`.NXe.^ _ B r.N..X.XXX.X.X7X:Xy.A W (.P.^.Q.%.bXZX-X XBXbXvXBX1X%XNXbXnXnXnXnXnXnXmXnXnXnX",
"vXnXvXnXnXnXnXnXvXvXvXvXNXyX XnXbXvXBX X-X8.~ R [.l.7.t.B..X.X.X#XsXlXfXa.` ^.(.+.E.AXhXE.bXbXbXBX3X|.NXnXbXnXnXnXnXnXnXnXnXnXnX",
"nXnXnXvXvXnXvXnXnXnXnXnXvXBX1X=XNXbXbXbXu.N R _.n.X.H x $.B..XH.s.,.b.4XlXI.[ R.+.jXBX{.6XNXvXBXyX].MXMXnXnXnXnXnXbXnXMXbXnXnXnX",
"MXvXMXvXnXnXvXnXnXnXnXnXvXnXBX=X-XBXnXgX .4.E.[.t.X.y.R D ,..XB.4.P V k.7XwX!.` +.nXyX{.NXvXNXiX{.vXMXvXnXnXnXnXbXnXbXnXnXnXnXbX",
"vXMXnXvXvXMXnXnXnXnXvXMXNXvXvXBX X<XAXiXN -.}.[.m.b.u.0.4.9.5Xm.0.I.` 9.+XwX4XI.+.{.].hXMXNXgX`.kXNXbXnXNXnXnXMXnXnXnXnXmXMXnXnX",
"MXvXvXMXMXnXnXnXbXbXMX1XgXNXvXbXNX|.6XNX#. .M.XXH.N.v.c.g.B.wX#Xk.b.XX#X5X5XwX7X .7.3XNXMXkX{.gXMXvXNXbX-XkXMXmXnXnXvXnXMXnXnXnX",
"nXnXvXyXiXBXMXnXbXvXMXiX`.3XBXbXbXMX].yXu.n r.F.N.N.H.N.m..XsXwX5X.X5XwXwX7X@XXX} u.NXnXvX].iXNXbXBXgX`.:XMXmXnXbXbXBXvXuXvXnXnX",
"nXMXMXyX{.-XcXMXMXvXbXNXvX|. XMXMXMXvX{.r.} M.M.c.N.N.c.B.#XfX7X#X#X7X7XwX5XG.d.+.%XBXnX{.6XNXvXBX6X`.sXBXMXbXbXMXnX2X{.&XvXnXMX",
"nXvXnXBXvX1X].-XjXBXMXvXbXBX<X`.jXNXbXkXA.N t.B.c.N.N.c.0.B.5X}.N.#XwX7X5X@X$Xp.+.vXNX{.2XBXnXNX X|.bXNXbXbXBXMX3XE. XgXBXMXbXnX",
"bXnXnXbXnXBXnX:X].%XkXNXnXvXNXsX_.1XNXNXkX7. .k.v.B.c.k.3.0.N.b.N..X7X7X5X5XF.N |.AX{.;XBXNXgX`.:XBXMXvXBXMX1XA.`.gXNXNXbXMXnXnX",
"vXnXnXnXnXnXnXBXbX1XE.%XjXBXnXMXbX|. XnXAX{.n k.c.c.k.k.k.b.U.#X#X.X#X5X5X#X@.u.AX X%XBXBX3X`.iXBXbXBXNX1XA.`.iXBXMXvXnXbXMXbXnX",
"nXnXMXnXnXvXnXvXnXNXbX;XW.%XkXNXMXMX-X`.kXiXN s.c.k.0.0.b.N.XX:XH.XX.X#X#X4XL  X:X|.BXnX X|.vXNXNXMX1Xa.`.iXBXNXvXbXnXnXbXbXnXbX",
"nXnXnXnXnXnXnXBXnXvXvXBXbX<XW. XjXNXBXsX`.6Xw. .c.k.j.0.3.3.3.M.M.N..X#X#X{.R N {.BXjXE.-XNXBXNX<XA.`.gXBXMXvXbXNXMXnXnXMXbXMXbX",
"nXnXnXnXnXnXnXgXkXBXZXnXnXNXbX;XW. XjXAXcX Xw.N 9.k.m.m.M.N.U.#X7X.X.XJ.+XOX^ z |.yXE.yXAXbX2Xa.].iXBXMXnXNXBXnXiXcXvXbXnXMXnXnX",
"MXnXnXMXmXnXbXE.E.|.<XkXNXNXNXZXkX=XE. XcXAX3X#.N 9.b.b.j.b.b.N..X.XJ.H.J.wXP.h +.|.nXBX;XA.E.iXBXBXNXNXnX3X|.E.W.uXMXbXnXvXnXnX",
"bXbXMXnXnXmXnXBXkX<X XE.W.-XuXkXBXAXMX&Xa. XjX;XN } b.m.m.H.XX.X+XJ.m.G.J.7X/.Q M D.iXa.|.gXAXAXnXiX1X].a.{.<XuXMXNXvXbXnXvXnXvX",
"NXMXMXnXbXnXmXbXmXBXNXnXhX&XW.E.|.;Xa.7.@.N N +.N G 4.m.N.N.H.XXH.j.j.G.H.#X~.K.] F n @.a.6XyX|.{.].{.yXvXNXBXNXvXvXvXvXvXnXvXnX",
"iXjXbXBXNXBXBXNXMXnXmXMXNXZXNXbXW.N l j A h h 7 T g  .-.t.b.b.j.9.9.g.v.H.J.q.E E W g 8 6 b N } u.iXAXBXMXnXMXMXNXBXBXBXBXMXnXcX",
"<X<X-X-X-X&X&X<X3XgXkXbXbXkXmX2X+.A K.T.E , i s < y X.O.$...-.o.;.s.k.v.v.j.C s ) L.K.Q ! ' [ ^ v N r.yXvXkXjXyX:X%X{.].].{. X=X",
"NXnXkXhXgXsXgXiX3X:X&X&X&X&X X+.q E L.W = > a a > t J o.-.o.o.9.:.d.k.v.t.~ a ^ ] K.K.K.T.T.T.K.' W x N u.].{.%X:XyXiXiXiXiXjXkX",
"nXnXmXNXmXBXNXNXNXNXNXNXmXZX2XN $ o O % = % o - % - / o.9.o.o.;.s.d.h.9.q.0   o < y i d ) L.' Y.R.L.E 6 $.cXBXMXNXvXNXNXNXMXMXnX",
"nXbXNXmXmXmXNXNXNXmXNXBXmXAX;Xb $ > & O o o O 3 & 3 I o.1.o.o.o.s.1.d.#.g @ X X   X X X & Y ' ' ) ) d i k p.NXnXnXnXvXbXnXbXbXbX",
"mXmXmXmXmXmXmXkXhXsXiXuX3X<X8.k X & X % o & o s - 5 ( $.:.o.| o.o.1.s.4.7 o & X O - > > % o p Y d p   i W M -XjXjXlXMXvXbXMXbXbX",
"mXnXNXmXmXbX&XE.E.].Q.E.|. XN + X X . 1 & X 3 a X B 5.7.o.o.| o.:.:.0./ $ % & O - : = , - X X - $     3 ! K +.Q.`.{.jXMXvXvXnXvX",
"mXmXmXmXMXmXhXhXnXZXZXZXSX;Xm O X X O p ; o # - O B 5.0.3.o.-.;.:.s.a.B X = & & , e = , - * & > 7 -   o Y ^ N 3XbXiXkXvXnXbXnXMX",
"mXmXmXmXmXnXNXNXnXbXmXNXZXZ.k o X X & t o > - : g 5.I H t.<.:.:.g.p.r.7 X % % = w , % : r 7 0 w f f X X s _ M `.BXMXnXvXMXnXnXvX",
"nXbXnXmXbXnXNXmXBXZXkX3X;X+.6   . X o & o a 7 3 8 I 5.v / r.<.f.n.p.w.3 % % = = : e o i p 1 7 t A g g   < ' F '.BXnXnXvXbXnXMXnX",
"mXbXbXmXZXZXbXhX:XE.|.>X`.b *   X X & X ; = x 0 2 P w.8.c q.F.z.p.l./ % > % = = - e % < p * $ h g 0 0 1   Q ~ %.iXkXMXBXMXnXbXvX",
"mXBXZXkX1X=XQ.E.2XgXkXSX|.l %   O O - o < = Z C g A 6.B.8.G p.C.t.n.j = > % e : - , % o w - 5 h s 1 f ;   s _ m u.].|.=XiXNXNXMX",
"NX<XE.E.&X<XbXZXNXBXmXmXZ.6 X   X O 3 o - X C g q g #.z.h.e.!.y.n.t.p < % o e e - w % X < 1 x j s @ 2 u - - ) H p.BX6X&X|.A. XjX",
"mX3XsXbXBXZXmXbXmXmXNXBXe.6 X X X o = o % > 9 O Z 0 H f.g.F.).,XF.w.i < X % i e > , % % < * D C Y 2 A u f # Y ] G 1XAXBXbXjX3XgX",
"nXBXmXmXmXbXmXmXNXbX3X'.+.4 X X X X X 1 # 9 a @ L q g 2.f.2X~.!.F.( e , X = i r w - % o r & D V W 2 B g f 3 s ) D D.BXvXnXNXNXnX",
"mXmXmXmXmXbXmXmXkX X2X-Xb X   X X O * 7 . 0 a O 7.S q &.f.,XC.w.z.j , , o - e e : % % = p O D V A B ; a K 3 p Y B r.NXbXnXnXnXnX",
"NXmXmXmXmXmXmXmXbXhXSXW.k X . O   & 7 7 + 0 p # w.S $ O.2.Z.C.e.w.e e = = = < , , % o : a & x V C V g g S T > i f +.gXNXnXnXnXnX",
"mXmXmXmXmXZXBXmXmXmXnX7.4 X X X X 3 7 B 0 x 9 7 5.P F =.h.S.S.q./ : i = % = : = = % o : t & 8 D q H J Z J R ~ e Y v  XBXbXnXnXnX",
"mXmXmXmXbXmXmXmXnXZX=Xb 5         3 x L q x 7 x #.P @.2.h.S.H.%.f e i = = % % % - = % > t O @ V q B 4.H 5.S ( t d A e.MXbXnXMXnX",
"bXbXmXmXmXmXmXmXNXdXL #.~.A.V.'.P O F @.Z q q I I Z +.h.h.S.G.q.- , e = = = % o = = & > t 1 @ c V u 4.4.( a.A g = j #.cXMXMXnXnX",
"mXmXbXmXmXmXmXbXmXr.z w.$XJ.+XeX7XP v %.H x x e.L 8  .g.z.l.S.#.t e e = = % % o - > & < a @ O l D 2 5.4.V u.( V % U L 1XNXnXnXNX",
"mXmXbXmXnXnXmXAX|.z . . 6 k c 7.j.F z +.I q C 7.I 7 M 2.h.z.l.I f e r % % = % o & - - 3 s @ O x D 7 I b.#.H w.u @ d K a.ZXkXnXnX",
"mXMXmXmXmXnXmX&X+.l ~ ( A f #   .   k G F Z B 7.G @ N 2.h.h.r.( t : e % % = - X % & - p f 1 @ 7 X.B A b.j.( w.g & & q r.MXnXbXnX",
"mXbXbXMXbXNX3Xi.l P wXwX9X$XOXy.*   6 M x L J #.I O L >.<.e.%.P e > > % % = = o o X - a s $ 7 $ V / A u.D.r.e.P 3 o 5 +.sXnXbXnX",
"bXnXbXmXbXMXnXr.6 g r.F.z.F.+X[.2 X 6 z M &.-...$.G -.&.>.>.7.K e > : o o : - X X O & a p $ 7 6 8 P C i.oXp.w.7.A g ; z %XNXbXnX",
"nXmXmXbXmXmXbX%.8 o $ $ @ $ + . .   + z { O.=.*.=.:.,.>.$.,.>.j e : = % o = - X o & = r p $ 8 z m x g S OXfXD.A.e.g a 6 8.MXnXnX",
"nXMXmXmXbXmXbX$.6 y.oXZ.A.E.E.7   . . k b { O.1.;.>.;.O.O.&.@.h e - = % % = & X O O = w r 2 6 x D L Z 0 ( wXeXi.[.P h g G iXMXbX",
"MXbXmXbXnXMXmX6.k Z.+X+X+X.XXX0   . . 4 b { 1.1.1.<.>.&.| | L d w - = % % - & X % & & w > - 8 z M -.@.F 5 C.fX0XV.4XK B m =XNXcX",
"nXnXmXbXmXmXmX%.6 9 Z Z Z C 8 .   . . 4 { O.1.1.1.1.1.*.:.&.F i w w = & & * & & O - % > , = < c  .>.%.%.F K @XzX*X|.oX( L r.MXnX",
"mXnXmXmXlXmXmX7.6 # # 5     . + . . X 6 { O.1.1.1.=.=.1.1.g.S e y > = & & > * X - ; - > = : , 0 N -.$.8.>.Z 5.wXzXQ.0XQ.C.N sXmX",
"mXnXmXnXmXbXmXr.6 = q.J.p.C 5 5 . . X 4 n | *.1.1.*.=.1.f.f.f w e w - - * > > O - , ; i e ; = j OX4Xw.8.f.#.+.i.wXeXzX0XA.@.E.ZX",
"nXnXnXmXnXnXNXp.k p f e.J.n.l 5 + O X 4 b { *.1.*.*.*.*.<.$.t u h , e , w > w & p : = , e : j 0XfXxX/.A j.,.e.f.D.9XeXeXxXe.w.ZX",
"nXnXnXmXnXbXNX2XM k $ 2 #.X.b 8 + @   4 { | o.1.*.*.*.O.o...> u u : w w > w t t p # # = # f oXzXfX9X( R.0XF.f.J.J.$X9XeXzXOX+.0X",
"nXmXnXnXmXmXnXBX1Xr.N V 5. .c l 5 + O 4 { o.o.1.*.1.1.1.<.;.q : : w w w w t t t 3 # = , , Z.eX9X@Xw.oXxXxXeX[ [ oX$X$X9X9XzX%.u.",
"mXnXnXnXnXnXnXlXMXNX Xb F #.M l 8 5 . . } o.*.o.o.=.*.1.s.s.J : w : t t w t t t s # ; # f S.J.H.p.4XxXzXxX8XY E ' C.S.J.$XeXF.N ",
"nXnXmXmXmXnXmXnXnXbXNXW.b Z J c l 8 @   m | o.o.o.=.=.*.:.:.X.> w w t t t t t a a 3 # h q.G.x.t.oXfXfXzX,XK C.8X] W D.$X9XeXeX%."
};
