/* XPM */
static char *_51711898838[] = {
/* columns rows colors chars-per-pixel */
"64 64 245 2 ",
"   c #020305",
".  c #0B0402",
"X  c #04060A",
"o  c #0A0709",
"O  c #050A0E",
"+  c #0B0B0C",
"@  c #190B07",
"#  c #140D0C",
"$  c #1C120E",
"%  c #050D12",
"&  c #0A0E13",
"*  c #051115",
"=  c #0E1010",
"-  c #0A1215",
";  c #0C1917",
":  c #04141B",
">  c #0B151B",
",  c #041A1D",
"<  c #0B1A1E",
"1  c #141213",
"2  c #1A1515",
"3  c #131B1D",
"4  c #260C02",
"5  c #28130A",
"6  c #381708",
"7  c #231613",
"8  c #281B17",
"9  c #361C14",
"0  c #1E201E",
"q  c #2B231E",
"w  c #39231B",
"e  c #0A1623",
"r  c #041B23",
"t  c #0B1B22",
"y  c #151B24",
"u  c #121C24",
"i  c #271F22",
"p  c #09232B",
"a  c #142126",
"s  c #1C2527",
"d  c #15232A",
"f  c #19252C",
"g  c #192B33",
"h  c #112F39",
"j  c #2B2323",
"k  c #272828",
"l  c #362926",
"z  c #2C2F33",
"x  c #393736",
"c  c #451A06",
"v  c #4C1C0B",
"b  c #57250E",
"n  c #482519",
"m  c #552617",
"M  c #672707",
"N  c #782D0E",
"B  c #672C14",
"V  c #6A321A",
"C  c #743314",
"Z  c #79381B",
"A  c #462B27",
"S  c #562D28",
"D  c #47332D",
"F  c #593429",
"G  c #493636",
"H  c #593B36",
"J  c #632C27",
"K  c #673628",
"L  c #793D27",
"P  c #663B34",
"I  c #733B33",
"U  c #5C4136",
"Y  c #7D4329",
"T  c #684436",
"R  c #784637",
"E  c #113346",
"W  c #273C47",
"Q  c #353545",
"!  c #473B44",
"~  c #264759",
"^  c #364855",
"/  c #33516A",
"(  c #2D5F71",
")  c #584746",
"_  c #524E58",
"`  c #744843",
"'  c #77544A",
"]  c #6C5150",
"[  c #465868",
"{  c #505A6C",
"}  c #695B66",
"|  c #45606F",
" . c #4A6779",
".. c #5B6777",
"X. c #6D6873",
"o. c #79737C",
"O. c #883109",
"+. c #942E16",
"@. c #823719",
"#. c #983916",
"$. c #863B27",
"%. c #9A3C26",
"&. c #883F33",
"*. c #A43C27",
"=. c #9A401A",
"-. c #A4431B",
";. c #84452A",
":. c #88482C",
">. c #964828",
",. c #884A36",
"<. c #974936",
"1. c #8A523A",
"2. c #95553A",
"3. c #AA4528",
"4. c #B44529",
"5. c #BA4B2D",
"6. c #B6512D",
"7. c #A84836",
"8. c #B44B33",
"9. c #BB4C33",
"0. c #B44B39",
"q. c #AA543A",
"w. c #B55639",
"e. c #BC523B",
"r. c #C55839",
"t. c #CA673C",
"y. c #AC3A52",
"u. c #864B42",
"i. c #964B44",
"p. c #865345",
"a. c #9A5946",
"s. c #9B5E53",
"d. c #A85A46",
"f. c #B65747",
"g. c #B35352",
"h. c #8B6354",
"j. c #9B6555",
"k. c #A6664B",
"l. c #A76857",
"z. c #B56D57",
"x. c #907071",
"c. c #AB706B",
"v. c #AA7769",
"b. c #B57666",
"n. c #B57E73",
"m. c #C65A45",
"M. c #D15848",
"N. c #CB684A",
"B. c #D36947",
"V. c #D8754D",
"C. c #C76956",
"Z. c #D66A5A",
"A. c #C3735D",
"S. c #D77858",
"D. c #E0744F",
"F. c #E36B5D",
"G. c #E5775B",
"H. c #D46B61",
"J. c #C97A64",
"K. c #DA7765",
"L. c #CC7575",
"P. c #EC756E",
"I. c #E67868",
"U. c #968176",
"Y. c #A78576",
"T. c #B38673",
"R. c #B8847A",
"E. c #E3825D",
"W. c #DD8568",
"Q. c #C48777",
"!. c #CC8E73",
"~. c #DA8678",
"^. c #E7846A",
"/. c #ED8C71",
"(. c #F48876",
"). c #F7957A",
"_. c #476A84",
"`. c #54768C",
"'. c #6C7285",
"]. c #887B84",
"[. c #A87D87",
"{. c #ED7881",
"}. c #77848D",
"|. c #628EAB",
" X c #938C94",
".X c #B88984",
"XX c #B79585",
"oX c #AB9490",
"OX c #B8A396",
"+X c #9292A8",
"@X c #AB9DA6",
"#X c #9FA2B3",
"$X c #B0A9AE",
"%X c #C28B86",
"&X c #C4958C",
"*X c #D79486",
"=X c #CE9192",
"-X c #C99996",
";X c #FA9987",
":X c #F09589",
">X c #D1AE9A",
",X c #DAA99A",
"<X c #FDA589",
"1X c #EBAD97",
"2X c #FAA998",
"3X c #F9B697",
"4X c #D5A7A9",
"5X c #C6B5AA",
"6X c #D0B9AD",
"7X c #DBAEB3",
"8X c #DBB2B6",
"9X c #E8B6AD",
"0X c #FBB6A6",
"qX c #FDBBB2",
"wX c #DBC5B2",
"eX c #FBC3AA",
"rX c #E5C4B5",
"tX c #EBCEB8",
"yX c #FCCCB4",
"uX c #FCC7B8",
"iX c #F8D3BE",
"pX c #BABCD5",
"aX c #C8BDC3",
"sX c #E4B9C3",
"dX c #D5CDDB",
"fX c #EAC3CB",
"gX c #E6D5C8",
"hX c #FFD7CE",
"jX c #FADBC9",
"kX c #EEC7D4",
"lX c #F3CDDC",
"zX c #F9E1CD",
"xX c #FBE7D7",
"cX c #F7CFE1",
"vX c #F7D3E3",
"bX c #F9D4E5",
"nX c #F9D8E7",
"mX c #FBD6E9",
"MX c #FCDAEB",
"NX c #FFDDF1",
"BX c #F1E9E3",
"VX c #FDF2E7",
"CX c #FFE1F4",
"ZX c #FFE3F9",
"AX c #FEFCF7",
/* pixels */
"vXbXbXcXcXcXmXcXcXbXmXcXmXcXcXbXbXbXbXbXbXcXbXmX&XZ 1.Y.$X5XY.5XY C ,.4XNXvXbXbXbXbXbXbXbXnXbXmXnXbXbXbXbXbXbXbXbXbXvXbXbXbXbXbX",
"vXbXbXcXbXbXbXcXbXcXmXcXbXbXcXbXbXbXcXbXbXbXNXR.Z OXBXAXAXAXAXAXgX6XY.C 4XNXvXbXbXbXnXbXbXnXbXnXnXbXbXbXbXbXbXbXbXbXbXbXbXcXbXmX",
"bXbXcXcXcXcXbXbXmXcXmXmXmXbXmXbXcXbXbXcXcXmX4XC wXVXgXzXzXzXxXVXVXVXAXOXC 7XZXbXbXmXbXmXnXbXbXbXbXbXmXbXbXbXbXbXbXbXmXbXbXbXbXbX",
"bXbXcXbXbXbXbXbXcXbXbXbXbXmXcXbXbXcXbXbXmXbX,.Y.BXgXVXzXzXtXtXiXxXVXVXAXR.C R.bXMXvXbXmXvXbXbXbXbXbXbXbXbXbXbXbXbXbXbXbXbXbXbXmX",
"bXcXcXbXcXbXbXbXmXcXmXcXcXcXcXmXbXbXbXbXZX-XY gXgXxX>XOXwXU.OXxXBXtXxXAXAX6XY 1.fXMXvXbXbXbXbXmXbXbXbXbXvXbXbXbXvXbXvXbXbXbXbXbX",
"bXbXbXbXcXcXbXbXbXmXcXcXcXmXbXbXvXbXbXcXnX2.Y.tXtXoX] OX] _ $XOXU.q T R.rXAXBXk.1.kXmXvXmXbXbXbXbXmXvXbXbXbXbXbXbXbXbXbXbXbXbXbX",
"bXbXcXcXbXcXbXbXcXcXcXmXcXbXcXcXvXvXbXMXsXY >XwXwXY.U.oX3 X.@X} }.W '.OX-X9XAXBXY 7XmXbXbXbXbXbXbXbXvXvXbXmXbXvXbXbXbXbXbXbXbXbX",
"bXcXcXbXcXbXbXbXmXcXcXmXmXcXbXmXbXbXcXCXXXa.5XOXwXo.#Xo.Q @X X X}  X$X[  .U.tXAX2.R.CXbXbXmXmXbXbXvXvXvXbXbXbXvXbXbXbXbXbXbXbXbX",
"cXmXbXbXbXcXbXbXcXmXbXcXbXcXmXmXbXbXcXNXc.1.o.'.aXX.].[.'._ ! @X X#X'.~ E E  XVXY.a.MXnXbXbXmXbXbXbXbXbXbXbXbXbXvXbXbXmXbXbXbXbX",
"mXcXcXbXbXbXbXcXbXbXmXcXcXbXmXcXbXbXcXmX7X;.k '.aX'.'.pXpX+X+XdXdX}...+X`./ W fXrXY sXMXbXbXmXcXbXbXbXcXbXbXmXbXbXbXbXmXbXvXbXbX",
"cXcXcXcXcXmXbXbXbXbXbXbXbXcXcXbXbXbXbXcXMXk.l '.{ _ ] ].s.[.%X=X[.} { ..#X'.[ OXgX;.8XNXvXmXbXbXbXbXbXbXbXcXbXmXmXnXbXbXbXmXbXbX",
"cXmXbXbXcXmXmXcXcXbXcXbXmXmXcXbXbXbXbXbXbXs.] [ A g.P.;X;X2X;X;XqX4Xc.! ^ #X'.+XXX1.bXMXbXmXbXvXbXbXbXbXbXbXbXbXbXbXbXcXbXbXbXbX",
"cXbXcXmXmXcXbXbXcXcXcXcXcXmXcXcXmXvXvXbXmX2.! _ *XA.d.z.I.).<X;X2XhXhXhX[.} +X#X:.%XZXvXvXbXbXbXbXvXbXbXbXbXbXcXbXcXbXbXbXvXbXvX",
"cXmXcXcXcXcXcXmXbXmXbXbXmXcXcXmXcXmXcXNX-XN ) %XJ.&.H n &.I.;X(.f.7.H.0XhXn.X.@X;.lXmXbXvXmXbXmXbXbXbXbXbXbXbXbXbXbXbXbXbXbXbXbX",
"mXbXmXcXbXbXcXbXbXmXbXbXcXbXmXbXbXvXmXkX$.a..X*Xg.&.x.! J f.<XI.i.P S C.qXuXoX_ :.lXbXbXmXvXvXcXbXbXbXbXbXbXmXbXbXbXcXbXmXbXbXbX",
"cXcXmXbXcXmXbXcXbXbXbXbXbXbXbXmXbXmXmXsXZ 7.=X*XK.H.b.g.i.f.0XK.g.[.} f.2XeX9X[.;.-XNXcXvXbXbXbXbXbXbXbXbXbXvXmXmXbXbXbXnXmXbXbX",
"mXcXbXbXcXbXcXmXbXbXbXbXbXbXmXbXmXbXmXlX2.$.L.:X(.P.I.F.B.I.uX2XH.H.:X2X0X0XuXqXO..XNXvXbXbXbXbXbXmXbXbXbXbXbXnXmXbXbXbXbXbXmXbX",
"cXmXbXbXmXcXbXbXbXcXbXbXbXbXbXbXbXvXbXmXl.N l.~.G.P.(.P.S.;XuXfX0X;X0XuXuXqX1X:X$.-XNXvXbXbXbXbXbXbXmXbXmXbXbXnXbXvXcXbXvXbXbXbX",
"bXmXcXbXmXbXbXbXbXcXbXbXbXbXbXbXbXmXlXNX.XO.L.L.F.P.P.F.I.2XhXqX2X2X0XqXuXeX^.M.,.7XNXbXbXvXbXvXbXbXbXbXbXnXbXvXvXvXvXbXbXbXbXbX",
"bXbXmXbXbXbXbXbXbXbXbXbXbXbXbXbXbXbXbXbXsX;.k.I.F.P.P.F.g.~.2X*XP.2XuXqX0X1X3XJ.Y lXbXbXbXbXbXbXbXbXmXbXbXbXmXbXvXbXbXbXbXbXbXbX",
"cXbXbXbXbXbXbXbXvXbXbXlXvXbXbXbXbXcXbXvXNXn.L Z.F.P.F.Z.*.g.P.H.P.;X0XqX0X2X*XC -XNXvXbXbXbXbXbXmXbXmXbXbXbXbXbXbXbXbXbXbXbXbXbX",
"bXbXbXbXbXbXbXbXbXbXbXbXvXbXbXbXbXbXvXvXNX-X@.Z.F.F.F.Z.H.H.{.2X2X;X2X0X0X0X,.c.MXbXvXbXbXbXbXbXbXbXbXbXbXbXbXbXbXbXbXbXbXbXbXbX",
"bXbXbXbXbXbXbXbXvXmXvXvXvXmXbXbXcXbXvXbXNX8XZ m.F.Z.C.g.H.L.{.4X:X(.;X2X2X1XR &XMXcXbXbXbXbXbXvXbXbXbXbXbXbXbXbXbXbXbXbXbXvXbXbX",
"bXbXbXbXbXbXbXmXbXbXvXbXbXbXbXbXcXbXmXbXMXmXp.%.H.F.C.g.y.y.y.{.L.P.2X2X2X&XG <.kXbXbXbXvXvXbXbXmXmXbXbXbXnXbXbXbXbXcXbXbXbXbXbX",
"bXbXbXbXvXbXvXmXbXbXbXbXbXbXbXbXbXbXbXbXvXMX-XC q.H.K.K.P.H.{.2X0X;X;X).<X,X_ b =XMXvXbXbXvXbXbXmXbXbXbXbXmXbXbXbXbXcXbXbXbXbXbX",
"mXbXbXmXnXnXbXvXbXbXnXnXmXbXbXbXbXbXbXmXbXnXNXl.C m.H.H.C.Z.H.:X;X;X).(.;XyX'.z :.lXMXmXbXcXbXbXbXbXbXbXbXcXcXcXcXcXbXbXbXcXmXbX",
"bXmXmXbXbXMXnXbXnXnXbXnXmXbXnXbXbXbXMXcXlXkXkX8XZ %.H.K.I.I.:X;X;X).K.^.).0X@X/ V R.cXlXMXNXbXbXvXvXbXbXcXbXmXvXbXbXcXcXbXcXcXbX",
"bXcXbXmXvXnXnXnXbXvXnXnXbXbXbXvXMXlXR.<.<.,.;.;.Z K i.K.~.P.(.:X).z.N.I.).2XOX_...L :.a.b.7XbXMXNXMXbXbXbXbXbXvXmXbXbXbXbXbXcXbX",
"bXmXbXbXbXbXbXbXbXbXbXnXnXbXvXNX8X<.b x x k k i x k $.7.C.H.H.C.f.0.B.G./.).h.~ / ^ q 7 6 V :.j..XsXmXmXbXmXmXmXbXcXbXmXbXbXbXbX",
"vXbXbXbXbXbXbXnXbXbXbXnXnXbXMX7XZ D _.|.^ r p g e a &.%.&.%.7.7.0.m.Z.G.G.C.D g _ `. .( ( | } ) b Z l.sXMXbXbXbXbXbXbXbXbXbXbXbX",
"bXbXbXvXbXbXbXbXbXbXbXnXnXMXkX,.q ~ `.^ : : f f > d I >.0.*.*.0.f.M.Z.G.z.) y _  ._._._.|.|.|._. .^ m Z 8XmXcXbXbXcXbXcXcXbXcXbX",
"mXvXnXnXMXMXbXbXbXmXbXMXvXNXsXC $ + + O * * O - % - R *.f.*.*.0.m.M.V.f.h.j   O < e h p / }.| }. X`.~ w >.kXmXbXbXbXbXbXbXbXbXbX",
"nXvXnXnXnXnXMXbXbXnXnXnXvXCX4XM $ > & + O * + 3 - < R *.M.*.+.4.r.r.M.,.l o o X   X X O & W |  .[ | h r c b.MXbXvXbXbXbXbXvXbXvX",
"bXnXmXnXnXMXnXbXbXnXvXnXvXMXc.c O o % O O O = g ; 8 ` 7.0.*.+.*.9.r.f.a.8 o & o O - - > % O f W h a   d ^ C 8XMXcXbXbXbXbXbXbXvX",
"nXnXnXMXnXnXvXbXnXbXnXnXMXkXZ 4 X o X 1 + O < s X A p.i.*.*.+.*.*.0.g.` # * & O * > : , > X   & 2     < ( U k.nXbXbXcXcXbXcXcXbX",
"vXnXMXnXnXvXnXbXbXMXnXvXMX4XM O X X + a - O - * + A u.s.g.*.4.8.0.M.n.A X > & & > r * , > # & ; j + X + E _ C 8XmXvXbXcXcXbXbXbX",
"nXbXmXvXnXvXnXnXnXnXnXbXNXR.c X o X & y & - - * l p.T I b.e.8.w.N.b.j.8 X & % * r r % , < 2 q y q k o   g { V &XNXcXbXcXbXbXbXbX",
"nXbXnXMXnXnXnXnXnXnXnXnXlXa.6 X X X O % O s 2 0 9 R p.m ` l.e.N.A.b.l.; % % % * > r O t a 2 8 y D l l   a | F &XNXcXbXbXbXbXbXbX",
"mXvXvXMXnXMXnXnXnXnXnXCX7XM & X O X & X > * n j 7 T j.d.m h.W.K.b.A.' % - * : % > : O t a 1 $ f k 8 k 1   / ) a.bXbXbXbXbXmXbXcX",
"MXMXvXnXnXnXnXnXnXnXvXNX&Xv O   o o - O < % F D l G p.^.f.K v.Y.b.K.x : > % e : : : % O t 1 9 z g 1 j 3 X g { C 7XmXcXbXbXbXcXbX",
"nXvXnXnXvXnXnXnXnXnXnXMXT.c X   X + e o > X D l n l ,.Z.V.k..Xx.S.z.d ; - O r , > e % O < & n x W & 2 i ; ; / T c.mXbXmXbXvXbXvX",
"vXnXnXnXnXnXnXnXnXnXnXMXl.6 X X X % & O % ; 0 + F q P N.B.~.$X5XQ.s.p ; X O p r > : % O < # J D W 7 D 0 k = W } L 7XMXbXbXbXbXbX",
"nXvXnXnXMXvXnXMXnXvXnXvX2.4   X X O O 1 O 0 s = Y w w t.N.6XOXoXW.' p , X * p r : > % % t & J S x 2 l D j 3 g / K %XNXvXbXmXbXbX",
"MXnXnXMXMXvXnXnXvXbXNX6XM o   O X o = 7 o q k + a.H q 3.N.wXY.j.J.x , , O % p r : * O * d O J S G l * k U 3 a W n l.MXbXbXbXmXvX",
"nXnXMXnXMXMXMXnXnXvXCX%Xc X   X X * q 5 # q 0 = s.T $ >.t.T.T.j.l., r : O * < : : & O : f & n J G S l l H ! : p k ;.kXMXvXvXbXbX",
"nXnXnXnXnXMXMXMXnXnXnX2.4 X o   O 3 5 n 9 l a $ p.T K 6.t.E.W.j.` : p * * * : * : & O : a + 8 J w P I F I ! _ , ~ B -XNXbXbXbXbX",
"nXnXnXnXnXnXMXMXnXCX4XM 5     .   3 n Y w n q n R T >.t.E.E./.1.k r p * * * % * - & O > u + $ J w A i.P p.) ' 3 p G k.MXbXmXmXbX",
"vXnXnXnXvXnXnXvXMXlXZ ,.OXR.Y.&X) o T :.F w w R 1.F :.t.V.E.^.p., , r * * & O O * : % > a # + m S i i.i.` c.H l : x :.lXmXbXbXvX",
"nXvXnXvXbXmXvXvXnXl.v j.3X<X<XyXqXT B <.T w n k.R l $.t.S.S.E.1.s e r : & % % O - > & < s + o n J 2 u.i.S c.' G o E Y 7XMXbXbXbX",
"nXnXnXvXbXbXvXZX4XM . . c c b p.C.K n :.Y n A 2.L 8 C t.V.S.z.' k : e * * % & O % > & 3 k # # w J 8 ` H.u.P s.j # g U n.ZXcXbXbX",
"vXmXvXnXnXbXnXvXp.c ) ' G j %   .   v L K K A a.L # Z t.N.S.l.' t : t % % : * X % % - s g $ # 9 I A G C.A.R s.l & - w l.mXvXvXbX",
"nXnXvXnXnXbXNX&Xv T yXyXeX3X,XU.1   6 B n T I 1.I # L q.t.f.1.T e > : % % % * O o O - s g # $ 5 S R G n.Q.l.k.T 3 O 5 ;.fXmXvXvX",
"vXmXnXnXmXvXbXl.6 l z.!.S.W.:X*X2   6 b V 3.q.>.<.L <.3.q.q.a.U r > : % % * * X O O & y s $ 5 9 n P x v.,Xb.j.a.D z ; b -XNXbXbX",
"mXvXnXvXvXnXvX2.9 O $ ; # $ $ o o   @ b O.-.r.4.5.e.w.6.q.w.q.x r : % % O * ; X O & > u a $ 9 b m n l P ,XjXQ.R.k.l k 6 d.MXbXbX",
"vXvXMXnXvXvXvX1.6 x.*XT..X.X.X8   o . 6 M O.4.4.8.8.8.-.=.3.<.z r - % % % * & O O & % t t 1 9 m K $.F q ' yXiXv.*XP z l Z sXmXcX",
"mXvXvXvXnXMXnXa.6 T.<X<X<X<X:Xw   . . 4 M O.5.r.r.e.6.3.#.O.Y g e - * : % & + X O & & t > * 9 b K 3.1.K 5 Y.jXrXY.9XH D B 4XNXcX",
"bXbXnXvXnXbXmX2.6 q F F F D 9 . . o o 4 O.-.r.r.r.r.r.5.9.3.K p u : & > & & & o & - & > : : ; n L 8.<.1.K F 1XzX>XOX>X' Y j.MXbX",
"nXbXnXnXnXbXnXa.6 * = 5     . @ . o   6 O.-.r.r.r.5.5.r.m.B.H r u : % & & > & O - * * > : : , w @.q.<.d.q.F p.eXjXXXrX.XY.Z fXnX",
"nXvXnXbXbXvXMXl.6 * h.).J.A 5 5   o o 4 N #.4.r.r.4.5.9.r.N.j t u e : > > 1 1 & ; ; ; , , * * x ,X9Xj.d.N.1.:.T.uXiXjXrXR.:.&XMX",
"nXvXvXnXnXvXMXb.c p q k.).b.m 5 @ + o 4 M O.4.r.4.5.4.4.r.2.y j z , , < > > e & a : * , r , x rXjXxXOXG C.f.d.z.Q.yXiXiXxXk.l.ZX",
"cXmXnXvXnXvXnX7XC 6 2 2 ,.:.b 6 @ @ o 4 O.+.*.r.4.4.-.*.*.%.3 i i e e e e > e y 3 * * , ; k >XzXiXeXh.U.rXW.N.).).3XiXiXzX,X;.8X",
"bXmXbXbXbXnXvXVX7Xz.N S p.$.B v 5 @ O @ +.-.*.r.4.r.r.r.e.8.j * : e e e y y y y ; * * , ; T.yXyX3Xh.5XxXxXiXX.o.*X3X3X3XeXzX2.v.",
"mXbXmXbXbXbXbXvXMXMX-XB J ,.J n 9 5 o . N *.4.*.*.5.4.r.m.M.K % e > y u y y y y s ; ; ; s E.)./.v.9XxXjXxXwXW ~  .Y.E.).eXyX!.Z ",
"bXvXnXnXnXbXbXnXvXvXMX.XM K K m v 9 o . B %.*.*.*.4.r.4.0.0.&.y e e y y y y y f a ; ; z h.W.D.z.,XjXjXzX6XT U.wX../ !.3XeXiXyX2."
};
