/* XPM */
static char *_11711899721[] = {
/* columns rows colors chars-per-pixel */
"64 64 62 1 ",
"  c #722E0C",
". c #AE3164",
"X c #B73270",
"o c #BA3276",
"O c #C53385",
"+ c #C53486",
"@ c #C83788",
"# c #CA3A8A",
"$ c #CB3B8A",
"% c #CE3C8B",
"& c #CD3D8C",
"* c #CE3D8C",
"= c #D13F8E",
"- c #D0418E",
"; c #D3418F",
": c #D3428F",
"> c #D34290",
", c #D44390",
"< c #D44491",
"1 c #D64793",
"2 c #D74793",
"3 c #D74794",
"4 c #D84793",
"5 c #D74A95",
"6 c #D94893",
"7 c #D94894",
"8 c #DB4995",
"9 c #DC4B96",
"0 c #DB4C96",
"q c #DE4C97",
"w c #DE4E98",
"e c #DE5099",
"r c #E24F9A",
"t c #E3529B",
"y c #E5529B",
"u c #E3539D",
"i c #E4539C",
"p c #E4549C",
"a c #E5559D",
"s c #E7549E",
"d c #E8569F",
"f c #E858A0",
"g c #EA58A0",
"h c #EC5AA1",
"j c #EC5BA3",
"k c #EF5BA3",
"l c #EE5CA3",
"z c #F15CA3",
"x c #F35FA6",
"c c #F55FA6",
"v c #F060A6",
"b c #F260A6",
"n c #F661A7",
"m c #F662A8",
"M c #F962A8",
"N c #FB63AA",
"B c #FB64A9",
"V c #F966AB",
"C c #FC64AA",
"Z c #FD65AA",
"A c #FB67AC",
"S c #FD66AC",
/* pixels */
"                                                                ",
"                                                                ",
"                                                                ",
"   .oooooooooooooooooooooooooooooooooooooooooooooooooooooooo.   ",
"   XOOOOOOOOOOOOOOOOOOOOOOOOOOOOOOOOOOOOOOOOOOOOOOOOOOOOOOOOX   ",
"   XOOOOOOOOOOOOOOOOOOOOOOOOOOOOOOOOOOOOOOOOOOOOOOOOOOOOOOOOX   ",
"   XOOOOOOOOOOOOOOOOOOOOOOOOOOOOOOOOOOOOOOOOOOOOOOOOOOOOOOOOX   ",
"   XOOOOOOOOOOOOOOOOOOOOOOOOOOOOOOOOOOOOOOOOOOOOOOOOOOOOOOOOX   ",
"   XOOOOOOOOOOOOOOOOOOOOOOOOOOOOOOOOOOOOOOOOOOOOOOOOOOOOOOOOX   ",
"   XOOOOOOOOOOOOOOOOOOOOOOOOOOOOOOOOOOOOOOOOOOOOOOOOOOOOOOOOX   ",
"   XOOOOOOOOOOOOOOOOOOOOOOOOOOOOOOOOOOOOOOOOOOOOOOOOOOOOOOOOX   ",
"   XOOOOOOOOOOOOOOOOOOOOOOOOOOOOOOOOOOOOOOOOOOOOOOOOOOOOOOOOX   ",
"   XOOOOOOOOOOOOOOOOOOOOOOOOOOOOOOOOOOOOOOOOOOOOOOOOOOOOOOOOX   ",
"   XOOOOOOOOOOOOOOOOOOOOOOOOOOOOOOOOOOOOOOOOOOOOOOOOOOOOOOOOX   ",
"   XOOOOOOOOOOOOOOOOOOOOOOOOOOOOOOOOOOOOOOOOOOOOOOOOOOOOOOOOX   ",
"   XOOOOOOOOOOOOOOOOOOOOOOOOOOOOOOOOOOOOOOOOOOOOOOOOOOOOOOOOX   ",
"   XOOOOOOOOOOOOOOOOOOOOOOOOOOOOOOOOOOOOOOOOOOOOOOOOOOOOOOOOX   ",
"   XOOOOOOOOOOOOOOOOOOOOOOOOOOOOOOOOOOOOOOOOOOOOOOOOOOOOOOOOX   ",
"   XOOOOOOOOOOOOOOOOOOOOOOOOOOOOOOOOOOOOOOOOOOOOOOOOOOOOOOOOX   ",
"   XOOOOOOOOOOOOOOOOOOOOOOOOOOOOOOOOOOOOOOOOOOOOOOOOOOOOOOOOX   ",
"   XOOOOOOOOOOOOOOOOOOOOOOOOOOOOOOOOOOOOOOOOOOOOOOOOOOOOOOOOX   ",
"   XOOOOOOOOOOOOOOOOOOOOOOOOOOOOOOOOOOOOOOOOOOOOOOOOOOOOOOOOX   ",
"   XOOOOOOOOOOOOOOOOOOOOOOOOOOOOOOOOOOOOOOOOOOOOOOOOOOOOOOOOX   ",
"   XOOOOOOOOOOOOOOOOOOOOOOOOOOOOOOOOOOOOOOOOOOOOOOOOOOOOOOOOX   ",
"   XOOOOOOOOOOOOOOOOOOOOOOOOOOOOOO++OOOOOOOOOOOOOOOOOOOOOOOOX   ",
"   XOOOOOOOOOOOOOOOOOOOOOOOOOOOOOOOOOOOOOOOOOOOOOOOOOOOOOOOOX   ",
"   XOOOOOOOOOOOOOOOOOOOOOOOOOOOO%8x-OOOOOOOOOOOOOOOOOOOOOOOOX   ",
"   XOOOOOOOOOOOOOOOOOOOOOOe#O@q2xj1wOOO,9OOOOOOOOOOOOOOOOOOOX   ",
"   XOOOOOOOOOOOOOOOOOOOOOOt-O0uaft>uOOOuyagd%OOOOOOOOOOOOOOOX   ",
"   XOOOOOOOOOOOOOOOOOOOOOO92O0adl6#+O#9a;r2CyOOOOOOOOOOOOOOOX   ",
"   XOOOOOOOOOOOOOOOOOOOOOO4wOuf9#+O&4a,4-N-NcOOOOOOOOOOOOOOOX   ",
"   XOOOOOOOOOOOOOOOOOOOOOO,tOO+#=ycfy;C=9c9xN%OOOOOOOOOOOOOOX   ",
"   XOOOOOOOOOOOOOOO+O#1#O+O+++6ewtzc6-C4dyNNc-OOOOOOOOOOOOOOX   ",
"   XOOOOOOOOOOOOOOO-8a8S8+8ttx2mwtrC=y4&aNC9OOOOOOOOOOOOOOOOX   ",
"   XOOOOOOOOOOOOOOO<rB4mea66j2=Cat-a=zr9cC1OOOOOOOOOOOOOOOOOX   ",
"   XOOOOOOOOOOOOOOO<2ua,l%dpC;6a8NcfNCajCjOOOOOOOOOOOOOOOOOOX   ",
"   XOOOOOOOOOOOOOO#e#&n-2j44CqndCCN=-,#@%OOOOOOOOOOOOOOOOOOOX   ",
"   XOOOOOOOOOOOOOO2qwt2>wf88CCNNr2OOOOOOOOOOOOOOOOOOOOOOOOOOX   ",
"   XOOOOOOOOOOOOOO5899n,tyBCcj#@OOOOOOOOOOOOOOOOOOOOOOOOOOOOX   ",
"   XOOOOOOOOOOOOOO<54dSnjna9OOOOOOOOOOOOOOOOOOOOOOOOOOOOOOOOX   ",
"   XOOOOOOOOOOOOOO#qlvvtO@OOOOOOOOOOOOOOOOOOOOOOOOOOOOOOOOOOX   ",
"   XOOOOOOOOOOOOOOOO++OOOOOOOOOOOOOOOOOOOOOOOOOOOOOOOOOOOOOOX   ",
"   XOOOOOOOOOOOOOOOOOOOOOOOOOOOOOOOOOOOOOOOOOOOOOOOOOOOOOOOOX   ",
"   XOOOOOOOOOOOOOOOOOOOOOOOOOOOOOOOOOOOOOOOOOOOOOOOOOOOOOOOOX   ",
"   XOOOOOOOOOOOOOOOOOOOOOOOOOOOOOOOOOOOOOOOOOOOOOOOOOOOOOOOOX   ",
"   XOOOOOOOOOOOOOOOOOOOOOOOOOOOOOOOOOOOOOOOOOOOOOOOOOOOOOOOOX   ",
"   XOOOOOOOOOOOOOOOOOOOOOOOOOOOOOOOOOOOOOOOOOOOOOOOOOOOOOOOOX   ",
"   XOOOOOOOOOOOOOOOOOOOOOOOOOOOOOOOOOOOOOOOOOOOOOOOOOOOOOOOOX   ",
"   XOOOOOOOOOOOOOOOOOOOOOOOOOOOOOOOOOOOOOOOOOOOOOOOOOOOOOOOOX   ",
"   XOOOOOOOOOOOOOOOOOOOOOOOOOOOOOOOOOOOOOOOOOOOOOOOOOOOOOOOOX   ",
"   XOOOOOOOOOOOOOOOOOOOOOOOOOOOOOOOOOOOOOOOOOOOOOOOOOOOOOOOOX   ",
"   XOOOOOOOOOOOOOOOOOOOOOOOOOOOOOOOOOOOOOOOOOOOOOOOOOOOOOOOOX   ",
"   XOOOOOOOOOOOOOOOOOOOOOOOOOOOOOOOOOOOOOOOOOOOOOOOOOOOOOOOOX   ",
"   XOOOOOOOOOOOOOOOOOOOOOOOOOOOOOOOOOOOOOOOOOOOOOOOOOOOOOOOOX   ",
"   XOOOOOOOOOOOOOOOOOOOOOOOOOOOOOOOOOOOOOOOOOOOOOOOOOOOOOOOOX   ",
"   XOOOOOOOOOOOOOOOOOOOOOOOOOOOOOOOOOOOOOOOOOOOOOOOOOOOOOOOOX   ",
"   XOOOOOOOOOOOOOOOOOOOOOOOOOOOOOOOOOOOOOOOOOOOOOOOOOOOOOOOOX   ",
"   XOOOOOOOOOOOOOOOOOOOOOOOOOOOOOOOOOOOOOOOOOOOOOOOOOOOOOOOOX   ",
"   XOOOOOOOOOOOOOOOOOOOOOOOOOOOOOOOOOOOOOOOOOOOOOOOOOOOOOOOOX   ",
"   XOOOOOOOOOOOOOOOOOOOOOOOOOOOOOOOOOOOOOOOOOOOOOOOOOOOOOOOOX   ",
"   .oooooooooooooooooooooooooooooooooooooooooooooooooooooooo.   ",
"                                                                ",
"                                                                ",
"                                                                "
};
