/* XPM */
static char *_01711899722[] = {
/* columns rows colors chars-per-pixel */
"64 64 177 2 ",
"   c #3E160C",
".  c #3D190E",
"X  c #3E1D11",
"o  c #3E2114",
"O  c #43160C",
"+  c #48160C",
"@  c #441A0C",
"#  c #4A1A0C",
"$  c #431C10",
"%  c #52230F",
"&  c #432316",
"*  c #4C2415",
"=  c #45261A",
"-  c #4A271A",
";  c #462A1B",
":  c #4A2C1B",
">  c #532513",
",  c #592713",
"<  c #562C16",
"1  c #582C16",
"2  c #532C1A",
"3  c #5C2F19",
"4  c #4D311D",
"5  c #52331E",
"6  c #5D331C",
"7  c #5E381E",
"8  c #62351D",
"9  c #69361D",
"0  c #64381F",
"q  c #6C3B1F",
"w  c #70381E",
"e  c #4C2D22",
"r  c #532F21",
"t  c #463221",
"y  c #4C3421",
"u  c #4C3924",
"i  c #543522",
"p  c #5B3523",
"a  c #553923",
"s  c #5C3B24",
"d  c #553C29",
"f  c #5C3D29",
"g  c #633721",
"h  c #693620",
"j  c #643B23",
"k  c #6B3C24",
"l  c #633D2A",
"z  c #6C3F29",
"x  c #733E23",
"c  c #5E4126",
"v  c #5E4229",
"b  c #5D4831",
"n  c #644126",
"m  c #6C4126",
"M  c #64442B",
"N  c #6C432B",
"B  c #66492E",
"V  c #6B492E",
"C  c #744225",
"Z  c #7A4326",
"A  c #73452A",
"S  c #7B4529",
"D  c #75492D",
"F  c #7C4A2D",
"G  c #7E502F",
"H  c #634532",
"J  c #6A4431",
"K  c #664A31",
"L  c #6C4C33",
"P  c #664738",
"I  c #674939",
"U  c #6D4D3A",
"Y  c #724732",
"T  c #734D33",
"R  c #7C4D32",
"E  c #724E3A",
"W  c #7B4E3D",
"Q  c #6D5036",
"!  c #6E523A",
"~  c #735136",
"^  c #7D5134",
"/  c #74543A",
"(  c #7A543A",
")  c #76583D",
"_  c #7A593D",
"`  c #6C4F41",
"'  c #724F41",
"]  c #6F5240",
"[  c #755443",
"{  c #7A5643",
"}  c #765946",
"|  c #7C5B42",
" . c #76574A",
".. c #77584B",
"X. c #7C5B4A",
"o. c #7E6044",
"O. c #756559",
"+. c #7C685C",
"@. c #814728",
"#. c #824B2D",
"$. c #894D2D",
"%. c #85502F",
"&. c #8A512F",
"*. c #93552F",
"=. c #9D562E",
"-. c #834E31",
";. c #884F31",
":. c #814F3B",
">. c #835334",
",. c #8A5434",
"<. c #865836",
"1. c #8C5937",
"2. c #845539",
"3. c #8A5639",
"4. c #85593B",
"5. c #8C5A3A",
"6. c #925634",
"7. c #925937",
"8. c #9D5B33",
"9. c #925C3B",
"0. c #995E3C",
"q. c #A25C33",
"w. c #9A603C",
"e. c #A56036",
"r. c #A66139",
"t. c #AA633A",
"y. c #805640",
"u. c #835C43",
"i. c #8E5E41",
"p. c #825F4B",
"a. c #895F48",
"s. c #945E42",
"d. c #8E6141",
"f. c #84624E",
"g. c #8B644C",
"h. c #936243",
"j. c #9B6443",
"k. c #94654A",
"l. c #986748",
"z. c #96694E",
"x. c #99694C",
"c. c #8C6C5D",
"v. c #946C53",
"b. c #9D6E51",
"n. c #9E7056",
"m. c #94725C",
"M. c #9B755D",
"N. c #9F785F",
"B. c #A06741",
"V. c #A2724F",
"C. c #A27455",
"Z. c #AC7655",
"A. c #AC7956",
"S. c #A87759",
"D. c #AD7C5A",
"F. c #B27654",
"G. c #B07857",
"H. c #B27858",
"J. c #856F63",
"K. c #8A7763",
"L. c #8E7865",
"P. c #947461",
"I. c #9B7661",
"U. c #9D7A64",
"Y. c #A17D65",
"T. c #A47F68",
"R. c #95826E",
"E. c #99816E",
"W. c #9C8572",
"Q. c #9E8873",
"!. c #A58267",
"~. c #A6826A",
"^. c #AB846A",
"/. c #AF896C",
"(. c #B28C6E",
"). c #AC8972",
"_. c #B48E70",
/* pixels */
"W.c.U.I.m.M.M.Y.I.Y.T.T.Y.~.~.~.E./ N.Y.M.M.U.U.U.~.T.~.^.~.T.).J.O.K.Q.R.Q.Q.R.L.R.R.R.R.L.K.Q.K.~.!.P.U.M.m.m.m.U.U.E.U.m.E.+.",
" .h D S x C F F :.R <.>.^ >.5.5.~ . G ^ A R ^ Y ^ 4.>.,.7.%.3.k.H t K | _ o.o.) ) ! ) ! / / } f.l 3.^ D F A m N N R ^ ^ T A >.a ",
" .k F A x A F F #.^ <.<.^ >.5.h.Q @ F %.F D R F :.2.,.,.,.^ -.k.H t H _ _ ) ) ) ! / ! K / ) ! f.f >.F T <.A D A N D <.^ ~ D >.B ",
"X.m R D k D F F >.F %.>.>.<.1.h.R @ F F A C R D F 3.3.3.1.:.R k.H t v ) o._ ) / ! / ! ! / ) Q o.s A D F <.G D A V D <.G R L ^ L ",
"..z R R x R %.>.>.>.^ >.>.^ 3.h.T @ G F A D F D >.5.1.7.3.^ R k.I t v _ _ _ o.) ~ / ! ! / / K X.s D m F %.F ^ D R F <.^ T N F K ",
"..z R -.C -.>.>.<.>.^ ^ >.^ >.h.D @ F F A R R D >.,.3.5.3.2.R v.I 4 v ( _ _ _ ) ) Q Q L ) / L X.i A A F F G G D R G 4.( ( Y >.K ",
" .z R R D S :.,.,.>.^ ^ %.^ ^ h.D . F F F D ^ F >.3.>.3.3.( F k.I c v ) _ ) ~ _ / / K K ! Q T } i S S F F F F A R ^ 4.4.( Y >.L ",
"..z :.R D -.#.,.1.%.>.^ >.^ 2.h.D @ F F F ^ R R ^ >.>.2.4.2.R k.b c B ) ~ ) ) _ ~ / L B ~ Q L } f D F R F G %.A R R >.<.~ N ^ L ",
" .A R R S >.-.7.5.>.4.^ >.R 5.h.T # F -.D F R R >.-.:.2.2.4.2.k.b u K ! ) T Q ) ) ~ Q M ~ B K } c >.G G D F G A D >.4.4.T N >.K ",
"X.z ^ >.A -.#.3.9.F >.>.>.>.>.d.L @ F F D Y R ^ ^ R -.4.4.5.:.z.` t v ! ~ Q ) ( ) V L n ~ T L  .s >.%.%.F G >.m D R <.<.R M 3.K ",
"| m >.^ D #.#.3.,.F 4.<.4.>.^ h.~ # F F F D F D ^ R >.4.>.1.3.x.U 4 v ! ~ Q / ) ~ B B v L | L { i -.G G F F G A D >.>.^ Y M ^ K ",
"u.z #.F F #.>.7.5.%.4.1.5.,.^ d.T # -.F F D D F ^ F ^ >.1.4.1.l.! d v ) ~ ~ ( / ) B L b V | L } f R m F S F F C D %.4.4.~ V F K ",
"X.k #.F R -.>.7.7.,.5.<.,.1.F 9.E # F F D R Y F R ~ ^ 1.>.<.5.b.` d v / ~ L / _ ) B K K B ~ V X.f Y N D F >.F A R >.<.4.^ L >.P ",
"p.z #.-.-.%.,.1.9.<.<.5.>.>.^ 4.E @ S D R D R F F ^ 2.4.4.5.h.C. .s K ( ~ Q / ~ / V V L L ~ K } i A A A F #.D A G ^ 3.^ Y L -.U ",
"f.k #.R #.>.<.5.w.<.1.5.>.<.G >.W @ Z D R D D D ^ ^ 4.5.5.w.j.C.{ c K / R L ) / / T V B K ~ K { i m k A F #.F A G >.4.4.^ N F U ",
"f.m -.>.>.>.&.w.7.7.,.5.<.<.G >.( # x A D D D D ^ ^ 4.9.5.w.j.A.{ s ! / / K Q ) / T Q B K L M [ e m j S <.F D D >.4.5.5.y.R 4.{ ",
"f.k >.-.>.#.,.9.8.5.5.w.<.<.>.>.( # Z m C A A A Y R 3.7.4.,.j.S.{ c ~ _ / L ~ u.( Q K K K V M ! i N N R %.F A A %.<.<.^ ( D 5.o.",
"g.q %.>.R -.,.7.0.9.5.5.5.G >.5.( # C z A D k D ~ R >.4.^ ^ 3.D.[ s L ( | L ~ _ ) D / / ~ T I [ p Y N -.%.F F G %.<.<.<.D n <.} ",
"v.m >.,.>.%.>.9.w.0.w.<.4.G >.5._ # x z z D k V T R R R T ^ >.C.( f L ( { Q Q _ ( L ~ ) ! L M [ 4 A A #.F F D %.F <.<.( ^ V 4.[ ",
"v.m ,.,.>.<.,.7.w.9.<.<.<.D ^ 4.E # x C k D j D R R D R R ~ 3.n.{ d V / _ Q ~ | ( ~ ~ / U Q H ' r D F F A A F F G %.G Q K N w.{ ",
"v.z >.>.>.>.>.9.w.5.w.^ ^ A R 4.E # w k k A k D R Y R W ^ ~ >.M. .i K ( _ Q / | ) ~ V / L Q K ' p D A D A A F <.>.1.( b K A 1.{ ",
"M.m Y T >.3.-.7.w.w.w.<.<.R W 2./ # C x k m k Y Y D R 2.4.4.2.b.[ d B ( _ ~ ( d./ Q ~ / L V M / r D m N D C F >.F >.^ v b Y 5.| ",
"M.A l M 2.1.>.1.w.w.r.<.^ ~ ^ <._ # x k k N m D Y N T 4.4.i.4.n.' d Q ) / Q / d.~ L Q / L L M U r A z A D A G >.F G ^ K d j 3.X.",
"M.A >.R ;.1.#.1.w.w.j.1.C D R ^ 2.# k k h j h N N N R i.5.d.i.v.' a L ) ~ Q / | ) Q ~ / L / v ` e z h N A C F %.F >.2.~ v n >.} ",
"N.C ,.>.,.,.F 1.9.0.B.1.F C D R ( + x h 0 h k n m N 2.d.i.k.d.v. .a K U ( ~ ( ( ) ~ Q Q V Q B ] ; m m N A C F F A F >.~ M n 3.{ ",
"N.C >.3.,.3.,.5.6.0.B.6.F D T ^ ( + x x g j h j n N ^ 4.4.i.k.b.[ f L ) ( ) ( ) _ ~ ~ ) Q / B ] e D m h m F R A D >.^ ~ K N 5.{ ",
"S.D ,.,.,.3.;.7.7.9.0.,.#.D ~ ^ y.+ x h 8 j j j n V R :.>.2.h.C.[ i U / ~ ~ ~ ( ( ~ ~ ( D ( V / e N j k A F >.R F 2.R T n l 3.{ ",
"U.C 6.,.3.9.-.3.7.9.8.,.#.A D R W + x x 7 j k j N N D >.3.>.y.C.{ i K ~ ~ / ) 4.) ~ ~ / Q ~ N Q : l j m C R F F D >.^ T M j ,.[ ",
"Y.x ,.6.,.5.,.,.1.9.6.;.F D N T E + q 9 8 p j N N D A R >.F >.C.{ u Q ( ~ ( _ 4.( Q / ~ T _ n I ; N p m S F C D A R ^ ~ M g ,.{ ",
"Y.A ,.7.;.3.,.,.1.1.6.;.S 2.D R [ @ q k j 7 g N N D V R 4.2.W C./ c Q ~ T T _ f.( ~ ~ / ~ ( V I = n j C F Z C A D R ^ D M l 7.y.",
"Y.x -.3.$.,.,.;.,.,.6.@.-.S R D { + x z T j 5 j D D V m 4.<.( C.' d B ) Q ~ _ 4._ / ~ ~ L / N U & m k A #.F A A A F >.T n n 1.y.",
"~.x #.,.#.3.,.-.;.$.,.@.F A >.R 2.@ z z ^ ^ p z Y V D R 5.>.>.b.' i L ~ ~ ~ _ 4.( / / ~ Q ( K U : k k F #.F A m A R ^ ~ s N >.{ ",
"T.x -.6.,.7.#.#.#.$.,.@.Z S S -.2.+ q k j m ^ ^ _ l m >.h.,.>.x.( i K E ~ ~ ^ d._ ~ ( ~ Q ~ L E ; k A #.#.S k k A F ^ V j N 1.) ",
"~.x ;.3.;.3.-.#.@.$.,.@.Z S S #.y.@ q 0 j p L N ^ ^ V D >.5.>.s.W i M Y / R R _ ( ~ / ~ Q V L ! = h C F S C k 0 N R D N j N ,.| ",
"~.x @.,.,.,.-.-.#.;.;.#.Z x S ;.2.# x 0 p h m D m Y L ~ F d.:.u.E r n L ~ Q T ( ~ V ~ ~ T / V U & 0 C F S A k k m Y N N n k ,.u.",
"^.Z -.,.,.3.-.;.#.,.#.#.Z x S #.( # m s p h j N j N m ( ~ 4.u.^ U i B U ~ ~ ~ ( ~ ~ ~ L L ( m ( * C C Z C m j j m D D N N z >.u.",
"^.S &.,.;.5.;.;.#.,.#.$.Z x @.,.:.O p = p 8 j j k m Y 2.^ ( k.2.I a V L T L T _ Y L ~ V L ~ j [ 2 z x C C z j h j m D N j N ,.u.",
"^.S #.#.;.3.-.-.S ,.@.S Z x -.;.:.  p - i j j j m D D 4.R ^ u.x.I a M L V T T / L L L V V L M / * k k C k k j j n N N N j z ,.a.",
"/.Z F $.@.;.#.-.S ;.$.S #.x Z #.2.O h 5 7 j n j D R F 2.>.^ ^ x.Y y M V T V K ^ T V K M M E M E - k 9 k k k j j k N N M k z 1.a.",
"/.S Z #.#.-.S #.@.-.;.F -.Z Z $.:.O g s 7 k N z R R D 2.2.>.W l.L : M K L K B ! L M V n H E V E - z k z x k j j j n M j n A 1.g.",
"/.F #.-.$.-.#.#.F #.$.S #.#.F $.W O g j g j j N R ^ R 3.3.( :.l.J y B M B v V ~ V M M V J T c ~ = k k m m k k 7 j V l m j m 1.k.",
"_.#.#.$.-.-.S @.S #.#.@.@.#.,.&.R   h l j p N Y F >.>.i.4.4.:.j.l e c I B n n ~ Q B c B M E M ~ - h k m z V j 7 7 N V m p m &.n.",
"_.#.F #.#.#.S #.#.#.@.@.Z S ,.1.R   k g j 5 N A D R >.5.5.4.4.l.J t c M n B n T V n a f M L B E = k k C m 0 0 7 j n N N k z &.V.",
"(.#.F #.#.F S S #.%.@.#.C C -.,.W   l p 7 7 D A F -.R >.5.,.2.s.z : a M n N V V n c a j n M c E = k m m k 0 n j h N Y m j A 1.x.",
"_.#.x #.#.-.S S @.#.Z @.S k #.>.R   0 p 2 8 m m A R F 4.4.3.5.s.l y c f n M V V M c a B M n f U o j k k j j j s N N D A m j -.C.",
"_.#.S #.S x x S F #.Z Z F x Z #.Y   0 p < 7 z k z R -.5.5.>.3.l.J i B n n L V T B f a s l L B T = j g k h n j 6 k m N A j k $.V.",
").#.S x @.@.S S Z #.Z C S A C S R $ 7 5 6 g k h A >.R 3.5.R 2.j.z i H B V L M L n s s a f n c L X k 8 k 8 h p 7 j m N A h A *.V.",
"_.-.x x x S -.x Z #.S Z S #.-.-.Y $ g 5 7 j m j m F R R 5.>.4.s.l e H H n M n V n c a a j f s K o k 3 k m 0 8 7 j N A m p C w.A.",
"(.$.x x S S S A S #.S Z S -.;.-.R $ 8 p 7 8 k k m Y F A <.1.3.h.l 4 M M c M M N N f 5 s f f f V = h 8 j h 7 6 7 8 j m k 0 C 6.A.",
"/.-.Z C S #.S C S ;.#.Z Z S 2.>.^ @ 6 7 6 6 n h A R F D G <.4.s.l 4 a f f n m V M c p n p j s V o g 8 k 0 j 7 7 k k A k h k 7.D.",
"(.#.@.x Z Z C Z Z @.S x Z S #.-.R   g g < 6 h h m D D F #.F 5.s.p y v f s n l N n s 7 p f 7 i M o 0 6 h g j 7 j j k N m q Z =.!.",
"(.#.S C F S S Z S #.#.x x x S #.R O h g < 1 7 0 k C z C >.F :.s.p i B n s s n n n s p 7 p a s n & 9 6 l 6 j 7 h h k A m 0 x 8.F.",
"/.#.@.A Z Z Z C x #.#.x x x S ;.W + x g 3 3 0 8 k k k k F >.D 9.p i M l s s n N l j f p j p p L & 8 3 g 8 j 7 6 h k C m 0 C e.A.",
"/.&.@.C Z Z Z w S @.S Z S @.@.@.Y # h g 3 8 3 8 k z A C Z 2.:.9.r : n f n v n n d p p s f f 7 V & 3 g 0 0 p 6 6 8 z m m 8 C t.G.",
"_.&.#.w Z C w Z x #.@.S S @.@.@.R # x 8 8 3 8 3 9 A C A S R :.3.i y j f j s s l s 5 5 s s n n n $ < h 0 g 6 8 8 j k k m 8 S t.Z.",
"_.&.$.w Z Z S Z S @.x #.x S @.;.R > w 8 8 3 3 8 k C C A S D :.,.2 : n M n 7 s k f a 5 4 i f c L & 3 j 6 6 3 8 8 k k q k 6 w r.A.",
"(.,.@.x S Z Z Z S #.x @.S x ;.6.:.> x h 6 6 8 g C D A S S A R 5.2 = c s s 7 n f p a 5 5 5 a v V X 8 k 0 3 < 8 8 0 z k 9 3 w =.Z.",
"(.&.$.q A x S Z x @.@.-.$.$.;.6.3.> x 8 h 3 8 h C C C C F x k >.- = s s f s s p a p 5 7 7 a s D = h k g 3 3 8 8 0 h k g 8 x q.Z.",
"(.#.$.w C S S Z #.;.@.@.;.$.-.6.:., h 3 8 3 h g C C x S F A 0 ^ - : a 5 s j 7 a 5 5 a a i 5 7 ~ * k 9 h g 8 8 k 0 h g 0 8 x q.H.",
"(.$.#.q Z S S S S -.#.S ,.;.;.;.;.% 9 8 8 6 h 8 8 k k m D F q A & - s a s n a f 5 5 a 5 5 i 5 ^ : 9 k k h h 0 g 8 8 0 g 3 Z e.F.",
"(.;.@.q x S #.S S -.S Z ;.;.,.,.3.% 9 8 8 8 0 8 0 0 8 8 m S C A o ; s a s 5 a 7 a 4 5 5 4 i : l = k 0 k h x g 8 8 8 0 8 3 x q.F.",
"(.,.#.w x S S x S $.#.Z #.6.6.6.3.% 8 h 8 h 8 8 k m m 9 k A F F X ; c a s s c 5 5 4 a 5 4 4 4 M = k k k k x 0 8 8 8 8 g 0 @.q.F.",
"(.#.#.x S x S x S #.#.#.#.,.6.6.3., 8 3 7 k 8 0 k x Z C m q F ^ . ; a a s s a 5 4 4 4 a a 4 4 n & 0 k q x k 8 8 3 3 0 8 9 $.t.F.",
"(.#.$.Z S x x Z x #.@.;.#.-.,.6.9., 8 g 3 g k 8 k m A A D k A ~ X ; 4 a 5 s 5 4 4 4 a 5 4 4 : n = 0 k k z x h 8 9 8 0 8 9 $.=.F."
};
