/* XPM */
static char *_01711733664[] = {
/* columns rows colors chars-per-pixel */
"64 64 51 1 ",
"  c #DE1E87",
". c #DF1F88",
"X c #E01F88",
"o c #DE2087",
"O c #DF2189",
"+ c #DE2A8C",
"@ c #DD308F",
"# c #DE3391",
"$ c #DE3C95",
"% c #E02089",
"& c #E03994",
"* c #DF469A",
"= c #E0459A",
"- c #E24D9E",
"; c #E24FA0",
": c #E254A2",
"> c #E25CA5",
", c #E55FA9",
"< c #E462A9",
"1 c #E56DAD",
"2 c #E775B3",
"3 c #E876B4",
"4 c #E779B5",
"5 c #E979B6",
"6 c #E77EB8",
"7 c #E87FB8",
"8 c #E784BB",
"9 c #E983BA",
"0 c #E78CBD",
"q c #EA8ABE",
"w c #EB94C2",
"e c #EB9BC6",
"r c #ED9EC8",
"t c #EEA4CB",
"y c #EEAACE",
"u c #F0ACD0",
"i c #EFB4D4",
"p c #F2B5D5",
"a c #F3BDD9",
"s c #F4C4DC",
"d c #F5C8DE",
"f c #F7CDE2",
"g c #F7D4E4",
"h c #F9D4E5",
"j c #F9D8E7",
"k c #FAD7E8",
"l c #F7DDE8",
"z c #FAD9E8",
"x c #FCE3ED",
"c c #FCE7F0",
"v c #FDE9F1",
/* pixels */
"ghhfdhhhhhhhhhhhhhhhhhhhhhhhhhhhhhhhhhhhhkhhhzhzhhhhhhhghhhhffhh",
"hhhfhhhdhdhhhhhhhffhhhhdhhhhhhhhhhdhhhhkhhkhjhhzzhhkhhhghhhhhhhh",
"hhfhhhhhhdhhhhhfhhhfdhhhhhdhhhhhhhhhhkhhhkhkhhhhhhkhhhhhhhhhhhhh",
"hhhfdhhhhhhhhhhhhfhhhhhhdfhhhghhfhhhhhhhhhhhhhhhhhhhhhhhhhhhhhhh",
"dhhhhddhhfhffhfhhhhhzhgghhhhdhghhhhhhhhhhhhhhhhkhhhhhhhfhghhhhhh",
"hhhdhhhhhhhhhhhhhhfhhhhhhhhhhhhhhhhhhhhhhhhhhhhhhhhhhhhhhhhhhhhh",
"hhdhhhhhfhfhhfhffhfhhhhhhhdhhhhhhhhhhhhhhhhhhhhhhhhghhhhhhhhhhhh",
"fhhhdhhhdhhhhhhhhhhhhhhhhhhhhhhhhhkkhkhkhhhhhkhhhhfghhhhhhhhhhhh",
"hdhhhhhhhhhfhhhhhhhhhhhhhhhhhhhghhhhhhhhkhhkhkhhhhhhhhhhfhhhhhhh",
"hhhdhdhhhhhhhdhhhhfhhghhhhhhfhhhhhhhghhhhhhhhhhhhhhfhhhhhhhhhhhh",
"hdhhhhhhhhhhfhhhhhhfhhhhhhhhhhhhhhhhhhhhhhhhhhhhhhhhhhhkkhhhhhhh",
"hhhhdhhhhhdhhhfhhhhhhhfhhzlxxxxlxxxxxxllhhhhhhhhhhhhhfhhhhhhhhhh",
"hhhhhhhhdhhdhhfhhhhhghlclditw9879990eyagxxzhhhhfhfhhhhhhhhhhhhhh",
"dhhhdhhdhhhhhhfhhhghhzce&O..oX..XX    O@>zlhhhhhhhhhkhhfhhhhhhhh",
"hhhdhhhhhhhhhhhhhhhhhhx=OOOOOOO.XX%%oo%%%txhhhhhhhhhhhhhhhhhhhfh",
"dhhhhhdhhhhhhhhhzhhhhkl$OOO*q2OOX %oo%o%owxhkhhhhhhhhhhhhhhhhhhh",
"hhhhdhhhhhhhhhhhhhhhhhx=O%=gxxqo.OO%O%O%orxhhhhhhhhhhhhzhhhhhhhh",
"hhhhhhhhhfhhhhhhhhhhhhx>Oo1xhxsOO%%%OO.OOpxhhhhhhhhhhhhhhhghhhhh",
"hhhhhhhdhhhhhhhhhhhfhkx9O%-zxcwO%O%%.%%O+hlhhhhdhhhhhkhhggfhhhfh",
"hhhhhhkhhhfhfhhhhhhhhhxtO%O>t9@OO.%%OOoX*xkhhhhhhhkkhhhhhhhhhhhh",
"hhhhhhhhhhhhfhhhhhhhhhld+Ooo..o%XO%%O%Oo1vjhhhhhhhhhhhhhhhhhhhhh",
"dhhhhhhhhhhfhhhhhfhhhhzz&oO%.O%oO.%%%O%.qxghhhhhhhhhhhhhhhfhfhhh",
"hhhhhhhhghhhhhhhfhhhhhhx:.%o.o%.%O%%OO%Ouxhhhhghhhhhhhhhhhhhhfhh",
"hhhhhhhhhghhhhhhfhhhzhhv2..%o%%OXO%%%O%+dzhhhhhghhkhhhhhhhhhhhhh",
"khhhhhhhhhjjhhhhhhhhhhhxr%%%%o%%%OX%%o%=khhhhhhhhhhhhhhffhdhhhhh",
"hhhhkjhhhhhhhkhhhhhhhhflf&X%%%o%OOXXX. qxhhhhhhhhhhhhdhhhhhhhhhh",
"hhkhhhlhhjgjhhzhhhhhhhhhxdq1>::;-::><4txkhhhhhhhhkhhhhhhhhdhhdhd",
"hhkkhjjhhhjjhhhhhhhhhhhhhxxxytyjxattscxjhhhhhhhhhhhhhhhhhhhhhhhh",
"hhhkhhhhhhhhzhhjhhhhhhfhhhzk#X+fc2  9xhhhhhhhhhhhhdhhhhhhhhhhhhh",
"hhhhkhhhhhhhjjhhhhhhkhhhhhlk&%%dc2%%0xhhhhhhhhhfhhhhhhhhhfhhhhhh",
"hhhhhhjhhhhkzjhhhhhhhhhhhhhxe%@gv4%<kxhhhhhhfhhhhhhhhhfhhfhhhhdh",
"hkhkhhhhhkzjjhhhhkzhhhhhhhhkc:+dc4#dxhhfhhdfhhhhhhhhhhhhhhfhhhhh",
"ggzzjzkkkkhkjjkhhjhhhhhhhkkhv2Ofv5=xjhghhhhhhfhhhhhhhfhhfhhhhghg",
"kgzkjkkkggkhjjkfhjhkhhhhhhhzc:+fv5&dlkhhhhhhhhhhhhhhhhhhhhhhhhhd",
"jjkzjghhkkgjgjkgghkhhkhhgfhxi++fv3oqvkhhhhfhhhhhhhkhhhhhfhddhdhh",
"jjzzkjgghkkjjjjjhhhhkkzhhhgxtO+fv5o1chhhfhghhhhhhkhhhhghhhhhhhhh",
"ggzzjgkkkjjzjjjjzhjhhzhhkhhlx:Ofv3&dxhhhhkhhhhhhkhhhhhghhhhdhhhh",
"kgjjgzzzgjzzjjkjzzgzzzhzhhkzv8+fv2:xkhhhhhhhhhhhhhkhfhhhhhhhhhhh",
"kggkkkzgjzzjkkjjjkzjzhkhhhhhv0Ofv3:chhhkhhhhhhhhhhhhhhhhfhhhhhhd",
"kkjkzjkzjzjjjjjkzzjjhkhkhhhzv<Ofv3=hlhhhhkhhhhhhhhkhhhhfhhhhhhhh",
"kjzzgkzzzjjjkjjjhzghkkhhkhhxs%+fv3Owvhhhhhhhhhhhhfhhhhhgdhhhhhfh",
"gjzggzgjjkzkjkjzzzkghhhjhhhxp%+fv3.6vhhhhhhhhhhhhhhhhhhhhhhhhhhh",
"jjgjzzzzkgjjjzzzzzzzhhhkhzkll-+fv3#sxhhhhhhhfhhhhhhhhhhhhhhhhhhh",
"zzzzzgzzgjjjzzzzzzzzzhkhkzzjve+fv2<xzhkhhhhhhhhhhhhhhhhhhhhhhhhh",
"zzzzzzzzjjgzzjjjjzzzzzhhkkjjxp+fv23vhhhkhhkhkkhhhhhhhhhhhkhhhhhh",
"jjjzzzzzjjkkzjzjzzzzhzzghzjjxp+px<2vhhhzhhhhzhhhhhzhkkhhhhhhhhhh",
"gzzgjzzzzkjzjkjzjghghzjgkllkxuo&;O,chzhhkkhzhhhhkhhhkhhhhzhhhhhh",
"gjzjggjzjzzjkjkzzzjzzzzgkzklvqo%.%-xzhhzkkhhhhhhhhhhhhhhhkhhhhhh",
"ggkghzhjjjzhhzgzjjjkkhjkhjhjxy%%%%<vjhkjjjhkhhhhkhhkhhhzkhhhkhhh",
"zkgkhhzzjgzzzzzhjjjxjjjjhhhhzg$%%%uxhkhjkjhhhkkhhhhhzhhhzhhhhhhh",
"gkgzzgjjgkkhgzjgjjjljkkjkghkhc4oO-lljhhjjjhjkhhhhhhhhzhghgjhhfhh",
"kggkhjghgkghjzhzllhhjkjjhjkhgxh<:sxkkjjjzkhkkhhkzhhkhkhhhhjhhggh",
"ghhjgkhjzhhhzzglhhlhjhglhhhhhjxxlxlkjlhljjzzjhkhhhhhhhhhhhhhhhhh",
"hghggkhjzzjzhhhkljhljhghkhhhjjhzzkhkjhhjzjkjjjhkzhkjhzhhhhhhhhhh",
"kkkkghhhhhhhkjzhjjjjjjhhjkhhjhjhzzjzjjjhhhjkhjkhhhhhhhhhhhhhhhfh",
"hgjgzzhhhhhhhghzjjhjhjhhgghhkhjhzhhhhjhjhkkkhjhhhhhhjhhhfhhhhhhf",
"glhglglghhjhhjlhhhljhjhhhhjhhhhhhhhhkhhhhhhhhhhkjhhhhhhhhhhhhhhh",
"ghhlgggggghhhhjjhggggghgjhhjhhhhhhhzhhhhhhhhhhjjkjhhhhhhhfhhdhhh",
"hhgggglghhhjgjhjlhhhjghghhhhhhhhhkhhhhhhhghhhhhhhhhhhhhhhhhdhhhh",
"hgglggggjhhhjjghhhhhjggghhhhjhhhhhhhhhhhhhhhhhhhhhhhfhhhhhhhhhhh",
"hhhlgjghhhkkjghjhhhhhggghhhhhhjhhhhhgghhhhhhhhhhhhhhhhfhkhhhhhhh",
"hhhgjghhhghhhhhghghlhgghhhhhhhhhhhhhhhhghhhhhhhhhhhhhhhhhhhhhfhh",
"hhhhjhghhhhhhhghhhggghghhhhhhhhhhhhhkhgghhhhhhhfhghhhhhfhhhhhfhh",
"hghlhjhhggfhhgggghhgjhjhhhhhhhhhhghhhhhhhfhhhhhfhhhhhhhhhhhhhhhh"
};
