/* XPM */
static char *_01712000303[] = {
/* columns rows colors chars-per-pixel */
"64 64 51 1 ",
"  c #DB0C7D",
". c #DD1582",
"X c #DE1D86",
"o c #DF2289",
"O c #DE2E8F",
"+ c #E03291",
"@ c #E23D96",
"# c #E34B9E",
"$ c #E34FA0",
"% c #E556A4",
"& c #E55EA7",
"* c #E65EA8",
"= c #E664AB",
"- c #E76AAE",
"; c #E96FB0",
": c #E873B3",
"> c #EA7BB6",
", c #EB7EB9",
"< c #EC84BB",
"1 c #ED8BBF",
"2 c #F3AEBE",
"3 c #F4B0BF",
"4 c #ED95C4",
"5 c #EE99C6",
"6 c #F09EC9",
"7 c #F4AFC0",
"8 c #F4B3C1",
"9 c #F5B7C8",
"0 c #F5BAC9",
"q c #F2ACD0",
"w c #F3B5D5",
"e c #F4B9D7",
"r c #F4BDD9",
"t c #F7C5D5",
"y c #F8C6D6",
"u c #F7C8D7",
"i c #F7C7D9",
"p c #F8C6D8",
"a c #F7CADA",
"s c #F8CBDC",
"d c #F7CEE0",
"f c #F9CFE1",
"g c #F7D3E4",
"h c #F9D4E5",
"j c #F9D8E7",
"k c #FAD7E8",
"l c #F7D9E9",
"z c #FAD9E9",
"x c #FBDEF0",
"c c #FBE1EC",
"v c #FBE3F1",
/* pixels */
"ghhffhhffhhhhhfhhhhhhhhfkkkhhhhkhhhhhkhhhhhhghkkkkhhhhhghhhhhghh",
"ghffhhhfffhhhhfhhffhhhhhfhfhhhhhhhdhhhhhkhkhjhhkhhhhhhhhfhhhhshh",
"hhfhfhhhkfhhhhhhhhhffhffhfdhhkhhhhdhhhhhkkkkhhhhhhhhkhghhhhhhhhh",
"hhfffhhfhhhhhhhhhfhhkhhhhhdfdhhkhhhhhhhkhkhhhhhkhghhhhhhhkkhhhhh",
"fhhhfhhhfhhfhfhhhhhhzkggfkhfhhhhhhhhhhhhhhhfhhhkhhhhghhhhhhhhhhh",
"fhhfffhhhhhhfhkffhhfhhhgkfhffkhhhhhhhhhhhhhhhhkhhhhhhhhkhhfhhhhh",
"hhfhhfhhfffhfhffhhfhghhhhkfhkhhhhhhhkhhkhhhhkhhhhhhghhhshhhhhhhh",
"hffhfhhhfhhhkfkhfhhhhhhhhfhkkfhhhkhhhlhhhhhhhhhkhgfghhhhhhhhhhhh",
"fhhfhfhhhhhfhhhhhhghhghhfhhhhhhghhhhhhhkkkhkkhkhhhghhhhhhhhhhhhh",
"hfhhhhhfhkhhhhkkkkkkzhkkkkkkhkkkxzzkhhlzkkkkzkkkkkhkhhhghhhhhhhh",
"hffhfhhhhhhfprrrttttytttyytttytttpppyyytyytytyyyyyytfhhkkhhhhhhh",
"fhfhhhhhfhrq77772222222222222222277722222322322222728fhhhhhhkhhh",
"hfhhhfhhfhp9zfhhhhhhfhfhhhhkhgkhhhkghkgkkhkkhhhhhhhx9ihhhhfhhhhg",
"hhhfhffhhki9ffffsgfffhsssfgshsshffgfgfsfsshssshssfsh0skhhhhhhhhh",
"hhhfhhffhks9hhhhhhhkkhhgkhhhhhhhkhghhhkhkkhkkgghhkfh0ikhhhhhhhfh",
"hfhhhhhhhki9hfkhhhhhhghkkhkhhkhhhklhhhhgkhhhkkhhhkfh0ihkhhhhkkhh",
"hfhhhfhhhhi0hgkkhhhhghhhhghhhhhkhhhhhhhzhhhhhhhhhkhk0skjhhhhghhh",
"hhhhhfhhhhp0hghhhhhhhhhkhghhhhhklkhhhhhhhhhhhhhhhhfh0skhhgggghhh",
"hhhhhkfkhhp0hfhhgkhfhkhhhhkjhhhhhzhhhhzhhhhhdhhhhhfk0pzsgfhhhhhh",
"hhhhhfkhhkp9hghhkhgfhkhkhjhhhhhhhzhhhkhkkhhhhhhhhhhk0szhghhhhhhh",
"fhhhhhhhghy9ghhhhhhhhhhhhlhhhkkhhkhfhhhhhhhhhhfhhkhk9ykhhhhhhhhh",
"fhhhkhhhklp0hfhghfhhhhhhkhkkzkkhkkllzhhhhhdhhhhhkkfh0shhhhfhhhhh",
"kfhhkfhhhhy0hhhhfhfkhhhhhgzh5>-==-:<qzkfhhkhhhfhgkhh9skhhhhhhhhh",
"hkhhhhkhhhp0hfhhhfhkkhfhhhcqoo#oXXX.$kkhffhhhhhhhkhh0shhhhhhffhh",
"kkhhhhhhhld9kfhhhhhkfhhfhfzqo:z,XooX#hkhhffhhfhhhkff0ihhhhhfhhkh",
"hhhhlhhdhls9kfhhfhkhhhhfhhcrO*d;XoXX*zhhhhhkhhhkhhhk9phffffhhfhh",
"khkhhlkkkls0hhkhhghhhhhhghzf#X+oXooX,chfhhhhkhkhhhgk9ikhhhfhhfhh",
"hfhkhkhhhls0kkhhhhhhkhhhfhkz=.XoXXXo6zfhhhhhhhhhhhfh0skhkhhhhhff",
"hkkkdkhhhhs0lhhjkkhhhhfhhhhz4XooXoo+rzfkhhhhhhhhghfh0szkhhhkhfhh",
"fkhhkhhhhks0hhjhhhkghhhhhhhkh4==:*:wzhhhhkfhhhhhhffk0pkhfhhhhhhh",
"kkghhhhhhks0lhhghghhhhhhhhkhkc->s%6vhkhfhhhffhhhfhfh0phhhhhfhhfh",
"kkkhhkhkhks0lhhhgkkhhhhhfhhhhz,=r#ezkhfhhhffhhhhhhfhwrkhhfhfhhhh",
"hhjjjkjjgzutggjhhjkhhhhhhkkhgcq>w>zzkhgkhhhhhfhhhhfz9ykhfhhhhhhh",
"jjkjjkjhjgu0jhjfhhjjkhhhfhhhgc<=e&szhzhghhhfhhhhhhhh9skhhfhhhfgg",
"jhzzjhhhjza0zjjhhkjhhkhhhhhhhc6:e:gzkkkhfhfghhfhkkfh0pkghhfffffh",
"gjzzzhhkhzs0jgjjhhhhkhkhhhgkhzw>w<zlhhhhhhghhhhhhzfh0ykhhfhfhhhh",
"jhjjhjjhjzf0hgjzjjjhhkjhkhhkhc1-e=sckhhhhkhhkhhhkkhh9ihghhhfhhhf",
"jhjjhjljjjf0jhzjzkjjkkjhhhhkhc6:e;hkhhkhhhhhhhhhhkfh9ikkhfhhhhhh",
"hhjjjjjjgcstjhjjjjjjkhkhhfhhhzi<w4chhhhhjhhhhhhhhhfk0plhhhfhhhhh",
"ljhjjjjzzlu0jhjjjjjhhhkkkkhkkzd%#<cfkhghhhhhhhhhhhhk9plghhhhhhhf",
"lhhzhlllzca0lgjjhkjhkhhhkkhhkjf@ ,chhhhhhhhhhhhhhhsh9izhfhhkhfhf",
"jhjjjhjkjls0zgjjjkhjkhhkhhjhhkj>@rlhkhhkhhhhfhhhghhk9izhfhhkhhhh",
"jhjhjhjkjja0jjzjzjjjhkhkkkjjkhchizjhkhhhhhhhhhhhfhfk0shffhhhhkhh",
"ljzzzjjkgls0zjjzjjckhhhhkjjjhhhjzhlhkhkhhhhfhhhhhhfh0izhhkhhkhkh",
"zzzjzzzzjja0zhzjlljjkjjjkjzjjhhjzkhhhhkhhhhhkhhhkhfh0izhhhhkfhhk",
"jljjzzzzjjstghzzkjjjhjjhkzjgjjjjhkhkhkkkkhkjjhkhkkhz0szhhhhhhhhh",
"hjkhhjjzjzs8jhjzjjjhjjjhkzzljllhlkkkhhhhkkhjjhhhhhfh0dzhhkhhhkhh",
"hjjjjjjzjcstzgkzkkhjjjjhkzzlhhjjhhkkkkhkkkhhhhhhhhfk9ikhhhhhkhhh",
"hhhhjjhjjzs0jghjjjjhjzjjjkjjhgljjhkjhjjjkkhkhhkhhhgk0skkkhghkhhh",
"jjgjhgjjjzs0hjzhhjjcjjjhjhhhjjjjhjjjjhjjhkkhhkkhlkgk0skhjjkhghhh",
"hkhjhhjjgzs9jfggggjhhhjggfffghfhhffhsghghhhfhfshhssh0skhhhjhhhhh",
"hhkljjhjgzptcjjjccjcjjjjkkkkjjgzjhjzjzzzczkzkkkkzkkz0ykhhhjhgshh",
"hhhhgjhhkjh388383333333333333333338383333388778882328hhhhhhhhhhh",
"hhjhjjjhkjkguyyuuuuuuyyyyuyypyusyysuaaaauuuuityiyyytgkgghhhhhhhf",
"hjjhjghhhhhkzlllcjccchjjjjkjzllzzzzzzzllzzczlxzzkkklkfhkhhhhhhhh",
"jhhjjjhhhhhhkhjjjhghhhhhkjhjjjhhzhjjhhhgjjkjhzhhhkhghkhhhhfhhhhf",
"ggcsjjgjhhhhhgjjhhhhjhhhhhhhhhjhkhkhkhhhhhhhkhhhkhhhhhkffhhhhhfh",
"jjgjjsjjgghjjjjhjhjhjhjjjhjjhhhhkhhkhhhhhhhhhhzhzkkfhkhhhfhffhhh",
"gjgjjsjjjhhjjhhhhhjhjjhghhhhhhhhhkghhhhhhghhhhhhhkhhhhhhhhhghhgh",
"jgjjjjsjgghjjjjjjhhhhhsghhjhhhhhhhhhghhhhhfhhhhzhhhhghhhhkfhhhhh",
"hjjggggghhhjhjhggjhjhhhhhjhhhjhhhhhhghhhhhhhkhhhgghffhhhkhhhhhhf",
"gghjjjgjjhhhhhhhhjhhhhhhhhhhhhhhhhhhhhhfhhhhhhhhhghhhhhhhghhhhhh",
"jhjhhghhggjgfhgggghhhhgjhhhhhhghgjhhhjhghhhhhhffhhhhhhhshhhkhfhh",
"hhjhhjhhhhghhhhghhhhhhhjhhhhjhfghgjhhjhhhhhhhhhfhhkhghhhghhhhhhh"
};
