/* XPM */
static char *_01711898837[] = {
/* columns rows colors chars-per-pixel */
"64 64 38 1 ",
"  c #DB0C7D",
". c #DD1582",
"X c #DE1D86",
"o c #DF2289",
"O c #DE2E8F",
"+ c #E03291",
"@ c #E13F98",
"# c #E34B9E",
"$ c #E34FA0",
"% c #E556A4",
"& c #E65EA8",
"* c #E664AB",
"= c #E76AAE",
"- c #E76FB0",
"; c #E96FB0",
": c #E873B3",
"> c #EA7BB6",
", c #EB7EB9",
"< c #EC84BB",
"1 c #ED8BBF",
"2 c #ED95C4",
"3 c #EE99C6",
"4 c #F09EC9",
"5 c #F2ACD0",
"6 c #F3B5D5",
"7 c #F4B9D7",
"8 c #F4BDD9",
"9 c #F6C5DE",
"0 c #F7C8DF",
"q c #F7CCE1",
"w c #F8CEE2",
"e c #F7D3E4",
"r c #F9D4E5",
"t c #F9D8E7",
"y c #FAD7E8",
"u c #FAD9E8",
"i c #FBE1EC",
"p c #FCE7F0",
/* pixels */
"errwwrwrwrrrrwrwrwrrrrrrryrrrrrrrrrerrrrrryrryryurrrrrrerrrrrwrr",
"erwwrwrwwwrrrrwrrrrwwrrwwrwrrrrrrrwrrrrrrrrrrrryrrrrrrrerrrrrwrr",
"rrwrwrrrrwrrrrrrwrrwrrwywrwrrrrrrrwrrrrrryrrurrrrrrrrrwrrrrrrrry",
"rrwwrwrwrrrryywrrrwrrrrwrewwrrrrrerrrryryrryerrrrrrrrrrrrrrrwrry",
"wrrwrwrrwywwwrwrrrrryreerrrwrrrrrrrrrrrrrrrrrrrrrrrrewrrerrwrrrr",
"wrrwrwrrrwyrwrrrrrwrryrerwrwrrrrrrrrrrrrrrwyryrrrrerrrrrrrrrrrrr",
"rrwrwwrrwrywrrwwrwwrrrrrrwrrrrrrrrrryrrrrrrrrrrrrrrerrrerrrrrrrr",
"rwwrwrrrrwwrrwrrwrrrrreyrrrrrrwrrrrrryrrrrryrrrrrewerrrrerrrrrrr",
"wrrrwrrrwrrwrwrrrrrrrrrrwrrwrrrrrrryrrrrrrrrrryrrrwrrrrrewrrrrrr",
"rwrwrrwwryrrwrrryrrwrrrrrrrrwrrryyrrerrrrrrryryrrrrrrryrrrrrrerr",
"wwwrrryrrrrwrrrrrwwrrrrrrrrrrrrwrrrrrrrerrrrrrrrrrrrwrrrryrrrrrr",
"wrrwrrrwwrwrrwrwrrrrwrwrwrrrrrrrryrrerrerrrrrrrrrrwrrrrrrrrrrrrr",
"rrrwwrrrwwrwwywrrrrwwrrwrrwrrerwrrrrrreerrrrrrrrrrrrrrrwrwrrrrrr",
"wrwrrwwrrrrwywrwererrwrrrrrrrrrrrrrrrrrrrrrrrrrrrwrrrrrrrrrrrrrr",
"rwrwwrrwrrrrwryrrrrrrrrrrrrrrrrrrrtrrerrrrrrrrrwrrrrrrrrrrrrrrew",
"rrrrrywrrrrrrrrrrrrrrerryrrrrryrryrrrrrrrrrrrrrrrrrrrrrrrrrryrrr",
"rwrrwwrrrwrrrrrrrrrrwrrrrerrrrrrrtrrreyywrrrrrrerrryyrrurrrrerrr",
"ryrwyrwrrrrrrrrrrrrrrrrrrerrrrryyrrrrrryrrrrerrerrrrrrrrrrewrrrr",
"wyrryrrrrwrrrwrrrrreryrrrrtrrrrrrurrrryrrrrrrerewrrrryrwwerrrrrr",
"ywryrrrrrwrrrrrrrrrrrrrrrrtrrerrrurrrrryrrrrrrerryrrrryrrrrrrrrr",
"wrrrrrrreerwwrrrrwrrrrrryyrrrrrrrrrrrrrrrrrrrrrryrrrrrrrrrrrrrrr",
"errrrrrrrrrwrwrerrrryrerrrrtuuyrtttuuyrrrrrrrrrryrrrrrrrrrwrwrrr",
"rrrrrrrrerrrrrrrwrrrrwrrrrur4,**==:<5urrrrrrrrwrrrrrrrryrrrrrrrr",
"rrrrrrrrerrrrrrewrrryrrrrri5oo#o.XX.#ryrwwrwwrrrryyrrrrwrrwrrwrr",
"rrrrrrrrrrtrrrrrrrrrwrrwrwu5X:u<XooX#eyrrrwrrwrrrrrrrrrwrrwrrrrr",
"rrrrrrrrrrtryrrrrrrrrrrwrru9O*q;Xoo.&urrwrryyrryrrrrrwwrwwrrwrrr",
"rrryruurttetrrrrrrrrrrrrrryw#X+oXooX>irwrrrrrrrrrrryrwrrrrwwrwwr",
"rrrrrttrrrrtyrryrrrrrrrrerry*.XXoXXo3yrrwrrrrrrrryrrrrrrryrrrwwr",
"rrrrrrrrrrrrtreyrrrrrrrrerri1XooXoo+8uwrrrrrwrrrrwrrrrryrrryrwrr",
"rytryrrretyrtttrrrrrrrrrrrryr3**;*:5uyrrrrwrrrrrwrwryyrrwwrrrrrr",
"rrrrrrrrrryrttrerrrrrrrrrrrwyi;>0$4pyyrrrrwwrrrrrwrrywwyywrwwrwr",
"rrtrrurtrryytteeryrurrrwrrrreu,*9$7irr0rrrerwerrrrrrwywrrrwryrrr",
"eeyytuyyyuyyeuyeyrtrrrrrryyreu5>6>iytrwtrrrwrrwrrrrrwrrrwrrrrrre",
"ytuutyyeeeeueueeetrtrrrrwrrrrp<*8%0ttrrrrrwrrrrryrrrrrwrwrrrrrew",
"tyuuteeyyyeeuuueryrrryyrrrrrri4;7;etyyrrrrwrrrrryrrrrrrrrrwwrwew",
"etuuueeyyyuuueetrrurrtrrrrrrru6>6<ittrrrrwerwrrrrrrrrwrrrwrwwrrr",
"teyteeueetutetuurtrrrrrrrrrrri2-8*0urrrrrrrrrrrryryrrrrrrrrwrrer",
"tettyyuyttuuyeuuttttyyturryyri2;8;rurrrrrrrrrrrrrrrreerrrwrrrrrr",
"ytttuuuetuuutuutttttyyyrrrrrruq<61irrrrrrtrrrrrrrrtrerrerwrwrrrw",
"yyeyueuuuutetttttttrrryyryrrryq%$<irrrrrrtrrrrrrrryrerrwwrrrrrwr",
"teyueuuuuuttuettturrtyrryyryeuw@ >ieyrryrrrrrrrrrrrrrrywrrrrrrwr",
"teuetetttuueeututyttrryrreryryu>#7terrrrrrrrrrrwrwrrrrrewryrrrrw",
"tettueeuyettuuuutuuuyrrrytttyruw9uttyrrrrrrrwrrrwrrrrrrrwrrrrrrr",
"utuuueuuteetuuuuuuuurrryttttrryuttyryryrrrrwrrrrrrrrrrrrrrrryyrr",
"utuuuuuutttuutttuuytytetuttttrrtytrrrryyrrrryyrrrrrrrrrrrrryrrrr",
"ttuuuuiuteyyttttutytttteturttttttrryyrryrrruurrrryyyryyrrrrrrrrr",
"eyyeeuuuuttytyttttrrtttetuuututrryryryrryrrutrrrrrrryrrrryrrrrrr",
"etuuyeyutuuytttyytttyytruuutrrttryyrryryyyrrerrrrrrryrrrrrrryrrr",
"eetyrrttttyytteytittttttuurtrttttrutrtuuuyrrryyrurryrrruurrryrrr",
"uyeerttyttyytyyttttttttttrrrttrtrtrttrrttyrrrrrrrrrryrrrrrrreerr",
"yyeurrtteyyreytettttttrrrrrrtrrttyrrrtrrtttyryrryrrrttrrrrtrrrrr",
"eeeutteeerrrttttittrttrtyrrrrerrerrttryuttyyyrrryrrrrrrrrrtrwwrr",
"yeeyeyrtytrrttyytrttrretrtrtrrttrrttttttutttyrryrrrrrrrrrrrrrrrr",
"yeyetyryytyyteettttttreeyrrrrrrttyytttrttttutrryrrtrtrrrerrrrrre",
"yyyyeteyeeryyerytttrtreetrrettrtytrtutetrtytttyrrrrrrrrrrrrrrrwr",
"eeeetterrrrrtettttttrtterrttrtrtyettertrrtytryrrryrrrtrrrrwrrrrw",
"eetrteteeeerrrtttrrtrreerrtrrrrryeyrrrrrrrrrrrrryrrrrrrwwrwrrwrr",
"tettteettertttttrrrrrtterrrtrrrrrrryrerrrrrrrryyuurwrrrrrwrerrrr",
"teteeeeterrttrrtrrtrtteeryrrrrrrrrryererrerrrrrrrrrrrrrrrrrwrr0r",
"teetteetrrrttterrrrtrreerrrrrtrrrrrrrrrrrrwrrrryrrrrrrrrrreerrrr",
"eettrrrreryyerteeterrrreryrrrrrrrrrerrrrrrwrrrrrrerwrrrerrrrrrrr",
"eererrrttrrrrrretrrrrrrrrrrrrrrrrrrrrrrwrrrrrrerrrrrwrrrrrrrrrrr",
"rtrrrrereerewrereerrrrerrrrrrrerrrrtrreerrrrrrrwtrrrrrrwrrrrrwwr",
"errttrreteerrreeetrrrrtrrrrrreeeterrryrrrrrrrrewerrrerrerrrrrrrr"
};
