/* XPM */
static char *key1712085560[] = {
/* columns rows colors chars-per-pixel */
"64 64 41 1 ",
"  c #DB0C7D",
". c #DD1582",
"X c #DE1D86",
"o c #DE2087",
"O c #DF2289",
"+ c #DE2E8F",
"@ c #E03291",
"# c #E13F98",
"$ c #E34B9E",
"% c #E34FA0",
"& c #E556A4",
"* c #E55EA7",
"= c #E65EA8",
"- c #E664AB",
"; c #E76AAE",
": c #E96FB0",
"> c #E873B3",
", c #EA7BB6",
"< c #EB7EB9",
"1 c #EC84BB",
"2 c #ED8BBF",
"3 c #ED95C4",
"4 c #EE99C6",
"5 c #EF9CC8",
"6 c #F09EC9",
"7 c #F2ACD0",
"8 c #F3B5D5",
"9 c #F4B9D7",
"0 c #F4BDD9",
"q c #F6C5DE",
"w c #F7C8DF",
"e c #F7CCE1",
"r c #F8CEE2",
"t c #F7D4E4",
"y c #F9D4E5",
"u c #F7D8E7",
"i c #F9D8E7",
"p c #FAD7E8",
"a c #FADAE9",
"s c #FBE1EC",
"d c #FCE7F0",
/* pixels */
"tyyrrryyrryyyyryyyryyryyyyyyyyiiyyryyiyyyyyyyiyppyyyyyyyyyyyyryy",
"tyrryyyrryyyyrryyyyyyyywyryyyyyyyyyyyyyypypyyiyyiyyyyyyryyyyryyy",
"yyryrryyyyyyyyyyyrryryyyryrryyyyyyyyyyyipyyyiyyyyyyyyytyrypyyyyy",
"yyrryyryyryyypryyryyyyyyyrryryyyyrryyyyyyyyytyyyytyyyyyyyyyyyyyy",
"ryryryyrrprrrryyyryyyitryyyryyyyyyyyyyyyyyyyypypyyyyytyyyytyyyyy",
"ryyyrryyyrpyrpyryyyryiyyyrryyyyyyyyyyyyyyyyyyyyyyyyyyyyyyytyyyyy",
"yyrryryyrrpryryrryyyryyiyyryyyyyyyyypyyyyyyyyyyyyyyyyyyryyyyyyyy",
"yrryryyyyyryyypryyryyyyiyyyyyyryyyyyyyyipyyyyyyyyttwyyyywyyyyyyy",
"ryyryryrryyyrtryyyyyyryyryyyyyyyyyyyyyyyyyypyypyyyyyyyyyyyyyyyyy",
"yryyyyyyypyyryyyyyyyyyiyyyyyyttyyppyyyyyyyyyyyyyryyyyyyyyyyyyyyy",
"ryyrryyyyyyyypyyyyyyiyyyyyppyyyppypyiyiiyyypyyayyppyyyypiyyyyyyt",
"yrryyyyyryrpapppaaaaiaaiaaaaapppaasaiaaaaaasasaaaaaayyryyyyyyyyy",
"ryyryyrrtyyyyyyyyryyrtyryyryytyyyyyyyyyryyyyyyyyyyyypyyyryyyyyyy",
"yrryrryyyyyyyyyyyyyyyryyyyyyyyyyyyyyyyyyyyyyyayyyyyyppyyyyyyyyyy",
"yyyyyyryyyypyyyyyyyyyyyyyyyyyyyyyiiyyyyyyyyyyyyryyyyppyyyyyyyytr",
"ryyrryyryyyyyyyyiyyyyyyypyyyypyyyayyyyyyyyyyyyyyyyyypyyyyyyypyyy",
"yyyyrryyytypyyypyyyyryyyyyyyyyyyyiyyyypyryyyyyyryyyyayyyyiyyriyy",
"rypryyryttypyyyyyyyyyyyyytyyyyyyiiyyyyypyyyyyyyyyyyyaayiyytytyyy",
"yyyyyyyyyrppyyyyyyyryayyyyyyyyyyyiyyyypyyyyyyyyyyypyaayrrryyyyry",
"yyyyyypyyyypyyyyyyyyypyyyyiyyyytypyyyyyyyyyyyyryyypyayyyyyyyyyyy",
"rtyyyyyyytyyryyyyyyyyyyyiayyyyyyiiytyyyyyyyyyytyyyyyayyyyyyyyyyy",
"tyyyyyyyyyyptyytyryyyyyyyyyaappyiyiiayyyyyyyyyyyyyyyaayyyyryyyyy",
"yrypyryyytypyyyyryyyyyyyytiy5<--;:>18ayryryyyyttyyyyayyyyyyyyyyy",
"yyyyyypyyyypyyyyryyypyryyys7OO$O.Xo $ypyyyyrryyypppyayyyyyyyrryy",
"ypyyyyyyyyuayytyryyyryyyyws7o:s1XoO.$ypyywyyyryyyyyyyyyrtywyyyyy",
"yyyyyyyyyyuapyyyyyyyyyywtyaq+-w:XOoX=ayyyyyyyyyyyiyypyryrryyyryy",
"yyyyyaiyyiuaypyyyyyyyyyyyypw$o@OoooX,syyyyyyyypiiyiyiyyyyyyyyryr",
"yyypyiiyyyaaypyiyyyyyyyyyyya; Xooooo6pyrryyyyyyyyypyayyyyyyrryry",
"yyyyyyyyyyaayyyyypytyyyyryrs2oOoXoO@0atyryyyyyyyryyyppppyyyyyryy",
"ypyypyyyyyaaaayyyyyyyyyyyyypy4-->->7pyyyyyyyryyyyryrpyyyyyyyyyyy",
"yyyyyyyyyyaauiyyyyyyyyyyyyyyys;,r$6dpyyryyryyyyyyryypyyyywyrwyyy",
"yyiiyayiyyaauiytyiiiyyyryyyyys<-0%0ayyryyyyrryyyyyyyyyyyyyyyyyyy",
"yypiuapyiyaauiuyyyiyyyiyrppyya7,8<spyytyyyyyyrypyyyrpyyyyyyyyyyt",
"iupiiapyyuuauuieyiyyyyyyyyyyys1;9*waiyyyyyryrpyrpypypyyyyryyyrtt",
"iyaayuyyiyaaypiyrpiyyiyyyyyyys6:9>tpppyyrytyypryayyypyytyyrrrrrt",
"yuaupyyyypaaupiuiiiyyiyiyyyiya8,81syyyyyytryyyypyyyyyyyyyryryyyy",
"iyuuyuiipupaiiiayiyiyyyyyyyyys3;9-raiyyyyyyyyyyyiyiypyyyyyyryytr",
"iyiiuuuipuasiippipyuppyayypppa4:9:ypyyyyyyyyyyyyyiiyyyyyrryyyyyy",
"yyyipppppaaaapppipiuppipyyyyyae183syyyyyyyyyyyyyyyyypyyyyyyyyyyy",
"piupuupapaaauuuipiiyyypyypyyype&$1syyyyyyyyyyyyyyypyppytryryyyyr",
"pyipyupaipaaaaiiipyuyyyypppyyar# <stpyyyyyyyyyyyyyyypyytryyyyyyr",
"yuuyuyuuiuaauuuuupyuiypyyyyiypa,#0aypyyyyyyyyyryyyyypyyyrypyyyyy",
"puuuiyuputaaiaaaaapaiyyppiiipyprqaiyyyyyyryyryyytyyyaptyyryyyyyy",
"appapuipyuaaaapaaaapyyyyiiiuyyipayaypypyyyyyyyyyyyypayyyyyyyyyyy",
"aaapaaaauyuspiauuapupiyyiiuuiyyiiiyyyyppyyyyppyyyyyyapyyyyypyyyy",
"uauuaaaauupaiiiaauapiiiyiayyuiuuiyyppyypyypiiyyyyypiapypyyyyyyyy",
"yupuyiaapppaipupuuyyupiyiaaaiaiyyippypyyppypiyyyyiiyapyyypyyyypy",
"yyppyuuppaaspuippiiuppuyuaaayyaiyiyyypypppyyyyyyyyyyppyyyyyyyyyy",
"yyuyiyiiiiaappuiaaiaiiiiiiiiyyiiayaayiiiayyyyppyiyyyapyyayyyyyyy",
"uiyyytiiyipaaaiutaaaiiiiiyyyiiiyyyyyyyyiiiiiyyyyyyyiayyiiiyyyyyy",
"uuypiuyayuiaupiyaaaiaiyiiyyyyiiiaiyiayyiaiaaypypypyyapyyyyyyyyyy",
"yyypuuyyyyyayuyiaaitiiyiyyyyyttityyyauiiayyppyyypyyyiiyyyyiywtty",
"yyyiyiyyipiasaassiassiiiaaaaaaasaasasassssassaaaaaaaayyyyyyyyyyy",
"yyyttiyipiippiipasaiiiiiaaiiaapiaaaaaiuiiaiiyiapppiiayyyryyyyyyy",
"yuyiyyyiyyyyyyyyiyiyyyriitiyiiyiauyaiiuyyipiyipyyyytiyyyyyyyyyyy",
"iyuyayyytyyyuuppiayiyiiiyyyyyityayyyyyyytyiiiayyypyyiyyyyyryyyyw",
"tiitiiiytyyyyyuiyyyyiyttyyiiyyiyyyiyyyyyyyyyyyyyyiyyyyyryyyyyyry",
"iriiiyyyytiyyiiiiiiyyyityyiyyyyyyyyiyyyyyyyyyypyaayyyyyyrrryryyy",
"ttiitiyyytyyyuyiiriytyttyyyyyyiyyyyyytyyytyyyyyyyyyyyyyyyyyryyyr",
"ittiirttyyuuuyyyyyyyyirtyyyyyyyyyyyyyyyytyryyyyyyyyyryyyyyyyyyyy",
"rtittiityyyiuyyuriiiyyytyyyyyyyyyyyyyyyyyyyyyyyyytyryyyyityyyyyy",
"iittyitiiyyyyytyiiriyyyyyyyyyyyyyyyytyyryyyyyyyyyyyyryyyyyyyyryy",
"iyyyyyyyyyytrytyttyityyyyyyyyyyyyyyyayytyyyyyyyryyyyyyytyyyyyyry",
"iyyyyytytttyyyytttyiyyyyyyyyyyrtityyyyytyyryyyyryyyytyyrryyyyyyy"
};
