/* XPM */
static char *kfloor1712085560[] = {
/* columns rows colors chars-per-pixel */
"64 64 41 1 ",
"  c #6D2D05",
". c #6F2D08",
"X c #722E0C",
"o c #A8315B",
"O c #B4326D",
"+ c #BD2C7F",
"@ c #B73271",
"# c #B93273",
"$ c #BF2E81",
"% c #C12F82",
"& c #C53385",
"* c #C83787",
"= c #C73887",
"- c #C83887",
"; c #C73389",
": c #C8338A",
"> c #C73888",
", c #CC3B8B",
"< c #D03F8D",
"1 c #CC3390",
"2 c #D1418F",
"3 c #D54491",
"4 c #D94793",
"5 c #D74894",
"6 c #DA4A95",
"7 c #DE4E98",
"8 c #DF509A",
"9 c #E14F99",
"0 c #E4539C",
"q c #E9569F",
"w c #E5589F",
"e c #EA57A0",
"r c #E758A0",
"t c #EC5BA2",
"y c #F25EA5",
"u c #F461A7",
"i c #F861A7",
"p c #F562A8",
"a c #FD65AB",
"s c #FE69AE",
"d c #FF6CB1",
/* pixels */
"XXXXXXXXXXXXXXXXXXXXXXXXXXXXXXXXXXXXXXXXXXXXXXXXXXXXXXXXXXXXXXXX",
"XXXXXXXXXXXXXXXXXXXXXXXXXXXXXXXXXXXXXXXXXXXXXXXXXXXXXXXXXXXXXXXX",
"XXX .  ..                       .                            XXX",
"XXXoOOOOOOOOOOOOOOOOOOOOOOOOOOOOOOOOOOOOOOOOOOOOOOOOOOOOOOOOo XX",
"XX.#1:&::&:::;;;:::*;;::;:;;::**:&::&::::::*:;::;:;:::::::::#XXX",
"XX.O:%&&&&&&&&&&&&&&&&&&&&&&&&&&&&&&&&&&&&&&&&&&&&&&&&&&&&&;O XX",
"X. O:&&&&&&&&&&&&&&&&&&&&&&&&&&&&&&&&&&&&&&&&&&&&&&&&&&&&&&;OXXX",
"XX.O:%&&&&&&&&&&&&&&&&=&&&&&&&&&&&&&&&&&&&&&&&&;&&&&&&&&&&&*O XX",
"XX.O:&&&&&&&;&&&&&&&&&&&&&&&&&&>&&&&&&;&&&&&&&&&&&&&&&&&&&&&O.XX",
"XX.O:&&&&&&&&&&&&&&&&&;&&&&&&&&&&&&&&&&&&&&&&&&&*&&&&&&&&&&:O.XX",
"XX.O;&&&;&&&;&&&&=&&;&&&&>&&&&&&&*&&:;&&&&&&&&&*&&&&&&&*&&&:O.XX",
"XX O;&&&&&&&&&&&&&&;&&&&&&&&;&&&&&&&&&&&&&&;&&&&&&;&&&&&&&&:O.XX",
"XX.O:&&&&&&&&&&&&&&&&&&&&&&&&&&&&&&&&&&&&&*&&&&&&&&;&&&&&&&:O.XX",
"XX.O;&&&&&&&&&&&&&&&&&:&&&:&&;&&&&&*&&&&&&&&&&&&&&&&&&&&&&&:O.XX",
"XX.O:&&&&*;&&&&&&;&&&&&&&&&&&&&&&&&&&&&&&;&&&&&;*&&&&&&&&&&:@.XX",
"XX.O:&&&&&&&&&&*&&&&&&&&&&&&&&&&&&&&&:&&&&&&&&&&&&&&&&&&&&&:O.XX",
"XX.O:&&&*&&&&:&&&*&&&&&&&&&&&&>&&&&&&&&&&&&&&&&&&&&&&&;&&&&;O.XX",
"XX.O:%&&&&&&&&&&&&&&&&&&&&;&&&&&&>&&&&&&&&&:&&&&&&&&&&&&&&&:O.XX",
"XX.O:&&&&&&&&&&&&&:&&&&*&&&&&&&&&&&&&&&&&&&&&&&&&&&&&&&&&&&:O.XX",
"XX.O:&:&&&&&&&&&&&&&&&&&&&&;&&&&&&&&&&$&&&&&&&&&&&&;&&&&&&&:O.X.",
"XX.O:&&&&&&&&&&&&&&&&&&&&&&&&&&&&&&%&&&&&&;&&&&&&&&&&&&&&&&:O.XX",
"XX.O:%&&:&&&&&&&&&&*&&&&&&&%&&&&&&&3p3&&&&&&&&&&&&&&&&&&&&&:@.XX",
"XX.O:&&&&&*&&&:&&**%&%&&&&&&%%&&>ryypt%&&&&&&&&&&&&&&&&&&&&:O XX",
"XX.O:&&&&&&&&&&&&&%*%*q<&&&%,3>7srd38i&&&&&&%,3&&&&&&&&&&&&:OXXX",
"XX.O:&&&&&&&&&&&&&&&%<d3$&&2psw8p>u56u&&&&&&30t0-,:&%&&&&&%*@.XX",
"XX.O:&&&&&&&&&&&&&&&&,s6&&=t5wt5p>y75s,$&&&&t,3dytiy0,&&&&&*O.XX",
"XX.O:%&&&&&&&&&&&&&&&-a0$=$5tsy3p>wy27=&&&&$37,u2&qasq%&&&&*O.XX",
"XX.O:&&&&&:&&*&&&&&&&-pq$&&rt3u3s256+&&&&-7wwt-,t24aay:&&&&&O.XX",
"XX.#:%&&&&&&&&&&&&&&%&yy&&-d50s38,%$&$$&,y026a;3d6<iaa3%&&&:O.XX",
"XX.O:%&&&&&&&&&%&&&&&%ey&&&wat3&%%%&&28wu5,7&q25st;yaa4%&&&:O.XX",
"XX.O:%:&&&&&&&&&&&&&&%0y&&&&-&+&&27u0y5qi&id,90&aa&qaa0%&&%*O.XX",
"XX.O:%&&&&&&&&&&&&&&&%9t&&&&&&,67u58sa230,pa22y&ya20aay<&&&*@.XX",
"XX O:%&&&&&&&&2,&&&&&&-&$&&&&7w26a6,as92e&yde:y:0aaaasi3%&&:OXXX",
"XXXO:&&&&&&$&wtuy5&&&&&-222206,w=5q-pay-t:6aq&y39aay66,&&&&:O XX",
"XXXO:&&&%,w5w0$tss6+&2yq040sq=pdq=q,yap-ee%,-&0iaaay-%&&&&%:O.XX",
"XX O:&&&&65tdp,6sdu76q,,-2&w62aau*q,0sy&<at0u29saa0:&&&&&&&:O XX",
".X.@;&&&%626sd28s5220t&2as6322aay;y6-4,24u<66,yaai&%&&&&&%&:O XX",
".X.O;&&&&,62d0,s5=t6+w22sat20&ua6,aaq6yaaa9,0aaaa4%&&&&&&&&:OXXX",
"XX.O;&&&&&w>w=wa=ta22a7,aay=i2-2,uaaaaqaaaai9iay4&&&&&&&&&&:O.XX",
"XX.O&&&&>ww&+2ai=w,2u272iai=0attaaaaa4$<76-&&-<:%&&&&&&&&&&:O.XX",
"XX.O:%%:02=&,2,p,&5aa,5=9aa80aaapiai6%&&$%&&&&%&&&&&;&&&&&&&O.XX",
"XX.O:%%452a0,s228$0aq=t57aaaaaaaq*<;&&&&&&&&&&&&&&&&&&&&&&&:OXXX",
"XX.O:&&35wyt&ws5&&&,-0aaaaaay252*$&&&&&&&&&&&*&&&;&&&&&&&&&:O.XX",
"XX.O:&%<74+0=5sa66ytpaaasyq92+&&&&&&&&&&&&&&&&&&&&&&&&&&&;&&O.XX",
"XX.O:&%32w2246aaaasssaii9&&&&&&&&&&&&&&&&&&&&&&&*&&&&&&&&&&:O.XX",
"XX.O:&&,7,-0aaaas030q3,=&&&&&&&&&&&&&&&;&&&&&&&&&&&&&&;&&&&:O.XX",
"XX.O&&&%20taaaaai3+&&%&&&&&&&&&&&&&&&&&&&&&&&&&&&&&&&&&;&&&&O.XX",
"XX.@:&&&&&222222;&&&&&&&&&&&&&&&&&&&&&&&&&&&&&*&&&&&&&&&&&&:O.XX",
"XX.O:%*&&&%%%%%%&&&&&&&&&&&&&&&*;&&&&&&&&*&&*&&&&&&&&&&;&&&;O.XX",
"XX.@:%&&&&&&&&&&&&&&&&&&&&&&&;&&;&&:&&&:&&&&&&&&&-&&&&&&&*&;O.XX",
"XX.O:&&&&&&&&&&&&&&&&&&&&&&*&&&&&&&&&&&&&&&&&&&&&&&;&&&&&&&;O.XX",
"XX.O:&&&&&&&&&&&&&&&&;&&&&&&&&&&&&&&&&&&&&&&&&&&&&&&&&&&&&&;O XX",
"XX.O:%&&&&&&&&&&&&&*&&&&&&&&&:&&&&&&&&&&&&&&:&&&&&&&&&&*&&&:O XX",
"XX.O:%&&&&&&&:&&&&&&&&;&;&&&&&&*&&;&&&&&&&&&&&&&&&&*&&&&&&&;OXXX",
"XX.O:&&&&&&&&&&&&&&&&&&&&&&&&&&&&&&&&&&&&&*&&&&&&&&&&&&;&&&:O XX",
".X.@:%&:&&&*&&&&;&&&&&&&&&&&&&&&&&&&&&:&&&&&&&&&&;&&&&&&&&&:OXXX",
"XX.O*&&&&:&&&&&&&&&&&;&&&&&&&&&&&&&&&&&&&&&&&&&&&&&&&&&&&&%*@.XX",
"XX.O:%&*&&&&&&&&&&&&&&&&&&&&&&&&&&&&&&&&&&&&&&&&&&&&&&&&&&&*O.XX",
"XX.O:%&%&&&&&&&&&&&&&&&&&&&&&&&&&&&&&&&&&&&&&&&&&&&%&&&&&&&*O.XX",
"XX.#1::*:::::::::::-;:&::::::::-:::::::::::&::*::*:::*:*::&1#.XX",
"XX.o#OOOOOOOOOOOOOOOOOOOOOOOOOOOOOOOOOOOOOOOOOOOOOOOOOOOOOO#o.XX",
"XXX.                                           .             XX.",
"XXXXXXXXXXXXXXXXXXXXXXXXXXXXXXXXXXXXXXXXXXXXXXXXXXXXXXXXXXXXXXXX",
"XXXXXXXXXXXXXXXXXXXXXXXXX.XXXXXXXXXXXXXXXXXXXXXXXXXXXXXXXXXXXXXX"
};
