/* XPM */
static char *kwall1712085560[] = {
/* columns rows colors chars-per-pixel */
"64 64 160 2 ",
"   c #361B0F",
".  c #3A1A0E",
"X  c #3C1D11",
"o  c #3D2315",
"O  c #3B271A",
"+  c #3E2C1C",
"@  c #421C0C",
"#  c #431E13",
"$  c #42200F",
"%  c #57270F",
"&  c #5C260F",
"*  c #442315",
"=  c #4B2316",
"-  c #452817",
";  c #4E2A16",
":  c #442419",
">  c #4B2419",
",  c #442A1A",
"<  c #4B2C1C",
"1  c #542513",
"2  c #5B2611",
"3  c #552A15",
"4  c #5C2B14",
"5  c #512419",
"6  c #532C1C",
"7  c #5A2E19",
"8  c #43311E",
"9  c #4D311C",
"0  c #5C3116",
"q  c #53321C",
"w  c #5C331C",
"e  c #54381F",
"r  c #5D381F",
"t  c #612C15",
"y  c #622F19",
"u  c #62351D",
"i  c #69351D",
"p  c #64391F",
"a  c #6B3A1E",
"s  c #743D1F",
"d  c #532F21",
"f  c #5F2D20",
"g  c #4E3222",
"h  c #553521",
"j  c #5B3621",
"k  c #553A23",
"l  c #5C3B23",
"z  c #56392C",
"x  c #5D3E29",
"c  c #5C3E33",
"v  c #633621",
"b  c #6A3720",
"n  c #643B23",
"m  c #6B3C23",
"M  c #633D29",
"N  c #6F3F28",
"B  c #743E23",
"V  c #564225",
"C  c #5D4226",
"Z  c #54432C",
"A  c #5D432B",
"S  c #5E4137",
"D  c #5F4D35",
"F  c #5D413A",
"G  c #644126",
"H  c #6D4126",
"J  c #64442B",
"K  c #6B442A",
"L  c #66492D",
"P  c #6B4A2E",
"I  c #744225",
"U  c #7A4326",
"Y  c #784927",
"T  c #73452A",
"R  c #7B4529",
"E  c #75492D",
"W  c #7C4A2D",
"Q  c #7C502F",
"!  c #644533",
"~  c #6C4431",
"^  c #664B32",
"/  c #6C4C32",
"(  c #63453A",
")  c #6A4738",
"_  c #674A3D",
"`  c #6C4C3A",
"'  c #714532",
"]  c #734C33",
"[  c #7C4D32",
"{  c #724C3B",
"}  c #794F3D",
"|  c #6E5035",
" . c #6D5139",
".. c #735136",
"X. c #7D5234",
"o. c #74543A",
"O. c #7A553B",
"+. c #76593D",
"@. c #7B593D",
"#. c #694C41",
"$. c #734D41",
"%. c #6E5246",
"&. c #745244",
"*. c #7B5443",
"=. c #725B43",
"-. c #7C5C41",
";. c #765749",
":. c #7E6044",
">. c #824526",
",. c #804827",
"<. c #81472A",
"1. c #824B2D",
"2. c #894F2E",
"3. c #84502F",
"4. c #834E31",
"5. c #894F30",
"6. c #835334",
"7. c #8A5434",
"8. c #855936",
"9. c #8C5936",
"0. c #845539",
"q. c #8B5639",
"w. c #855A3C",
"e. c #8C5A3B",
"r. c #905737",
"t. c #915936",
"y. c #935C3B",
"u. c #985E3B",
"i. c #8E603E",
"p. c #97623E",
"a. c #9B613D",
"s. c #815C43",
"d. c #8C5E41",
"f. c #955E40",
"g. c #836245",
"h. c #8C6443",
"j. c #83654B",
"k. c #8C614A",
"l. c #8E694A",
"z. c #946344",
"x. c #9B6545",
"c. c #936B46",
"v. c #9B674A",
"b. c #956C4A",
"n. c #9B6B4B",
"m. c #97704C",
"M. c #9B724C",
"N. c #9D6D52",
"B. c #9D7154",
"V. c #9D7458",
"C. c #A06642",
"Z. c #A56A47",
"A. c #A16A4B",
"S. c #A06F52",
"D. c #A27254",
"F. c #A37559",
"G. c #A77858",
"H. c #AB7A5C",
"J. c #B17C5B",
"K. c #B38160",
/* pixels */
"= m [ R H Y Y W 4.[ 6.8.6.0.8.6.m.$ 0 8.1.T E [ E 6.w.6.9.7.9.6.v.z + A :.@.-.:.o.| | +.=. .+.J -.&.M 9.X.P Q Y H K H X.W X.X.J ",
"; m W T b R 1.W 6.W 8.7.W 6.9.9.c.$ 0 7.[ R [ [ E X.q.6.7.y.4.4.N.! + A +.-.-.:.o.+.+. .=. ... .j.%.M 9.Q E W H T H K E X.6.O.K ",
"> N X.T a R 1.W 6.W 0.0.X.6.9.d.m.. 0 7.[ E E [ ' 0.0.7.7.7.4.[ v.! + A +.+.+.+.| o. .+. . .+.o.-.;.r 6.E E 6.E E E G E X.6.X.] ",
"= K 6.T p T 4.W 6.[ 6.6.[ 6.7.y.n.@ 0 7.I I T W T 4.q.9.e.7.[ [ v.( o z ..:.-.+.o. .| o.^  .+.+.-.&.q Y T W 7.W Y E E E 6.O.E ] ",
"; N 0.[ b E 6.6.6.3.6.6.6.6.6.e.n.@ 4 9.T T [ E T 0.9.9.y.0.X.[ N.! O V @.i.-.:.-./ o.o./  .o. ...%.w E N Y 3.X.[ E ] W X.X...E ",
": ' 4.[ B [ 6.6.8.6.O.X.6.[ X.e.c.@ 4 8.I T ] [ E 6.7.9.e.0.X.R B.^ + V o.@.+.+.o.+.o. .^  .+./ -.%.q E T 1.W W 4.E E 4.w.6.O.{ ",
": ' 4.[ R R [ 7.y.6.X.[ 6.[ X.d.b.@ 7 7.Y T [ [ Y 6.0.0.9.e.O.T b._ 8 V ..@.:.| o.+.o.| J ` | / -.#.q W I Y W E 1.E W [ w.8.Q ] ",
"> T 6.[ T W W 7.9.3.0.W 7.[ 0.e.b.@ 0 6.R W O.[ W 6.0.6.0.q.0.W n.( 8 L | o.+.+.@.../ o.J ^ ..P &.#.w W Y X.W W 6.H ] 6.X.8.O.~ ",
"= K 0.[ I 4.1.9.y.6.w.X.6.[ 0.e.b.@ w 7.Y T [ [ [ [ 4.[ O.w.w.[ N.) , ^ | ..o...o.o.^ +.J / | G -._ M 7.1.X.I W 1.H E 6.0.8.X.K ",
"; T 6.6.T W W 7.z.W 6.6.7.6.X.e.z.@ u 6.I I [ [ [ 6.[ 0.7.0.e.4.N.$.+ A  .| | / @.-.P ..A P O.L o._ j 7.6.Q E 6.Q H T 6.6.0.X.^ ",
"3 H 8.6.I R W 7.r.W 0.6.q.6.[ q.b.# u 4.I E ] W W 6.[ 0.q.0.8.6.D.` - V | o.| o.+. .L / A J O.o...#.w 6.W 6.Y 4.W T E Q 8.X.E K ",
"3 m 6.[ R 1.2.7.9.1.6.8.q.9.X.0.b.@ u 0.R W [ T W X.E Q 8.7.q.4.S...8 C  .o.| o.O.o.J / J x o.+.+.#.l W H Q Y W W E E Q 8.w.X.! ",
"q b 6.W W 1.6.r.t.7.8.8.6.q.X.6.b.# 0 6.R [ E E 1.[ E X.0.7.8.q.D.o.g A | O./ o.@.+.P ^ / A / / o.%.j [ H T W Q Y H E X.0.8.6.~ ",
"0 H 2.W 4.4.6.r.t.7.8.e.3.7.Q 3.N.. y 4.T [ [ E [ W O.X.8.0.8.y.F.&.g A o.O./  .o.o.P L  .^ ' P o.%.6 ' K E R 1.E I Q 6.0.0...~ ",
"q m 3.[ W 6.8.7.p.7.7.i.6.6.6.Y b.* 2 4.T ] [ E W X.X.w.w.7.9.y.H.*.h ^ o.X.P o.+...] P L / ..^ { #.h T m E W 3.W T W 6.0.8.E K ",
"w m 6.4.6.3.3.p.t.t.8.e.6.8.6.Y z.= t W N [ ] E W X.[ w.p.y.x.y.J.*.h / | O.^ / +.O.P o.L J ^ ^ ..#.< N m Y 4.[ E E 3.w.e.i.8.{ ",
"q m 3.4.4.4.6.u.u.9.8.y.8.0.0.W z.= t Y N E E T E [ [ e.y.e.e.p.K.*.q o.O.@.| P O.@.P ..L L ~ J / _ < N G W 7.Y W E 3.8.0.8.w.X.",
"w m 6.6.6.W 7.t.a.t.9.9.i.6.6.6.n.* 4 R m T T H E ] ] 6.y.[ E q.K.&.9 ^ O.-./ ~ -.@./ ] | / / L +._ h ' H 3.3.I T Y 3.7.7.X.] J ",
"n n 3.3.6.W 2.9.a.u.y.9.i.X.6.7.M.= 4 R v E E n E X.' 4.0.] E 4.H.@.h / X.-.o.^ o.@.J o.o.+.o.^ +.S 6 W I 6.W Y Y 1.W 8.w.w.0.J ",
"m T 7.7.6.6.1.y.a.u.y.7.e.Y [ 6.b.> 4 R n R N n ] [ [ [ [ ' X.6.H.*.g P { -.o.o.@.-./ / o.../ A ..c 6 T Y W E T Y X.Y 0.X.X.O.' ",
"N B 9.0.6.6.3.y.u.t.t.6.6.E T 6.b.# 4 U i T N n ] [ [ ' X.E ] 0.G.*.< ^ { @.o.~ w.@./ / / +.^  .+.c 6 4.R E I E W 3.1.6.Q P P H ",
"K m 6.X.6.2.1.9.a.t.a.8.0.T [ 0.l.# 4 B p N m H ' E T [ 0.@.X.[ G.*.< L o.-.....-.@./ ]  ...^ K &.c d [ H H E I W 6.1.8.e.Z D ~ ",
"E N M J 0.7.1.9.a.a.x.9.0.X.[ [ b.> t U p N n H [ ] K [ w.w.h.[ G.&.g L ] -.| o.-.-.L ] +.| P G ] F h R m H E H Q 6.6.3.X.S Z P ",
"E N K J 7.7.6.7.y.a.C.y.W ] [ X.b.5 & U p H M m ' T K ..e.6.e.O.F.$.8 | +.O.| o.s.+.P / o.| ..P | c d E n T T T 1.3.Y W 6.] V k ",
"[ I 6.X.7.7.4.7.y.u.a.u.T H E E l.5 2 B p b p n E H K X.f.e.z.e.V.$., /  .O.| ..i.+./ P o.| P / / F * H n ] T N W 6.E W 7...L x ",
"] I 7.6.7.9.R q.t.u.x.y.R T E E l.5 t B p u M p b M E X.d.d.v.d.V.;.g L | O.o.o.@.o.| ..o.P ..J ..F > E H b K R W E T [ 6.O.^ J ",
"E I 7.7.0.9.5.r.t.t.C.t.1.E ] W k.5 & B a u m n n H ~ X.0.w.d.f.V.&.g | o.+.o.+.X.o.] | +. ...| o.( g W a n K R W T T 6.3.] K J ",
"[ U 7.4.5.9.4.r.t.t.a.t.2.R ] ] N.5 t B n j N b p J ~ W 4.4.0.d.H.*.: ^ ..X.....@.@.| | o.| ..P +.S < K u H T W 6.[ E 6.X.' J M ",
"X.I t.5.7.y.1.q.t.t.u.2.2.U K T l.# 2 R u w M v r L P E 6.6.6.O.H.s.8 ^ ] O.O...g.@.P ..O.| ..K / S - m v H T 4.W W T 0.X.] J l ",
"X.B r.9.5.y.7.7.9.u.r.r.W W E K l.# 2 T u j v m K K E E X.X.] [ H.-.,  .....O.O.g.:.| ] o.P O...P z , K j H Y Y T T T W X.O.K h ",
"O.B 7.9.1.q.7.4.9.r.r.5.R X.[ H b.# t B u l j M G H E K E w.6.[ H.*.<  .....E o.g.@...P O.] o...] z - K n I W Y T T T W X.] K M ",
"O.i 2.9.<.7.7.4.7.7.r.>.2.T [ K l.> 7 N N K w w H T ] K H 8.0.[ H.*.< / ..o.P ..h.@.o...o.P o.' P z * K m R 1.I m T T W 6...G x ",
"d.i 5.7.U 6.9.4.2.2.r.1.R B 4.[ b.> & I K w.] w K E K E [ q.0.[ F.*., | / +...O.@.w...o.O.P o.o...x > T a W 1.W K N T [ X...G r ",
"w.s 5.q.2.9.2.<.1.1.r.1.U R R B n.> % m n n { O.O...r K 0.f.9.R S.*.- L ~ O...X.w.d.~ o.+.| ../ o.c * m Y 1.>.1.m a H [ [ ' l n ",
"w.s 5.7.5.y.2.R R 1.7.>.U U R R n.5 & a n u M X.H @.] p ] e.9.[ n.*.= L ~ o.] E @.8.P o.O.P / / o.c * m U 1.U I p p I [ E K G G ",
"w.i 4.7.7.7.4.1.U 2.2.1.U B B >.n.1 4 H n w m T H K ..~ ] W e.0.d.$.* J K o.o.P X.o.P ..o.P o...] x * p I W R T m p K E H H K p ",
"h.s 1.2.7.q.1.4.>.7.1.2.U s B Y n.> & T j u n G K N n K @.K w.@.0.{ , L P ....] O.O.P ..o.P O...' ` # T I R I b H n H T E K P v ",
"e.I 7.1.5.r.2.4.1.7.1.1.>.B U 1.n.5 1 j < v M H m n N ' w.X.w.k.6.` 9 L / ..../ o.O.K ..| J ] P P ` = R B I I N n v n K K E J n ",
"i.B 5.4.5.q.4.1.R 7.1.>.U B U 2.A.# = q , j G n v m E T w.[ X.k.B.) , / / ] ' ..o.] J P | L / P / ` = T N I B m v p n K E K v M ",
"z.B 1.1.4.5.4.1.U 2.5.Y 1.B B <.x.> 1 j q j K v n E [ W q.X.X.[ N.{ - J J ~ ^ P o...P P P J ~ P ] ` * b b H m n j n M K K G G b ",
"z.I R R 1.4.<.4.U 2.7.W 5.U B U C.5 1 n v u K M K [ [ R 0.6.X.{ N.} X J ` ] / J ....J K K x ` ` ~ ) : N p m K m M n M G K n K n ",
"c.I 1.1.<.4.W <.U 1.5.R 1.<.R U v.# 5 n j u H M E ] ] [ e.6.6.[ n.' o L ^ J L L P | J J ^ M ] J P { : B b N B m m p v G G G G m ",
"c.U 2.7.4.4.<.1.U 1.2.<.<.1.2.1.f.# 7 N n j n H E [ 6.0.e.q.0.[ n.~ o J ^ J C G | ..J J P J ` / P { : i b T M m n r p H K G G u ",
"M.U R 1.5.W R 1.1.<.R W R R 4.7.f.# 3 N M r w K T W W 6.d.q.q.O.n.K o C L L G J ^ ] J A x C ~ / P } : a m K H E r r p G E K n v ",
"n.<.<.<.4.1.B <.1.1.R 1.B B <.6.x.= 3 M j w l E R E [ 1.9.q.0.0.A.~ o C x J J J P E r e k l K J P { : m H H m r C p v K ~ M H m ",
"n.B R 4.<.<.R R W 2.>.1.R m W 4.x.# 3 M e w m K T E [ W 0.w.q.4.x.~ o C x J G K P K C l l J J l L ..o H m m u v n n M H E K K n ",
"n.U <.<.<.<.N 4.U 1.>.U 1.m B 4.x.# 3 v q 7 n T n T [ [ e.0.6.7.A.~ : L x J J P P / l l l J J J ^ ` X N a m p m p r K K E K K u ",
"M.U N <.B <.B B U 1.U s R Y B I y.X 3 w q 7 v n u R 0.[ e.w.X.0.A.' : J x n P P P / e l k k K ~ ^ ^ * p u m p M p r M N N E m v ",
"n.U I I >.R R R U 1.U B U 1.R T y.> 7 w e 7 m m n T 6.W 7.e.X.[ A.~ : L J L K J J P e x k k G j J ^ X H y m p p r r n H H T v n ",
"m.Y I s R B R B U 1.R U U 1.W R y.= 3 j j w M m m T [ E W 8.6.0.x.K , L ^ G J J G K x k e x x G M K o m u N H p r w p m H H v M ",
"M.Y I s R R R I B 5.<.R R R 5.[ a.> 3 w x w u m b K [ T T W q.0.v.~ o C J A J G K P x w w l j G J P * b u n p r w e p n H a n p ",
"n.,.s H W W R U R 4.<.B B R 4.6.z.> 1 j w 3 p m v T ] R W W 8.0.f.M O l l l G G K ~ l l j M l n A ~ X b u b n n w p p p T N v a ",
"c.,.U s Y U R I R 1.<.B B U <.W u.: 1 b w 3 u n p T [ E [ 3.Y q.x.f : ^ C k n l P G k r w x k k k ~ . i u n u v r G n m H T m a ",
"M.Y U m 1.U R B U <.1.B B B R R f.6 3 b w 3 7 v u m H a I 6.Y [ A.M : ^ G l x n K G k x j w j l l P # a w m w v p v b m T K m a ",
"m.,.U I U U B U U <.1.U B B B >.f.# 3 B w 7 y u u n N b n W q.m f.j : ~ x n l l K M j M n k n l l } # u 0 n w M p w v n T N v b ",
"m.,.>.s U U B B B R <.U B R >.U f.: t a u 0 7 u y b N N T I 0.[ f.q o K x G G l K J q r r l x r l O.# 4 v v v v w w w b T N n p ",
"M.2.>.m U B B B R R R R B <.<.B u.# b b f y 7 u y m N N T R E 0.f.j o G l v j C K l h h 9 l x G A E   4 v u v j u w u b N m p a ",
"M.,.>.s B U U B R 1.R 1.B B <.>.f.d i b n 7 w 7 0 m T B T R R [ r.d : K A J e r n M h h < 9 k r J { . 7 p y u 7 u u m m a m w u ",
"M.2.>.I U B R U B 5.B <.B B 1.2.Z.5 b m u 7 b u a I R R R R T 0.f.6 X M l l r C n l k q q 9 h j J ' . u b u y 3 0 u u K m m w 4 ",
"M.<.<.B U B U U B <.<.<.2.1.<.5.Z.5 i B u u 7 u m I T B T R B b e.>   x l j l r M j k 9 q k e k A X.# m b p 3 3 u u u b a p u i ",
"M.<.,.s B U I B R 1.<.<.5.5.<.5.Z.6 a y 7 u y p m I I B R E T u 6.-   l l k n l l e h h h h e 9 J X.* m i p u u u v v v p p u a ",
"M.<.<.a B R W U U 4.1.W 5.5.5.1.C.6 t y p 7 u v u a N m W Y T p [ * O l 9 l A l x h 6 q l q e q l e.* a u N u i u b p u p p 7 i ",
"M.2.>.a B I 1.<.B 2.>.U 5.5.2.2.Z.6 2 b u u n v u u u 0 u E Y N W X o C k l l e l h 9 q h q k h 9 X.* m i N i b v v u y p v v i ",
"m.,.>.a B R R B R 5.1.U 1.7.7.2.Z.f % b u u m 0 u H m v p b T R 4.X o C k r r e k h h 9 k < 9 9 9 ] * m m m m m p u u u p u 7 i "
};
