/* XPM */
static char *_31711733665[] = {
/* columns rows colors chars-per-pixel */
"64 64 60 1 ",
"  c #F8637F",
". c #FAAE5D",
"X c #FAB657",
"o c #FBB659",
"O c #FAB858",
"+ c #F9B761",
"@ c #F9B962",
"# c #FD1B87",
"$ c #FC1D8A",
"% c #FB2284",
"& c #FB238C",
"* c #FB2C8E",
"= c #FC2E91",
"- c #FD259C",
"; c #FB289C",
": c #F93695",
"> c #FB36A1",
", c #F83FA4",
"< c #F94689",
"1 c #F8488C",
"2 c #FB539B",
"3 c #F67385",
"4 c #F840A5",
"5 c #F84CAA",
"6 c #F85AAF",
"7 c #F85BB2",
"8 c #FB67A4",
"9 c #FD6CA4",
"0 c #FA6CA8",
"q c #FD76A7",
"w c #FE7DA9",
"e c #FD82AD",
"r c #FE86B4",
"t c #FE8AB4",
"y c #F8B5A5",
"u c #F8C0B3",
"i c #FBD6B7",
"p c #FBD6B8",
"a c #FBD8BD",
"s c #FA86C3",
"d c #F88BC4",
"f c #FA95C6",
"g c #F99BCD",
"h c #FAA2CF",
"j c #F9ABCF",
"k c #F9B3D7",
"l c #FDB9D2",
"z c #F8B5D8",
"x c #F9B9DA",
"c c #FAC4DD",
"v c #FCE2DC",
"b c #F7D4E4",
"n c #F9D4E5",
"m c #F9D8E7",
"M c #FAD7E8",
"N c #FAD9E9",
"B c #FCE4ED",
"V c #FDE9EC",
"C c #FDE7F0",
"Z c #FEEAF2",
/* pixels */
"bnnnnnncnnnnnnnnbbcbnbnnnnnnnnnnnnnnnnbnMMnnnMnnMMnnnnnbnnnnnbnn",
"nnnccnnnbbnnnnnnnnnnnnncnnbnnnnnnnnnbnnnnnnnnnnMMnnnnnnbnnnnnnnn",
"nnbnnnncncnnnnnnnnncnnnbnnbcnnnnnncnnnnnnMnMMnnMnnMnnncnnnnnnnnn",
"nncnnnnnnnnnnnnnnnbnnnbncnbnnnbnbnnMnnnmnnnnbnnnnnnnnnnnnnnnnnnn",
"nnnncnnnnnnncnnnnnnnMMbnnnnnMnbnnnnnnnnnnnnnnnnMnnnnnnnnnnnnnnnn",
"nnnnbnnnnnncnnnnnnnnbnnbnncbnnnnnnnnnnnnnnnnnnnnnnnbnnnnnnnnnnnn",
"nnbccnnncnnnnnnnnnnnnnbnnnnnnnnnnnnnnnnnnnnnnnnnnnnnnnnnnnnnnnnn",
"cnnnnnnnnnnnnnnccnnnnnbMnnnnnnnnnnMnnMMnnnnnMnnnnnnbnnnnnnnnnnnn",
"ncnnnnnnnnnncnnnnncnnnnMbnnbnnnnnnMnnMMnMnnMnnMnnnMnnnnncnnnnnnn",
"nnnncnncnnnnbnnnnnnnnnnnnnnbnnnnMnnnbnnnnnnnnnnnnnncnnnnnnnnnbnn",
"nbncnnnnnnnnnnnnbnnnnnnMnnnnnnnnnMMMMnnnnnnnnnnnnnnnnnnnMMnnnnnn",
"nnnnnnnncnnnnnncnbnnnnnccnnnnnnnMCZZNnnnnnnnnnnnnnnnnnnnnnnnnnnn",
"cnbbnnnnnnncnncnnnnnnnbbMnnnnnNCZz6rZNbbnnnnnnnnnbnnnnnnnnnnnnnn",
"nnnncnnnnnnnnnnnnnnnnncnnnnnBZCk5--4ZNnnnnnnnnnnnnnnnnnnnnnMnnnn",
"nnncnnbcnnnnnnnnnnnnnnMnMnnCNg5--;-4ZNNbnnnnnnnnnnnnnnnnnnnnnnnn",
"nnnnnnbnnnnnnnnnnnnnnnnMnnBN,------4ZNmmnnnnnnnnnnnnnnnnnnnnnnnn",
"nnnnncnnnnnnnbnnnnnncnnnnnBx-------4ZNMnnnnnnnnnnnnnnnMMnnncMnnn",
"nnnnnnnncnnnnnnnnnnnnnnMnbNx----;--4ZNnMnnnnnnnnnnnnnnnnnnbbnMnn",
"nnnnnnnnnnnnnbnnnMnnnMnnnmBz-------4ZBMnnnnnnnnbnnnnnMnnbnbnnnbn",
"cMnMnnnnnnnbnnnnnnnnnMnnnMBz----;-;4ZNMnnnnnnnnnnnMnnnnnbnnnnnnn",
"bbnnnnnnnnnbnnnnnnnnnnnnnMZz------->ZCnnnnnnnnnnnnnnnnnnnnnnnMnn",
"bnnnnnnnnnnbnnnncnnnnnnnMCvy    3 33aZNMnnnnnnnnnnnnnnnnnnnncMnn",
"nnnnnnnncnnnnnnnnnnnnnnnnBiooooo.XoooVMnnnnnbbnnnnnnnnnnnnnnncnn",
"nnnnnnnnnnnnnnnnnnnnnnnnnNioXXooXXXo@BNnncnnbnnnnMMnnnnnnnnnMbnn",
"nnnnnnnnnnmnMnnnnnnnbnncbBpooooooooo+BNnnncnnbnnnMnnnnMccMbbbnnn",
"nnnnnnnnnmmnnnnnnnnnnnnnbBiooooooooo+BNnnnnMnnnnnnnnnnnnnnnnnnnn",
"nnnnnmmmnmnnnMmnnnnnnnnMnBpooooooooo@VNnnnnnnnnnnmnnncnnnnnnnnnc",
"nnMnnmmnnnmmnnnnnnnnnMnnnBiooooooooo+VNnnnnnnnnnnnMnnnnnnnncnnbn",
"nnnMnnnnnnnmnnnnnnnnnnncnBpooooooooooBNnnnnnnnnnnnnnnnnMnnnnnnnn",
"nMnnMnnnnnnnMMnnnnnnMnnnnCiooooooOoo@VNnnnncnnnnnnnnnnnnnnnnncnn",
"nnnnnnmnnnMmMmmbnnnMnnnnnCpooooooooo@VNnnnnnnnnnnnnnnnnnncnnnnnn",
"nMnmnnmnnMMMmmnmnnMnnnnnBCpooooooooO@VNnnnncnnnnncnnnnnnnncnnnnn",
"bbmmMNMMMnMMmmnbnmmnnnnNZcu...OOOOOO@VZCnnnnnnnnnnnnnnncnnnbbbnb",
"mmMMMMMbmbmbbMMbnnmMnnnBZ*$#% <<<<<<17hZnnnnnnnnnnnnnnnnnnnncnnb",
"mbMNmmbMnMMmmMMbbnMnnMmNZ=####;---;---sZMnnnnnnnMnnnnnnbncnnbcnn",
"mMNNMmbbnMMbmmmmnnnnMmMNZ021*&;;;;;;;-sZncnnnnnnnMnnbnnnnnnnbnnn",
"MbMmbmMmMMNMmmmMmMmmmmnNZewewwerrrrrrrlBnMnnnMnnMnnnnnnnnnnnnnnb",
"mbmmmmMmbmNMmmmmMMmmMMnBZtwwqettrtttttlZnbnnnnnnnnMnnnnnnnnnnnnn",
"MbmmMNMmmNNNMMmNmMmmMmmNZewwwetettttttlZMmMnnnnnnnMnnnnbcncnnnnn",
"MmmMMmMMmmmmmmmmMnmmnnmBZewwwettttttttlVnmbnnnnnnnnnnnncnnnnnnnn",
"MbbMmmMmMmmmmmmNmMmMbnnNZeewwettttttttlZMnnnnnnnnnnnnnnnnnnMnnnn",
"mMmmmbmmmMMMmMmmmMmmMnMNZtwwwettttttttlZnnnMnMnnnnnnnnnnnnMnnnnn",
"mmmmMmmMMbmmmNNNmNMmnnMBZewwwwttttttttlZnnnncnnncnnnnnnncnnnnnnn",
"MmMMNmmmbmmmNNMNNNNNMMnNZewwwettttttttlZnnnnnnnnnnnnnnnnnnnnnnnn",
"NNNNNNNNmmmMMmmNmMmmMmmNZrwewettttttttlZnnnMMnnnnnnnnnnnnnnnnnnn",
"mNNNNNNNmmMmmmNmMmMmMMmBZewwwetrttttttlZMnnMMnnnMMMnMnMnnnMMnnnn",
"bNNbmmNNNMmMmmmNmmmmmNmNZewwwettttttttcZMMnMmnnnmmmbMnnnnMnnnnnn",
"bbNbmbmNmNNNmmmNNMmmMMMNVewwwetrttttttlZMMnnmnnnbnnnnnMnnMnnnnnn",
"bbbMnMmmmmMMmmmmmMMNNmmBZ89qwwrrrrrrrrlZNMMnnnnnnnnMnnnMMnnnnnnn",
"NNbbnmmMmmMMMMMmmNNNmmmNZ=#&*=>>>>>>>>dZNMnnnMMnnMnnMnnMnmnnnnnn",
"bMbNMbmmbMnnmMmbMNmmMmmBZ:###$--------sZNnMMMnnnnnnnnMnbmmmnnnnn",
"bMMNbmmnbbnMbmmmNmmmmmmMZVmcjfddddddssxCNNMMMnnMMnnMnMnnnnmnnnbn",
"bbbMbMnnMmnnmMmMmmmmMnnMMBNBCCZZCZZCZZBBNNmNMnnnnnnbMnbnnnnnncnn",
"bMbbmMbMMMMMMbmmmmmmMnnnmmnnnMMMMMMMmmmmNnmNmnmnnMnnnMnnnnnnnnnn",
"MMMMmbnMnnnnnmmbNNNmMMnnbmnnMMmnMmnMmmbmbmmmmmMnnMnmmmnnnnnnnnnn",
"bMbbmMnnnnnnnmMnnNnnnMnnnmbnnmbnMmMnnnmnmnmmnMMnnnnnnnnncnnnnnnn",
"nbmmnnnnmbmnnnNmnmnmnnnnnnnnnnnnmnmnnnnnnnnnnnnnMnnnnnnbnnbbnnnn",
"nbmnvnmnbmmnnnmNnnnnmmnbMnmMnnnnnnnMnnnnnnnnnnMMMnnnnnnnnbbnbnnn",
"nnnmmbbnbnnnmbmnnnMnmbnbnnnMnnnnnnnMmnnnnnnnnnnnnnnnnnnnnnncnnnn",
"mnbmbnnvbnnnmmbmnnnnnbvbnnnnMnnnnnnnbnnnnbbnnnnMnnnnnnnnnnnnnncn",
"bnnmnnnnnnnnbmbmnnnnnnnnnnnnnnnnnnnnbbnnnnnnnnnnnbnbnnnnMnnnnnnb",
"nnnnnnnnnnnnnnnbnnnnnnnnnnnnnnnnnnnnnnnbnnnnnnnnnnnnnnbnnnnnnnnn",
"nmmnnnbnvbnnnnbnnnnnbnbnbnnnnnnnnnnnMnbbnnnnnnnnnbnnnnncnnnnnnnn",
"nnnmnnvnnbbnnbbbnnvbnnbnbvnMnbvnnnnnnnnnnbbnnnncnnnnnnMnbnnnnnnn"
};
