/* XPM */
static char *_31711898838[] = {
/* columns rows colors chars-per-pixel */
"64 64 65 1 ",
"  c #F9557A",
". c #F9686F",
"X c #FA6D77",
"o c #F9627C",
"O c #FAB84F",
"+ c #FAB353",
"@ c #FABA54",
"# c #FBB55A",
"$ c #FABC58",
"% c #FAC276",
"& c #FAC078",
"* c #FC1A97",
"= c #FC1B9E",
"- c #FB208A",
"; c #FB378C",
": c #FB2293",
"> c #FC2299",
", c #FD2A9D",
"< c #FD21A0",
"1 c #FC29A1",
"2 c #F933A0",
"3 c #FA3BAA",
"4 c #FB4D99",
"5 c #F87382",
"6 c #FA42A7",
"7 c #F94DAC",
"8 c #FB55A5",
"9 c #FB5BA9",
"0 c #FA56B1",
"q c #FA58B2",
"w c #FC6CAD",
"e c #FD76A4",
"r c #FB7BA6",
"t c #FD7EAA",
"y c #FD82AD",
"u c #FD88AE",
"i c #FC83B1",
"p c #FE8AB3",
"a c #FB86BD",
"s c #FE91B6",
"d c #FD9DBF",
"f c #FAAFAA",
"g c #FAD6B6",
"h c #FAD6B8",
"j c #FBE0BA",
"k c #FB85C5",
"l c #FD97C7",
"z c #FDA2C0",
"x c #FBA1D6",
"c c #FCB3D7",
"v c #FCBEDE",
"b c #FCC1DB",
"n c #FCE0D8",
"m c #FCC2E0",
"M c #FACEE1",
"N c #F7D3E4",
"B c #F9D4E5",
"V c #F9D8E7",
"C c #FBD7E8",
"Z c #FAD9E8",
"A c #FCE4ED",
"S c #FCE9EE",
"D c #FCE4F2",
"F c #FDEBF1",
"G c #FDE9F9",
/* pixels */
"NBBMMBBMNMBBBBMBBNNBBMNBMBBBBBBBBBBNBVBBBBBBBCCCCBCNBBBNBBBBBNVB",
"NBBMMBBMBNBBBBBMBBMBBBBBBBNBBBVBBBBMNBBBCCCBBBNCNNNBBBBMBBBBBbBC",
"BBMMMBBBBMNBBBBBMBBMNBMMMNNNBBCBNBNBBBBVBCBBBCNNBBBBBBBBBBBBBBBB",
"BVbNBMBMMBBBCBMBBMNBBBNBMMNMMNBBBNMCBBBBBBCCNBNCBNBBBBBBBBBBBBBB",
"BNNMNMBBBBBMMMNBBBBBCCNNBNMBBMNBBBBBNBCBMBBBBBBBBBBBNMBBBBBBBBBB",
"MBBNMBBBBMBBBBBBNBMBNCBNBMNBBBBBBBBBBBNBBBBBBBCBBBBNBBBBBBNBBBBB",
"BBNMMMBBMMBMBMMMMBBBMCNCBNMBBBBBBBBBBBBBCBBBBBBBBBBNBBBNBBBNBBBB",
"BMMNNNBBNNBBBBBBNBMNNBNCCBBBBBBBBBBCBCCBBBBBBCBBBBMNBBBNMBBBBBBB",
"MNCMBBNMBBBBBNNBCNNMBNBBBBMBBBBBCBCBBCCBBBBCBBCBBBMBBBBBNNBBBBBB",
"BNMNNMBNNBNMMMBBNCBBCBNCBBBBMBBBBCCBMNNBBBBBCBCBBBBBBBBBBNBBBNBB",
"NMBNNBBBBBBBNBMBNMBMNBMNBBNBBBBNBCBBNBBMBBBBBBBBBBBBBBBBBCBBBBBB",
"BMMBMBBBMBMNBBMBBBBBBBBMMBBBBBBMMBBBNBCNBBBBBBBNBBBBBMBBBBBBBBBB",
"MNNMCNMCMNNNMBMBBBNMMBBMNBBBBBBBBBNBNBNNBBBBBBBBBNBBBMBMBBBBBBBB",
"BBNNMBMBBBMMBBBBBBBBBMBBMBNNBBBBBBCNBBNBBBBBBBBBBMBBBBBBBBMBBBBB",
"BMBMBMNNBBBBBMBBNBBCBBBBBBBNBBBBBBBBBBBBBBBBBBBMBBBBBBBNBBBBBBNB",
"BBBBMBMNBBBBBBBBBBBBBNBBCBBBBBBBCCVNBBBBBBBBBBBBBBBBBBNCCBBBBBBB",
"BBBBMMBBBNBBBMBBBBBBNBBBNNNNBCBBBCBBBBBCMBBBBBBBBBBBNBCCCNBBNBBB",
"BBBBBBBBNBBBBBBBBBBBBBBBCNBBNNBBCBBBBBBBBBBBBBBNBBBBNCNNNNMNNBBB",
"MBBBBBMBBMBBBNBBBBBMBCBBCNCCBBBBBCNBBBCBBBBBNBBMBBBCCCCMMNNBBBBB",
"BBBBBNCCBNMNBBBBBBBBBBBCNBNNBBBBBBCBBBCBBBBBBBNBBBBBBCBBBNNBBBBB",
"MBBNBBBBBBMNNBBBBBBBBBBBCCBNBBBBZDBBBBBBBBBBBBBBBBCBBBBBBBBBBBBB",
"NBBNBBBBBBBBMMBNMBBBBCMBCBCCBBZFZMZNBBBBCBNBBBBBBCBBBBBBBBMBBBBB",
"NBBCBBBBNBBBBBBBNBMBBBBBBBBBBACk36DCBCBMBMBBBNNBBBBBBBBCBBBBNBBB",
"BBBBBBBBNNNVBBBBNMBBCBBBBBBBZv2**6ZZCBCBBBBMNMBNCBCBBBBMBBBBMBBM",
"BBBBNNNNNNBCBBBBBNBBBBBBMNBMAz>1>6ZZBBCBBBMBBBBBBBCBBMMNBBMNNNCB",
"CBNCCCNNCCNBBCBBBBBBMBMNNBBMSx=<=3ACCCNNMBBBBBCNCBBBMNNNMMBBBMBN",
"BBBBCCCNCNNCBBVBBBBBBBBBNNCBSfooo5nDCBBMBBBBBBNCVNBBNBBBBBMMBMMN",
"BNBCNCCCVCNCBBBCBBBBBBBBMNBCA%O$$@gDNBBBBBBBBBBBBBBBBBCBCBBBBMNB",
"BCCBNBNBBBBVCBBCBCBNBBBBNBBCZ&+###hDMNNBNBBBBBBBMNBMBBBCBBBCBMBB",
"NBBBCBBBBBBBVNNCBBBBBBNBBBCCA&+##+hDNNBBNBMBMBBBNMBBBBBBMBMBBBBB",
"BCNNBBBBBBVVVVNNNNBBBBBBBBBCA%+##+gDBBBMBBNNBBBBBBBBCBMCBBMBMCBM",
"BCCBBCBCBBCCVVBNBCBCBBBBBBMZS%@$@@jGBNMBBBMBMNBBNMBBBMBBBMBBBBBB",
"VNZZNZCVVVBVVVBNNCVBBBBNBBCFa .XXXtCANMCBBBBBMBBBBBBBBBBMBBBNNCN",
"VNZZZCCVBVNCBVVNNCVBBBBNBBBAw-:,11*cACNNBBBBBBBBBBBBBMMBMBBBNMNN",
"ZVZZNCNBVBNVVBCNBBCNBBCNNNNSzrtytatbABBBNBBBBBMBCCBBBBBBBMNMBMMN",
"NNZZZNNBBCCVVCVVBCVBCCNCBBNSleypppiBZBBBVbNBBBBBBCBBBBBBNBMBMNBB",
"ZNZZNVVVCZZZVBVVCVNNBBCCBBBDdeypppuBABBBBBBBBBBBCBBBNBBBBBMNNBBM",
"CNVVCVVVCNZZVVZZVVVVCZCVBBCAdeyuppyBABBBBBBBBBBBBBNNNMBBMBBBCNCN",
"CNVVCCZNZZZZCCVVVCVVZCBCNCCAdetpppybZMBBVNBBBBBBNNCCNBBNBMNMBBBN",
"ZCNCVVZVZZZNVVVVVNCCBBZBBBBAdtussspBDBBBBVBBBBBBBCCNNBBMBBBBBBNM",
"ZNZZNZZZVVVVVVVVVCNVCBBCVVBDw;48884bABBBBBBBBBBBBNBBBBCNMNBBBBMB",
"ZNZNNZNZVVVVVVVVVCVVNBBBCNNDl99q007mABBBBBBBBBBMBMBBBBBNNBCBBBBB",
"VNVCZNVZVBVVVVZZZZZZBBCBVVZZFFFDAADDCBCBBBBBMBBBNBBBBBBMMBBBBBBB",
"ZVZZZZNZBBVVZZVZZZZZCBBCZZZNNNCCVCCCCBCBBBBMBBBBBMBBBBBBNBBBBBBB",
"ZZZVZZZZVVVVZVZVZVVVCCNVCZZZCNNZZVBBBBCCBBBBZCBBCNBNBBBNBBBCBBBB",
"VZVVZAZZBBCCCVZZZVVCVVVNVZNVVZZNVVBCCBBCBBBCZBBBCCCCCNCBBBBBBBBB",
"VVVVNZZZZZVZCVVVVVVNNCVNVZZZZZZNCCCBBCBBCCNZVNBBBBNBCCBBBCBNBBCB",
"NCVVVNVZZZZZVBVZVVVVCVVVZZZVNVZVBCNNBCBCCCBBBBBBBNBCBBBBBCBBCCBB",
"CNNCVBVVVVZCBCNCZZZZVVVVVVBBNVCZVNZVNCCVCCCBBCBBCBBBBBBCZBBBCBBB",
"CCNNBBVVBVZCBCZNVZZVZVVVVBBBCCNVVNCVVVNVVVNCBBBNCBBBCBNBCVBBBNBB",
"VCNVVBBVNVBBVZZNZZZVZVVVBBBBVBVBBCCNNVCBZVCCBBNBNCBBCCBBNNVNBBBB",
"NNCVVVBNNCBVVZNZZZZBVVVBVBBCBNNVNBNNVCCVVVBZBCNCCBBCBBBBBBCBNMBB",
"BBBVBCNCCVBVVVCZVVBVCBBBBVCNVBBVCNCVVVVVZZZVCCCCCNNNBBNBBBBBBMBB",
"NCVNNVVVCCCCVNBNVVVVBBBBCBBNCCVCCVCVVVCCVVVVCNNCNCCNBBBBBBBBBBBN",
"CNNVBBBVNNBBCNCNVVCCZCBBBBVBVVBVCVNZVVNNNVVVCCCBCBNCCNNBBBBBBBBB",
"NCVNVVBBBBBVVNVZVVNCCBBBBNBBVNNBCNCVNCVCNCCVBCBBNBBNCCBNBBNBBNVb",
"BBVVnBBVNBBBBNVVBCNCNVBBBBNVBBBCBNCBBBBBNBBBBBBBBBCBBBCMMBBNBBMN",
"VBBVBBVBNNVBBVVZCBCBNNBNBCBBBBBBBCCCBBNBBBBBBCCBZCBMNCBBMBBMMBBN",
"BBVBBBBBNBBNNBVCNBVCVBBnBBCBCBBBBBNBNBBBBNBBBBBBBCBBNBBBNNBBBBBB",
"VNBBBNNnVBVVVVBNNBNVBBBBBCBBBBBBBBBBBNBBBBMBBBCCCBBBNBBBNCMNBBBB",
"NBVBVBBBNNCCVVVNNCNBBBVMBCBBBBBBBBBBBBBBBBBBBBBBNNNNMBBBCBBBBBBB",
"BBCCNVBBVNBBNBNNNCBBBBBNBBBBBBBBBBBVBBNMNBBNBBNBNNBNNBBBCNBBBBBM",
"NCNNBVBBNnBBMBNNNNBBBBNCBBBBBBNNBBBVBBNNBBBBBBMBBBBBNBNMNBBBnMBB",
"NNBCBBBNNNNBBBBNNnMBVBnBBBBBBNMNnBBBCBVBCBMBBBBMNBBBNNCBMNBBNBBB"
};
