/* XPM */
static char *lipstick1712085560[] = {
/* columns rows colors chars-per-pixel */
"64 64 67 1 ",
"  c #F9557A",
". c #F9686F",
"X c #FA6D77",
"o c #F9627C",
"O c #FA6E78",
"+ c #FAB84F",
"@ c #FAB353",
"# c #FABA54",
"$ c #FBB55A",
"% c #FABC58",
"& c #FAC276",
"* c #FC1A97",
"= c #FC1B9E",
"- c #FB208A",
"; c #FB378C",
": c #FB2293",
"> c #FC2299",
", c #FC29A1",
"< c #F933A0",
"1 c #FB3DA5",
"2 c #FA3BAA",
"3 c #FB4D99",
"4 c #F87382",
"5 c #FA42A7",
"6 c #FB4AA0",
"7 c #F94DAC",
"8 c #FB55A5",
"9 c #FB5BA9",
"0 c #FA56B1",
"q c #FA58B2",
"w c #FC6CAD",
"e c #FD76A4",
"r c #FB7BA6",
"t c #FD7EAA",
"y c #FD82AD",
"u c #FD88AE",
"i c #FC83B1",
"p c #FE8AB3",
"a c #FB86BD",
"s c #FE91B6",
"d c #FD9DBF",
"f c #FAAFAA",
"g c #FAD6B6",
"h c #FAD6B8",
"j c #FBE0BA",
"k c #FB85C5",
"l c #FD97C7",
"z c #FB9ECF",
"x c #FDA2C0",
"c c #FBA1D6",
"v c #FCB3D7",
"b c #FCBEDE",
"n c #FCC1DB",
"m c #FCE0D8",
"M c #FCC2E0",
"N c #FACEE1",
"B c #F7D4E4",
"V c #F9D4E5",
"C c #F7D8E7",
"Z c #F9D8E7",
"A c #FBD7E8",
"S c #FADAE9",
"D c #FCE4ED",
"F c #FCE9EE",
"G c #FCE4F2",
"H c #FDEBF1",
"J c #FDE9F9",
/* pixels */
"BVVNNVNNNBVVVVNNVNVVVVBVVVVVVBVVVVNVVVCVVVVVVCVAAVVVVVVBVVVVVNVV",
"BVVNVVVVNBVBVVNVVBBBNVVNNBBVVVVVVVVVVVVVAVAVVCVVAVVVVVVBNVVVNVVZ",
"VVNNNNVVVBVVVVVVVBVNBVVVNBNBVVVVVVBVVVVVAVVVZVVVVVVVVVVVVVAVVVVV",
"VZnBVVNVVNVVAAVVVNBVVBNVVNBNBVVVVVNVVVVCVVVVBVVVVVVVVVVVVVVVVVVV",
"VBBNVNNVVVNVNNBVVBVVSVBNBBVNVVVVVVVVBVVVVVVVVVVVVBVVVBVVVVVBBVVV",
"NVBBNVVVVNVNNVVVVVNVVVCCVVBVVVVVVVVVVVVVVVVVVVAVVVVVVVVVVVBVVVVV",
"VVBNNVVVNNVVNVNNVNVVNVVVVVVVVVVVVVVVAVVVAVVVVVVVVVVNVVVNVVVVBVVV",
"VNNBBNBVBBVVVVVVVVNVVVVVVNNVVVNVVVVVVAVVVVVVVAVVVBNBBVVBNVVVVVVV",
"BNVBBBVVVVVVNBBVVVVVVVCVVVVVVVVBVVVAVVVVAVVVVVAVVVVVVVVVBBVVVVVV",
"BVNBVNVNVBVVNBVVCVNVVBVVVVVVBVVVAVVVBVVVVVVVVVVVVVBVVVVVBVVVVBVV",
"NVVNNVVVVVVBVVVVVAVVVVCVVVAAVVAZAAAAAZZVASVAVAVAVVAAVNVVVAVVVVVV",
"NVNVBAVVNBNASAAASASAZSSCAASSSAAASSSSSSSZSSSSSSDVSASSAVVVVVVVVVVV",
"NVBVVNVVBNVAVANNVVBVNNVNVVNVVBVNVVVVVVVBVAVVVVVVVVVVAABVNVVVVVVV",
"BBBNVNNVBBBAAVVVVVBVVBVVVVVVVVVVAVVVVVVVVVVVVVVVVVVVSAVBVVVVVVVV",
"VVVNNVNVBVAAVVVVBVVZVVVVVCVVVVVVVVVVVBVVVVVVVVVVVVVVAAVVVVVVVVBN",
"NVVBVVBNVVVAVVVVVVVVVVVVVVVVVVAVZZZVVVVVVVVVVVVVVVVVAVVVVVVVVVVV",
"VVVNVNVVVBVAVVVVVVVVNVVVVVVVVVVVVVAVVVAVBVVVVVNBVVVVSVVVVCVBBVVV",
"VVVVVVNVBNVAVVVVVCVVVVVVVBVVBVVVACVNVVVAVVVVVVVBVVAVSACCNBVNBVVV",
"NVVVVBBBVBZAVVVVVVVBVAVVVCAVVVVVVAVVVVAVVVVVVBVBVVVASSVNBNVCVVVV",
"VVVVVBAAVBVZVVAVVVVNVVVAVCVVVVVVVCAVVVVVVVVVVVBVVVVVSAVVVVVVVVVV",
"NVVBVVVVVNVVVBVVVVVVVAVVAACBVVVVSFVBAVVVVVVVVVVVVAVVSVVVVVVVVVVV",
"BVVBVVVVVVCZNVVBNVVVVVBVVVVVVVAHSMDBVVVVVVBVVVVVVVVVSSVVVBVVNVVV",
"BVVAVVVVVBAAVVVBNVVVVVNVVVVVVDAk11DVVAVVVVVNVVBVVVVVSVVVVVVVVNVV",
"VVVVVVVVVVVSVVVVNBVVAVVVVVVNDb<**5DAVVAVNNVVNBVVVAAVSVVVVVNVVVVV",
"VAVVBVBNVBASVVVVVBVVBVVBBVVnDz:,>5SAVVVVVNNVVBVVVVAVAZVBBVNBBZZV",
"VVVVAAVBAACCVAVVVVVVVVBNBVVBFc=>=2DSAAVVVVVVVVVVZVVVZZnBnVVVVnVV",
"VVVAACABVZCSVAAVVVVVVVVAVVVVFfooo4mGAVVBVVVVVVVVVVZVZVVVCVBBVnBB",
"VVVVBAAAVVSSVVVVVVVVVVVVBVVAD&##%@gGVVNVNVVVVVVVVVVVAZAVAVVNVVVB",
"VAVVVVBVVVASAVVVVAVVVVnABVVVD&@$$@hGNBBBBVVVVVVVBnZVSAVAVVVVVVVV",
"VVVAAVVVVVSSCSVVVVVBVVVVVVVAD&@$$$hGVVVBVVVVVVVVBVVVAVVVNVVVVVVV",
"VVBBVBAVVVSSCSCBVVVVVVVVVVVAD&+$$@gGVVVNVVVVNVVVBBVVAVNVVVVNVVVV",
"VABABABAVVSSSVVBVCCCVVVVVVnDF&+#%@jJVVNVVVBnVBVVBVVVAVVVVNNVVVVN",
"VCSVVSZVVVSSCCVBVVVVVVAVVAVFa .OXXtASVNVVVVNVVNAVVVVAAVVVNVVVBVB",
"VVSSZASBVCCSVCABVVCVVVVVVVVGw-:,,,:vHAVVVNVVVVVVAVVVAVVVVVVBBBNB",
"VVZSVZBVAASSCSVVVSSCVVVVBVVGxrruiitnSVVVVVBBNANVVCVVAVVBVVNNNBBB",
"CSSZSCCVCSSSCSCSVVVVASVVVVVDdeypppiVDVVABNVVVVVACCVVVVVVNVBNBNVV",
"VCVCCCVSVASSSVSCCVCVVZVVVVVDdeypppuNDVVVVVVVVVVVVVVVSVBVVVVBVVBN",
"ACZVACAVCVSSVVSSSAVCAAZZVVVGdeyuppuVSAVVVVVVVVVVVVAAVVVVNNVNVVVV",
"AVVSAAACCSSDSSACZSZCAAVAVVVHdetpppynSNVCVVVVVVVVVVVVSAVBVVVBVVVB",
"AVCSACASASSCCCCSSZZVVVAAVVVDdyussspVGVVVVVVVVVVVVVAVZVVBNVVVVVNV",
"SCCSCVSSSSSSSSVSVSBVVVVAVVVGw;38886nDVVVVVVVVVVVVVVVAVVBNVVVVVNV",
"CBAVVCCACVSSCCCCCAVCAVVVVCVHl99q007MDVVVVVVVVVVNVVVVAVVBBVAVVVVN",
"VVCVACCAVCSDVSSSSSSCVAAVASSSHHFDDDDGAAAVVVVVNVVVBBVVAZVVNVVVVVVV",
"SCSSSCVZBCCSSSSSSSSSVVVVVSSVBBVASZSVAVAVVVNVVVVVVVVSSVVVVVVVAVVC",
"SSSSSSSSAVSSSVSSSSSVAACVACCVAVVVSZVVVVAVVVVVAAVVVVVVSAVVVVVAVVVV",
"CCAVSSSSCCASSCSCCCSVZSVCCSCCCCVCSVVAAVVAVVAZZVVVVVSZSSVVVBVVVVVV",
"VASCCASSSSSSCSCSCACCVSVCASSSZSSCVSAAVAVVVAVZCVVVVZVVASVVVAVVVVVV",
"BCAVCVCCSSSSVCVSSVSVSVVCCSSSVVZCVVVVVAVAAAVAVVVVVVVVAVAVVVBVAAVV",
"VCCVVVCZZZSSZSCCSSVZSCCSSACCCVSAVBSSCVVSAAZVVAVVSVVVAAZZAVVVVVVV",
"VSBVVCAACCSSASAVCSSSSZVCCVVVVSCVVVCSVVCCZZVVVAVVVVVASAVVZZVVVVVV",
"VVCVAVCVVCASCAVCSSSZSSVAAVVVVAZCSAVVZVVSSZZAAVAAVVSVSZVVVBVVVVVV",
"AVVAZVCCVVVSVCCASSSCVCCVAVVVVBCZVVVVSCSVZCAAAVVAAVBVZZVVVVZVNBBV",
"VVVVVZVVAACSDSSDDSSSDSASSSSSSSSSSSDSDSSDDDSSSSSSSSSSDVVVVVNVVBVV",
"VVVBVZCVSAVZCVVASSSSAAAVSSAVSSSSSSSSSSZSZZSSSZSSAAZZZVVVVVVVVBVV",
"VVSVCVVACVVAVVVZVZZVAVVVVVAVSVBVZVVSZVCCVVSZVVAVVVVBVVVVVVVVBVNV",
"VCCCCVVVNBVVVCZAZZZZVAVVCBBVSCCVSVVCVVVVCVZZVAVVVAVBVVVVVVBVVVVN",
"VVCVZVVVVCVVVCVZVVVVZCVVVVVVVVVVVVSVVVVVVVVVAVVVVVBVVVVNNVVVVBNV",
"CVVCBVVVVBZVVZSVVVAVVVVBVAAVVVAVVVVAVVVVVVVVVVAVAVVVVVVVNVBNNVVB",
"CVZZZVVVBmVVVCVSVVVVCVmVVVVVVVVVVVVVBVBVVNVVVVAVVVVVVVVVVVVBVVBV",
"VVBZBVmVBBVSVVCVCVVCVVBBVVAVVVVVVVVVVVVVBBBVVVVAAVVVVVVVVVBBVVVV",
"BVVVVVVVVCVVCCVCCVVVVVBBVSVVVVAVVVVVVVVVVVVVVVVVVBVBBVVBCVVVVVVB",
"VVAVVVCCCVVVVVBVVVVVVmNVVVVVVVVVVVVVBVVBVVVVVVBVVVVVBVVVCVVVVNVV",
"VVVVVVBVBNVVNVBBVVVZVVBCVVVVVVBCCBVZVVBBVVVVVVVNVBVVBVVNVVVVVNNV",
"VVVCVVmVVmBVVVBBBVVVVVVVVBVVmNBNVVVVVVVVVNVVVVBNBVVVBVVBNVVVVVVV"
};
