/* XPM */
static char *_31712000628[] = {
/* columns rows colors chars-per-pixel */
"64 64 81 1 ",
"  c #F9557A",
". c #F9686F",
"X c #FA6D77",
"o c #F9627C",
"O c #FAB84F",
"+ c #FAB353",
"@ c #FABA54",
"# c #FBB55A",
"$ c #FABC58",
"% c #FBBF78",
"& c #FAC276",
"* c #FC1A97",
"= c #FC1B9E",
"- c #FB208A",
"; c #FB378C",
": c #FB2293",
"> c #FC2299",
", c #FC29A1",
"< c #F933A0",
"1 c #FB3DA5",
"2 c #FA3BAA",
"3 c #FB4D99",
"4 c #F87382",
"5 c #FA42A7",
"6 c #FB4AA0",
"7 c #F94DAC",
"8 c #FB55A5",
"9 c #FB5BA9",
"0 c #FA56B1",
"q c #FA58B2",
"w c #FC6CAD",
"e c #FD76A4",
"r c #FB7BA6",
"t c #FD7EAA",
"y c #FD82AD",
"u c #FD88AE",
"i c #FC83B1",
"p c #FE8AB3",
"a c #FB86BD",
"s c #FE91B6",
"d c #FD9DBF",
"f c #FAAFAA",
"g c #F3AEBE",
"h c #F4B0BF",
"j c #FAD6B6",
"k c #FAD6B8",
"l c #FBE0BA",
"z c #FB85C5",
"x c #FD97C7",
"c c #FB9ECF",
"v c #FDA2C0",
"b c #F4AFC0",
"n c #F4B3C1",
"m c #F5B7C8",
"M c #F5BAC9",
"N c #FBA1D6",
"B c #FCB3D7",
"V c #FCBEDE",
"C c #F7C5D5",
"Z c #F8C6D6",
"A c #F7C8D7",
"S c #F7C7D8",
"D c #FAC4DA",
"F c #F7CADA",
"G c #F8CBDC",
"H c #FCE0D8",
"J c #FCC2E0",
"K c #F7CFE0",
"L c #F9CFE1",
"P c #F7D3E4",
"I c #F9D4E5",
"U c #F9D8E7",
"Y c #FAD7E8",
"T c #F7D9E9",
"R c #FAD9E9",
"E c #FBDEF0",
"W c #FCE4ED",
"Q c #FCE9EE",
"! c #FCE4F2",
"~ c #FDEBF1",
"^ c #FDE9F9",
/* pixels */
"PIILLILLILIIIIILIPIIIIIIIIIIIIPIIILPYTPIIYIIIUIIRRIIIIIIIIIIIIII",
"PIILILYLLIIIIIIIIILIIIILLIIIIIIYIIILIIIYIIIYIIIRIIIIIIIIIIIIILIY",
"YILLLIIIILIIYIIIILILLIIIILKIIYYIPILIIIIPIYIYRIIIIIIIIIIIPIIILYIY",
"IILLIIIIIIIIIYIJILIIYILIIPKLLPPIIIIYIIIYIIYYPIIIIIIIIIIIIIIIIYLI",
"LLLILIILLLILLLIIIIIIRTPPLIIIILIIIIIIIIIIIIILIIIYIIIIPPIIIIIIIIII",
"LYIILLIIYIIIIIIIIIILIIIIIILIIYIIIIIIYIPIIIIIIYIIIIIIIIIIIIIIIIII",
"IYLLILYIIJLILIIJILLIPIIIIIIIIIIIIIIIYIIYYIIIIIIIIIIPIIILIIIILIYI",
"ILLILIIIIIYIIIIILIIIIIIIILLYIIIIIIIYIYIIIIIIIYIIIIPLIIIILIIIIIII",
"LIIILIIIIIPPIIIIIIIPIIPIPPPPIIIPIIIYIIIYIIIYIIYIIIPIIIIIPIIIIIII",
"YLILILILIYPPYPYYYYYYYYYYIRRIIYYIEYYYIYRRRYYRRYRYYYIYIIIIYPIIIPII",
"LLILIIIIIIIJMCVCCCCCCCCCZZCCCDZZSSDDCCCCZZCZZZZZZZZCLIIIYYIIIIII",
"LYILIIIILILbbggggggggggggghhhhgggbbbghhgggbbhhgggbggnPIIIPIIYIII",
"LPLYLIIIIPDMEIIIIIIIIILIIIIYPPIIPYYIIYPIIIIRIIIIIPIEmDIIIILIIIII",
"LYPLILLIIPSMLKLLGPKKLLLLLGLLPLLLLKIGKPGPLLIPGLLIGLGIMGRIIIIIIIII",
"LYYLLIIILYSMYLIIIYIIIIIIIRIIRIIIIIUIIIIIIIIIIIIIIYLIMSYIPIIIIYLI",
"YLYPIIIPPYSMPLIIIIIIIPIIYIIIIIIYITYPIIIIIPIIIIIIPYLImSYYIIIIYIII",
"YJILIPLYIIFMIKIIIIIIPIIIIIIIIIIIPYIIIIYIKIIIIIIIPYPYMZYYUPIIPIII",
"ITYLIIPLIIDMIPIIIIIIPIIIIPIIIIIYYYIIIIIYIIIIIIIPYIPIMGYPIPPPIIII",
"LIIIIIPYIIGmIPIIIRILIYYIIIRIIIIIIYIIIYYIYIIIIIIKIILIMGRPPLPIIIII",
"YIIYIIIYIIZmIPIIIIIPIYIIIIUIIIIIIPYLIIYYYPIIIIIIIIIYMGYIIIIIIIII",
"LIIPIIIIPIDmIIIIIIIIIIIIRRIIIIIIE!RPYIIIIIIIIIIIIYIIMDIIIYIIIIII",
"IIIPYILIIRGmIGIIILIIIIIIIIIIIIR~YJWPIIIIIIIIIIIIIIIIMGIIIILIIIII",
"ILYIIIYIPIGmIIIILIIIYLIIIIIIIWRz11RRIYIIIIIIIIIIIYIImGIIIIIIIIII",
"IYIPIPIYPIZmIIIIILIIYIIIIIIIRV<**5WRIIYILLILLIIIYIIIMGIIIIIILLII",
"TIIIPIPIIYGMIIPIIIIILIIILPILWc:,>5RRIIIYILIIILIIIILPMSIKLIIILYII",
"IIIYYIIPIRGmIIIIIIYIIIILPIILQN=>=2WUIRIIILIIYYIIIIPYmSIILILIILIP",
"IIIIYYYPRTFmIIYIIIIIIIIIPIYIQfooo4H!IIIIIIIIIIIYIIPYmSYIILLIILII",
"IIIYYYYYITGMRIIIIIIIIYIILIIYW&@@$+j!IILIIIIIIIIIIILIMGRIYYYLLILI",
"IYYPIIPIIYGMRPIUIYYIIILIIIIYW%+###k!IPIIIIIIIIIIIILIMFYIIIIYIIII",
"IYPYYIIIPRGMIPUIIIIPIIIIIIIYW%+##+k!IILIIIIILIIIILLYMGYILILYIIII",
"IYIPPPYIPYGMRPIPIIIIIIIIIIYYW&+##+j!IIILIIPLIIIILILImDYYYLILIIIL",
"IIYPIYIYIRGMRIIIIYIYIIIIIILRQ&O@$+l^IIPIPYLPLIIYPILImVYLYILIIIII",
"IPRUURRIURGMUPUUIUUIIIIIIYYWa .XXXrYRIIIIIILYLIIIILYmGIILIIIIPIP",
"YUYUURUIPRFMPPUKIYPUIIIIIIIQw-:,,,*B~IIIILIIIYYLYILYmZIIIIIILILP",
"UURRIUIIUUFMRUYPIIYPYYIIIPI!vrryiitGWYIIIIPIIYLIYILIMGIPLILIPLIL",
"IUUURIUIURGMUIUUIYUIYYYIIIIQdeypppiIRLIYILPILYIYIYLYmGRIILILIIII",
"UUUUIUUIIRKMUKRRUUPUIYIIIII!deypppyGWLIYIIIIIIIIYTPImDYIIIIIIIIL",
"IIUUIRRUUUKMYIRRYYPURRUYIII~deypppiIWIYIIIIIIIIIIIPImZIIILIPIPII",
"YIIUIRUUURKCUIUUUUYURIYIIPI!detppptLRIIIIUIIIIIIIIPIMFUPLIILIYYI",
"RUIUUUUUUWFnUPUUYUUUIIYRIIIWvrussspIWIIIIIIIIIIIIIIYmGIPIIIIIILL",
"RIURIUTRUWFmPPUUUYPIUIIIIRIWw;38886DWIIIIIIIIIIIIIGIMFYPLIIIIILI",
"IIUIIUUUURFCUPUUUYUUUIUIIII~x99q007JWIIIIIIIIIIIIIPImSYPLIYIIIIL",
"UUIUUUIRUUFMUUURYRRRUIIIUUUT~~~WWW!!YYIIIIIIILIIPIPYMGIIIIIIIIII",
"RUTRRIUTPRFMRUURRRRUIIIYUURIIIIRRURIYIYIIIIIIIIIIIGPMSYIIIIIIYIY",
"RRRRRRRRUUGCRIUURUYUYYIURTUUUIIRRUIIIIYYIIIIYYIIIILImGTPIIIYIIII",
"URUURRRRPUGMUIRRUURYUUUPIRUUUUUIRIIYIYIRIIYYUUIIIYIRMGRYYIIIIIII",
"IUUIPURRUUAMUIURUUUPURUPURRRUTUUIYIYIIIIIYIYUIIIIIPIMGYIIYIIIIYI",
"IIUUUUURUWGCRKURYUUUYYYPRRRUIITUIUYIYYIRRYIIIIIIIILIMJYIIIIIYYII",
"UUIIYYUYURLMUIPURRYRRUURUUIUIIURUPRYPUUUYYIIIYIIRUPImGURYIIIIIII",
"UITIIPUYURGMPUYUURYRRRUUUIIUUUUIUUUYUPURYYIIIIYIYIIYMGIIUIIIIIII",
"IUIIPPUYUUGnUIIKPPPPIPIKPLGPPPKPLLKIKIKKUIIIIILPPGGIMGUIIIUIIIII",
"UIITUUUPPUZCWRURWRRWUUUURRIYRIURYYYRYUWRRUIRRIIRYIYEMGRIIIRILPII",
"IIIUIUIIURPnhhhnhhhhhhhhhhnnghnhhhhhhhhhnhnnnnnnbnhgnIIIIIIIIIII",
"IIIPPUUURIUPCCAZGFFFZZZZZZCCCGFFAZGGFFFFGZGGSSDZZZZCPYIILIIIIIII",
"IUIUPUPYIIIURRRRRRRRRRYYRRRRRRRTRRRRRRURRRRRTTRYRYYTIPIIIYIIIILI",
"IUUIRRPPIPIIUIUUUUUIUYUIIIIUIIIIRPUUPPUUPUUUIYYLIIIIIIIIIIPIIIIL",
"IITIUPYPPPIIIPYUUIIIRIPPUIPPIIYIUIYUIIIIIIIYYIIYYYYIIYILLIIIIIII",
"UIIIUIIIIPUIIUYUUIYIIIUPIYYYIIIIIIIUIIIIIIIIIYYIRYPLIIYIPLLILIIL",
"UIIYPHIIPIUIUPIYIIRIIIPIIIYIIYYIIIIYIPIIIPIIIIYIPIYIIIYIIPILIIPI",
"IIIYIIIHUPUUUUUPIIIIRIPIIIIIIIIIIIIIIIIIIPIIIIIYIIIILIIPYIPIIIII",
"IIUUPPUIIIUYPUPUIIIIIIIPIYIIIIIIIIIILIIIIIIIIIIIIPPPLIIPIIIIIIII",
"IIIIYUIUIHPUIIIPIIIIIIIPIIIIIIIIIIIIPIIIIIILIIIIIIIIIIIIIIIIIPII",
"IUIIIIPHPPILIIIPIIIIIIIHUIIIIIPHUIIIIUPPIIIIIILPIIIIIIIKIIIIIPLI",
"IIIUIIIIIPIIIIILPHIIIIIUILIUIIPLIIUIIYPUIIIIIIIKIIIIPIIIIIIIIIII"
};
