/* XPM */
static char *_91711898839[] = {
/* columns rows colors chars-per-pixel */
"64 64 228 2 ",
"   c #340E00",
".  c #3C1305",
"X  c #3A180C",
"o  c #341B11",
"O  c #3C1D12",
"+  c #3D2315",
"@  c #3D2919",
"#  c #43180A",
"$  c #491E12",
"%  c #59250C",
"&  c #442214",
"*  c #482717",
"=  c #4C2D1B",
"-  c #522312",
";  c #562B15",
":  c #582D18",
">  c #5C2E19",
",  c #44311D",
"<  c #4E321D",
"1  c #52341E",
"2  c #5D331B",
"3  c #57391F",
"4  c #5F381E",
"5  c #6C2B0A",
"6  c #7A2609",
"7  c #732D0E",
"8  c #622E13",
"9  c #6C2E13",
"0  c #772C11",
"q  c #7B2E12",
"w  c #633414",
"e  c #6B3315",
"r  c #62351D",
"t  c #6C361B",
"y  c #64391E",
"u  c #6B3A1E",
"i  c #733314",
"p  c #7A3214",
"a  c #77381A",
"s  c #733C1E",
"d  c #4A3421",
"f  c #543521",
"g  c #543425",
"h  c #5C3622",
"j  c #553923",
"k  c #5C3B24",
"l  c #533F2B",
"z  c #633620",
"x  c #693721",
"c  c #643B23",
"v  c #6B3C23",
"b  c #643E29",
"n  c #6C3E29",
"m  c #733E23",
"M  c #783F22",
"N  c #6A411E",
"B  c #76411F",
"V  c #5B4227",
"C  c #5D432A",
"Z  c #654126",
"A  c #6C4126",
"S  c #63432B",
"D  c #6C432B",
"F  c #66482D",
"G  c #6D4A2E",
"H  c #744225",
"J  c #7A4326",
"K  c #7C4A27",
"L  c #74452A",
"P  c #7C4529",
"I  c #75492C",
"U  c #7C4A2C",
"Y  c #7C502E",
"T  c #634433",
"R  c #654B33",
"E  c #6B4C33",
"W  c #6A4A39",
"Q  c #744D32",
"!  c #724A36",
"~  c #7C4D31",
"^  c #675034",
"/  c #6E5035",
"(  c #6D513C",
")  c #735135",
"_  c #7E5234",
"`  c #74543B",
"'  c #7B543A",
"]  c #76583C",
"[  c #7A5A3E",
"{  c #6D5140",
"}  c #735343",
"|  c #795641",
" . c #7C5B42",
".. c #755748",
"X. c #7D5D49",
"o. c #7A6451",
"O. c #B51A10",
"+. c #86280D",
"@. c #92260E",
"#. c #872711",
"$. c #862C13",
"%. c #8B2B13",
"&. c #962711",
"*. c #9C2512",
"=. c #942913",
"-. c #9A2815",
";. c #853316",
":. c #9B321E",
">. c #A32615",
",. c #AB2616",
"<. c #A72718",
"1. c #B42419",
"2. c #B42619",
"3. c #BC241A",
"4. c #CA0906",
"5. c #CC110E",
"6. c #C31711",
"7. c #CD1512",
"8. c #CD1916",
"9. c #CE1D1A",
"0. c #D01E1B",
"q. c #C4231D",
"w. c #CC221E",
"e. c #D0211E",
"r. c #CF2420",
"t. c #CC2723",
"y. c #D12421",
"u. c #DA2222",
"i. c #D02926",
"p. c #D12D2A",
"a. c #D1312E",
"s. c #D23532",
"d. c #D33A37",
"f. c #824625",
"g. c #82462A",
"h. c #824B2D",
"j. c #884B2C",
"k. c #994F26",
"l. c #87522E",
"z. c #96532D",
"x. c #834E31",
"c. c #894F31",
"v. c #845334",
"b. c #8A5434",
"n. c #845836",
"m. c #8C5936",
"M. c #845539",
"N. c #8A5638",
"B. c #855A3B",
"V. c #8C5A3A",
"C. c #925634",
"Z. c #925A36",
"A. c #9F5C34",
"S. c #925C3A",
"D. c #995E3B",
"F. c #A0582C",
"G. c #A55D34",
"H. c #8E603D",
"J. c #99613E",
"K. c #A86138",
"L. c #D5413E",
"P. c #825D43",
"I. c #895E46",
"U. c #935B43",
"Y. c #8B6249",
"T. c #926242",
"R. c #956548",
"E. c #906B53",
"W. c #99745C",
"Q. c #A36E4A",
"!. c #A57553",
"~. c #B67C5A",
"^. c #B97C59",
"/. c #846F64",
"(. c #9D7B66",
"). c #957B68",
"_. c #A17E68",
"`. c #D54542",
"'. c #D64946",
"]. c #D74C49",
"[. c #D85653",
"{. c #D95D5B",
"}. c #DB615E",
"|. c #DC6764",
" X c #DD6B69",
".X c #DF706E",
"XX c #DF7573",
"oX c #E07A78",
"OX c #B3825D",
"+X c #9D816D",
"@X c #9B8674",
"#X c #A48167",
"$X c #A4836C",
"%X c #A9856C",
"&X c #AD896D",
"*X c #B18E6F",
"=X c #A78975",
"-X c #B38E71",
";X c #B78A77",
":X c #B69172",
">X c #E2807E",
",X c #E38483",
"<X c #E48B89",
"1X c #E7918F",
"2X c #E59493",
"3X c #E79B9A",
"4X c #E49E9B",
"5X c #E9A3A2",
"6X c #EAA8A7",
"7X c #EBABAA",
"8X c #EBB0AE",
"9X c #EDB4B3",
"0X c #EDB8B7",
"qX c #EEBDBC",
"wX c #EEC0BE",
"eX c #EBCCCA",
"rX c #F0C4C4",
"tX c #F2C8C7",
"yX c #F2CBCB",
"uX c #F5D7D7",
"iX c #F6E0DF",
"pX c #F7E2E2",
"aX c #F8E7E6",
"sX c #F3ECEA",
"dX c #F9ECEC",
"fX c #FBF4F4",
"gX c #FBF7F8",
"hX c #FEFEFE",
/* pixels */
"@XW._.(.(.(.(._.$X$X%X%X$X=X%X%X+X..$X%X(.(.(._.@X=X%X=X&X&X=X;X/.o.+X@X@X@X=X@X).@X@X@X@X+X+X@X/.&X%X).#X+X).(.).+X#X$X+X).$Xo.",
"} > P v t H J J U L v.U U v.v.l.G   U U H H U D U v.h.j.b.P x.U.g @ V ] ] ] ] / F R ^ ^ / R / } 1 b.K A H u u y u H I Y D 4 _ g ",
"..x ~ L v L U ~ v.~ V.N.~ n.V.H.Q . U N.U I ~ ~ M.M.N.N.m.M._ T.T , T  . .] ] ] / ` } ^ ` [ ` ..h B.I ) n.I I I D Y v.v.' D B.T ",
"..n M.L x H x.U ~ U v.n.~ n.m.H.Q # U U L A ~ L ~ V.c.Z.V.~ ~ U.l @ C }  .] ] ` / / ( R ` [ / } 1 I L U N.~ L I D I n.' Q F v.F ",
"..x x.~ n L v.v.v._ _ v.v.v.M.T.Q . U U L ~ Q L ~ N.N.S.M.v.x.Y.R @ V [  .[  .[ E / ` E ` ` F { 1 L v U l._ U I Q U _ _ Q b ~ S ",
"..n M.~ m P x.b.v.v._ _ v.~ v.H.Q . U v.A I ~ L v.N.m.V.M.M.U R.R , V ] [ [ ] ] ] / ( T ` ` E } = I A U U U Y I I _ B.M.[ L v.S ",
"} b M.~ L L x.v.m.v.' U v._ M.V.Q . U h.I U Q ~ _ N.N.M.M.M.U Y.R d V ` [ [ ) [ ] / E S / / ) { = U L P U I v.I ~ ~ B._ ' D B.S ",
"..n M.~ P ~ U N.N.v.v.U v._ M.T.) . U U I ~ _ U ~ v.v.M.B.M._ Y.T d ^ ] ] ] ] [ E ) E F ` E E ( 1 ~ P ~ U U U L ~ ~ v.B.) D N.R ",
"..D v.~ L x.h.m.m.v.n._ n._ M.H.! # P h.L ~ ~ ~ _ ~ _ v.n.B.B.R.T , ^ ( ] ) / ] ) E ) S / F ! } j b.h._ L U v.N L v.n.B.Q c V.C ",
"..v M.v.m U U N.S.U _ l.N.~ M.V.E # U U m Q ~ ~ v.x.~ v.B.U J Y.D : V A G E ) [  .R / V Q E E ( 1 N.h._ K v._ A L v.n.B.~ b V.T ",
"X.m N.v.P P h.N.b.U B.v.V.v.~ V.) # U P P ~ Q U J I f.+.J ;.*.B >.$.w *.u B p ` / Z E V E P.E ( = x.K _ K U U L I _ n._ Q k v.R ",
"..u v.U P ~ c.m.m.h.B.m.V.N.~ H.) # x.~ I L m H $.$.i q.&.>.u.*.r.3.>.u.+.>.1.u ;.i ^ C F P.E } f ~ c I K U I L I x.M.B.) Z U T ",
"X.x v.U ~ h.v.Z.m.v.V.n.v.N.U V.) . U P U s @.i >.w.,.y.e.w.i.e.r.r.w.y.q.y.q.&.q.q u i Z ` G { = x.n L I v.H A ~ v.n.B._ b N.R ",
"Y.x l.~ x.l.v.Z.Z.l.V.V.v.v.U v.Q . P p a i 3.3.3.i.u.y.e.i.e.e.y.r.y.r.y.y.y.y.u.*.1.,.Z G D ( = ! D L U h.I L ~ v.M._ E b n.W ",
"Y.y c.U ~ v.m.Z.H.m.n.V.v.m.Y Y ` # B %.w.>.q.y.y.y.w.y.y.e.y.y.y.y.r.y.e.y.y.y.r.r.u.,.q -.t ( * G v L U x.L L Y M.V.M.~ z x.R ",
"X.u v.~ v.h.v.J.Z.Z.n.V.l.v.v.U _ +.%.%.y.e.y.e.y.y.w.r.y.y.y.y.y.r.y.y.y.y.y.e.r.r.r.q.w.3.w D : A x L v.U U I v.B.V.B.P.! S.` ",
"X.x b.~ x.U b.S.D.Z.N.H.N.B.v.K G 6 u.q.r.y.r.y.e.y.y.y.y.y.y.y.y.y.y.y.y.y.y.y.y.w.y.y.u.1.&.>.s D b h.h.K L K v.n.v.' ' D T.] ",
"P.y v.x.x.x.b.Z.J.D.m.m.H.Y U %.-.#.r.y.y.y.y.y.y.y.y.y.y.y.y.y.y.y.y.y.y.y.y.y.y.y.y.y.w.0.u.1.w D v v.v.I L U v.v.n.B.G 2 V.] ",
"E.v v.v.n.U h.S.J.D.m.m.V.Y Y %.y.r.9.r.y.y.y.w.i.e.y.y.y.i.e.y.y.y.y.y.y.y.y.y.y.y.t.e.y.y.y.1.*.&.s v.U K K Y K B._ n.' Z H.} ",
"E.n Z.N.v.l.v.Z.J.Z.Z.n.v.i ;.%.r.r.r.y.y.y.y.y.y.y.y.y.y.y.y.y.y.y.y.y.y.y.y.y.y.y.y.y.y.y.y.e.u.=.N P L I U U U l.Y Q G v R.] ",
"E.n N.v.v.v.h.Z.Z.Z.J.b._ p w.e.w.y.y.y.y.y.y.y.y.y.y.y.y.y.y.y.y.y.y.y.y.y.y.y.y.y.y.y.y.y.y.t.y.<.*.$.A L U v.c.N.[ C S D V.| ",
"W.n I F v.N.c.V.A.J.R.l.J i >.y.e.y.y.y.y.y.y.y.y.y.y.y.y.y.y.y.y.y.y.y.y.y.y.y.y.y.w.y.y.y.y.i.y.y.w.q G H U v.U n.M.l C D V. .",
"W.m Z k N.b.x.N.Z.J.Q.f.@.3.3.y.y.y.y.y.y.y.y.y.y.y.y.y.y.y.y.y.y.y.y.y.y.y.y.y.y.y.y.i.y.y.9.8.y.u.>.7 p s U x.U h._ / j h V.X.",
"W.m b.) v.N.h.b.J.J.J.n.7 q.u.y.y.y.y.y.y.y.y.y.i.y.y.y.y.y.y.y.y.y.y.y.y.y.y.y.i.0.9.7.8.9.s.XXt.e.t.q.%.u v.x.I v.B.E C b v.| ",
"W.H b.v.N.N.J m.Z.T.z.%.=.3.y.y.y.r.y.y.y.y.y.y.y.y.y.y.y.r.y.e.i.y.y.i.y.y.y.8.8.i.L.oXrX7X|.hX|.8.u.1.e A U U L ~ v.) T b N.] ",
"W.H b.M.N.m.c.V.Z.D.Z.%.e.y.y.y.e.y.y.y.y.y.y.y.y.y.w.y.y.y.y.i.y.y.0.9.7.7.e.}.2XiXhXhXtX2X'.gX5X5.i.q.1.+.B I L v.v.) E b S.| ",
"(.m b.c.N.b.h.Z.Z.J.C.i >.e.y.e.y.y.y.y.y.y.y.y.y.y.y.y.y.y.y.8.7.0.p.[.5XuX3X5XhX5X X].9.4.9.uXrX8.y.y.1.;.~ ~ L M._ E S z S.| ",
"_.m Z.c.N.S.x.m.J.l.+.3.w.t.y.y.y.r.y.y.y.y.e.y.y.y.e.9.8.8.i.].1XqXaXhXdXqX}..XhXL.4.5.e.[.8.3XhX`.9.y.-.i P U L M.M.Q k z m.} ",
"W.u Z.b.c.S.b.b.b.Z.f.&.e.e.y.y.r.y.y.y.y.y.y.0.8.9.p.`.}.9XaXgXfXuXwXhX,X4.5.`.gX5X'.0XfXgXs.[.hX X8.i.e.3.q L L ~ ' Q k 2 N.] ",
"_.m b.m.x.N.N.b.Z.l.;.*.w.y.t.y.y.y.y.w.y.y.w.d.XXd.<XhXhXgXhX>Xp.8.t.dX7X8.i.8.qXhXgXyX3X Xy.s.hX2X4.0.3.6 N H P ~ _ I T D Z.P.",
"_.t c.m.g.b.b.h.m.B *.0.y.y.y.y.y.9.8.i.y.e.y.yXhX9X{.<Xp.>XhX].5.i.7.qXfXs.e.7.5XhX[.9.7.7.7.5.tXaXoXrXiXW.e L L ~ ' I S c Z.P.",
"%Xe c.v.P b.b.h.x.j.f.*.8.9.y.y.9. XrX9Xt.e.i.aXyXhX.X4.8.'.hXoX7.i.8.<XhXd.9.9.{.hX'.4.i.p.<XoX,XhXhXyX,X}.6 v L Q _ Q V c c.| ",
"#Xt j.m.c.m.h.g.P J :.1.].L.e.i.7.9XhXhX|.7.t.fXXX7XhXL.9.w.aXqX0.i.9.'.hX,X8.e.p.fX0X3XpXgXhX7X'.|.a.w.O.6 e v v ~ ' Q c A N.] ",
"#Xt c.b.b.V.v.P g.J @.2XhXpXs.q.8.8XgXhX3X5.p.hX Xa.hXqX9.9.5XhXa.0.0.p.uXuX8.y.e.tXhXiX9X XL.p.9.8.9.e.i.1.7 y L ~ L D c b Z.] ",
"%Xt h.b.b.N.c.h.P S.5 :XhXhX7X8.7.qXuXdX0X8.s.hX{.4.oXhXoX4.oXhX'.0.y.7.9XgXp.0.e.}.].8.8.8.9.y.y.y.y.e.q.<.p u D U G D Z x N.P.",
"&Xs h.j.b.N.h.c.h.h.+.|.hXiXgX|.4.tXqX6XhXa.`.gX3X5XpXhXdXp.`.hX<X7.i.8.|.<Xp.y.y.8.9.y.y.y.y.y.y.y.y.y.1.5 c b D D L G Z x b.I.",
"%Xs v.j.c.Z.x.x.h.h.%.:.sX6XuXuX7.tX9X[.hX{.{.hXhXdX7X,XhXrXw.yX9X8.y.y.9.8.y.y.y.y.y.e.y.y.e.y.y.y.y.y.u.,.e x b A D D Z n N.Y.",
"&XJ j.b.c.b.x.x.J m.J 5 eXuX|.hXoXrX7Xs.hX<X.XgX{.t.8.4.2XrXd.p.p.y.y.y.i.y.y.y.y.y.y.t.y.y.e.e.y.y.y.w.-.q w y u D G D h v l.Y.",
"&Xm h.h.h.x.h.v.J h.a O.2XhXp.7XgXgX2X7.uXyX3XfXs.8.i.i.9.8.e.e.9.i.e.y.y.y.y.e.y.y.y.y.y.y.y.t.y.y.e.e.-.w c c c Z D Z b v m.Y.",
"&XJ P g.h.x.P h.J v.f.7 U.hX{.a.aXhX,X4.<X8X X{.e.y.y.y.y.y.y.y.y.y.e.t.y.y.y.y.y.y.y.y.y.y.y.e.y.y.w.t.1.7 b c c D D Z Z A Z.Y.",
"*XJ x.h.h.c.P x.g.h.N.s :.fXyX4.<XaX[.8.i.9.8.8.y.y.y.y.y.y.y.y.y.y.y.y.y.y.y.y.y.i.y.y.y.y.y.y.e.i.e.%.w u b 4 c F D c c D N.R.",
":XJ j.h.v.x.P g.U h.g.a >.;X3X9.t.i.9.y.y.y.i.y.y.y.y.r.w.y.y.y.e.y.y.y.y.y.y.y.y.y.y.y.y.y.y.y.e.e.e.1.e G u 4 r D D Z h v l.!.",
":XJ g.g.x.x.P P g.h.P P s 6 6.y.y.e.y.r.y.y.e.y.y.y.y.y.y.y.y.y.y.y.y.y.y.y.y.y.y.y.y.y.y.y.t.y.y.q.-.-.q c 4 4 c Z D A x v h.!.",
":XJ U h.h.g.P P g.b.J h.u *.r.w.y.y.y.y.y.y.y.e.y.y.y.y.y.y.y.y.y.y.y.y.y.y.y.y.y.y.y.y.y.y.e.y.u.e.$.y y h c 4 c A D D b n N.Q.",
"-XP g.P g.P M ~ g.h.J g.H i p >.y.y.y.y.y.r.y.y.y.y.y.y.y.y.y.y.y.y.y.y.u.t.y.y.y.y.y.y.y.y.y.e.3.,.&.u r x c 4 n D I L v h l.!.",
":XJ M P P P M M U h.J J U v a 1.u.w.y.y.e.y.y.y.y.y.y.y.y.y.y.y.y.y.i.y.y.e.y.y.y.y.y.e.y.y.e.u.<.w e u y b h 4 D L G D b x h.!.",
"-XJ m L P P M M J h.J s U J p %.p 1.u.y.y.e.y.y.y.y.y.y.y.y.y.y.y.y.y.y.y.y.y.y.y.y.y.y.y.y.q.1.1.i 2 A c x 4 4 b v D H c A z.!.",
"-XJ P n M P P P J c.P H J U U N ;.w.q.q.y.y.y.r.y.y.y.y.y.y.y.y.y.y.y.y.y.e.y.y.y.y.y.y.y.y.q.e - e 2 c v r 4 2 c A A A 4 H J.~.",
":Xf.J v P P P L P c.P P P x.x.L $.6 0 t.e.r.r.r.r.r.y.y.e.y.y.y.e.i.i.e.e.i.e.e.y.y.y.r.q.&.,.q o x w i e r 2 2 4 c v v r v Z.^.",
"*XK J s P P P L P c.P J M P x.c.~ X q q.>.3.u.y.r.y.y.y.y.y.y.y.e.e.e.e.e.e.e.i.y.y.q.w.q.w 2 v o w $.+.#.e 2 4 4 u L v z u j.OX",
"&XU g.v P J L P P P P m m J x.U ! . 0 9 % 3.q.q.y.u.r.y.e.y.r.y.e.e.i.e.e.i.y.e.w.u.1.7 %.w d F o 5 *.%.>.7 2 b c v D D x u z.OX",
"*Xf.f.N g.J P m P g.g.m m H P g.! # x > 8 -.i ,.r.3.0.y.y.y.y.y.y.u.e.e.e.e.w.e.&.=.1.8 1 4 j b O i *.#.&.e r c c z L A x m G.OX",
"*XJ g.v P J m J P g.x.M J M M c.! # n x 8 8 2 @.%.q w.,.3.e.3.y.w.q.e.1.w.q.7 1.%.2 i 2 h c j E O r 7 $.0 h z r c x L v k m G.~.",
"*Xf.f.H J J M m P P P M M P P j.! # t z h 2 > 9 t e &.e =.1.p q.-.$.q.q %.>.2 e 9 j j j k c j L O ; 2 z z h 2 2 h v m A y H G.~.",
":Xf.j.u m M m m m P P P M h.J f.n - m z r ; > z n m t H p a U %.% * q w c 2 c S h 1 1 3 k S C D o - x z x 2 z r z v v A : L K.~.",
":Xf.j.s J J P m P h.M P m M g.j.! $ m z w > > 8 v L H L H L v.v.$ < Z S c j k c b j < 1 j k k F O ; r w > : r 2 n v v A > v G.~.",
":Xf.j.s J H P J M h.J P J P h.c.! - J z > z z r H P L P P L ~ S.* & Z j h 4 Z k k f 1 : f k V E o > v x > ; h 8 r v v v ; t z.^.",
"*XP j.v H m P J m g.g.h.j.h.h.C.x.$ M r z > r x H H u H P v z n.& O V k Z k c j h j = f j j k I O z v z > : r r 2 v c x 2 s F.^.",
":XJ j.u s P P m P c.g.h.c.h.j.C.x.- x : r > r x H L m L ~ L r U & + k 3 j c k k 2 j j j j 1 2 ) $ y t x r r r z y x x z : M G.^.",
"-Xf.j.v m J P P P h.P P b.j.j.C.x.$ t z r r r > r v x D U U v L + & V 3 k C j k 1 = j 1 1 j < _ & r x v x x r z z r x z : J K.^.",
":Xj.g.u m P P P P c.J H b.j.j.c.x.$ x z 2 x x r r y 4 2 A U H L O & C j k 3 j 1 f < 1 1 1 j = k & z v v x m z r r r r r ; M F.^.",
"-Xh.g.u m P ~ M P l.g.J c.N.b.C.x.- e z r v 2 : A v v x v A U P X @ C j h k j 3 k 1 f d = < , b + z v y v m y r r r r y 2 g.G.^.",
"-Xf.j.s P m P J P U f.g.f.b.Z.C.N.- r > 2 x 2 y v v P n D r ~ x.X @ j j h j c j < < d < f = = S + 2 v t m n r 2 2 > r 4 y l.G.|.",
":XJ j.m P m v H J g.U N.g.h.l.C.N.- r z > x v r v v L P ~ r L ~ o @ 3 1 1 j 1 < < < j < = 1 , S & 2 n v n v x r x 8 y 2 y K k.OX"
};
