/* XPM */
static char *mdch1712085561[] = {
/* columns rows colors chars-per-pixel */
"64 64 92 1 ",
"  c #030000",
". c #0B0205",
"X c #0F0409",
"o c #14050C",
"O c #19060F",
"+ c #1C0711",
"@ c #1E0812",
"# c #210714",
"$ c #230916",
"% c #260A19",
"& c #2B0B1B",
"* c #310D1F",
"= c #350E22",
"- c #390F25",
"; c #3D0F28",
": c #371024",
"> c #3B1026",
", c #3E1029",
"< c #6B2D01",
"1 c #732E0E",
"2 c #44122C",
"3 c #48122E",
"4 c #4C1432",
"5 c #521635",
"6 c #521937",
"7 c #551639",
"8 c #5A173B",
"9 c #561839",
"0 c #5C193D",
"q c #601A3F",
"w c #5F1A40",
"e c #631A42",
"r c #6A1C46",
"t c #6D1D49",
"y c #731E4C",
"u c #771F50",
"i c #7B1F52",
"p c #74214E",
"a c #772150",
"s c #7C2152",
"d c #822F23",
"f c #942F3F",
"g c #95303F",
"h c #952F40",
"j c #992F43",
"k c #963141",
"l c #993142",
"z c #812256",
"x c #852359",
"c c #8B255D",
"v c #A13347",
"b c #8F2561",
"n c #932662",
"m c #992766",
"M c #962865",
"N c #992966",
"B c #972769",
"V c #9C2768",
"C c #95296A",
"Z c #9D2A6A",
"A c #A42B6E",
"S c #A82E6E",
"D c #A12671",
"F c #A62B71",
"G c #AB2D73",
"H c #B12E77",
"J c #B42E7A",
"K c #BB2F7D",
"L c #AE3176",
"P c #B13076",
"I c #B6327A",
"U c #BB317E",
"Y c #C2327F",
"T c #BF2F83",
"R c #BE3282",
"E c #C12F83",
"W c #C43385",
"Q c #C93486",
"! c #C53886",
"~ c #C7338B",
"^ c #CB348B",
"/ c #C73888",
"( c #CC388A",
") c #D1348D",
"_ c #D2398E",
"` c #CD3490",
"' c #CE3891",
"] c #D23591",
"[ c #D43992",
"{ c #D93A92",
"} c #D4339B",
"| c #D9369D",
/* pixels */
"1111111111111111111111111111111111111111111111111111111111111111",
"11<<<<<<<<<<<<<<<<<<<<<<<<<<<<<<<<<<<<<<<<<<<<<<<<<<<<<<<<<<<11<",
"11djjjjjjfjfjjfjjjjjjfffjjjjjjffhhhfjjjffhfffhjhfffjhhhhhhhhj111",
"1<j}))))````~))`))))``)`}EDDK])`````TJ)}`)``)`~``````~~~`~~~}h<1",
"1<f)YEEYY)YYEEEEYYYYQYQYz$. oqYEYQEQro-tGQEEEEEEKEEEEETWWTRE`f<1",
"1<f`EQQQYY)YEEY)QQ)YYQ)x.$zz* y^EEQE=.& +cQEWEQQEEEEQEWEERWT~x<1",
"1<f`QQQE)YE)Y))YQQY33QY-.H))JO$KEEQFo3QnOOGQEWEEEEEEEEQWWREE~h<1",
"1<f`YQEQ)EY)YY)EQQE3 nY#&)YY)2.F)E^z iQ)i z^WEKEQEEEEEEEETEE~h<1",
"1<j)Y)QEYEY)YYY)YQ)D.*K*XY)^Q*oHQEQ7oGQ^z x^i*+-xEQTRWEEWRTR~h<1",
"1<j)YYQQY)YY)))Y)YY)7.cy 4FFe 5QEQK+%FEG&XGy O2# rEQEEWWWTWT~h<1",
"1<j)Y)YQYEE)G8;3c)EQHX-H3 .. ;JQEQD# o&o yF &GQK3.mEWTWEREWR`h<1",
"1<j}YY)E)Y)Do.#. t)Q)8.A^x0enWQEEEQHz7-3x^y z)E^V.e~RWEEE~ER~h<1",
"1<j)YQQYQQK$XmYS% Ax3##GQ)){)EQQQEQQ))Q)^)t b^E^V.w^EWEWWW!T~h<1",
"1<j)YQQQE)x y)Q)m qrO-mQEEEEEQEQQQQEEEEQEQF ;KQK; n^WEWEWTTT`h<1",
"1<j)QQQQQ)y c)YQHXqEHEQEWEEEQEEEEEQEEQEEQEQt $4% 5TWEQ~~EWTT`h<1",
"1<jEYQEQEQm 2Y))r x)EQQ^EQQEQEQQQEEQEQEQEQEQx&.OtKWT^F4V~TTT~h<1",
"1<j}K)EEQQ^5 *y4 3WWWQJMQKWEWQQEQEQWQQQEEQWW^QEGyJ~^MO t~RWY~h<1",
"1<jEEEY3rF^Q0X X7J~QTQF%sey^^EEEEQWQW~EQQEEEEE^b sWr .sTTWWT`h<1",
"1<j)Y)z  X3nWHmAQQWEQEK%.@.zGQ))QE~EWEWEQEEQWEQGo%= =F^Q~WWR~h<1",
"1<j}Y)x O-. &zQ^WWWWEEQq   .#57xQ^WEWQWQEQWEWQE^zOXwJi2;tT~T`f<1",
"1<k`YE^x.2Bq.&R~WWWWQW^n.       &z^^QWEEEQE~EEEE^HJK-  . ;TE~h<1",
"1<k`EQQ)Mo2RJAWWWWWWQEE4          3VQQQWQEEQQQQWEE^7 5FJw yE~h<1",
"1<k`Leeeu4 %F^T!W!WWW^z    .  .    o5G^WEQQQ~EEWQET+&R~QW&=T~h<1",
"1<k'r .%$OX 0(RWWWWW~I*              $x^QEQEEQEWEQU+2~TU~5+J`h<1",
"1<k`4  >aAAML~W!WWWW^s              . .sQEQWWEQEEW^,.G]^GO-R`h<1",
"1<k`Rb,  *sR^!WW~WWW!=      .           z^EQWWQEWW^V $utO sQ~h<1",
"1<k`!(~Z0o c(RWWWWR`N    .     .  .     %AQEEWWQWER~sO  +yWR~h<1",
"1<k`RRW~/LxU!W!!!!!(4 .                  2QQQEEEWERW~GcnG^WT~h<1",
"1<k'RRWR!!^~!!WWWW^A.            .    .   r^TQ~EWEWTE~~~~RTR~h<1",
"1<k`W!WWW!TR!Q!WWW!4                      XA^EQWWWWWWEQTR~~R~j<1",
"1<k`W~W!RWWWQQWWW(c.                .      On^EWWEWWWWWT!WRR~h<1",
"1<k`WR!W!!!WW!W!~I*     .  +z*              $V~WWWWWWWWWWWTT`h<1",
"1<k`RW!!W!WW!W!!(a        :b(M   .           $G^Q!QWWWEWT!WR~j<1",
"1<k`RW!RRW!!!!!W/e      :MR!!(3      .     .  M^RWWW!TT!WT!T~j<1",
"1<h`!!WW!WW!!!!!(a    opR(WWW(x              $GQWWWWWWWWW!WR~h<1",
"1<k`WWW!(!W!W!!W(M    s[!!!WW!L#  .    . .   2W!!W!T~~WWT~WR`k<1",
"1<k`WW(RSLQ!W!!!/Re&o:I!WWWWW!W:    .        u^WWWW~GGWWWWRR`k11",
"1<k`W!s&XO6I/!W!!!!IAI!R!W!!W!W4 .          +G!WWW!!2;RRW!`TTk<1",
"1<k`Qp .2: >!QY!W!W!^~!R!W!WWQQq       .    e^RWWW`F 0L&s~CR`k<1",
"1<k'G+@L/(y z_!!!WW~RWW!WQWW/WQe  .        &J!WWWT`t Fs nZ.a`k<1",
"1<f[V i_Y_I 5_Y(!!Q!!WQ!WWQQWW(q        . XN^WWQW!R% u=&(woF`k<1",
"1<h]A.t)WQU%9_WQ!!Q!WQQWWQW!W!Q8         Xx^WWEWW^J5O  %c+3W~k<1",
"1<h]U- c(QQII(QQQ!QQQ!!!!!QWWQQ3      . Oc^RQQWWQJ3xGa=.  z^~h<1",
"1<k]QAoq{Q(QYZPQQQ!QQQQQQQ!!WQW:  .    *A^W!WQWWW4 i{^^A8,L~~k<1",
"1<v)Y)SSLcr:@.:Y!!!!!WWWQWWW!QI%     %pWQWQWWQWQmXe)M37J'R~!~k<1",
"1<f)Q)S&. .>> 5WWWW!!!!!!Q!!!(Ao  .>sI^QWQWQQW~_c et.X ,WW!R~k<1",
"1<v)YQY59*#P2oS___/!QQQ!!!!!W(s.=rVW(QWW!WWQWQG7b:  5L3oJ~R~`k<1",
"1<g)QQ^Q_A@# r_PtaU(Q!!QQ!!!W^GZ!^^Q!QQWQWWWR^N &Vac^G+=!WRT`k<1",
"1<j)QQQQY{t &RI%  %A/!!!!/!!W!((!WQWWWQ!WW!(WW_p 4^]GO.M~WRW`k<1",
"1<j]YQ!Y!Y4 x{x 0ZX*!!(!!!!!!WW!!WW!WWWWWW!s0WWQw 0!R8c!WWWW`k<1",
"1<j_QQQW/Y*2__LO>(baR/SR!~!WQW!QQWQW!W^(!^_4 pQWR, V^W~WWWWW`k<1",
"1<j)YQQ!Q/APsr/p s(/(tXr!!!!!!Q!!Q^!!(Z4&-zU: c)^c s'R!WWW!R~k<1",
"1<k]WQQQ/Q(_9 cL >/!0  6(W!!WUUQQRPU^p .%X tPo.ZW4 N(WW!!R!W'k<1",
"1<l)QQQQQQY/I:.O pR6 6@6^!!^I%6!QM.sF *LWG& ANX O 0WWWWWW!WW~k<1",
"1<h]QWQQ!Q!!/It2sI2 2L@0/!R!I.2_{Z ty n[W_x r_N43xW!WWTW!W!!'k<1",
"1<k]QQQ!QQ((//((L% %X% e(W!(IO&xce tp N(R(Z q(((Q(WW!!!!T!~R~k<1",
"1<l'YQQQQQ(Y((Y(P4pYc: r!!W(I@     tZ 4/_Q4 c(Y//YW!!!!W!WWW(k<1",
"1<k]QQ/QQ!(Y(YY((_(Q{A r(!WQIO&MAz e/4 >r= 6Q//QQQQ!!WW!!WWW'k<1",
"1<l_QQQW//Y((Y((W!!W!L&p^W!!R+>({L q_Iq@X&p!/QQ/QQWQQ!WW!!QW'k<1",
"1<l_YYQWY/(YY(YYYW!!!YPL!!!!Uo&!(S 9(!(IPY(!QQ/Y/Y!WWWWWW!!W'k<1",
"1<l|(]'']]]]_[_[]]'[''[]^''''CZ'{'CI{{_{{[']]_']_{[_]''''''(|l<1",
"1<dllklkkkklglgllklllkkklkglklllklllggllkkllklllggkklkllkkkgld11",
"111<<<<<<<<<<<<<<<<<<<<<<<<<<<<<<<<<<<<<<<<<<<<<<<<<<<<<<<<<<<11",
"1111111111111111111111111111111111111111111111111111111111111111"
};
