/* XPM */
static char *_61711898839[] = {
/* columns rows colors chars-per-pixel */
"64 64 94 2 ",
"   c #030000",
".  c #0A0205",
"X  c #0F0408",
"o  c #12040A",
"O  c #18060E",
"+  c #1C0711",
"@  c #1D0812",
"#  c #230916",
"$  c #260A18",
"%  c #2B0B1C",
"&  c #300C1E",
"*  c #340E22",
"=  c #390F25",
"-  c #3E0F28",
";  c #331021",
":  c #3B1026",
">  c #3E1028",
",  c #6B2D01",
"<  c #732E0E",
"1  c #7B301E",
"2  c #400F29",
"3  c #44122C",
"4  c #48132F",
"5  c #4C1432",
"6  c #521636",
"7  c #561837",
"8  c #551638",
"9  c #5A173B",
"0  c #571839",
"q  c #5C193D",
"w  c #601A3F",
"e  c #631A42",
"r  c #6A1C46",
"t  c #6E1D4A",
"y  c #731E4C",
"u  c #791F4F",
"i  c #7A1F51",
"p  c #74204E",
"a  c #772150",
"s  c #7C2153",
"d  c #812E22",
"f  c #823023",
"g  c #942F3F",
"h  c #95303F",
"j  c #962F40",
"k  c #963141",
"l  c #983242",
"z  c #822257",
"x  c #852359",
"c  c #8B255D",
"v  c #8E285F",
"b  c #91245F",
"n  c #92285F",
"m  c #8F2661",
"M  c #932663",
"N  c #9A2766",
"B  c #952964",
"V  c #9A2967",
"C  c #9C2769",
"Z  c #9D2A6A",
"A  c #A32A6D",
"S  c #A82A6F",
"D  c #A62D71",
"F  c #AB2D73",
"G  c #B12D76",
"H  c #B52F7A",
"J  c #BA2E7C",
"K  c #AD3075",
"L  c #B13077",
"P  c #B5317A",
"I  c #BB317E",
"U  c #C0307F",
"Y  c #BE2F80",
"T  c #BE3282",
"R  c #C12F82",
"E  c #C43385",
"W  c #C93485",
"Q  c #C43887",
"!  c #CA3886",
"~  c #C6338C",
"^  c #CB348B",
"/  c #CC388A",
"(  c #D2358D",
")  c #D3398E",
"_  c #C73490",
"`  c #CC3590",
"'  c #CE3891",
"]  c #D23691",
"[  c #D93691",
"{  c #D23991",
"}  c #DB3B93",
"|  c #D2339A",
" . c #D43B9C",
".. c #D8399D",
/* pixels */
"< < < < < < < < < < < < < < < < < < < < < < < < < < < < < < < < < < < < < < < < < < < < < < < < < < < < < < < < < < < < < < < < ",
"< < , , , , , , , , , , , , , , , , , , , , , , , , , , , , , , , , , , , , , , , , , , , , , , , , , , , , , , , , , < , < , < ",
"< < d j j j j j j j j g j j j j j j j j j j j j j j j j j j j j j g j j j j j j j j j j j g g j j j j j j j j j j j j j j d < < ",
"< , l | ^ ^ ^ ( | ^ ^ | ^ ^ | ^ ^ ^ [ [ | ( ( ^ | R | ^ | ^ ( ( ^ | ^ ^ | R | ^ ` ` ` ( ` ` ^ ~ ^ ~ | ~ ~ ` ` ` ( ~ ~ ~ | j , < ",
"< , g ^ R R R W R U U U R R R ^ U ( U U R R R U R R U R W R W R W R R U R R R R R R R R E R R R R R R R R R R W Y Y R Y ~ g , < ",
"< , j ` R E W W ( U ( ( R R ^ R R ^ R R R W W W R R R ^ W W R R R R ^ R R R R R E E E W R R W E R R ` R R R E E ~ ~ Y Y ~ j , < ",
"< , j ` R W R R U ( U R ( R R ^ R W W W W ^ W W R R [ R R ( R U R ^ R ^ R ( [ R R R ^ E ^ R R E R ^ R R R R R R Y R R Y ~ g , < ",
"< , j ` W W W W R U ( R U U ( R W W R U W W W U [ S 8 + # 9 G ( W R R ( e 2 x G ^ R R R W R E R R R R R R ~ E R Y ~ R R ~ j , < ",
"< , j ^ U ( ( U ( U U ( U U U ( W W W W W W U ( F O O r w   * U ^ R ^ J +   o o i W R ~ R R R R ~ T E R E R R T R ~ T T _ j , < ",
"< , j ( U U U ( ( R ( U U [ U U R W U ^ G 2 N [ 8   A [ [ y   b ( U ( b   i T -   B W R ^ ~ ~ R R Y E ~ R ~ T ~ R Y T T _ j , < ",
"< , j [ W W U U U R ( U R U [ U U W U ( J o 2 ( 2 # Y R R H . y ( R ^ r   S ( J o 2 [ E F A R W R R E Y Y ~ T T E T ~ E _ j , < ",
"< , j [ R R ( U ( U U ( [ U [ U ( ^ W R ( u   N e   A ( [ c   x ^ R W & * W ( G X 6 ~ 5 .   % C ` R T Y E R Y ~ T T Y Y _ j < < ",
"< , j | U U ( ( [ U U U U U [ U A F E W E J + & C . # i t . % J R ^ S . % b N 2 . C 8   8 i & . C ^ Y R R ~ Y R R Y _ T _ j , < ",
"< , j ^ U [ U U U U ( ( U [ N $   . 4 J W [ i   M S %   X 8 G W U ^ J w O .   . x F   e ( ( J # = E E R E R R E R ~ Y Y ~ j , < ",
"< , j ^ U U U [ U [ U U U S O & i 8   2 R A y   z [ E G U ^ ^ E R ^ ^ [ J A b G [ b   S ^ R ^ 2 + Y ~ R R E ~ R ~ Y T T T j , < ",
"< , j | U [ U U U U [ U U 2 O U ( [ y . c *   5 J R R W W R R E W R U R E ^ W W ^ S . e ( ( S o - E E R E R R T E R T Y _ j , < ",
"< , j | U ^ R R W R W W U % 2 ( J ^ S . c J A E R E R R W ~ ~ E E R ^ R R ^ E R R E q   5 i @   C ^ Y E ~ R R R E R E Y _ j , < ",
"< , j ^ U R U ( W R W R ( 2 . S [ ( q X G ( W E W E W R R R R W W ^ R E R R W R W ~ Y u @ . = N ~ Y ` S 6 F ~ E E T T T _ j , < ",
"< , j | U W R ( W E T E [ S o o w 3   r ( R R W M I J E W R W R R ^ E E W E R ^ R ~ E ^ E R m M ~ ~ M o   M ~ E R E E Y _ j , < ",
"< , j ^ R R W U ^ H = 8 b [ S 2 o $ u W W R R R = 5 8 t [ ^ R W E R E E W E R ^ W R E R E ^ 2 $ J e   % A ~ Y R E E E Y _ j , < ",
"< , j ` W R ^ R ( i       & c Q R E W E E E R ^ 6   . . e A R W ^ R R E W ^ R E R R W E R ^ x . o   8 R T Y ~ E ~ T T T _ j , < ",
"< , j ^ R W R W W D $ + 9 $   $ H ~ E E E E E ^ N         . $ = z J ( E R E R W W E E E R R R i 2 c N - . X 8 H ~ T T T _ j , < ",
"< , j | R W R W W ( J = % S N 9 J ~ R E E E R ( c                 % x ^ ^ R E E R W E E E ~ E W ^ A . o t e   3 Y E T T _ j , < ",
"< , j ` R R W R V M Z B # @ S / E E E E ~ E ~ Y *                     2 N ^ E R ~ R W ~ E E E R ~ 6 . D ` ] t . C ~ Y Y _ j , < ",
"< , j ` T E Q Z O X # @ O   # P E E E Q E E ^ p               .         . e E W R W E E R E R R ~ - * ~ Y E H . i ` T T _ j , < ",
"< , j ` E T / z   . 6 z c s x E Q E E E E ~ T +                       .     6 J W R E E E E ^ R W q o F ` ^ i   M ^ T T _ j , < ",
"< , j ` E E Q T m 5 X X 5 V ( E E E E Q E / t                                 > R E E ~ E R R R W F o $ t 8   * Y E T T _ j , < ",
"< , j ` E Q Q Q / Q L e . * E Q E Q E E Q E ;   .                               y ( R E E ~ ^ R R ~ V $   . 5 H E Y E T _ j , < ",
"< , k ` Q Q Q T T T ~ ] K K ~ Q Q E E E Q B .                         .     .   X A W R R E ~ R E T ~ T A F ^ ^ T _ T T _ j , < ",
"< , l ` E E Q E Q Q E T ~ ~ E W E E E E ^ 4   .         .                         % J W W E R E E R E ~ ^ ~ E T _ _ T T _ j , < ",
"< , l ` E E E E E E Q Q E E E E W Q E / m           .                               6 R W E R E E E R E T E ~ E T T T T T j , < ",
"< , k ` E E E E E E E E Q E E Q Q E W I $               + >                           6 ~ ~ E E E E R E E E T T _ T T T T j , < ",
"< , h ` E E E Q E E E E E E Q Q Q Q / r               O x / ;   .                       8 E E E E E E R T E E T T E T T _ k , < ",
"< , k _ T E E E T E E E E E Q Q Q Q Q 3   .       # a L W / c           .               @ H Q E E E E ~ E E T ~ ~ T T T _ k , < ",
"< , k _ E T E Q Q E E E E Q Q Q E Q / 7   .   . 0 T / / E W P $                         = E Q E E E E R T E E E E T ~ T _ k , < ",
"< , k ' T Q E E Q T ! ) ! Q Q Q Q T / a       3 / Q T Q Q T ! 5               .         w ~ E E E ~ W / E E E E E T T T _ k , < ",
"< , l ' Q Q E E W _ K x A ! Q Q Q Q Q I r = ; A Q Q Q W Q E ) t   .       .             M / E E E W A V W ^ Q R E Q T T _ k , < ",
"< , k ^ U E E Q I 6 .   . 5 T Q Q E Q Q / E T _ T Q E Q E E / c                       = E E E E E ~ ; : T m I ~ ~ _ T Q _ k , < ",
"< , k ' E E Q Q 7   w Z p . w / E W Q E E E Q E E Q E Q E E ( V                     . V ^ E W E ^ A   c z X L s w ~ T T _ k , < ",
"< , k _ E E Q T @ 5 { / } 5 @ U ! E Q Q Q E E Q W E E E W E ! V     .               e W E E E R ~ q . A : = W + 5 / T T _ k , < ",
"< , j ` E W ! P O w } U ) w o I ! E Q W E Q E W ! E E E E E ( n                   > E E R E E E / 8   X   w x . V ^ T T _ k , < ",
"< , l ` E W W ^ 2 o S W Q U M W / ! ! ! ! W ! E E E Q ! E Q ) z                 4 E W E W E E ! m x B 3 O .   $ Y Q T E ' k , < ",
"< , l ` U ( W ( S @ p ) ) ! W A A W W W W E W E E ! E Q W E ( r             o r E ~ E E W E / M   8 } ] H x - t ^ T T T _ k , < ",
"< , l ] U U ( U ! P L Z p 4 @   O F ! Q Q Q W Q E ! E E Q E ( 6         . 4 F ( W E E Q W E E = % ~ V & 8 T ~ E E T Q T _ k , < ",
"< , l [ U U [ U ( S $ .   ; 7 . : Q E Q Q Q E Q Q Q W Q E Q E *     $ q V ! / E E E E Q E ~ E % # e . #   8 ~ E T E Q T _ k , < ",
"< , l [ [ U [ U ! U x M % 7 t . F ) ! ) / W ! W ! Q Q E Q / K : q B P ! ( W E E W E E E / r > x .   s E % - W Q ~ E Q T _ l , < ",
"< , l } U } U U E ! ) } Z o   r ) z $ 3 Z ! E Q Q ! Q E E ! E I / ( ~ E E Q Q E E E ! ~ ! z   6 H H / r   s ^ T E E T E _ k , < ",
"< , l } U U U } W Q U ! I # @ I K X & ; . M ~ E Q W Q Q Q Q Q ! E E E Q E E E E E ! D Z ^ ( s   e / H # q Q W E E E E Q _ l , < ",
"< , l ) ! W W W W W E ( c   z } K X e ! : p / Q E Q Q Q Q Q Q E W E E E Q E ^ / / ) 5 X F ! Q 8   m ~ P W Q E E E E T Q _ k , < ",
"< , l [ U ! W W W W E ! P z A a Q r X D Q Q P > e / Q Q Q Q Q W E ! ~ ! W Q m 7 6 v A o $ I ( T . q ^ Q E E Q E E E E E _ k , < ",
"< , l / W W ^ R W ! E Q Q ) B   p D   e { K #   ; / Q Q Q U P Q ! E L T Q 9   + O   p A   3 E Z   t / E Q E Q T ~ E Q Q ' k , < ",
"< , j ` U W W W E W W ! W ! Q w . X . B D # : : * ! E E ) s % K / Z O m z   y E I 4   G x   o   = H E E E E Q E Q E E T _ k , < ",
"< , l ` Q ! W ^ W W ! E ! E ! ~ M q V M .   V 6 = ~ Q E ) t   D } A   s 3 $ E Q / D . t } M 9 s T Q E E E E E E E Q E T ' k , < ",
"< , l ` Q W W W W E ! E E ! ! ! ) } K X & 5 @   3 / Q I { p . 5 q 3   x 5 + T ! ( K   p [ ! ) ) E Q E E Q Q Q Q E E E Q ' k , < ",
"< , l ] E E ! Q W W W ! ! ^ ! W E ! P v P Q Z O 4 / Q Q ) s   $ : ;   z B   7 E L & o L ! E Q U Q Q E Q E E E E Q E Q E ' l , < ",
"< , l ] W ! W W W W W ! W W W Q Q ! ! ) / Q ) & 4 / E E { s X D ) K   p ) q   X X + x ) E W ! W ! W W E W Q E E Q Q Q E ' k , < ",
"< , l ` ! E W W W E E ! W E W E ! E E E Q E Q V v Q ! Q ) s   V } K   r ) ! V a x I / ! W ! Q W Q Q E ! E E Q ! Q Q Q U ) h , < ",
"< , k ) E W ! W W W W E E ! ! ! W W W ! W ! ! ! ! ! ! U / V 5 K ) P 7 n / ! ) ) ) ! ! ! ! W W ! W ! W ! ! Q ! W Q ! ! Q { l , < ",
"< , l ' Q ! ! ! W W ! W Q W ! W ! ! ! Q ! ! W Q Q Q ! ! ! ! / ! ! / } } ! ) U ! ! W ! ! W ! W W ! W W E Q W W ! W W W ! { l , < ",
"< , h ( U W E ! W W E W U W W E Q ! U Q E Q U ! E ! Q ! Q Q Q Q Q U U U ! U ! ! W E ! ! ! W W ! U ! W E E W Q ! E E E U / l , < ",
"< , l ..' { ] [ ] ` / { [ { { { ' ' ' ' ' ' ' ' / { ' ' ' ' ' { { { { ' ) } } ) { { { { ] ] ] { ) ) { { ' ' { ' ' ' { '  .l , < ",
"< , f l k l k l l k l l h h h l k k l l l l l k l l l l k l l l l l l l h h l h l l k l l k l k l l l l l l l l l l l l l 1 < < ",
"< < < , , , , , , , , , , , , , , , , , , , , , , , , , , , , , , , , , , , , , , , , , , , , , , , , , , , , , , , , , , , < < ",
"< < < < < < < < < < < < < < < < < < < < < < < < < < < < < < < < < < < < < < < < < < < < < < < < < < < < < < < < < < < < < < , < "
};
