/* XPM */
static char *purse1712085561[] = {
/* columns rows colors chars-per-pixel */
"64 64 63 1 ",
"  c #E3006F",
". c #E40076",
"X c #E6017E",
"o c #E60A7F",
"O c #E60580",
"+ c #E90980",
"@ c #E61384",
"# c #E61C89",
"$ c #E81C89",
"% c #E7238B",
"& c #E9258D",
"* c #E7288E",
"= c #E92B8F",
"- c #E82E92",
"; c #EA3395",
": c #EA3996",
"> c #EB449D",
", c #EC499E",
"< c #E8549F",
"1 c #EB54A3",
"2 c #ED5AA7",
"3 c #EE5DA9",
"4 c #EC62AA",
"5 c #E66AAA",
"6 c #EB6BAC",
"7 c #F166AD",
"8 c #F069AE",
"9 c #E974AE",
"0 c #EE72B3",
"q c #ED7BB5",
"w c #F17AB6",
"e c #EE83B9",
"r c #ED89BC",
"t c #F282BB",
"y c #F289BE",
"u c #EE90BF",
"i c #F38DC3",
"p c #F393C4",
"a c #F39AC6",
"s c #F39CC8",
"d c #F898C8",
"f c #F4A4CD",
"g c #F4AACF",
"h c #F6B5D5",
"j c #F6B9D7",
"k c #F9BCDA",
"l c #F7C2DB",
"z c #F8C2DC",
"x c #F9C9DF",
"c c #F6CEE1",
"v c #F9CEE2",
"b c #F7D4E4",
"n c #F9D4E5",
"m c #F7D8E7",
"M c #F9D8E7",
"N c #FAD7E8",
"B c #FADAE9",
"V c #FBE4EE",
"C c #FCE9EF",
"Z c #FDE7F0",
"A c #FDECF2",
"S c #FDF2F5",
"D c #FEFEFC",
/* pixels */
"bnnvvvnnvvnnnnnvnnvnbvnnnnnnnnbnnnnvnnbMnNnnnnnnNMnnnnnvnnnnncnn",
"bnnvnnnvnnnnnnvnnnnnnnnnnxnnnnnnnnnvnMnnnnnMMnnMMnnnnnnnnnnnnvnN",
"nnvvvnnnnvnnnnnnnvnvbnbxvnvnnMnnbnvnnnnMNNNNMnnnMnnnnnnnnnnnnnnn",
"nnxnvnnvvnnnnnnnnnvnnnnnnnvvvnnnnnnMnnMbnnnnnnnnnnnvnnnnnnnnnnnN",
"nvnvnxnnnnnxvvnnnnnnBnbvnnnnnvnnnnnnvnnnnvnnnNnNnvnnncnncnnnnnnn",
"nnnbvnnnnnnnnnnnnnvnbMMnnvvnnnnnnnnnMnnnnnnnnnnnnNnnnnnnnnnnnnnn",
"nnvnvvNnxnnvnvvvnvnnvnnnnnvnnnnnnnnnnnnMnnnnnnnnnMnbnMvbnnnnvnnn",
"vnxnnvnnnxnnnnnnnnvnnnnMnnnnNnnnnnnNnNnnnnnNnnnnnvvnnnnnnnnnnnnn",
"vnnvnvnnnnnnnnnnnnnbnnnnnnnnnnnnnnnnnnNnNnnNnnNnnnnnnnnnnnnnnnnn",
"nvnnnvnvnnnvvvnnnnnnnbnnnnnnnnnnnNNncnnnnnnnnnnnnnncnnNnbnnnnnnn",
"bvvnnnnnnnnnnNnnnnnnnBnNnnBnnnnnNNNNNNMMnnnNnMNnnnnBnvnNnnnnnnnn",
"vnnvnnnnvnvBBBNBBBBBnBBnnBBBBBBBBBBBMBBMBVBBMBVMnVBBBnvnnnnnnnnn",
"nnnvnvnnvnnnvnnvnbbnxbxnnnnnnnnnnnnnnnnnnnnNnnnnncnnNNvnnnnnnnnn",
"vnnnnvvnnnnNNnnnnnnnnnnnnnnnnnnnnnMnnnnnnnnnnnnnnnnnBNnnnvnnnnnn",
"nnnvnvvnnnnNnnnnnnnnnnnnnnnvnnnnnMnnnnnvnnnnnnnnnnNnBnnMnnvnnMnv",
"nvnnnnncnnnNnnnNnBnnnnnnBnnnnnnnnnBCVBVCBvnnnnnnnnnnNMvMnnnMMnnn",
"nvnnvvnnnnnNnnnMnnnvnnnnnnnnnnnnNZBgsidfBVbnMnnvnnNnBnnMnnnncnnn",
"nnnnnnnnnvnMnnnnnnnnnnnMnbnnnnnBAfwjvNvkwkVbnnnnnnnnBnnMnnncnnnn",
"vnnnnncnnnnBnnnnnnnnnNnnnbMnnnBZtsZZBNBZCwxVvbnbnnNnBBMvcnnnnnnn",
"nnnMnnMnnnnBnnnnnnncnBnnbnMMvBVwkSnvnnnnVBqCMnnnnnNnBBnnnnnnnnnn",
"cbnnnnnncnnnvnnnnnnnnnnnNMMbnAtlAvMnnnnnvCgjVvbnnnMnBnvnnnnnnnnn",
"nnnnnnnnnnnMnnnnvnnnnnvnBBMxSafAnMnnnnnnnBztSxMnNnnnBnnnnnnnnnnn",
"nvnnnnnnbnnBnNnvnvnnnnnnVBASlwAbnnvnnNnnbBvyCnnnnnnnBnnnnnnnnnnn",
"nnnnnnNnnnnMnnnnvnnnBnvVj@3xyBVvnnnNnnnnvMnpBnnnnNNnBMnnnnvnnnnc",
"MnnnnnnncnMBnnnnncnnvnvS7..<qfCSBvvnMnnnnnNdBnvnnNnnBnnvvnvnnnnn",
"MnnnNNnnnMMMnNnnnnBnbbBv@.1b<.:tBSVMnnnnnNnuVNnMMnnnBcvnvnnvcnnn",
"nnnMnMMnMnMMNNnnnnnnnvAt.XlD&XX.#4nAAnvvnBxeCnMnnnnNMnnnnnvnnvnv",
"nnnnnMMMnnMVnnnMnnnnnVn$XX-<XXXOX.O1hAZBxBleCvnnnnnnBnnnnnnnnnvn",
"nnnnnnnnnnNNNnnnnNMvNA,.XXX.XXOXOOX.X:dBSAlgVnnnvnnbBnNNnnnnnvnn",
"nBMnBnnnnnnMMMMnnnnvSw.XXXXOXXXOXXXOXX.%wvrVnnnnnvvnBnnnvnnnnnnn",
"nnnnnnnnnnNVMMnbnnnCn6.XXXXXOXOXXXXXXXXX >9hCCnnnnnnNnnnnnnvnnnv",
"nnMnnMnnnnBBMMnnnnCxou;.XXOXXXXXXOOXOOXXoyuo>hCvnnnnNnnnnvnvnnnn",
"nbNMMNMMMbBBmmnMMBA:.=aXXXXXOXXXOXXXXOO.1DrX aAvMnnbBnnnvnnnnnnb",
"MmNMMNMnMmmBMmNcbS6XX.,pXXXXXOXXXOOXXXXX;g:.:CnnMnnnBnnnnvnnvnbb",
"MnBBMnbnnNmBmNNcAp.XXX.1aoXXXXXXXXOXXOXXX.X.iAvnMnMnBnnbnnvvnvvb",
"mMBBNbnMnNBBNNnZv@XXXXXX,a&.+%.XXOXXOXOXXXX$BBMnnnMnnnnnnvnnvnnb",
"MnNmmbNMNMNBMMnSp.XXOXXO.=f<tVp:.XXXXOXXXO.3AnnnMnMnMnnnnnnvbnnn",
"nbmNNNNMNmBBMMnAp.OXXXXXXXXwVBACh;XXOXOXXO.0SvnnnnNNNvnnbvnnnnnn",
"nnMMNNBNmBBBMNMVn$.OXXXOX+.,SCvbD8 .XXXXX..dZnnnnnMnBNnnnvnnnnnb",
"NMmNmmNmBBBBmMmnZl-.XXOXXXX+2hCAVt62;$++#>0BBnnnnnnnMnnvnnvnnnnv",
"NbmNmMNNBBBBMNmMMZVy*..XXXXXX.>fw=600q5590yCnnnnnnnnBnnbvnnnnnvn",
"MMNnnmmmmMBBmmmNBMBAVf,X.XOXXXX.X...XXooX.%CnnnnnnnnBnnnvnnnnnnn",
"MnmMNbMNMbBBNBBmmBmMMZZk4@.XXXXXXOXXXXXXX.1CvnnvnnnnBnnnnnnnnnnn",
"NmNBBmMNmmBBBBBBBBBBnbmZAbw&.XXXXXXOXXXXX.tCvnnnnnnNBnnnnnnnnnnn",
"BmBNBBBBMnNBNMNMmBBMBMbbnVSVu:X.XOXXXXXXOXhCbMnnnnnMBnnnnnnNnnnn",
"mBNmBBBBmmNBNMBmBmNNMMMbMBcBSSg2X.XXXXXXXXlVMnnnnnNMBNnnnnnnnnnn",
"nNNmmNBBBmBBmNmMmNnbmNMbBBBnnBCSx0$XXXXX.%NVbnnnnMMnBBnnnNnnnnNn",
"bmNNbnmmBBBBNmMBNMMmNNNnnBBBnnbnVANp=XX.XpCnbnnnnnnnBBnnnnnnnnnn",
"MnmnnMnNmmBBNNmmMBMBMMMMMMnnnMMMnbBACleexABnnnBnMnnnBnnBBnnnNnnn",
"nMbnnnMNMMNBBBNbMBMMBMMMMbnnnMnMMMMnnVCCVNnnnnnnnnnMBnnnBnnnnbnn",
"MNMnnnMMbNNBmNMmMBBMBMMMMnnnMMMMNNnnnnbbNMBnBnnnnnNnBBnnMnnnnvnv",
"MnnNMMbMbnMBbMnMBMMMMMMnNnnMnbnMnnMMBNMMNmnBnnnBNnnnBnnnnnNnnbnn",
"nnnnMMMnMNMBBBBVVBBBMVMVVBVMBVVMBBBBVBVVVVBBBBBBBBBBBnnnnnbnnnnn",
"nnMbbMMnNMMNBNMBBMBBMMnnBnMnMNMMBBBBmBbMNNBBBMBBnNBMBnbnnnnnnvnn",
"nMnnnMnnnnnNnbnMnMMMMnnnnnnnnMnMMMMBNNbbbNNmnNnnnnnbnMMnnnnnbnnn",
"nmbMMnnnnnnnNbMMMMnnMMnnnnnnnnbnNnnMbNNmbbNNnBnnnBnbnnnnnnvnnnnv",
"bbMbbbMbbnnnnbNNMnMnMnnnnnnnnnnNnnMnnnnnnnnnnnnnMMnnnnnnvnvnnvnn",
"MMbMbbMbbbNnnNNMnnnnbnnbNNnnnnnnnnMNnnnnnnnnnnBnMMnnnnnnvnnnnnnb",
"MbMMMbMMmbnnMbMMnnMnMnnbnnnNNnnnnnnnMnnnnnnnnnnnnnnvnnnnnvnvnnvn",
"MbbMbbbbbbnNNMbbbnMMnnbbnnnnnnnnnnnnnvnnbnvnnnnBnnnnnnnnMMbnnnnn",
"bMbMMbnMbnMMbbNbnnnnnnbbnNnnnnnnnnbnvnnnnnnnnnnnnbnvnnvbnnnnvnnn",
"bbbbnnbnnnnnnnMbnnnnnnnnnnnnnnnnnnnnmnMvnnnnnnnnnnnnnnnnnnnnnnnn",
"MnbbnnnnbbnnvnnbnnnnbnbMnMnnnnnMnbbMnMbbnnnnnnvbnnnnnnnvnNnnnnvn",
"bbMMMMnnbbbnnnnnbnnnMnbMnvbnnnnvnnnnnMnnMvnnnnncnnnnbnnnvnnnnnnn"
};
