/* XPM */
static char *_1711733664[] = {
/* columns rows colors chars-per-pixel */
"64 64 81 1 ",
"  c #E6017E",
". c #E8027E",
"X c #E60A7F",
"o c #E90B7F",
"O c #E5137F",
"+ c #E70581",
"@ c #E70C82",
"# c #E80C82",
"$ c #E61384",
"% c #E71986",
"& c #E91A86",
"* c #E81688",
"= c #E61F88",
"- c #E91E8A",
"; c #E52186",
": c #E7238C",
"> c #E9238C",
", c #E62C8C",
"< c #EA298E",
"1 c #EA2C91",
"2 c #EA3392",
"3 c #EA3A96",
"4 c #EA3F99",
"5 c #E94296",
"6 c #EB439B",
"7 c #EC4D9E",
"8 c #EB4CA1",
"9 c #EC54A3",
"0 c #EC5CA6",
"q c #ED5DA9",
"w c #F05BA8",
"e c #EB60A7",
"r c #EE64AC",
"t c #ED69AD",
"y c #F065AC",
"u c #F16EB1",
"i c #EE74B3",
"p c #ED7BB5",
"a c #EE7DB8",
"s c #F173B4",
"d c #F07CB7",
"f c #F27EB9",
"g c #ED80B6",
"h c #EE85BA",
"j c #EE8CBD",
"k c #F184BB",
"l c #F18BBF",
"z c #EE8EC0",
"x c #F48BC1",
"c c #F88BC3",
"v c #EE94C1",
"b c #EE9AC3",
"n c #F294C3",
"m c #F29BC7",
"M c #F49DC9",
"N c #EFA6CA",
"B c #EEAECC",
"V c #F4A3CC",
"C c #F3ACCE",
"Z c #EFB3CF",
"A c #F2B2CE",
"S c #F6A7D0",
"D c #F4AED1",
"F c #F5B4D4",
"G c #F5BAD6",
"H c #F8BAD7",
"J c #F6BED9",
"K c #F6C3DB",
"L c #F9C6DE",
"P c #F6C9DF",
"I c #F8C8DE",
"U c #F6CDE0",
"Y c #F9CCE1",
"T c #F7D4E4",
"R c #F9D4E5",
"E c #F9D8E7",
"W c #FBD7E8",
"Q c #FADAE9",
"! c #FCE3ED",
"~ c #FDE7F0",
"^ c #FDEAF1",
/* pixels */
"TRRYRYRIRRRRRRRRRTRTRTRRRRRRRRRRRRYRRRRRRWRREWRQRWRRRRRTRRRRRRRR",
"RRRYRIRRRYRRRRRRRRYRRRRRYRTRRRRRRRRRRRRWRRRRERRWWRRRRRRRRRRRRYRR",
"RRYRRRRRRYRRRRRYRYTRYRRRYTUTRRRRRRTYRRRRRQQRRRRERRWRRRRRRRRRRRRR",
"RRYRYRRYRRRRRRRRRRYRRWTYRTYRTTRRRTRRRRRERRRRRRRRRRRRRRRRRRRRRRRW",
"YRRRIRRRRRYRRRYRRRRRWWTRRRRRRRRRRRRRRRRRRRRRRRRWRRRRRTRRRRYRRRRR",
"RRRRIRRRRRRYYRRRRRRYTRRRRYYRRRRRRRRRWRRRRRRRRRRRRRRRRYRRRWRRRRRR",
"YRYIRYRRYRRRYRRRRYRRRRRRRRRRRRRRRRRRWRQQ!ERRRRRRRRRTRRRRRRRRRRRR",
"RRTRRRRRRYRRRRRYRRYRRRRWRRYRRRRRRRRQ!^^^^^^!QWRRRRTTRRRRRRRRRRRR",
"RRRRYRRYRRYRRRRRRRTRRRRRRYRRRRRRWQ!^EVkssdnY^!QRWRRYRWRRRRRRRRRR",
"RIRRRRRRRRRRYRYRRRTRRRRRWRRRRRRR!~YfqxJYRYMydQ^RRRRRRRRRRRRRRRRR",
"YYRIRRRRRRRRRRRRRRRYYRRRRRRRRRR~^VwM!^^QQ~^^VwT^WRRRYRRWWRRRRRRR",
"YRRRYRRRYRYRRYRRRRRRRRRYYRRRRR!^dsQ^QWRRRRWQ^HqQ!RRRRRRRRRRRRRRR",
"RRRRYRRRYYRRYRRYRRRRYTTRRRTRR!!wn^~TRRTTRRRRQ^Md^WRRRRYRRRRRRRRR",
"RYRRRRRYRRRYRRRRRRTRRTYRRRRT!!rV^QWRTRRRRRRWR!!rP!RRWRRRRRYRRRRR",
"RRYRRYYRRRRRRRRRRERRRRWRWRRQ~an^!TERRRRRRRRRRR^Dk^WRRRRRRWRRRWRY",
"RRRYRRRRRRRRRRRRWRRRRRRRREQ^ms^!WWWTRWRRRRRRWR!Rr^QRRRRWRRRRWRRW",
"RRRRRRYRRTRRRRRRRRWRRQQWRR^K0Q!WWRRRRRWWTRRRRRQ!yR!RRRWERRRRRRRR",
"RRRRRYRRRRRRRRRRRWRR~^^~Q!^0G^WWWRRRRRRWRRRRRRQ^hF!RRRRWRRTTRRRR",
"YRRRRRRRRYRRRYRRRRRQ!eyJ^^mp^QRRTERRRRWRRRWRRRQ^jm^RRQRTTTYRRRRR",
"RRRRRRRRRTRRRRRRRWR~F$.#9T9E~WERTWQRRRRRRRRRRRR!Mc^WRRRTTRRRRRYR",
"RRRRRRRRRRTYYRRRTTQ^9 . 2hhNT^~QWTRRRRWRRRRRRRR^Sk^RRRRRRRRRRRRR",
"RRRRRRRRRRRRRRRRTR!R$  $NrpX1pK!^!ETRRRRWRRRRRR^Mc^RRRRRRRYRRRRR",
"RRRRRRRRTRRRRRRRRR^p   s!T5 + %0D!^!QWRRYRRRTTT^lM^RRRRRRRRRRRRT",
"RRRRRRRWRRRRRRRRT!Q;  >R^T$.    +4mQ^!QRRRRYTRE^gJ!RRRRRRRRRRYRR",
"RRRRRRRRRRWRRRRRR^k.  @tKj      .. :gE^^QTTWRTW^yR!RRRRRRRRTRRRR",
"RTRRRERRREERRRRE^L&     XX      ..   %tK~^QWRRQQ0^QRYTYRRYYRRYRR",
"RRRRRRERWTTERRE!E5.          +.      . $7N!^!W!Iu^QRRRRRRRYRRRRR",
"RRRWREERRERWRR!!t  .          + +.     . X3jR^^mm^RRRRRRRRRRRRIT",
"RWRRRRRRRRWERQ^G$ .    .  +. +.+.++         :sPtI!ERRRWRRRRRRRRR",
"RRRRWWRRRRRTQ^YK: .++ +.   + . +  ..     .   .peP!^!QRRRRYRRRYRR",
"RRRRRRERRWWW^Q2jg..        .+ ..+.+ .+  ..   :kp25vQ^QYRRYRRRRRY",
"RWEEREERRWW!^9 :F5    .+  . .++  +.+  .+     nANX  2R!RRRRYRRRRR",
"TTWWEQWWEEQ^gX  8F*++ .++.. .+ ..++ ++.  +  2Q^b   7!QRRRRYRRTTT",
"EEQWEWWWEQ^D$   +uV@+. .  ++  . . . . .+    qE!0   N!RRRRYRRRRYT",
"WEWWETTTE~P,    .@zm$+.. +  +.. +.+++ +. +  +<9%. ,Q!RRRRYTTRRRT",
"TEQQQTTE!!9     .+@zm$.+           ...+       +   x^RRRRRRRYTYRR",
"WTWETEWQ~a+.    .  @hD>.    ..      ++ .+        %!!RRRRRRRYRRRY",
"ETEEEEW~U*         + tK6. %e:.       . +   +     t^WTTRRRYRRRRRR",
"WTEEEQE^bX           .6Fj%a^WM7o     +.++       XF!ETRRTRRRRRRRR",
"WWTEEEE^z          ....=jGE!!~!F0$    .   +    +$T!RTRRYYRRRRRRY",
"WEQQTQQ~CO..    +       Xh^EEEQ^^F-.     +      >!!RRRRYRRRRRRRY",
"TETQTTT!!7..    +.+    +.F^!WEEE!I%.       +    6^QRRRWRYRRRRRRR",
"EETTQTQQ^T3             +8F!^!WQ^V=+    ++ +...+f^RRRRRRRRRRRRRR",
"QEQQQQTQQ^Ee@       +   .  3M!^^!GUJbr62=$@$,5iD!~RRRRRRRRRRRRRR",
"QQQQQQQQEW^!G9%.         . .+,pPho%2eamZBBBBBbhrL!RRRRRRRWRWRRRR",
"QTQTQQQQEEE!^^Ps,           + +%@.     O$$$O@X.&Y!WRQRRWRRRRRRRR",
"TQEWWEQWWWEEEQ!^Rx3@        .   .              ,Q!TWWRRRRWRRWRWR",
"TTEWTTWWEQWQEEE!!^!N7%                         5^QRRRWRRRWRRWRRR",
"TTEWWTEEEEWWTETEQ!!^^Ki=.   .        .        .t^QTERRRWWRRRWRRR",
"QETTWTWWEEWWEWWERQRE!~^Rk,. ..    .   + .      j^WRRQRRRWEWRRRRR",
"TWWWWTTETETWTQEERQQERE!!^!V5o.       +  +     +S^RRRWWRTTTERRYRR",
"WWTWEETWTTWWEETEQQEERETRE!^!Fe%.   .    .+    $I!ERRRRERRRERRTTR",
"TTWTWWTWWWWTQQTQEETEETREREW!!^Ka,o....     ...,R!RRTWRWTRRRRRTRR",
"TTTTTTTEWWTWTTTWEEEEETRTRERRE!^^Tv4@..   +  ..9!QRWERWRRRRRRRTRR",
"WWWWTETWTTTWQTQTEEEEEETERERRRETQ!^!D0$.     .oV^QRRRTTRRRRRRRRRY",
"TWTTQQTTWRTWWTWQEERREEETRRRERRRRWE!^^Ui;    Ok^!RRRRWRRRRYRRRRRT",
"TTTERRERTTTRRTWWETETERTTRRRRRRERWTRWQ~^QFjhmP^!EWRRRRRRRRRRRYRYR",
"ETEETREETTERRWEWETERTTTRQRQRRRRRRRRWRWW!^!^!!!WEWWRYRRRRRYRYRRRR",
"ETETTTRETRWTETEWETETERTRRRQRRRRRRRRETRTRRRRRRRRRRRRRRRRRRRRRRRRR",
"ERTETTTEWTRWEETTTTTEERRRRRRRRRRRRWRRRTRRRRRRRRRWWRRRRRRRRRRRRRRR",
"REETTERTTRRWEETERTRTTTRRRRRRERRRRRRRRRRRRRRRRRRRRRRRRRRRWRRRTRRR",
"TTTRETTTRRRRTTTTRRRETTTRRRRTRERRRRTRRRRTRRRRRRRRRRRTRRRTRRRRRYRR",
"TTETERTETTRRYRRTRRRRTETEERRRRRRTRRRRERRRRRRRRRRPRRRRRRYRRRRRRRRR",
"ETEERERRETRRRRRRTTTREETRRRRRRRTTRRRRRERRRTTRRRRRTRRRRRRRRRRRRRRR"
};
