/* XPM */
static char *_1711898836[] = {
/* columns rows colors chars-per-pixel */
"64 64 64 1 ",
"  c #E3006F",
". c #E40076",
"X c #E6017D",
"o c #E60A7E",
"O c #E60380",
"+ c #E70D81",
"@ c #E61385",
"# c #E81285",
"$ c #E61987",
"% c #E81B86",
"& c #E91E8A",
"* c #E9268E",
"= c #E9298F",
"- c #E92D91",
"; c #EA3394",
": c #E83C95",
"> c #EA3D99",
", c #EB429B",
"< c #EA4C9E",
"1 c #EC4EA1",
"2 c #ED55A4",
"3 c #EE5EA8",
"4 c #ED63AB",
"5 c #EE69AE",
"6 c #F169AF",
"7 c #EE6DB0",
"8 c #ED74B1",
"9 c #F173B2",
"0 c #F07CB7",
"q c #F17DBA",
"w c #EA82B6",
"e c #EC85B9",
"r c #EE8CBD",
"t c #F285BC",
"y c #F189BD",
"u c #F38CC1",
"i c #F393C4",
"p c #F29AC6",
"a c #F39CC8",
"s c #F3A3CC",
"d c #F4A9CE",
"f c #F5ADD1",
"g c #FAA9D1",
"h c #F6B4D4",
"j c #F9B6D6",
"k c #F4B9D5",
"l c #F7BCD8",
"z c #F8BDDA",
"x c #F6C1DA",
"c c #F8C3DC",
"v c #F8CBDF",
"b c #F7CFE2",
"n c #F9CEE2",
"m c #F7D3E4",
"M c #F9D4E5",
"N c #F9D8E7",
"B c #FAD7E8",
"V c #FAD9E9",
"C c #FBE4EE",
"Z c #FBE8EF",
"A c #FDE7F0",
"S c #FDECF2",
"D c #FDF2F5",
"F c #FFFCFB",
/* pixels */
"mMMnnMMMvmMMMMnMMnmMnMMMMMMMMMmMMMMnMMMMMMMMMMMMVVMMMMMMMMMMMmMM",
"mMMnnMMnvMMMMMnMMMMMMMMnMnMMMMMMMMMnMMMBBMBMMVMBMMMMMMMnMMMMMnMM",
"MMvMvMMnMnMMMMMMnMnmnMMMMnnmMMMMmMMMMMMMMBBMBMMMMMMMMMMMmMMMMMMM",
"MMnnMMMMMMMMMMnMMmMMMMMnMmnmMMmMMMMMMMMNMMMBmMMMMMMMMMMMMMMMMMMB",
"nMMMvMnMMMMnMMnMMMMMVVmmnmMMMnMMMMMMMMMMMnMMMMMMMMMMmmMMmMMMMMMM",
"nMmnvMMMMMnMnMMMnMMnmMMMMMnMMMMMMMMMMMMMMMMMMBMMMMmMMMMMMMMMMMMM",
"MMMMMMMMnnnMnMnMMMnMMMMNMMnMMMMMMMMMMMMMBMMMMMMMMMMmMMMmMMMnMMMM",
"MnvMvMMMnMMMMMMnnMMMMMMMMMMMMMMMMMMBMBMNMMMMMBMMMmmnMMMmmMMMMMMM",
"MMMMMnMnMMMnMmMMMMMnMMMMMMnMMnMmMMMMMMMBBMMBBMBMMMMMMMMMmMMMMMMM",
"nnnMMMMMMMMMnmMMMBMmMMMMMMMMMMMMBBBMnmMMMMMMMMBMMBnbMMBMMMMMMmMM",
"mMMnMMMMMMMnnMnMnMMnMMMMMMMMMMMmMMMMMMMMMMMMMBMMMMMMMnMMMMMMMMMM",
"MnMvMMMMmMnMMMnMMMMMMMnnnMMMMMMnMBMMmMMMMMMMMMMmMMMMMMMMMMMMMMMM",
"vMnMMMnMnnMnMnMMMMMMmnMnMMMMMmMMMMMMmMBMnMMMMMMMMMMMMMMMMMnMMMMM",
"MMmnnMMnMMMnMMMnMMbMMmMMnMmMMMMMMMMCACVAAVMBMMMMMbMMMMnMMMMMMMMM",
"MMMMMnnmmMMMMMMMMMMMMMMMMMMmMMMMMZAzdyqpjVAMMMMnMMMMMMMMMMMMMMMM",
"MMMnMMMMMMMMMMMMMMMMMmMMBMMMMMMMSv6icMVnf7cSMMMMMMMMMMMMMMMMBMMM",
"nMMMnnMMMnMMMmMMMMMMMMMMMMMMMMVDp0nDCBBCDV9cZMMMMMMMBMMVMMMMmMMM",
"MMMMMMMMMMMMMMMMMMMMmMMMMmMMmBDtpDCnMMMMnZV9VBMmMMBMMMMMMMbMMMMM",
"nMMMMMmMMnMMMmMMMMMnMVMMMmMMMSuaDNmMMMBMBnDsgZMmMMMMMVMnbMmMMMMM",
"MMMMMMMMMMnmMMMMMMMMMMMMmmMmDsuDNMBMMMMMMMVVqZMMMMMMMMBMMMMMMMMM",
"mMMMMMMMMmMnnMMMMMMMMMMVSAMZx6DNMNMMBMMMMnMZ9MVMMBBMMMMMMMMMMMMM",
"mMMMMMMMMMMMmMMmnMMMMMMAalDS9vCnMMMmMMMMBMMZtkCmMMMMMMMMMnMMmMMM",
"MMMMMMMMmMMMMMMMMnMMMmAk.X4raFVnMMmMMBMmMMMZugCnMMMMMMMBMMMMMmMM",
"MMMMMMMMMmmMMMMMnMMMVMS2..:w5tMDCMnMBMMMnnMZigZmBBMMMMMnMMMnMnMM",
"MMMMMMMMmMNMMMMMMMMMbCb#.-ndo.%4zSSVMMMBMMnAejCMMMBMMMnMMMnMMMMM",
"MMMMBMMmMMNMBMMMmMMMMD5.XtFiXXX.O,aADCbnMMMA8nVmBMMMmnmMnMMMmnMM",
"MMMMMNNMMVmNBMMMMMMMAn+X.@2*XXXOX..-0BSAMbMC7CVMMMMMMnMMMMnbMnnM",
"MMBMMNNNMMMVMMMBMMMVC>.OOX.XXXOXXXO..&4jDACbySMMMMMMMMMMMMMMMMnM",
"MMNMMMMMMMmNBMMVBMNZ4.XXXXOXXXXXXXXOOX.o1pSsfCnMMmMnMMMBMMMMMnMM",
"MMMMBMMMMBBMmNMMMMSN=.OXOOXOOOOOOXOOOXXX..>8cFZMnMMMBMMMnMMMMMMM",
"MBMMMMNMMMMMVNmmnDg<pXXXXXOXXXXXXXXXXXXOX.<e,2fCBnMMMnnMMMMnMMMn",
"MBNMMNMMMMVVNNMmAM&.w7.XXXOXXXOXXOXOXOXO.=Zk@ %VVnMMMMBMMnnMMMMM",
"mmBNNVNBmNBmmNNVZ>.XXp1.OXXXXOOOOXXOXXOO.1FaX.6DMMmmMMMMnMMmMMMM",
"BNBVNBBmBNmNNNND5XOX.+d1.XXXOXOXXOOXOXOXXX;=XXzCMMMMMMnMMnMMmnmm",
"NNVVmNmBBBmVmmDp.OXXO.#p4.XoX.XXXXOOXXXXXX.X.2SmVmMMMnMmMMMnMnmn",
"mNVVBmNmBBBVmAN$XOXOOOXOyt#.1,X.XXXXOXOXXOOOXdDmVMMMMMMMMnnMmmMM",
"NNNNmmVmmBVVmSs.XXOOOXXX.6a4VFh3#.XXOXOOXXOX%BVMBmBMMMMMMMmnMMnM",
"NmmNBBVVNmVVmShOXXXXXOXXX.*cAnADv6XXOXOXOOX.;SMMMMMMmmMMnMMMMMMM",
"BmBNVBVmNVVVVVS1.XOXXOOXXX.hFVnnFt .XXXOX...3DnMMMMMmMMMMMMnMMMM",
"BNNBVmVVVNNNNmCC2.XXXOXXXXX*unSADy61-#+XX@=1zCMMMBVMmmMnnMMMMMMn",
"BmVVmVVVNNNmVVmCSa,o..OXXXXX.@4np-4euirwwyrrVCMMMnMMMMMmnmMMMMMM",
"mNVmmVmNNNNNmBNNNSDl2$.XXXXXOX..X...XoooooXXcCnMMMMMMMMmMMMMMMMn",
"BNmNVmNVVmVVVVVVNNNSDmq-XXXOXOOXXOXXXXXXXXo*MVnMMMMMMMMMnMMMMMMM",
"VVVVVVmVmBmVVVNVVVVBmZSZa,+..OXOXXXXXXXXXX.:CMMMMMMMMMMMmMMMMMMM",
"VVVVVVVVBmVVVNNNNNNNBBmNSSn4&..oOXXXOXXOXX.4DMMMMMMMMMMMMMMMMMMM",
"NNVNVVVVVmVmmNVVNNBBmVBmMVADMy-.XXOOXXXOOX.yDmMMMMBBVMBMBMMMMMMM",
"mmVmNVVVVmVVVVNNNVNmNBNmMVVMCDZf,o..OXXOXXXfZMMMBMMMVMMMMBMMMMBM",
"mVVVmmNVVVVVVmNVVNNNNBNmVVVMMMNDSc9*X.XXOX%BVmMMMMMMMBMMMMMMVMMM",
"BmNBBBmVNNBBmNmBNNNNVNNNNNMMNMNMMASZi;+X.%fZMBMMBMMBMMMVVMMMBMMM",
"mVmmMmNVNNBBBVVmNNNNVNNNNMBMNNMNmMMVDZbklBDMMBMMMMMMNMMMVMMMMMMM",
"BBmVBmNVmNBMNNBmMNNNNNNMNMnMMMMNBBMMMMCAZCMBMMMMBMMMMVMMmmmMMMMM",
"BmBVNNmmmNmBNNNVCNNMNNNNNMMNMNmMMMMMVMBmMMBBBMMBBMMMMMVMMMVBnnmM",
"mmBmNBMMBNMMNNmVNNNNNMMMMMNMMMNNMmVNNNNNVNNNNMNBMMMMNMMMMMMMMmMM",
"mBBmmBMVBNBBNmmBNNNNNMMMBNMMNNMNVMBVMNNNNNNVNNMBMMNMNMMMMMMMMMMM",
"mBmmmMMMmmBBmmBMNNNMMNMMMMNMNNMNBBmVVVmmmNVMMNBMBMMMMMMMMMMMMmmm",
"BmVmVVMMMMMMBNNNNNNNMNMmMMMMBMmMVmBNMMVNmMVNMMMMMMMMMMMMMMnMMMMn",
"mNNmNmMmmmMMMmVNMMMMNMmmMMMMMMMMMmBMMMMMnMMMBMMMMNMMMMnbnMMMMmMM",
"NmNNmNMNmmMMMNVNMMNNmMNmNMNMMBMMBMMBMMMMMMMMMBBMNMMMMMBMnMMnnMMv",
"mmNmNmmNMMNMNmMNNmNMNMMmMMMBMMNMMMMMMmmMMMMMMMMBMMMMMMMMmMMMMMMn",
"NmmNNmNMmMNNVNmMNMMNNMmmMBMMMBMMMMMMMMMMmMMMMMMBMMMMMMMMMMmMMMMM",
"mmNmmNMMMMMNmmVmMMMMMMmmMBMMMMMMMMMMMMMMMMMMMMMMMmMMMMmMNMMMMBBM",
"mNmmMMMNMMMMMMMmMMMMMMmMMMMMMMMMMMMMmMMmmMMMMMMMMMMMMMMMMMMMMnBn",
"MNMMNmmMMMMmmMMmMMMNMMMNMMMMMMMMmMMNMNMmMMMMMMMmMMMMMMMvMMMMMMMn",
"NMMMNMmNMMmMMMMMmMMMMMMMMmMMMMMMMMMMMMmMMMnMMMMvMMMMmMMMmMMMMMMM"
};
