/* XPM */
static char *_1712000302[] = {
/* columns rows colors chars-per-pixel */
"64 64 79 1 ",
"  c #E3006F",
". c #E40076",
"X c #E6017E",
"o c #E60A7F",
"O c #E60580",
"+ c #E90980",
"@ c #E61384",
"# c #E61C89",
"$ c #E81C89",
"% c #E7238B",
"& c #E9258D",
"* c #E7288E",
"= c #E92B8F",
"- c #E82E92",
"; c #EA3395",
": c #EA3996",
"> c #EB3998",
", c #EB449D",
"< c #EC499E",
"1 c #E8549F",
"2 c #EB54A3",
"3 c #ED5AA7",
"4 c #EE5DA9",
"5 c #EC62AA",
"6 c #E66AAA",
"7 c #EB6BAC",
"8 c #F069AE",
"9 c #E974AE",
"0 c #EE6AB0",
"q c #EE72B3",
"w c #ED7BB5",
"e c #F073B4",
"r c #F17AB6",
"t c #F17CB9",
"y c #EE83B9",
"u c #ED89BC",
"i c #F282BB",
"p c #F289BE",
"a c #F3AEBE",
"s c #F4B0BF",
"d c #F38DC3",
"f c #EE9BC4",
"g c #F393C4",
"h c #F39AC6",
"j c #F39CC8",
"k c #F898C8",
"l c #F4AFC0",
"z c #F4A4CD",
"x c #F4AACF",
"c c #F4B3C1",
"v c #F5B7C8",
"b c #F5BAC9",
"n c #F6AFD2",
"m c #F6B5D5",
"M c #F6B9D7",
"N c #F6BCD8",
"B c #F9BCDA",
"V c #F7C5D5",
"C c #F8C6D6",
"Z c #F7C8D7",
"A c #F7C5D9",
"S c #F8C3DB",
"D c #F7CADA",
"F c #F8CBDC",
"G c #F7CFE1",
"H c #F9CEE1",
"J c #F7D3E4",
"K c #F9D4E5",
"L c #F9D8E7",
"P c #FAD7E8",
"I c #F7D9E9",
"U c #FAD9E9",
"Y c #FBDEF0",
"T c #FCE4EE",
"R c #FCE9EF",
"E c #FCE4F1",
"W c #FCECF2",
"Q c #FDF2F5",
"! c #FEFEFC",
/* pixels */
"JKKHHKHHHKPKKKHKKKKKKKKKKKKKKKKPKKKKKKKKKKPKKLKKUUKKKKKJKKKKKKKK",
"JKKHKKKKKHKKKKHKKHHKKKKHHKJKKKKKKKHKKKKPKKKKPKKUKKKKKKKKKKKKKHKK",
"KKHHKHKKKHKKPKKKHKHKHKKKKHHJKPKKJKKKKKKKPPKPPKKKKKKKKKKKJKKKKKKK",
"KKHKHKKHKKKKKPHKKKKKKKKKKJHKHKKKKJKKKKPKKPKKJKKKKKKKKKKKKKKKKKKP",
"HHKKHHKKHPHHHHHPKKKKLLJJHKKKKHKKKKKKKKKKKKKKKKKPKKKKKJKKHKKKKKKK",
"KKKHHKKKKHPPKKKKKKKHKKKKKKHKKKKKKKKKKKKKKKKKKKPKKKKKKKKKKKKKKKKK",
"KKHKHHKKHKPHKKHKKHKKKKKKKKHKKKKKKKKKPKKPKKKKPKKKKKKHKKKJKKKKKKKK",
"KHHKKKKKKHHKKHPHKKHKKKKKKKKKPKKKKKKPKPKKKPKKKKKKKKJJKKKKKKKKKKKK",
"HKKKKKHKKKKKHHKKKKJKKJJKJJKJKKJJPKKKKKKKKKKPKKPKKKKKKKKKKKKKKKKK",
"KHKKKKKHKKJKKPPPPPPPLKPPPPPKKPUKYPUPIKUUUPPUUPUPPPKKKKKKKKKKKKKP",
"HKHHHKKKKKKFNCCCVVCVVVVVCCCCCCCVCCCCVVCVCCCCCCCCCCCCHKKKPKKKKKKK",
"HKKKKKKKHPHzaaaaaaacllaaaaacaaaallllasaaasslacsaallacJKKPKKKKKKK",
"KKKKKKKKHKCvUKKKKKPKKKHKKKKKKKKKKPKKKLJKKKKKKKKKKJKYvAPKKKKKKKKK",
"HKKHHHHKKKFvHFHHFJHFHHFHHFHHFKJHJHJHHJHHFHKKHHFKFHDKbCPKKKHKKKKK",
"KHKHKKKHJPFvKKKKKKKPKKPKULKKPKKKKKKJKKKHPPKKKKKKPKHKbFPKKKKKKKJH",
"KKKKHKKKKPCbKHPKKKKKKKKKKKKKKKKKKKUWTUTWUHKKKKKKKPHPbCKPPKKKPPPK",
"KKHPHHKKKPDvKHPKKKKKKKKKKKKKKKKKKWPnhdkzLTKKKKKKKPJPbCUPKKKKJKKK",
"HKKKPKKKHKFvKKKKKKKKJKKKKJKKKKKUWzrmHKHBtBEHKKKJKKJKbFUKKKJKKKKK",
"PKKKPKHKKKFvPHKKKLKHKPPKKKKPKKUWijWEUPUWWrHTHPKKKKHKbFPJHJKKKKKK",
"HPPKKKKPKKCvKJKKKKKKKPKKKLLKJLErBQPHKKPHUUwEKKKKKKKLbCPKKKKKKKKK",
"HKKKKKKKKKCvHKKKKHKKKKKPLPKKKWiSWKKKPKKKKRzMRHKKKPKKbCPKKKKKKKKK",
"HKKKKKKKKUFvKHKKKKKKKKJKLUKHQhzWKKKKKKKKKTFiWHKKKKKKbCKKPHKKKKKK",
"KKKPKKKKJKCvKKKKHKKKKKKKTLWWSrWJKKHKKPKKJUHiRKKKKKKKbCUKKKKKKKKK",
"KKKKKKKPJKFbKKKKHKKKPKHTB@4FdUTHKKKPKKPKHKPgUJKKPPKPbFPKKKKHKHKK",
"KKKKKKKKKLFbKJJKKKKKKKHQ5..1wzRQUHHKKPKKKKUkLKKKKKHKvFKHKKHKKKKK",
"PKKPPKKJKLDbKKKKKKPKKKUH@X2G1.:iUQTKKKKKKPKgUKKKKKJPvCKKKHKKKHKK",
"KKKPLLIKPIDbKKPKKKKKKHQi.XS!&XX.#5JWWKHKKLDuWKKKLKJKvAPKKKHHKHKK",
"KKKKKKLLKIFbUKKLPKKKHTK@XX-1XXXOXXo2mWWPHUStQJKKKKHJbFLKKKKKKKHJ",
"KPKPJKKKKPFbPJKKKPPJKW<XXXX.XXXXXXXXX;jPQWNxEHKKJHHKbFPPPKKPKHKK",
"KPKPPKKKKLFbKJLKKKKHQr.XXXOOXXXOXXXXXX.&rHuTKHKKKKHPbFKKHHKKKKKK",
"KKKKKKKKKLFbLKKKKKKEJ5.OXXXXOXOXXXXXXXoX ,eMQRKKKKHKbSPPKHHKHKKK",
"KPPKKLKPKLHbLKLKKKTH@d;.XXXXXXXXXOOOXXXXoifo:mWKJKHKbBPHKPKKKKKK",
"PKLLLLLLLLZVJKKKKLW>.*hoXXXXXOXXOXOXXXOX2!u..hWKKKKPbCUKHKKKKKKK",
"KKULLLLKKLZbLKLGKQ0.o.,gXXXXOXOXXXXXXXXX;z:.:RKJKKHKbCPKKKKKKHJJ",
"LLUUKLKKLLDbLLLJWh.XXX.2g+XoXXXXXXOXXXXX.XXXdQHKKKJKvCKKHHKHKHKH",
"PLLULKKKKUDbLKKTH@XXXXXX<k&.o%.XOOXXOXXXXoX#LUJKKKKKvFPKKKHKKJKK",
"KPLLKLLPPUGbLGLQd.XXOXXO.=z2tRg:.XXXXOXXXO.4WKKPLLKKvCPKKKKHKKHK",
"LKPLPKLLKIDVUGKQg.OXXXXXo.oqRUWRm-XoOXOXXO.qQHKKKPKKvCKKKHKKKKKK",
"KKKLLULLJTDVLLLTK#.OXXXOXO.<QEHK!8 .XXXXX..kWHKKKKJKbFKJJKKHKKKK",
"LIKILLLLLUZvKJLKWS-.XXOOXXX+3mWWRi83;$++#,eUUKKKKKKPvFKJHKKKKKKH",
"LKPLKLLLLUGbULLLKWTp=X.XXXXX.X,jr*7qq96799pRKKKKKKFKbCPKKKKPKKHK",
"KILPKIILLIGbJJLLLJLQTz,XXXXXXX..X...Xoo+o.$EKKKKKKHKbFPKHKPKKKKK",
"LIKLLPKLLLDbLKUULLLPKWRN5@.XoXXXXOXXXXXXXX2WHKKKKKJPbCPHJKKKKKKK",
"LLLULLLLJLGbULLUUUUUKKKRWJr&.XXoXXOXXXXXX.iRHKKKKKHKvFPKKKKKPKKK",
"UULIUUUULIDbUKLLLLLLLLKKKTQTg:X.XOXXXXXXX.nEKKKKKPHKbFPKKKKPKKKK",
"LLLPLUUULUDVPKULUILIKLIKPUJLWQx3o.XXXXXXXoFRKKKKKLKLbFPKPKKKKKKK",
"KLLPPLUULUDbKKLLILKKKILKLUULKLWWSe$XXXXoX%LULKKPKKJKbFPKKKKKKKPK",
"KPLLKLLLUUDVUKLLLLPLLILKLULLKLPKTWPg*XX..gWJKKKKKKJKbFPKKPKKPKKK",
"KLKKKLKLIUGbLKKLLULUULLULLKLKKLLKJTWRAywCWKKKPPKPKJPvFPPPLKKKKKK",
"IKKPKKLLLUFbKPLLLUUUULLULKKLLLLPPPKJLTWQEUKKKPKKKLJPbFLKLKKKKKKK",
"KLKIKLLLKLFbLKKGKGLJGLGGJJFGJJJJJHKKHFGGKJKKKKFKKFFKbFKKKKLKKJKK",
"KKKLLLJKKIDbTLLUTUUTUUULPLPPLKKLPKLULLUUULKUUKKUPKPYbFUKKKLKKJKK",
"KKKLKLKKPLJcccscsssssssssssssscssscscsccvccccccccsaacJKKKKKKKKKK",
"KLLJJLKLUKUJVVVZZVZZZCCCZZCCZFDDVFFZDDZZZZZFDAVCCCFVJKKKHKKKHKKK",
"KLKKJLKLKKKLLILLUTLTTLLLPPULLULUUUKUUUIIUUULLUUPPPPLKKKKKKKKJKKK",
"KIKLULKKKKKKPKILKLKKKKKKKKKLKKKLUKLKKKKLKKPUKPPKKKKKKPKKKKKKKKKH",
"KJLJLFLFKKKKKJLLKKKKLKKKLKKKKKKKLKLKKKKKKKKPKKKKPKKKKPKHKHHKKHKK",
"LLJLLLLLKKLKKLLLKKLLLKLKKKLPKKKKKPKPKKKKKPKKKPPPUPKKKKKKKKKKKKKK",
"KKLLLLLLJKLKKLKLLKLKKKKJKKKKLKLKKKKPKKKKKHKKKKKKKKKKKKKKKKKHKKJK",
"LFLLLFLLJLKLLLKKLKKLLKFLKKLKKKKKKKKKKKKKKKKKKKKPKKKKKKKKKKJJKKKK",
"LKLKLJKFGKKLKLKLKLKKKKKKKPKKKLKKKKKKKKKKKKKKKKKKKJKJJKKKPKKKKKKH",
"KLKKLKKLLLKKKKJJKKKKKKKKKKKKLKGLKKKKKKKJKKKKKKKKKKKKKKKKLKKKKKKK",
"KLLKKLKKLGKJJKJJLLKKKKGLKKKKLKKKKKKLLKJJKKKKKKKHKKKKKKKFKKKKKHKK",
"KKLKKLKKKKJKKKKJFKKKLKKLKKKLKKGKLJKKKLKKKKKKKKKHKKKKJKKKJKKKKKKK"
};
