/* XPM */
static char *sad_barbie1712085561[] = {
/* columns rows colors chars-per-pixel */
"64 64 214 2 ",
"   c #1D1F18",
".  c #24241D",
"X  c #382C26",
"o  c #373128",
"O  c #6D2D05",
"+  c #6F2D08",
"@  c #712904",
"#  c #722E0C",
"$  c #4E2E2C",
"%  c #4C352B",
"&  c #563324",
"*  c #53362C",
"=  c #54392E",
"-  c #5A3A2E",
";  c #572E3B",
":  c #4A3C35",
">  c #543C32",
",  c #5B3937",
"<  c #5D4137",
"1  c #55453C",
"2  c #5B423A",
"3  c #694539",
"4  c #71493C",
"5  c #5A3143",
"6  c #73334C",
"7  c #5C4C45",
"8  c #58544D",
"9  c #5A5A56",
"0  c #684D44",
"q  c #724C44",
"w  c #695349",
"e  c #755345",
"r  c #74554B",
"t  c #785749",
"y  c #7C5A4D",
"u  c #6D4654",
"i  c #675B56",
"p  c #755A52",
"a  c #7B5C53",
"s  c #795C55",
"d  c #64635C",
"f  c #786258",
"g  c #7D645D",
"h  c #7B5968",
"j  c #676564",
"k  c #756968",
"l  c #706F6F",
"z  c #77726C",
"x  c #6B7779",
"c  c #787677",
"v  c #7C7C7B",
"b  c #89325C",
"n  c #A8315B",
"m  c #BD1B78",
"M  c #992E66",
"N  c #993566",
"B  c #B72D6D",
"V  c #B4326D",
"C  c #B32A73",
"Z  c #AA3572",
"A  c #B73275",
"S  c #BB327E",
"D  c #C1267D",
"F  c #C2297F",
"G  c #C5307E",
"H  c #805C51",
"J  c #846355",
"K  c #86655B",
"L  c #856B5C",
"P  c #984471",
"I  c #9B5271",
"U  c #A6456E",
"Y  c #AB4775",
"T  c #846B63",
"R  c #866E67",
"E  c #8B776A",
"W  c #8C736C",
"Q  c #8E6671",
"!  c #867C75",
"~  c #827B7B",
"^  c #967B73",
"/  c #A96D7D",
"(  c #7D8477",
")  c #88857C",
"_  c #98857A",
"`  c #A4817B",
"'  c #5D7C92",
"]  c #637B85",
"[  c #777B86",
"{  c #BE3681",
"}  c #C32D82",
"|  c #C92D87",
" . c #C53385",
".. c #C93187",
"X. c #C63987",
"o. c #C9338A",
"O. c #C73B88",
"+. c #C83888",
"@. c #C83E8A",
"#. c #CC3390",
"$. c #B84987",
"%. c #B75A8B",
"&. c #8A7686",
"*. c #9F6890",
"=. c #A86884",
"-. c #B8658A",
";. c #B46D8E",
":. c #A57797",
">. c #BB7592",
",. c #CB448C",
"<. c #C6498B",
"1. c #C0578B",
"2. c #CD4C91",
"3. c #C45492",
"4. c #CF5395",
"5. c #D15492",
"6. c #D35A94",
"7. c #D15B9A",
"8. c #C26596",
"9. c #D5649C",
"0. c #D86B9D",
"q. c #D66BA1",
"w. c #DB75A4",
"e. c #DC7DAC",
"r. c #6A848A",
"t. c #7B8383",
"y. c #77828A",
"u. c #6D8594",
"i. c #778796",
"p. c #7C8C93",
"a. c #7B8C9C",
"s. c #7F9395",
"d. c #7D929D",
"f. c #758FA4",
"g. c #7C8EA1",
"h. c #7592A5",
"j. c #7C91A5",
"k. c #848482",
"l. c #8C8584",
"z. c #868A88",
"x. c #8D8C8B",
"c. c #958A84",
"v. c #928C8B",
"b. c #85908C",
"n. c #97938C",
"m. c #808293",
"M. c #858B93",
"N. c #8C8D94",
"B. c #828E9C",
"V. c #8A8D9A",
"C. c #938D93",
"Z. c #928D99",
"A. c #998B9B",
"S. c #8C9293",
"D. c #85939B",
"F. c #889799",
"G. c #8C939C",
"H. c #949293",
"J. c #9B9596",
"K. c #92949B",
"L. c #9B939B",
"P. c #A78987",
"I. c #A6958D",
"U. c #B88594",
"Y. c #B48E94",
"T. c #A29698",
"R. c #ADA39F",
"E. c #858DA0",
"W. c #8392A3",
"Q. c #8C93A2",
"!. c #8799A7",
"~. c #9394A1",
"^. c #9999A4",
"/. c #AF95A9",
"(. c #8FA6AD",
"). c #99A6AC",
"_. c #9BA7B4",
"`. c #ACA8AC",
"'. c #A9ADB5",
"]. c #AAB3BA",
"[. c #ACB4BC",
"{. c #B6B9BD",
"}. c #DF83AC",
"|. c #E186AB",
" X c #E18CB4",
".X c #E596B7",
"XX c #E59ABC",
"oX c #EAA4BD",
"OX c #EDAABE",
"+X c #AEBAC1",
"@X c #B6BCC2",
"#X c #BDBDC3",
"$X c #E8A5C2",
"%X c #EBABC2",
"&X c #EEB3C5",
"*X c #EFB8CB",
"=X c #F0B9C7",
"-X c #F1BECC",
";X c #F0BED0",
":X c #BAC2C5",
">X c #BDC3C9",
",X c #C5C7C9",
"<X c #F3C3CE",
"1X c #F2C3D3",
"2X c #F4CAD5",
"3X c #F5CDD8",
"4X c #F8D4DB",
"5X c #F9DADE",
"6X c #FCE1DF",
"7X c #FADEE1",
"8X c #FDE4E3",
"9X c #FEEAE7",
"0X c #FFEDE9",
"qX c #FFF2EB",
/* pixels */
"# # # # # # # # # # # # # # # # # # # # # # # # # # # # # # # # # # # # # # # # # # # # # # # # # # # # # # # # # # # # # # # # ",
"# # # # # # # # # # # # # # # # # # # # # # # # # # # # # # # # # # # # # # # # # + # # # # # # # # # # # # # # # # # # # # # # ",
"# # # O O O O O O O O O O O + O O O O O O O O O O O O O O O O O O O O O + + O O O O O O + + + O O O O O O O O O O + O O O # # # ",
"# # # n V V V V V V V V V V V Z V V V V V V V V V V V V V V V V V V V V Z V V V V V V V V V Z V V V V V V V V V V V V V n O # # ",
"# # + A #.......o...o...o...o.o.o.o.o...o...o...O.o.....o.o.| o.o...o.o.o...o.o.o.o.o...o.o.o.o.+.o...o.o.o...o.o...+.#.A # # # ",
"@ # + V .. . . . . . . . . . . . . . . . . . . . . . . . . .{  . . . . . . . . . . . . . . . . . . . . . . . . . . . ...V O # # ",
"# # + V .. . . . . . . . . . . . . . . . . . . . . . . . . . . . . . . . . . . . . . . . . . . . . . . . . . . . . . .+.V # # # ",
"# # + V o. . . .}  . . . . . . . . . . . . . . . . . . . . . . . . . . . . . . . . . . . . . . . . . . . . . . . . . .o.V O # # ",
"# # + V .. . .+. . .|  . . . . .F } F }  . . . . . . . . . . . . . . . . . . . . .+. . . . . .o. . . . .o. . . . . . ...V + # # ",
"# # + V .. .} 9.-X XS 6.=XXX . .q.$X.X,.F ,.oXoX@.X.oX$X@. . . . . . . . . . ... . . . . ... . . . .o. . . . . . . . .o.V O # # ",
"# # + V o. .} O.1X8X4.XXqXw.D .X0X7X9X2X2. .2X2XX. .1X4X@. . . . . . . .+. . . . . . . . . . . . . . . . . . . . . . .o.V + # # ",
"# # O V o. . .{ 9.8X-X5X&XD 6.6X=X,.w.0XXX .<X<XX. .-X2X@.}  . .o. . . . . . . . . ... . . . . . . . . . . . . . . . .o.V + # # ",
"# # + C o. . . . .$X9X7X7.m }.0Xq.m  .<X2X,.-X2XX.G <X2X@.}  . . . . . . .o.+. .+. . . . . . . . . .o. . . . ... . . .o.V + # # ",
"# # + V .. . . .F 9.8X%X .F  X8X4. . .%X5X2.-X1X@. .-X2X@.}  . . . . . . . . . . . . . . . . .+. . . . . . . . . . . .o.V + # # ",
"# # + V .. . . .} 5.8X.XF F w.0Xe.m ,.2X;X@.-X2X .F <X2X@. . . . . . . . . . . . . . ... . . . . . . . . . . . . . . .o.V + # # ",
"# # + V .. . .| } 5.6X.XF  .<.2X5X|.OXqXe.D OX8X.X|.8X%X . . . . . . . . . . . . . . . . . . . . . . . . .+. . . . . .o.V + # # ",
"# # + V o.}  .+.{ 7.0X$X} ..} 7.3XqX8XXX .} 4.<X0XqX2X4.}  . . . . . . . . . . .}  . .+. . . . .X. . . . . . . . . . .o.V + # # ",
"# # # V o. . . .} ,.q.4. . ...} ,.9.7. . . .} X.4.7. .F  . .F  .X.G F  . .X. .X. .+. . .}  . .}  . . .o. . . .o. . .{ o.V + # # ",
"# # @ V .. . . ...} { {  . . .} 5.&X}. . . . .@.}.oXe.X. . .9.%X<X.X2.D XX1X*X&X<X*X,.w.XXO.} o. . . . . . .o. . . . .o.A + # # ",
"# # + V o. . . .} } | o.}  . .{ 7.qXoXm X.F ,.<XqX4X0X%X} 9.6X4X2XqX4X,.XX4X4X8X3X1X,.$X8X,.{  . . . . . . . . . . . .o.V + # # ",
"# # + C o.} .. . . . . . ...| { 6.8XXX} X.F |.qX}.X.oXqX9.|.0Xe.m 0. X2.@.F OX7X,.O. .oX3X@.{  . . . . .o. . . . . . .o.V + # # ",
"# # + V o.{  . . . . . . . .} } 6.8XXXm  . .&X4X@.D 2.6XXX5.5X8XXX,.m  . .} OX4X2.} G OX7X,.} o.o. . . . . . . . . . ...V + # # ",
"# # + V o. . . . ... . . . .} } 6.6XXX}  .@.<X1XX. .,.5X%Xm 6.=X0X8Xe.}  .G %X5X2.}  .oX3X,.}  . . . . . .X. . . . . .+.A O # # ",
"# # + V o. . . . . . . . . .| { 6.8XXXm } m oX8X4.m 0.0X X,.2. .6.1X7X2.}  .OX5X2.} G OX7X,. . . . . . . . . . . .+. .o.V O # # ",
"# # + V o. . . . . . . . . . .} 6.5X=Xw.e.q.q.9X-X}.4X7X,.}.8X%Xw.<X8X2.} G oX4X2.}  .XX-X@. . . . . . . . . . . . . ...V + # # ",
"# # + V  . . . . . . . . . .o.{ 9.6X0X9XqX2X| }.8X0X4Xq.} ,.&X8X0X8Xe. . . .*X0X4.}  .OX7X,. . . . ... . . . . . . . .o.V O # # ",
"# # + V o. . ... . . . ... . . .X.9.6.7.7.9.} { 2.7.,.}  .}  .4.7.2.}  . . .4.7.@.} } 7.q.O. . . . . . .+. . . . . . .o.A + # # ",
"# # + V .. . . . . . ... . .{  . .F F F { } .. .} } }  . . . .} m  . . . . .} F } .. .{ m  . . . . . . . . . . . . . .o.V + # + ",
"# # + V o. . . .o. . . . . . . . . . . .X. . . . . . . . . . . . . . . . . . . . . . . . . . . . . . . . . . ... . . .o.V + # # ",
"# # + V .. . . . . .o. . . . . . . . . . . . . . . . . . . . . . . . . . . . . . .X. . . . . . .o. . . . . . . . . . .o.V + # # ",
"# # + V o. . . . . . . . . . . . . . . . . .+. . . . . . . .+. . . . .+. . . . . . . . . . . . .o. . . . . . . . . . .o.V + # # ",
"# # + B o. . . . . . . . . . .o. . . . . . . . . . . . . . . . . . . . . . . .+. . . . .o. . . . . . . . .+. . . . . .o.V + # # ",
"# # + V o. . . . . ... . . . . . . ...|  .G X.G  . . . . . . . . . . . . . . . . . . . . . .o.{  . . . . . . . . . .{ o.V + # # ",
"# # + V o. . . . . . . . . .{  . . .F G X. .X.G } }  . . . . . . . . . . . . . .o.}  . . . . . . .o. . . . . . . ... .o.V + # # ",
"# # + V o. ... ... . . . . . . . ...<./ =.U.U.8.8.<. .} }  .G  . . . . . . . .{ } o.o.o. . . . . . . . . . . . . . . .o.V + # # ",
"# # + V o.{  . . . . . . . . . .G / ` E L L E ^ _ ` U.>.%.<.X.X.o. . . .} } } o.{ o.{ { o.{  . . . . . . .+. . . . . .o.V + # # ",
"# # + V o.}  . . . . . . . . . .U L L L J f H J f J L E _ _ / / =.;.-.%.-.3.3.o...| } } | |  . . . . . . . . . . . . .o.V + # # ",
"# # # V o. . . . . . . . . . . .I J J J K K K J J J H H H f J L L L E ^._.(.^.`././.;.%.%.$. .+.o.}  . . . . . . . . .o.A + # # ",
"# # + B o.{  . . . . . . . . . .=.) T f a s g g f p t H J y y a J r m.+X{.+X+X+X:X>X:X_.!.!.Z.:.:.$. . . . . . . . . ...V + # # ",
"# # + C o. . . . . . . .} | }  .=.n.S.y.x [ u.i.p.x l h Z Z U P k ) ^.].].@X@X,X,X,X,X,X@X(.h.D.!.:. . . . . . . . . .o.V + # # ",
"# # + V .. . . .F }  .Y 1.1.,.%.x.v.C.G.V.B.f.g.Q.a.g.i.&.*.$.:.).^.~.!.(.{.#X[.+X+X>X#X,X:X).p.M.&.{ .. . . . . . . .o.V + # # ",
"# # + V o. . .} <.8.;.n.I.I.`.!.x.v.C.S.G.G.a.a.E.B.g.g.E.] ] M.!.~.~.D.F.W.~.Q.!._.+X,X>X:X@X[.!.c Z o. . . . . .+.} o.V + # # ",
"# # + B .. . .-.c._ E E _ ^ l.A.x.x.n.S.V.E.g.a.V.V.M.B.V.Q.i.N.G.F.^.!.j.W.W.~.D.d.).#X,X,X#X@X,X`.I |  . . . . . . .o.V + # # ",
"# # + V ..{ =.) g W P.Y.W K ! V.l.v.C.K.G.V.M.p.N.V.S.V.V.L.K.K.K.S.~.~.!.d.F.G.K.j.j._.#X,X,X#X].{.Y.-.<.F  . . . .{ o.V + # # ",
"# # + V o.%.! d T R ^ P.R g H [ k.) v.v.C.C.x.M.B.V.V.B.a.G.C.S.K.G.F.K.~.D.d.W.~.W.j.(.[.>X>X,X>X'.n.I.Y.U.3. .}  . .o.V + # # ",
"# # + B $.z i p K K H ^ T u q j j k ~ ) c.x.N.M.i.V.Z.V.p.a.Z.K.V.J.S.F.^.Q.j.h.G.^.F.F.!.'.:X#X,XT.T _ _ n.T.U.-.X. . .V + # # ",
"# # + Z Q d r p p f s s s 0 7 j v k ! ! z v l.c.x.x.C.v.M.p.M.Z.H.T.Q.Q.~.^.G.s.D.K.Q.a.d.`.{.>X:XE p L R R R E c.U.>.3.A + # # ",
"# # + L f 7 0 7 , q 0 3 3 > o 8 v z.l.z.c ! ) l.c.l.k.) l.z.N.y.M.L.^.~.K.L.K.D.g.Q.E.f.h.!.[.@X`.r p f s s s r p g ! I.P.@ # # ",
"# # @ a 7 : 7 1 2 w ; * > X : j c k.m.N.M.l.! ) l.l.) ) ) x.S.M.V.K.T.J.H.L.T.Q.W.W.~.B.d.d.'.@X! e y a y y t p t r r p y # # # ",
"# # # b 7 7 7 , , : X X X X 9 [ x c t.v.x.x.l.~ l v l.) z y.b.b.x.n.n.J.V.Z.T.^.W.G.G.K.s.s._.R.e e t H H H y t t e e r 4 # # # ",
"# # # V P u > o X .     . . 8 l z j j ) x.( v [ z d k z l [ a.S.H.M.K.L.L.G.H.T.J.S.K.~.j.f.a.p 3 4 4 4 4 H e e e 4 e 0 4 # # # ",
"# # + V #.{ Z 6 ; b 6 5 5 5 6 , 2 w 8 8 d d 9 9 d i 9 9 j t.d.V.H.p.a.~.T.H.n.T.J.Q.Q.~.G.j.[ > - - - - < 3 3 3 3 4 4 4 3 # # # ",
"# # + V  . . .......o.| @.#...M 6 3 0 > : 1 7 7 w 7 7 7 d y.b.D.G.j.u.z.v.n.v.H.T.Q.Q.~.~.E.r - < < - = * * * - * - * > & # # # ",
"# # + V o. . . ... . .{  .{ +.o. .S Z M b 6 3 1 3 w q e z y.z.x.S.Q.M.x r.C.N.B.L.L.K.H.T.! > , < < < 3 < < < - = * % $ & @ # # ",
"# # # V o. . . . . . . . . ... . . . .o. . .S N u 0 w t f c ( x.v.N.~.[ ' i.C.M.C.T.n.J.L.i % = = > > > > % % % $ * $ $ & # # # ",
"# # @ V o. . . . . . . . . . . . . . . . . ...| ..V N u q i ( M.l.v.^.W.] x M.x.z.n.L.K.M.1 $ ; ; * ; ; ; 6 6 b M A C { n @ # # ",
"# # + V ..}  . . . . . . . ... . . . . . .}  .{  .....} S Z P I ( z.J.b.r.] g.Z.i.M.L.K.z.9 b { S S S { S  . . ..... .o.A + # # ",
"# # + V +. . . . . . . . . . . . . . . . . . . . . . . . .o.o.| Y Q ( b.S.[ u.~.B.a.C.A.v P |  . . .|  . . . . . . . .o.V + # # ",
"# # + V .. . . . . . . . . . . . . . . . . . . . . . . . .{ {  ... .I c S.y.] V.S.b.x.n.Q {  . . . . . . . . . . . .{ | V + # # ",
"# # + A #...+.+.o.o...o...o.o...o.+...+...o...o.....o.o.o.o.o.+...o.o.X.=.p.u.~.^.j.F.:. .| ..o.o...o.o.....o.o...o.o.#.A + # # ",
"# # + n A V V V V Z V V V V V V A V V V V V Z V V V V V V V V V V V V V B P c &.&.t.[ I C V V V V V V V V V V V V V V V n # # # ",
"# + # + O O O O O + + + O O O O O O O O O O O + O O O O O + O O O O O + + @ @ O # O @ @ O O O O O O O O O O O O O O O O O # # # ",
"# # # # # # # # # # # # # # + # # # # # # # # # # # + # # # # # # # # # # # # # # # # # # # # # # # + # # # # # # # # # # # # # ",
"# # # # # # # # # # # # # # # # # # # # # # # # # # # # # # # # # # # # # # # # # # # # # # # # # # # # # # # # # # # # # # # # "
};
