/* XPM */
static char *_11711733664[] = {
/* columns rows colors chars-per-pixel */
"64 64 179 2 ",
"   c #3C3C3C",
".  c #423C3F",
"X  c #433E41",
"o  c #4A3A41",
"O  c #553946",
"+  c #553B48",
"@  c #593B4A",
"#  c #66364E",
"$  c #6B3B53",
"%  c #723753",
"&  c #7B3456",
"*  c #454444",
"=  c #4B4549",
"-  c #53474D",
";  c #5A4E53",
":  c #585356",
">  c #5B5956",
",  c #5D5B5B",
"<  c #684B5B",
"1  c #754159",
"2  c #66535B",
"3  c #615E5C",
"4  c #745360",
"5  c #6D6A67",
"6  c #786D69",
"7  c #7D746F",
"8  c #7D7571",
"9  c #7E777A",
"0  c #853B5C",
"q  c #91335D",
"w  c #8C3B62",
"e  c #953461",
"r  c #9B3463",
"t  c #9D3E6A",
"y  c #A92F68",
"u  c #A7366B",
"i  c #AA316A",
"p  c #AA386C",
"a  c #B3336F",
"s  c #A73D71",
"d  c #A83C70",
"f  c #B63271",
"g  c #BD3474",
"h  c #C13377",
"j  c #C33579",
"k  c #CB377D",
"l  c #C43C7B",
"z  c #CD397E",
"x  c #9D456A",
"c  c #8B5568",
"v  c #98506F",
"b  c #AE4273",
"n  c #B5487B",
"m  c #A85277",
"M  c #AA547C",
"N  c #816B6E",
"B  c #846E71",
"V  c #9A697C",
"C  c #827A76",
"Z  c #CD3C83",
"A  c #D73784",
"S  c #D43A83",
"D  c #D93B86",
"F  c #DD3D8A",
"G  c #E63D8E",
"H  c #E83E8E",
"J  c #E63F90",
"K  c #A24E81",
"L  c #BF4585",
"P  c #BC4F82",
"I  c #AC5A87",
"U  c #B95583",
"Y  c #966E83",
"T  c #937690",
"R  c #AC6487",
"E  c #AA7195",
"W  c #B6779C",
"Q  c #C84887",
"!  c #C6478A",
"~  c #DB478D",
"^  c #DC468F",
"/  c #D64D90",
"(  c #D95194",
")  c #E6408F",
"_  c #E64492",
"`  c #E64A95",
"'  c #E84997",
"]  c #E84B97",
"[  c #E45196",
"{  c #E8549C",
"}  c #E9599E",
"|  c #C0658E",
" . c #C66D95",
".. c #C7739C",
"X. c #E95DA1",
"o. c #CB79A2",
"O. c #D473A2",
"+. c #D37FA6",
"@. c #E968A6",
"#. c #EB73AC",
"$. c #E57CAE",
"%. c #EC77B0",
"&. c #EB7BB2",
"*. c #578F96",
"=. c #2FBAD5",
"-. c #32BAD4",
";. c #3CBDD6",
":. c #619FC3",
">. c #76C2D3",
",. c #858082",
"<. c #8C8281",
"1. c #998F90",
"2. c #9E9393",
"3. c #AA8599",
"4. c #B784A2",
"5. c #AE91A6",
"6. c #B395BD",
"7. c #ACA5A9",
"8. c #B5AAAB",
"9. c #B9ADB0",
"0. c #BFB2B5",
"q. c #CA85A7",
"w. c #CB8AAA",
"e. c #D588AA",
"r. c #D48EAE",
"t. c #CE90AB",
"y. c #D490AE",
"u. c #D78BB3",
"i. c #D695B2",
"p. c #DA98B8",
"a. c #E283B1",
"s. c #ED81B5",
"d. c #EC8CBB",
"f. c #EE92BE",
"g. c #E09BBC",
"h. c #DBA2BB",
"j. c #C0B3B5",
"k. c #C4B7B9",
"l. c #DD97C2",
"z. c #EE96C1",
"x. c #EF9DC5",
"c. c #F093C0",
"v. c #F09DC5",
"b. c #DEA9C1",
"n. c #DAB9CB",
"m. c #E4AAC6",
"M. c #E7AECB",
"N. c #F2A6C9",
"B. c #F3ABCC",
"V. c #E2B2C6",
"C. c #E2B3C9",
"Z. c #E4BCCE",
"A. c #E8BCD1",
"S. c #F4B5D3",
"D. c #82CCDF",
"F. c #BBD9E7",
"G. c #D5C7CB",
"H. c #DBCED3",
"J. c #EAC4D5",
"K. c #EDCBDA",
"L. c #F6C5DC",
"P. c #F4C9DD",
"I. c #ECD6DF",
"U. c #F0D0DD",
"Y. c #C8DDE9",
"T. c #F3CEE0",
"R. c #F9CCE0",
"E. c #ECDCE3",
"W. c #F7D4E4",
"Q. c #F9D4E5",
"!. c #F5D9E4",
"~. c #F9D8E7",
"^. c #FBD7E8",
"/. c #F7DBE8",
"(. c #FAD9E9",
"). c #F5E3EB",
"_. c #FBE3ED",
"`. c #FCE7F0",
"'. c #FDEAF1",
/* pixels */
"W.Q.Q.R.R.Q.R.R.Q.Q.Q.Q.Q.Q.Q.Q.Q.Q.Q.W.R.Q.Q.Q.Q.Q.Q.^.Q.Q.Q.Q.Q.Q.Q.Q.Q.Q.Q.Q.Q.^.Q.Q.Q.(.Q.Q.(.^.Q.Q.Q.Q.Q.W.Q.Q.Q.Q.Q.Q.Q.Q.",
"Q.Q.Q.R.Q.Q.Q.Q.Q.R.Q.Q.Q.Q.Q.R.R.Q.Q.Q.Q.Q.^.R.Q.R.W.Q.Q.Q.Q.Q.Q.Q.R.Q.Q.Q.Q.^.Q.Q.Q.Q.Q.Q.Q.^.Q.Q.Q.^.Q.Q.Q.Q.Q.Q.Q.Q.Q.R.Q.Q.",
"Q.Q.Q.R.R.Q.Q.R.Q.R.Q.Q.Q.^.Q.Q.Q.Q.Q.R.Q.Q.Q.Q.R.Q.R.W.Q.Q.Q.Q.Q.Q.R.Q.Q.Q.Q.Q.Q.^.Q.Q.(.Q.Q.^.Q.Q.^.Q.Q.Q.R.Q.Q.Q.Q.Q.^.Q.Q.Q.",
"Q.Q.R.Q.Q.Q.Q.Q.Q.Q.Q.Q.Q.^.R.Q.Q.R.W.Q.Q.Q.R.Q.Q.W.R.Q.W.Q.Q.Q.W.W.Q.Q.Q.W.Q.^.Q.^.Q.^.W.Q.Q.Q.Q.Q.Q.Q.Q.Q.Q.Q.Q.Q.Q.Q.Q.Q.Q.Q.",
"Q.R.Q.Q.R.Q.R.Q.R.Q.R.^.R.Q.R.^.Q.Q.Q.Q.^.^.W.W.Q.Q.Q.Q.Q.R.Q.Q.Q.Q.Q.Q.Q.Q.Q.Q.Q.Q.Q.Q.Q.Q.Q.^.Q.Q.Q.Q.Q.Q.Q.Q.Q.Q.Q.Q.Q.Q.Q.R.",
"Q.Q.Q.R.R.Q.Q.Q.^.Q.^.R.Q.^.Q.Q.Q.R.Q.Q.Q.Q.Q.Q.Q.Q.Q.R.Q.Q.Q.Q.Q.Q.Q.Q.^.Q.Q.Q.Q.Q.Q.Q.Q.Q.Q.Q.Q.Q.Q.Q.Q.Q.Q.Q.Q.Q.Q.Q.Q.Q.Q.Q.",
"Q.Q.Q.Q.Q.Q.Q.Q.R.Q.^.Q.Q.Q.R.Q.Q.Q.Q.Q.Q.Q.Q.Q.Q.Q.Q.Q.^.Q.Q.Q.Q.Q.Q.Q.^.Q.Q.Q.Q.Q.Q.Q.^.Q.Q.Q.Q.Q.Q.Q.Q.Q.Q.W.Q.Q.Q.Q.Q.Q.^.Q.",
"Q.R.R.Q.R.Q.Q.Q.R.Q.R.Q.Q.R.Q.Q.Q.Q.R.W.Q.Q.Q.Q.Q.R.Q.Q.Q.Q.Q.Q.Q.Q.^.Q.Q.^.Q.Q.Q.Q.Q.Q.Q.Q.Q.Q.Q.Q.R.W.Q.Q.Q.Q.Q.Q.Q.Q.Q.Q.Q.Q.",
"W.Q.Q.Q.Q.R.Q.Q.Q.Q.Q.Q.R.R.Q.^.Q.Q.Q.Q.Q.Q.Q.Q.Q.Q.Q.R.Q.Q.Q.Q.Q.Q.Q.Q.Q.Q.^.Q.^.Q.Q.^.Q.Q.^.Q.Q.Q.^.R.Q.Q.Q.Q.Q.Q.Q.Q.Q.Q.Q.Q.",
"R.R.Q.R.Q.Q.Q.R.Q.^.Q.Q.Q.Q.Q.Q.Q.Q.Q.R.Q.Q.Q.Q.Q.Q.^.Q.W.Q.Q.Q.^.Q.^.Q.R.Q.Q.Q.Q.Q.Q.Q.Q.Q.Q.Q.Q.Q.Q.Q.Q.Q.^.^.W.W.Q.Q.Q.Q.Q.Q.",
"Q.Q.Q.Q.R.^.Q.Q.Q.Q.Q.Q.Q.Q.R.^.Q.Q.Q.Q.W.Q.Q.Q.Q.Q.Q.Q.Q.Q.Q.R.Q.^.Q.Q.W.W.Q.Q.Q.Q.Q.Q.Q.^.Q.Q.Q.Q.Q.Q.Q.R.^.^.^.Q.Q.Q.Q.Q.Q.R.",
"R.Q.Q.R.Q.Q.Q.Q.R.Q.Q.R.Q.R.Q.Q.Q.Q.Q.Q.Q.Q.R.Q.R.Q.Q.Q.Q.Q.Q.W.Q.Q.Q.Q.W.Q.Q.W.Q.Q.Q.Q.Q.^.Q.Q.Q.Q.Q.Q.Q.Q.R.Q.Q.Q.Q.Q.^.Q.Q.^.",
"Q.Q.Q.Q.Q.Q.R.Q.Q.R.Q.R.R.Q.R.^.Q.Q.Q.Q.Q.Q.Q.Q.^._._.Q.Q.Q.Q.Q.Q.Q.Q.Q.Q.Q.Q.W.Q.Q.Q.Q.Q.Q.Q.R.Q.R.Q.Q.Q.R.Q.Q.Q.Q.Q.R.Q.Q.Q.Q.",
"R.Q.Q.R.Q.R.Q.Q.Q.Q.Q.Q.^.Q.Q.Q.Q.Q.U.Q.Q.P.Q.^./.o.V._.Q.Q.Q.Q.Q.Q.Q.Q.Q.Q.Q.Q.Q.Q.Q.Q.Q.Q.Q.Q.Q.Q.Q.^.Q.^.Q.Q.Q.Q.Q.Q.Q.Q.Q.Q.",
"Q.Q.Q.Q.Q.Q.Q.Q.Q.Q.Q.Q.^.R.Q.Q.Q.Q.Q.Q.Q.Q.^._.r.y p W.(.Q.^.Q.Q.Q.Q.Q.Q.Q.Q.Q.Q.Q.Q.Q.Q.Q.Q.Q.Q.Q.Q.Q.Q.Q.Q.Q.Q.Q.Q.Q.^.Q.R.Q.",
"Q.Q.Q.R.R.Q.Q.R.Q.Q.Q.Q.Q.Q.Q.^.^.^.^.Q.Q.^.(.'. .i y i._.Q.Q.Q.Q.^.^.Q.Q.Q.Q.Q.Q.Q.Q.Q.Q.Q.Q.Q.Q.Q.Q.Q.Q.Q.W.^.^.Q.Q.Q.^.^.Q.Q.",
"Q.R.R.Q.Q.R.Q.Q.Q.R.Q.Q.Q.Q._.P.Q.^.Q.(.Q.L.B.s._ F g U '.~.Q.Q.^.Q.Q.Q.Q.Q.^.Q.W.Q.Q.Q.Q.Q.Q.Q.Q.Q.Q.^.^.Q.Q.(.Q.Q.Q.Q.W.Q.Q.Q.",
"Q.Q.Q.Q.Q.Q.Q.Q.Q.Q.Q.Q.^.(.B.) _ ] ` ` _ G G G J / $. .'.W.Q.^.^.Q.Q.Q.Q.Q.Q.^.Q.Q.Q.Q.Q.Q.Q.Q.Q.Q.Q.Q.Q.Q.Q.Q.Q.W.W.Q.Q.Q.Q.Q.",
"Q.Q.Q.Q.Q.Q.Q.Q.Q.R.Q.Q.Q.^.L.H H H H G G G G G G I p.M.'.Q.Q.Q.W.(.Q.Q.Q.Q.^.Q.Q.Q.Q.Q.Q.Q.Q.Q.Q.Q.Q.Q.Q.^.^.R.W.W.R.Q.Q.Q.R.Q.",
"Q.Q.Q.Q.Q.Q.Q.Q.Q.Q.Q.Q.Q.^.`.] H H G G G G G G G G G f y._.Q.Q.W.Q.^.Q.Q.Q.^.Q.Q.Q.Q.Q.Q.Q.Q.Q.Q.Q.^.Q.Q.Q.^.W.Q.Q.Q.^.Q.Q.Q.Q.",
"R.Q.Q.Q.Q.Q.Q.Q.Q.Q.Q.R.W.Q._.s.G G G G G G G G G G W K.K.`.Q.Q.Q.Q.Q.Q.Q.Q.Q.Q.Q.Q.Q.Q.Q.Q.Q.Q.Q.Q.Q.Q.Q.Q.Q.Q.Q.Q.Q.Q.Q.Q.Q.Q.",
"Q.Q.Q.Q.Q.^.Q.Q.Q.Q.Q.Q.Q.Q.(.N.G G G G G G G G G G L ~ P A.(.Q.^.Q.Q.W.Q.^.Q.Q.Q.Q.Q.Q.Q.Q.Q.Q.Q.Q.Q.Q.Q.Q.Q.Q.Q.Q.Q.Q.Q.Q.Q.Q.",
"Q.Q.Q.Q.Q.R.Q.Q.W.Q.Q.Q.Q.Q./.S.G G G G G G G G G G G / g.A._.Q.Q.Q.Q.Q.Q.Q.^.R.Q.Q.Q.Q.Q.Q.Q.Q.Q.Q.Q.Q.Q.Q.Q.Q.Q.Q.Q.Q.Q.Q.Q.R.",
"Q.Q.Q.^.Q.Q.Q.^.Q.W.Q.Q.Q.Q._.f.G G G G G G G G G G G K q.e.K._.Q.Q.Q.Q.^.Q.^.Q.Q.R.^.R.R.Q.Q.Q.Q.^.^.Q.Q.Q.Q.Q.Q.R.Q.Q.R.Q.Q.Q.",
"Q.Q.^.Q.Q.Q.W.Q.Q.Q.^.W.Q.^._.Q G H H G G G G G G G G G _ ! q.`.(.Q.Q.Q.Q.Q.Q.^.Q.R.Q.Q.Q.R.Q.Q.Q.Q.^.Q.Q.Q.Q.Q.Q.Q.R.Q.Q.Q.Q.Q.",
"Q.Q.Q.Q.^.Q.Q.Q.Q.^.~.W.(.(.h.i A H G H G J G G G G G G ! n.m.p.`.Q.Q.Q.Q.Q.Q.Q.Q.Q.Q.Q.Q.^.Q.Q.Q.Q.Q.Q.R.Q.R.R.R.Q.Q.Q.Q.W.Q.Q.",
"Q.Q.^.Q.Q.^.~.~.~.~.W.^.^._.U i k G H G H J H J H J G G F ! ^ u._._.(./.Q.Q.Q.W.Q.Q.Q.Q.Q.Q.Q.^.Q.Q.Q.Q.Q.Q.Q.Q.Q.Q.Q.Q.Q.Q.R.Q.",
"Q.Q.^.Q.W.^.~.Q.Q.Q.Q.(.(.K.u i f G G H J H J H J H H G J F T M.P V.`.~.Q.Q.Q.Q.Q.Q.Q.Q.Q.Q.Q.Q.Q.Q.Q.Q.^.Q.Q.Q.^.Q.Q.R.R.Q.R.Q.",
"Q.Q.Q.Q.Q.Q.Q.Q.Q.Q.^.W.(.b.i y i A G G G G H J H J H G G G ! u.n.J.b.'.^.Q.Q.Q.Q.Q.Q.Q.R.Q.Q.Q.Q.Q.R.Q.Q.Q.^.^.Q.Q.Q.^.Q.Q.Q.Q.",
"Q.^.^.Q.^.Q.Q.Q.Q.Q.Q.W._.i.y y y f G J G G H G J H J H G J %.p.3.w.J.i.U._.Q.Q.Q.^.Q.R.Q.Q.Q.Q.Q.Q.Q.Q.Q.Q.Q.Q.R.Q.Q.Q.Q.Q.Q.Q.",
"Q.Q.Q.W.Q.W.^.Q.Q.^.^.^._.i.y y y y g G G G J G H J H G G { v.x.x.o.4...Z.V.Q._.(.^.Q.R.Q.Q.Q.Q.Q.R.Q.Q.Q.Q.R.Q.Q.Q.Q.R.R.Q.R.Q.",
"Q.Q.Q.(.Q.(.Q.Q.Q.^.^.W.(.p.i y y y y f F G G G J G J G J &.x.x.z.` f.W 5.O.K.y.J.'._.^.Q.Q.Q.^.Q.Q.Q.Q.Q.Q.^.Q.^.R.Q.Q.^.Q.Q.Q.",
"Q.W./.^.^.(.^.^.^.~.Q.^.(.J.i y y y y y y k F J G G G G [ v.x.v.@.@.v.v.z.I w.Z n.e.u.)._._.^.Q.Q.Q.Q.Q.Q.R.Q.Q.Q.R.Q.Q.Q.W.Q.W.",
"~.Q.~.^.~.^.^.Q.W.^.Q.(./._.P y y y y y y y y f A G G G #.v.x.z._ z.v.v.#.G F Z E F 4.a.%.L./._.^.Q.Q.Q.Q.Q.Q.Q.Q.Q.Q.Q.W.Q.Q.R.",
"~.~.^.(./.Q.Q.Q.Q.^.W.W.W._.V.r r y y y y i y y i k H H c.v.v.#.{ v.v.v._ G J J H H Z ^ /._.L.L._.Q.Q.Q.Q.Q.Q.Q.Q.Q.Q.R.R.Q.Q.R.",
"^.Q.(.^.^./.Q.Q.Q.(.(.^.W.(.).* X o O # & e y y y i D ] x.x.v.` %.v.v.d.G G J J H J J J N._.'.B.Q._.Q.Q.Q.W.Q.Q.Q.R.R.Q.Q.Q.Q.Q.",
"/.W.^./.Q.~.~.Q.Q.(.~.~.(.~.)..               + % q g @.x.x.z._ c.v.v.%.G G G G G G G G J ] L.`.&.`.Q.Q.Q.Q.W.Q.Q.^.Q.R.Q.Q.Q.W.",
"Q.Q.~.~.^.~.~.~.Q.~.(.~.Q.(.).*                     o < Y q.u._ v.v.v.X.G G G G H J J G J ` %.'.#.`.Q.Q.W.Q.Q.Q.Q.R.Q.Q.Q.Q.Q.Q.",
"^.Q.Q.^.^.(.~.^.~.(.~./.(.(.).                      * 8.,., = $ Y W p.( G J G G H H J J G N.^.v.X.`.(.Q.Q.Q.Q.Q.Q.R.Q.Q.Q.Q.Q.Q.",
"^.Q./.^.~.~.^.~.~.(.(.(.~./._.*                     * ).'.).H.7.9 > + + $ w t u d d d d d K R s I W.(.~.W.Q.Q.R.Q.Q.Q.Q.Q.Q.Q.R.",
"^.W.Q.^.^.^.^./.!.(.(.Q.(.(.)., : : > > > > > > > > , 9.j.j.j.k.k.0.8.1.9 > > > > > > > : > > > , E.Q.Q.Q.Q.^.Q.R.^.Q.^.Q.Q.R.Q.",
"/.^.^././.W.W.~.Q.(.(.(.Q.(.'.<.8 8 8 8 8 8 8 8 8 8 C <.<.<.<.<.<.<.<.<.<.C C 7 7 7 7 7 8 8 8 8 2.`.Q.Q.Q.Q.^.Q.Q.Q.^.Q.Q.Q.Q.Q.",
"/.^./.W.^.Q.^.^.(.W.Q./.(.(._.E.8.7 c t n | 3.B 8 8 G.).).).).).).).).).).H.9 8 6 c x m Y B 5 *.>.Y._.W.Q.Q.Q.R.R.Q.Q.Q.Q.Q.Q.Q.",
"^.W.^.^.(././.^.Q.Q.(.(.(.(.(._.I.v i G f.s.Q.M.V <.).(.~.Q.Q.(.~.(.^.^.(.).2.N r l d.f.T.C.1.-.-.;.Y.(.Q.Q.Q.Q.Q.Q.Q.Q.Q.Q.Q.Q.",
"(.(.(.^.(.(.(.(.(.Q.~.(.^.~.~./.A.i D G A f D S.M.T.).(.(.W.W.~.^.~.Q.Q.Q.(.).M g ) @.z D &.K.:.-.=.F._.Q.Q.Q.Q.Q.Q.Q.Q.Q.Q.Q.Q.",
"/.^././.(.(.(.(.Q.Q.Q.(.~.~.~._.t.f G Z + : 0 / `.T./.~.~.~.~.~.~.~.Q.^.^.^.W.p ) ) q - 1 h B.6.-.D.`.(.^.Q.^.Q.Q.Q.^.^.Q.Q.Q.Q.",
"Q.^.^.^./.^.(.(.(.(.~.(.~.(.~._.w.j G u * 5 4 g ~.T.`.(.~.(.~.~.Q.^.Q.^.^.^.K.p G z O > 5 r &.l.F.`.~.W.^.Q.Q.Q.Q.^.Q.Q.Q.Q.^.Q.",
"W.W.^.Q.W.W./.(.(.(.(.(.(.Q.~._.C.g G k @ ; 0 A d.P.(.~.W.^.~.Q.Q.Q.^.Q.Q.^./.b G G % - 2 i _ #.`.~.Q.(.Q.^.Q.Q.Q.^.Q.Q.^.Q.Q.Q.",
"^.W.Q.Q.Q.^.W.^.~.~.^.^.W.^.W.~._.| F ) z h z ) } _.Q.Q.Q.Q.(.(.(.Q.(.(.~.Q._.y.z ) z i a G H N._.Q.Q.^.Q.Q.Q.^.(.Q.Q.Q.^.Q.Q.Q.",
"^./.W.Q.^.W.~.(.~.~.^.^.~.(.(.~.(.).+._ H ) H } P._.Q.^.(.(.W.(.Q.Q.Q.(.Q.~.(.`.e._ ) H G G &._.Q.Q.Q.Q.(.Q.Q.Q.(.Q.^.Q.Q.Q.Q.Q.",
"W.^.~.^.^.W.~.^.W.~.Q.Q.Q.~.~.~.(.).`.(.S.N.S._._.Q.Q.Q.Q.(.Q./.Q.(.Q.Q.~.Q.Q./._.I.N.s.s.S._.(.^.Q.^.Q.(.^.Q.W.Q.W.Q.Q.Q.R.Q.Q.",
"Q.Q.Q.^.~.~.W.W.W.~.Q.^.Q.~.~.~.(.(.~.(.(._.Q.^.Q.Q.Q.Q.Q.W.Q.Q.Q.Q.Q.Q.(.~.Q.~.(.(._.`._.(.Q.^.^.Q.Q.Q.Q.Q.Q.Q.Q.Q.(.Q.Q.W.W.Q.",
"Q.Q.Q.Q.~.~.Q.^.(.^.Q.Q.~.^.~.~.(.Q.(.~.(.Q.Q.Q.Q.Q.~.Q.Q.Q.~.Q.Q.Q.(.(.~.~.~.~.(.(.(.(.(.Q.Q.Q.Q.Q.Q.W.Q.Q.W.Q.Q.Q.Q.Q.Q.W.Q.Q.",
"Q.Q.Q.W.~.Q.W.~.^.Q.~.(.~.Q.Q.~.(.!.~.~.(.Q.Q.Q.^.^.Q.Q.~.~.Q.~.(.(.Q.^.Q.~.~.~.(.Q.Q.(.(.Q.Q.^.Q.Q.(.~.Q.(.Q.Q.Q.Q.Q.Q.Q.W.Q.Q.",
"^.W.Q.Q.W.W.Q.^.Q.Q.Q.~.Q.Q.~.Q.(.(.(.(.^.Q.Q.Q.Q.^.Q.Q.^.~.Q.~.(.(.Q.(.~.~.Q.~.Q.(.(.(.Q.(.^.Q.Q.Q.Q.Q.Q.Q.Q.Q.Q.Q.Q.Q.R.Q.R.Q.",
"Q./.^./.~.^.Q.Q.Q.Q.Q.Q.Q.~.~.~.Q.(.Q.Q.Q.(.(.Q.Q.Q.Q.~.Q.Q.Q.~.(.Q.~.Q.~.Q.~.!.Q.Q.(.Q.(.^.Q.Q.Q.^.Q.Q.(.Q.Q.Q.Q.Q.Q.Q.Q.Q.Q.Q.",
"Q.Q.(.U.(.Q.(.U.Q.Q.Q.Q.Q.W.(.(.Q.(.Q.Q.!.^.Q.Q.Q.Q.Q.Q.Q.Q.Q.(.Q.W.^.Q.Q.Q.Q.Q.Q.Q.Q.Q.Q.Q.Q.Q.^.Q.(.Q.Q.Q.Q.Q.Q.R.R.Q.Q.Q.R.Q.",
"Q.Q.(.(.Q.U.(.(.Q.W.Q.Q.Q.(.Q.^.^.Q.Q.Q.Q.Q.(.Q.^.Q.Q.^.Q.Q.Q.Q.^.Q.Q.^.Q.Q.Q.^.Q.Q.Q.Q.Q.^.Q.^.^.^.Q.R.Q.Q.Q.Q.Q.Q.Q.Q.Q.Q.Q.Q.",
"(.U.(.Q.(.U.(.(./.W.Q.W.^.W./.Q.!.Q.Q.Q.Q.Q.Q.U.Q.Q.Q.Q.(.Q.Q.Q.Q.Q.Q.Q.W.Q.Q.Q.Q.W.Q.Q.Q.Q.Q.Q.Q.Q.Q.Q.Q.Q.Q.Q.Q.Q.Q.Q.Q.Q.Q.Q.",
"(.Q.Q.Q.(.Q.U.(.W.W.Q.(.(.(.W.W.Q.Q.Q.(.(.Q.U.(.Q.Q.Q.Q.^.Q.Q.Q.Q.Q.Q.Q.Q.W.Q.Q.Q.W.Q.Q.Q.Q.Q.^.Q.Q.Q.Q.Q.Q.Q.Q.Q.Q.Q.R.Q.Q.Q.Q.",
"Q.Q.Q.(.U.(.U.U.Q.Q.Q.Q.W.W.W.(.Q.(.Q.Q.(.U.U.(.Q.Q.Q.Q.Q.Q.Q.Q.Q.Q.Q.Q.W.Q.Q.Q.Q.Q.Q.Q.Q.Q.Q.Q.Q.Q.Q.Q.Q.Q.R.Q.^.Q.Q.Q.Q.Q.Q.Q.",
"Q.Q.Q.Q.(.(.(.(.Q.Q.Q.Q.Q.Q.Q.W.Q.Q.Q.Q.Q.Q.(.U.Q.Q.Q.Q.Q.(.Q.Q.Q.Q.Q.Q.Q.Q.Q.W.Q.^.Q.Q.Q.Q.W.Q.Q.Q.Q.Q.Q.Q.Q.Q.^.Q.Q.Q.Q.Q.Q.Q.",
"Q.(.Q.Q.(.U.U.(.U.Q.W.Q.Q.Q.Q.W.(.Q.Q.(.Q.Q.Q.(.Q.(.Q.Q.Q.Q.Q.Q.Q.Q.Q.Q.^.Q.W.W.Q.Q.Q.Q.Q.Q.Q.W.Q.Q.Q.Q.Q.Q.!.P.Q.Q.Q.Q.Q.Q.P.Q.",
"Q.Q.Q.(.Q.(.(.(.U.Q.W.Q.Q.Q.Q.W.U.(.U.U.(.Q.U.(.Q.Q.U.Q.Q.(.U.I.(.P.Q.Q.Q.Q.Q.Q.Q.R.Q.Q.Q.Q.Q.R.W.Q.Q.Q.Q.Q.Q.Q.Q.Q.Q.Q.Q.Q.Q.Q."
};
