/* XPM */
static char *_11711898837[] = {
/* columns rows colors chars-per-pixel */
"64 64 139 2 ",
"   c #353736",
".  c #3A3B3B",
"X  c #423B3E",
"o  c #4C3A42",
"O  c #65344B",
"+  c #743151",
"@  c #4E4647",
"#  c #514F4F",
"$  c #4E5250",
"%  c #63414E",
"&  c #704358",
"*  c #7C435E",
"=  c #645E5A",
"-  c #6A5F5E",
";  c #63615C",
":  c #69605E",
">  c #6D6463",
",  c #767170",
"<  c #7E7876",
"1  c #A2235E",
"2  c #9E2F63",
"3  c #A72461",
"4  c #AD2967",
"5  c #AC316B",
"6  c #B1316C",
"7  c #B73371",
"8  c #BB3575",
"9  c #B73C77",
"0  c #C1246D",
"q  c #CB347C",
"w  c #C33B7B",
"e  c #CA397D",
"r  c #D4307D",
"t  c #904066",
"y  c #8C596A",
"u  c #9E5578",
"i  c #AD4F7D",
"p  c #8E6272",
"a  c #CD3C84",
"s  c #DF3082",
"d  c #DF3788",
"f  c #DC3C8A",
"g  c #E33287",
"h  c #E5368A",
"j  c #E53C8D",
"k  c #E83C8E",
"l  c #EC3D91",
"z  c #9D7D8C",
"x  c #AE6689",
"c  c #BF638E",
"v  c #B96B8D",
"b  c #C94987",
"n  c #C74A8A",
"m  c #D3438B",
"M  c #CB518D",
"N  c #CC588D",
"B  c #DB4990",
"V  c #D05894",
"C  c #D85B99",
"Z  c #E54290",
"A  c #EA4293",
"S  c #E84F98",
"D  c #E7599D",
"F  c #C76996",
"G  c #D8619C",
"H  c #D26B9E",
"J  c #CC789E",
"K  c #F35CA4",
"L  c #C874A0",
"P  c #CB7BA3",
"I  c #CF7EA8",
"U  c #D37CA7",
"Y  c #D77EAA",
"T  c #E168A2",
"R  c #E969A6",
"E  c #EA6CA9",
"W  c #E776AD",
"Q  c #EF7CB3",
"!  c #79888C",
"~  c #2DB5D2",
"^  c #6CB8C8",
"/  c #8D8B8A",
"(  c #938584",
")  c #978B8C",
"_  c #9D9895",
"`  c #A48092",
"'  c #BD8C9D",
"]  c #AEA5A4",
"[  c #B1A3AA",
"{  c #CB84A8",
"}  c #CF88A8",
"|  c #D38FAE",
" . c #D586B0",
".. c #DD8EB4",
"X. c #CD96B3",
"o. c #CB9BB0",
"O. c #D993B2",
"+. c #EC8BBA",
"@. c #F580B7",
"#. c #F487B9",
"$. c #EC94BD",
"%. c #C49EC4",
"&. c #ED95C0",
"*. c #EE9EC4",
"=. c #DDAAC2",
"-. c #DAB0C2",
";. c #E5AAC5",
":. c #F4A2CA",
">. c #E5B0C8",
",. c #E8BED0",
"<. c #F8B1D3",
"1. c #F8BED9",
"2. c #9BD6E5",
"3. c #D0C4C6",
"4. c #C1C8DE",
"5. c #DECDD3",
"6. c #DFD1D5",
"7. c #E7C3D2",
"8. c #E7C7D5",
"9. c #F4C4DA",
"0. c #E1D0D5",
"q. c #E9D4DC",
"w. c #F9CFE1",
"e. c #EBDDE3",
"r. c #F7D3E4",
"t. c #F9D4E5",
"y. c #F5DDE6",
"u. c #F9D8E7",
"i. c #FBD7E8",
"p. c #FAD9E9",
"a. c #D5E4EF",
"s. c #F0E0E6",
"d. c #F5E0E9",
"f. c #FCE3EE",
"g. c #FEE6F1",
"h. c #F4EAF0",
"j. c #FEEAF2",
"k. c #FFF0F7",
"l. c #FFF1F9",
/* pixels */
"r.t.t.w.w.i.w.w.w.t.t.t.t.t.w.t.t.w.r.t.t.t.w.t.t.i.w.i.r.r.r.i.r.t.t.w.t.t.r.i.t.t.i.t.t.t.t.i.u.u.t.t.t.t.t.r.t.t.t.t.t.w.t.t.",
"r.t.w.w.w.t.i.w.t.w.t.t.t.t.w.t.t.t.t.t.t.t.t.t.t.w.w.r.i.w.i.r.t.t.w.t.t.t.t.t.t.t.t.t.t.u.t.i.t.t.t.t.t.t.t.r.r.t.t.t.t.w.t.i.",
"t.t.w.t.w.t.w.t.t.w.t.t.t.t.t.t.t.w.t.w.w.w.r.t.t.r.w.r.i.i.i.t.r.t.t.t.t.t.r.i.i.i.t.i.i.t.t.t.t.t.t.t.t.t.t.t.r.t.t.t.t.i.i.t.",
"t.t.w.w.w.t.i.t.w.i.t.t.t.i.w.t.t.r.w.t.w.i.t.t.t.r.w.w.w.r.w.t.t.t.t.t.t.r.r.i.t.t.t.i.r.t.t.t.t.t.t.t.t.t.t.t.t.t.t.t.t.t.w.i.",
"w.t.w.t.w.t.w.t.w.i.w.w.t.w.t.t.t.w.t.i.i.i.r.w.t.w.t.t.t.w.t.t.t.t.t.t.t.t.t.t.t.t.t.t.t.t.t.t.t.t.t.t.r.w.t.t.t.t.t.t.w.t.t.t.",
"w.t.t.t.w.w.t.t.i.w.i.t.w.t.t.w.t.t.t.w.r.i.i.r.t.t.w.t.t.t.t.t.i.w.t.t.t.t.t.t.i.t.w.t.t.t.i.t.t.t.r.t.t.t.t.t.t.t.t.t.t.t.t.t.",
"t.t.w.w.t.w.t.t.w.w.i.w.t.w.t.w.w.t.t.t.w.t.t.i.t.t.w.t.t.t.t.t.t.t.t.t.i.t.t.i.i.w.t.t.t.t.t.t.t.t.t.r.t.t.t.w.t.t.t.w.t.t.t.i.",
"t.w.w.t.w.t.t.t.w.t.w.t.t.t.i.w.t.t.w.t.t.t.r.i.t.t.t.t.i.t.w.t.t.t.i.t.i.i.t.t.t.t.t.t.t.i.t.t.t.r.w.t.t.t.t.t.w.t.r.t.t.t.t.t.",
"r.w.i.w.r.w.w.r.t.t.t.w.t.t.t.i.t.t.t.t.t.t.t.t.w.t.t.t.t.t.t.t.t.i.i.t.t.t.t.i.i.t.t.t.t.t.i.t.t.t.t.t.t.t.i.t.t.t.t.t.t.t.t.t.",
"r.w.t.w.r.r.i.w.t.i.t.t.w.w.w.t.t.t.t.w.t.r.t.t.t.t.t.w.w.t.t.w.i.t.i.t.w.r.t.t.t.t.t.t.i.t.i.t.t.i.w.t.t.t.t.t.r.t.t.t.t.t.t.t.",
"t.t.t.w.t.i.i.r.t.t.w.t.i.w.t.t.t.t.t.w.t.t.t.t.t.t.t.t.t.i.t.t.t.t.t.t.t.t.t.t.t.t.t.t.t.t.t.t.t.t.t.t.t.w.t.i.t.t.t.t.t.t.t.t.",
"t.w.t.w.t.t.i.w.w.t.t.w.i.w.i.w.w.t.t.t.t.t.w.w.w.t.t.t.t.t.t.w.t.t.t.t.r.t.t.r.t.t.t.i.t.t.t.t.r.t.w.t.t.t.w.t.t.t.t.t.t.t.t.t.",
"w.t.w.t.w.i.w.i.r.w.w.w.w.i.w.w.w.t.t.t.r.w.w.t.t.t.w.t.t.r.t.t.t.t.t.t.t.t.w.t.t.t.t.i.t.t.t.t.t.r.t.t.t.t.w.t.t.t.t.t.t.t.t.t.",
"t.w.w.t.i.w.w.r.r.r.i.t.i.w.w.i.t.t.t.t.t.r.t.w.t.t.r.t.t.t.t.t.t.t.t.r.t.r.r.t.t.t.t.t.t.t.t.t.t.w.t.t.t.t.t.t.t.t.w.t.t.t.t.t.",
"t.t.i.w.i.w.w.i.w.i.r.w.w.i.i.t.r.r.t.t.t.t.i.t.t.t.t.t.t.t.t.t.t.t.i.t.t.t.t.t.t.t.t.t.t.t.t.w.t.t.t.t.t.t.t.t.r.t.t.t.i.t.t.w.",
"w.t.i.w.w.i.w.w.r.i.r.i.i.w.w.i.i.t.t.t.t.r.t.t.i.t.t.t.t.t.t.i.t.i.i.r.t.t.t.t.t.t.t.w.t.t.t.t.t.t.t.t.t.t.t.t.t.t.t.t.i.t.t.t.",
"i.w.t.w.t.t.t.t.w.t.t.t.t.t.t.i.t.t.t.t.r.t.t.t.t.t.t.t.t.t.t.t.t.t.t.t.t.t.i.i.w.t.t.t.t.t.t.t.t.t.t.t.t.t.i.t.i.t.t.t.r.t.t.t.",
"t.i.t.w.t.w.w.t.t.t.t.t.t.t.t.t.t.t.t.t.r.t.t.t.t.r.t.t.t.t.t.t.i.t.t.t.t.w.t.i.t.t.t.t.t.t.t.r.t.t.t.t.t.t.t.t.r.r.w.t.r.t.t.t.",
"w.t.t.i.t.t.r.t.t.w.t.t.t.w.t.t.t.t.t.w.t.i.t.t.t.t.t.t.t.t.t.t.t.i.t.t.i.t.i.t.i.t.t.t.t.w.t.w.t.t.t.t.i.i.i.t.w.t.r.t.t.t.t.t.",
"i.w.i.t.t.r.i.i.t.w.t.t.t.t.t.t.t.t.t.r.t.t.i.t.t.u.t.r.t.t.t.t.i.i.t.t.t.t.t.t.i.t.t.t.i.t.t.t.t.t.i.t.t.t.t.w.r.t.t.t.t.t.t.t.",
"r.r.w.r.t.t.t.t.t.r.t.w.w.r.t.t.t.w.t.t.t.t.t.t.u.u.t.t.i.t.t.t.i.i.r.r.t.t.t.t.t.t.t.t.i.r.r.t.t.i.i.t.t.t.t.t.t.t.t.w.t.t.t.t.",
"w.w.i.r.t.t.t.t.t.t.t.w.t.r.t.r.t.t.t.t.t.i.w.t.t.t.t.f.g.f.t.t.r.r.t.r.t.t.t.i.t.r.r.t.t.t.t.t.i.t.t.t.t.t.t.t.i.w.t.t.t.t.t.t.",
"i.w.i.i.i.w.t.t.r.t.t.t.t.t.t.t.w.t.r.t.t.t.t.p.p.p.j.y.c ,.j.r.t.t.t.t.t.i.t.t.w.t.t.t.r.t.w.t.t.w.t.t.t.t.t.i.t.t.t.t.t.w.t.w.",
"i.i.t.r.t.t.t.i.r.r.t.t.t.t.t.t.w.t.t.t.i.p.f.t.t.t.w.$.0 J j.t.i.w.t.i.i.t.t.t.t.w.t.t.w.r.i.r.i.i.i.t.t.t.t.w.t.t.t.t.t.t.t.t.",
"r.r.r.i.t.t.r.r.t.t.t.i.i.t.r.t.t.t.t.t.w.f.w.S S S Z h V ;.f.p.i.r.r.t.t.t.t.t.t.w.w.t.t.w.r.t.t.t.t.t.t.t.t.t.w.t.w.t.r.t.t.t.",
"i.r.r.t.i.t.t.r.i.t.u.t.t.t.r.t.t.t.t.t.r.u.p.D g j j j m { g.y.r.r.r.i.i.i.t.t.w.t.i.i.i.t.t.i.t.t.t.t.w.w.w.w.w.t.t.w.t.w.t.t.",
"t.t.i.t.t.u.u.t.r.u.u.u.t.i.i.t.t.t.t.t.t.t.f.Q h k j j j M ;.j.i.i.r.i.i.t.t.t.t.t.t.t.t.i.i.r.i.w.t.i.t.t.t.t.t.t.w.t.t.w.t.t.",
"t.t.t.i.t.i.i.i.r.u.u.t.t.t.t.t.t.t.t.t.t.p.f.R h j j j j B Y y.g.w.i.r.t.t.t.w.t.t.t.i.t.w.r.r.t.i.t.t.t.i.t.t.t.t.t.t.t.w.w.t.",
"t.t.r.i.r.t.t.r.r.r.t.t.u.i.t.i.t.i.t.t.t.g.7.e k j j j j f I >.j.p.t.t.t.w.r.t.r.i.t.t.t.t.t.t.w.i.w.i.t.t.t.i.t.t.t.i.t.w.t.t.",
"t.i.i.r.i.t.t.t.t.i.t.t.u.t.t.t.t.t.t.t.t.k.P 4 j j j Z k j a L 7.j.p.i.r.t.t.t.w.i.w.t.t.t.t.t.w.w.r.w.i.t.t.t.w.w.t.t.t.t.t.t.",
"t.i.r.r.t.t.i.t.t.t.t.i.u.i.u.r.t.t.t.t.t.g.c 1 e k k j j j Z  .X.=.f.j.f.u.w.w.r.r.w.w.t.t.i.r.w.t.r.i.i.w.w.i.i.w.t.w.t.t.t.t.",
"t.t.i.i.r.i.t.t.t.t.i.i.u.u.r.r.t.t.u.t.t.j.c 1 5 e j k k j R :.W P X.-.r.g.g.p.i.i.w.w.t.w.r.i.w.t.t.t.i.w.t.t.t.t.w.t.t.t.t.w.",
"r.u.i.i.i.d.i.i.i.i.r.u.u.u.i.r.t.t.t.t.t.j.| 3 6 4 6 a j Z &.+.E :.C n H U 9.g.f.t.t.t.t.w.t.t.t.t.t.t.w.t.t.w.w.t.w.t.i.r.t.r.",
"r.i.i.i.i.u.i.r.u.r.u.i.r.u.r.r.t.i.u.i.t.g.q.* + + 2 2 8 K :.W +.$.A j d f *.r.t.f.t.t.t.t.t.t.i.t.t.t.t.t.t.t.t.t.i.t.t.w.t.r.",
"i.i.u.d.r.i.r.i.i.i.u.r.u.i.i.r.t.i.u.t.t.p.e.$   . X o O u { T $.Q k l l l A :.<.p.t.r.t.t.w.t.i.t.t.t.t.t.t.r.w.i.w.w.w.w.w.r.",
"u.i.u.u.i.r.r.i.r.i.p.i.r.u.u.i.t.i.t.i.i.p.e.#   . . .   / [ z ` x 9 9 w 8 b { P f.t.t.t.t.t.t.t.t.t.t.w.t.t.t.t.w.t.w.t.t.t.t.",
"u.i.u.u.r.r.p.r.i.u.u.u.u.r.i.i.t.u.t.t.t.p.s., = ; ; ; : ) ] _ / < > : > - > = ( j.t.t.t.t.t.t.i.t.i.t.t.t.t.r.t.t.w.t.t.t.r.w.",
"r.r.u.u.i.i.p.i.u.u.p.u.u.u.d.i.u.u.t.y.i.u.j.3.p n } ) ( 5.5.5.0.q.6.( y v ' ! ^ a.p.i.t.t.t.t.t.t.t.t.r.r.t.t.t.w.t.w.t.t.t.t.",
"i.r.u.u.p.p.p.r.u.p.u.p.i.i.p.u.u.u.i.u.i.r.g.8.w e i ..8.j.g.p.p.f.l.o.q M N %.~ 2.f.t.t.t.t.t.t.t.t.t.r.t.t.t.t.w.t.t.t.i.t.t.",
"i.i.r.i.p.r.p.u.p.u.u.u.u.u.u.u.u.i.u.t.t.t.g.-.r t @ F i.g.w.r.t.t.f.O.s & % C 4.h.p.t.t.t.t.t.t.i.i.t.r.r.t.w.t.t.t.t.w.t.t.w.",
"i.u.r.i.u.u.p.u.p.p.u.r.p.i.r.u.i.u.i.r.i.r.p.y.G q 7 Z w.g.t.t.t.w.f.,.f 7 6 D p.p.t.t.t.t.t.t.t.w.t.t.t.t.i.r.w.t.t.t.t.t.t.w.",
"r.u.u.u.r.u.u.u.u.u.u.u.u.u.u.i.u.u.i.i.i.t.t.g.y.:.&.1.g.i.t.i.t.r.t.g.9.#.@.9.j.r.t.t.w.t.t.t.t.t.t.t.t.t.t.w.w.t.i.t.t.t.t.t.",
"u.u.u.u.p.r.r.d.u.r.u.u.u.p.p.i.u.u.u.y.t.i.i.t.p.j.j.h.t.i.i.t.i.t.t.i.g.j.g.f.t.t.t.t.t.t.t.t.w.t.t.t.t.t.t.t.w.t.t.t.t.t.t.t.",
"i.u.u.i.p.r.i.i.r.r.u.u.d.p.i.p.p.p.p.p.t.t.t.i.i.r.i.u.r.t.t.i.u.t.u.i.t.t.t.t.t.t.t.t.w.t.t.t.t.t.t.t.t.t.t.t.r.t.t.i.i.t.t.t.",
"p.p.d.p.d.p.p.p.i.u.u.i.d.u.u.u.u.u.u.u.i.i.u.u.u.u.u.u.r.u.i.u.u.u.t.t.t.t.i.i.t.t.t.t.p.t.t.t.i.t.t.r.r.t.t.r.t.t.t.i.t.t.t.t.",
"i.p.i.p.i.p.p.p.r.i.i.i.i.u.u.u.u.u.u.i.i.i.t.r.u.u.u.u.u.u.u.u.i.i.t.p.t.i.t.i.t.t.t.p.p.t.t.t.t.t.i.i.i.t.i.t.t.t.t.t.t.t.t.t.",
"r.i.r.r.r.i.p.p.p.i.u.i.i.i.u.u.u.i.r.r.u.i.i.r.i.u.u.u.i.u.u.u.t.i.t.u.t.t.t.t.t.p.t.p.p.t.t.t.i.i.r.i.i.i.t.t.t.i.t.t.t.t.t.t.",
"r.r.p.p.u.i.p.p.i.d.u.i.u.u.i.u.u.i.u.u.u.u.u.u.i.u.u.u.u.i.u.u.t.i.t.t.i.i.t.p.p.t.t.t.r.t.t.t.r.t.t.t.t.i.t.t.t.t.t.t.i.t.t.t.",
"i.p.r.i.r.i.i.i.u.u.i.i.u.u.r.i.p.p.p.p.p.y.u.u.u.t.t.u.t.i.u.u.i.u.u.u.r.u.u.i.p.u.t.t.i.i.i.t.i.i.r.t.t.t.t.u.u.t.r.t.i.t.t.t.",
"p.r.r.r.r.r.i.u.u.u.i.i.u.i.i.u.t.p.p.p.p.t.u.u.u.t.t.t.u.u.t.t.u.t.u.i.t.r.u.u.u.u.t.t.t.t.t.t.r.t.t.t.i.t.t.t.u.t.i.t.t.r.t.t.",
"r.i.r.p.u.r.u.u.u.i.i.r.r.u.u.r.t.p.p.t.p.p.t.u.t.t.t.t.t.u.u.t.t.i.r.t.i.t.i.u.u.u.t.u.t.t.t.t.t.t.i.t.t.i.t.t.i.t.t.t.t.t.t.t.",
"i.t.i.p.u.u.r.u.r.r.r.i.u.u.u.u.d.p.p.t.t.u.u.u.u.t.t.t.t.t.t.u.r.r.r.u.i.u.i.i.u.u.i.i.t.i.r.t.i.t.t.t.t.t.i.t.r.t.u.t.w.w.t.t.",
"t.i.r.i.u.i.t.t.i.i.r.i.u.i.u.i.p.t.y.p.u.t.u.u.t.t.u.t.t.t.t.u.t.u.t.u.u.u.u.u.p.p.u.u.i.t.i.i.i.t.r.r.i.t.i.r.t.t.t.t.t.w.t.t.",
"t.r.i.r.r.u.u.t.u.i.i.i.u.r.r.u.u.u.t.p.u.u.w.w.i.u.t.t.u.u.u.u.i.i.i.i.u.u.u.i.u.u.u.u.u.t.t.i.t.t.i.i.i.t.t.t.t.t.t.t.t.t.t.t.",
"i.i.r.i.u.t.t.i.i.r.r.i.r.r.r.i.p.u.u.u.u.t.t.u.t.t.u.t.u.u.t.u.i.t.u.u.u.u.u.t.t.i.p.u.t.i.i.t.t.t.t.r.t.r.t.t.t.t.t.t.w.t.t.t.",
"r.r.u.r.t.i.t.t.r.r.r.r.i.u.u.i.u.p.t.t.u.t.u.t.t.t.t.t.t.t.t.t.i.u.r.u.t.t.t.t.t.i.p.u.t.i.t.t.t.i.t.r.t.t.t.t.w.t.r.t.t.t.t.w.",
"u.u.t.t.y.t.t.t.r.r.t.t.t.t.y.i.t.t.t.t.u.t.w.t.t.t.t.u.t.t.t.t.i.r.i.t.i.t.t.t.t.t.t.t.i.t.t.t.i.t.t.t.t.t.t.w.t.w.t.t.t.t.w.t.",
"u.w.y.y.t.w.y.t.t.t.t.t.t.u.u.t.u.u.u.t.t.t.y.t.t.t.u.p.t.t.t.t.t.t.t.i.r.t.r.t.t.t.t.t.t.i.i.i.p.p.t.w.t.t.t.t.t.t.w.t.w.t.t.t.",
"w.u.w.t.t.t.t.y.t.r.u.t.t.y.i.u.u.w.y.t.t.w.u.t.t.t.t.t.p.t.t.t.r.i.r.t.t.t.r.t.t.r.t.t.t.t.t.t.t.t.t.t.t.t.t.t.r.r.t.r.t.t.r.r.",
"u.w.w.y.t.t.t.y.t.r.u.u.i.t.t.t.u.w.u.t.p.t.w.t.t.t.t.t.t.t.t.t.r.t.t.t.r.t.t.t.w.t.t.t.t.t.t.i.t.t.t.t.t.t.t.r.t.t.w.t.t.t.r.t.",
"t.t.u.u.y.w.t.t.r.t.t.i.t.t.t.u.t.y.w.t.t.t.t.r.t.p.t.t.t.t.t.t.t.t.t.t.t.t.t.t.t.t.t.t.t.t.t.t.t.r.t.r.t.t.t.t.p.t.t.t.t.t.t.w.",
"u.t.t.t.t.t.y.w.r.t.t.t.t.t.r.u.t.t.w.t.t.t.t.t.t.t.t.t.t.t.t.t.t.t.t.t.t.t.t.r.t.t.t.w.t.t.t.t.t.t.t.t.t.t.t.t.t.t.t.t.t.t.t.t.",
"u.t.t.t.t.y.t.t.u.r.t.t.w.t.r.r.y.t.t.y.t.t.r.t.t.t.t.t.t.t.t.t.y.r.t.t.t.t.r.r.t.t.t.t.t.t.t.w.t.t.t.t.t.t.t.9.t.t.t.t.p.9.t.t.",
"w.t.u.t.t.t.t.r.r.t.r.t.t.t.r.r.w.t.t.t.t.t.t.t.t.t.t.t.t.t.w.r.t.r.t.t.i.t.r.t.t.t.t.t.t.t.t.w.w.t.t.t.r.t.p.t.r.t.t.t.t.t.t.t."
};
