/* XPM */
static char *skates1712085561[] = {
/* columns rows colors chars-per-pixel */
"64 64 143 2 ",
"   c #353736",
".  c #323B37",
"X  c #3A3B3B",
"o  c #423B3E",
"O  c #4C3A42",
"+  c #65344B",
"@  c #743151",
"#  c #4E4647",
"$  c #514F4F",
"%  c #4E5250",
"&  c #63414E",
"*  c #704358",
"=  c #7C435E",
"-  c #645E5A",
";  c #6A5F5E",
":  c #63615C",
">  c #69605E",
",  c #6D6463",
"<  c #767170",
"1  c #7E7876",
"2  c #843359",
"3  c #92315E",
"4  c #A2235E",
"5  c #9E2F63",
"6  c #A72461",
"7  c #AD2967",
"8  c #AC316B",
"9  c #B1316C",
"0  c #B73371",
"q  c #BB3575",
"w  c #B73C77",
"e  c #C1246D",
"r  c #C12E72",
"t  c #CB347C",
"y  c #C33B7B",
"u  c #CA3A7E",
"i  c #D4307D",
"p  c #904066",
"a  c #8C596A",
"s  c #9E5578",
"d  c #AD4F7D",
"f  c #8E6272",
"g  c #CD3C84",
"h  c #DF3082",
"j  c #DC3C8A",
"k  c #E43287",
"l  c #E5368A",
"z  c #E53B8D",
"x  c #E93C8F",
"c  c #EC3D91",
"v  c #9D7D8C",
"b  c #AE6689",
"n  c #BF638E",
"m  c #B96B8D",
"M  c #C94987",
"N  c #C74A8A",
"B  c #D74086",
"V  c #D3448B",
"C  c #CB528E",
"Z  c #CC588D",
"A  c #DB4A91",
"S  c #D05894",
"D  c #D85B99",
"F  c #E64291",
"G  c #EA4293",
"H  c #E74994",
"J  c #E84F98",
"K  c #E85097",
"L  c #E9589C",
"P  c #C76996",
"I  c #D3669A",
"U  c #CC789E",
"Y  c #F35CA4",
"T  c #CB7BA3",
"R  c #D37CA7",
"E  c #D77EAA",
"W  c #E168A2",
"Q  c #E96AA6",
"!  c #EA6CA9",
"~  c #E375AB",
"^  c #EC76AD",
"/  c #EF7CB3",
"(  c #79888C",
")  c #2DB5D2",
"_  c #6CB8C8",
"`  c #8D8B8A",
"'  c #938584",
"]  c #978B8C",
"[  c #9D9895",
"{  c #A48092",
"}  c #BD8C9D",
"|  c #AEA5A4",
" . c #B1A3AA",
".. c #CB83A5",
"X. c #CB84A8",
"o. c #CF88A8",
"O. c #D087AB",
"+. c #D38FAE",
"@. c #DD8EB4",
"#. c #CB9BB0",
"$. c #EC8BBA",
"%. c #F580B7",
"&. c #F487B9",
"*. c #F788BD",
"=. c #ED93BC",
"-. c #C49EC4",
";. c #ED95C0",
":. c #EE9EC4",
">. c #DDAAC2",
",. c #DAB0C2",
"<. c #E5AAC5",
"1. c #F4A2CA",
"2. c #E2B0C7",
"3. c #E5B0C8",
"4. c #E8BED0",
"5. c #F8B1D3",
"6. c #F8BED9",
"7. c #9BD6E5",
"8. c #D0C4C6",
"9. c #C1C8DE",
"0. c #DECDD3",
"q. c #DFD1D5",
"w. c #E7C3D2",
"e. c #E7C7D5",
"r. c #F4C4DA",
"t. c #E1D0D5",
"y. c #E9D4DC",
"u. c #F9CFE1",
"i. c #EBDDE3",
"p. c #F7D4E4",
"a. c #F9D4E5",
"s. c #F6DBE6",
"d. c #F9D8E7",
"f. c #FBD7E8",
"g. c #FADAE9",
"h. c #D5E4EF",
"j. c #F0E0E6",
"k. c #F5E0E9",
"l. c #FCE3EE",
"z. c #FEE6F1",
"x. c #F4EAF0",
"c. c #FEEAF2",
"v. c #FFF0F7",
/* pixels */
"p.a.a.u.u.a.a.u.u.a.a.a.a.a.u.a.a.p.p.a.a.a.a.u.a.a.f.p.a.p.a.f.p.a.a.u.f.a.a.f.a.a.a.a.a.s.a.f.g.f.p.a.a.a.a.a.a.a.p.a.u.a.a.a.",
"p.a.u.u.u.a.a.u.a.u.a.a.a.a.u.a.a.a.u.a.a.a.a.a.a.u.a.a.a.a.a.a.a.a.u.a.p.a.a.a.a.a.g.a.a.a.p.f.a.a.f.u.a.a.a.u.a.a.a.a.a.u.a.f.",
"a.a.u.a.a.u.a.u.a.u.a.a.f.a.a.a.a.u.a.p.u.a.p.u.f.r.r.a.a.f.a.a.p.a.u.a.a.a.a.a.f.f.f.a.d.a.a.f.a.a.a.a.a.a.a.a.a.a.f.a.u.f.a.f.",
"a.a.u.u.u.a.a.a.a.a.a.a.a.a.u.a.f.u.u.u.a.a.a.a.a.a.p.a.u.a.p.a.a.a.a.a.a.a.a.a.a.a.a.f.p.p.u.f.a.p.a.a.a.a.a.a.a.a.a.a.a.a.u.f.",
"u.u.a.u.a.u.u.a.u.f.u.u.u.u.a.a.f.p.a.f.f.f.p.u.a.a.u.a.a.u.a.a.a.a.a.a.a.a.a.a.u.a.a.a.u.a.a.g.u.a.a.a.a.p.a.a.a.u.p.a.a.a.a.a.",
"u.f.a.u.u.a.a.a.f.u.f.a.u.f.a.u.u.a.u.a.u.a.d.p.a.a.a.a.a.a.a.a.a.a.a.a.a.a.a.a.f.a.a.a.g.a.f.a.a.f.u.a.g.u.a.u.a.a.p.f.a.a.a.a.",
"a.a.u.u.u.u.f.a.u.u.f.u.u.f.a.u.a.a.u.a.u.f.a.f.a.a.a.a.a.a.a.a.a.a.a.a.f.a.a.a.f.u.u.a.f.u.u.a.a.a.u.p.a.f.p.p.a.a.u.a.p.a.a.a.",
"a.u.a.a.a.u.a.a.u.a.u.a.f.u.f.u.u.a.p.d.u.f.p.f.a.u.u.a.a.a.a.a.a.a.a.a.a.g.a.f.a.f.f.a.a.f.f.a.a.p.a.p.u.f.a.p.a.a.a.a.a.a.a.a.",
"a.u.a.a.a.u.a.a.a.a.a.u.a.p.a.a.a.a.a.u.a.p.p.a.a.u.a.a.a.a.a.p.a.a.f.a.a.a.a.f.a.a.a.f.f.a.f.f.a.a.a.a.a.f.f.a.a.p.a.a.a.a.a.a.",
"a.a.u.u.a.u.a.a.a.f.a.a.u.u.u.a.a.a.a.a.a.a.p.a.a.a.a.p.u.a.a.a.f.a.a.a.p.p.a.a.a.a.a.a.f.u.a.u.p.f.u.u.u.u.a.a.a.a.a.a.a.p.a.a.",
"u.u.u.a.a.a.a.u.a.a.u.a.a.a.f.f.a.a.a.a.a.a.f.f.f.a.a.g.f.f.f.a.g.g.g.a.f.f.a.a.f.f.a.f.a.g.f.f.a.g.f.f.f.u.a.f.d.a.a.a.a.a.u.a.",
"u.a.a.u.a.a.a.a.u.a.a.f.g.f.f.f.g.g.g.g.g.g.g.d.f.g.g.g.g.g.g.g.g.g.g.g.g.g.g.g.g.g.g.g.g.k.g.k.g.g.g.g.k.a.p.f.a.a.a.a.a.a.a.f.",
"a.a.u.a.a.u.u.a.u.u.a.f.a.a.a.a.a.p.a.a.a.r.a.u.a.a.r.g.a.p.a.u.a.a.a.f.p.a.a.p.u.g.a.f.a.a.p.u.a.u.a.a.f.a.p.u.d.u.u.a.a.a.a.p.",
"u.a.a.u.a.u.a.a.a.a.a.f.a.a.a.a.a.a.p.a.f.p.a.a.a.a.a.a.f.a.a.a.a.a.a.a.a.a.a.a.p.f.a.f.a.a.a.g.a.a.f.a.g.f.u.a.a.a.a.a.a.a.f.u.",
"f.u.a.u.u.a.a.u.a.a.a.f.u.a.a.a.a.a.a.f.a.a.a.a.a.a.a.a.a.a.a.a.a.d.a.p.a.p.a.a.f.f.p.f.a.a.p.u.a.a.a.a.g.a.u.d.a.a.u.f.a.a.a.u.",
"u.a.a.a.a.a.a.a.a.a.a.f.a.a.a.a.a.a.a.a.a.a.a.a.f.f.a.a.a.a.a.a.a.a.d.a.a.a.a.a.p.u.a.u.a.a.u.f.a.a.a.a.g.f.a.d.a.a.a.a.f.d.f.a.",
"f.u.a.u.f.u.a.a.a.p.f.g.a.a.a.a.a.a.a.a.a.a.a.f.a.a.a.a.a.p.a.f.a.d.d.f.a.a.g.a.a.a.a.u.a.a.a.a.a.a.f.a.g.a.a.d.d.a.u.u.f.a.a.a.",
"u.f.a.a.p.u.p.a.u.a.a.f.a.a.a.a.a.a.a.a.u.a.a.a.f.a.a.a.p.a.a.a.d.a.a.u.a.u.a.f.a.a.a.a.a.a.a.u.a.a.a.a.g.a.a.a.p.p.p.p.p.f.a.a.",
"f.f.u.a.a.a.p.f.a.u.a.g.a.a.a.a.a.a.a.u.a.g.a.a.a.p.a.a.a.a.a.a.d.d.a.a.a.f.f.a.f.a.a.a.a.p.p.p.a.a.a.g.g.g.d.u.u.p.u.p.a.a.u.a.",
"u.f.f.a.a.u.f.a.a.a.a.g.a.a.a.a.a.a.a.p.a.a.f.a.a.a.d.p.a.a.a.a.d.d.g.u.a.a.a.f.a.a.a.a.a.a.p.a.a.a.a.a.g.g.a.a.p.a.f.f.a.a.a.a.",
"u.a.a.p.a.p.f.p.a.p.a.a.p.a.a.a.a.a.a.a.a.f.a.a.f.d.a.p.a.a.a.a.p.f.p.p.a.a.a.a.a.a.a.a.a.a.a.a.a.f.g.a.g.a.a.a.a.f.f.u.a.f.a.a.",
"u.a.a.p.a.f.u.a.a.a.a.f.u.p.a.p.u.a.a.a.a.a.p.u.a.a.a.l.z.l.a.a.a.p.u.p.a.a.a.a.a.a.u.a.a.a.a.a.a.a.d.a.g.a.a.a.a.a.u.a.a.a.u.a.",
"f.a.f.a.a.a.f.f.p.p.a.f.a.f.a.a.a.u.a.a.a.a.a.g.d.g.c.k.n 4.z.p.f.f.a.a.a.f.f.u.u.a.f.u.u.f.u.p.a.a.a.u.g.f.a.a.a.a.a.a.a.a.a.a.",
"f.u.a.p.a.p.p.a.p.p.a.g.a.f.a.a.r.a.a.a.a.g.l.a.a.a.u.=.e U c.f.p.u.a.f.f.a.f.a.f.u.a.a.p.a.a.p.a.f.g.a.g.a.u.a.a.a.a.f.u.u.a.a.",
"a.f.a.a.a.a.p.a.a.p.f.d.a.a.a.a.g.a.a.f.p.g.a.K J K F l S 2.l.g.f.p.u.f.f.u.f.f.f.u.u.a.a.p.p.a.a.a.d.a.g.a.u.p.p.u.p.u.a.f.f.p.",
"a.a.a.a.d.p.p.a.f.f.d.d.a.a.a.a.a.a.f.a.p.g.g.L k l l z V o.l.s.a.p.p.d.f.f.a.u.u.a.f.f.f.u.d.a.a.a.a.a.f.p.u.p.a.u.u.f.u.a.a.p.",
"a.a.a.f.p.f.f.p.f.d.d.d.a.f.a.a.a.a.a.a.a.a.l./ k F H F z C <.c.f.f.p.d.g.a.a.p.u.f.u.a.f.a.a.a.d.a.a.a.f.a.u.f.a.u.p.u.a.u.u.u.",
"a.a.a.a.p.f.f.f.p.f.d.g.f.a.a.f.a.a.a.a.a.g.l.Q k L =.! l A E s.l.p.u.f.f.a.a.u.a.a.f.a.a.a.a.a.a.a.f.a.g.a.d.a.f.a.a.p.u.u.p.f.",
"a.a.f.a.p.a.f.p.a.a.d.g.g.f.a.f.a.a.a.p.a.l.w.u l K ^ L z l R 3.l.g.u.p.p.p.u.f.u.a.f.a.u.a.a.f.p.u.a.a.g.f.a.g.f.f.f.f.f.u.a.f.",
"a.f.a.f.f.a.a.a.a.a.d.g.d.f.p.f.a.a.a.a.p.v.T 6 x F J F z F g U w.c.l.a.p.u.f.u.p.f.u.a.a.a.a.u.u.u.a.a.g.a.u.f.p.u.u.g.a.a.f.u.",
"a.a.a.p.a.f.f.p.a.a.d.g.d.f.p.a.a.a.d.a.f.l.P 4 u x z z z z G O.#.>.l.c.l.g.u.p.f.a.p.p.a.a.a.a.a.a.a.f.g.a.u.f.u.u.u.u.f.u.u.a.",
"a.a.f.a.a.f.p.p.a.a.d.g.d.d.p.p.a.a.d.a.p.c.n 4 8 t z F F k Q 1.~ ..#.2.p.l.l.k.u.a.u.p.u.a.a.a.p.u.a.a.g.f.u.f.u.f.a.u.a.f.f.u.",
"f.p.d.d.f.g.d.f.f.p.g.g.f.s.f.p.a.f.f.a.u.v.+.6 8 7 0 g j F ;.$.Q 1.D N I E r.c.l.a.p.a.a.u.a.a.a.a.a.a.f.a.a.a.r.f.u.a.a.p.a.p.",
"f.p.g.g.f.g.d.p.f.f.s.g.p.f.f.p.a.d.p.a.a.l.y.= @ 2 3 5 r Y 1.^ $.$.F l j B :.p.a.l.a.a.a.a.a.a.a.a.a.a.g.a.a.a.a.a.a.a.p.a.p.u.",
"f.p.g.g.p.p.p.p.f.p.d.g.p.d.d.p.a.f.f.p.a.g.i.%   X o O + s X.W ;.%.z x G c c 1.5.g.a.p.a.a.u.a.a.a.f.a.f.a.a.p.a.u.u.a.a.u.a.u.",
"p.s.g.g.g.p.p.f.f.f.g.g.d.g.d.d.a.a.f.f.f.g.i.$   X X X . `  .v { b w y y q M X.T l.a.u.a.a.a.a.a.a.f.a.f.a.a.a.a.a.a.u.u.p.a.a.",
"f.p.d.d.p.p.g.f.p.g.g.g.f.p.s.d.f.f.p.p.a.g.j.< - : : : > ] | [ ` 1 , > , ; ; - ' c.a.a.a.a.a.f.a.d.a.a.d.f.a.a.p.a.a.u.a.a.p.a.",
"f.p.d.d.f.f.g.d.p.d.k.g.f.f.d.d.d.d.p.d.f.d.c.8.f N ..] ' q.0.0.t.y.q.' a m } ( _ h.l.a.a.a.a.a.a.a.a.a.a.a.p.f.u.u.a.a.a.a.a.a.",
"f.f.f.d.f.f.g.f.f.g.g.k.d.d.f.g.d.d.d.d.f.a.z.e.y y d @.e.v.z.g.g.l.v.#.t C Z -.) 7.l.p.a.a.a.a.a.a.a.f.g.f.f.p.a.a.a.a.a.f.a.u.",
"f.p.f.d.g.p.f.f.g.f.g.g.g.s.p.g.d.d.d.d.a.a.z.,.i p # P f.g.a.u.a.p.c.@.h * & D 9.x.f.a.a.a.a.a.a.a.g.a.g.a.p.u.a.u.u.a.a.a.u.a.",
"d.p.d.f.p.g.g.g.f.g.g.g.f.g.f.f.f.d.p.f.f.p.d.k.I t 0 A u.z.a.a.p.u.l.4.j 0 9 L l.g.a.f.a.a.a.a.a.a.a.a.f.f.a.p.u.a.a.a.a.a.u.u.",
"s.p.g.p.d.p.p.g.s.g.g.g.s.p.f.f.d.d.f.f.a.a.a.z.k.1.*.6.z.f.f.f.a.a.a.z.r.&.%.r.l.p.a.a.a.a.a.u.p.a.a.a.f.f.a.a.u.a.f.f.a.a.a.a.",
"f.p.p.g.d.d.p.g.f.p.g.g.g.d.d.k.d.g.g.d.a.a.a.a.g.c.c.x.a.a.f.a.a.a.a.a.l.c.l.l.a.a.a.a.u.a.a.u.u.a.a.a.g.f.a.u.a.a.a.a.a.a.a.a.",
"g.f.g.g.g.p.g.g.p.f.g.g.d.d.d.g.g.g.g.g.f.f.a.f.a.a.f.f.a.a.a.d.d.a.g.d.a.a.f.a.a.f.f.r.a.a.a.a.a.a.p.f.g.a.a.p.u.a.a.a.f.a.f.a.",
"k.f.k.f.g.k.f.f.f.f.s.k.d.d.g.d.g.d.d.d.f.d.p.f.d.g.p.g.p.f.p.d.d.d.f.a.p.a.a.f.a.a.a.a.f.f.a.a.a.a.a.a.d.g.f.p.a.a.a.a.a.a.a.a.",
"f.f.f.d.g.g.g.g.f.f.f.g.d.d.d.d.d.d.d.d.p.f.d.p.f.g.s.p.d.d.d.f.d.f.f.f.a.f.a.f.f.a.a.g.d.a.f.a.f.a.d.a.d.f.a.f.a.a.a.a.a.a.a.a.",
"p.f.f.d.d.d.g.g.f.a.g.g.d.d.d.g.s.d.f.p.f.d.f.p.f.g.s.d.d.d.d.f.f.f.a.f.a.a.a.f.g.a.a.g.d.a.a.a.d.a.d.a.g.f.a.a.a.f.a.a.a.a.a.a.",
"p.p.f.d.p.p.d.d.g.g.g.l.d.a.d.f.d.d.f.d.d.d.d.p.g.g.g.p.f.f.d.d.a.f.a.a.f.f.a.f.g.f.a.a.p.a.a.a.a.a.a.f.g.f.a.a.a.f.a.a.f.f.a.a.",
"f.d.p.f.f.f.p.f.p.s.g.g.g.g.p.f.g.g.f.d.d.d.d.d.d.d.a.d.p.p.d.d.d.a.g.d.d.d.d.d.g.f.a.a.f.f.f.a.a.a.d.a.g.a.a.f.f.a.a.a.a.a.a.a.",
"f.p.p.p.p.p.g.g.f.g.g.g.g.g.g.f.d.d.d.d.d.g.d.d.a.a.a.p.f.d.d.f.a.a.a.d.a.a.a.d.a.f.s.a.u.a.a.a.a.a.a.a.g.f.a.d.d.a.a.a.a.p.a.a.",
"p.f.d.f.f.p.p.f.p.f.g.g.p.g.p.p.d.g.f.f.g.d.d.d.d.a.a.a.f.d.f.d.d.g.a.d.d.a.a.d.g.d.a.g.g.f.a.g.g.a.d.a.g.f.a.a.a.a.d.a.p.a.a.a.",
"f.p.f.f.g.g.p.f.p.p.p.d.s.p.f.g.g.d.f.p.d.d.a.d.f.a.a.f.a.p.p.a.p.a.a.a.d.d.d.f.k.a.f.f.a.a.u.f.f.a.a.a.g.d.a.a.a.a.d.a.a.u.p.a.",
"p.f.p.f.p.f.p.a.f.f.f.g.k.g.g.l.l.g.g.l.k.s.s.s.g.g.g.g.g.l.g.l.g.g.l.g.l.g.g.l.l.k.g.l.l.g.g.g.g.g.d.g.g.f.a.a.a.a.a.a.a.a.a.a.",
"p.p.f.p.p.f.p.g.g.g.p.f.f.a.a.g.k.d.g.g.g.d.a.d.g.d.d.a.d.g.d.g.d.g.g.d.d.d.d.g.f.g.f.f.g.s.f.f.f.g.d.d.d.f.a.a.a.a.a.u.u.a.a.p.",
"f.p.f.f.s.p.p.a.p.p.f.f.f.p.a.f.d.d.g.a.a.a.p.p.a.a.a.a.f.d.p.a.d.a.a.g.d.d.p.p.p.d.f.a.a.a.f.a.a.a.a.p.a.a.a.a.a.a.a.a.a.a.a.a.",
"p.f.f.p.f.f.a.f.p.p.p.p.f.f.d.d.a.g.a.d.a.f.d.a.d.p.p.d.a.a.p.f.g.d.a.a.p.d.d.d.a.a.g.f.a.d.d.a.a.a.a.a.a.d.a.p.a.a.a.a.a.f.f.r.",
"p.a.s.a.a.u.a.a.p.p.p.p.f.f.d.f.a.a.d.a.d.a.a.a.a.a.a.a.a.a.a.a.f.a.f.a.a.a.a.a.a.f.a.a.a.a.u.f.d.d.d.a.a.a.u.p.r.f.u.a.a.u.a.a.",
"d.d.a.a.s.s.s.u.p.p.p.f.p.d.d.f.d.a.a.a.a.a.a.p.a.d.a.d.a.a.a.a.a.a.a.f.a.a.p.a.a.a.a.a.a.f.f.d.d.g.a.a.p.a.f.f.a.a.a.a.a.a.a.u.",
"a.p.a.s.p.s.u.s.a.p.p.p.p.f.p.d.a.a.d.p.s.a.p.p.a.a.a.a.a.a.a.a.a.a.p.a.a.p.p.a.a.a.f.u.u.f.a.a.p.u.f.u.u.f.a.a.a.a.a.u.a.a.p.u.",
"d.p.a.a.a.u.s.u.p.f.f.f.d.d.p.p.p.a.a.d.a.a.p.p.a.f.d.a.a.a.a.a.p.a.f.a.a.a.a.a.u.p.p.f.f.a.a.f.f.f.f.u.p.a.a.a.a.a.u.a.a.a.p.f.",
"p.p.d.a.a.a.a.s.d.a.a.a.f.p.d.f.a.s.p.p.a.a.a.p.u.f.a.a.a.a.d.a.a.a.a.a.a.a.a.a.a.f.p.a.f.f.a.d.p.p.a.p.p.f.u.a.s.a.a.p.a.f.f.p.",
"p.d.a.a.d.a.s.p.a.a.a.a.p.p.p.p.a.a.p.d.a.a.a.a.g.a.a.a.a.a.a.a.a.a.a.a.p.a.a.u.p.a.u.a.a.u.p.f.p.u.f.u.u.p.f.a.a.a.a.a.a.u.f.u.",
"a.a.a.a.a.p.p.a.p.a.p.p.a.a.p.a.s.u.u.s.a.a.p.a.d.a.a.a.a.a.p.a.a.a.a.a.a.a.p.p.a.a.f.u.a.f.u.u.d.u.f.u.a.f.u.p.u.f.a.a.a.a.u.a.",
"p.a.d.d.d.d.a.a.p.a.p.a.a.a.a.p.u.s.u.s.a.a.p.d.a.u.a.a.d.a.u.p.a.p.a.a.f.g.a.a.g.u.p.f.u.p.u.p.p.p.f.f.a.u.f.p.a.u.a.a.a.f.u.a."
};
