/* XPM */
static char *Pictures__1_1712071377[] = {
/* columns rows colors chars-per-pixel */
"64 64 126 2 ",
"   c #3C3B3B",
".  c #403B3D",
"X  c #493A40",
"o  c #66384E",
"O  c #633F50",
"+  c #753553",
"@  c #4A4949",
"#  c #68555B",
"$  c #68635F",
"%  c #765160",
"&  c #686360",
"*  c #6F6866",
"=  c #736E6C",
"-  c #853359",
";  c #893C60",
":  c #993162",
">  c #A92F68",
",  c #B43170",
"<  c #B43A73",
"1  c #BC3877",
"2  c #CC377D",
"3  c #C63D7D",
"4  c #C8397D",
"5  c #8C5769",
"6  c #8D5E70",
"7  c #AF4678",
"8  c #A0577B",
"9  c #B4517E",
"0  c #85717B",
"q  c #737B81",
"w  c #CD3D84",
"e  c #D03780",
"r  c #D13D83",
"t  c #E53D8E",
"y  c #B45981",
"u  c #BE5E8B",
"i  c #BF618C",
"p  c #D7418B",
"a  c #DC428B",
"s  c #C55D8F",
"d  c #D14F91",
"f  c #CB5990",
"g  c #D75D9A",
"h  c #E5408F",
"j  c #E64492",
"k  c #E44D96",
"l  c #E84E97",
"z  c #E84F99",
"x  c #E6589C",
"c  c #E95E9F",
"v  c #C36A92",
"b  c #C86A97",
"n  c #D56399",
"m  c #CB7BA0",
"M  c #D275A3",
"N  c #D67DA8",
"B  c #DE79AB",
"V  c #E662A1",
"C  c #E968A6",
"Z  c #EC6EAA",
"A  c #E372AA",
"S  c #EC74AB",
"D  c #EE7EAF",
"F  c #3CB5D1",
"G  c #68BBCC",
"H  c #8B8282",
"J  c #9D8088",
"K  c #968C8B",
"L  c #B4899A",
"P  c #A19897",
"I  c #A59A9A",
"U  c #A69CA1",
"Y  c #CF80A4",
"T  c #C68BA5",
"R  c #CC89AA",
"E  c #DC81AD",
"W  c #D886B1",
"Q  c #D38EB1",
"!  c #CF93B1",
"~  c #DB98B8",
"^  c #EE8EBD",
"/  c #E397BC",
"(  c #F090BB",
")  c #F1A3B2",
"_  c #F3AFBE",
"`  c #EE97C1",
"'  c #EE9CC3",
"]  c #F196C1",
"[  c #F29EC6",
"{  c #CFA6C9",
"}  c #DEAEC4",
"|  c #C5BDD6",
" . c #E1A5C0",
".. c #F3ABCD",
"X. c #E5B5CB",
"o. c #E7BBCF",
"O. c #E9B8CE",
"+. c #F4B3C2",
"@. c #F2B0CF",
"#. c #E8BFD0",
"$. c #F3B1D0",
"%. c #A8D7E6",
"&. c #D4C6CA",
"*. c #EBC5D5",
"=. c #E9CAD7",
"-. c #F8C5DC",
";. c #F7CDDD",
":. c #F8CDDE",
">. c #E9D1DB",
",. c #E7D9DF",
"<. c #F7D0DF",
"1. c #F8D0DF",
"2. c #F9CEE0",
"3. c #EDDDE4",
"4. c #F7D4E4",
"5. c #F9D4E5",
"6. c #F6DBE6",
"7. c #F9D8E7",
"8. c #FAD7E8",
"9. c #F7DDE8",
"0. c #FAD9E8",
"q. c #DDE3ED",
"w. c #F5E3EA",
"e. c #FCE3ED",
"r. c #FDE6F0",
"t. c #FCE8F0",
/* pixels */
"4.5.5.2.2.5.5.2.5.5.8.2.8.5.2.5.5.5.5.5.5.2.5.5.5.5.5.5.5.5.5.4.5.5.2.5.5.5.5.5.5.8.5.5.5.8.5.8.8.8.5.5.5.5.5.4.5.5.5.5.5.4.2.5.",
"5.5.5.2.2.5.2.5.2.2.5.5.5.5.5.5.5.5.5.5.4.4.5.5.2.5.2.5.5.5.5.8.5.5.5.5.5.8.5.8.5.5.8.5.5.5.5.8.5.5.5.5.5.5.5.4.5.5.5.5.2.5.5.8.",
"5.5.2.2.2.5.5.2.8.2.8.5.5.5.5.2.5.2.5.2.5.5.5.2.5.2.2.5.5.8.8.5.5.5.2.2.5.5.5.5.8.8.8.8.7.8.5.5.5.5.8.5.5.5.2.5.5.5.5.5.5.5.5.5.",
"5.5.2.5.5.5.5.5.8.2.8.5.5.8.5.5.5.2.5.5.4.5.2.5.5.5.2.5.2.5.4.5.4.5.5.5.5.5.5.5.5.5.5.5.4.5.5.5.5.5.5.5.5.5.5.5.5.5.5.5.5.5.5.5.",
"2.2.5.2.5.2.5.5.5.8.5.5.2.8.2.8.5.5.5.5.8.8.4.4.5.5.5.5.5.2.5.5.5.5.5.5.5.5.8.5.5.2.5.5.5.8.5.5.5.5.5.5.5.5.5.5.5.5.5.5.5.5.5.5.",
"5.5.5.5.5.2.2.5.5.8.-.5.5.2.8.2.5.5.2.5.5.5.5.4.5.2.2.5.5.5.5.5.5.5.5.5.8.5.4.5.5.5.5.5.5.5.5.5.5.8.5.5.5.5.5.5.5.5.5.5.5.5.5.5.",
"5.5.5.2.2.5.5.5.-.8.-.8.5.5.2.8.2.5.2.5.5.5.4.8.5.5.5.5.5.5.5.5.5.5.5.5.5.5.5.5.5.5.5.5.5.5.5.5.5.5.5.4.5.5.5.5.5.5.5.5.5.5.5.5.",
"5.2.2.5.5.2.5.5.2.5.5.5.5.2.8.2.5.5.5.5.5.5.4.8.5.5.2.5.5.5.5.5.5.5.8.5.5.8.8.5.5.5.5.8.5.5.5.5.5.5.4.2.5.5.5.5.5.5.5.5.5.5.5.5.",
"5.5.5.2.2.2.5.2.8.2.5.5.2.5.5.8.5.5.5.4.5.5.5.5.5.2.2.5.5.5.5.2.5.5.5.5.5.5.5.5.8.5.5.8.5.8.8.5.5.5.5.5.5.5.5.5.5.5.5.5.5.5.8.5.",
"2.2.5.5.5.5.5.5.5.8.5.5.2.5.2.5.5.5.5.5.5.5.5.5.8.5.8.5.5.5.5.5.8.5.5.5.5.5.5.5.5.5.5.5.5.5.5.5.5.5.5.2.5.5.5.5.5.5.5.5.5.5.5.5.",
"5.2.5.2.5.5.5.5.5.8.5.5.2.2.5.5.2.5.5.5.2.5.5.2.5.5.5.5.5.5.5.5.5.5.8.5.4.5.4.5.5.5.5.5.5.8.5.5.5.5.2.5.5.5.5.5.5.5.5.5.5.5.5.5.",
"5.5.5.2.5.5.5.5.2.2.2.] +.+.....+._ +.+.+.+.+._ +.+._ +.+.+.+._ +......._ +.+.+._ +.+.+.+.+.+._ ..+.+.+.+.5.5.5.5.5.5.5.5.5.5.5.",
"2.5.5.5.5.5.2.5.2.5.2._ 2.2.2.2.:.:.:.:.:.-.:.:.:.5.2.2.:.2.:.5.:.:.:.:.:.:.:.;.2.2.5.2.2.2.:.2.:.:.2.5.+.2.5.5.5.5.2.5.5.5.5.5.",
"5.2.5.2.2.5.5.2.5.5.2.+.2.5.5.2.5.5.5.5.5.5.2.5.2.5.5.5.5.5.5.5.5.5.5.5.4.5.5.5.5.5.5.8.5.5.5.5.5.5.5.2.+.5.5.5.5.5.5.5.5.5.5.5.",
"8.2.5.2.5.5.5.5.5.5.5.+.-.5.5.5.5.5.5.5.5.5.5.5.8.5.5.5.5.5.5.5.5.5.8.5.5.5.5.5.5.5.5.5.5.5.5.5.5.5.5.2.+.5.5.5.5.5.5.5.8.5.2.5.",
"8.2.8.5.5.5.2.2.5.5.5.+.2.5.5.5.8.5.5.5.5.5.5.8.5.5.5.5.5.8.5.5.5.5.8.5.5.5.8.4.5.5.5.5.5.5.5.5.5.5.5.4...5.5.8.5.5.5.5.8.5.5.5.",
"2.8.2.5.5.2.5.5.5.5.5.+.2.5.5.5.5.5.5.5.5.5.8.5.5.4.5.5.5.5.5.8.8.5.5.5.5.5.8.8.5.5.5.5.5.5.5.5.5.5.5.5.+.5.5.8.5.7.5.2.5.5.5.5.",
"5.5.5.8.5.5.5.5.2.5.5.+.:.5.5.5.5.5.5.5.2.5.5.5.5.4.5.5.5.5.5.5.8.8.5.5.5.5.5.5.5.5.5.5.5.5.5.5.5.5.5.2.+.5.5.5.5.4.5.5.5.5.5.5.",
"2.5.5.2.5.5.5.2.5.2.5.+.2.2.5.5.5.5.5.5.5.5.8.5.5.5.5.5.5.5.5.5.4.8.5.5.5.8.8.5.5.5.5.8.5.5.5.5.5.5.5.5.+.5.5.5.4.2.5.5.5.5.5.5.",
"8.5.5.8.5.5.5.5.5.5.2.+.:.5.5.8.5.5.5.2.5.8.5.5.5.7.7.5.5.5.5.5.5.8.5.5.5.5.5.8.5.5.5.5.5.5.5.5.5.5.5.2.+.5.5.5.5.5.5.5.5.5.2.5.",
"2.2.5.5.5.5.5.5.5.5.5._ :.5.5.5.5.5.5.5.5.5.5.5.5.7.7.5.5.5.8.5.4.5.5.4.8.5.8.5.5.5.5.5.5.5.5.5.5.5.5.:.+.5.5.5.5.5.5.5.5.5.5.5.",
"5.5.5.5.8.5.5.5.5.5.5._ :.5.5.2.2.5.2.5.8.5.5.5.7.5.8.e.e.e.5.5.8.4.5.4.5.8.2.8.5.5.5.5.5.5.5.5.5.5.5.5.+.5.5.5.5.5.2.5.5.5.5.5.",
"5.5.5.5.5.5.5.8.5.5.5.+.2.5.5.5.5.2.2.8.8.2.5.5.7.7.0.6.v *.9.8.5.5.4.5.5.5.5.5.5.5.5.5.5.5.4.5.5.5.5.2._ 5.5.5.5.5.5.5.5.2.5.5.",
"5.5.5.5.5.5.5.5.4.5.5.+.2.5.5.5.2.5.5.8.8.8.r.8.8.5.4.' 3 N e.6.5.5.5.8.5.5.8.5.2.2.5.2.2.5.5.5.5.5.8.5.+.5.5.5.5.5.5.5.5.5.5.2.",
"8.5.5.8.4.5.5.5.5.5.8...:.4.5.5.5.5.5.5.4.8.2.l l l j t g  .e.8.8.5.5.8.5.5.5.5.5.5.2.5.5.2.5.5.5.5.5.5.+.5.5.5.5.5.5.5.5.5.5.5.",
"5.5.5.5.8.8.4.5.5.8.4...4.5.5.5.5.5.8.5.5.8.0.x t t t t p M 9.0.5.4.5.5.5.8.5.5.2.5.5.8.5.8.5.5.8.8.5.2.+.2.2.2.2.5.2.5.2.5.5.5.",
"5.5.8.5.5.8.8.8.7.7.4.+.:.5.8.5.5.5.5.5.5.5.e.Z t h c t a n X.t.8.8.8.5.5.5.5.4.5.5.5.5.5.5.5.5.5.8.5.5.+.2.5.5.5.5.5.5.5.2.2.5.",
"5.5.8.5.5.8.4.5.4.7.7.+.4.5.5.5.5.5.5.8.8.0.9.V t z ] S t d N 0.0.8.5.8.8.5.5.4.2.5.5.5.5.5.5.8.5.5.8.2.+.5.8.5.5.5.5.2.5.5.2.5.",
"5.5.5.5.5.5.4.5.5.5.4.+.2.8.5.8.8.5.5.5.5.0.o.4 t S D S t t M  .r.0.5.5.5.4.5.5.5.5.5.5.5.5.5.5.5.2.5.2.+.5.8.5.8.2.8.8.5.2.5.5.",
"5.8.5.5.8.8.5.5.2.5.8.+.4.7.8.5.5.5.5.5.8.r.m , t h l t t t r Q X.r.0.8.5.5.5.5.5.8.2.5.5.5.8.2.2.5.5.2.+.5.5.5.2.5.2.8.5.5.5.5.",
"5.5.5.5.5.5.5.5.5.5.8.+.2.8.4.5.5.5.5.5.8.9.s > 2 t t t t t j W ! } 9.r.0.8.5.2.5.5.5.2.5.5.5.5.5.5.5.2...2.2.5.8.2.5.2.5.2.5.5.",
"5.8.5.8.5.8.5.8.8.8.8.+.4.4.5.4.5.8.8.5.5.e.i > > 2 t t t t Z [ A Q ! O.4.e.e.8.5.5.2.5.2.5.5.5.5.5.5.2...2.8.8.2.8.2.5.5.5.5.5.",
"4.4.7.0.8.0.8.8.8.8.8.+.:.8.8.4.5.6.4.5.5.e.Y > > > , 2 t j ^ ^ S ' g d M R @.9.r.5.5.2.5.5.5.5.5.5.5.2.+.2.5.5.2.5.2.5.4.5.8.4.",
"8.7.8.8.7.8.8.7.4.7.5.+.:.6.8.4.5.8.5.8.5.7.>.% + - : > 1 x ' S ` ` t t t t ..8.2.e.5.5.5.5.5.5.5.5.8.2.+.2.5.5.5.2.5.5.5.2.5.5.",
"7.7.0.0.7.7.5.5.5.8.6.+.4.4.8.5.5.5.7.5.5.8.,.@     . X o 8 Q C ` B t t t t t [ $.r.2.5.5.5.5.5.8.5.5.2.+.5.4.5.5.5.2.4.2.5.5.2.",
"4.7.0.0.8.4.4.5.5.8.8.+.<.8.5.7.5.8.7.5.7.0.,.@           U U 0 6 y < w w w d ~ E r.5.5.5.5.5.5.8.5.8.2.+.5.5.5.5.5.5.2.5.5.5.5.",
"0.7.8.0.7.7.7.4.5.8.8.+.4.5.5.9.5.6.7.8.7.8.3.= $ $ & $ $ K I I P H * * & & & & H t.8.8.5.5.5.8.5.8.5.2.+.5.5.5.5.5.5.2.5.5.5.5.",
"4.4.7.7.8.8.7.7.7.6.9.+.4.8.8.8.8.8.4.7.8.8.t.&.6 9 T J K 3.w.w.w.w.3.= 5 y L q G q.9.8.5.5.5.5.5.5.8.2.+.5.5.5.5.2.5.5.5.4.5.2.",
"8.4.4.0.8.0.0.8.8.0.8.+.5.8.8.6.7.8.7.7.8.7.0.;.3 w 7 / =.r.8.8.0.0.r.! e f u { F %.r.5.5.5.5.5.5.5.8.5.+.5.5.4.5.5.5.2.8.5.4.4.",
"8.7.7.8.8.7.0.6.8.0.9.+.4.7.7.8.8.8.7.7.5.5.e.#.2 ; # b 8.e.5.5.7.8.e.R t O % B | r.8.5.5.5.5.5.5.5.5.2.+.2.5.2.2.5.5.5.5.5.2.5.",
"8.4.4.0.0.4.9.0.0.7.7.+.2.7.6.8.6.8.4.8.8.5.8.0.n r < k 2.9.5.5.4.5.9.*.a < < z e.8.5.5.5.5.5.5.5.5.5.5.+.5.5.5.5.5.5.8.5.5.2.2.",
"0.8.0.8.4.8.8.0.7.7.7.+.4.0.8.8.8.8.5.7.8.5.8.e.9...] -.r.8.8.5.4.5.5.r.-.( ^ :.e.4.5.5.5.5.5.5.5.5.5.:.+.5.5.5.2.5.5.5.5.5.5.5.",
"7.4.0.4.0.0.4.0.7.4.0.+.2.8.0.9.6.0.0.0.5.5.5.8.0.r.r.9.8.8.5.5.5.8.8.8.9.r.r.9.5.2.5.5.2.5.5.5.2.5.5.5.+.5.5.5.5.5.5.5.5.5.5.5.",
"0.7.0.0.0.4.0.0.7.7.0.+.5.0.8.0.0.0.0.0.8.8.4.7.8.8.8.7.8.5.8.8.8.5.8.8.8.5.8.5.5.5.5.5.5.5.5.5.5.5.5.2...5.5.5.5.5.5.5.5.8.5.5.",
"0.0.9.0.0.0.0.0.8.0.7.+.4.7.0.0.0.0.8.7.8.7.4.7.8.6.6.7.8.4.4.8.8.8.5.5.5.5.5.8.5.5.5.5.8.5.5.5.5.5.5.5.+.5.5.5.5.5.5.8.5.5.5.5.",
"4.0.0.7.0.9.9.0.4.7.8.+.4.7.0.0.7.7.8.8.7.8.7.4.8.0.7.7.7.7.8.7.7.5.5.8.5.8.5.8.8.5.7.8.8.7.5.5.5.5.5.5.+.5.5.5.5.5.8.5.5.5.5.5.",
"8.7.0.4.4.0.0.0.0.0.0.+.;.4.7.0.7.7.7.4.7.8.7.4.8.0.0.8.7.8.8.6.8.8.5.8.5.8.5.5.8.8.5.8.5.5.5.5.5.5.5.4...5.5.5.5.8.5.5.5.5.8.5.",
"4.4.8.8.8.4.8.8.0.0.0.+.5.4.7.0.0.7.7.7.8.8.7.7.8.0.8.6.4.8.6.8.4.8.5.8.5.8.5.8.8.8.5.5.5.5.5.5.5.5.5.:...5.8.5.5.8.5.5.8.5.5.5.",
"8.8.4.0.8.5.4.6.8.6.0.+.2.8.4.8.8.8.8.0.9.7.7.7.7.7.7.5.4.7.8.6.7.7.8.8.5.7.7.8.8.8.5.5.5.5.8.5.8.5.5.5.+.5.5.8.8.7.5.5.8.5.5.5.",
"8.4.4.8.5.8.8.8.7.8.8.+.4.8.8.8.7.7.0.0.7.7.7.5.7.5.5.7.7.8.5.8.5.7.5.7.7.5.7.8.7.8.8.5.5.8.5.5.5.5.5.5.+.7.5.5.7.5.5.5.5.5.5.5.",
"4.8.4.0.8.4.4.8.7.8.8.+.:.8.6.4.7.0.0.7.8.5.8.7.5.5.5.5.5.7.8.5.5.8.5.5.5.7.5.5.8.7.5.8.8.8.5.5.5.5.5.1.+.7.5.5.5.4.7.5.5.4.5.5.",
"8.4.8.8.6.8.4.4.4.4.4.+.5.4.4.4.1.4.5.1.4.4.1.5.5.:.:.4.:.4.<.4.1.4.:.:.4.4.5.6.1.5.:.4.2.2.2.2.1.5.:.5.+.5.7.5.5.5.7.5.4.4.5.5.",
"4.5.8.4.0.8.5.8.8.5.8.) +.+.+.+.+.+.+.+.+._ +._ _ +.+.+.+.+.+.+.+.+.+.+.+.+.+.+.+.+.+.+.@.+.+.+.+.+.+.+._ 5.5.5.5.5.5.5.5.5.5.5.",
"4.8.4.4.8.4.4.8.8.7.7.8.8.5.7.0.7.7.9.7.0.8.8.5.5.5.5.5.7.7.5.7.7.5.8.8.6.4.8.8.0.7.0.0.8.4.5.8.5.5.5.7.5.8.5.5.5.5.5.5.2.5.5.5.",
"8.8.4.4.7.4.5.8.5.7.5.5.5.5.7.7.7.7.7.7.0.8.5.5.5.7.5.5.8.7.5.7.7.7.7.8.8.8.6.5.4.7.0.8.8.8.8.5.5.5.5.5.7.5.5.5.5.5.5.5.5.5.2.5.",
"4.8.8.4.7.8.5.5.5.5.5.5.5.6.7.7.7.7.5.7.7.8.8.5.8.5.5.5.5.5.5.7.8.5.7.7.8.5.5.5.6.7.8.7.5.8.8.5.5.8.5.5.5.5.5.5.2.5.5.5.5.5.5.2.",
"5.6.5.5.5.5.5.5.5.5.1.5.5.5.7.7.5.7.7.7.7.5.5.5.5.5.7.5.5.5.5.8.8.5.7.5.5.5.5.5.5.5.5.8.5.5.5.5.8.5.5.5.8.5.5.5.5.2.5.5.5.2.5.5.",
"5.5.5.6.1.5.6.5.4.5.7.5.7.7.7.7.8.5.5.5.5.5.5.7.8.5.7.8.5.5.5.5.5.5.5.8.5.5.5.5.5.5.5.5.5.5.8.8.8.8.5.5.5.5.5.5.5.5.5.2.5.5.5.5.",
"5.5.6.5.0.6.6.6.7.5.7.5.4.5.5.7.7.5.8.5.7.7.5.1.5.5.5.5.8.5.5.5.5.5.5.7.5.5.5.5.5.5.5.5.5.5.5.5.4.8.5.5.5.5.5.5.5.5.5.5.5.5.5.2.",
"5.5.5.5.5.5.1.5.4.5.7.7.7.7.4.5.5.5.5.5.7.1.1.7.5.5.5.5.8.5.5.5.5.5.5.5.5.5.5.5.5.4.4.5.5.5.5.8.5.5.5.5.2.5.5.5.5.5.2.5.5.5.5.5.",
"5.5.5.5.5.5.1.5.5.5.5.5.7.4.5.6.5.0.5.6.5.5.1.5.5.5.5.5.8.5.5.5.5.5.5.5.4.5.5.5.5.5.5.5.5.5.5.5.5.4.5.5.5.5.5.5.8.5.5.5.5.5.5.5.",
"5.0.5.5.5.5.6.6.7.5.5.5.5.5.5.5.5.5.5.5.5.5.6.5.5.5.5.5.5.0.5.5.5.5.5.5.5.5.5.4.5.5.5.5.5.5.4.4.4.5.5.5.5.5.5.5.8.5.5.5.5.2.5.5.",
"5.5.0.5.5.6.1.6.1.7.4.5.5.5.5.5.6.5.5.6.1.8.1.6.6.0.5.5.5.5.1.5.5.1.5.5.8.5.4.5.5.5.5.5.5.5.5.2.5.5.5.5.5.5.5.2.5.5.5.5.8.2.5.5.",
"5.5.5.0.5.0.6.1.5.1.4.5.5.5.4.4.1.5.1.5.5.5.5.5.5.1.1.5.6.1.5.1.7.7.5.5.5.8.5.5.8.2.5.5.5.5.5.2.5.5.5.5.5.5.5.5.2.5.5.5.5.5.5.5."
};
