/* XPM */
static char *unlock_exit1712085562[] = {
/* columns rows colors chars-per-pixel */
"64 64 225 2 ",
"   c #2C0B15",
".  c #340C18",
"X  c #2E121B",
"o  c #3D262E",
"O  c #581B2A",
"+  c #6E1922",
"@  c #492832",
"#  c #4C2A33",
"$  c #542E3A",
"%  c #593841",
"&  c #783347",
"*  c #72354A",
"=  c #6A4651",
"-  c #7A5962",
";  c #951F31",
":  c #88242D",
">  c #8F2F37",
",  c #922D35",
"<  c #95333A",
"1  c #98353A",
"2  c #9C363C",
"3  c #A1383D",
"4  c #9E2844",
"5  c #8C3645",
"6  c #953244",
"7  c #983A44",
"8  c #9C3C4C",
"9  c #8B3450",
"0  c #A23D43",
"q  c #A03D4A",
"w  c #A32A52",
"e  c #A33E62",
"r  c #D33E72",
"t  c #8E434C",
"y  c #9B424A",
"u  c #884455",
"i  c #9C4553",
"p  c #984B5B",
"a  c #A5444B",
"s  c #A9464C",
"d  c #A5494E",
"f  c #AA4A4D",
"g  c #AB4C53",
"h  c #A6485A",
"j  c #B24959",
"k  c #AD525A",
"l  c #B2545B",
"z  c #8E4F65",
"x  c #8E566D",
"c  c #965663",
"v  c #B74464",
"b  c #A75968",
"n  c #B85667",
"m  c #AC5B75",
"M  c #8A6D78",
"N  c #B7616D",
"B  c #A46776",
"V  c #B76B7C",
"C  c #CB4D74",
"Z  c #DC4B7A",
"A  c #C75874",
"S  c #D4577C",
"D  c #E34E7E",
"F  c #E9597D",
"G  c #C8677B",
"H  c #967E88",
"J  c #BF6C86",
"K  c #AB7A86",
"L  c #B77B88",
"P  c #CA5B89",
"I  c #DB5C88",
"U  c #EF5A8C",
"Y  c #C76A85",
"T  c #CC6A8C",
"R  c #D86689",
"E  c #C4788B",
"W  c #DA738D",
"Q  c #CD6993",
"!  c #D76796",
"~  c #DD6B95",
"^  c #C87994",
"/  c #D77294",
"(  c #DD749D",
")  c #E6648E",
"_  c #E66A97",
"`  c #EB6699",
"'  c #EC6B9D",
"]  c #F56699",
"[  c #F26A9C",
"{  c #E57799",
"}  c #F0779A",
"|  c #DD72AA",
" . c #F36EA2",
".. c #EB73A3",
"X. c #E478A4",
"o. c #EC7CAB",
"O. c #F371A3",
"+. c #F876A6",
"@. c #F275AA",
"#. c #F575AA",
"$. c #F47AAB",
"%. c #F97CAE",
"&. c #A4878E",
"*. c #A78791",
"=. c #B58895",
"-. c #AD939C",
";. c #BA949D",
":. c #BA9EA6",
">. c #BCA2AA",
",. c #C88699",
"<. c #D8869B",
"1. c #E38599",
"2. c #C98DA1",
"3. c #DD85A3",
"4. c #DB8BAA",
"5. c #C493A3",
"6. c #C699A8",
"7. c #DB96A9",
"8. c #DE88B5",
"9. c #DA99B6",
"0. c #E887A9",
"q. c #F282AD",
"w. c #F48AAB",
"e. c #E394AE",
"r. c #E696AC",
"t. c #EB8BB4",
"y. c #F482B3",
"u. c #FB82B3",
"i. c #F18BB4",
"p. c #FD8AB7",
"a. c #F48DBC",
"s. c #FB8CBD",
"d. c #E698B8",
"f. c #EC9DBA",
"g. c #F492B7",
"h. c #F394BD",
"j. c #FC92BF",
"k. c #C3A7AC",
"l. c #C7A9B4",
"z. c #D6A6B6",
"x. c #C9B6BB",
"c. c #D3B6BD",
"v. c #ECAAB3",
"b. c #E4A3BC",
"n. c #E8A7BB",
"m. c #F1A6BC",
"M. c #D094D3",
"N. c #FC8EC1",
"B. c #E89AC3",
"V. c #F393C4",
"C. c #FC93C2",
"Z. c #F39DC3",
"A. c #FC9BC4",
"S. c #F69BC9",
"D. c #FB9DCB",
"F. c #DBA5C7",
"G. c #CCB8C3",
"H. c #D4BDC5",
"J. c #D6BDC6",
"K. c #EEA5C3",
"L. c #E7ABC5",
"P. c #EDACC4",
"I. c #F3A3C4",
"U. c #F7A9C5",
"Y. c #F4A5CA",
"T. c #FAA3CE",
"R. c #F4ABCC",
"E. c #F9A9CF",
"W. c #E6B7C7",
"Q. c #F4B4C9",
"!. c #F5B3CD",
"~. c #FCB3CD",
"^. c #ECAEDB",
"/. c #FBA5D1",
"(. c #FBACD4",
"). c #FBAFD9",
"_. c #E6BAD1",
"`. c #EDBDD3",
"'. c #F6B3D2",
"]. c #FAB2D5",
"[. c #F4BBD3",
"{. c #F9BDD6",
"}. c #FBB3DA",
"|. c #F5BDDA",
" X c #FBBBDE",
".X c #FCBCE1",
"XX c #CEC4C6",
"oX c #CEC8C8",
"OX c #D2C1C4",
"+X c #D5C2C8",
"@X c #DCC5CC",
"#X c #D6C7D3",
"$X c #ECC7D1",
"%X c #E9CAD7",
"&X c #F6C7D6",
"*X c #F5C5DD",
"=X c #FBC5DB",
"-X c #F6C9DE",
";X c #FCCBDE",
":X c #F4D0DD",
">X c #F8D7DD",
",X c #EFC0E0",
"<X c #F5C7E0",
"1X c #FCC2E2",
"2X c #F6CCE2",
"3X c #F8CEE2",
"4X c #FCCBE9",
"5X c #ECD9E2",
"6X c #F7D2E4",
"7X c #F9D4E5",
"8X c #F5DAE6",
"9X c #F9D8E7",
"0X c #F7D5E9",
"qX c #FAD5E9",
"wX c #F7DCEA",
"eX c #FADBE9",
"rX c #FFD5F2",
"tX c #FED9F3",
"yX c #EAE5EA",
"uX c #FBE3ED",
"iX c #F9E4EC",
"pX c #FDE6F0",
"aX c #FDEBF3",
"sX c #FEF1F6",
"dX c #FFF4F8",
/* pixels */
"6X7X7X3X;X7X7X7X;X6X7X7X7X7X4X7X7X7X7X7X7X7X7X7X7X7X7X7X7X7X7X9X6X7X7X3X7X7X7X7X7XqX9X7X7X9X7XqX9XqX7X7X7X7X7X7X7X7X7X7X7X7X7X7X",
"6X7X7X3X7X7X7X3X3X6X7X7X7X7X;X7X7X3X3X7X3X7X7X3X7X3X7X7X7X7X9X7X7X7X7X3X7X7X7X9X7X7X7X7X9X9X7X7X9X7X7X7X7X7X7X7X7X7X7X7X7X6X7X7X",
"7X7X3X7X3X3X7X7X7X3X7X7X7X7X7X7X3X7X3X7X7X7X7X7X3X6X3X7X7X7X9X7X6X7X7X7X7X7X7X9X7X9X7X7X9X7X7X7X7X7X7X7X7X7X7X7X;X7X9X7X7X7X7X7X",
"7X7X;X3X7X7X7X7X7X7X7X7X7X7X7X7X7X7X7X7X7X6X3X7X7X6X;X7X6X7X7X7X7X7X7X7X7X6X9X9X9X7XqX7X6X7X7X7X7X7X7X7X7X7X7X7X9X7X7X7X7X7X7X7X",
"7X3X7X3X7X3X7X7X7X7X7X3X7X3X3X7X7X7X7X7XqX9X6X6X7X7X7X7X7X;X7X7X7X7X7X7X7X7X7X7X7X7X7X7X7X7X7XqX7X7X7X7X7X6X7X7X7X7X7X7X7X7X7X7X",
"7X7X7X7X;X7X7X7X7X7X3X7X7X7X7X7X7X7X7X3X6X7X9X9X7X7X3X7X7X7X7X7X7X7X7X7X7X7X7X7X7X7X7X7X7X7X9X7X7X7X7X7X7X7X7X7X7X7X6X7X7X7X7X7X",
"7X7X3X3X7X7X7X7X3X7X7X7X7X7X7X3X7X3X7X7X7X7X7X8X7X7X7X7X7X7X7X7X7X7X7X7X9X7X7X7XqX7X7X7X7X7X7X7X7X7X7X6X7X7X7X6X7X7X7X7X7X7X7X7X",
"7X3X3X7X7X;X7X7X7X7X7X7X7X7X7X7X7X7X7X7X7X7X7X9X7X7X7X7X7X7X7X7X7X7X9X7X7X7X9X7X9X7X7X9X7X9XqX7X7X7X7X6X7X7X7X7X7X7X7X7X7X7X7X7X",
"3X7X7X6X9X9XqX9X7X7X9X7X7X7X9X7X7X7X7X7X9X7X8X9X9X9XwX7XqX7X7X7X9XqX7X9X7X8X9XeXeX9X9X9XqX9X9XqX7X9X9X7X7X9X9X9X9X7X9X7X9X7X7X7X",
"7X3X7X6X9XuXpXeX9XeXaXuX9X9XuXeX9X9X7X7XwXuXaXpXpXuX9X7X7X7XwX7X9X9X9X9X7X7X9XeXaXpX9X9X9X9XeXuXeX9X7X9X7X7X9X9X9XpXeXqX9X6X7X7X",
"3X7X7X6X9XpXdXuXeXuXdXaXeX9XaXuX9X9X7X7XqXpXdXaXpXdXuXwX8XeX0X7X9X9X9X9XwXqXeXeXdXaXeXeX9XeX9XaXuX9XqX9X9X7X9XeXuXdXuX9X7X7X6X7X",
"3X7X9X6X9XuXdXeX9XeXsXaXeXeXuXuXqX7X7X9X9XuXdXuXuXdXpXeXeXuXpXwX9X9XeXuXuXuXuXwXaXaXpXpXeX9XuXuXuX9X9X9XpXuXwXeXuXsXuX9XqX7X7X7X",
"7X7X7X7X7XuXdXpXeXiXdXpXeXuXsXuX9X9X9X9X7XuXsXaXpXdXuXeXpXaXaXsXeXeXpXsXaXdXaXeXsXdXsXsXaX9XeXdXaX9XpXaXaXpXaXeXeXsXuX9X7X7X7X7X",
"3X7X6X7X9XpXdXaXaXaXdXaXuXeXsXpX9XqX7X9XwXuXdXaXaXsXpXiXaXaXpXsXpXeXeXdXaXaXaXeXsXaXuXaXaXuXeXsXaX9XpXdXuXaXsXeXuXaXuX9X9X7X7X7X",
"7X7X7X7X9XuXdXuXiXuXsXaXeXuXsXpXwX9X9X9XwXuXdXuXuXaXsXuXpXaXaXdXpXeXuXaXuXwXeXwXaXaXiXpXsXiX9XaXaXeXaXsXpXaXaXeXeXpXeX9X9X7X7X7X",
"7X7X7X7X9XpXdXuXeXeXsXaXeXeXsXpX9X9X9XqXwXuXdXpXeXaXdXiXsXpXaXdXuXeX9XdXpX7X7XwXaXaX9XpXsXeX9XaXpXeXaXaXeX9XwX9XeXuXeX7X9X7X7X7X",
"3X7X7X;X9XpXdXuX9XeXdXaX9XeXsXaX9X9X7X9X7XpXdXaXpXsXpXwXaXaXaXsXaXwXwXsXpXqX0XeXaXaXuXsXuX7XwXsXaX8XeXaXpXpXuX0XwXaXeX9X6X7X7X7X",
"7X7X7X7X7X9XuXeX0XeXpXpXeXwXuXeX9X7X9X9X6XeXuXuXpXwXwXwXeXaXiXtXiX0X0XpXeX6X6X0XeXwXuXwX0X3X6XwX0X2X3X9XeXeXwX6X7XuX9X6X7X9X7X7X",
"3X7X7X7X6X6X6X7X3X3X6X0X0X6X6X6X9X6X7X3X6X7X9X7X0X0X0X0XqX6X6X0X6X6X0X6X6X6X2X2X3X6X6X<X<X<X-X2X2X<X*X3X3X6X3X3X6X3X6X6X6X4X6X7X",
"7X7X7X7X0X3X6XqX0X2X2X6X3X3X3X6X7X7X-X2X3X3X2X6X2X6X2X4X3X6X6X6X6X6X4X2X<X<X<X*X|.<X2X*X2X<X-X<X<X<X3X<X2X2X3X2X-X6X6X7X6X7X7X7X",
"3X7X7X7XqX7X7X2X7X6X6X6X<X2X<X<X<X<X*X<X*X2X<X0XwX6X<X<X6X2X6X3X<X2X2X2X6X2X<X*X<X6X6X0X6X3X<X<X<X2X<X<X<X2X<X<X*X-X6X3X6X7X7X7X",
"6X7X7X6X7X7X7X7X3X6X3X2X3X3X4X3X2X2X3X2X0X3X0X-X3X6X2X<X<X*X4X2X4X2X0X2X<X2X2X<X<X<X2X3X0X7X<X-X*X-X<X2X<X2X6X2X2X-X;X3X:X7X7X7X",
"7X7X9X7X7X7X7X7X7X6X6X4X3X7X3X3X*X|.&X*X3X*X2X2X*X3X`.<X<X<X2X6X<X<X<X2X<X3X*X*X3X*X<X2X*X-X*X3X2X*X2X2X2X-X<X<X2X-X3X2X6X;X7X3X",
"7X7X7X7X7X7X7X7X6X6X6X9X7X9X7X7X<X2X-X-X4X3X2X2X2X3X<X*X|.|.|.*X*X<X|.<X*X2X<X<X2X|.<X2X*X3X*X*X*X*X2X2X<X<X*X*X3X-X-X;X3X3X3X7X",
"9X9X7X7X7X7X7X7X7X7XqX9X7X7X7X7X6X6X7X9X6X6X3X3X3X-X6X3X-X-X-X3X-X<X4X3X2X2X2X2X*X*X-X3X*X2X<X*X*X-X2X-X2X<X2X*X<X*X*X*X3X6X6X7X",
"7X7X7X7X9X7X7X7X7X7X9X9X9X7X7X7X7X6X9X7X6X;X;X-X6X6X6X*X-X3X3X6X6X2X2X6X3X3X2X<X*X-X2X2X*X3X3X3X3X-X3X6X*X*X<X*X<X*X-X-X3X-X3X6X",
"7X7X7XqX7XqX9X9X7X9X6X9X7X7X7X7X7X7X7X7X7X7X7X6X6X6X7X3X3X3X3X6X6X7X6X6X7X-X3X3X3X-X3X;X3X2X2X2X3X3X-X3X-X*X-X2X*X3X-X*X3X;X3X3X",
"7X7X7X7X7X7X9X7X7X7X9X9XqX7X7X7X7X7X6X7X7X7X7X7X6X6X9X6X3X6X3X6X6X6X7X6X9X6X3X*X-X3X3X3X2X2X2X3X3X3X3X3X-X2X-X3X2X*X3X2X-X6X;X6X",
"7X7X9X7X6X7X9X7X7X7X9X9X7X7X6X9X9X7X7X7X7X3X4X6X6X7X7X7X7X7X7XqX7X3X7X7X6X-X3X-X3X7X3X3X-X3X3X;X-X*X*X3X3X3X6X6X*X*X3X6X3X;X3X9X",
"7XqX7X7X7X7X7X7X7X7X7X7X9XqX9X7X7X7X7X6X7X7X7X7X7X7X7X7X7X7X7X7X7X3X7XqX6X6X7X6X6X7X3X3X6X3X3X3X-X-X-X3X6X3X3X3X3X3X3X3X3X6X3X3X",
"7X9X9X7X7X7XqX7X7X7X7X9XqX9X7X6X7X7X7X9X7X7X7X7X7X7X7X7X7XqX7X9X7X7X7X7X7X7X7X6X7X7X3X3X6X6X6X:X6X3X3X6X6X;X3X3X3X3X3X3X7X3X3X3X",
"7X7X9X9X7X9X9X7X7X9XqX9X9X9X9X6X7X9X9XqX9X7X7X7X7X7X7X7X7X7X7X9X7X7X9X7X9X6X3X7X7X9X6X3X6X6X6X7X6X6X3X3X6X3X3X6X3X3X;X;X7X6X6X3X",
"7X9X9X9X9X9X9X7X7X9X9X9X9X6X9X7X7X9X7X7X7X7X7X7X7XqXqX7X6X6X9X8X7X7XqX7X7X7X7X7X7X7X4X7X7X;X7X7X3X7X3X3X7X;X6X3X3X6X3X6X6X6X6X:X",
"7XqXeX9X9X9X7X9X9X9X6X9X7X9X9X6X7X7X9X9X7X7X7X7X7X7X7X7X9X7X9X7X7X7X7X7X9X9X7X7X7X7X7X7X7X7X7X3X7X7X7X7X3X7X7X3X7X3X7X6X-X6X6X3X",
"qX7X9XeXqX7X9X6X7X9X9X7XqX7XqX9X7X9X9X7X7X7X7X7X7X3X7X7X6X7X7X7X7XqX7X7X9X7X7XqX7X7X6X6X7X7X7X7X7X9X6X7X3X7X6X3X;X3X-X;X3X3X3X;X",
"9X9X9X9X9X9X9X7X7XqXqX9X9XwX9X9X7XqXqX7X9X9X7X7X7X9XeXeXuXeXuXiXuXeXeXuX9X7X7X7X:X6X6X4X7X7X7X7X9X7X7X6X7X3X7X6X-X3X6X3X6X3X6X9X",
"9X9X9X9X9X9X9X7X9X9XqXqX9X7XqX9X9XqX9X7X9X7X7XuXuX7X6X8X-X%X&X-X:X-X6X;XeXuXuXuX9X9X7X7X7X7X7X9X7X7X7X7X6X7X3X6X3X3X3X3X3X7X6X7X",
"9X7X9X9XqX9XqX9X9X9X9X9X9X9X9X9X9X9X9X9X9XqXuX7Xd.0.3.W.F.8.F.F.n.F.M.M.i.m.[.;XwXiXuX9X7X7X7X7X7X9XqX7X6X3X6X7X6X3X3X3X6X6X7X7X",
"7X9X7XqXqX9X9X9X9X9X9X9XqX9X9X9X9X9X9X9XqX9XpXt.~ P Q W.F.B.F.F.r.9.M.| ' 1.f.K.B.L.8XeX7X7X9X9X7X7X7X7X7X7X7X6X6X;X3X6X6X7X7X;X",
"9X9X9XqX9XqX9X9X9XqX9XwX7X9X9X9X7X9X9X9X7XeX4XX.! P Q W.e.{ 7.7.<.7.9.8.q.e.Z.K.d.B.&XuXpXuXuXuXuXuXuXeX7X7X;X-X-X3X3X3X3X;X7X7X",
"qX9X9XqX7XwX9X9X9X9X9X9X9XqX9X9X9X7X9X7X7XaXQ.{ | Q Q W.b.<.7.L.v.K.Y.Z.Z.[.*X'.[.=X*X5XyX6X;X=X=X2X6XuXpXiXuXeXuXuX9X:X7X3X7X6X",
"7X7X9X9X7X7X0X9X8X7XqX9X9X9X9XiXuXpXpXuXpX7XZ.d.K.R.b.W.n.r.n.&X[.&X=X'.Y.[.W.L.'.].[.`.-X{.;X-X=X=X{.%X$X[.;X[.*X7XiXuX3X3X7X7X",
"9X9X9X9X9X7X7X9X9X9XeXuXuXeXwX7X&X[.P.f.d.V.Y.].'.!.'.'.'.E.!.P.P.P.P.P.P.n.b.P.I.U.!.!.'.[.5XyX2X*XK.R.R.T.D.N.a.h.K.:XuX7X3X7X",
"9X0X9X9X9X9XuXuXuXiX7X3X*X[.R.Z.V.h.h.V.C.S.D.T.(.).(.}.].].}.}.}. X X].'.R.R.I.n.n.f.f.'.&X5X%X[.Y.S.T.T.S.a.y.o.o.q.w.>XuX7X7X",
"9X9X9XiXpXiX9X;X|.).).).)./.).).}.).).).}.(.(.).(.}..X|.).).).).}. X}.).).).).).].|.T.I.{.=X-X[.Y.Z.I.Z.Z.h.g.g.0.X.g.w.m.uXuX7X",
"9XuXuXeX;X X(.(.).).).).^.}.}..X.X}.).)..X)..X}.].}..X1X|. X.X.X X}.).(.(./././.D.D.D.D.E.E.(.(.(.(.(.(.(.(.(.(.E.(.T.E.T.E.9XeX",
"eXuX$X'.).}.2X4X.X).).).}..X}.}..X}..X}..X}..X.X.X.X.X4XqX4X4X4X X]./.T.D.D.C.C.N.N.N.%. .C.s.C.j.j.j.j.C.C.C.C.C.C.h.j.i.p.U.eX",
"pXv.9.B.Y.T..X.X.X.X.X.X.X.X.X.X.X.X.X.X.X.X.X.X.X.X.X1X0XaXpX6X*XT.C.s.N.u.%.o.| ( ( I I ' $.%.%.%.%.u.u.%.$.$.$.$.+._ R ' u.>X",
"pXv.+Xe.q.D.(. X.X.X.X.X.X.X2X X X.X X.X.X.X.X.X1X}.R.*XqXsXsX2XR.C.s.y.! ! ^ ^ 5.6.5.E F ,.,.,./ / / { ' O.$.$.@.O. . .' ' o.7X",
"uX-X7.X.+.T.1X4XrXtXtXtXqX4X%X*X1X1X1X=X X.X.X1XR.e.b._.2X*X|.Y.a.u.! = O 9 l.G.G.H.z.W R c.c.c.c.l.6.5.,.^ Q _ '  .+. .O.[ q.7X",
"7XaXn.1.A.E.R.,.2.6.9.z.W._.-X0XtXpXeXqX4X1X X1Xe.z._.L.d.a.o.y.a.( * - *.* p J.G.H.z.F W J.OXOXOXH.J.@XJ.c.l.:.^ T ~  .[ [ w.9X",
"6XaXv.} }.(.b , < < 1 1 y i k n G ,.7.n.[.=X1X4XL.n._.4.~ ....| o.x H ^ E 5.& 5.#XJ.z.G 1.+XOXOXOXOXJ.J.+X+XOXXXXXx.;.Y +.' i.iX",
"7XuX1.W 1.1.f a d g a f g f a 2 2 3 3 s k n r. X1XL.r.{ ) ' ' @.P = K h 8 ^ z m #XG.l.Y W OX+XoXXXXXXXXXXXXXG.>.>.;.=.R O.` g.uX",
"7XuX>Xr.{ { n 0 y < 7 f g l l l l f f f g a s I.1X].} u.$.` ' #.= - b V h b B h H.G.=.v C ,.2.,.,.E E Y Y Y T R R _ ` [  ...[.uX",
"7X7XuX;XU.T.f.n l > : , , 3 3 2 7 a 2 0 f g q i.U.I.F } #.` ( ! $ $ i h 8 h L w T / I Z D U ] +.w.U.~.~.(.Q.d.m.=X=X=X=X=X7XaX7X",
"7X9XeXuX&X0.<.Z.3.8 6 l s j a 0 0 , : , 7 0 q q.{ W G A n J Y m * u i i 6 5 L w I +.) Z F +.U.>XiXiXiXiXiXiXiXiXuXuXuXuXuXeX7X:X",
"7X7X9X6XaXk.O c 3.g 4 ` f.9.8.3.T 8 6 h n n / A.T.h.w.~ S C I e $ c 7 i 7 5 K w r ` ) r.[.eXpXuX9X7X6X7X7X7X7X3X3X7X3X3X7X;X6X7X",
"9X9X9X7X9X5X- . $ 6 , v K.^.^.^.V.j 4 ) y.h.C.s.s.D.T.C. .]  .& o b < B u t &./ r.Q.>XuXuX9X7X7X7X9X7X7X7X7X7X7X6X7X3X7X7X7X7X6X",
"7X7X9X7X9XeX$XM $ O + + l.wX*X|.P.G 6 A p.p.u.+.] [ O.O.] Z 9 . # B t b p B l.iXuXuXqX7X;X7X7X7X7X7X7X7X7X7X7X7X7X6X7X7X7X7X7X7X",
"6X7X7X9X9X7XeXuX_.:.&.>.5XuXuXaXiX&XW.$X;X;X;X{.~.Q.Q.!.=XK   X o c y c K =.OXuX;X3X7X7X9X7X7X9X7X7X7X7X4X7X7X6X9X7X3X7X7X7X7X7X",
"7X7X9X7X7X9X>X9XeXiXpXpX6X7XeX7X9XuXuXeXeXeXeXiXuXuXuXeXaX@X#   X x L B >.-.5X8X7X7X7X7X7X7X7X7X7X9X7X6X3X7X7X9X9X7X7X7X7X7X9X6X",
"7X9X7X9X7X9X7X7X7X6X6X6X0X6X7X6X7X7X3X7X7X7X:X>X7X7X7X6X7XpX*..   @ *.k.&.>.pX6X7X7X7X7X7X7X6X7X7X7X7X7X7X7X7X7X9X7X7X7X7X;X7X7X",
"7X7X7X7X7X7X>XeX7X7X7X7X6X7X2X7X7X7X7X9X7X7X7X9X9X9X7X7X7X9XiX-.% # % - :.pX6X6X7X7X7X7X7X7X7X3X7X7X7X7X6X7X6X;X7X7X7X7X9X;X7X7X",
"7X6X9X9XqX7X7X7X7X>X6X7X7X7X7X6X>X7X7X7X7X7X7X7X7X;X7X7X7X>X>XuXyX@Xx.%XuXqX8X7X7X7X7X7X7X7X7X3X7X7X7X7X6X9X9X7X6X6X7X7X7X7X7X7X"
};
