/* XPM */
static char *_1712000303[] = {
/* columns rows colors chars-per-pixel */
"64 64 52 1 ",
"  c #DC0C7D",
". c #DD1382",
"X c #DE1B86",
"o c #DF1E88",
"O c #DF2188",
"+ c #DF308F",
"@ c #DF3391",
"# c #E02189",
"$ c #E02C8E",
"% c #E13693",
"& c #E23D97",
"* c #E34299",
"= c #E34B9E",
"- c #E54EA0",
"; c #E555A3",
": c #E55DA7",
"> c #E65FA8",
", c #E662A9",
"< c #E768AE",
"1 c #E97BB6",
"2 c #EA89BD",
"3 c #F3AEBE",
"4 c #F4B0BF",
"5 c #ED95C3",
"6 c #EE9EC8",
"7 c #EEA5CC",
"8 c #F4AFC0",
"9 c #F4B3C1",
"0 c #F5B7C8",
"q c #F5BAC9",
"w c #F2B4D4",
"e c #F3B9D7",
"r c #F4BBD9",
"t c #F7C5D5",
"y c #F8C6D6",
"u c #F7C8D7",
"i c #F6C6D9",
"p c #F8C6D8",
"a c #F7CADA",
"s c #F8CBDC",
"d c #F7CFE0",
"f c #F9CFE1",
"g c #F7D3E4",
"h c #F9D4E5",
"j c #F9D8E7",
"k c #FAD7E8",
"l c #F7D9E9",
"z c #FAD9E9",
"x c #FBDEF0",
"c c #FBE3ED",
"v c #FBE3F1",
"b c #FDEEF3",
/* pixels */
"ghhfffhhffkhhhfhhkfkfkkkfkkghfhhhhffkhhhhhkhhhkkzkhhhhhghhhhhhhh",
"ghffkfhfffkfhhhfhfkffkfffkkfhhhhhhkfgkgkkhhhjhhjhhhhhhhhhhhhhshh",
"hhfhfkkfkffhkfhhfhhffffkffdfkkghhhghhhghkhkkhhhhhhhhhhghghhhhhhh",
"hhfffkfhkhkkkkkfhfkhkkkfkggffhgkhhhkhhhhkhhhhhhhhghhkhhhhhkhhhhh",
"ffhhfhfhfhfffffkhhhhzjggfkkffkhhhhhhhkhhhhhhhhhkhhhhghhhhhhhhhhh",
"hhhfffhhkhhhfkkffhhfhhhhkffkfkhkhghhkhhhhhfhhhkhhkghhhhkhhfhhhhh",
"hhffhfkhfffhhhfhhhfhghhhkkfkkkkfhhhhkhhkhhhhkhhhhhhfhkhshhhhhhhh",
"hfhhfhhhkfhhhfkffhhhhhhhffkfkffkhhkkhkhhkhhhhhhhhfgghhhhhhhhhhhh",
"fkhhffhhfkhfhffkhhghhgghhhhhhhggkhhkhhkkkhhkhhkhhhghhkhhhhhhhhhh",
"hffhhhhhfkkkkkkkkkkkjhkkkkkkkkkkzzzkkhzkkkkkzzzkkkkkhhhhhhhhhhhh",
"ffffhhhhkhhfrprpttttttttttttttttptppttttppttyyyyttttfhhhkhhhhkhh",
"fkhhhhhffkr738883333883333333333343334433434444333839fhhhhhhhhhh",
"fkfhhhfhghp0zhhhhhhhhhfhhhhkhhkkkkhhhjghkhkkhhhhhhhx0ihhkffhhhhh",
"kfhffhhhhkpqfsffffffffsssfhsssgshshsggfsfshffsffsfshqskhhhkhhhhh",
"hhhfhffhfkpqhhhhhhhkhhhhkkhhkhhhhhhhhhhkkhhhkhhhhkfhqpkhhhhhhhfh",
"hhhhfhhhhkp0hfhkhhhhhhhkhhkhgkkkhjjhhhhhhhhhhhhhhkfhqihkhhhhkkhh",
"hffhhfkkhkiqhdkkhhhhfhhhhhhhhhhjhhhhhhkkfhhhhhhhhkhkqszkhhhhghhh",
"hhhkhfhffha0hhhhhhhhhhhkhhhhhhhhzhhhhhhhhhhhhhhhhhghqskghggghhhh",
"fkkfhkfkhhpqkghhhkhghkkhhghhhhhhhjhhhhkhkhhhhghgghfkqpzsgfhhhhhh",
"kfhkhfkkhka0hdhhhhgfhkhhhjjhhhhhhzkhhhkhkhhhhhhhhkhhqszhghhhhhhh",
"fhkfhhhhhhp0hhhghhhhhkhhkzhhhhhhhjhhkhhhhhhhhhghhkhk0ykhhhhhhhhh",
"fkfkkhhhhjaqhshhhfhhhhhhhhhhhhhhhhgghhhhhhhhhhhhhkfhqshhhhfhhhhh",
"kfkkkfhhhhp0hfhhfhfkhhfhghhhshfhhhghkkhffhhfhhhfhkhh0skhhhhhhfhh",
"kkfkkfhkhhpqkhhhffhkkhhzccccccccccccvvvkhfhhdhhhhkhhqshhhhhhhhhf",
"kkkfhhhhhjsqkfgkhhhhghzr,=--==--====-=;hkffhhfhhhhfhqphfhhfhfkkh",
"gfkkjhhghjaqkghhhhkkhkh*%<,,,,,,,,,,,,,hkhhkhhkhhhhk0phhffhfhfkf",
"kkfkhjlhklaqhhhhhhhhhkr%5bccccccccccccbzfhfhkkkhhhhk0pkhhhhhkfhf",
"ffkkhklhhlsqzhhhhhhhhzr%$*&&&&&*&&&&*%>zhhkkhhhhhkfhqskhhhhhhkff",
"kkkhhhhhhksqkhhjhkhhhhr%XXX XX #XXXXXX.rjkkhhhhkhffk0skkkfkkhfhk",
"fkkhkhhhhjsqhhjhhhhhhzr%X########OOOooXejhhffhhffhfk0fhhfkfkhhhh",
"kkghghhhhksqlhhhhhhkhkr%X########XXO%%+ixhhfhhkhhkfhqphhhfffkffh",
"kghhhkhkhzsqlhhhhhhjhzr%X##o#####X*w555wfkgffhhkfffhqrkkfkkfhhhh",
"hjjjjzjhjlsqhgjhhjhhhzr%X######O#.572=+O1chhhhfhhhhhqpkhfhfkhhhh",
"hhjzjzjhhlaqjhjgghjzhzr%X##X#####.621@  <zfhhhhhkhhhqphhhhhhgfgg",
"jjjzhhhhjjsqlhjhgzhhhzr%X##OXO###X,l6565rzgffhhhkkfhqpkhhfffkffg",
"hjzzzhjhhzsqjgjjkkhkkzr%X##OOO#X#OX*:::gcshhhhhhhkfkqpkhfhhhffhk",
"jjljhhjjjzdqhgjjhjhhhzi%X#######OOOX...wzhhhhhhhkhhhqpkhkfhfhkff",
"hhhjkjjjhzdqjhzjhjhjkzr%X#####X#OOXOOOXezhhkhhhhhksh0phhffkhkgkh",
"khjlhzjjhcdtjhjjjjjjzzg;X#XXXooXXXXoXX@hjhhhhhhhhhgkqpjhhfhgfkkf",
"jjhjjjjjjla0jhjjjjjjhhzheeeererrrreeeegchhhkhhhhhhhkqpjgfkhfkkhf",
"jhkjhljjlzsqjjjjhzhkhkgkzczzczzzjjzzzczhhhhhhhkhhhshqskghhkkfkff",
"hkkllhjjjldqjgjjjzhjzkkhhhhkhkhhhhhhhhhhhhhhhhhhhhghqpkhfgkkkfkk",
"lhhjjhhjjjsqhhzzjjjjhkhkkkjkkkhhhhjkhhhhhhhhshhhghhkqakfgkffhhfk",
"jjjzlkjjhlaqzjjzzzzzhhhhjjjjkgkkjkjhkhkhhhfhhhhhhhshqtkhfkkkkkhk",
"zzzjzzzzjjstzhjjzzjjzzhhjljjhkhjjjhhhhkkhhhhzhhhhhfhqskhhhhkfhkk",
"jjjkzzzzljsqhhzjzjjjhkjhjzkhhljkjkkkkkhkkhkhzhzhhkkjqpjkkhhhkfkf",
"hjjkhjzzjzaqlhjjjjhhhjjgjzzjjjjjkhkkhkhhkkhzhhhhhhghqsjhhkhhhhkh",
"hhjjjjjjjzstjhjjjjjjjjjhjljkkjjjhkhkhkhkzkhhhhhhhhfhqszhhhhhkhkf",
"hhhlhjjjjjsqhhhjzzjjjjjjjjjhhhjjjhzzhjhjkkhkhhhhkjghqsjjjkhhkhhh",
"ljhkhhjjjzgqhzzhjjjjzzjjjhhjjjjhhjhhjhjjhkkhhkkkkhhkqsjhjhhhhhhh",
"kjhhjhgjhlsqjghdhfhhhhhfgffggggghhfggggghhfhhfshgsshqskhkghhhfhh",
"hhhjjjghhlpqvljzccjcjzjjzhkkjhglhhkzkjjjcjkzzkkzkhkxqpjhhhjkhhfh",
"hhhhjjhkkjg949494444444449994494449499994999999994439hhhhhhhhhkh",
"hhjggjjjzhzgtttuuuauyytttytippaaypuaaauuuyuupptpttytgjhhfhhhhfhh",
"hlhhhhhjhhhjzjzzczcjcjjjjjzkzjjzzzzzzzljjjcjllzkzkkkhhhhhkhhfhhf",
"lhhjjjhhghhhjhjjhhhhhhjjhhhjjhhjzhjjhhkhjhzzhkkhhkhhhhhhhhghkkhf",
"fjjjjjjjghhhhjjjgjhjhhggjhhhhhjhzhkhhhhhhkhhhkhhhkkhhhkffhhfkfhh",
"jjfjjsjjhhjhhjjjjhhhhjjghhjjhhhhkhkkhhhhhhhhhhkkjkhfhkhhhfhffkhh",
"jfjgjssjhhhhjhjjhhjghhgjhhhhhjhhhhghhhghhghhhhhhhkhhhhhhhghhhhgg",
"jjgjjjjjghhjjjghhhjjjhhshhhhhhhhgkhhhhhhhgfkhhhkhhhhghhhkhfhhhhh",
"gjgjgjgfhhhzhjhjjjggghhhhjhhjhhhhhhhghhhhkfhhhhhhghffhhhkkhhfhkh",
"fjgggjjjhhhhghgggggjhjghhhhhhhhhhhhhhhhghhhhkhhkhhhhhhhhhghhhhhh",
"gjjgjghjhhhhggggjjgghghjjhhhhhhhhhhhhhggghhhhhffhhhhhhhfhhhhhgfh",
"ggjjgggghhghhhhgfgghhjhhhfhjjhdhhhhhzkhhkhfhhhhdhhkhghhhfhhhghhh"
};
