/* XPM */
static char *_1711898837[] = {
/* columns rows colors chars-per-pixel */
"64 64 39 1 ",
"  c #DC0C7D",
". c #DD1382",
"X c #DE1B86",
"o c #DF1E88",
"O c #DF2188",
"+ c #DF308F",
"@ c #DF3391",
"# c #E02189",
"$ c #E02C8E",
"% c #E13693",
"& c #E23D97",
"* c #E34299",
"= c #E34B9E",
"- c #E54EA0",
"; c #E555A3",
": c #E55DA7",
"> c #E662A9",
", c #E768AE",
"< c #E97BB6",
"1 c #EA89BD",
"2 c #ED95C3",
"3 c #EE99C6",
"4 c #EE9EC8",
"5 c #EEA5CC",
"6 c #F2B4D4",
"7 c #F3B9D7",
"8 c #F4BBD9",
"9 c #F4C4DC",
"0 c #F7CFE2",
"q c #F8CFE2",
"w c #F7D3E4",
"e c #F9D4E5",
"r c #F9D8E7",
"t c #FAD7E8",
"y c #F7DAE8",
"u c #FAD9E8",
"i c #FBE3ED",
"p c #FDE7F0",
"a c #FDEEF3",
/* pixels */
"weeqqqeeqqeeeeqqeeeeeeeeeeeeeeereeeqereeeeeeewettteeeeeqeeeeeqee",
"weqqeqeqqeeeeeqeqeqeeet9eeqeeeeeeeeqereereterretweeeeeeeeeeeeqet",
"eeqqqeeqeqeeeeeeqeeq9eeeqqqeeeteeeeeeeeeetetrteeeeeeeeeeeeeeeeee",
"qeqeqeeeqeeeeeeeeeqeteeeeeqqqeeeeqqteeerteeeqeeeeeeeeeeeeeeeeeet",
"qeqeqqqeeeqqeeqeeeeetreqeeeqeeeeeeeeeeeeeqeeeeeteqeeweeeeeeeeeee",
"qeeeqeeeeqeeqeeeeqqeeereeqqeeeeeeeeeeeeeeeeeeeteetwweeeweeqeeeee",
"eeqqqqteqqqeqeqqeeqeqeeeeeqeeeeeeeeeeeeeteeeeeeeeeeqeeeqeeeeqeee",
"eqqeeqeeqeeeeqeeqeeeeeeteeeeeeqeeeteetteeeeeeteeeqqeeeeeqeeeeeee",
"qeqeqeqeeeeqeeqteeqqeeetqeeeeeeweeetewttteeteeteeeeeeeeeeeeeeeee",
"eqeeeeeqeeeeqqeeeeeeeeeeeeeeqeeeeteeqweweeeetetqeeqqeeeewweeewee",
"qqqqeeteeeeqeqqeeet9eeeeeeeeeeeeeeeeeeeeeeeeeeeeeeeeeqetreeeeeee",
"qeeqeeeqqeqeeeqeeeteee9e9eeeeeeqeeetqeeweeeeeteeeeeeeeeeeeeeeeee",
"eeqeeqeeqqqqqeqeeeweqeqeteeeeqeeeeeeeeeeeeeteeeqeeeeeeqqeeeeeeee",
"qeeqeqqeteeeeetqeeeeeqeeeeqeeeeeeeeeeqeeqeeeeeeeeqeeeeeeeeqeeeee",
"eeeqeqqqtteeeeeeeeeeeeeeeeeeeeeeeereeeeeeeeeeeeeeeeeeeeeeeeeteeq",
"qqeeqetqtqqeeqeteeeeeweeteeeeeettteeeeeeeeeeeeqeeeeeeeeeeeeeteee",
"tqqeeqeeeeeeeeeeeeeqeeeeeqeereeeereeewttqeeeeeeqeeeeeeerreeeqere",
"qttqeqeeeeeeeeeeeeeeeeeeeeeeweeeteeeeeeteeeeeeeeeeeeeteeeqweeeee",
"etqeqttqe9eeeeeeeeeeeteeewreeeeeereeeeteteeeeqeweeeetttqqqeeeeqe",
"tqttttteeeeeeeeeeeeqeeteeereeeeerteeeeeeeeteeeqeeteeeeeeeeeeeeee",
"0eeeqqtqweeeqeeeeqeteeeerreeqeeeereeteeeeeeeeeeeeeteeeeeeeeeeeee",
"0eeettqteee9eqeeeeeeeeeerreeeeeeeewweeeeeeeeeeeeeeeeeeeeeeqeeeee",
"eeeetqtteeweeeee9eqeeeeqeqeqqqeqeeqeeeeqeeeeeeweeeeeeeeteeeeeqee",
"eeeeeetqweqteeeeeeetteeupiiiiiiiiiiiiiptqqeqwqewtteeeeeqeeeeeeeq",
"eeeeeeweeeeeewweeqeeeeu8>=--=---====-=;eeqeeeeeeteeeeeeeqeqqeeee",
"teetueewetywttweeettetq=&>>>:>>>>>>>>>,qeeeeeeteeeeeeqe9qeeeeqee",
"eeeeeuuwuwwetteeeeeeet8$3piiiiiiiiiiiiaueeeeeeeeeeeeeqteeeqqeeee",
"eeeteeuteuwueeeueeeeeu8%$*&&&****&&&&&:teqeeeeeeeeteeeeeeeeeee9w",
"eeteeeweeeeeueeeeteeee8% # # # #.XXXXXX8teeeeeeeeeeeeeeteeete9te",
"etetteeeettewrueeeeqet8%#########O#OXXX6teeeeeeew9eeeeeeqeeteeee",
"etwwwwteeeeeywweeeeret8%X##O###O##XO%++9ieeqeeeet9eeeeqeeee9eeee",
"eetwwteeeeutuueweerreu9%X######O#X=62236qtqqeqeeeeeeeqeeeeeqeeee",
"ewuueuurereteyeeeereet8%X######O# 251=+O<iqee9eeeeeeeeee9eeeeeee",
"rwuuurueerwuwyewereret8%X##X###O#X41<@  ,ueeeteeeeeeeeqeeeeeqeeq",
"ueuuweweueweutuwwteeeu8%X##OoOOO#.>y43419eqweteeteeeeeeeee9qwwqe",
"wyuuuweeeuuyuewrerrttu8%X##OoO###Oo*:>:riqeqeeeeeeeeqeeeeeeeqqee",
"uturwtyutuytueuuereeeu9%X#######OOXX X 6teeeeeeeereeweeeeeeqeewe",
"ewwretuwyeuueeuurreruu8%X######XXOOoOOo8ieeeeeeeeetwe9eeeqeeeeee",
"twurtuuetuyyuuyrrurruuw;XoXXXXX#oooooX@wteeeeeeeeeeeteeeqeeqeeeq",
"tuwuuwuutuuwrywruerreeue77878788777777wieeeeeeeeettteeeqeeeeeeeq",
"uwtuwyuuuuwwuerrrruereetuiuuiuuuuuuuuuueeeeeeeeeeeeeeetq9teeeee9",
"twuwtwwuyyuuwurueuwwtetewweteteewweteeteeeeeeeeqqweeeeeeeeteeete",
"uywuuwrutwuuuuuuuuuuetettrrrteeeeeereeeeeeeeqeeeeweeeeeqqeeeetee",
"uwuuuwtuwtwyuuuuuuuueeeerrreeettrrteteteeeeeeeeeeeeeeeeeeeeeteee",
"uyuuuuuutteuuwyuuuyuuuwerrrrrerrrreeeetteeeetteeeeeeeeeeeeeteeee",
"ttuyuuuyywueytuyuwuueruwrurrrrrrrretteeteettrreeeettteteeeeeeeee",
"wtuwwtuuuwtutuuuytrwwurwrturrtrrettteteeteetreeereertteeeteeeeee",
"wwtutyyuuuuuuwwuueetuuuwruuretrreettetettteeeqeeeeeeeeeeeteeteee",
"twueereurrutwwwururuurrrrrweerrrretrrerrrreeetteeeeteeettreeteee",
"yeweewrurrttuuueruruurrrreeerrtwrrerererrtteeeeeeeeeteeereeeewee",
"euwueerrwuteeuuwrurrrrrereeeeereeteeererrreteteeeeeerreeeeeeewee",
"eeeurrweweeeyywuurrrrrrrreeetwwreeerretrrrtteeeeteeteeeeeereeqew",
"eeerereruueeuuturrrreeereeereeereerrrrrrrrrrtteteeeeeeeeeeeteeee",
"etrwereruwtuweewrrrrrewwereerrtrrrerrrerrrrurwrtterereweeeeqqeee",
"eyeereeeeweteweurrrrrreeereerrerureutrrwwturwtteeeeereeeeeeeeeqe",
"ewuwrreeeeeetuwrrreeerreeewreewetereeerrwrrteteeeteeeeeeeqeeeet9",
"wrrwrwrwweeeewrreeeeerwwreweeeeeeeetteeeeeeeteeetreeereqqeeeeeqe",
"rwwrrwwrwwreerrteererewweerreeeetereeeweeeeeetttrreeeeeeqeqeqeee",
"wwrrwwwrweewrwerrerewweweeeereeeeeeeewwweqeeeeeeeeeeeeeeeqeqeeqq",
"rwwrrwwrerrrrreereerrewweteeeeeeeeeeewteeeqeeeeteeeeqeeetteeeeee",
"wrwreeeeeeetwrereeeeeewweteeeereeeeeeeeeeeeeeeeeeqeeqeeereeeeeee",
"wwewereeweeeeeeweeeeeeeeeeeeeeeeeeeeweeeeeeeeeeeeeeeeeeereeeeeeq",
"ereeeewrwweeeewweeeeeewrreeeeeeweeeeeeqweeeeeeeqweeeeeeqeeeereqe",
"weereeeeeeweewwwweeeeeeeeqeerwqeweeetteeeeqeeeeqeeeeweeqqeeeqeee"
};
