/* XPM */
static char *_1711733663[] = {
/* columns rows colors chars-per-pixel */
"64 64 44 1 ",
"  c #8CDBED",
". c #95DDEE",
"X c #9BDEEE",
"o c #96DDF1",
"O c #9CDEF0",
"+ c #A3DFEE",
"@ c #AADFEE",
"# c #B2DFEE",
"$ c #A3DEF1",
"% c #ABDFF1",
"& c #B0DFF0",
"* c #96E0EF",
"= c #9DE0EE",
"- c #9CE0F1",
"; c #A4E1EE",
": c #ACE1EE",
"> c #B3E3EE",
", c #BAE5EF",
"< c #B4E8EF",
"1 c #BEE8EE",
"2 c #A4E1F1",
"3 c #ACE2F1",
"4 c #B4E3F1",
"5 c #BBE5F2",
"6 c #B7E8F0",
"7 c #BDE8F2",
"8 c #C1E7EF",
"9 c #C2E8EF",
"0 c #C8EBEF",
"q c #C2E7F3",
"w c #C9E7F3",
"e c #C4E9F3",
"r c #CBEAF4",
"t c #CCEAF8",
"y c #D3ECF4",
"u c #DAEEF5",
"i c #D7EEF8",
"p c #DBEFF8",
"a c #D6F0F4",
"s c #DCF1F5",
"d c #DCF0F8",
"f c #E1EFF6",
"g c #E3F1F6",
"h c #E1F2F8",
/* pixels */
"w5yrey32yqry5er1y:2e+;73qe,y3=r34w4qyeye4yuyp44appg:.uqr9.3gsh73",
"w4e22r>:r7rr48equ5*y455Oeuys42aere:5>-574w%3r4:e44y:+ro+q%5t6ew3",
"<.q3%y43r4qr47<<y4:w;24.41:e=;r*3q354>qt7q@4y4;e::p>4u44r47q:qq@",
"74y$3r4qy:7r4q>+w>3r4>4.443e23w.4yra5>rury3@yyqr+;urru55hwr5:qye",
"44y43y55r@>ywuq:wrry44urp1;rypu345$75>qq4r:3r5>r44y#@y5qp,4<:8w:",
"3;r54r%%q>>5$qe:5X$r>5q3eq37>qs5q43qq>w74q4:w<@r4:r$Xw>7y&47>r7*",
"q:e:4y<&r@<q3q4Xq;Ow35e3ww;w;;r@4w5qrqr4%543r>;r74r.:y#<w+>r7e3o",
"5;ryyg,:fypw4quyp:*uyur4rgys;=urye5qr7w3X574r>$wq7y.>gw5r+5yqe3*",
"5*q>4y34r>qe:7%+r;.q:7w4tw5y4:y7q7:q7:74$7:$74>r5&0X>s4>y,1r>54X",
"q:e,>r@@r>qe:74+q;.e24q4w54yq7y:,,:q4+q>3q4:e4>y74r.3u;$y49r,wq3",
"sug74yewy34uydq4e74eo;r,rq5yqryO4pus5+5uyf54yyyf4%uryu..syhr7rss",
"5+q54r+3eX3w>w7:rq5y4>e>r7>yeqrO>94e5:774r4>y5@r4+r@+r.-r45r4wq4",
">.7>3w=;q-:r:54@r4>u77r3rq;w:;r.473qe4ee4r44r4+0Xoy+%s3>y:<w3q74",
"43yqey:4y78q@754r5wy>7r:ew>r4%r$,q37rrs5<rryp>>yqqf43pyyu@&dya7:",
"5,r75r47sqwq@ey5r3>r>7q25eqs4<s0yr3>5;5q4r,#r4%r+4a75u#4r45r>q3$",
"3+t46w35s445Xe725;>w+4r:42;r,4y45r>w7:eqqr4@e>;w24y45y2;r#5w%55$",
">$r5,w:4r.;5*ew:wX-w4wr:423r>4y:9yeyt4rrqr4Xq<#0@4y>qy+Xu7ee;77:",
"irf<>yrreo:yry7+wryi;2sas5:yyyy31prrq4wyeu>3rewu>3yqqy.;u0re;3r5",
"r>r24y>=q:44.74:w:<r.27;q75r;;q3qw>16O54$q>@r>4y>>y#@r+>y4:wX34=",
"537O;y3=w47q-54:r327.$e4w5:w.;y4rr4q43w:Xr>:r3#r&@r+%y4,y3;7O4><",
":-wrrs4:ppfq;5sap4;yryr:eury;3dyye4epyf4;euyp:Xyyyu+@gupu32srs45",
":*8+:w45y>7q=43:r64r:,e;44:y7,r;ww5w7@554w>;r>>r$;r:%r+:u47r$4,4",
"4.e2;r:,r477;4:3e:4w447;<35y75w.4e4e9+5eqq;Or<>r%+w@3rX$u>wr373-",
"rqyXXyery>4e5y4.545y>7yqyq$r7wrO:ueu74epry%+8wqu$Xyqyu.oftsr;:rq",
"7-q2*r57r;4e,w3*e37y>1yey7+04qw41w:q,4rq>74$q4<r@oqX3y3Xr+4r=33o",
"5.e33a,>r+4q:q72w3:r34e:53+rX;r>ww>q,;q74y9:q:4r+o7+4y+$y*;qo>:;",
"q4r7qd54r><5O<7:r55r47q.4:@r-+t5rr45q:r<:ryqr33r4&y@>y>,r2$w>w73",
"r4yqws44ury5.,yrs44syse27rqs;4fyhr4qrrsq@ryry3.rqqy%<s57y=;rqyq4",
"8>r:4y::w444-75:y54y445o74+eX>r>eq4571yq4e4#w:Xe45y%:y+:wo3w,e14",
"74r::y+4r334.ew4y>>y434.q5@0+:e;473ww<rq5w7<r:+rq4r+:r+>w.:r4e<3",
"hpf>;ypgy-2yyu5>yuuy+:sys4:ywyr+<fuiewypys55adyp4@yqyu2Xswrr>quy",
"q3yq:r@,r344+7;$r4>r+3e.54@r;:7+7q3>54wq:q57yq4qO.q.:y3.7 X7;qq4",
"53rw4r;4w$47:7,:r:>y;3q:q5>y:;q3qr4443re<r4@w54w22w3:y3+w2#,37,4",
"4:yfyu.Oyyu5=wsry.:gra7;rpuf3>srpq45rrpe5eyry:3yyys>4sryy41pys4:",
"4*7+4u;+q<rr275:r53r75q;9q<y:4r7we:4q4ye4e:*w55y54y::u>qy>>7%,4*",
"5.7$4u4+q4qr>433y7>y:4q;5>@e+7r4wq=34:r7+7>3y55y4:q.@g#4y*;7+14*",
"q2r44y>5q:7w4e>;r7,r23r>r3%y7rr:qr5eq>qw:533yeqy3:r%4f%4u:5q#754",
"awu1$yeru>7y7r32yqry$2y5r43ywrr:qr3e1%5yra>3yyya$2y44u@>y7e,35r4",
",;r%+r%>y4qw35:+r>:w+3q+q3@r4wy47e.>7+414eq4r44w;@y2.y+5u:>w@8,X",
",o53>u44r4rr4q2$r3:e@45=q@4y37r4qw+54$554y74r:;ro;y%@u@>y4q4$75+",
"5+wrrd<>urpr>ruyg44sqe72euuuO3yey7-qgyse7ruuh4:rrru>5gryy37y7w44",
"q:q$3y>>w:8q:q54y4:w;:1=q44y;:q*5r3qq4qw,w54r4:e;@r;<y2@e374.4q3",
"55r$*w+4r+44Xe74y44r475o72:y45r>7w4,q,85%q74r;%e>4y+@r;>r;3<-77@",
"yyf42yysy24yws<@uasy4qswy+Opydr>wu1r7:7yqyq4rw8y54uyyyO3drr74wgr",
"5:r55r47r495.q5>y44r:57+eOor+4e;wr345;6w7yq4r4<r75p5>uXoeO4q>0q4",
"4;r:5y45r4q4.q>>y::q37w:e=.eX>e;7q+4q;5w>q4&rq4w44r:4u22w*4w4eq4",
"7:r7ep34yey<$erru;.yrpr4rwwr-3sra52qr,wq4,55y4&w74r;3perr*4w4y74",
"q4r3;r$2r<rq:q4<y;$yqrr,w>40->r;3537yqyr7955y4:q33yX3y1er;44$r7;",
"54w2=r=3e@rr3q2Xe>7y7wq>rw4e.4d77q334:qr503O,>&1:+r3>y4>e:4q4r7=",
"w4r3.q.Xq>er<r>3e2>yqr7;y5qy4ey,7w:>5:7q4r4X5$2wo:y4:r44y>,e>q5%",
"ary*Oyrww$7uyp74serr$qw5i45yeeu4,hya537spht37wwy=%yrer%4gyae:1yr",
";=w::r+3q:we>y4#y:4r>q54r55r::r47r4ww;44$e44e33y2:r+.w:7u>452e4:",
"X*r45y43q:qw4r:+y34r>q53e3>y4:r4ey4rr;3:$q3;w45y,4rXXe:4y4>>*q5;",
":3ryyy35gsdq4ysyu::uup74ryuu4qgrar4wyqy3;4reu>3yyyu-*sryr+5uys<4",
"w5rXOw;4e:wq4r::r=;e@9:;r<7yqey:<r4443q5.444r,4r>4w*+7 :w:qr%q75",
"52e4>y46r<rr4e:3yo=q2,4%r54y45r:>r:4<3wq4724y4#y45y34r;:r5qy4w54",
"rwu7wswre>ypyy=+ywrr47syp33sypy4qr>17>eq4q3%rq,yqqswry>,uwyw,qww",
"75y75y:5q>rr,w+oe:4r343;e325.5yqrgyyq47yru54rqqy<4y2>y44y59q>e42",
"q4y75w+3q+9r5r:;r%7e2>2oe4:q+7u7qr>q7:4<%rq4r&4r4%eo@y:>e=:q4w:;",
"w4urty=:y7yw4requ3>uwa3.ryw9>es8e1+75+4q4yq$7@>y>:w.3r+%e;:r5r<4",
"74yqey3>yqr5>yyyy;2eqr:%r7>73ry+4735pyfe4yuyu$>yr8y@3sryq+4uys4>",
">.e.*q=qe355>y74r.$4=5q5r>+q:er23r:704rq454$7>>ro=r@<y435+4e4r;+",
"O e$oe3wr:q>@y%:w**5+qq7r+@q4rr+5r5ty7r427,:w4@r;:w;:r:3q:4q>q4+",
"yru*:syse4rsyp%>pq574erqr.%y4yr.4ywdw45w8uqqryyp35syyr44gru74ryy"
};
