/* XPM */
static char *wallet1712085562[] = {
/* columns rows colors chars-per-pixel */
"64 64 41 1 ",
"  c #DC0C7D",
". c #DD1382",
"X c #DE1B86",
"o c #DF1E88",
"O c #DF2188",
"+ c #DF308F",
"@ c #DF3391",
"# c #E02189",
"$ c #E02C8E",
"% c #E13693",
"& c #E23D97",
"* c #E34299",
"= c #E34B9E",
"- c #E54EA0",
"; c #E555A3",
": c #E55DA7",
"> c #E65FA8",
", c #E662A9",
"< c #E768AE",
"1 c #E97BB6",
"2 c #EA89BD",
"3 c #ED95C3",
"4 c #EE99C6",
"5 c #EE9EC8",
"6 c #EEA5CC",
"7 c #F2B4D4",
"8 c #F3B9D7",
"9 c #F4BBD9",
"0 c #F4C4DC",
"q c #F7CFE2",
"w c #F8CFE2",
"e c #F7D4E4",
"r c #F9D4E5",
"t c #F7D8E7",
"y c #F9D8E7",
"u c #FAD7E8",
"i c #F7DAE8",
"p c #FADAE9",
"a c #FBE3ED",
"s c #FDE7F0",
"d c #FDEEF3",
/* pixels */
"errwwrwwwrurruwwrrrrwrrrrprrrrrrrrwwryrrrrrrrtrupurrrrrrrrrrrerr",
"erwwwruwrwrwrwwrrwwrrrrwr0rrrrrrrrrrrrrrrrurrrrrrrrrrrrwrrrrrwrr",
"rrwwrwrwrwruururwrrwwrrwrwwrrrrrrrrrrrryuurrprrrrrrrrrrrwrrrrrrr",
"wrwrwrrrwuwurrrwrrwrrrrrrewwrrrrrwerrrrrrrrurrrrrrrrrrrrrrrrwrru",
"wrwrwwrwruwwwwwrrrrruyewwrrrrwrrrrrrrrrrrrrrrrrrrerreerrrrrrrrrr",
"wrrrwrrrwwruwuwrwrrwryrrwrwrrrrrrrrrrrrrrrrrrrrrrrrrrrrrrrrrrrrr",
"rrwwwwrrwwwwwurwwrrrrrrrrrwrrrrrrrrrrrrrrrrrrrrrrrrwrrrwrrrwrrrr",
"rwwrwrrrwruwuwuwrrwrwrryrrrrrrwrrrrprrprrrrrrrrrreweerrrwrrrrrrr",
"wrrrwrrrrurwrrrrrrrrrrrrrrrrrrrrrrrrrrrrprrrrrprrrrrrrrrrrrrrrrr",
"rwwrrwrwrrrrwwwrrrwrrrrrrwrrrerrrrrrwerrrrrrrrrrrrrrrrrrrrrrrerr",
"wrwwrrrrrrrrrrruurrrruyrrrpurrrrrppprpptpprpupprrruurwrrrrrrrrrr",
"wwrwrrrrwrwupuuuppppypuyppppppppppppppptppppppprpppuurerrrrrrrrr",
"rrwrwrrrwrrrrrrrrrwrwwrwrrwrrrrrrrrrrrrrrrrrrrrrrerruurrwrwrrrrr",
"wrrwrwwwrrrurrrrrrrrrwrrrrrwrrrrrrrrrrrrrrrrrrrrrrrrurrrrrrrrrrr",
"urrwwrrwrrrurrrrrrrrrrrrrrrrrrrrrtrrrrrrrrrrrrrrrrrrurrrrrrrrrwr",
"wwrrrrwrrerrrrrrurrrrrrrprrrrrrrprrrrrrrrrrrrrrrrrrrurruurrrurrr",
"uwwuwwrrrwrprrrrrrrwrrrrrrrrrerrrurrwruuwrrrrrrrrrrrprrtrrrrwrrr",
"wuuwuwrrerrprrrrrurrwrrprrrrrrrrurrrrrrrrrrrrrrwrrrrprrrreererrr",
"wurrrrrrrwrprrrrrrrrrrrrrrrrrrrrrurrrrurrrrrrererrrupprrewerrrrr",
"uwurrrrrrrrprrrrrrrwrprrrrtrrrrrrprrruurrrrrrrerrrprprrrrrrrrrrr",
"wrrrrrurrwrrrwrrrrrrrrrrytrrrrrrrrrrrrrrrrrrrrerrrprprrrrrrrrrrr",
"wrrrrrwrrrrpwrrrrwrrrrrryryrrwrrrrerrurrrrrrrrrrrrrrprrrrrwrrrrr",
"rrrrrrrurrrprrrrwrrrrrrrwrp0wrwrreeerrrwwrrwrrrrrrrrprrrrrrrrwrw",
"rrrrrrrrerrprrrrwwrrrrrpsaaaaasaaaaaaasurwrrwerrruuruprrrrwrrrrr",
"rrrrrrrrerpprrrrrrrrrrp9>==-==-==-----;wrrwrrrrrrrrpurwewrrwrurr",
"rrruurrerrtpprerrrrrrre=%<,,,,,,,,>,,><wrrrrrrrrprrrrwrrwrwrrwrr",
"rrrrrpprttrprurrrrrrru9%4daaaaaaaaaaaadpwrrrrrrrrrrrurrrrrwrrwww",
"rrurrrprrrpprprrrrrrru9%$*&&&&&*&&&&*%>urrrrrrrrrrrruprrrrrwwrwr",
"rrrtrrrrrrruutrrrrrrrr9%.XXX.X #XXXXXXX9prrrwrrrerrruuruuwuuuwrr",
"rrrrrrrrrrpuutrrrrrrrp9%X########OOOoXX7urrrrrrrewwrurrrwrwurrrr",
"rurrrrrreruapperrrrrrr9%X####X##X#.O@%+0prrwrrrrrwrruuwurwwwrwwr",
"rrrtrprtrrupttrerrttrp9%X########X=73347rrwwwrrrrrrruuwrrrrwurrr",
"rrprrptprtppttrertrrep9%X##O###O#.362=+O1prwrrrrrrrrrrrrwrrrrrre",
"rrpprpprpttprpterrtpru9%X##O###O#.421@  <arrwrrrurrrprrrrrrrwrew",
"trpprtrrrruprtrrrrureu9&X###OOX##X,r53539uwrrrwrurrrprrrwrwwwwrw",
"ttptprrrrupptuprrurrtu9%X##XOO###OX=:::eawrrrrrrrrrrrrrrrwrwrrrr",
"trtttrprupupptpttprrrp9&X#######OOOX...7urrrurrrprrrtrrrrrwwrrew",
"rrppuutpttpprpppturtpp9@X#X###X#OOXOOOX8prrrrrrrrrpurrrrrwrrrrrr",
"rrrtruuttpapuputtpttuuq;XXXOXXXXXoXoXX@rtrrrrrrwrrrrurrrrwrrrrrr",
"urrpttupuupptttrprprurpr99999999888888earrrrrrrrrruruprewrwrrrrw",
"utpprtpppptppppprurtrrrppappapppppppppurrrrrrrrrrrrrurrerrruwrww",
"rtrtrrttttppttttturtprrrrerrrrrrerrrrrrurrrrrrrrrrrrprrerwurrrrr",
"ptrturrurrpppppupupprrrrrptrrprprrruurrrrrrrrwrrrrrrpprrwrrrrrrr",
"utuputtptrppuptppppuprrrrppprrruiruuururrrrrwrrrrrrrprrrrrrrurur",
"pppppppptrtappptpputuprrppttrrrppirrrrurrrrrrurrrrrrpprrrrrrrwur",
"rpprpppptruprtputtutrptrtprttttttrruurrurrptpprrrrptpurrurrrrrrr",
"rputrtpppppptpttturrrurrtupppptruuuururrrururrrrrtrruurrrrrrruur",
"rruttrtpupppprrpppptutttpuutrrtyrrrrruruuurrerrrrrrruuurrrrrurrw",
"rrrrrtrtttppttrtypyypyyyyyrrryyttrpptrpuuurrrrprprrrprrpprrrrrrr",
"tttrretpyuppppprypypypyryrrrryryrrrtrrtttrprrrrrrrrrprrurrrrrrrr",
"rrriyryyrrpprpprppyypyyyyrrryyyyprrpprrupptpprrrrpurpprrrrrrrrrr",
"rrrpryeyrrrprtrtppyyyyryyrryreryrrrrprrppruurrrprrrrpyrrrrtrweer",
"rrrtrtrrrprppappayyyayyaayayyaayppapappaaapapppppppppurrrrrrrwrr",
"rrrertruurppptpuyyyayyrryuyruyyypppptppttuppptpppppturrrrrrrrrrr",
"uirtyyrrprrrrrrrryyryrrrrrrruyrrprrtttrtrrrrrrprrrrryrrrrrrrrrrr",
"rrtruurrrerrptttyyyyryyeyrrrurerurtrrrtrrrpprprrrrrrrrrerrrrrrr0",
"eeyeyeyeeerrreyyrrryrreerrrrrryrrrprrrrrrrryrrrryyrrrurw0rwrrwrr",
"yeyyeeyerrryryyyreyryreeruyrrrrrrrrprrerrrrrrrrryyrrrrrrrrrrrrrw",
"eeeyyeeyrrryyeryyryrerrerrryrrrrrrrrrrrrrrrrrrrrrrrrrrrrrrrwwrrr",
"yeeyyeyerrryyyrryrryyreerurrrrrrrrrrrerrwrrrrrrprrrrwrrrrrwrrrrr",
"eeyeerrerwyyertrrrrrrrrerurrrrrrrrrrrrrrrrrrrryrrwrwrrwrrrrrrrrr",
"eyeeryeyrryrrrrerrrrrrrerrrrrrrrrrererrerrrwrrrrrrrrrrrrrrrrrrrr",
"ryyerrrreyrrrrreerrrrreyyrrrrrrrrrrprrrerrrrrrwwrrrrrrwwrrrrrwwr",
"eeyeryreeewrrrrwerrrrrrrrwrrrrwrrrrrrrrerrrrwrrwrrrrrrrrrrrrrrrr"
};
