/* XPM */
static char *_1711898836[] = {
/* columns rows colors chars-per-pixel */
"64 64 105 2 ",
"   c #DD3D75",
".  c #D73E7E",
"X  c #DA3D7C",
"o  c #E43F66",
"O  c #E23F6B",
"+  c #BE5B76",
"@  c #BD577F",
"#  c #BD5A7B",
"$  c #DF4F55",
"%  c #DC4D5E",
"&  c #DD5255",
"*  c #D9525A",
"=  c #E74557",
"-  c #E94654",
";  c #E34C54",
":  c #E4455D",
">  c #E84458",
",  c #E14A5B",
"<  c #DE4765",
"1  c #DC4A63",
"2  c #DC446C",
"3  c #D44C6C",
"4  c #D94968",
"5  c #CE5566",
"6  c #CD536C",
"7  c #C8586C",
"8  c #D35363",
"9  c #D85060",
"0  c #D15269",
"q  c #CD4D75",
"w  c #CF457E",
"e  c #CB4D79",
"r  c #DA4273",
"t  c #D24B72",
"y  c #D6417B",
"u  c #D84179",
"i  c #C35775",
"p  c #C95275",
"a  c #C25973",
"s  c #C3547B",
"d  c #C0587A",
"f  c #E34363",
"g  c #E04960",
"h  c #E1406A",
"j  c #CF3B8F",
"k  c #DB3486",
"l  c #D53C84",
"z  c #D83984",
"x  c #D5378B",
"c  c #DA3488",
"v  c #D13B8C",
"b  c #C73F96",
"n  c #CE3B91",
"m  c #D33690",
"M  c #D03A90",
"N  c #BC5585",
"B  c #B25F85",
"V  c #BB5488",
"C  c #BC4B94",
"Z  c #BC459E",
"A  c #B8489F",
"S  c #AA569F",
"D  c #B35594",
"F  c #9B669E",
"G  c #946D9D",
"H  c #99699D",
"J  c #92719D",
"K  c #A5678F",
"L  c #AB638B",
"P  c #A36592",
"I  c #A2609E",
"U  c #9F5EA7",
"Y  c #9D5CAB",
"T  c #965EB3",
"R  c #995CB2",
"E  c #B547A4",
"W  c #B946A1",
"Q  c #B549A3",
"!  c #B848A1",
"~  c #B24AA8",
"^  c #A556A7",
"/  c #A25BA6",
"(  c #A554AB",
")  c #A950AC",
"_  c #A15AA9",
"`  c #9C63A3",
"'  c #956BA1",
"]  c #9868A0",
"[  c #9365AD",
"{  c #9A61AA",
"}  c #9170A0",
"|  c #8D66B4",
" . c #8A69B6",
".. c #866ABB",
"X. c #8969B8",
"o. c #9262B4",
"O. c #9161B8",
"+. c #CD4681",
"@. c #C44C85",
"#. c #C94883",
"$. c #C14B8D",
"%. c #C05086",
"&. c #C54196",
"*. c #C84095",
"=. c #C1429A",
/* pixels */
"v v v v v v v v v M z @ ^ v v v z *.z z *.z x x *.x u L ! z *.+.z c z *.z c *.x v M > J Q k v v n n n v n M n M n x B o.c n M n ",
"v v v v v v M v v j . N ( x v v *.z z *.*.z +.x x *.z P ! z *.c z *.*.c x *.x *.M *.> } ~ x M M M v j M n v v v v x # O.k M j M ",
"v v v v v v v v v n z N ( x v v *.z *.z z *.z z z *.u L ! z *.c *.c z +.x *.*.c M M > J ! x M M v v v j v v v v v x @ o.k n j v ",
"v v v v v v v v v v l N ^ v v +.z *.z z *.z z *.x x u P Z z z *.z *.*.z *.x x *.v M > J Q z M M M v j v v v n M v x # o.c n M n ",
"v v v v v v v v v v x N ^ v v v *.z *.*.*.x z *.*.x h P E c *.z c +.z z z x M x M n f H Q k v v v n n v v v j v v x # O.c n n M ",
"v v l v v v v M v v l N ^ x v v z z z x z *.z x z *.z P ~ z z *.*.z *.*.x *.x *.M n f P ~ z v v v v j j v v n v v z @ o.c n v v ",
"v v l v +.v M M v v z V _ z v v x *.*.z z *.z +.x x z L Q z *.z z x m x M M *.x m M h P E x v v v v v v v v n v v x @ o.x j v v ",
"v v v v M v v v v v v V _ v v v *.z z *.z z c *.+.*.h L ~ c *.z z *.+.*.x m +.x +.M h K ~ z v v v v v v v j v v v x d R c v v v ",
"M x x *.x m v v +.M x N { x +.x *.z *.z x *.*.z *.m u L Q c c +.+.x *.+.+.m x x *.x h K Q l +.M v v v v j v v v v x d o.x v v v ",
"+.m +.x +.+.v v v v x %._ v v v x z c +.x z x z *.m h L ~ k *.z z x x c x m *.x x *.h K ~ x M m v v v v v v v v v x d R k v v v ",
"m x +.m m x v v v v z %.{ x v v z *.+.z *.z x *.z m h B ~ +.x *.z *.*.z x +.x m x M h K ~ x m +.v j v v v j j v l x s R z v v v ",
"M M M M M M M m v v v %.{ x v v *.m c *.z *.*.z *.M h L ~ c *.x *.x z *.*.x M +.+.M u K Q x M v j j v v v j v v +.x s R v n M n ",
"+.u u +.u +.z +.+.+.+.@.{ x *.x z +.c x z *.x *.z M h i $.z u +.u u +.z u u +.z z +.h P ~ x v v v M j v j M M v v v p D X u u u ",
"g > g > g g h f f f > 6 { x m +.*.x x *.*.z *.x *.x r 9 4 f g 2 f f g h g f f h f f - P ! x M v M M v M v v n v v v 1 3 h g , 1 ",
"z +.+.z +.z x z z x h 0 { z x +.*.z *.x z z +.x z *.h L =.+.z *.+.+.x +.+.x +.+.+.+.f ] ! x *.M M M j v v v j v M m t / j v v l ",
"x *.M x M x *.+.M M +.0 o.k +.x z *.z m +.x z z *.*.2 I =.k *.x m x x x M M m x M m o ] Q x v v j j M M v v v v v v 3 / &.v M n ",
"x *.x *.x *.z x M x +.8 o.z x +.x x x +.x x x *.x M h P W z *.z l v v v v v v v v n f } Q z n v j j j j v v l l v j t U b x j j ",
"+.x m +.*.z z *.M M z 8 { +.+.x x +.*.x x *.x z *.M h P W z c +.v v v l v v v v v n o } Q x n v v v v v v v l v j v t / b x j j ",
"m *.x M x z x +.m M +.8 o.x +.z x x *.m x *.*.x +.m u P E z *.z v +.v v v M v j M n O G Q z j j v v v v v v v v j v 3 U b v j j ",
"x x +.x *.*.x m +.x z 0 o.x x +.+.x z +.+.x x +.x M   L ~ x x *.v v v v v v v v n n f G Q x n v v v v j j v j M j x q U b v j v ",
"*.x x z x x *.x +.m +.8 | x M m M m z *.m x +.m z x u B ~ x x *.v v v v v j j v n n O H A x M M j v v v v M j v j x t _ b l v v ",
"z z *.*.+.m +.x x x k 9 | x x m x +.x M x *.x x *.x u B ~ c *.x v v x v v m v j v n r F ! x M v j v v v j v j j n x q _ b x v v ",
"*.z *.z *.z x *.z *.+.8 | *.x +.*.x +.m M M *.x +.m r B ) x +.x v v v +.v v M n v n 2 F A x j v v j v v j v v M n m t Y b v v v ",
"*.x M x z *.x x z *.z 9 | k M +.x +.x x *.x m +.z *.u N ( x x z v v v x v j v v M n r ` Z x j v v j v v v v v v M M q / b v v v ",
"z z x +.x +.m M +.M +.9 | x *.x x *.z *.*.z x x *.x u p ( x *.*.v v v v v v M v n M X U Z x j n v v v v v j n v v x q _ n v j v ",
"x *.x M *.x x M m x +.9 o.z +.m *.z x z x *.+.m z *.z 7 R x x *.v M v v v v M v j M t U =.v n j n v n v v v M n j M e / b x n n ",
"+.x M x m M m +.v x z 9 | *.*.x z *.*.z z x +.x +.x u 6 { x M m v v v v v M M v j v w U b v j v M j v j v v v v n x e / n v n M ",
"m *.x *.+.M x x v m +.* | z x m *.x z *.*.M x z x x +.5 o.x x +.v v v v v v v M j x +.Y b x v v x j v v v v n v n v p ^ M v j v ",
"x *.M x x *.M *.v M u 9  .x x +.z z x *.z x *.z *.x u 8 | x z x v v v v v v v M n m #.Y n v v v n n j v v v M n n M p ^ v v v j ",
"+.x m +.x M M x m +.u * | x M +.+.x c +.m +.z *.+.x u 9 O.+.*.z v M +.v M v v v n m @.Y j M j j n n j j M M v n n x p _ M M v n ",
"m x *.x *.m x M x m +.*  .x +.x m x +.*.*.*.z x M x u 9 X.x +.*.v v v v v v v j n v @.Y x j v v n M v n M M M M M x e Y m n n M ",
"M x *.z x +.x +.+.m z 9 ..x M M x *.x x z x *.z x *.r 9 ..m m x v v v v v j v v n x @.R M j M M M M M n n n n M n m s _ m n v v ",
"+.x x z *.z z *.x +.u ; p g g g , , = , , ; , ; , g ; 9 | c z *.v v v v v v v v M v w e r 2 2 2 r r r r r 2 2 2 4 f p R x j n j ",
"M x *.*.z *.x x x x +.; %.u 2 r r r r h u u u l z +.r * | k *.z v v v v v M v v v n 2 i t 2 < < 1 1 , , < < < < 1 : 7 R x j v j ",
"x M *.x x *.x *.*.x z ; o.*.*.z *.*.m *.*.z *.c +.M z &  .x *.z l v v v v M M M M n h ' ! z n M n v M M M M M M n z i R x j M M ",
"M M x *.x z m +.+.x +.; o.+.z *.z z z *.x +.x z *.m +.* ..x *.x v v +.z v M M v v n f ] Q z v M M v v j n v j v j z + R z j M M ",
"M x +.M x +.x z m m z & | *.z x *.z *.c *.z z +.z x z & ..x *.x v v v v v M M M n n f G ! x v M n v v v j v v v j z # T c n j j ",
"*.x *.x x *.M *.+.m z * | x +.z z *.c *.x *.*.z *.z +.* O.+.x +.v v v M v M M M M n f ' Q v n n M v n n v v v n n k + T c n j j ",
"+.*.x +.x M x z z *.+.& | x *.z *.M *.z m x x m z *.z & | x x M l v +.M v v v M j n f ] ! x n v M v v M j v n v n x # o.k j v j ",
"m x x m M m +.*.z *.z * | z z *.z z *.x +.x *.+.x x +.* | c *.+.+.v v v j M M M v v f ] ! z j v v M M v v n n v v x # T k j v v ",
"x *.*.z x M x *.*.x +.* | x z x x *.z *.z z z *.+.M z * | x z x m v v v v M M v M n f ] Q x x v n n v v v n v M j k # O.x j v v ",
"x z x z +.m z *.x M z % | x *.z *.x *.z x *.*.z x M +.%  .x *.m v v +.x v M M M M n f H ! z v n n M M v v v j j j x @ O.k v n M ",
"+.*.x *.*.z z *.+.M +.9 | m *.*.z z *.z *.z z *.+.m +.9  .x +.+.+.x x v x M v M v M f ] ! x n v v n v j v n v v j x # o.x n v v ",
"m x *.x z *.x z x x z 9 | +.z x x *.z *.z *.z z x M X 9  .x M x M v v v M +.M M v M f H W v M M n n M n n v v v n z # o.k n v v ",
"m +.x M x *.z *.+.m x % [ x *.*.x +.*.z z x *.z +.m z 9  .x v v M x m x M +.v M M n f H A z M v v n n n v v v v j z # O.k n j v ",
"x x *.x *.z z c z *.x 9 [ x z x M x z *.*.z z *.v v +.9 | z v m M v +.v M m v M v n : H W x M v v v v v v v v l j z # T k v x n ",
"*.x +.m z *.*.z *.x +.9 [ *.*.x x *.x x *.x z *.v v +.0 | x +.M M M x v M M M x n n , ] W m v v n v v v v v v v v z # o.k j j j ",
"m +.z *.x x z *.x x m 1 U *.x m +.x *.x z +.x x v M z 8 | x v v +.M v v M x M *.n n g ` W x v v v v v v v v v v v X + O.c j v j ",
"x x +.m x +.m *.x M v 1 ` n v M v M v v v v v M M M z 0 | v v v v v l v v v v v j n % F Z x j v M j v j v v v v j X + O.c j v v ",
"x *.x M *.x x M M M v 4 ` *.v v v v v v v v v v M v +.5 | x v v v v v v v v j n n n f ` Z x v M M M M v j j j j n z + O.c j v j ",
"+.x +.m M M x x M M v 1 I *.v v v v v v v v v v +.v z 0 | M M M l j v v v v v M M n < ` Z x n v j M M v x n j j n z a T x j j n ",
"m *.x M z *.M *.v M M 4 I *.v v v x +.v v v +.m M v z 8 | x M +.v v v v v v v j M M f ` Z v n M j M M M j j n j n X a T x j v n ",
"M x +.M x *.x *.v M v 4 I b l v v v v v v v +.v v M z 9  .x v x v v v l v j j v v M < { Z x n j j j j j j M x j v . i R k n M M ",
"M M x *.*.x x *.v M M 4 ` b x v v v v v x v v v v v +.8 ..x v x v v v v n n j j n M 1 ` =.l j n v v M M M j j j M z a T x M M M ",
"2 2 h 1 f g g g < 2 2 9 { *.v v v v l v v v v v z v l 9 { z y +.+.y +.l l l v v j n 4 U &.v v j j v M M j M M j n z 6 D   r r 2 ",
"; ; ; ; - ; ; ; ; , = & [ M v v v v v v v v v v v M l 1 0 , , $ , , , = , , , 1 1 < % U &.x j j v v j j M v M j j v ; * % ; ; ; ",
"u u y u y . . l v v +.% o.v v v x v v v v v v v v v z s S . . u u u r r r r r r r r 1 U &.v j v v j n M v v v v v v - P C X y y ",
"j v j v v v v j v j l 9 | v v v v v v v v v v v v v . s R v j M v v j v j M n n n m 3 U b v v j M M v v v v v v v j ; ' Q x n M ",
"v v v v v v v v v M l 1 | x v v +.M v v M v v v v v z i Y x v v v v x v j M M j j v 3 U b v j v v n v v v v v v v j = H W x M v ",
"j v j v v v v v v +.l 9  .v v v v v v M v v v v v v l s Y x v v v v v v n n v j v v 3 / j v j j n M v v M M n v v j = H ! v n n ",
"j j v v v v j v j j z 8 | v v v v v v v v x v v v v z d R x v v v v v v v n M M n M 3 { n v v v j M j j v n n M n n , ` Z x n n ",
"v j v v v v j v v n l 8 | v v v v v v v v +.x v v v l s Y x v v v v v v v M n v j m q Y n v v v v v v j M n n v v v : F Z x n v ",
"v v v n v j v v v v l 3 X.x v v v M M v v M v v M M l s Y v v v l v v v n v n M n m 6 Y n j v v v M v v v v M n v n g ` Z v j M ",
"v v v M n j v v v v l 6 | x v v M v v v v v v v v +.z %.Y l v v v j v v v M M M n x 6 U j j v v j j v M M n n M n n = ` W x n j "
};
