/* XPM */
static char *_1711733664[] = {
/* columns rows colors chars-per-pixel */
"64 64 50 1 ",
"  c #DF1E87",
". c #DF1F88",
"X c #E01F88",
"o c #DF2087",
"O c #DF2189",
"+ c #DE2A8D",
"@ c #DD308F",
"# c #DF2F90",
"$ c #DE3191",
"% c #DF3B95",
"& c #E02189",
"* c #E03291",
"= c #DD4297",
"- c #DF469A",
"; c #E0459A",
": c #E04B9D",
"> c #E2519F",
", c #E154A1",
"< c #E15AA4",
"1 c #E464AA",
"2 c #E46AAB",
"3 c #E574B1",
"4 c #E67EB6",
"5 c #E87CB6",
"6 c #E87EB9",
"7 c #E980BA",
"8 c #E98ABD",
"9 c #EB8FC0",
"0 c #EA91C1",
"q c #EB9AC7",
"w c #EE9EC9",
"e c #EFA2CB",
"r c #EFA8CE",
"t c #F2AED1",
"y c #EFB3D3",
"u c #F2B2D3",
"i c #F3B9D6",
"p c #F4C4DC",
"a c #F4CBDF",
"s c #F5CDE1",
"d c #F8CFE4",
"f c #F7D5E5",
"g c #F9D4E5",
"h c #F7D8E7",
"j c #F9D8E7",
"k c #FBD7E8",
"l c #FAD9E9",
"z c #FCE3ED",
"x c #FDE7F0",
"c c #FDEAF1",
/* pixels */
"gggdaggaggggggggggggdgggggggggggggggggggggggggglglgggggdgggggdgg",
"ggddggdggaggggdggddggggddgagggggggggagggjjgggjgglgggggggggggdggg",
"ggaggddggaggggggdggddgggaggggggggggggggggggjjggggglggggggggggggg",
"ggagdggdggggggdgggdggggdggagggfggagggggjjgggjggggggggggggjgggggg",
"gadgddgggggaggdgggggllfgggggggggggggggggdggggggjgggggggggggggggg",
"gggddgdgagggdgggggdgfgggggaggggggggggggggggggggggggggggggggggggg",
"ggaddggggggdggdggddgdgggggggggggggjgjggggggggggggggfgggdgggggggg",
"gdgggdgggagdgdgddggggggggagggggdggjgjjgggggjggggggddgggggggggggg",
"gaagagaggggdgggggggdgggggdgggggfgjgggggggggggjjgggggggggdggggggg",
"ggggggggggggagdgggggggggggggdgggjgggggggggggjgggggddgggggfgjgggg",
"gaaggggggggggagggggadggggggggggdgggggggggggggggggggggggggjgggggd",
"ggggggggdgagggdgggggggdddggggggggjgggggfgggggggggggggggggjgdgggg",
"aggggdggagggggdgggggddggggggffdggggggggggggggggfgdggggggggdggggg",
"gggagggagggggggdggggggdggggdffgggggggggggggggggggggggggggggggggg",
"gggggaaggggggggzzzlzzllzzllzlzzlzzzzzzzjzjzzzzzzzgggggggggggjggd",
"gggaggggggfggxzu88888888888888897878788888878878pzgggggggggggjgg",
"ggdggaggggggzd<+OOOOOOOOOOOOOO.OOO..OO..OOOOOO&&:ljggglggjfggggg",
"dgggggggdggkz>o&OooOOOOOOOOO.O..OO..O...OOOOOOOO:zlggggggfdggggg",
"gggggggggdgzyoo+38888899888909908098999808888880dzggglggddggggdg",
"gggggggggggz8 O4zzzzzxzzzxzzzzlzzzzzzzzxzzxzzzzzzglggggggggggggg",
"gdgggggggfgz6oO7cxxxzzzxxxxzzzzxzzzzxxlxxzzzzzzlgggggggggggggggg",
"aggggggggggl6oO#8weeeeeweeweeeereeeeereeeeeeeeufzgggggggggdggggg",
"gggggggggggz6 oO .OOOOOOOOOO&&OO+OOOOOOOOOOOOOO;pzjfgggggggggggd",
"ggggggggfggz6 oO..OOOOO.OOOOOOO&.OOOOOOOOOOOOOOO>clggggggggdgdgg",
"ggggggdggggz6 o&OOO.&&&&&&&&&&&&.OOOO&&&&&&OOOOo@jjgggggdgggdggg",
"ggggjgggjgjz7XoO.OOO&X&&&&&&&&&&OOOO&&&&&&&&oO&o*fzgagdgggdggggg",
"gggggjjgjgfz7 oX&&OO&+&&&&&&&&&&OOOO&&&&O&OOOoo&*jjgggggggdggadg",
"ggjggjjggjgz7 o&&&OO&&&&&&&&&&&&OOOO&&&&OOOo&&O&@hgggggggggdggag",
"gggjgggggggz7&o&X&&&&&&&&&&&&&&&&&&&OOOOoooooooo@hjfgggggggggagg",
"gjgjjggggggz7&o&&&&&&&&&&&&&&&&&&&&&O&.Ooooo  oo@jjggggggggggggg",
"gjgfggjggglz7XXXX&&&&&&&&&&&&&&&&&&&..&O:22221223zjjggdgdggadggg",
"gjgjjjgggllz7X&&&&&&&&&&&&&&&&&&&&&X..#ezccccccccczzgggggdgggggg",
"ffkkkllkgllz7 O&&&&&&&&&&&&&&&&&&&&&OO5cze211111111ezggggdgggggg",
"gfklgkkfjggz6 O&&&&&&&&&&&&&&&&&&&&&&Otc0O--..    O$glggggggggga",
"lfllhfggkkgz7XO&&&&&&&&&&&&&&&&&&&&&OOuf=3hh<..OoOO@dgggddaaggga",
"fllllkhgggjz6XoX&&&&&&&&&&&&&&&&&&&&OOud$qcc6.O.OOO@ggfgggggdggg",
"lglhfklggllz7Xo&&&&&&&&&&&&&&&&&&&&&O+uz>-iy%OOOOOO$flggggddgggd",
"gfglgkhkjjlz6 o&&&&&&&*&&&&&&&&&&&&&OOwcp-+#O+OOOOO,lggggdgggggg",
"kggllllggllx7XOX&&&&&&&&&&&&&&&&&&&&OO,lclitutttuuyjzggggdgggggg",
"klfllflllllz7 O&&&&&&&&&&&&&&&&&&&OOOOO1iasaaaaafzzlggggdgggggdd",
"lfkkfklhlllz7 O&&&&&&&&&&&&&&&&&&&&& OO&O$$@$@@$;jlgggggggggggdd",
"fkkhfhflfllz7 o&&&&&&&&&&&&&&&&&&&&&O&oOOOOOOOOO*glgggggdgjggggg",
"hhkflhlllgkz7 O&&&&&&&&&&&&&&&&&&&&&&O&X&OOOOOOX@jlgggggdggggjgg",
"lhlllflkfgfx7 O&&&&&&&&&&&&&&&&&&&&&&&&&&&&&&XO&@hlggggggggggggg",
"hllhlllllggz7 OXOOOOOOOOoOOOOOOOOOOOOOOOOOOOOOo&@hlggggggggjgggg",
"lllhllllfflx7 OO.&.OOOO&ooOOOooOOOOoOOOoOOOOOXOO@hljlggggggggggg",
"fkkkflllkllz8.O.O..O.OOOooooooooOOO . OOOOOOOO.o*llhlgggggggggjg",
"ffkkhffllllzp@O&.&&XX&&&&&&&&&&&&&&&&&&X&&&&Xo&O7zjgglggggggjggg",
"gfgggjgjjjklzu:*@@%@**@**@************$$*****@*7zljggggkgkgkkggg",
"lkfkjfjjjjlllczjjjjjjjjfjjjjhhhhhhfhhhhhfhjjjjzzzfjgljggjggggggg",
"glflgggjgkggflllzjzjzjzjzgjjlllllllllllllljllljgkggggjgfggjggdgg",
"ggggjjfgfggjglfhjjgjfjfggjgjgfjggkghkkkkljjjjjggkggkggjgggjggggg",
"gggfjlglkgggllfljgjjjfffggjgggjjggllllflllljggjgggggjggggggggggg",
"gfggjggjlljljggjjjjjjfgfggggjljlljlgjffljjgljgjggggjgjgggggggdgd",
"khkghgggggggkfgjjjjjjjffgjggjjjgljgllkgfflljgjjglgggggggggggdgdg",
"ggjfjjggggggghgljjgjgjfggggjggggljgggfljfglgjjggggggjgggggggggfd",
"ffjfffjgggfggjjggjgjggggggfggggjggkggggggggggggjggggggggdggggdgg",
"ffjjffjjfggggjjjjggggjgggjgjgggggggkgggkggggggjjgggggggggddgdggg",
"ggjfjfgjggjjhggjjgjfjfgggggggggggkgggggggggggggggggggggggdgdgggg",
"gfffffgfhgjgjjfgfgffjgggggjggggggggggfgggggggggjggggdggggjgggggg",
"gggjffgfgggjgfghgggfffggggggjgjgggggggggggggggggggggggggggggdggg",
"fjgfjffffjggggggggggfgfgjggggggggggggggfgggggggggggggggggggggggg",
"ggggjgggfgffgggfggfgfgggggggggggjfgggggfgggggggagggggggagggggggg",
"ggjjggggggdggggdgfffgggggggjggggffggggggggggggggfggggggggggggggg"
};
