/* XPM */
static char *win_wall1712085563[] = {
/* columns rows colors chars-per-pixel */
"64 64 190 2 ",
"   c #DB3E6E",
".  c #DD3C75",
"X  c #D63E7E",
"o  c #D93C7C",
"O  c #E33F67",
"+  c #E13F6C",
"@  c #BD5B7B",
"#  c #DF4F55",
"$  c #DF475E",
"%  c #D64E5F",
"&  c #DB4E5D",
"*  c #DD5255",
"=  c #D5535C",
"-  c #DA535A",
";  c #DA585D",
":  c #EA4757",
">  c #E34C54",
",  c #E3455D",
"<  c #E94759",
"1  c #E14A5B",
"2  c #EB515A",
"3  c #CE4E6D",
"4  c #DD4664",
"5  c #D54D62",
"6  c #DC4963",
"7  c #DC446C",
"8  c #D34D6C",
"9  c #DC4B6A",
"0  c #CE5566",
"q  c #CC546B",
"w  c #C8586B",
"e  c #D35363",
"r  c #D95260",
"t  c #D65A62",
"y  c #D1526A",
"u  c #DC5D6B",
"i  c #CD4C77",
"p  c #CD4C78",
"a  c #DA4273",
"s  c #D24A72",
"d  c #DB4977",
"f  c #D6417B",
"g  c #D8437A",
"h  c #D0497C",
"j  c #C35775",
"k  c #CA5174",
"l  c #C35974",
"z  c #C3547B",
"x  c #CB557D",
"c  c #C05878",
"v  c #D75671",
"b  c #E34363",
"n  c #E04960",
"m  c #E1416A",
"M  c #E64A6D",
"N  c #E25665",
"B  c #E75467",
"V  c #E04070",
"C  c #E25A72",
"Z  c #E25F79",
"A  c #D2617D",
"S  c #DF6478",
"D  c #E46170",
"F  c #E26E7C",
"G  c #F27B7F",
"H  c #CF368C",
"J  c #CF3A8F",
"K  c #D43586",
"L  c #DB3486",
"P  c #D53C84",
"I  c #D83A84",
"U  c #D4378B",
"Y  c #DA3489",
"T  c #D13B8C",
"R  c #D93B8B",
"E  c #CE3691",
"W  c #C73F96",
"Q  c #CE3B91",
"!  c #C73E98",
"~  c #D33690",
"^  c #D03B90",
"/  c #AE5B84",
"(  c #BC5585",
")  c #B35F84",
"_  c #BC4B94",
"`  c #B7449E",
"'  c #BC459E",
"]  c #B8489F",
"[  c #A05F9E",
"{  c #B35594",
"}  c #9E6995",
"|  c #9C669E",
" . c #936D9D",
".. c #99699E",
"X. c #A4648E",
"o. c #AC638B",
"O. c #A46592",
"+. c #A6649F",
"@. c #A26E9B",
"#. c #BE6492",
"$. c #A6719E",
"%. c #BE7F9D",
"&. c #9E5DA4",
"*. c #9D55AB",
"=. c #9D5CAB",
"-. c #965EB3",
";. c #9A5BB2",
":. c #AF4CAA",
">. c #B547A3",
",. c #B946A1",
"<. c #B549A3",
"1. c #B848A0",
"2. c #B24AA8",
"3. c #A456A7",
"4. c #A25BA6",
"5. c #A555AB",
"6. c #A950AC",
"7. c #A15BA9",
"8. c #B851A7",
"9. c #B658AC",
"0. c #8E63AF",
"q. c #9C64A2",
"w. c #956BA1",
"e. c #9868A0",
"r. c #9364AE",
"t. c #9C61AA",
"y. c #8D66B5",
"u. c #8A69B6",
"i. c #8769BA",
"p. c #896AB9",
"a. c #9261B4",
"s. c #9A62B2",
"d. c #9F68B0",
"f. c #9161B8",
"g. c #996BBA",
"h. c #8D71BC",
"j. c #987CBF",
"k. c #AB63A6",
"l. c #A469A5",
"z. c #A867B0",
"x. c #A26CB1",
"c. c #AB75B5",
"v. c #C44D85",
"b. c #CB4983",
"n. c #D64285",
"m. c #D74882",
"M. c #DB4C85",
"N. c #D3418E",
"B. c #D8408C",
"V. c #DB4989",
"C. c #C35C80",
"Z. c #C95C87",
"A. c #C35589",
"S. c #DC5284",
"D. c #DF5B8C",
"F. c #C54297",
"G. c #C84095",
"H. c #C2439A",
"J. c #CF4398",
"K. c #D24493",
"L. c #D54B95",
"P. c #D94A95",
"I. c #D04699",
"U. c #D44D99",
"Y. c #D65195",
"T. c #DC5396",
"R. c #DA5A90",
"E. c #D6539B",
"W. c #DA5499",
"Q. c #D7589E",
"!. c #D85B9D",
"~. c #E04881",
"^. c #E45B8F",
"/. c #C76685",
"(. c #C26F9B",
"). c #DA619F",
"_. c #D657A0",
"`. c #D65CA3",
"'. c #D85CA1",
"]. c #DA63A3",
"[. c #DB68A7",
"{. c #D964A8",
"}. c #DC6CAA",
"|. c #DD73AD",
" X c #E16AA8",
".X c #E07EB1",
"XX c #AA7BC0",
"oX c #BF85A2",
"OX c #A986B2",
"+X c #CE8CAE",
/* pixels */
"T K.T T L.T J T J T I @ 3.P T T T T T T T T T T P J . @.<.I T T P T K.Y.T ^ Q T T E ^.OX` X J J J Q J J Q ^ Q T Q U @ y.Y Q U.^ ",
"].E.T T L.T J T T Q I ( 5.U T T T T T P N.T T T T J o O.1.K T N.T T n.Q.T Q J Q E J.2  .>.K J J J T J T ^ T ^ T Q Y ( y.Y ^ K.Q ",
"N.N.T T J T T T T J I ( 3.U N.T T n.T T P T T n.T H ^.OX` I T N.T T P T T T Q T T K.2  .>.K J Q J T T J T T T T T Y @ f.L Q Q ^ ",
"T T T T T P N.T T T P ( 3.T T T T T T T T T T T T T ~.$.] K T T T P T T T ^ J ^ T J <  .>.K J Q ^ N.J T T T Q Q T U @ g.L Q ^ J ",
"T N.T T N.T T J T T K ( 3.^ T T J T T L.P J P J P J . X.1.U T T T P P T T Q ^ Q Q J.b ..<.I T T T J J T T T Q T T U /.XXU Q Q ^ ",
"N.[.T P T T T J T T B.#.3.R T T T P T Y.T N.J N.T Q . O.<.K T T T N.T T T Q ^ T T Q b } <.K T T T T K.^ T T T Q K.Y @ a.Y Q ^ T ",
"K.T T T T T T J T J B.#.3.K K.L.T T T P T T N.K T J . X.<.K T K P N.T T T T ^ L.T Q m O.<.R J T T T ].K.T T Q T N.U c f.Y J T K ",
"N.T T T T T T T T T T.(.z.T N.N.J T N.J T P N.).T J . X.2.R T !.N.K T T T Q T ^ !.K.m O.<.U L.N.T T T T T J T T T R c a.Y J T _.",
"T T T T T T T T T T U ( =.U N.T P J N.J T T n.E.T Q . oX9.K K }.L.J J P T T T T T Q O X.9.T.J T T T T T J T T T T U /.g.Y T T ].",
"T T T T P N.T T P N.U ( l.U T N.N.J J P T T J K T ^ a %.8.K N.K T P N.T T T T T T Q 7 X.8.R J T T T T T T T T T T U C.s.I J T J ",
"T N.T T J T T T K E.Y.A.c.K T T !.L.N.L.T J T T T T m / 2.K T T T P P J T T T T T ^ + O.<.T T T J J T T T J J T P U c ;.U T N.Q ",
"Q T J ^ K.T J J J N.T A.x.T J T N.N.T N.P J J T T Q m o.:.T T T J T T J T T T K.T I.a X.2.U T T T J T T T J T T T U +Xs.U Q U.K.",
"g g g f X X P P P X o Z.d.T J T T P J T T T J N.N.Q   j _ . X n.f f g o f X n.R.I P M $.<.K T T J J T T J E.K.T T T x { . g g o ",
"$ 1 D N $ C 9 4 6 4 1 q =.P T T J T T T T J K Q.].H a r 9 4 9 9 4 6 4 6 6 6 6 6 6 $ 2 w.1.U Q T J T J Q J L.J.J T T 4 8 9 n 6 $ ",
"P P n.P P n.n.P P T a 0 a.P P T P T T P T T T P N.^ m O.] I ).Y.K P T n.P P P P P n., ..1.U ^ T Q E T Q T T T J ^ ~ 8 k.E.T T P ",
"T Q Q Q T J J T T J o 0 a.P P P N.T T J T P T T T ^ + } ` I J T T T J T J J J T T Q O  .<.U Q ^ T ^ Q T T T T T T T s &.W T ^ T ",
"T J T T T n.T T T T X e a.I P P J N.T K.Y.P J J T ^ m O.1.K T P P T T P T T T T T Q b  .1.U Q T T T Q J T T P P J T s 7.! U Q Q ",
"T J T T T T T J J J X 0 r.I N.P P N.L.K.Y.J J J T ^ V O.] R T T J N.T T T ^ T T J I.M  .1.R Q T T T T T T T T P J T s l.W T Q T ",
"T T T T J T T T H Q X 0 a.K n.P P N.N.T K.J J J T ^ + O.1.I T T T K T T T ^ T ^ J Q O w.2.I Q T T T T T T T T T Q T s &.G.U Q T ",
"T T T T N.N.T T T J I 0 y.P T P P J J K E.L.K n.T Q . O.2.U T T L.L.K T T T T T Q Q m  .1.U Q T T J T T J T J T J T s 4.G.T J T ",
"T T N.T N.N.T J T Q o t u.N.T J J J T K J T N.T T J a o.2.T T T L.L.P J T U.T T Q Q 7 ..] U ^ ^ J T T T T J Q T T U s &.G.T T T ",
"T T Y.N.T T N.T T J P e a.K N.T P N.T T J N.L.P T T . ) 2.T T T J K J K E.}.T ^ J Q 7 | ,.R ^ T T T T K.K.K ^ T T T h 4.! T T N.",
"T T J J T J N.E.K.T P e u.K Y.L.K J T J J J.L.J T J . ) 6.T T T T J J n.T J ^ Q T ^   | ] T T T J T Q K.L.T J Q J ~ h &.! T K.Y.",
"T T J L.Y.K J E.T T X t y.I J N.P J L.E.J K T J R ^ . ) 6.U T T T P J J T T T T Q ^ a q.' U Q T T J J T T T H U._.H h 7.W T T T ",
"T J T L.E.L.E.K J J X = y.U T T J J L.L.T T J T T J o j 5.~ ^ T T T T P J T Q J Q E g q.' U J Q T T T T T ^ H K.L.~ p 7.Q T Q J ",
"T N.T T K !.].H J J P = u.U T T N.P K J J J T T P L.D.l 7.T ^ T T J T T T J T T Q T g t.H.T Q Q Q J J T T ^ ^ H K._.p 4.Q T ^ Q ",
"J N.J T T T H K.K.Q X = u.I T T T J J J N.P T T K J.M.q t.T J T T J P T T Q Q T J J ).x.W U T T Q T J T T T T J ^ ^ k z.Q T U.J ",
"T T J T T T J L.E.J X = p.B.T T T J Q.n.T J P T J H o 0 a.T T P N.T J T T T T ^ Q K p =.W U J T T J T T T T T T Q U k 3.^ T T J ",
"T J J T J J T T T H . = h.L.T P P J N.N.T T J P P J o 0 y.T T T T T T T T T T T ^ ~ b.=.Q T N.^ Q J T K.K.T ^ Q Q ^ k 3.^ T T Q ",
"T T J N.K.T T T H E.M.= u.K K.P T T J P T T J P N.J o t u.K T T P T T T Q J T J Q ~ v.=.Q T U.K.E ^ E K.U.H ^ Q Q U k 5.U Q T Q ",
"T T T N.N.T T L.N.E.M.= u.^ .XU N.J T N.P T T N.P J d t y.U T T T T T Y.^ Q T T ^ U v.=.T T T ^ ^ ^ T Q ^ ^ ~ ^ ^ U z 7.~ Q Q Q ",
"J T T T T T T L.L.J o = i.U K.T P J T P J T T T J J S.t u.U N.T T T T E.T T T T Q ~ v.-.^ T T ^ Q ^ E Q Q E Q ^ Q ~ z 7.~ J ^ T ",
"T T T T T T T T P T g * k $ 4 1 # 1 1 1 1 1 & 1 & $ 1 - u.U T T T T T K J.N.T J T T p x . 7 a 7 7 a a a d a 4 7 7 b k ;.U ^ ^ ^ ",
"T Q T T N.T T T T J o > ( g a a a a 7 a a g a g g X a - u.K T T n.T T T Y.K.T T Q Q V /.i 7 4 6 6 6 $ , C 9 4 4 4 1 w ;.U T Q T ",
"T Q Q T T T T T T J X * a.W ^ Q Q ^ J T T K T J T ^ P - u.T N.T T J T P T E J T T Q m w.] U T ^ Q T J Q `.K.H E K.T.l -.U K.{.H ",
"^ ^ J J J T P T T T o * r.T n.T T N.T T N.L.P N.T T o - p.T J P T P T T T K.K.J T J m ..] K T T Q T T J K.T ^ T ^ T.c s.Y Q L.E ",
"J T T Q ^ T T T T T f * y.P n.P T T L.J N.W.P N.K.T X - u.U T T N.T T T H U.{.E Q Q b e.<.Y T ^ ^ T T ^ T H T T J L @ -.R `.J J ",
"T J T T T T T T T T f - y.K T T T Q K.J J T T T T T V.- p.K N.T K T T T T J T ^ Q Q m  .1.T Q ^ ^ T Q Q T T J T J I @ -.R K.T T ",
"N.T T T T Q T T T ^ P - u.U T T T ^ H T T T J T T J n.; u.K P N.L.P T T T J H U.'.T b  .1.T Q Q T T ^ ^ T T Q Q Q U @ -.L J T T ",
"P T T T K.Q T T P T o t u.T T T T T T T T T T P J J X - i.T J T N.J T T T ^ ^ ^ K.T b w.,.Y T T T Q T T Q T Q T E I @ f.L Q T T ",
"T T Q T K.T T T T N.X - p.U J T T T T N.T P T T N.T X - u.U T T P T T P T Q Q T H Q m ..1.U T T E Q ^ T T Q T J ^ I @ y.Y J T ^ ",
"T J T T ).N.T T P J P = y.T P T T ^ T T T T N.T !.K.X = u.U n.T J J T J T ^ T ^ T Q b ..,.I J J K.K.T T T T Q T Q Y @ f.L T Q ^ ",
"T J T T T T T T J J I % a.U N.N.T T J T P T P T T T P = u.U T T H |.L.P T T T J U.^ b e.,.U Q T ^ Q T J T Q T T Q Y @ f.Y Q T T ",
"T T T T T T T T P J L.u y.T T T T T T T K.T T T T T X = u.U T T K Y.N.T T T T Q E.Q b | ,.U Q ^ ^ Q ^ ^ Q K.T T Q K @ f.Y Q T T ",
"T T J J T T T T T J N.u y.K Y.L.J T P ].|.N.K J T T f e u.P T T T J T T T T T Q J J b ..,.U Q T J }.K.Q ^ N.T T T K @ f.Y J J T ",
"T Y.T R L.T T P T ^ P & r.J L.L.K T J N.N.N.n.J T ^ I t y.U T T T J P T J J J J J Q , | ,.U J T U K.K.J T T T T T I @ -.L J T Q ",
"T L.T T ].L.E.T T T P 6 r.J J J J T T T J P J J T T f y y.T T T J J T N.T Q Q ^ J Q , ..,.Y T T K.T J T T T T T J I @ f.I Q T J ",
"T J T T K.Q.E.T T ^ T 5 q.G.T T T T J T T T T J T T I e y.U N.T P J T T T T T ^ J Q 4 | ' T Q T K.K.T T T P T T T o @ -.Y Q T T ",
"T J J J E.].H J J J T 6 &.W U T J J J J T T J J J T P 0 y.P T T T T T P T T T T Q Q b | ' U J T H J T J K.K.T T Q o l f.Y N.T J ",
"T K T T J U J J Q T T 8 &.W P T J J T P T T P T J J P q y.U ^ T T T T T T T Q J Q Q b q.' U T T Q T Q T Q K.T Q Q I c f.Y J T J ",
"T T N.T ^ Q T Q T Q U 6 l.! T K.].P T J T T T T P T I 0 y.T J T P T T T T T T J Q Q 6 e.' T J ^ Q J ^ T H U Q J Q o l a.Y J T Q ",
"J T N.T T ^ Q T J Q Q 6 +.F.P N.].K N.J T T N.T T T P e u.U J T T T T T T T J T T ^ b t.H.T Q ^ T J Q ~ ^ T Q ^ Q I l a.U L.K.Q ",
"T J T T T T J T T J J 9 [ W K T J T K P T J T T T T P r i.U T T T N.T P H L.E.J ^ ^ 4 q.' U ^ Q J T Q T Q ^ ^ T ^ V.j -.R _.K.E ",
"J T T ^ T ^ T T T J J 9 l.! T T J T T N.T P T T T T P e p.U T T T T T J J J.K.Q Q E 9 q.H.T ^ ^ T T T Q J E E J T o j -.U H H Q ",
"7 9 4 4 4 6 n n 4 4 7 & q.W T T J J N.T T P T T T T P - d.o f f P f n.P P P K J K }.S &.H.P J Q Q T Q Q T Q Q T Q I q { a a a 7 ",
"> > > > 1 > 1 > > $ < & r.J T T P T T T T T T T T T N.F y 1 N 1 # > 1 1 1 & $ 4 4 Z u &.F.U T K.^ T T Q ^ T ^ T T T < - & > > > ",
"o g f S.f f f P T J n.& y.^ T T P T T T T T T T T T I /.3.X m.g g o a 7 a a a a a . 5 t.G.P U {.K.U ^ J T T T ^ H L.G } _ . P g ",
"J J T K.^ ^ T T T J P 6 0.T N.T T T K.T J T T T T T I z =.T U Q J J J J J Q Q Q ^ ~ v =.W T T ^ Q Q T T T T T T T J.B w.] K Q Q ",
"T T T T T T T K.N.J P - y.T ].N.T N.L.J T T T T T T I l =.T J T J J T J T Q Q Q T T 8 &.G.T T T J Q T T N.T T T T J : ..>.L T T ",
"T J T T T T T L.N.T P = j.L.N.T T T T T T T T T T T K z =.Y U T T P P J Q Q T J ^ T 8 4.W T ^ ^ U.^ T T ^ ^ ^ T T J > | `  XI.H ",
"J J T T T T J J T ^ I 5 j.L.K.T T T T T T P T T T T P z ;.P.K.T T T T T ^ Q T ^ Q ~ 8 &.Q T ^ T K.T J Q T Q ^ Q Q Q , | ` T.K.E ",
"J T T J T J T T T ^ P e y.U J T T T T T T K.L.T T T P z *.'.L.T T T T T T Q Q ^ T ^ k =.Q T T T J J Q T ^ Q E T T ^ , q.` U T ^ ",
"T T T T T T T T T T P y y.T T T T Q T T T N.T T ^ T I c =.K T T P T T T Q T Q ^ Q ~ 3 =.W T T T T Q T T T T ^ ^ T Q , | ,.U Q Q ",
"T T T Q Q Q T T T T P q y.U T J Q T T J T J T T T T I C.=.P T T T T T T T J J ~ ^ U A t.T T T T T J T T J Q Q ^ Q Q , q.,.U ^ Q "
};
