/* XPM */
static char *_0cd2fe0f5bc4a10a4be9808856c9ce9Qb0gy3OvOV7h50Zw[] = {
/* columns rows colors chars-per-pixel */
"64 64 215 2 ",
"   c #D63F7E",
".  c #BC5C7E",
"X  c #BD627E",
"o  c #DE4B5E",
"O  c #DB535D",
"+  c #DF595D",
"@  c #E34C53",
"#  c #E2475E",
"$  c #E14B5B",
"%  c #E2525C",
"&  c #E55A59",
"*  c #DE675C",
"=  c #E66458",
"-  c #EA775B",
";  c #DE4765",
":  c #DD4A62",
">  c #DB456C",
",  c #D44D6A",
"<  c #DC496A",
"1  c #CD556A",
"2  c #D55164",
"3  c #DA5361",
"4  c #D45B65",
"5  c #D65A67",
"6  c #D15269",
"7  c #CD4E74",
"8  c #D64673",
"9  c #D94474",
"0  c #D34A72",
"q  c #D94873",
"w  c #D6427C",
"e  c #D94679",
"r  c #D64B7C",
"t  c #DA4C7A",
"y  c #C75575",
"u  c #C85573",
"i  c #C65A77",
"p  c #DC5475",
"a  c #DC5C76",
"s  c #DA557C",
"d  c #DC5C7B",
"f  c #E14664",
"g  c #E04C62",
"h  c #E04768",
"j  c #E25769",
"k  c #DC6F68",
"l  c #DA716A",
"z  c #C86E76",
"x  c #DF6374",
"c  c #DE657D",
"v  c #DF6A7F",
"b  c #E46768",
"n  c #E77C61",
"m  c #EB7D6A",
"M  c #E06675",
"N  c #E16C74",
"B  c #E47675",
"V  c #E3757C",
"C  c #E57C7A",
"Z  c #EA8067",
"A  c #F29A69",
"S  c #EA8274",
"D  c #E6837C",
"F  c #E88878",
"G  c #ED957A",
"H  c #EFA47D",
"J  c #F3A877",
"K  c #7F72BC",
"L  c #CF3A8F",
"P  c #D33E85",
"I  c #D4378D",
"U  c #D13C8C",
"Y  c #CF3B90",
"T  c #D03C91",
"R  c #AF5F8C",
"E  c #BE5582",
"W  c #B45F83",
"Q  c #BC5985",
"!  c #BD469C",
"~  c #B64B9E",
"^  c #B94B9B",
"/  c #A55C9E",
"(  c #BA5499",
")  c #99699D",
"_  c #9F749D",
"`  c #A6668E",
"'  c #AC628B",
"]  c #B46486",
"[  c #BD6182",
"{  c #B5708C",
"}  c #A26695",
"|  c #9D5BAE",
" . c #9B5BB2",
".. c #B34EA2",
"X. c #B848A0",
"o. c #AC52A6",
"O. c #A95BA2",
"+. c #A356AB",
"@. c #AB53A9",
"#. c #A359AD",
"$. c #B157A5",
"%. c #8E6AAD",
"&. c #936CA4",
"*. c #936BAB",
"=. c #9B68A8",
"-. c #8C70AA",
";. c #9A76A6",
":. c #8F64B5",
">. c #866EB6",
",. c #8B6AB4",
"<. c #8C65B9",
"1. c #846CBC",
"2. c #8B6BB9",
"3. c #9263B5",
"4. c #926BB5",
"5. c #9163B8",
"6. c #9169B9",
"7. c #8671B6",
"8. c #8A71B4",
"9. c #8271BA",
"0. c #A66DA6",
"q. c #A271AA",
"w. c #A162B0",
"e. c #CA428C",
"r. c #D54485",
"t. c #D64B84",
"y. c #D84E83",
"u. c #D3428C",
"i. c #D54B8A",
"p. c #C15281",
"a. c #D75186",
"s. c #D95383",
"d. c #DA5B84",
"f. c #D7518A",
"g. c #D8558B",
"h. c #DA5C8C",
"j. c #C44297",
"k. c #CD4093",
"l. c #D14091",
"z. c #D44C91",
"x. c #D95E92",
"c. c #D06785",
"v. c #DD6384",
"b. c #DF6C84",
"n. c #DB638B",
"m. c #DE6C8C",
"M. c #DA7289",
"N. c #DD6A92",
"B. c #DF7490",
"V. c #E06C84",
"C. c #E17383",
"Z. c #E37C84",
"A. c #E0738C",
"S. c #E37C8B",
"D. c #E07291",
"F. c #E27C93",
"G. c #A98B9E",
"H. c #9F81A3",
"J. c #A087A3",
"K. c #B98AA2",
"L. c #BCA1A0",
"P. c #CE9392",
"I. c #E58384",
"U. c #E78A85",
"Y. c #E88D85",
"T. c #E5838B",
"R. c #EB9585",
"E. c #EC9D84",
"W. c #EA968C",
"Q. c #EB9C8A",
"!. c #E48594",
"~. c #E68A94",
"^. c #E68E9C",
"/. c #E99896",
"(. c #CFA793",
"). c #EEA484",
"_. c #EEA589",
"`. c #F0AA83",
"'. c #F0AF8C",
"]. c #F3B585",
"[. c #F2B28B",
"{. c #EDA496",
"}. c #EFAB94",
"|. c #EEAA9D",
" X c #F0AE91",
".X c #EEB398",
"XX c #F2B290",
"oX c #F1B69B",
"OX c #E389A0",
"+X c #E795A6",
"@X c #D9BDA4",
"#X c #EDA7A3",
"$X c #EFB1A8",
"%X c #F1B7A6",
"&X c #F7C58E",
"*X c #F6C79B",
"=X c #FBD49C",
"-X c #D5C1A7",
";X c #E6C7A3",
":X c #F6CBA6",
">X c #F8D3A1",
",X c #FADBAB",
"<X c #F5CCB7",
"1X c #F9D5B4",
"2X c #F8DCB5",
"3X c #FBE2BB",
"4X c #F7D6C2",
"5X c #FBE6C5",
"6X c #FDEED5",
"7X c #FDF1D7",
"8X c #FDF5DD",
"9X c #FDF6E2",
"0X c #FEF9E9",
"qX c #FEFBF1",
"wX c #FEFDFA",
/* pixels */
"U U U U U U U U U U U . @.U U U U U U U U U U U U U P R ^ U U U U U U U U L L L U U f -.Y U U U U U Y U Y U Y U U U 7 3.T Y Y U ",
"U U U U U U Y U U U U Q @.U U U U U U U U U U U U U P R ~ U U U U U U U U L U U Y U f &.Y Y U U Y U U T U L U U U U 7 3.U U U Y ",
"U U U U U U U U U U U [ @.U U U U U U U U U U U U U P ' ~ U U U U U U U U U U L U U : &.k.Y U Y Y U U T U U U U U U 7 3.U U Y U ",
"U U U U U U U U U u.x.P.$.U U U U U U U U U U U U U r.' ~ U U U U U U U U U y.U U U ; ) j.U U Y Y U L U U U U U U U 7 3.U Y Y T ",
"U U U U U U U U U U n.(.O.Y U U U U U U U U U U U U P ' ~ u.U U U U U U u.d.<Xd.u.L ; ) j.U U U U U Y U U U Y U U U 7 3.U Y Y U ",
"U U U U U U U U U U U [ o.U U U U U U U U U U U U U P ] ( ^.y.U U U U U U u.F.u.U Y > } ! U U U U U U U U U U L U U 7 3.U Y Y U ",
"U U U U U U U Y U U U Q +.U U U U U U U U U U U U U r.W ..F.r.U U P U U U L u.U U U > } ! U U U U U U U U U U U U U 7 3.U U U U ",
"U U U U U U U U U U U E +.U U U U r.U U U U U U U U w W ..u.U U U U U U U L U U U U > ` X.U U U U U U U U L U U U U 0 3.U U U U ",
"U U U U U U U U U U U E +.U U U y.y.U U U U U U U U w W o.U U U U U U U U U U U U U > ` ^ U U U U u.u.U U U U U U U 0 :.U U U U ",
"U U U U U U U U U U U E +.U U s.#XB r.U U U U U U U w W o.U U U U U U U U U U U U U 9 ` ^ U g.U i.+XF.u.U U U U U U 0 :.U U U U ",
"U U U U U U U U U U U E #.U U y.$XS u.U U U U U U U 9 . o.U U U U U U u.U U U U U U 9 ` ^ u.N.U U n.d.U U L U U U U 0 :.U U U Y ",
"U U U U U U U U U U U p.| L u.u.y.U.U r.U U U U U U 9 X o.U U U U U U s.u.U U U U U 9 ` ~ U U U U a.u.U U U U U U U 0 3.U U U L ",
"      P P P U U P P P y #.U U x a ].x s U U U U U U 9 z ( r.r.r.U r.t {.W.y.r.P P P > } ! U U U y.W.t.U Y Y Y U U U 0 O.P       ",
"$ @ @ @ @ $ # : # $ $ 1 O.r.i.v.,X8X[.s.t.r.u.u.U U 9 b : g : : g $ % G m $ $ # $ $ @ } ! U U t.T.5XC.t.U U Y U U U > , # # $ $ ",
"U U U U U U U U U U e 4 { M C ).7XwX,XR.V x s t.u.u.b (.c.U U U U U U t.u.U U U U U > ) j.L Y L u.v.u.U U U U U U L > ,.U U U U ",
"U U T T U U U U L U P 1 | P P d `.,XG r.U U u.y.d Z.:XqX.XV d t.u.U U u.U U U U U U > &.j.Y Y U U r.Y L U U P U U U > ,.U U U U ",
"U Y U U U U U U U U P 1 | P r.p r._.r.d u.U T U U u.S ;XM.u.U U U U U u.u.Y U u.U U < &.Y U L U U U Y L U U P P U U 9 ,.U Y Y U ",
"U U U U U U U U U U P 6 | P r.r.r Q.r.u.u.U T u.U u.9 P.( u.U u.u.U u.u.u.Y U U U U j -.L Y Y U U U U U U U P P U L > ,.U U L U ",
"U U U i.U U U U U U P 6  .U r.g.^.4XB.i.u.u.U U U U e { ..U U u.u.u.U U U Y U T T Y b -.U U U U U U U U U t.U U L Y > ,.U U U U ",
"U U i.+Xg.U U U U U P 6 3.U P r.a Q.r u.U U U U U U w ] ..U u.h.u.U U U U U U U u.s.G G.U Y T U U U U U i.v.u.U U U 9 ,.U U Y U ",
"U U r.~.t.U U U U U P 2 3.U U L u.n.r.u.u.U U U U U r.] @.l.i./.n.u.u.r.U T u.s.v.}.6X-Xv.y.u.U U U r.d.{.<Xn.t.U U 8 ,.U U U U ",
"U U U r.U U U U U U P 2 3.U U U U i.U U U U U U u.u.r.[ @.T r.d.u.u.r.S.i.T T u.i.U.5XL.r.u.U U U U U r.T.%Xf.u.U U 8 ,.T U U U ",
"U U U U U U U u.N.u.P 2 3.U U U U u.U Y T T u.l.u.u.r.X #.l.t.d u.r.i.^.d.l.Y Y u.i.S ;.u.Y U U U U U U u.d.U Y T T 8 ,.T T U U ",
"U U L U U U U u.!.r.P 3 3.u.r.U U U U Y u.u.u.u.u.u.r.i #.l.a.c u.d.u.r.u.l.l.T T T b 9.I Y U U U U L U U r.U U T T 8 ,.T L U U ",
"U U U U U U U U u.U P 3 3.s.d.U U U U U T T l.u.D.g.r.i 0.r.v.I.S.%Xd.r.u.l.l.T l.T j 7.I T U T U U U U U U U U U U 8 ,.U U Y U ",
"Y U U U U U U t.U U P O q.$X$Xa.u.U U l.l.u.u.u.r.r.r.i w.V E.XXG #Xr.u.u.l.l.l.l.l.q 7.I Y Y U Y U U U U U U Y U Y 8 ,.U U Y T ",
"U U U U U U u.C.s.U P 3 3.d.c u.U U T u.u.u.u.u.r.i.s l K.).9X0X[.D d.s.i.u.l.T T T 9 1.I U U u.Y U U U U U U U Y L 0 :.U f.l.Y ",
"U U u.s.U r.v.4X{.s.w O 3.u.u.U U U T u.u.l.u.u.r.y.s k K._.9X0X'.C.v.s y.u.u.T T f.q 1.P U U y.U U U U U U U U Y U 0 3.u.!.n.U ",
"U u.!.|.i.U u.C.y.U w O 3.U U U U u.u.u.u.T u.u.u.u.r.4 4.V E.XXC r.l.l.u.u.l.l.l.^.p 1.U U u.d U U U U U U T Y Y U 0 3.U u.U L ",
"U U A./.u.U U t.U u.~.k 3.U U U U U u.u.l.l.u.u.u.u.r.4 q.r.v.I.u.s.u.l.l.l.u.T T T 8 2.U T u.N u.u.U Y U T U Y Y T 0 :.U U U U ",
"U U r.y.U U U U U U v.* 3.U U U U u.u.u.u.U l.u.u.u.w 3 6.u.s.c u.u.u.u.h.l.U l.k.Y e 2.u.U t.D f.d.u.Y U Y Y Y U T 0 :.U r.Y Y ",
"U U U U U U U U U U w * <.U U U U l.u.u.U T u.u.l.u.t 3 6.u.i.d u.u.u.h.#Xi.u.T k.T e 1.s.y.d.`.|.oXi.U U T T U T Y 0 3.n.~.u.U ",
"U U U U U U U U U U w - y : : g $ $ $ $ % % % % % % & 3 6.u.r.y.u.u.u.u.i.l.u.u.l.T q Q e Z J =X&XXXp q 9 9 > > > ; : *.F.#Xi.U ",
"U Y U U U U U U U r.x J z q 9 9 9 9 9 e t e r.r.r.y.M + 6.u.u.i.u.u.u.u.u.l.u.u.u.i.j l Z J 8XqX=XA - = & % : : : o O :.U y.T U ",
"U Y Y U U U U t.s V.*X0X@XV.s t.u.T u.u.y.r.u.y.v..X1Xn ;.u.u.u.u.u.u.u.l.T l.l.u.i.j H.V.E.8XwX*XC d.s.t.u.U U Y U 3 :.U U T U ",
"U i.u.Y Y U U U r.y._.6X(.y.r.u.u.U u.u.d.y.u.r.i.T.}.= 4.u.u.i.u.u.u.u.l.l.l.T u.T > 7.P C H >XF y.U U L U U U U U 2 :.U Y U U ",
"U F.m.U U U U U U r.t A ;.r.U U U T u.y.b.g.y.u.u.u.d % 4.u.f.OXh.u.u.u.T T T l.i.T h 7.y.y.s.).U s u.T U U U U U U 2 3.U Y U L ",
"U U U U U U U U U U r.- ,.U U U U T T d.:X}.r.u.u.u.t.O 4.u.f./.d.u.u.u.T T l.m./.i.h 8.P Y u.D Y U U T U U U U u.U 6 3.U U U U ",
"U U U U U L U U U U r.= ,.U U u.r.s.b.E.8X3XU.c s.u.r.O 4.u.u.i.r.u.u.l.T u.y.T.#Xs.g >.U U u.N U U Y U U U Y U s.U 6 3.U U F.r.",
"U U U U U L U u.x.U P % ,.U U U U U U d Q.I.s.u.U U u.O 2.U u.u.u.u.T U T T T u.f.U f 7.U U u.d U U U U U U U U b.U 6 3.U U U U ",
"U U U U U U U r.m.r.P $ 2.U U U U U u.u.v.i.r.u.u.u.u.O 2.U U u.U U T u.U Y l.u.u.U f 7.U U U t.Y Y U U U U d.v Q.d 6 3.U U U Y ",
"U U L U U U U U s.|.r.o 2.U U U U U U u.s.r.U u.u.u.r.3 6.U u.s.u.U u.u.u.T T T T Y f 8.U U T u.Y U Y u.t.v oX2X9XW.l 0.u.U Y Y ",
"U Y Y U U U U U U s.P $ ,.U U U U U U U r.u.U u.U U u.3 3.u.s.$XB.i.u.U u.U U T T U f 7.I U L U U Y Y U U u.d. X1XC.4 3.U U U U ",
"U U U U U U U U U U P $ ,.U U U U U u.U u.U U y.U U r.3 3.P u.T.s.U u.U z.i.T Y T U f >.U Y Y T U U U Y Y U t.u.Z.r D *.U Y U U ",
"U U U U U U U U U U U $ >.U U U U U r.U U U U x U U P 3 3.P U t.u.U U U N.h.U T T T f >.I T U U U U Y Y U U U U d u.Q.q.U U Y U ",
"U U U U U U U U U U U $ >.U U U U U s.U U r.r.U.t.u.P 2 3.U U U U U U U u.T Y Y U T f 7.I Y U U U U U U U U U U y.U 2 3.U U U Y ",
"U U U U U U U U U U U $ >.U U U U U a u.r.y.R.5XZ.i.r.2 3.U U U U U U U U Y T T r.Y f 9.I T U U U U U U U U U U u.U 6 3.U U U U ",
"U U U U U U L U U U U $ ,.U U U U U N r.s.v.}.9XW.d.y.4 3.U U U U U U U U U T i.n.u.$ 9.I T U U U U U U U U U U U P 6 3.U U U U ",
"U U U U U U L U L U U # ,.U U u.U Y D u.U t.s.W.s.u.U 6 3.U U U U U U U U u.s./.4Xb.= 7.I L U U L U Y U U U U U U U 2 3.U U U U ",
"U U U U U U U U Y U U # ,.U U u.a r.`.t.d t.U M U U U 6 3.U U U U U U U U U U d.Q.U.1XJ.u.U U U Y U Y U U U U Y Y U 2 :.U U U Y ",
"U U U U Y Y U Y U Y U # ,.U U U y.).3X'.c U U s U U U 2 3.U Y U U U U U U U U u.y.i.m 7.I T L Y Y U Y U L U U U U P 2 :.U U U Y ",
"U U U U U U Y U U U U $ _ a M D ).3XwX9X[.Y.N x s t.r.2 5.U U U U U U U U U U U U U $ 9.I T T T U U Y U U U Y T Y U 3 :.U U U T ",
"U Y U U U U U U U U U # *.r.t.s.v >XqX5XC d.t.r.u.U U 2 3.U U U U U U U U U U U Y T f K I L Y T U T Y U Y T T U U P 3 :.U Y Y Y ",
"U Y U Y T Y Y U U i.U f ,.U U U d C *XC N U U U U U U 3 :.U U U U u.!.r.U U U L U Y f K I U U Y U U Y Y U T Y U U U 3 3.U U U Y ",
"> > ; : : o # : : S < $ >.U U r.t.U E.r.r.y.U U U U U o 3.P P P U P r.U U U Y Y Y Y f 1.I U U U U U U T Y Y Y U U U : /   9 9 > ",
"@ @ @ @ @ @ @ @ @ $ $ @ >.U U U U U C u.U U U U U U U $ @ @ @ @ @ @ @ @ @ @ $ $ # : @ 1.I U U U Y U U U U U T T Y U @ @ @ @ @ @ ",
"  w       P P P U U P $ >.U U U U U M U U U U U U U U u +.P P   w w 9 9 9 9 9 9 9 9 @ 1.I U U U U U Y U U U U U U U @ =.e.P P   ",
"U U U U U U U U U U P $ >.U U U U U s U U U U U U U U u  .U U U U U U u.U T T T T U $ 1.I U U U T T T U U U U U U U @ *.Y U U T ",
"U U U U U U U U U U U $ ,.U U U U U t.U U U U U U U U u  .U U U U U y.b.U L Y Y U U # 1.I U T U U Y U U U U U U U U $ %.Y U U U ",
"U U U L U U U U U U P o <.U U U U U u.U U U U U U U U u  .U U L U r.S.%Xi.U U L U U : 1.I Y Y U Y U U U Y Y Y U U U $ %.Y T L Y ",
"Y U U U U U U U U U P : :.U Y U U U U U U U U U U U U y  .U U U U U r.y.U Y U U Y T : 1.I L U U L U U Y U Y L Y Y U o ,.Y Y Y Y ",
"U U U Y U U U U U U U : 3.U U U U U U U U U U U U U U y  .U m.n.U U U U U Y Y Y T U ; 1.U U U U U U U U U Y Y T U U o ,.Y U U Y ",
"U U U U U U L U U U U , 3.U U U U L U U U U U U U U U y  .P F.m.U U U U U U Y Y Y U : 1.U U U U U U U U U U T Y U U : ,.Y U U Y ",
"U U U T Y U U U U U U 6 3.U U U L U U U U U U U U U U y  .U u.U U U U U U Y U T Y U : 1.I U U U U U U U Y Y Y Y L U : ,.Y U L L "
};
