/* XPM */
static char *win_exit1712085562[] = {
/* columns rows colors chars-per-pixel */
"64 64 244 2 ",
"   c #2C0B15",
".  c #340C18",
"X  c #2E121B",
"o  c #3D262E",
"O  c #581B2A",
"+  c #6E1922",
"@  c #4C2A33",
"#  c #542E3A",
"$  c #76332D",
"%  c #593841",
"&  c #743448",
"*  c #6A4651",
"=  c #7A5962",
"-  c #84290E",
";  c #882E10",
":  c #973A17",
">  c #951F31",
",  c #8B2A32",
"<  c #922D35",
"1  c #99353B",
"2  c #A1383D",
"3  c #92431C",
"4  c #AA491D",
"5  c #944F2D",
"6  c #AC552E",
"7  c #B7592C",
"8  c #BC6738",
"9  c #CD6A35",
"0  c #D47739",
"q  c #982C48",
"w  c #8C3645",
"e  c #953244",
"r  c #9A3B48",
"t  c #A23D43",
"y  c #A03D4A",
"u  c #A62D51",
"i  c #A33E62",
"p  c #D33E72",
"a  c #974949",
"s  c #884455",
"d  c #9A4756",
"f  c #A5444B",
"g  c #A9484D",
"h  c #AB4C53",
"j  c #A6485A",
"k  c #B24959",
"l  c #AD525A",
"z  c #B2545B",
"x  c #B3714F",
"c  c #915366",
"v  c #B34F6E",
"b  c #A75968",
"n  c #B85667",
"m  c #8A6D78",
"M  c #B86A6F",
"N  c #A46776",
"B  c #C67547",
"V  c #D4774A",
"C  c #C87E57",
"Z  c #DE7C57",
"A  c #DC4B7A",
"S  c #C85275",
"D  c #E6537D",
"F  c #D06A79",
"G  c #E27075",
"H  c #BF844E",
"J  c #B98C79",
"K  c #CE8654",
"L  c #DA8D52",
"P  c #D88956",
"I  c #E1874C",
"U  c #E1924C",
"Y  c #E49155",
"T  c #C78969",
"R  c #D4926D",
"E  c #D9976A",
"W  c #C8977A",
"Q  c #E3886E",
"!  c #E89D68",
"~  c #E79B7A",
"^  c #DDA375",
"/  c #E7A468",
"(  c #EEAD75",
")  c #E6A979",
"_  c #EAB57B",
"`  c #967E88",
"'  c #BF6C86",
"]  c #AB7A86",
"[  c #B77B88",
"{  c #CA5B89",
"}  c #DB5C88",
"|  c #EF5A8C",
" . c #C86A88",
".. c #D86689",
"X. c #C4788B",
"o. c #DA738D",
"O. c #CD6993",
"+. c #D96896",
"@. c #C87994",
"#. c #D97398",
"$. c #E6648E",
"%. c #E86998",
"&. c #EC6B9E",
"*. c #F3689B",
"=. c #E57799",
"-. c #F0779A",
";. c #DC78A6",
":. c #F36EA2",
">. c #E875A4",
",. c #EC7CAB",
"<. c #F371A3",
"1. c #F675A7",
"2. c #F275AA",
"3. c #F47AAB",
"4. c #F97CAE",
"5. c #A78791",
"6. c #B58895",
"7. c #AF9292",
"8. c #BA949D",
"9. c #BA9EA6",
"0. c #BCA2AA",
"q. c #D19782",
"w. c #C88699",
"e. c #D8869B",
"r. c #E38498",
"t. c #D3AA89",
"y. c #D3AB97",
"u. c #E9AC86",
"i. c #E8B689",
"p. c #F3B286",
"a. c #F3B08E",
"s. c #E7BA95",
"d. c #C98DA1",
"f. c #DB88A6",
"g. c #C596A5",
"h. c #DB96A9",
"j. c #DE88B5",
"k. c #DA99B6",
"l. c #E887A9",
"z. c #F382AD",
"x. c #F48AAB",
"c. c #E394AE",
"v. c #E696AC",
"b. c #EA8BB5",
"n. c #F487B4",
"m. c #FB82B3",
"M. c #F48DBC",
"N. c #FB8CBD",
"B. c #E899B8",
"V. c #F394BD",
"C. c #F992BC",
"Z. c #C3A7AC",
"A. c #D3B6A7",
"S. c #C7A9B4",
"D. c #D7A7B8",
"F. c #C9B6BB",
"G. c #D5B8BA",
"H. c #E7A6BB",
"J. c #F1A7BC",
"K. c #E9B2B0",
"L. c #EFC996",
"P. c #EDC798",
"I. c #E8C7A8",
"U. c #EDD2A9",
"Y. c #E4C9B5",
"T. c #EDD7B6",
"R. c #F2D4B3",
"E. c #D094D2",
"W. c #FC8EC1",
"Q. c #E799C4",
"!. c #FC93C2",
"~. c #F39DC3",
"^. c #F698C5",
"/. c #FB9DCB",
"(. c #DBA5C7",
"). c #CCB8C3",
"_. c #D4BDC5",
"`. c #D6BDC6",
"'. c #EEA5C3",
"]. c #E8ABC4",
"[. c #EDACC4",
"{. c #F3A3C4",
"}. c #F5A6CA",
"|. c #FAA3CE",
" X c #F4ABCB",
".X c #F8A9C9",
"XX c #E6B5C6",
"oX c #E5BBCA",
"OX c #F5B3CD",
"+X c #F9B4CC",
"@X c #ECAEDB",
"#X c #FBAAD5",
"$X c #FBACD4",
"%X c #E8BBD1",
"&X c #F6B4D2",
"*X c #FAB2D5",
"=X c #F4BBD3",
"-X c #FBB3DA",
";X c #F8BCD9",
":X c #FBBBDE",
">X c #FCBCE1",
",X c #CEC4C6",
"<X c #CEC8C8",
"1X c #D2C1C4",
"2X c #D8C3CA",
"3X c #D6C7D3",
"4X c #F1CDCA",
"5X c #EAD6C7",
"6X c #E7CAD6",
"7X c #F5C6D6",
"8X c #F5C5DD",
"9X c #FBC5DB",
"0X c #F5C9DE",
"qX c #FBCCDE",
"wX c #EBD4DA",
"eX c #F6D7DA",
"rX c #EEE2C5",
"tX c #EDE6D7",
"yX c #F4E3D8",
"uX c #F6C7E0",
"iX c #FCC2E2",
"pX c #F6CCE2",
"aX c #F8CEE2",
"sX c #FCCBE9",
"dX c #EFD0E0",
"fX c #F7D2E4",
"gX c #F9D4E5",
"hX c #F4DBE4",
"jX c #F9D8E7",
"kX c #F7D4E8",
"lX c #FAD5E9",
"zX c #F7DFEA",
"xX c #FADBE9",
"cX c #FFD5F2",
"vX c #FDDBF2",
"bX c #EDE7E3",
"nX c #F6E3EB",
"mX c #F7E6E8",
"MX c #FBE3ED",
"NX c #FDE6F1",
"BX c #FDEBF3",
"VX c #FFECF8",
"CX c #FEF1F6",
"ZX c #FEF4F8",
/* pixels */
"fXgXgXaXaXgXgXaXfXfXgXgXgXgXgXgXgXgXgXgXgXaXgXgXgXgXgXgXgXgXgXgXjXgXgXfXgXjXgXgXgXgXjXgXgXxXgXxXxXgXgXgXkXgXgXgXgXgXgXgXgXgXgXgX",
"fXgXgXaXgXgXgXgXaXgXgXgXgXgXgXgXgXfXgXgXgXgXgXaXaXgXgXgXgXgXjXgXjXgXgXgXgXgXgXxXgXgXgXgXgXgXgXgXgXgXgXgXgXgXgXfXfXgXfXgXfXfXgXgX",
"gXgXaXaXgXgXgXgXgXgXgXgXxXgXgXgXgXfXfXfXgXgXgXgXgXaXqXfXgXxXxXxXjXgXgXxXxXgXjXjXxXxXgXjXjXjXgXgXgXgXgXjXgXgXgXjXjXjXgXgXgXgXgXgX",
"gXgXqXgXgXxXMXMXxXgXMXMXgXgXgXgXgXgXgXgXgXfXgXgXgXfXfXgXgXgXmXNXzXxXMXNXzXjXzXMXxXgXxXlXgXjXgXjXxXgXjXgXxXgXjXjXMXMXxXgXgXgXgXlX",
"gXaXgXgXgXxXCXCXxXxXBXxXgXgXgXxXjXjXjXjXxXjXkXkXgXgXgXgXxXgXNXCXMXxXBXZXNXxXxXBXzXxXgXjXgXxXjXxXgXgXjXjXjXjXjXjXCXBXjXgXgXgXgXgX",
"gXgXgXqXgXgXNXCXMXMXBXxXxXxXxXMXxXxXjXxXMXxXxXMXxXgXgXgXgXxXMXCXNXxXBXCXBXMXMXBXxXxXxXMXMXxXxXxXxXMXxXMXMXxXxXjXBXBXjXgXgXgXgXgX",
"gXgXaXgXqXjXMXCXBXBXMXxXxXMXBXMXBXMXxXMXBXMXzXVXMXxXfXgXxXxXxXCXBXMXBXCXCXMXBXNXzXxXNXBXBXBXMXxXNXCXBXBXBXMXjXjXBXNXgXgXgXgXgXgX",
"gXaXaXgXgXjXxXMXCXBXMXxXxXBXBXxXBXCXxXMXZXMXzXCXBXgXgXgXgXgXxXNXZXNXBXBXCXNXBXMXxXMXCXNXMXBXBXzXMXCXNXMXCXNXzXxXBXNXxXxXgXgXgXgX",
"gXgXgXfXgXgXxXMXCXBXxXjXMXCXMXMXNXZXnXMXCXMXMXBXBXjXjXgXgXjXxXMXCXCXNXMXCXCXBXxXxXNXCXzXxXBXBXjXMXCXMXxXCXBXxXjXBXmXjXgXgXgXgXgX",
"aXaXgXfXgXgXgXxXCXBXxXjXxXCXNXxXNXZXMXMXZXnXMXCXBXjXjXgXgXgXjXxXCXCXMXnXBXZXNXxXgXNXZXxXxXBXCXjXMXCXjXjXBXNXjXjXMXxXjXgXgXgXgXgX",
"gXaXgXqXgXgXxXxXCXBXxXjXxXBXBXMXBXBXxXzXBXBXBXCXBXjXgXgXgXjXgXjXBXBXxXjXMXBXjXkXgXzXCXNXMXCXnXgXMXCXnXjXCXBXgXjXMXxXgXgXgXgXfXfX",
"aXgXgXfXgXxXgXgXNXMXjXgXgXxXMXNXNXxXxXjXMXBXMXMXMXjXgXfXfXkXfXfXxXzXgXpXkXzXjXpXpXgXNXMXvXzXxXpXjXMXgXfXzXjXfXfXMXxXgXfXgXgXgXgX",
"gXgXgXgXgXgXgXgXkXpXfXpXgXgXjXjXfXfXgXgXgXgXgXjXfXkXfXqXkXkXpXpXgXpXpXpXpXkXkXpXpXkXkXkXkXpXkXuXpXuXpXpX0X8X0X0XqXpXaXaXaXqXgXfX",
"qXgXfXaXaXgXaXgXpXkXgXkXpXpXfXfXkXkXkXgXjXfXfXpXqXfXfX0XpXpXpXpXpXkXkXpXkXkXkXpXuXpXuX%XpXpX8XuX7XuXpXpXfXuXuXpXpXpXaXfXgXgXfXfX",
"gXaXgXaXgXaXgXfXgXgXpXkXkXpXaXpXuXuXpXfXpX0XpXuXuX8XpXfXuXpXuXpXpXkXpXpXpXuXpXuX8XuX8X8XpXkXuXuXuXdXuXuXuXuX0XpXuXuX9XpXaXgXaXgX",
"gXgXgXgXgXgXaXfXfXkXpXpXsXkXaXaXpXpXpXuXuXuXpXpXpXkXuXjXpXuX8XsXpXpXkXpXkXpXpXpXpXuX8XpXpXkXpXkXpXuX8XuX0X8X8XuXpXpX9X0XaXfXgXaX",
"gXgXgXgXaXaXgXgXgXaXgXgXgXqXgXaXaXaXuXuX8XpXpXaXpXpXpXpXkX8XpXuX8XkXgXfXpXxXxXdX8X;X8XpX0XpXpXpXuXuXpXuXuXkXuXpXpXpXpXuXuXfXpXfX",
"aXgXgXgXgXgXgXgXgXgXgXgXgXfXgXgXgXgXgXaX8X0XuXaXaX0XpXuXpX8X8XuX8XgXMXMXvXhXbXmXkX8XpXpX=XpX0X0XuX0XpX8XpXjXuXuXuXuXpXpXpXpXpXgX",
"gXgXgXgXgXgXgXgXgXaXgXgXgXgXfXgXgXgXgXaXaXlXgXgXaXpXaXaXpXpX8X7XxXhXoXwXf.S G.tXwXMXgX8XuXpXpX0X0X0X8X=X0XpXpXuX8XuX8XdX9X0X0XfX",
"gXgXgXgXgXgXgXgXgXgXaXfXgXgXgXgXgXgXaXaXgXgXgXgXpXfXfXfXpXaXpXMXhXoXG.y.v @.,X5XY.tXMXpX8XpXuX8XpXpXpX0XpXpXpXuXuXuXuX8X0X0XpXaX",
"fXgXgXgXgXgXgXgXgXgXgXaXfXgXgXgXgXgXgXgXgXgXgXgXgXxXfXgXgXaXqXMX5XY.P.W W t.5 J tXrXtXnXqXpX0X0XpXkXaXpXpX0X0X0X8XpX0X8XpXpX0XfX",
"fXgXgXgXgXgXgXgXgXgXgXgXgXgXgXgXaXgXgXgXgXgXfXgXlXgXgXgXgXaXgXmXY.i._ t.R t.t.x A.I.tXbXjXqX0XfXpXpXaXaXaXaXqX0X8X8XaXpXpXaXaXaX",
"gXgXgXgXgXgXgXlXfXgXgXgXgXgXgXgXgXgXfXgXgXgXfXgXgXgXgXgXgXaXMXrX) ) i.s.s.t.Y.s.T t.T.bXBXfX0X8XpXpXpX9X0XpXpXqXfXpXpXuXpX0XpXaX",
"gXgXgXgXgXgXgXgXgXgXfXgXgXgXgXgXgXaXgXgXlXgXgXgXaXgXgXgXgXgXmXI./ p.P.^ ^ s.i.I.P.J I.tXmXjXpXaXaXfXaXpX8XqXpXpXaXaXpX9XpXaXfXaX",
"gXgXgXgXgXgXgXgXfXgXgXjXlXgXfXgXgXaXgXgXgXgXgXaXgXgXgXgXgXlXeXu./ ( i.^ K ^ u.) P.I.s.T.yXMXaXgXaXfXgXaXaXaXaX0XpXpXqXpX0XfXfXfX",
"gXgXgXlXlXgXgXgXgXjXgXgXgXgXfXgXgXgXgXgXgXgXaXgXaXgXlXaXfXlXyXP C p.K x B B E E _ U.Y.U.T.mXjXfXfXqXfXgXqXaXqXaXaXaXpXfXfXpXgXfX",
"gXgXxXgXgXjXxXgXjXjXjXgXlXgXjXgXgXgXgXgXgXgXgXgXfXgXgXgXgXaXNXq., T P l a / I 9 7 E U.U.U.yXMXgXgXgXfXfXfXpXaXgXqXfXpXqXpXqXqXaX",
"gXgXgXgXgXxXgXjXgXgXgXxXjXgXgXjXgXgXgXgXgXgXgXgXfXgXgXgXgXgXgXmXT E _ ~ a.u.I 0 7 P P.U.T.5XmXjXfXgXgXfXgXfXgXgXgXgXfXaXfXaXqXfX",
"gXgXgXgXgXgXgXgXgXgXgXgXlXgXgXjXgXxXgXgXgXgXgXgXgXgXgXgXgXgXgXMXa.p.~ u.p.! I 0 7 C P.L.T.rXbXxXfXfXaXgXgXgXfXgXgXaXaXgXfXaXgXfX",
"gXxXgXgXxXgXgXgXgXgXgXkXxXgXgXgXgXgXgXgXgXgXgXgXgXgXgXgXlXgXgXNXa.Z Z u.Q I U 0 8 W i.P.L.rXbXxXfXaXqXgXgXaXaXgXqXgXaXaXfXaXaXgX",
"gXgXgXgXgXgXgXgXgXgXjXjXxXgXgXgXgXgXgXgXgXgXgXgXgXgXgXgXgXgXgXxXqXQ G q.Z Y Y 9 8 A.s.i.L.T.yXxXgXgXgXgXgXgXaXaXgXaXgX0XaXaXqXgX",
"gXgXxXgXgXxXgXgXgXjXjXjXgXjXgXgXgXlXjXjXgXgXgXgXgXgXgXgXgXgXgXgXxX7XG G ~ ! 0 7 $ 5 ^ i.L.R.rXmXgXgXgXgXgXaXgXgXgXaXaXaXaXaXfXaX",
"kXgXxXgXgXxXxXgXgXjXgXkXgXjXgXkXgXgXjXgXgXgXgXgXgXlXgXgXgXgXjXgXgXMXu.a.p.0 : 4 6 4 K i.P.L.U.mXjXgXfXfXgXgXgXaXaXaXaXfXaXpXfXfX",
"gXgXjXjXxXgXxXgXjXgXgXjXgXjXjXpXgXxXgXgXgXgXgXgXgXgXgXgXgXgXgXgXgXxXR.P 7 ; ; 9 0 9 8 ) P.L.U.yXxXgXgXjXgXgXaXgXgXaXgXaXaXaXfXqX",
"xXgXxXxXgXgXgXgXjXjXkXjXjXjXjXkXgXjXxXgXgXxXgXgXaXgXgXgXgXgXgXgXgXlXyXV : - 7 Y I 0 6 T i.L.U.T.mXjXgXgXgXaXgXgXgXaXaXqXfXpXpXqX",
"gXgXxXjXxXgXgXgXkXjXjXjXjXjXjXjXgXgXgXgXjXlXgXgXgXlXxXxXzXMXMXmXMXxXBXP.B 8 P ! u.) y.T E _ L.U.eXxXgXgXgXgXgXgXgXaXaXgXaXfXpXfX",
"jXjXjXjXjXkXjXlXlXjXjXjXjXjXjXjXjXjXgXgXgXgXgXMXMXfXfXhXkX0X6X0X0XwXqXgXfXeXeX4X0XK.u.3 H _ _ P.tXxXgXgXgXaXgXgXfXgXqXgXfXfXqXfX",
"jXgXjXjXjXjXjXjXgXjXjXxXgXgXxXjXxXjXgXgXxXgXMXfXB.l.f.oX(.b.(.(.H.].E.E.M.J.=XgXhXzXY.C 5 ^ E _ T.zXgXgXfXgXgXgXgXfXgXfXfXgXgXgX",
"kXkXgXjXlXlXjXjXjXlXjXjXxXxXjXjXjXxXxXjXgXjXNXb.$.{ O.XX(.k.(.].c.B.E.;.%.r.B.'.Q.XXmXyXJ 9 / U I.vXgXkXgXgXkXfXgXgXgXgXgXgXgXgX",
"jXjXjXjXjXjXjXxXlXjXjXjXjXjXjXjXjXjXjXgXlXvXpX>.+.{ O.oXB.#.h.h.e.h.k.j.z.v.{.}.B.Q.7XmXW 4 L K I.VXMXxXgXgXgXaXaXaXfXgXgXgXqXgX",
"jXgXjXjXkXjXjXjXxXjXgXgXxXgXgXgXgXjXfXgXgXNX+X;.;.O.O.oXH.e.h.(.H.J.}.Q.~.=X8X&X=X;X8XMXA.3 8 H 4XgXqXnXNXmXMXMXMXMXxXgXgXgXfXfX",
"kXjXjXjXgXgXjXjXjXjXxXgXgXxXjXMXMXNXBXMXMXgXJ.c.'.[.Q.XXH.v.H.7X=X7X9X&X}.=XXX].&X;X&XxXW $ 3 H zX9X;XdX6X=X9X7X9XgXMXMXgXgXgXgX",
"gXgXgXgXjXjXjXjXgXjXzXMXMXMXjXfX8X=X[.B.B.^.$X+X&XOX&X&X&X+X X X[.[.[.[.'.H.H.[.J..X.XfXA.6.J A.zX;X X}.|.|.^.!.M.V.'.eXMXgXgXgX",
"xXjXxXxXkXjXxXNXMXMXlXiX8X=X X~.V.V.^.^.^.^./.|.#X-X$X$X*X$X*X-X-X:X:X*X&X X X^.H.H.B.J.pXaXnXwX;X}.~.|.|.~.M.z.,.,.z.x.eXMXgXgX",
"xXxXxXxXNXxXgXpX>X@X-X#X#X#X-X-X-X-X#X#X#X#X#X-X$X-X>X>X*X$X*X*X-X:X-X-X-X-X-X-X*X:X|.^.=X=X0X=X.X~.{.~.~.V.C.M.f.>.x.x.J.MXMXgX",
"gXxXNXxXpX;X$X-X-X-X-X-X-X-X-X@X-X-X-X-X-X-X-X-X-X-X>X8X>X>X>X:X9X-X$X#X#X|.#X|././././.|.+X$X$X$X$X$X$X$X$X$X$X$X$X$X$X|.$XgXMX",
"xXMX4X@X-X#XiXsX>X-X-X-X-X>X>X-X>X>X>X>X-X>X>X>X>X>X>XiXsXkXsXsX-X*X#X|././.!.^.!.W.W.4.<.W.N.!.C.N.N.!.!.!.!.!.N.!.C.C.b.C..XxX",
"BXH.k.H./.$X;XiX-X>X-X>X>X>X>X-X>X>X>X>X>X>X>X>X>X>X>XiXkXVXBXkXiX|.!.N.W.4.4.,.;.#.;.} } :.3.4.m.4.m.m.m.4.3.3.4.3.1.%...*.x.qX",
"mXH.XXh.z./.$X>X>X>X>X>X:X>X8X:X>X>X:X>X>X>X>X>XiX:X X;XkXZXZXpX}.N.N.M.O.;.@.@.9.g.g. ...w.w.@.o.#.#.=.&.1.3.3.3.<.<.*.<.&.3.eX",
"MXeXc.r.1.|.9XsXcXvXvXvXlXsXwX8XiXiXiX9X:X>X>XiX Xc.H.%XpX>X@X Xb.m.+.& O w g.).F.`.D.o.$.G.1XG.F.S.g.d.w.@.O.+.:.:.<.:.<.&.z.gX",
"gXBXJ.-.^.$X[.w.d.h.D.(.`.%X8XdXxXvXcXlXsXiX:XiXh.k.%X].Q.n.,.,.^.#.* = 5.& i `.).`.k...o.G.1X1X1X`.2X2X`.G.S.9.@. .+.:.<.*.n.jX",
"gXNXK.-.-X#Xb < < < 1 < y h j M F w.h.K.=X9XiXsX].(.%Xh.+.>.2.>.,.c ` @. .9.& g.3X`.D.F r.`.1X1X,X1X`.`.1X2X1X<X,XF.8. .<.*.b.MX",
"gXMXr.o.l.e.h f g g f g f g t 2 2 2 2 f h M c.:X9X].v.=.%.%.>.2.{ & ] j y @.c b 3X).S. .o.1X<X<X1X,X,X,X,X,XF.0.9.8.6...<.&.V.MX",
"gXMXeXx.r.o.n t a 1 r g k z z z z h g g h f f {.iX*X-.x.1.%.&.>.* = N ' j b ] i `.).6.v S e.w.w.w.X.X. . . .O...+.%.%.:.&.<.=XMX",
"gXjXBXqX{.|.B.n z < , < < 2 2 1 r r 1 t g k y n.}.}.D -.2.%.&.#.# # d d y d [ u  .#.} A D | *.-.x. X+X+X.X.XB.'.9X9X9X9X9XeXmXxX",
"gXxXjXMX9Xl.e.~.f.r e z g k g t t < , < 1 t y z.=.o.F S n  .' v & s d d e w [ u A 1.| A D 1..XgXMXmXMXMXnXMXmXmXMXMXMXMXMXxXgXqX",
"gXgXjXkXBXZ.O c l.j q %.N.k.j.f.O.r e k z n o./.|.V.l.=.{ S | i # d r d r , ] u p $.$.x.4XxXBXxXxXgXgXgXgXgXgXgXaXaXqXgXaXaXgXgX",
"jXgXjXjXxXeX= . O e , v '.@X@X@XV.j q $.n.M.!.N.N./.|.N.:.| :.& o b < N s a ] w.v.OXgXMXxXxXgXgXgXlXgXgXgXgXgXgXgXgXaXgXgXgXgXgX",
"gXgXgXgXgXMX6Xm # O + + S.jXpX;X].F q S N.N.m.1.*.*.&.<.*.A w . # N a b c N S.nXMXMXxXgXgXgXgXgXgXgXgXgXgXgXgXgXfXfXgXgXgXgXqXgX",
"jXgXgXjXgXgXxXMX2X9.5.0.dXNXnXNXmX0XoX4XaX9X9X9X+X+X+X=X;X]   X o c a c ] 6.`.NXaXfXaXgXgXgXgXlXgXgXgXgXaXgXgXgXgXgXfXgXgXgXgXgX",
"fXgXjXgXgXgXeXgXMXMXBXMXxXfXgXgXxXxXMXxXxXMXMXxXMXMXMXxXBX2X@ X X m M N 0.7.wXhXaXgXgXgXgXgXgXgXgXgXgXgXfXgXgXgXjXgXgXgXgXgXgXfX",
"gXgXgXgXgXgXgXxXfXfXfXfXlXkXkXgXgXgXfXgXfXgXqXeXgXgXfXgXfXNX5..   @ 5.0.5.0.VXpXgXgXgXgXgXgXgXgXgXgXgXgXfXgXgXgXgXgXgXgXgXgXgXgX",
"gXjXjXgXgXgXeXgXgXeXgXgXfXfXfXfXgXgXgXxXgXgXgXjXjXjXgXgXgXxXMX7.% @ % = 9.NXfXfXgXgXgXgXgXgXaXgXgXgXgXgXgXgXgXqXgXgXgXgXgXgXqXxX",
"gXgXgXgXgXxXgXgXgXgXgXgXgXgXgXgXfXgXeXgXgXgXgXgXgXqXgXgXgXgXkXMXhX3X).6XNXjXkXkXgXgXgXgXgXgXgXaXgXgXgXgXfXgXgXgXfXgXgXgXgXgXfXgX"
};
